<svg xmlns="http://www.w3.org/2000/svg" xmlns:xlink="http://www.w3.org/1999/xlink" width="284.46" height="180.599" viewBox="0 0 284.46 180.599">
  <defs>
    <clipPath id="clip-path">
      <path id="Trazado_671002" data-name="Trazado 671002" d="M1842.364,856.2v-.007h-.028a.433.433,0,0,1-.125-.06h0l-.029-.022V856.1h-.01a.544.544,0,0,1-.081-.087v0h0a.814.814,0,0,1-.119-.242v0h0c-.007-.024-.014-.049-.02-.073l-.193-.842-.763-3.324h0l-1.189-5.185h0l-3.433-14.966a.35.35,0,0,1,.041-.253h.007v-.012a.516.516,0,0,1,.178-.17h0v0c.017-.01.035-.019.053-.028h.008v0a.593.593,0,0,1,.075-.027h.016v0a.546.546,0,0,1,.136-.018h39.577a.45.45,0,0,1,.119.016v.006h.021a.489.489,0,0,1,.253.208v.006h0a.954.954,0,0,1,.088.179v0h0q.018.049.032.1l6.907,24.317a.32.32,0,0,1-.036.256h-.011v.019a.452.452,0,0,1-.06.073h0a.568.568,0,0,1-.121.091h0a.657.657,0,0,1-.06.03h0a.626.626,0,0,1-.088.03h-.034v.008a.527.527,0,0,1-.105.011h-40.905a.459.459,0,0,1-.1-.011" transform="translate(-1836.36 -830.856)" fill="none" clip-rule="evenodd"/>
    </clipPath>
    <linearGradient id="linear-gradient" x1="0.499" y1="0.899" x2="0.501" y2="0.11" gradientUnits="objectBoundingBox">
      <stop offset="0" stop-color="#4894d0"/>
      <stop offset="1" stop-color="#bbe2f7"/>
    </linearGradient>
    <clipPath id="clip-path-2">
      <path id="Trazado_671007" data-name="Trazado 671007" d="M1887.133,815.4h0l-.09-.059v0h0l-.088-.057v0h-.005l-.086-.056v0h-.007l-.084-.055v-.006h-.008l-.083-.057v0h-.006l-.085-.058v0h0l-.087-.059v0h0l-.089-.061h0q-.214-.148-.426-.3v0h-.005c-.111-.08-.22-.161-.33-.243h0l-.242-.183h0c-.091-.07-.183-.139-.273-.21v0h0q-.4-.312-.789-.64h0l-.029-.025V813.3h-.006c-.059-.05-.118-.1-.176-.151h0l-.212-.183h0c-.092-.08-.183-.162-.274-.243h0l-.029-.026v0h-.005q-.542-.489-1.063-1.006h0l-.03-.03h0l-.121-.121h0q-.514-.518-1.006-1.063v0h0l-.026-.03h0q-.122-.136-.243-.274h0q-.184-.21-.366-.424v0h0l-.15-.179v0h0q-.276-.332-.545-.671h0l-.091-.117v0h0q-.246-.315-.484-.635v0h0l-.088-.118v0h0q-.2-.272-.394-.548h0q-.138-.2-.274-.4h0l-.06-.089v0h0q-.153-.227-.3-.456v0h0l-.06-.091h0q-.108-.166-.213-.334v0h0c-.134-.212-.266-.425-.4-.64h0q-.155-.258-.3-.518h0q-.139-.242-.274-.485v0h0q-.218-.393-.425-.791v0h0l-.029-.056v0h0l-.028-.055v-.006h0q-.186-.361-.363-.726v-.006h0l-.028-.057v0h0l-.029-.058v0h0q-.124-.258-.243-.518h0c-.041-.09-.081-.18-.122-.269v-.005h0c-.04-.09-.08-.18-.12-.27v-.005h0q-.172-.392-.333-.789v0h0l-.059-.146v-.006h0l-.058-.148v0h0q-.173-.437-.334-.879V799.6h0q-.3-.813-.547-1.639v-.008h0l-.028-.091h0l-.061-.2v-.009h0c-.063-.213-.122-.426-.181-.639h0l-.03-.111v-.011h0q-.145-.544-.271-1.091v-.007h0c-.02-.089-.04-.178-.06-.267v-.007h0q-.046-.211-.09-.421v-.006h0c-.01-.048-.02-.1-.029-.146v-.007h0l-.029-.144v-.008h0c-.01-.05-.019-.1-.029-.151h0q-.065-.343-.122-.686v-.016h0c-.009-.056-.019-.111-.028-.167v-.016h0c-.01-.06-.019-.121-.028-.181v0h0c-.044-.291-.086-.583-.122-.874v-.01h0c-.01-.085-.019-.17-.029-.256V792.4h0q-.032-.283-.059-.567v-.013h0q-.015-.167-.029-.335v-.031h0q-.036-.446-.059-.892v-.054h0q-.021-.436-.028-.871v-.288h0c0-.142,0-.285,0-.427h0v-.119c0-.306.014-.612.028-.917h0v-.036c.008-.161.018-.322.028-.482h0v-.029c.006-.1.013-.193.02-.289l.193-2.4h0l.011-.136,2.507-.418a33.028,33.028,0,0,0,11.646-4.249l1.055-.595h0l.545-.307,1.6.9a32.226,32.226,0,0,0,11.617,4.244l2.534.4.206,2.556c.011.136.02.273.029.41v.061h0a27.284,27.284,0,0,1,.028,2.806h0v.036q-.012.287-.03.574h0v.009q-.013.209-.03.418h0v.014c-.009.117-.018.234-.029.351h0v.016q-.027.3-.06.594h0v.005c-.009.08-.018.159-.027.239h0v.028q-.053.444-.121.887h0v.006c-.009.059-.017.119-.026.177h0v.026c-.037.235-.078.471-.121.706h0v0l-.028.149h0v.017q-.111.588-.244,1.173h0c-.009.04-.019.08-.028.121h0v.008q-.113.485-.241.968h0v.01l-.03.112h0q-.087.321-.18.64h0v.01c-.02.068-.04.136-.06.2h0v0q-.276.92-.608,1.827h0v.006q-.19.519-.4,1.031h0q-.2.506-.426,1.006h0v0q-.162.366-.334.728h0v0q-.333.707-.7,1.4h0v0l-.031.057h0c-.109.2-.219.408-.332.61h0v.007c-.05.09-.1.178-.152.268h0l-.122.213h0l-.09.152h0v0l-.088.15h0v.005l-.088.147h0v.006l-.089.146h0v0l-.091.149h0q-.075.122-.152.243h0q-.105.168-.212.334h0v0l-.058.089h0v0q-.209.321-.425.637h0v0l-.06.088h0v0c-.07.1-.141.2-.212.3h0q-.194.276-.394.547h0v0l-.089.119h0v0q-.239.321-.486.637h0v0l-.118.15h0v.005q-.255.321-.518.636h0l-.18.213h0v0q-.2.229-.394.454h0v0c-.081.091-.161.182-.243.272h0l-.027.029h0v0q-.166.183-.334.362h0q-.82.874-1.7,1.676h-.005v.005l-.028.026h0v0l-.03.028h0q-.344.311-.7.61h0v0l-.179.15h0v0q-.315.262-.637.515h0v0c-.09.071-.182.141-.273.21h0q-.181.138-.364.273h0l-.122.09h0l-.211.152h0v0l-.213.151h0q-.462.324-.936.628h-3.626l-.074-.048" transform="translate(-1872.979 -778.952)" fill="none" clip-rule="evenodd"/>
    </clipPath>
    <linearGradient id="linear-gradient-2" x1="0.5" y1="0.397" x2="0.5" y2="1.094" gradientUnits="objectBoundingBox">
      <stop offset="0" stop-color="#4a89c7"/>
      <stop offset="1" stop-color="#0c4d89"/>
    </linearGradient>
    <clipPath id="clip-path-3">
      <path id="Trazado_671008" data-name="Trazado 671008" d="M1903.916,828.889h0q-.153-.1-.3-.21v0h-.005l-.208-.148v0h-.006q-.166-.12-.33-.243h0l-.12-.091h0l-.151-.116v-.006h-.008l-.114-.089v0h0q-.229-.179-.454-.364v0h0l-.18-.15v0h0l-.18-.152-.031-.026v0h-.005q-.244-.21-.483-.426h0l-.029-.027v0h0q-.182-.166-.362-.335h0q-.5-.472-.975-.971v0h0l-.026-.027v0h0l-.028-.029h0q-.2-.211-.4-.427h0q-.123-.136-.244-.272v0h0q-.091-.1-.181-.207v-.006h-.005l-.025-.03h0q-.169-.2-.335-.4h0l-.121-.147v-.005h0l-.148-.183h0q-.17-.211-.335-.426h0l-.091-.118v0h0l-.088-.116v-.006h0l-.087-.116v-.006h0l-.087-.117v0h0l-.088-.12v0h0q-.154-.21-.3-.423v0h0q-.106-.151-.211-.3v0h0l-.06-.088v0h0q-.122-.18-.242-.361v0h0l-.058-.088v0h0l-.059-.091h0q-.077-.118-.152-.238v-.006h0l-.057-.09h0c-.082-.131-.163-.262-.243-.394v0h0l-.09-.15v0h0l-.09-.151h0q-.186-.316-.365-.637v0h0q-.076-.137-.15-.274h0l-.03-.055v-.006h0q-.122-.227-.241-.455v0h0l-.029-.056v0h0l-.028-.055v-.006h0l-.027-.054V818.7h0l-.027-.053v-.008h0l-.026-.052v-.009h0q-.122-.242-.24-.487h0q-.109-.226-.213-.453v0h0q-.14-.3-.272-.61h0l-.061-.143v-.01h0l-.087-.207v-.006h0q-.07-.169-.139-.338c-.035-.086-.069-.173-.1-.26v-.012h0l-.056-.145V815.9h0l-.028-.072V815.8h-.007l-.054-.143v-.01h0l-.027-.073v-.019h-.007l-.054-.147v-.005h0l-.029-.079v-.012h0q-.075-.211-.148-.422v0h0l-.029-.085V814.8h0l-.028-.085v-.007h0l-.028-.085v-.007h0l-.028-.086v-.006h0l-.028-.089v0h0l-.06-.188v-.025h-.008l-.022-.072v-.019h-.006l-.025-.079v-.012h0l-.027-.088v0h0c-.031-.1-.061-.2-.091-.3h0q-.031-.107-.061-.213h0l-.03-.108V813.3h0l-.027-.1v-.025h-.007l-.024-.088v0h0l-.029-.11v-.012h0l-.027-.105v-.017h0l-.026-.1v-.02h-.005l-.025-.1V812.6h-.005q-.06-.243-.117-.488h0l-.031-.134v-.018h0l-.026-.12v-.033h-.007l-.023-.108v-.044h-.009l-.021-.1v-.021h0l-.026-.128v-.024h0l-.026-.129v-.023h0l-.026-.135v-.017h0c-.02-.106-.039-.211-.058-.318v-.018h0c-.009-.053-.018-.106-.027-.159v-.024h0c-.009-.054-.018-.107-.026-.161v-.052h-.008c-.007-.047-.015-.094-.022-.141v-.042h-.006c-.008-.054-.016-.108-.024-.162v-.051h-.007q-.012-.083-.023-.166v-.017h0c-.01-.071-.019-.142-.028-.213h0q-.016-.124-.031-.249v-.026h0c-.01-.082-.019-.165-.028-.247v-.089h-.009q-.011-.108-.021-.216v-.089h-.008c-.008-.087-.015-.175-.022-.262v-.043h0q-.015-.192-.027-.384v-.073h0q-.016-.273-.026-.546v-.247h-.008q-.015-.564,0-1.129h.011V805.6q.006-.16.014-.32a35.8,35.8,0,0,0,6.021-1.609,42.233,42.233,0,0,0,5.886-2.764,42.308,42.308,0,0,0,6.189,2.885,34.151,34.151,0,0,0,5.718,1.493q.015.3.022.592v.476h.007q0,.259,0,.519h0v.193q-.008.3-.023.6h-.008v.144q-.012.218-.028.435h0v.029c-.007.092-.014.184-.022.276h-.008v.092q-.011.122-.023.243h-.007v.07c-.008.078-.016.156-.026.235h-.005v.045q-.027.237-.059.474h0v.017c-.007.055-.015.111-.023.166h-.008v.053c-.007.053-.016.107-.023.16h-.007v.047c-.007.045-.014.091-.021.136h-.01v.06c-.008.051-.016.1-.025.153h-.006v.034q-.015.09-.03.179-.029.168-.061.336h0v0q-.014.075-.029.15h0v.01l-.028.143h0v.012l-.022.11h-.008v.04l-.023.112h-.007v.034l-.025.118h-.005v.024l-.028.128h0v.01l-.025.111h-.005v.023l-.03.129h0v0c-.019.081-.038.161-.057.241h0v.015l-.026.107h0v.017l-.026.1h0v.016l-.027.106h0v.014l-.028.108h0v.009l-.022.083h-.009v.032l-.024.09h-.006v.024l-.027.1h0v.013l-.03.109c-.02.071-.04.143-.061.213h0c-.029.1-.059.2-.09.3h0v.005l-.026.086h0v.014l-.023.077h-.007v.022l-.022.07h-.009v.028l-.03.094h0v0l-.029.089h0v.006l-.027.085h0v.01l-.027.082h0v.011l-.027.081h0v.012l-.027.08h0v.011l-.027.08h0v.01q-.087.255-.179.509h0v.012l-.029.079h0v0l-.054.148h-.007v.018l-.028.074h0v.008l-.055.145h-.006v.016l-.029.076h0v0l-.058.149h0v.008c-.026.068-.053.135-.08.2s-.067.165-.1.246h0v0l-.087.208h0v.011l-.061.142h0q-.118.275-.241.548h0v.006q-.075.165-.152.33h0l-.028.06h0v.005q-.3.643-.639,1.276h0v0q-.089.167-.18.333h0v.007l-.03.054h0q-.135.245-.274.487h0l-.088.152h0v.006q-.223.381-.457.757h0q-.1.168-.212.335h0v0l-.058.089h0v0q-.208.32-.424.635h0v0l-.06.088h0c-.07.1-.141.2-.213.3h0q-.12.168-.241.335h0v0l-.088.118h0v.005l-.087.117h0v.006l-.088.116h0v.005l-.089.117h0v0l-.091.119h0l-.119.152h0v0l-.117.149h0v.006l-.118.147h0v.005l-.12.147h0v0c-.1.122-.2.243-.3.363h0v0l-.181.211h0v0l-.025.028h-.006v.007l-.182.207h0q-.135.153-.273.3h0l-.027.029h0v0q-.211.229-.426.453h0l-.029.03h0v0q-.238.246-.481.486h-.007v.006l-.024.024h-.006v.006l-.025.024h-.005v.005l-.026.025h0v0l-.027.026h0v0l-.028.026h0v0l-.029.028h0v0l-.03.029h0q-.209.2-.422.4h-.005v0l-.028.026h0v0q-.15.138-.3.272h0v0l-.242.211h0v0l-.177.151h-.006v.006l-.029.025h0l-.182.151h0q-.224.185-.453.365h0v0l-.152.119h0l-.119.091h0v0l-.118.09h0v0l-.243.18h0l-.21.152h0v0l-.213.15h0l-.087.061h0v0q-.123.086-.248.169l-.118-.08" transform="translate(-1892.096 -800.903)" fill="none" clip-rule="evenodd"/>
    </clipPath>
    <linearGradient id="linear-gradient-3" x1="0.5" y1="1.937" x2="0.5" y2="0.381" gradientUnits="objectBoundingBox">
      <stop offset="0" stop-color="#4894d0"/>
      <stop offset="1" stop-color="#f1f9fd"/>
    </linearGradient>
    <clipPath id="clip-path-4">
      <path id="Trazado_671016" data-name="Trazado 671016" d="M1973.045,422.141h0a15.887,15.887,0,0,1-5.7-7.35h0a20.164,20.164,0,0,1-1.128-9.607h0c.034-.3.076-.59.122-.884h0c1.828-11.746,12.895-23.2,31.064-18.974.036-.328.082-.674.136-1.033h0v-.006c.087-.574.2-1.184.335-1.824h0q.029-.136.06-.274h0v0q.044-.194.091-.393h0v0q.085-.359.182-.728h0v-.005q.059-.224.122-.452h0q.059-.212.121-.426h0v0q.088-.3.182-.607h0q.183-.588.4-1.189h0v0q.144-.408.3-.82h0v-.006q.174-.452.365-.909h0v0q.089-.212.182-.425h0v0q.06-.136.121-.273h0v0q.075-.167.152-.334h0q.354-.764.761-1.524h0v0q.089-.166.181-.332h0v0q.075-.135.152-.27h0v0l.122-.212h0l.09-.154q.135-.229.274-.455h0v0q.253-.413.518-.819h0l.061-.091h0l.06-.091h0l.061-.091h0q.164-.245.333-.487h0v0q.268-.384.548-.759h0l.09-.12h0v0l.091-.12h0q.21-.277.427-.549h0l.122-.152h0q.3-.37.608-.731h0v0q.211-.245.427-.486h0q.151-.169.3-.335h0q.241-.262.488-.518h0l.029-.03h0v0l.027-.029h0v0l.026-.027h0v0l.026-.026h0v0q.269-.276.545-.544h0v0l.027-.026h0v0l.028-.027h0v0l.028-.027h0v0l.029-.028h0q.256-.247.518-.487h0q.166-.153.335-.3h0q.241-.216.486-.426h0q.2-.169.4-.334h0q.167-.138.335-.274h0l.151-.122h0q.271-.216.548-.426h0l.12-.091h0v0l.119-.09h0v0q.227-.169.457-.334h0c.1-.072.2-.143.3-.213h0v0c.191-.134.384-.264.578-.394h0l.091-.06h0l.091-.061h0q.212-.139.426-.274h0l.244-.152h0l.148-.091h0v0q.3-.185.609-.363h0l.212-.122h0l.27-.152h.005v0q.362-.2.729-.394h0v0l.056-.029h0v0l.055-.028h.006v0q.33-.17.664-.332h.007v0l.055-.027h.006v0l.057-.027h0v0l.061-.029h0q.227-.109.457-.213h0l.27-.121h.005v0l.273-.12h0q.287-.124.577-.243h0l.145-.06h.008v0l.147-.058h.006v0l.149-.059h0l.394-.151h0l.242-.091h0l.083-.03h.008v0l.334-.119h0q.223-.078.447-.152h.01v0l.08-.027h.011v0l.084-.027h.007v0l.088-.028h0q.242-.078.485-.151h0l.3-.091h0l.212-.06h0l.214-.061q.228-.063.457-.122h0l.117-.03h.005l.118-.029h0l.119-.029h0l.12-.03h0l.388-.091h.008v0l.263-.059h.011v0l.275-.059.3-.061h.005l.151-.03h0l.322-.061h.013v0q.257-.047.516-.089h0c.126-.021.253-.041.38-.061h.017v0c.212-.032.426-.061.639-.089h0l.239-.03h0l.258-.03h.017v0q.287-.032.575-.059h0l.334-.03h.032v0q.432-.035.867-.059h.048v0c.225-.012.451-.021.678-.028h.054c.3-.009.6-.014.905-.014q.357,0,.711.008v.007h.215q.35.01.7.029v0h.037c.14.008.28.014.42.024v.007h.09l.4.03h0l.333.029h.012l.263.026v0h.048l.257.027v0h.027l.247.03h.007q.333.041.664.088v0h.026l.188.027v0h.027l.156.024v.006h.037l.176.029v0h.009q.348.057.693.122h0l.151.028v0h.013l.14.026v0h.02l.132.028v0h.014l.139.029h.007l.145.03h0q.337.072.671.151h.006l.115.027v0h.016l.106.026v0h.016l.107.027v0h.013l.109.027v0h.012l.354.091h0l.214.059v0h.007l.207.057v0h.013l.109.03h0l.09.026v0h.013l.2.06h0q.707.212,1.4.455v0h.006l.085.03h0l.333.122h0l.242.09h0l.148.056v0h.013l.231.091h0l.152.06h0q.259.1.516.213h0l.211.089v0h.007l.054.023v.007h.016l.137.061h0l.06.027v0h.008l.206.092h0c.133.06.265.121.4.183h0l.061.028v0h0l.056.027v0h.008q.582.276,1.151.575v0h.008l.053.028v0h0l.057.029h0l.333.181v0h0q.352.193.7.394v0h0l.148.085v.006h.01l.142.086v.006h.009q.4.237.784.485v0h0l.087.055v.006h.009q.459.3.905.608v0h0c.07.049.141.1.211.146v.006h.009l.083.06h0l.12.087v0h.006q.289.209.573.424v0h0l.118.089v0h0l.119.09h0l.029.023v.008h.01l.112.088v0h0c.091.071.181.141.271.213h0c.113.09.224.182.335.274h0l.182.15v0h0l.027.022v.008h.01c.058.049.115.1.173.148v0h.005q.368.314.727.639v0h0l.028.026v0h.006l.025.023v.008h.008c.11.1.219.2.327.3h0q.659.619,1.28,1.276v0h0l.026.027v0h0l.027.029v0h0l.029.03h0c.113.12.224.242.335.364v0h0q.246.27.486.546v0h0l.181.21v0h0c.112.131.223.263.332.4h0l.121.15v0h0l.12.149v0h0l.119.148v0h0l.118.151h0l.09.117v0h0c.1.131.2.262.3.395v0h0q.122.163.243.328v.007h.005l.086.118v0h0c.051.07.1.141.15.212v0h0q.233.328.457.662v.009h.006l.055.081v.01H2054l.054.082v.009h.006l.055.085v.007h0l.057.088v0h0l.059.09h0c.072.111.143.222.212.334h0l.091.147v.006h0c.029.047.059.094.088.142v.01h.006l.055.088v0h0l.089.151v0h0q.234.392.457.791v0h0l.03.052v.009h.005l.117.212h0l.03.056v.005h0l.028.052v.009h0q.233.432.453.871v.014h.007l.024.046v.015h.007l.023.049v.012h.006l.024.051v.01h.005l.025.053v.008h0l.027.055v.006h0l.028.057v0h0l.028.059v0h0q.108.226.213.454v0h0c.04.088.081.175.12.263v.011h0l.026.055v.006h0c.031.068.059.137.089.206v.007h0q.2.468.393.943v0h0l.029.075v.017h.007c.019.047.036.095.054.142v.01h0l.057.149v0h0q.109.286.212.575v0h0l.029.081v.011h0l.027.075v.017h.006c.115.33.224.662.329,1v.01h0l.027.088v0h0c.02.064.041.128.06.192v.022h.007l.024.08v.011h0c.02.067.038.134.058.2v.013h0c.03.1.059.2.088.3h0c.042.151.082.3.122.455v0h0l.03.113v.009h0c.009.035.019.07.028.106v.016h0c.009.036.018.073.027.109v.012h0c.01.038.018.076.028.113v.009h0c.01.039.019.078.028.117v0h0c.01.04.02.081.03.121h0c.011.046.022.091.033.136l.16-.014h.02v0c.125-.011.251-.02.377-.029h.08v-.005q.235-.015.47-.025h.079v0q.424-.017.854-.017c.276,0,.55.007.823.017v0h.083c.177.007.352.017.528.028v0h.043c.118.008.236.016.353.026v0h.05c.2.017.395.036.591.058v0h.023l.22.025v.005h.046l.2.027v0h.026q.386.053.767.118v0h.024l.159.028v0h.014c.251.046.5.1.748.151v0h.008c.089.02.178.038.266.059v0h.01l.112.027v0h.013q.3.072.6.152h0l.21.057v0h.015l.107.03h0l.09.027v0h.013l.2.06h0q.243.073.484.152h0l.091.03h0l.089.029h.005l.086.03h0q.338.116.67.243h0l.149.057v0h.011l.142.055v.006h.015q.362.144.718.3v0h.008l.205.09h0l.058.027v0h.008c.213.1.424.2.633.3v0h0l.056.028v0h.006l.055.027v0h.006l.055.027v0h.006l.055.027v0h.007l.054.029v0h0l.058.03h0q.339.176.671.364v0h0l.21.12v0h0q.306.178.606.366h0l.092.057v0h.006l.238.152h0l.091.06h0l.09.059v0h0q.245.163.485.331v0H2073l.085.059v0h0l.119.087v0h.006l.208.151h0c.081.06.162.121.242.183h0l.152.117v.005h.007l.115.089v0h0l.149.12v0h0l.15.121h0q.184.15.365.3h0l.03.025v.005h.006l.207.18v0h0q.34.3.668.61h0l.03.03h0l.03.029h0l.029.028v0h0l.028.027v0h0l.028.027v0h0q.2.194.393.392v0h0l.026.027v0h0l.027.027v0h0l.027.028v0h0l.028.029h0l.029.03h0l.03.03h0q.312.327.61.668v0h0l.181.208v.006h0q.167.2.331.4h0l.122.151v0h0c.04.05.081.1.121.15v0h0c.031.038.06.078.09.116v.006h0q.152.2.3.4h0l.152.209v0h0c.029.041.059.08.088.121h0l.06.087v0h0q.107.151.21.3v0h0l.06.089v0h0l.059.09h0c.072.108.143.216.213.325v.01h.007l.054.087v0h0q.17.27.333.545v0h0c.03.05.06.1.089.151h0l.03.05v.011h.007l.085.152h0l.03.054v.007h0c.04.07.079.14.118.211v0h0q.14.256.273.516v0h0l.03.059v0h0c.01.02.02.04.029.059v0h0l.03.059v0h0l.03.06h0l.03.06h0l.03.061h0l.03.061h0c.063.129.123.259.183.389v.007h0l.027.058v0h0l.09.2v.012h.005l.025.058v0h0q.093.212.182.425v0h0l.06.147v.005h0l.059.144v.009h0l.058.148v0h0c.03.079.06.157.09.236v.008h0c.03.08.06.16.088.24v0h0l.029.083v.009h0l.027.078v.014h0q.142.406.27.818v.005h0c.021.066.04.133.059.2v.014h0l.026.089v0h0c.01.033.02.066.03.1v.022h.007c.008.029.016.059.024.088v0h0l.03.109v.013h0c.019.071.039.142.058.213h0c.021.079.041.159.061.238v.006h0c.01.04.019.08.029.119v0h0c.02.082.041.164.06.247v.027h.007c.008.037.016.074.024.111v.011h0c.02.09.04.179.059.269v.005h0c.021.1.04.2.06.3v.009h0q.015.075.029.15v0h0c.01.052.02.1.03.157v.026h.005c.009.05.017.1.025.151v.032h.005c.009.05.017.1.025.152h0q.032.2.061.394v0h0q.016.108.03.215v.029h0q.014.1.027.2v.041h0c.009.075.018.15.026.226v.018h0c.01.088.02.176.028.264v.01h0c.011.111.021.222.03.333v.063h.005c.01.12.017.241.025.362v.034h0q.018.292.028.586v.207h.008c.006.19.008.381.008.572s0,.371-.008.556h-.008v.223q-.01.286-.027.57h0v.05c-.007.115-.014.231-.023.346h-.007v.079q-.013.159-.028.318h0v.026c-.009.093-.02.186-.03.279h0v0c-.008.07-.016.14-.024.21h-.007v.057c-.008.062-.016.125-.024.187h-.006v.044c-.009.067-.019.133-.028.2h0v.018c-.018.126-.038.252-.058.378h0v.016c-.009.056-.018.111-.028.167h0v.017c-.008.045-.014.09-.022.135h-.008v.042c-.009.047-.018.094-.027.141h0v.018c-.02.106-.039.212-.06.317h0c-.019.091-.04.182-.059.273h0v.009c-.008.038-.016.076-.025.113h-.006v.027c-.009.042-.018.084-.027.126h0v.013c-.008.037-.018.073-.026.109h0v.016l-.026.106h0v.019q-.058.236-.12.47h0v.008c-.018.069-.037.137-.056.206h-.005v.02c-.01.034-.019.068-.028.1h0v.008c-.008.028-.017.056-.025.084h-.006v.019c-.019.065-.038.13-.058.195h0v.01c-.021.068-.04.136-.061.2h0c-.01.031-.02.061-.03.091h0v0l-.029.089h0v0l-.028.087h0v.007c-.009.028-.018.056-.027.084h0v.01l-.027.082h0v.012l-.027.079h0v.009l-.029.082h0v0q-.073.212-.151.423h0v0c-.03.08-.061.16-.091.239h0c-.019.05-.038.1-.057.151h0v.009c-.019.048-.039.1-.058.143h0v.008c-.02.048-.039.1-.059.145h0v0l-.061.148h0c-.03.071-.061.142-.091.212h0v0c-.039.091-.079.182-.119.273h0v.006l-.024.055h-.006v.015c-.04.087-.081.173-.122.26h0v0l-.028.06h0v.006q-.188.4-.392.787h0v.009l-.027.052h0v.006l-.029.055h0v0q-.089.167-.18.332h0v.005l-.116.208h-.006v.01l-.028.051h0v0l-.087.149h0v.008l-.121.206h0q-.119.2-.243.4h0v0l-.056.09h0v.008l-.153.236h0l-.06.091h0l-.059.09h0v0l-.121.181h0l-.147.213h-.005v.007l-.058.084h0v0l-.084.118h-.007v.009l-.06.082h0v0q-.178.246-.363.487h0v0l-.091.119h0l-.119.152h0v0l-.12.149h0v0c-.149.184-.3.367-.455.547h0v0l-.024.028h-.007v.008c-.06.069-.122.137-.183.206h0q-.151.169-.3.335h0l-.028.03h0v0l-.025.028h0v.005q-.513.549-1.063,1.062h0v0l-.028.026h0v0q-.165.153-.333.3h0v0c-.079.07-.157.142-.238.211h-.006v.005l-.03.025h0c-.059.051-.12.1-.18.152h0v0q-.256.216-.518.424h0l-.115.091h-.007v.006l-.152.116h0q-.181.139-.365.274h0c-.069.051-.138.1-.208.152h-.005v0c-.07.05-.14.1-.211.148h0v0c-.238.166-.479.329-.724.486h-.008v.005l-.089.056h0v0l-.242.151h0c-.1.061-.2.122-.3.182h0v0l-.152.09h0l-.05.03h-.01v.006l-.15.085h0q-.332.188-.67.365h0l-.057.03h0v0l-.054.028h-.007v0l-.052.027h-.009v0l-.052.026h-.009v0l-.053.026h-.008v0q-.374.188-.755.362h-.008v0l-.059.027h0l-.207.09h-.007v0q-.21.092-.423.18h0v0l-.145.059h-.007v0l-.142.058h-.011v0l-.148.057h0v0q-.241.093-.486.181h0l-.084.03h-.007v0q-.554.2-1.121.363h-.008v0l-.2.059h-.015v0l-.211.057h0q-.356.1-.716.182h-.017v0l-.112.026h-.011v0c-.089.021-.18.039-.27.059h0c-.146.032-.294.062-.442.09h-.016v0l-.144.028h-.009v0l-.151.029h-.032v.005l-.152.025h0c-.2.033-.392.063-.589.091h-.021v0l-.2.027h-.017v0l-.229.028h-.015v0q-.278.033-.557.059h-.022v0c-.107.01-.214.02-.322.029h-.075v.006c-.13.01-.261.017-.392.025h0c-.256.014-.512.024-.769.03h-.238v0c-.081,0-.162,0-.244,0h-76.171a20.1,20.1,0,0,1-11.18-3.361" transform="translate(-1966.065 -357.802)" fill="none" clip-rule="evenodd"/>
    </clipPath>
    <linearGradient id="linear-gradient-4" x1="0.5" y1="0.981" x2="0.5" y2="-0.252" gradientUnits="objectBoundingBox">
      <stop offset="0" stop-color="#4388c7"/>
      <stop offset="1" stop-color="#c3e2f7"/>
    </linearGradient>
    <clipPath id="clip-path-5">
      <path id="Trazado_671022" data-name="Trazado 671022" d="M2295.4,502.959h0l.762-1.25,3.385-5.551h0l4.147-6.8h0l1.67-2.738,1.837,3.013,2.623,4.3h0l.762,1.25h0l.762,1.25h0l.762,1.249h0l.335.549h0l.762,1.25h0l.762,1.249h0l.762,1.249h0l.334.549h0l.427.7v0h0l.334.548h0l.426.7v0h0l.334.548h0l.161.264h-8.32v32.03h-6.148V505.3h-8.317Z" transform="translate(-2293.974 -486.618)" fill="none" clip-rule="evenodd"/>
    </clipPath>
    <linearGradient id="linear-gradient-5" x1="0.5" y1="1.089" x2="0.5" y2="0.299" gradientUnits="objectBoundingBox">
      <stop offset="0" stop-color="#6ba2d7"/>
      <stop offset="1" stop-color="#e8f6fd"/>
    </linearGradient>
    <clipPath id="clip-path-6">
      <path id="Trazado_671023" data-name="Trazado 671023" d="M2070.78,708.075h0l-.762-1.25h0l-.762-1.25h0l-3.476-5.7h7.257V671.414h5.367v28.459h7.259l-3.384,5.548h0l-6.435,10.553-.123.2Z" transform="translate(-2065.779 -671.414)" fill="none" clip-rule="evenodd"/>
    </clipPath>
    <linearGradient id="linear-gradient-6" x1="0.498" y1="0.966" x2="0.502" y2="0.008" gradientUnits="objectBoundingBox">
      <stop offset="0" stop-color="#005187"/>
      <stop offset="1" stop-color="#3f5eaa"/>
    </linearGradient>
  </defs>
  <g id="Grupo_933531" data-name="Grupo 933531" transform="translate(-1591.571 -357.802)">
    <path id="Trazado_670990" data-name="Trazado 670990" d="M1725.4,400.492c-14.409,4.9-28.107,15.379-38.9,25.152-22.467,20.352-25.82,24.631-53.537,41.717-16.154,9.958-28.89,18.38-35.165,29.645-17.627,31.641,3.369,65.817,47.364,65.817h178.845s21.038.434,36.389-16.478c52.032-57.32-34.268-180.08-135-145.852" transform="translate(0 -28.873)" fill="#d1bbff" fill-rule="evenodd"/>
    <path id="Trazado_670991" data-name="Trazado 670991" d="M1647.8,1174.964h266.635c.413,0,.751.228.751.506s-.338.505-.751.505H1647.8c-.414,0-.753-.227-.753-.505s.339-.506.753-.506" transform="translate(-43.565 -641.732)" fill="#273373" fill-rule="evenodd"/>
    <path id="Trazado_670992" data-name="Trazado 670992" d="M2178.875,1074.305h59.765a1.741,1.741,0,0,1,1.739,1.736v16.426a1.741,1.741,0,0,1-1.739,1.736h-59.765a1.74,1.74,0,0,1-1.736-1.736v-16.426a1.74,1.74,0,0,1,1.736-1.736" transform="translate(-459.857 -562.683)" fill="#2f4fa1" fill-rule="evenodd"/>
    <rect id="Rectángulo_329222" data-name="Rectángulo 329222" width="20.75" height="8.347" transform="translate(1719.504 513.825)" fill="#fff"/>
    <rect id="Rectángulo_329223" data-name="Rectángulo 329223" width="36.231" height="8.347" transform="translate(1742.148 513.825)" fill="#fff"/>
    <rect id="Rectángulo_329224" data-name="Rectángulo 329224" width="2.47" height="2.003" transform="translate(1763.37 516.931)" fill="#e41f26"/>
    <rect id="Rectángulo_329225" data-name="Rectángulo 329225" width="2.47" height="2.003" transform="translate(1767.281 516.931)" fill="#009849"/>
    <rect id="Rectángulo_329226" data-name="Rectángulo 329226" width="2.47" height="2.003" transform="translate(1771.194 516.931)" fill="#e41f26"/>
    <rect id="Rectángulo_329227" data-name="Rectángulo 329227" width="8.906" height="1.97" transform="translate(1722.157 531.521)" fill="#273373"/>
    <rect id="Rectángulo_329228" data-name="Rectángulo 329228" width="8.906" height="1.97" transform="translate(1766.29 531.521)" fill="#273373"/>
    <path id="Trazado_670993" data-name="Trazado 670993" d="M2178.875,972.43h59.765a1.741,1.741,0,0,1,1.739,1.737v16.426a1.742,1.742,0,0,1-1.739,1.738h-59.765a1.741,1.741,0,0,1-1.736-1.738V974.167a1.74,1.74,0,0,1,1.736-1.737" transform="translate(-459.857 -482.678)" fill="#2f4fa1" fill-rule="evenodd"/>
    <rect id="Rectángulo_329229" data-name="Rectángulo 329229" width="20.75" height="8.347" transform="translate(1719.504 491.955)" fill="#fff"/>
    <rect id="Rectángulo_329230" data-name="Rectángulo 329230" width="36.231" height="8.347" transform="translate(1742.148 491.955)" fill="#fff"/>
    <rect id="Rectángulo_329231" data-name="Rectángulo 329231" width="2.47" height="2.003" transform="translate(1763.37 495.06)" fill="#e41f26"/>
    <rect id="Rectángulo_329232" data-name="Rectángulo 329232" width="2.47" height="2.003" transform="translate(1767.281 495.06)" fill="#e41f26"/>
    <rect id="Rectángulo_329233" data-name="Rectángulo 329233" width="2.47" height="2.003" transform="translate(1771.194 495.06)" fill="#009849"/>
    <rect id="Rectángulo_329234" data-name="Rectángulo 329234" width="8.906" height="1.97" transform="translate(1722.157 509.652)" fill="#273373"/>
    <rect id="Rectángulo_329235" data-name="Rectángulo 329235" width="8.906" height="1.97" transform="translate(1766.29 509.652)" fill="#273373"/>
    <path id="Trazado_670994" data-name="Trazado 670994" d="M2178.875,870.557h59.765a1.742,1.742,0,0,1,1.739,1.737V888.72a1.741,1.741,0,0,1-1.739,1.736h-59.765a1.741,1.741,0,0,1-1.736-1.736V872.294a1.741,1.741,0,0,1,1.736-1.737" transform="translate(-459.857 -402.676)" fill="#2f4fa1" fill-rule="evenodd"/>
    <rect id="Rectángulo_329236" data-name="Rectángulo 329236" width="20.75" height="8.347" transform="translate(1719.504 470.085)" fill="#fff"/>
    <rect id="Rectángulo_329237" data-name="Rectángulo 329237" width="36.231" height="8.347" transform="translate(1742.148 470.085)" fill="#fff"/>
    <rect id="Rectángulo_329238" data-name="Rectángulo 329238" width="2.47" height="2.003" transform="translate(1763.37 473.19)" fill="#e41f26"/>
    <rect id="Rectángulo_329239" data-name="Rectángulo 329239" width="2.47" height="2.003" transform="translate(1767.281 473.19)" fill="#e41f26"/>
    <rect id="Rectángulo_329240" data-name="Rectángulo 329240" width="2.47" height="2.003" transform="translate(1771.194 473.19)" fill="#e41f26"/>
    <rect id="Rectángulo_329241" data-name="Rectángulo 329241" width="8.906" height="1.971" transform="translate(1722.157 487.781)" fill="#273373"/>
    <rect id="Rectángulo_329242" data-name="Rectángulo 329242" width="8.906" height="1.971" transform="translate(1766.29 487.781)" fill="#273373"/>
    <path id="Trazado_670995" data-name="Trazado 670995" d="M2178.875,768.688h59.765a1.741,1.741,0,0,1,1.739,1.736v16.427a1.742,1.742,0,0,1-1.739,1.736h-59.765a1.741,1.741,0,0,1-1.736-1.736V770.424a1.741,1.741,0,0,1,1.736-1.736" transform="translate(-459.857 -322.676)" fill="#2f4fa1" fill-rule="evenodd"/>
    <rect id="Rectángulo_329243" data-name="Rectángulo 329243" width="20.75" height="8.347" transform="translate(1719.504 448.215)" fill="#fff"/>
    <rect id="Rectángulo_329244" data-name="Rectángulo 329244" width="36.231" height="8.347" transform="translate(1742.148 448.215)" fill="#fff"/>
    <rect id="Rectángulo_329245" data-name="Rectángulo 329245" width="2.47" height="2.003" transform="translate(1763.37 451.32)" fill="#e41f26"/>
    <rect id="Rectángulo_329246" data-name="Rectángulo 329246" width="2.47" height="2.003" transform="translate(1767.281 451.32)" fill="#e41f26"/>
    <rect id="Rectángulo_329247" data-name="Rectángulo 329247" width="2.47" height="2.003" transform="translate(1771.194 451.32)" fill="#e41f26"/>
    <rect id="Rectángulo_329248" data-name="Rectángulo 329248" width="8.906" height="1.97" transform="translate(1722.157 465.911)" fill="#273373"/>
    <rect id="Rectángulo_329249" data-name="Rectángulo 329249" width="8.906" height="1.97" transform="translate(1766.29 465.911)" fill="#273373"/>
    <rect id="Rectángulo_329250" data-name="Rectángulo 329250" width="2.47" height="2.003" transform="translate(1722.973 451.32)" fill="#e41f26"/>
    <rect id="Rectángulo_329251" data-name="Rectángulo 329251" width="2.47" height="2.003" transform="translate(1727.307 451.32)" fill="#009849"/>
    <path id="Trazado_670996" data-name="Trazado 670996" d="M2471.708,1014.624h2.086a6.285,6.285,0,0,1,6.268,6.267v28.415h-1.473v-28.415a4.813,4.813,0,0,0-4.795-4.8h-2.086Z" transform="translate(-691.188 -515.814)" fill="#26326c" fill-rule="evenodd"/>
    <path id="Trazado_670997" data-name="Trazado 670997" d="M2471.708,1115.878h2.086a6.289,6.289,0,0,1,6.268,6.27v5.938h-1.473v-5.938a4.81,4.81,0,0,0-4.795-4.8h-2.086Z" transform="translate(-691.188 -595.331)" fill="#26326c" fill-rule="evenodd"/>
    <path id="Trazado_670998" data-name="Trazado 670998" d="M2471.708,909.172a6.3,6.3,0,0,1,4.782,6.089v51.23h-1.473v-51.23a4.824,4.824,0,0,0-3.309-4.559Z" transform="translate(-691.188 -433.001)" fill="#26326c" fill-rule="evenodd"/>
    <path id="Trazado_670999" data-name="Trazado 670999" d="M2471.708,808.765a6.3,6.3,0,0,1,4.782,6.089v51.231h-1.473V814.854a4.822,4.822,0,0,0-3.309-4.559Z" transform="translate(-691.188 -354.149)" fill="#26326c" fill-rule="evenodd"/>
    <path id="Trazado_671000" data-name="Trazado 671000" d="M1824.427,824.1h40.383c.991,0,1.539.846,1.8,1.8l7.561,27.548c.261.956-.811,1.8-1.8,1.8H1830.62c-.99,0-1.584-.835-1.8-1.8l-6.192-27.548c-.218-.967.811-1.8,1.8-1.8" transform="translate(-181.429 -366.193)" fill="#4a89c7" fill-rule="evenodd"/>
    <path id="Trazado_671001" data-name="Trazado 671001" d="M1829.973,824.1h40.385c.99,0,1.537.846,1.8,1.8l7.562,27.548c.261.956-.811,1.8-1.8,1.8h-41.754c-.99,0-1.582-.835-1.8-1.8l-6.192-27.548c-.217-.967.811-1.8,1.8-1.8" transform="translate(-185.784 -366.193)" fill="#26326c" fill-rule="evenodd"/>
    <g id="Grupo_933520" data-name="Grupo 933520" transform="translate(1644.123 459.358)">
      <g id="Grupo_933519" data-name="Grupo 933519" clip-path="url(#clip-path)">
        <rect id="Rectángulo_329252" data-name="Rectángulo 329252" width="47.569" height="25.355" transform="translate(-0.012 0)" fill="url(#linear-gradient)"/>
      </g>
    </g>
    <path id="Trazado_671003" data-name="Trazado 671003" d="M1856.782,959.064h54.257V960.5a1.437,1.437,0,0,1-1.434,1.434h-51.388a1.439,1.439,0,0,1-1.435-1.434Z" transform="translate(-208.275 -472.182)" fill="#4a89c7" fill-rule="evenodd"/>
    <path id="Trazado_671004" data-name="Trazado 671004" d="M1999.145,959.064h40.26V960.5a1.439,1.439,0,0,1-1.436,1.434h-37.391a1.437,1.437,0,0,1-1.433-1.434Z" transform="translate(-320.075 -472.182)" fill="#97d7f6" fill-rule="evenodd"/>
    <path id="Trazado_671005" data-name="Trazado 671005" d="M2073.712,964.278h12.344a.273.273,0,0,1,0,.546h-12.344a.273.273,0,0,1,0-.546" transform="translate(-378.421 -476.276)" fill="#26326c" fill-rule="evenodd"/>
    <path id="Trazado_671006" data-name="Trazado 671006" d="M1860.688,961.569a.757.757,0,1,1-.589.738.677.677,0,0,1,.589-.738" transform="translate(-210.88 -474.149)" fill="#26326c" fill-rule="evenodd"/>
    <rect id="Rectángulo_329253" data-name="Rectángulo 329253" width="7.406" height="0.805" transform="translate(1660.557 487.919)" fill="#26326c"/>
    <rect id="Rectángulo_329254" data-name="Rectángulo 329254" width="1.892" height="0.805" transform="translate(1668.687 487.919)" fill="#26326c"/>
    <rect id="Rectángulo_329255" data-name="Rectángulo 329255" width="1.892" height="0.805" transform="translate(1671.243 487.919)" fill="#26326c"/>
    <g id="Grupo_933522" data-name="Grupo 933522" transform="translate(1651.984 448.215)">
      <g id="Grupo_933521" data-name="Grupo 933521" transform="translate(0 0)" clip-path="url(#clip-path-2)">
        <rect id="Rectángulo_329256" data-name="Rectángulo 329256" width="32.098" height="36.498" transform="translate(0 0)" fill="url(#linear-gradient-2)"/>
      </g>
    </g>
    <g id="Grupo_933524" data-name="Grupo 933524" transform="translate(1656.088 452.928)">
      <g id="Grupo_933523" data-name="Grupo 933523" transform="translate(0)" clip-path="url(#clip-path-3)">
        <rect id="Rectángulo_329257" data-name="Rectángulo 329257" width="23.877" height="28.066" transform="translate(-0.003 0)" fill="url(#linear-gradient-3)"/>
      </g>
    </g>
    <path id="Trazado_671009" data-name="Trazado 671009" d="M1922.4,828.352a6.943,6.943,0,1,0,6.944,6.943,6.943,6.943,0,0,0-6.944-6.943" transform="translate(-254.352 -369.531)" fill="#ef8d21" fill-rule="evenodd"/>
    <path id="Trazado_671010" data-name="Trazado 671010" d="M1924.373,851.907a1.013,1.013,0,1,1,1.65-1.174l1.376,1.925,4.938-4.031a1.013,1.013,0,0,1,1.278,1.572l-5.75,4.694a.791.791,0,0,1-.075.058,1.012,1.012,0,0,1-1.412-.238Z" transform="translate(-261.209 -385.275)" fill="#fff"/>
    <path id="Trazado_671011" data-name="Trazado 671011" d="M2471.708,803.152h.482a.483.483,0,0,1,.482.483v3.447a.484.484,0,0,1-.482.483h-.482Z" transform="translate(-691.188 -349.741)" fill="#26326c" fill-rule="evenodd"/>
    <path id="Trazado_671012" data-name="Trazado 671012" d="M2471.708,902.848h.482a.484.484,0,0,1,.482.483v3.447a.483.483,0,0,1-.482.483h-.482Z" transform="translate(-691.188 -428.034)" fill="#26326c" fill-rule="evenodd"/>
    <path id="Trazado_671013" data-name="Trazado 671013" d="M2471.708,1007.495h.482a.484.484,0,0,1,.482.484v3.447a.483.483,0,0,1-.482.483h-.482Z" transform="translate(-691.188 -510.215)" fill="#26326c" fill-rule="evenodd"/>
    <path id="Trazado_671014" data-name="Trazado 671014" d="M2471.708,1108.976h.482a.483.483,0,0,1,.482.483v3.445a.483.483,0,0,1-.482.483h-.482Z" transform="translate(-691.188 -589.91)" fill="#26326c" fill-rule="evenodd"/>
    <path id="Trazado_671015" data-name="Trazado 671015" d="M2220.712,722.822h45.608a1.24,1.24,0,0,1,1.235,1.234v6.173a1.24,1.24,0,0,1-1.235,1.235h-45.608a1.237,1.237,0,0,1-1.233-1.235v-6.173a1.237,1.237,0,0,1,1.233-1.234" transform="translate(-493.108 -286.657)" fill="#2f4fa1" fill-rule="evenodd"/>
    <rect id="Rectángulo_329258" data-name="Rectángulo 329258" width="18.048" height="2.726" transform="translate(1730.824 439.303)" fill="#4a89c7"/>
    <rect id="Rectángulo_329259" data-name="Rectángulo 329259" width="10.715" height="1.158" transform="translate(1750.907 440.794)" fill="#4a89c7"/>
    <rect id="Rectángulo_329260" data-name="Rectángulo 329260" width="1.516" height="1.299" transform="translate(1763.023 440.685)" fill="#009849"/>
    <rect id="Rectángulo_329261" data-name="Rectángulo 329261" width="1.516" height="1.299" transform="translate(1765.902 440.685)" fill="#e41f26"/>
    <rect id="Rectángulo_329262" data-name="Rectángulo 329262" width="1.518" height="1.299" transform="translate(1768.781 440.685)" fill="#e41f26"/>
    <rect id="Rectángulo_329263" data-name="Rectángulo 329263" width="11.173" height="1.372" transform="translate(1732.054 444.639)" fill="#26326c"/>
    <rect id="Rectángulo_329264" data-name="Rectángulo 329264" width="11.175" height="1.372" transform="translate(1758.106 444.639)" fill="#26326c"/>
    <g id="Grupo_933526" data-name="Grupo 933526" transform="translate(1671.968 357.802)">
      <g id="Grupo_933525" data-name="Grupo 933525" transform="translate(0 0)" clip-path="url(#clip-path-4)">
        <rect id="Rectángulo_329265" data-name="Rectángulo 329265" width="116.482" height="67.7" transform="translate(-0.238 0)" fill="url(#linear-gradient-4)"/>
      </g>
    </g>
    <path id="Trazado_671017" data-name="Trazado 671017" d="M2186.788,414.384a10.746,10.746,0,1,1-10.746,10.746,10.746,10.746,0,0,1,10.746-10.746" transform="translate(-458.996 -44.435)" fill="#e16e73" fill-rule="evenodd"/>
    <path id="Trazado_671018" data-name="Trazado 671018" d="M1861.835,1074.305H1921.6a1.74,1.74,0,0,1,1.736,1.736v16.426a1.74,1.74,0,0,1-1.736,1.736h-59.765a1.74,1.74,0,0,1-1.736-1.736v-16.426a1.74,1.74,0,0,1,1.736-1.736" transform="translate(-210.88 -562.683)" fill="#2f4fa1" fill-rule="evenodd"/>
    <rect id="Rectángulo_329266" data-name="Rectángulo 329266" width="20.75" height="8.347" transform="translate(1651.442 513.825)" fill="#fff"/>
    <rect id="Rectángulo_329267" data-name="Rectángulo 329267" width="36.231" height="8.347" transform="translate(1674.085 513.825)" fill="#fff"/>
    <rect id="Rectángulo_329268" data-name="Rectángulo 329268" width="2.47" height="2.003" transform="translate(1695.307 516.931)" fill="#e41f26"/>
    <rect id="Rectángulo_329269" data-name="Rectángulo 329269" width="2.472" height="2.003" transform="translate(1699.218 516.931)" fill="#009849"/>
    <rect id="Rectángulo_329270" data-name="Rectángulo 329270" width="2.47" height="2.003" transform="translate(1703.13 516.931)" fill="#e41f26"/>
    <rect id="Rectángulo_329271" data-name="Rectángulo 329271" width="8.906" height="1.97" transform="translate(1654.094 531.521)" fill="#273373"/>
    <rect id="Rectángulo_329272" data-name="Rectángulo 329272" width="8.907" height="1.97" transform="translate(1698.228 531.521)" fill="#273373"/>
    <path id="Trazado_671019" data-name="Trazado 671019" d="M1861.835,972.43H1921.6a1.741,1.741,0,0,1,1.736,1.737v16.426a1.741,1.741,0,0,1-1.736,1.738h-59.765a1.742,1.742,0,0,1-1.736-1.738V974.167a1.741,1.741,0,0,1,1.736-1.737" transform="translate(-210.88 -482.678)" fill="#2f4fa1" fill-rule="evenodd"/>
    <rect id="Rectángulo_329273" data-name="Rectángulo 329273" width="20.75" height="8.347" transform="translate(1651.442 491.955)" fill="#fff"/>
    <rect id="Rectángulo_329274" data-name="Rectángulo 329274" width="36.231" height="8.347" transform="translate(1674.085 491.955)" fill="#fff"/>
    <rect id="Rectángulo_329275" data-name="Rectángulo 329275" width="2.47" height="2.003" transform="translate(1695.307 495.06)" fill="#e41f26"/>
    <rect id="Rectángulo_329276" data-name="Rectángulo 329276" width="2.472" height="2.003" transform="translate(1699.218 495.06)" fill="#e41f26"/>
    <rect id="Rectángulo_329277" data-name="Rectángulo 329277" width="2.47" height="2.003" transform="translate(1703.13 495.06)" fill="#009849"/>
    <rect id="Rectángulo_329278" data-name="Rectángulo 329278" width="8.906" height="1.97" transform="translate(1654.094 509.652)" fill="#273373"/>
    <rect id="Rectángulo_329279" data-name="Rectángulo 329279" width="8.907" height="1.97" transform="translate(1698.228 509.652)" fill="#273373"/>
    <path id="Trazado_671020" data-name="Trazado 671020" d="M2154.662,1007.495h.484a.485.485,0,0,1,.483.484v3.447a.483.483,0,0,1-.483.483h-.484Z" transform="translate(-442.206 -510.215)" fill="#26326c" fill-rule="evenodd"/>
    <path id="Trazado_671021" data-name="Trazado 671021" d="M2154.662,1108.976h.484a.483.483,0,0,1,.483.483v3.445a.483.483,0,0,1-.483.483h-.484Z" transform="translate(-442.206 -589.91)" fill="#26326c" fill-rule="evenodd"/>
    <g id="Grupo_933528" data-name="Grupo 933528" transform="translate(1742.364 385.457)">
      <g id="Grupo_933527" data-name="Grupo 933527" transform="translate(0 0)" clip-path="url(#clip-path-5)">
        <rect id="Rectángulo_329280" data-name="Rectángulo 329280" width="22.785" height="50.708" fill="url(#linear-gradient-5)"/>
      </g>
    </g>
    <g id="Grupo_933530" data-name="Grupo 933530" transform="translate(1693.375 425.129)">
      <g id="Grupo_933529" data-name="Grupo 933529" clip-path="url(#clip-path-6)">
        <rect id="Rectángulo_329281" data-name="Rectángulo 329281" width="19.884" height="44.762" fill="url(#linear-gradient-6)"/>
      </g>
    </g>
    <path id="Trazado_671024" data-name="Trazado 671024" d="M2215.615,446l7.651,3.825-7.651,3.825Z" transform="translate(-490.073 -69.266)" fill="#fff" fill-rule="evenodd"/>
    <path id="Trazado_671025" data-name="Trazado 671025" d="M2085.857,630.9h30.307a.7.7,0,1,1,0,1.392h-30.307a.7.7,0,1,1,0-1.392" transform="translate(-387.625 -214.469)" fill="#fff" fill-rule="evenodd"/>
    <path id="Trazado_671026" data-name="Trazado 671026" d="M2085.857,607.151h30.307a.7.7,0,1,1,0,1.392h-30.307a.7.7,0,1,1,0-1.392" transform="translate(-387.625 -195.818)" fill="#fff" fill-rule="evenodd"/>
    <path id="Trazado_671027" data-name="Trazado 671027" d="M2085.857,583.4h30.307a.7.7,0,1,1,0,1.392h-30.307a.7.7,0,1,1,0-1.392" transform="translate(-387.625 -177.166)" fill="#fff" fill-rule="evenodd"/>
    <path id="Trazado_671028" data-name="Trazado 671028" d="M2085.857,559.649h30.307a.7.7,0,1,1,0,1.392h-30.307a.7.7,0,1,1,0-1.392" transform="translate(-387.625 -158.514)" fill="#fff" fill-rule="evenodd"/>
    <path id="Trazado_671029" data-name="Trazado 671029" d="M2085.857,535.9h10.509a.7.7,0,0,1,0,1.393h-10.509a.7.7,0,1,1,0-1.393" transform="translate(-387.625 -139.861)" fill="#fff" fill-rule="evenodd"/>
    <path id="Trazado_671030" data-name="Trazado 671030" d="M2525.562,857.056h28.151a3.574,3.574,0,0,1,3.562,3.564v59.485a3.574,3.574,0,0,1-3.562,3.565h-28.151a3.572,3.572,0,0,1-3.562-3.565V860.62a3.572,3.572,0,0,1,3.562-3.564" transform="translate(-730.683 -392.073)" fill="#26326c" fill-rule="evenodd"/>
    <rect id="Rectángulo_329282" data-name="Rectángulo 329282" width="30.55" height="50.235" transform="translate(1793.913 469.792)" fill="#fff"/>
    <path id="Trazado_671031" data-name="Trazado 671031" d="M2532.143,883.1v-5.581h31.384v51.066h-31.384V883.1Zm8.323,2.73h14.4a1.255,1.255,0,0,1,1.135.731h6.7v-8.209h-29.719v8.209h6.356A1.255,1.255,0,0,1,2540.466,885.83Zm0,11.013h14.4a1.247,1.247,0,0,1,1.19.88h6.643v-10.33h-6.625a1.254,1.254,0,0,1-1.208.933h-14.4a1.254,1.254,0,0,1-1.208-.933h-6.283v10.33h6.3A1.253,1.253,0,0,1,2540.466,896.844Zm0,11.346h14.4a1.252,1.252,0,0,1,1.12.7h6.713V898.556h-6.677a1.25,1.25,0,0,1-1.156.783h-14.4a1.253,1.253,0,0,1-1.159-.783h-6.332v10.331h6.372A1.252,1.252,0,0,1,2540.466,908.189Zm0,11.179h14.4a1.253,1.253,0,0,1,1.11.682h6.722V909.72h-6.619a1.25,1.25,0,0,1-1.214.966h-14.4a1.249,1.249,0,0,1-1.214-.966h-6.277v10.33h6.38A1.253,1.253,0,0,1,2540.466,919.368Zm-7.491,8.385h29.719v-6.869h-6.615a1.251,1.251,0,0,1-1.217.983h-14.4a1.254,1.254,0,0,1-1.22-.983h-6.271v6.869Z" transform="translate(-738.648 -408.143)" fill="#26326c"/>
    <rect id="Rectángulo_329283" data-name="Rectángulo 329283" width="3.889" height="3.889" transform="translate(1794.568 522.753)" fill="#7ba9e3"/>
    <rect id="Rectángulo_329284" data-name="Rectángulo 329284" width="1.958" height="1.958" transform="translate(1801.199 523.719)" fill="#7ba9e3"/>
    <rect id="Rectángulo_329285" data-name="Rectángulo 329285" width="1.958" height="1.958" transform="translate(1804.563 523.719)" fill="#7ba9e3"/>
    <rect id="Rectángulo_329286" data-name="Rectángulo 329286" width="1.96" height="1.958" transform="translate(1807.927 523.719)" fill="#7ba9e3"/>
    <rect id="Rectángulo_329287" data-name="Rectángulo 329287" width="1.958" height="1.958" transform="translate(1811.294 523.719)" fill="#7ba9e3"/>
    <rect id="Rectángulo_329288" data-name="Rectángulo 329288" width="1.958" height="1.958" transform="translate(1814.658 523.719)" fill="#7ba9e3"/>
    <path id="Trazado_671032" data-name="Trazado 671032" d="M2661.361,1120.756a1.358,1.358,0,1,1-1.357,1.358,1.358,1.358,0,0,1,1.357-1.358" transform="translate(-839.06 -599.161)" fill="#e41f26" fill-rule="evenodd"/>
    <path id="Trazado_671033" data-name="Trazado 671033" d="M2663.3,1139.23a.826.826,0,1,1-.827.825.825.825,0,0,1,.827-.825" transform="translate(-841.001 -613.669)" fill="#7ba9e3" fill-rule="evenodd"/>
    <rect id="Rectángulo_329289" data-name="Rectángulo 329289" width="27.98" height="2.763" transform="translate(1794.88 530.728)" fill="#26326c"/>
    <rect id="Rectángulo_329290" data-name="Rectángulo 329290" width="9.276" height="1.817" transform="translate(1799.824 483.353)" fill="#b6e1f8"/>
    <rect id="Rectángulo_329291" data-name="Rectángulo 329291" width="9.276" height="1.817" transform="translate(1799.824 472.817)" fill="#b6e1f8"/>
    <rect id="Rectángulo_329292" data-name="Rectángulo 329292" width="9.276" height="1.817" transform="translate(1799.824 515.844)" fill="#b6e1f8"/>
    <rect id="Rectángulo_329293" data-name="Rectángulo 329293" width="9.276" height="1.817" transform="translate(1799.824 505.462)" fill="#b6e1f8"/>
    <rect id="Rectángulo_329294" data-name="Rectángulo 329294" width="9.276" height="1.817" transform="translate(1799.824 494.253)" fill="#b6e1f8"/>
    <path id="Trazado_671034" data-name="Trazado 671034" d="M2537.445,732.007a1.541,1.541,0,0,1,1.366,1.529v5.538a1.541,1.541,0,0,1-1.537,1.539h-6.844a1.544,1.544,0,0,1-1.54-1.539v-5.538a1.544,1.544,0,0,1,1.287-1.518v-1.3l0-.032a3.639,3.639,0,0,1,7.265,0v.006c0,.055,0,.109,0,.164s0,.087,0,.13Zm-3.593,1.639a1.546,1.546,0,0,1,.72,2.915v2.556h-1.439v-2.556a1.547,1.547,0,0,1,.72-2.915ZM2531.5,732h4.618v-1.25a2.315,2.315,0,0,0-4.618,0Z" transform="translate(-736.093 -290.149)" fill="#4b95d1" fill-rule="evenodd"/>
    <path id="Trazado_671035" data-name="Trazado 671035" d="M2769.407,1149.283h9.092a.843.843,0,0,0,.835-.728.877.877,0,0,0,0-.177l-.369-4.775a5.261,5.261,0,0,0-.906-.3.918.918,0,0,1-.674-.61c-.009-.023-.012-.046-.022-.07-.207-.92-1.531-1.211-1.778-.313-.03.115-.058.229-.082.336-.006.027-.012.055-.015.08-.04.193-.07.37-.089.526l0,.01a4.93,4.93,0,0,0-.042.65c-.122.152-.238.3-.351.449-.058.075-.113.149-.168.22-.119.155-.235.306-.351.451-.052.07-.1.135-.159.2-.125.157-.25.308-.372.448-.055.063-.113.125-.171.184a2.631,2.631,0,0,1-1.5.907c-.985.134-2.6.243-3.373,1.689a.375.375,0,0,0-.04.093.56.56,0,0,0,.534.728" transform="translate(-924.536 -615.66)" fill="#9d1e3a" fill-rule="evenodd"/>
    <path id="Trazado_671036" data-name="Trazado 671036" d="M2769.407,1174.121h9.092a.843.843,0,0,0,.835-.728h-10.461a.56.56,0,0,0,.534.728" transform="translate(-924.536 -640.498)" fill="#273373"/>
    <path id="Trazado_671037" data-name="Trazado 671037" d="M2807.077,934.289v5.595c0,6.2-1.092,19.823-1.491,27.35l-4.163-.081-3.416-27.148-6.435.92-.183-7.422c.29-25.664,13.542-19.72,12.4-5.2-.125,1.6,3.907,4.229,3.294,5.985" transform="translate(-942.238 -438.232)" fill="#111243" fill-rule="evenodd"/>
    <path id="Trazado_671038" data-name="Trazado 671038" d="M2791.644,1008.822h8.083l-2.769,31.47-4.389.113Z" transform="translate(-942.439 -511.257)" fill="#111243" fill-rule="evenodd"/>
    <path id="Trazado_671039" data-name="Trazado 671039" d="M2831.341,1155.505c.076,1.328,4.779.87,5.529.472a.907.907,0,0,0,.437-.809,5.7,5.7,0,0,0-.36-1.879c-.3-.934-.262-.917-.469-1.555,0,0,.052-1.038-1.489-1.435s-2.1,2.189-2.367,2.687c-.241.456-1.177,1.079-1.275,2.2a2.153,2.153,0,0,0-.006.319" transform="translate(-973.611 -622.329)" fill="#9d1e3a" fill-rule="evenodd"/>
    <path id="Trazado_671040" data-name="Trazado 671040" d="M2831.341,1173.47c.076,1.328,4.779.87,5.529.473a.907.907,0,0,0,.437-.809,6.1,6.1,0,0,1-2.666.578,7.21,7.21,0,0,1-3.294-.56,2.152,2.152,0,0,0-.006.319" transform="translate(-973.611 -640.295)" fill="#273373"/>
    <path id="Trazado_671041" data-name="Trazado 671041" d="M2815.211,1028.428l-1.916,26.98.64-.05,1.949-21.562Z" transform="translate(-959.442 -526.655)" fill-rule="evenodd"/>
    <path id="Trazado_671042" data-name="Trazado 671042" d="M2755.908,901.026c-1.427,3.133-3.2,6.724-7.283,7.333-3.315.494-8.165-5.745-8.644-6.763s1.336-3.676,1.918-3.369,5.389,4.018,5.828,3.989c.512-.033,2.263-5.6,5.435-7.428.5-.286,3.358,4.89,2.745,6.238" transform="translate(-901.805 -421.695)" fill="#269dd8" fill-rule="evenodd"/>
    <path id="Trazado_671043" data-name="Trazado 671043" d="M2801.643,887.789a6.208,6.208,0,0,1,4.923,2.339c1.361,2.029-2.666,14.607-1.531,24.916h-16.961a220.509,220.509,0,0,1,1.388-24.429c2.113-3.324,8.933-2.826,12.181-2.826" transform="translate(-939.625 -416.188)" fill="#269dd8" fill-rule="evenodd"/>
    <path id="Trazado_671044" data-name="Trazado 671044" d="M2807.811,887.595c-2.5,1.351-3.074,11.709-3.764,27.109h6.344c.271-15.122,2.724-24.679,3.669-27.26a25.455,25.455,0,0,0-6.25.152" transform="translate(-952.179 -415.841)" fill="#cee9f9" fill-rule="evenodd"/>
    <path id="Trazado_671045" data-name="Trazado 671045" d="M2808.044,888.45c-2.5,1.351-3.013,9.457-3.7,24.855h.729c-.238-4.906.528-22.969,3.224-24.894l-.253.038" transform="translate(-952.414 -416.697)" fill="#cee9f9" fill-rule="evenodd"/>
    <path id="Trazado_671046" data-name="Trazado 671046" d="M2813.365,853.5a4.277,4.277,0,0,0,2.132,1.552v.826l-.146.2c-.54.937-.247,2.822.646,3.281,1.4-.5,3.285-1.737,3.666-3.473l-.25-.231-.338-.238-.168-2.057c.107-.031.781-.653.994-.779a1.23,1.23,0,0,0,.363-1.125c-.085-.476-.778-.154-.778-.154.6-1.41,1.369-2.627-.177-3.411a13,13,0,0,0-4.666-.725l-1.931-.2c.372.564.308,2.441.149,3.833-.143,1.249-.351,1.677.5,2.707" transform="translate(-958.985 -384.143)" fill="#f4b1b0" fill-rule="evenodd"/>
    <path id="Trazado_671047" data-name="Trazado 671047" d="M2828.31,878.83s-.607,1.97-1.4,2.32a2.782,2.782,0,0,1-1.226.341v-1.412a4.556,4.556,0,0,0,2.625-1.249" transform="translate(-969.171 -409.173)" fill="#e78284" fill-rule="evenodd"/>
    <path id="Trazado_671048" data-name="Trazado 671048" d="M2834,897.365c-.735-1.515-.595-2.872.817-3.814s2.617.207,3.352,1.722c1.446,2.973,2.5,9.6.973,11.49-1.248,1.542-8.839,1.472-9.888,1.189-.247-.066-2-1.74-1.51-3.168.055-.153.366-.215.613-.216a34.091,34.091,0,0,0,6.655-.926c1-.539-.5-5.215-1.012-6.277" transform="translate(-970.721 -420.465)" fill="#269dd8" fill-rule="evenodd"/>
    <path id="Trazado_671049" data-name="Trazado 671049" d="M2824.625,946.937a3.523,3.523,0,0,1,1.308,1.852c.29.856.4,1.283-.561.978-.671-.215-1.54-.5-1.54-.5a2.96,2.96,0,0,1-.772-2.536Z" transform="translate(-967.063 -462.493)" fill="#269dd8" fill-rule="evenodd"/>
    <path id="Trazado_671050" data-name="Trazado 671050" d="M2739.6,908.892a3.285,3.285,0,0,1-1.428,2.788c-.073-.136-.53-.723-.833-1.174-.649-.969.882-2.994,1.33-2.544Z" transform="translate(-899.665 -432)" fill="#269dd8" fill-rule="evenodd"/>
    <path id="Trazado_671051" data-name="Trazado 671051" d="M2723.183,890.891a8.681,8.681,0,0,0-.82-2.482c-.168-.15-.208-.082-.281.013a.8.8,0,0,0-.1.464,6.3,6.3,0,0,0,.113.793,11.054,11.054,0,0,1-2.651-2.553c-.292-.336-.759-.3-.479.3a12.515,12.515,0,0,0,1.144,1.591l-1.244-.8c-.345-.186-.345.239-.18.417.271.292,1.1,1.075,1.1,1.075l-.906-.33c-.347-.126-.165.3-.073.376.21.172.964.654.964.654l-.415-.138c-.472-.155-.125.45.009.493.031.009,1.659,1.04,1.94,1.21a6.833,6.833,0,0,1,1.546,1.714,3.23,3.23,0,0,0,1.052-1.98Z" transform="translate(-885.058 -415.521)" fill="#f4b1b0" fill-rule="evenodd"/>
    <path id="Trazado_671052" data-name="Trazado 671052" d="M2768.686,924.006h7.747l2.925,9.8h-7.747Z" transform="translate(-924.41 -444.65)" fill="#e6556b" fill-rule="evenodd"/>
    <path id="Trazado_671053" data-name="Trazado 671053" d="M2804.9,942.013l-1.086-.178-1.238-.822s-.494-.544-.674-.467c-.033.015.29,1.029.253,1.058-.327.249-2.4-.07-2.388-.034.994,3.32,3.169,1.714,5.542,2.468.348.111.415.071.394-.23a3.323,3.323,0,0,0-.8-1.795" transform="translate(-948.821 -457.632)" fill="#f4b1b0" fill-rule="evenodd"/>
    <path id="Trazado_671054" data-name="Trazado 671054" d="M2777.977,921.808h.869a.046.046,0,0,1,0-.02c0-.126.259-.229.583-.229s.58.1.58.229v.02h1.019l.217.719h-2.989Z" transform="translate(-931.706 -442.728)" fill="#e41f26" fill-rule="evenodd"/>
    <path id="Trazado_671055" data-name="Trazado 671055" d="M2806.629,829.733c-.348,1.752.357,3.318,2.083,3.605,1.281.214,3.477-.2,4.478.745.5.466.537,1.213.177,2.415-.107.355-.271.625.268.3.25-.151.662-.37.824-.267a.682.682,0,0,1,.012,1.013c-.107.093-.314.238-.314.238a1.6,1.6,0,0,0,1.321-.331c.631-.51,2.477-2.052,2.114-4.267-.531-3.227-1.866-3.126-4.709-4.094a16.434,16.434,0,0,1-2.828-1.475c-1.347-.618-3.154.735-3.425,2.121" transform="translate(-954.139 -368.829)" fill-rule="evenodd"/>
    <rect id="Rectángulo_329295" data-name="Rectángulo 329295" width="6.729" height="6.729" transform="translate(1620.12 519.37)" fill="#a8daf5"/>
    <path id="Trazado_671056" data-name="Trazado 671056" d="M1741.163,1168.978l-5.386,1.614a4.134,4.134,0,0,0-.755,1.358c-.15.637-.42.917-.818.943-.729.046-1.041-4.675-1.151-5.421l6.137-1.725Z" transform="translate(-111.108 -634.494)" fill="#f4b1b0" fill-rule="evenodd"/>
    <path id="Trazado_671057" data-name="Trazado 671057" d="M1769.818,1048.561h9.055c1.131,0,3.912,2.14,4.4,4.931.92,4.489.51,14.366-2.668,17.888l-3.6-.047-11.041-2.736v-18.638a6.008,6.008,0,0,1,3.857-1.4" transform="translate(-136.952 -542.465)" fill="#269dd8" fill-rule="evenodd"/>
    <path id="Trazado_671058" data-name="Trazado 671058" d="M1826.1,1048.7c4.471.439,4.887,6.056,4.831,9.564h-4.828Z" transform="translate(-184.183 -542.577)" fill="#269dd8" fill-rule="evenodd"/>
    <path id="Trazado_671059" data-name="Trazado 671059" d="M1786.291,1093.288l4.392-.034c0,2.652-4.466,8.775-9.441,8.775h-6.393a5.229,5.229,0,0,1,3.151-1.888c1.791-.145,1.861.1,1.861.1a10.144,10.144,0,0,0,6.43-6.955" transform="translate(-143.932 -577.563)" fill="#f4b1b0" fill-rule="evenodd"/>
    <path id="Trazado_671060" data-name="Trazado 671060" d="M1719.777,1134.127h19.133a3.378,3.378,0,0,1,.635.059c5.158,0,5.255,3.2,5.64,6.813h-25.408a3.436,3.436,0,0,1,0-6.872" transform="translate(-97.984 -609.662)" fill="#273373" fill-rule="evenodd"/>
    <path id="Trazado_671061" data-name="Trazado 671061" d="M1717.292,1134.39a7.041,7.041,0,0,1,2.526-.328c2.835.367,19.7,5.468,19.7,5.468l-2.975,3.45c-3.475-.218-17.414,1.015-20.068-.809-2.765-1.9-3.4-6.821.816-7.782" transform="translate(-96.354 -609.589)" fill="#273373" fill-rule="evenodd"/>
    <path id="Trazado_671062" data-name="Trazado 671062" d="M1778.456,1016.963a2.776,2.776,0,0,0,2.679,3.875l0,.537-1.092,1.553,1.075,1.6,1.119.408,2.7-.7v-4.866c.1-.031.1.147.3.023a2.261,2.261,0,0,0,.565-1.494c-.082-.465-.68-.732-.68-.732.562-1.384,1.008-1.6-.441-2.371a11.679,11.679,0,0,0-4.369-.711l-1.325.444c-.058,1.287.121,1.262-.535,2.432" transform="translate(-146.547 -515.391)" fill="#f4b1b0" fill-rule="evenodd"/>
    <path id="Trazado_671063" data-name="Trazado 671063" d="M1789.474,1043.716a2.34,2.34,0,0,0,.293-.007,6.859,6.859,0,0,0,2.423-.5,2.556,2.556,0,0,1-1.325,1.419,4.383,4.383,0,0,1-1.695.462l.594-.844,0-.537Z" transform="translate(-155.179 -538.262)" fill="#ec8c8e" fill-rule="evenodd"/>
    <path id="Trazado_671064" data-name="Trazado 671064" d="M1777.734,998.5c1.117.186,2.02.025,2.7.107a1.959,1.959,0,0,1,.985.469,4.982,4.982,0,0,1,1.281,2.645s.749-.313.993-.16.091.53.053.686-.382.32-.493.417c-.2.172.03.431.445.451,2.056.1,5-6.7-2.55-8.895-.865-.911-.441-1.092-.868-1.086-5.656.062-4.443,5.106-2.55,5.365" transform="translate(-144.958 -498.936)" fill="#263c86" fill-rule="evenodd"/>
    <path id="Trazado_671065" data-name="Trazado 671065" d="M1748.979,1054.7a17.031,17.031,0,0,0-4.764,8.4c1.612-.1,3.3-.1,4.894-.149Z" transform="translate(-119.874 -547.29)" fill="#269dd8" fill-rule="evenodd"/>
    <path id="Trazado_671066" data-name="Trazado 671066" d="M1787.661,1054.311a.3.3,0,1,1-.3.3.3.3,0,0,1,.3-.3m0-1.718a.3.3,0,1,1-.3.3A.3.3,0,0,1,1787.661,1052.593Zm-1.143-4.565a2.432,2.432,0,0,0,1.1,3.561c1.422-.923,2.7-1.823,2.7-3.561,0,0,.492-.009.81.77.525,1.262-.356,4.1-.356,4.1s-.989-1.28-1.81-1.348a2.884,2.884,0,0,0-1.355.179c-1.051-.771-1.767.227-2.471.961-.221-1.87-.193-3.212,1.205-4.658Z" transform="translate(-151.933 -542.047)" fill="#fff" fill-rule="evenodd"/>
    <path id="Trazado_671067" data-name="Trazado 671067" d="M1732.782,1082.85h-13.845c-.534,0-1.089.449-.971.97l2.069,9.151c.118.521.437.972.971.972h13.845c.534,0,1.088-.451.971-.972l-2.069-9.151c-.118-.521-.437-.97-.971-.97" transform="translate(-99.248 -569.393)" fill="#e9f6fd" fill-rule="evenodd"/>
    <path id="Trazado_671068" data-name="Trazado 671068" d="M1729.891,1082.85h-13.845c-.534,0-1.089.449-.971.97l2.069,9.151c.118.521.437.972.971.972h13.845c.534,0,1.089-.451.971-.972l-2.069-9.151c-.118-.521-.437-.97-.971-.97" transform="translate(-96.977 -569.393)" fill="#93bae2" fill-rule="evenodd"/>
    <path id="Trazado_671069" data-name="Trazado 671069" d="M1753.456,1104.329a.971.971,0,1,0,1.05.666.886.886,0,0,0-1.05-.666" transform="translate(-126.723 -586.235)" fill="#fff" fill-rule="evenodd"/>
    <path id="Trazado_671070" data-name="Trazado 671070" d="M1806.079,1130.292h-7.031v.908h7.483v-.455a.454.454,0,0,0-.452-.453" transform="translate(-162.936 -606.65)" fill="#e9f6fd" fill-rule="evenodd"/>
    <path id="Trazado_671071" data-name="Trazado 671071" d="M1767.988,1134.988c-2.854.136-17.569,5.718-17.569,5.718l1.555,5.3c2.17-.265,17.558-2.3,18.725-2.971,4.947-2.837,1.43-8.424-2.711-8.052" transform="translate(-124.746 -610.324)" fill="#273373" fill-rule="evenodd"/>
    <path id="Trazado_671072" data-name="Trazado 671072" d="M2260.189,394h18.325a1.422,1.422,0,0,1,1.418,1.418v16.231a1.422,1.422,0,0,1-1.418,1.418h-18.325a1.422,1.422,0,0,1-1.418-1.418V395.422a1.422,1.422,0,0,1,1.418-1.418" transform="translate(-523.964 -28.43)" fill="#ddeaf8" fill-rule="evenodd"/>
    <path id="Trazado_671073" data-name="Trazado 671073" d="M2321.456,437.312v2.225a1.653,1.653,0,0,1-1.563,1.722h-2.1l-6.143-7.479s3.2-3.681,3.2-3.878c0-.155,4.64,5.148,6.613,7.41" transform="translate(-565.488 -56.619)" fill="#3c65ae" fill-rule="evenodd"/>
    <path id="Trazado_671074" data-name="Trazado 671074" d="M2276.265,429.4h-15.931a1.653,1.653,0,0,1-1.563-1.722v-4.6l5.5-8.278Z" transform="translate(-523.964 -44.761)" fill="#4a76b9" fill-rule="evenodd"/>
    <path id="Trazado_671075" data-name="Trazado 671075" d="M2324.707,400.455a2.147,2.147,0,1,1-2.147,2.147,2.147,2.147,0,0,1,2.147-2.147" transform="translate(-574.059 -33.496)" fill="#f9a719" fill-rule="evenodd"/>
    <path id="Trazado_671076" data-name="Trazado 671076" d="M2099.793,407.94l-.9-1.655h-8.971v18.258h22.934v-16.6Z" transform="translate(-391.364 -38.075)" fill="#f79646" fill-rule="evenodd"/>
    <rect id="Rectángulo_329296" data-name="Rectángulo 329296" width="21.464" height="15.849" transform="translate(1699.293 370.619)" fill="#c3dcfa"/>
    <path id="Trazado_671077" data-name="Trazado 671077" d="M2092.1,421.272h22.021l-.289,15.04h-21.465Z" transform="translate(-393.072 -49.844)" fill="#fff" fill-rule="evenodd"/>
    <path id="Trazado_671078" data-name="Trazado 671078" d="M2086.369,425.383h24.362l-.665,14.158h-22.934Z" transform="translate(-388.574 -53.073)" fill="#fbb44a" fill-rule="evenodd"/>
    <path id="Trazado_671079" data-name="Trazado 671079" d="M2125.153,446.043l.268-.177a.3.3,0,0,0,.12-.341,3.1,3.1,0,0,1-.146-.752.3.3,0,0,0-.24-.272l-.314-.065a.3.3,0,0,1-.236-.355l.123-.6a.3.3,0,0,1,.356-.235l.315.064a.3.3,0,0,0,.327-.156,3.069,3.069,0,0,1,.428-.635.3.3,0,0,0,.022-.361l-.177-.268a.3.3,0,0,1,.085-.418l.513-.339a.3.3,0,0,1,.418.085l.177.268a.3.3,0,0,0,.341.121,3.1,3.1,0,0,1,.752-.146.3.3,0,0,0,.272-.24l.064-.314a.3.3,0,0,1,.356-.235l.6.123a.3.3,0,0,1,.235.356l-.064.315a.3.3,0,0,0,.157.326,3.133,3.133,0,0,1,.635.429.3.3,0,0,0,.361.023l.268-.177a.3.3,0,0,1,.418.085l.339.513a.3.3,0,0,1-.085.418l-.268.177a.3.3,0,0,0-.121.341,3.058,3.058,0,0,1,.146.751.3.3,0,0,0,.24.272l.315.064a.3.3,0,0,1,.235.356l-.122.6a.3.3,0,0,1-.356.235l-.314-.064a.3.3,0,0,0-.327.157,3.091,3.091,0,0,1-.428.635.3.3,0,0,0-.023.362l.177.268a.3.3,0,0,1-.085.418l-.513.34a.3.3,0,0,1-.418-.085l-.177-.268a.3.3,0,0,0-.342-.12,3.091,3.091,0,0,1-.751.146.3.3,0,0,0-.272.239l-.064.315a.3.3,0,0,1-.356.236l-.6-.123a.3.3,0,0,1-.235-.356l.064-.315a.3.3,0,0,0-.156-.327,3.057,3.057,0,0,1-.635-.428.3.3,0,0,0-.361-.023l-.268.177a.3.3,0,0,1-.417-.085l-.339-.513a.3.3,0,0,1,.085-.417m2.128-.339a1.67,1.67,0,1,0,.544-2.672A1.668,1.668,0,0,0,2127.282,445.7Z" transform="translate(-418.597 -65.071)" fill="#f79646" fill-rule="evenodd"/>
  </g>
</svg>
