<svg xmlns="http://www.w3.org/2000/svg" width="258.772" height="564.573" viewBox="0 0 258.772 564.573">
  <g id="Grupo_936701" data-name="Grupo 936701" transform="translate(-61.983 189.261)">
    <rect id="Rectángulo_329694" data-name="Rectángulo 329694" width="37.372" height="428.504" transform="translate(287.142 368.272) rotate(180)" fill="#cbeafc"/>
    <rect id="Rectángulo_329695" data-name="Rectángulo 329695" width="37.373" height="428.504" transform="translate(133.485 368.272) rotate(180)" fill="#cbeafc"/>
    <rect id="Rectángulo_329696" data-name="Rectángulo 329696" width="37.372" height="234.731" transform="translate(99.608 368.272) rotate(180)" fill="#b3e1fe"/>
    <rect id="Rectángulo_329697" data-name="Rectángulo 329697" width="11.83" height="454.719" transform="translate(261.6 368.272) rotate(180)" fill="#b3e1fe"/>
    <rect id="Rectángulo_329698" data-name="Rectángulo 329698" width="37.372" height="413.313" transform="translate(188.199 368.272) rotate(180)" fill="#cbeafc"/>
    <rect id="Rectángulo_329699" data-name="Rectángulo 329699" width="37.372" height="203.811" transform="translate(164.001 368.272) rotate(180)" fill="#b3e1fe"/>
    <path id="Trazado_678099" data-name="Trazado 678099" d="M160.006,525.117h37.373V135.7l-37.373-46.48Z" transform="translate(25.235 -156.844)" fill="#b3e1fe"/>
    <g id="Grupo_936671" data-name="Grupo 936671" transform="translate(102.914 -30.593)">
      <path id="Trazado_678115" data-name="Trazado 678115" d="M136.067,351.018H125.9l2.651-142.076.171-9.261.562-29.729h3.384l.428,22.97.586,31.377Z" transform="translate(-76.83 -103.897)" fill="#c5deef"/>
      <path id="Trazado_678116" data-name="Trazado 678116" d="M136.06,405.46H125.906l2.65-184.794.731-50.711h1.777c-.172,49.852-.649,197.678-.08,213.283C131.664,402.035,136.06,405.46,136.06,405.46Z" transform="translate(-76.828 -103.895)" fill="#93bbd1"/>
      <path id="Trazado_678117" data-name="Trazado 678117" d="M132.08,192.921l-4.374,6.759.562-29.729h3.384Z" transform="translate(-75.811 -103.897)" fill="#76a3b7"/>
      <g id="Grupo_936670" data-name="Grupo 936670">
        <g id="Grupo_936668" data-name="Grupo 936668">
          <path id="Trazado_678118" data-name="Trazado 678118" d="M133.2,185.72l-1.391.023-1.392.013a1.684,1.684,0,0,1-1.408-.961l-.049-.08,0-.009-2.952-5.2-1.029-1.816a3.309,3.309,0,0,1-.385-1.844l3.424-46.047a2.176,2.176,0,0,1,1.253-2.009,1.261,1.261,0,0,1,.327-.061c.009,0,.022,0,.031,0,.842-.016,1.591.849,1.761,2.026l6.891,45.935a3.213,3.213,0,0,1-.252,1.846l-1.272,2.614-.114.247-2.118,4.333a1.763,1.763,0,0,1-.737.824A1.136,1.136,0,0,1,133.2,185.72Z" transform="translate(-77.574 -127.727)" fill="#c5deef"/>
          <path id="Trazado_678119" data-name="Trazado 678119" d="M181.49,199.238a2.055,2.055,0,0,1-.532.084,2.946,2.946,0,0,1-1.366-.269L136.4,179.761a3.536,3.536,0,0,1-1.478-1.222l-1.275-1.971-2.9-4.449-.285-.446a1.573,1.573,0,0,1-.189-1.654l.687-1.176.679-1.173a1.468,1.468,0,0,1,1.284-.651l0,.009a.69.69,0,0,1,.249-.016l7.313.444.865.05a3.515,3.515,0,0,1,.632.114,3.6,3.6,0,0,1,1.153.568l38.116,28c.986.727,1.4,1.774.989,2.483A1.309,1.309,0,0,1,181.49,199.238Z" transform="translate(-74.453 -105.558)" fill="#c5deef"/>
          <path id="Trazado_678120" data-name="Trazado 678120" d="M94.7,197.727a.961.961,0,0,1-.1-.221,2.1,2.1,0,0,1,1.023-2.24l37.414-27.037a3.3,3.3,0,0,1,1.776-.64l.011,0,4.476-.155,2.846-.1.829-.023a1.686,1.686,0,0,1,1.557.693l.715,1.192.717,1.19a1.592,1.592,0,0,1-.149,1.657l-.258.408-.009,0-2.326,3.654-1.705,2.678a3.135,3.135,0,0,1-1.436,1.183l-20.221,8.613-22.505,9.582A2.088,2.088,0,0,1,94.7,197.727Z" transform="translate(-94.533 -105.389)" fill="#c5deef"/>
          <g id="Grupo_936667" data-name="Grupo 936667" transform="translate(25.33 0.001)">
            <path id="Trazado_678121" data-name="Trazado 678121" d="M133.79,185.553a1.136,1.136,0,0,1-.587.166l-1.391.023-1.392.013a1.684,1.684,0,0,1-1.408-.961l-.049-.08,0-.009-2.952-5.2-1.029-1.816a3.309,3.309,0,0,1-.385-1.844l3.424-46.047a2.176,2.176,0,0,1,1.253-2.009,1.26,1.26,0,0,1,.327-.061c-.734,10.286-1.736,34.95,2.417,45.4a17.551,17.551,0,0,0,4.743,7.016l-.114.247-2.118,4.333A1.763,1.763,0,0,1,133.79,185.553Z" transform="translate(-102.903 -127.728)" fill="#93bbd1"/>
            <path id="Trazado_678122" data-name="Trazado 678122" d="M130.946,179.969l-20.221,8.613c10.2-5.533,18.647-11.792,19.5-17.576a7.036,7.036,0,0,0,.074-.874,20.337,20.337,0,0,0-.136-2.7l2.846-.1.829-.023A1.686,1.686,0,0,1,135.4,168l.715,1.192.717,1.19a1.592,1.592,0,0,1-.149,1.657l-.258.408-.009,0-2.326,3.654-1.705,2.678A3.135,3.135,0,0,1,130.946,179.969Z" transform="translate(-110.725 -105.39)" fill="#93bbd1"/>
            <path id="Trazado_678123" data-name="Trazado 678123" d="M180.958,199.322a2.946,2.946,0,0,1-1.366-.269L136.4,179.761a3.536,3.536,0,0,1-1.478-1.222l-1.275-1.971-2.9-4.449-.285-.446a1.573,1.573,0,0,1-.189-1.654l.687-1.176.679-1.173a1.468,1.468,0,0,1,1.284-.651l0,.009a.69.69,0,0,1,.249-.016l7.313.444.865.05a3.515,3.515,0,0,1,.632.114c-1,4.239-.155,9.671,7.351,14.156C160.389,188.37,174.561,195.946,180.958,199.322Z" transform="translate(-99.783 -105.559)" fill="#93bbd1"/>
          </g>
        </g>
        <g id="Grupo_936669" data-name="Grupo 936669" transform="translate(40.296 51.778)">
          <path id="Trazado_678124" data-name="Trazado 678124" d="M132.69,167.04l-1.391.023-1.392.013a1.684,1.684,0,0,1-1.408-.961l-.049-.08,0-.009-2.952-5.2a18.687,18.687,0,0,0,10.636.89l-2.118,4.333a1.763,1.763,0,0,1-.737.824A1.136,1.136,0,0,1,132.69,167.04Z" transform="translate(-117.356 -160.826)" fill="#76a3b7"/>
          <path id="Trazado_678125" data-name="Trazado 678125" d="M128.688,176.109a17.127,17.127,0,0,0-3.858-5.1,30.3,30.3,0,0,0-4.538-3.421l4.476-.155,2.846-.1.829-.023A1.686,1.686,0,0,1,130,168l.715,1.192.716,1.19a1.592,1.592,0,0,1-.149,1.657l-.258.408-.009,0Z" transform="translate(-120.292 -157.167)" fill="#76a3b7"/>
          <path id="Trazado_678126" data-name="Trazado 678126" d="M133.645,176.569l-2.9-4.449-.285-.446a1.573,1.573,0,0,1-.189-1.654l.687-1.176.679-1.173a1.468,1.468,0,0,1,1.284-.651l0,.009a.69.69,0,0,1,.249-.016l7.313.444A32,32,0,0,0,133.645,176.569Z" transform="translate(-114.749 -157.336)" fill="#76a3b7"/>
        </g>
      </g>
      <path id="Trazado_678127" data-name="Trazado 678127" d="M136.632,169.627a5.085,5.085,0,0,1-.357,1.884c-.05.127-.1.246-.161.374a4.7,4.7,0,0,1-.64,1.015c-.072.089-.142.167-.214.247v.009l-.05.048c-.092.1-.183.2-.285.286a5.542,5.542,0,0,1-2.559,1.341,2.387,2.387,0,0,1-.274.048,5.109,5.109,0,0,1-.954.089,5.5,5.5,0,0,1-5.5-5.342.517.517,0,0,1,.009-.119v-.117c0-.1.011-.208.02-.307a4.93,4.93,0,0,1,.194-.965c.02-.08.05-.149.07-.217a5.26,5.26,0,0,1,1.259-1.982c.061-.069.133-.127.194-.186.041-.039.091-.08.131-.119.081-.069.152-.128.233-.186.061-.05.122-.089.194-.139a3,3,0,0,1,.425-.266c.1-.059.2-.108.305-.158.011-.009.02-.019.031-.019a5.433,5.433,0,0,1,2.437-.563,4.831,4.831,0,0,1,1,.1h.011a5.456,5.456,0,0,1,4.244,3.7A5.214,5.214,0,0,1,136.632,169.627Z" transform="translate(-76.982 -107.097)" fill="#c5deef"/>
      <path id="Trazado_678128" data-name="Trazado 678128" d="M136.275,171.307c-.05.127-.1.246-.161.374a5.447,5.447,0,0,1-.64,1.015c-.072.089-.142.167-.214.247v.009l-.05.048c-.092.1-.183.2-.285.286a5.542,5.542,0,0,1-2.559,1.341,2.384,2.384,0,0,1-.274.049,5.109,5.109,0,0,1-.954.089,5.5,5.5,0,0,1-5.5-5.342V169.3a.5.5,0,0,1,.009-.117c0-.1.011-.208.02-.307a4.931,4.931,0,0,1,.194-.965c.02-.08.05-.149.07-.217a5.26,5.26,0,0,1,1.259-1.982c.061-.069.133-.127.194-.186.041-.039.091-.08.131-.119.081-.069.152-.128.233-.186.061-.05.122-.089.194-.139a3,3,0,0,1,.425-.266c.1-.059.2-.108.305-.158.011-.009.02-.019.031-.019a5.04,5.04,0,0,0-.366,1.882,5.43,5.43,0,0,0,5.5,5.344A5.6,5.6,0,0,0,136.275,171.307Z" transform="translate(-76.982 -106.893)" fill="#93bbd1"/>
    </g>
    <g id="Grupo_936676" data-name="Grupo 936676" transform="translate(133.422 -189.26)">
      <path id="Trazado_678129" data-name="Trazado 678129" d="M222.561,413.9H206.288l4.244-227.465.274-14.827.9-47.6h5.418l.684,36.775.939,50.235Z" transform="translate(-127.72 -18.255)" fill="#c5deef"/>
      <path id="Trazado_678130" data-name="Trazado 678130" d="M222.551,497.14H206.292l4.242-292.78,1.172-80.347h2.846c-.277,78.984-1.042,313.2-.13,337.92C215.51,491.716,222.551,497.14,222.551,497.14Z" transform="translate(-127.716 -18.251)" fill="#93bbd1"/>
      <path id="Trazado_678131" data-name="Trazado 678131" d="M215.684,160.783l-7,10.822.9-47.6H215Z" transform="translate(-125.596 -18.255)" fill="#76a3b7"/>
      <g id="Grupo_936675" data-name="Grupo 936675" transform="translate(0)">
        <g id="Grupo_936673" data-name="Grupo 936673">
          <path id="Trazado_678132" data-name="Trazado 678132" d="M218.337,160.814l-2.225.036-2.231.021a2.694,2.694,0,0,1-2.253-1.538l-.077-.126-.006-.015-4.725-8.326-1.649-2.908a5.285,5.285,0,0,1-.615-2.953l5.482-73.72a3.476,3.476,0,0,1,2.006-3.216,2,2,0,0,1,.525-.1c.015,0,.036.006.051,0,1.347-.025,2.546,1.361,2.817,3.244l11.034,73.541a5.164,5.164,0,0,1-.4,2.957l-2.038,4.184-.183.4-3.389,6.939a2.835,2.835,0,0,1-1.181,1.319A1.829,1.829,0,0,1,218.337,160.814Z" transform="translate(-129.272 -67.968)" fill="#c5deef"/>
          <path id="Trazado_678133" data-name="Trazado 678133" d="M294.129,171.7a3.278,3.278,0,0,1-.851.138,4.724,4.724,0,0,1-2.185-.432l-69.155-30.888a5.657,5.657,0,0,1-2.366-1.955l-2.042-3.155-4.64-7.124-.455-.713a2.522,2.522,0,0,1-.3-2.648l1.1-1.883,1.085-1.878a2.354,2.354,0,0,1,2.057-1.044l.006.017a1.112,1.112,0,0,1,.4-.026l11.709.711,1.385.081a5.724,5.724,0,0,1,1.013.181,5.791,5.791,0,0,1,1.846.911l61.022,44.825c1.579,1.164,2.236,2.84,1.583,3.974A2.088,2.088,0,0,1,294.129,171.7Z" transform="translate(-122.762 -21.719)" fill="#c5deef"/>
          <path id="Trazado_678134" data-name="Trazado 678134" d="M164.929,169.2a1.609,1.609,0,0,1-.158-.355c-.4-1.134.243-2.585,1.638-3.585l59.9-43.287a5.254,5.254,0,0,1,2.842-1.025l.015-.006,7.169-.247,4.555-.155,1.327-.036a2.693,2.693,0,0,1,2.491,1.108l1.145,1.908L247,125.429a2.541,2.541,0,0,1-.236,2.651l-.415.653-.015.006-3.723,5.85-2.729,4.287a5.023,5.023,0,0,1-2.3,1.895l-32.375,13.789L169.174,169.9C167.425,170.662,165.625,170.36,164.929,169.2Z" transform="translate(-164.653 -21.365)" fill="#c5deef"/>
          <g id="Grupo_936672" data-name="Grupo 936672" transform="translate(40.553 0.001)">
            <path id="Trazado_678135" data-name="Trazado 678135" d="M219.276,160.548a1.829,1.829,0,0,1-.94.266l-2.225.036-2.231.021a2.694,2.694,0,0,1-2.253-1.538l-.077-.126-.006-.015-4.725-8.326-1.649-2.908a5.285,5.285,0,0,1-.615-2.953l5.482-73.72a3.476,3.476,0,0,1,2.006-3.216,2,2,0,0,1,.525-.1c-1.176,16.47-2.782,55.957,3.869,72.694a28.107,28.107,0,0,0,7.594,11.232l-.183.4-3.389,6.939A2.836,2.836,0,0,1,219.276,160.548Z" transform="translate(-169.826 -67.968)" fill="#93bbd1"/>
            <path id="Trazado_678136" data-name="Trazado 678136" d="M218.518,140.77l-32.375,13.789C202.47,145.7,216,135.681,217.37,126.423a10.921,10.921,0,0,0,.117-1.4,32.846,32.846,0,0,0-.215-4.325l4.555-.155,1.327-.036a2.693,2.693,0,0,1,2.491,1.108l1.145,1.908,1.145,1.908a2.541,2.541,0,0,1-.236,2.651l-.415.653-.015.006-3.723,5.85-2.729,4.287A5.023,5.023,0,0,1,218.518,140.77Z" transform="translate(-186.143 -21.366)" fill="#93bbd1"/>
            <path id="Trazado_678137" data-name="Trazado 678137" d="M293.278,171.838a4.724,4.724,0,0,1-2.185-.432l-69.155-30.888a5.657,5.657,0,0,1-2.366-1.955l-2.042-3.155-4.64-7.124-.455-.713a2.522,2.522,0,0,1-.3-2.648l1.1-1.883,1.085-1.878a2.354,2.354,0,0,1,2.057-1.044l.006.017a1.112,1.112,0,0,1,.4-.026l11.709.711,1.385.081a5.724,5.724,0,0,1,1.013.181c-1.6,6.79-.251,15.485,11.768,22.666C260.346,154.3,283.036,166.431,293.278,171.838Z" transform="translate(-163.315 -21.72)" fill="#93bbd1"/>
          </g>
        </g>
        <g id="Grupo_936674" data-name="Grupo 936674" transform="translate(64.513 82.898)">
          <path id="Trazado_678138" data-name="Trazado 678138" d="M217.264,121.846l-2.225.036-2.231.021a2.694,2.694,0,0,1-2.253-1.538l-.077-.126-.006-.015-4.725-8.326a29.9,29.9,0,0,0,17.027,1.425l-3.389,6.939a2.835,2.835,0,0,1-1.181,1.319A1.829,1.829,0,0,1,217.264,121.846Z" transform="translate(-192.713 -111.897)" fill="#76a3b7"/>
          <path id="Trazado_678139" data-name="Trazado 678139" d="M212.284,134.588a27.377,27.377,0,0,0-6.176-8.165,48.283,48.283,0,0,0-7.267-5.48l7.169-.247,4.555-.155,1.327-.036a2.693,2.693,0,0,1,2.491,1.108l1.145,1.908,1.145,1.908a2.541,2.541,0,0,1-.236,2.651l-.415.653-.015.006Z" transform="translate(-198.84 -104.263)" fill="#76a3b7"/>
          <path id="Trazado_678140" data-name="Trazado 678140" d="M217.529,135.408l-4.64-7.124-.455-.713a2.522,2.522,0,0,1-.3-2.648l1.1-1.883,1.085-1.878a2.354,2.354,0,0,1,2.057-1.044l.006.017a1.112,1.112,0,0,1,.4-.026l11.709.711A51.271,51.271,0,0,0,217.529,135.408Z" transform="translate(-187.275 -104.617)" fill="#76a3b7"/>
        </g>
      </g>
      <path id="Trazado_678141" data-name="Trazado 678141" d="M223.538,125.04a8.119,8.119,0,0,1-.57,3.014c-.081.206-.162.394-.259.6a7.489,7.489,0,0,1-1.025,1.627c-.115.142-.228.268-.342.394v.015l-.081.079a5.8,5.8,0,0,1-.457.457,8.859,8.859,0,0,1-4.1,2.147,4.432,4.432,0,0,1-.438.079,8.27,8.27,0,0,1-1.529.142,8.807,8.807,0,0,1-8.813-8.554.788.788,0,0,1,.015-.189v-.191a4.776,4.776,0,0,1,.034-.489,7.916,7.916,0,0,1,.308-1.547c.032-.126.081-.236.115-.347a8.422,8.422,0,0,1,2.015-3.172c.1-.109.211-.2.309-.3.064-.062.145-.125.211-.189.13-.111.243-.206.374-.3.1-.079.194-.142.309-.221a5.063,5.063,0,0,1,.681-.426c.164-.094.326-.174.489-.253.017-.015.032-.03.049-.03a8.719,8.719,0,0,1,3.9-.9,7.674,7.674,0,0,1,1.61.159h.015a8.735,8.735,0,0,1,6.8,5.918A8.409,8.409,0,0,1,223.538,125.04Z" transform="translate(-128.037 -24.928)" fill="#c5deef"/>
      <path id="Trazado_678142" data-name="Trazado 678142" d="M222.968,127.631c-.081.206-.162.394-.259.6a8.715,8.715,0,0,1-1.025,1.627c-.115.142-.228.268-.342.394v.015l-.081.079a5.8,5.8,0,0,1-.457.457,8.859,8.859,0,0,1-4.1,2.147,4.437,4.437,0,0,1-.438.079,8.272,8.272,0,0,1-1.529.142,8.807,8.807,0,0,1-8.813-8.554v-.189a.812.812,0,0,1,.015-.191,4.776,4.776,0,0,1,.034-.489,7.916,7.916,0,0,1,.308-1.547c.032-.126.081-.236.115-.347a8.422,8.422,0,0,1,2.015-3.172c.1-.109.211-.2.309-.3.064-.062.145-.125.211-.189.13-.111.243-.206.374-.3.1-.079.194-.142.309-.221a5.063,5.063,0,0,1,.681-.426c.164-.094.326-.174.489-.253.017-.015.032-.03.049-.03a8.108,8.108,0,0,0-.585,3.014,8.692,8.692,0,0,0,8.813,8.554A8.949,8.949,0,0,0,222.968,127.631Z" transform="translate(-128.037 -24.505)" fill="#93bbd1"/>
    </g>
    <g id="Grupo_936678" data-name="Grupo 936678" transform="translate(200.46 229.515)">
      <rect id="Rectángulo_329700" data-name="Rectángulo 329700" width="82.3" height="121.62" rx="3" transform="translate(0 17.133)" fill="#304654"/>
      <g id="Grupo_936677" data-name="Grupo 936677" transform="translate(4.489 20.591)">
        <path id="Trazado_678143" data-name="Trazado 678143" d="M249,216.587v107.16a3.775,3.775,0,0,1-3.772,3.772H179.45a3.775,3.775,0,0,1-3.772-3.772V216.587a3.775,3.775,0,0,1,3.772-3.772h65.777A3.775,3.775,0,0,1,249,216.587Z" transform="translate(-175.678 -212.815)" fill="#50cb45"/>
      </g>
      <path id="Trazado_678144" data-name="Trazado 678144" d="M246.453,208.622v2.439H177.608v-2.439a2.428,2.428,0,0,1,2.427-2.427h63.992A2.428,2.428,0,0,1,246.453,208.622Z" transform="translate(-170.692 -193.929)" fill="#304654"/>
      <path id="Rectángulo_329701" data-name="Rectángulo 329701" d="M4,0H30.737a4,4,0,0,1,4,4v8.266a0,0,0,0,1,0,0H0a0,0,0,0,1,0,0V4A4,4,0,0,1,4,0Z" transform="translate(24.992)" fill="#5f879b"/>
      <path id="Trazado_678145" data-name="Trazado 678145" d="M239.042,216.587v107.16a3.775,3.775,0,0,1-3.772,3.772H214.358v-114.7h20.911A3.775,3.775,0,0,1,239.042,216.587Z" transform="translate(-161.231 -192.224)" fill="#39b932"/>
      <path id="Trazado_678146" data-name="Trazado 678146" d="M187.4,212.815v114.7H179.45a3.775,3.775,0,0,1-3.772-3.772V216.587a3.775,3.775,0,0,1,3.772-3.772Z" transform="translate(-171.189 -192.224)" fill="#72f050"/>
      <path id="Trazado_678147" data-name="Trazado 678147" d="M201.9,238.015h16.757l-12.306,21.8h24.311l-32.484,38.366,8.173-26.322h-19.91Z" transform="translate(-168.418 -185.737)" fill="#ffe85c"/>
    </g>
    <g id="Grupo_936683" data-name="Grupo 936683" transform="translate(108.888 249.731)">
      <path id="Trazado_678148" data-name="Trazado 678148" d="M147.684,286.4l-8.59,16.994a18.553,18.553,0,0,1-24.926,8.19l-2.521-1.275a18.552,18.552,0,0,1-8.19-24.926l8.59-17Z" transform="translate(-98.725 -198.132)" fill="#304654"/>
      <g id="Grupo_936680" data-name="Grupo 936680" transform="translate(12.021)">
        <g id="Grupo_936679" data-name="Grupo 936679">
          <path id="Trazado_678149" data-name="Trazado 678149" d="M115.3,232.625c-5.636,11.149-6.663,24.925-6.429,35.22a108.49,108.49,0,0,0,1.32,14.956l35.591,17.988A113.242,113.242,0,0,0,165.667,287.6c6.624-5.49,13.355-12.513,17.484-20.68a35.578,35.578,0,0,0,1.548-29.646,39.6,39.6,0,0,0-18.738-20.552l-.045-.023C149.233,208.295,125.7,212.049,115.3,232.625Z" transform="translate(-108.844 -212.517)" fill="#ffdf57"/>
        </g>
      </g>
      <path id="Trazado_678150" data-name="Trazado 678150" d="M121.955,229.076c-2.441-3.019-6.287.894-3.16,4.194S124.739,232.519,121.955,229.076Z" transform="translate(-94.563 -208.533)" fill="#fff"/>
      <path id="Trazado_678151" data-name="Trazado 678151" d="M130.984,238.141a13.119,13.119,0,0,0,1.156,8.654,13.871,13.871,0,0,0,2.6,3.584,33,33,0,0,0,2.781,2.524L121.3,284.995l1.508.762L138.859,254a14.605,14.605,0,0,0,2.246,1.484c.1.048.187.094.264.126s.161.088.258.137a14.4,14.4,0,0,0,2.526.928L128.1,288.433l1.508.762L145.83,257.1a19.091,19.091,0,0,0,8.108.71c.079-.016.165-.03.245-.047a13.075,13.075,0,0,0,7.408-4.155,7.822,7.822,0,0,0,2.07-5.757,7.278,7.278,0,0,0-2.883-5.037c-2.33-1.882-4.524-2.6-6.5-2.047-2.066.575-3.45,2.351-6.089,7.781-.279.572-3.159,6.388-3.159,6.388a11.277,11.277,0,0,1-2.761-1.011l0-.006a.162.162,0,0,0-.043-.014.173.173,0,0,0-.036-.026l0,.006a11.328,11.328,0,0,1-2.453-1.625s2.993-5.759,3.272-6.33c2.023-4.146,3.637-7.092,2.653-9.518-.77-1.9-2.607-3.261-5.5-4.02a7.278,7.278,0,0,0-5.765.665A7.82,7.82,0,0,0,130.984,238.141Zm20.779,7.222a5.418,5.418,0,0,1,3.005-2.75c1.368-.355,2.988.215,4.812,1.685a5.445,5.445,0,0,1,2.18,3.727,5.85,5.85,0,0,1-1.61,4.339,11.13,11.13,0,0,1-6.543,3.567,11.668,11.668,0,0,1-2.822.132,23.991,23.991,0,0,1-4.075-.708Zm-16.382-10.671a5.44,5.44,0,0,1,4.294-.455c2.266.6,3.686,1.564,4.211,2.876a5.418,5.418,0,0,1-.433,4.05l-5.051,9.993c-.693-.585-1.367-1.167-1.986-1.786a12.675,12.675,0,0,1-2.568-3.425,11.131,11.131,0,0,1-1.007-7.384A5.847,5.847,0,0,1,135.381,234.692Z" transform="translate(-93.617 -207.477)" fill="#fff"/>
      <g id="Grupo_936681" data-name="Grupo 936681" transform="translate(0 69.93)">
        <path id="Trazado_678152" data-name="Trazado 678152" d="M107.636,269.482a2.461,2.461,0,0,0,1.09,3.306L143.1,290.159a2.461,2.461,0,0,0,2.221-4.392l-34.371-17.373A2.466,2.466,0,0,0,107.636,269.482Z" transform="translate(-97.202 -268.13)" fill="#7099b2"/>
        <path id="Trazado_678153" data-name="Trazado 678153" d="M104.96,274.775l-.02.04a2.46,2.46,0,0,0-.138,1.879,2.434,2.434,0,0,0,1.226,1.432L140.4,295.5a2.468,2.468,0,0,0,3.311-1.088l.02-.04a2.475,2.475,0,0,0,.118-1.84,2.436,2.436,0,0,0-1.226-1.431l-34.372-17.372A2.466,2.466,0,0,0,104.96,274.775Z" transform="translate(-97.896 -266.757)" fill="#7099b2"/>
        <path id="Trazado_678154" data-name="Trazado 678154" d="M102.245,280.146a.541.541,0,0,0-.036.088,2.425,2.425,0,0,0-.1,1.792,2.459,2.459,0,0,0,1.226,1.431L137.7,300.828a2.459,2.459,0,0,0,3.263-1,.457.457,0,0,0,.048-.083,2.459,2.459,0,0,0-1.09-3.3l-34.371-17.372A2.462,2.462,0,0,0,102.245,280.146Z" transform="translate(-98.59 -265.383)" fill="#7099b2"/>
        <path id="Trazado_678155" data-name="Trazado 678155" d="M99.548,285.484a2.463,2.463,0,0,0,1.09,3.306l34.371,17.372a2.461,2.461,0,0,0,2.221-4.394L102.859,284.4A2.468,2.468,0,0,0,99.548,285.484Z" transform="translate(-99.284 -264.01)" fill="#7099b2"/>
      </g>
      <g id="Grupo_936682" data-name="Grupo 936682" transform="translate(0 71.282)">
        <path id="Trazado_678156" data-name="Trazado 678156" d="M107.636,269.205a2.461,2.461,0,0,0,1.09,3.306L143.1,289.882a2.462,2.462,0,0,0,3.308-1.083Z" transform="translate(-97.202 -269.205)" fill="#5f879b"/>
        <path id="Trazado_678157" data-name="Trazado 678157" d="M104.96,274.506l-.02.04a2.46,2.46,0,0,0-.138,1.879,2.434,2.434,0,0,0,1.226,1.432L140.4,295.229a2.468,2.468,0,0,0,3.311-1.088l.02-.04Z" transform="translate(-97.896 -267.84)" fill="#5f879b"/>
        <path id="Trazado_678158" data-name="Trazado 678158" d="M102.208,279.94a2.425,2.425,0,0,0-.1,1.792,2.459,2.459,0,0,0,1.226,1.431L137.7,300.534a2.459,2.459,0,0,0,3.263-1Z" transform="translate(-98.59 -266.441)" fill="#5f879b"/>
        <path id="Trazado_678159" data-name="Trazado 678159" d="M99.548,285.207a2.463,2.463,0,0,0,1.09,3.306l34.371,17.372a2.462,2.462,0,0,0,3.308-1.083Z" transform="translate(-99.284 -265.085)" fill="#5f879b"/>
      </g>
      <path id="Trazado_678160" data-name="Trazado 678160" d="M127.8,221.958c-9.36,7.242-3.712,14.265,4.768,8.834,6.751-4.324,14.078-5.139,20.142-5.157a4.811,4.811,0,0,0,4.728-5.655C156.9,215.668,140.627,212.038,127.8,221.958Z" transform="translate(-93.189 -211.72)" fill="#fff"/>
      <path id="Trazado_678161" data-name="Trazado 678161" d="M108.868,256.517a108.491,108.491,0,0,0,1.32,14.956l35.591,17.988a113.24,113.24,0,0,0,19.882-13.192c-6.568,3.491-17.348,6.375-31.728.673C120.3,271.531,112.838,263.092,108.868,256.517Z" transform="translate(-96.817 -201.189)" fill="#ff8e31" opacity="0.31"/>
      <path id="Trazado_678162" data-name="Trazado 678162" d="M181.718,232.81c-.4-1.01-.844-2-1.325-2.965-5.164,10.657-27.292,52.16-59.971,55.169L142.8,296.328a113.24,113.24,0,0,0,19.882-13.192c6.624-5.49,13.355-12.513,17.484-20.68A35.578,35.578,0,0,0,181.718,232.81Z" transform="translate(-93.843 -208.056)" fill="#f2a744" opacity="0.31"/>
    </g>
    <g id="Grupo_936691" data-name="Grupo 936691" transform="translate(258.385 232.351)">
      <path id="Trazado_678163" data-name="Trazado 678163" d="M226.142,301.19s0,5.659-1.1,9.039-.629,4.4,1.1,4.793,7.073.472,6.994-.943-2.593-5.344-2.75-7.073-.629-5.816-.629-5.816Z" transform="translate(-216.558 -172.309)" fill="#534741"/>
      <path id="Trazado_678164" data-name="Trazado 678164" d="M245.421,302.29s2.436,4.323,2.121,7-.707,4.951.865,5.5,14.853.786,13.989-.472-7.938-3.878-9.274-5.554-3.3-7.571-3.3-7.571Z" transform="translate(-211.16 -172.309)" fill="#534741"/>
      <path id="Trazado_678165" data-name="Trazado 678165" d="M226.382,245.559s-3.185,13.4-2.766,22.834.1,45.792,2.3,47.993,4.715,1.257,5.554,0,1.362-25.463,1.362-25.463,1.153-32.8,1.782-31.122,5.868,25.358,7.126,29.654,5.973,25.045,7.859,27.14,3.981,1.593,5.449,1.11,1.676-1.215.943-3.1-7.335-35.523-7.859-39.714-2.3-25.709-4.087-28.573S226.382,245.559,226.382,245.559Z" transform="translate(-216.783 -186.823)" fill="#242754"/>
      <g id="Grupo_936684" data-name="Grupo 936684" transform="translate(10.527 7.557)">
        <path id="Trazado_678166" data-name="Trazado 678166" d="M226.546,207.227s.157,3.039,1.493,4.375a5.69,5.69,0,0,0,2.28,1.572s4-.8,4.044-4.322-5.852-4.873-6.8-3.772A4.107,4.107,0,0,0,226.546,207.227Z" transform="translate(-226.546 -204.706)" fill="#cc684e"/>
      </g>
      <g id="Grupo_936685" data-name="Grupo 936685" transform="translate(12.02 6.831)">
        <path id="Trazado_678167" data-name="Trazado 678167" d="M239.286,204.128s1.964,9.116.629,10.217-4.323.707-4.323.707.236,2.672.786,3.144a5.406,5.406,0,0,0,1.608.786s-1.529,6.052-3.415,5.816-6.838-4.244-6.838-4.244,2.437-.157,2.437-.943-.157-6.287-.157-6.287.707.472.629-1.021-2.437-2.043-1.572-3.3.864-.394,2.278-.786.079-2.043.079-2.043Z" transform="translate(-227.733 -204.128)" fill="#ffbf9f"/>
      </g>
      <g id="Grupo_936686" data-name="Grupo 936686" transform="translate(9.763)">
        <path id="Trazado_678168" data-name="Trazado 678168" d="M239.749,205.527s2.279-.786,1.65-1.572-2.436-1.022-2.593-1.257-3.537-5.581-8.567-3.537-4.479,9.353-4.007,9.588,5.659-1.178,5.659-1.178Z" transform="translate(-225.938 -198.696)" fill="#ffe045"/>
      </g>
      <path id="Trazado_678169" data-name="Trazado 678169" d="M234.546,213.04l-2.75-1.1s1.5,3.863,2.2,3.066A2.756,2.756,0,0,0,234.546,213.04Z" transform="translate(-214.667 -195.286)" fill="#c96353"/>
      <path id="Trazado_678170" data-name="Trazado 678170" d="M270.061,227.514c-.415-.729-12.989,7.758-13.832,8.287s-7.746-14.461-8.488-16.661-7.293-3.194-7.293-3.194-1.421,3.911-3.282,4.451-6.979-2.892-6.979-2.892-.566-.151-1.936.692c-1.056.654-4.69,1.773-5.03,2.955-1.7,5.948-3.433,11.921-4.6,17.994-1.257,6.715.1,7.23,4.715,9.116,1.157.478,2.553,1.069,3.974,1.66-.138,1.006-.264,1.848-.314,2.54-.063,1.006,7.381,1.408,13.052,1.434a34.234,34.234,0,0,0,6.237-.289c.943-.516,0-3.659-.113-6.8s.528-15.089.528-15.089,5.445,11.317,7.017,12.26,18.233-11.845,18.547-12.574S270.489,228.255,270.061,227.514Zm-44.954,13.945c0-1.471,2.314-11.216,2.314-11.216a22.2,22.2,0,0,1,.327,4c.013.151.013.3.025.465v.138c.075,2.892.038,6.463,0,8.852C226.227,242.729,225.108,241.9,225.108,241.459Z" transform="translate(-218.174 -194.255)" fill="#4ecdea"/>
      <g id="Grupo_936687" data-name="Grupo 936687" transform="translate(8.819 33.944)">
        <path id="Trazado_678171" data-name="Trazado 678171" d="M225.808,239.827c.038-2.389.075-5.96,0-8.852.189,2.754,10.3,14.159,10.3,14.159Z" transform="translate(-225.028 -224.33)" fill="#1fa1c9"/>
        <path id="Trazado_678172" data-name="Trazado 678172" d="M238.24,246.939c-5.671-.025-13.115-.428-13.052-1.434.05-.692.176-1.534.314-2.54Z" transform="translate(-225.188 -221.243)" fill="#1fa1c9"/>
        <path id="Trazado_678173" data-name="Trazado 678173" d="M241.373,229.2l-2.515-3.515,2.192,10.387Z" transform="translate(-221.668 -225.69)" fill="#1fa1c9"/>
      </g>
      <g id="Grupo_936688" data-name="Grupo 936688" transform="translate(51.887 29.805)">
        <path id="Trazado_678174" data-name="Trazado 678174" d="M259.438,225.852l3.253-3.454v5.4l-1.362,1.467Z" transform="translate(-259.438 -222.398)" fill="#ffbf9f"/>
      </g>
      <path id="Trazado_678175" data-name="Trazado 678175" d="M262.029,228.858s0-10.584.523-10.584,5.921-.1,6.026,1-.629,11.684-1.257,11.841-4.768.209-5.083-.42A4.419,4.419,0,0,1,262.029,228.858Z" transform="translate(-206.888 -193.656)" fill="#1c2b49"/>
      <g id="Grupo_936689" data-name="Grupo 936689" transform="translate(59.367 27.867)">
        <path id="Trazado_678176" data-name="Trazado 678176" d="M268.18,220.857a2.794,2.794,0,0,0-2.41,1.938c-.786,1.939-.209,4.664.367,4.244s1.572-.65,2.043-3.069S268.18,220.857,268.18,220.857Z" transform="translate(-265.387 -220.857)" fill="#ffbf9f"/>
      </g>
      <path id="Trazado_678177" data-name="Trazado 678177" d="M232.358,258.126l.508-6.811,6.03,34.242Z" transform="translate(-214.523 -185.149)" fill="#1a1d38"/>
      <g id="Grupo_936690" data-name="Grupo 936690" transform="translate(18.343 55.667)">
        <path id="Trazado_678178" data-name="Trazado 678178" d="M233.826,242.965s4.48.912,3.38,1.305-2.223.107-.915.682,4.15.887,3.357,1.949-1.757,1.3-3.357.827a14.334,14.334,0,0,1-3.528-1.89s.907-.782.907-1.49A6.956,6.956,0,0,1,233.826,242.965Z" transform="translate(-232.762 -242.965)" fill="#ffbf9f"/>
      </g>
    </g>
    <g id="Grupo_936700" data-name="Grupo 936700" transform="translate(61.983 233.113)">
      <path id="Trazado_678179" data-name="Trazado 678179" d="M74.648,299.773a20.9,20.9,0,0,1-1.729,6.5c-1.415,2.829-1.835,3.93-.524,5.134s10.478,3.511,11.946,2.41.524-1.572-1-3.091-3.877-3.249-4.138-6.078a12.367,12.367,0,0,1,.472-4.873Z" transform="translate(-59.506 -173.436)" fill="#232538"/>
      <path id="Trazado_678180" data-name="Trazado 678180" d="M102.88,302.031a19.554,19.554,0,0,1,.524,7.493c-.629,3.248-1.572,4.4,1.623,4.323s11.737.078,12.051-1.285-4.611-3.144-6.236-4.244-2.776-7.545-2.776-7.545Z" transform="translate(-51.482 -173.178)" fill="#232538"/>
      <path id="Trazado_678181" data-name="Trazado 678181" d="M84.795,245.251s-2.831,4.736-2.965,8.508-4.011,31.436-5.164,39.714-4.715,19.6-3.144,21.272,6.707,2.619,7.65,1.467,4.82-18.233,6.077-22.948,7.23-35.943,7.649-33.742,9.326,26.092,9.745,29.131,3.772,29.131,5.03,29.34,7.965.524,7.965-2.724-2.306-27.769-5.24-35.733-10.827-35.271-10.827-35.271Z" transform="translate(-59.114 -187.726)" fill="#333970"/>
      <path id="Trazado_678182" data-name="Trazado 678182" d="M88.965,266.163H63.24a1.257,1.257,0,0,1-1.257-1.257h0a1.258,1.258,0,0,1,1.257-1.257H88.965a1.257,1.257,0,0,1,1.257,1.257h0A1.256,1.256,0,0,1,88.965,266.163Z" transform="translate(-61.983 -182.736)" fill="#ff4571"/>
      <path id="Trazado_678183" data-name="Trazado 678183" d="M88.965,277.413H63.24a1.257,1.257,0,0,1-1.257-1.257h0A1.258,1.258,0,0,1,63.24,274.9H88.965a1.257,1.257,0,0,1,1.257,1.257h0A1.256,1.256,0,0,1,88.965,277.413Z" transform="translate(-61.983 -179.84)" fill="#ff4571"/>
      <rect id="Rectángulo_329702" data-name="Rectángulo 329702" width="25.725" height="11.631" transform="translate(1.258 83.428)" fill="#ed2e53"/>
      <path id="Trazado_678184" data-name="Trazado 678184" d="M64.858,265.332l3.482-6.281a3.771,3.771,0,0,1,3.3-1.944h8.468a3.775,3.775,0,0,1,3.282,1.911l3.579,6.314H84.453L81.9,260.525a3.771,3.771,0,0,0-3.332-2H72.583a3.771,3.771,0,0,0-3.3,1.944l-2.7,4.866Z" transform="translate(-61.243 -184.42)" fill="#c4264b"/>
      <g id="Grupo_936692" data-name="Grupo 936692" transform="translate(11.906 68.601)">
        <path id="Trazado_678185" data-name="Trazado 678185" d="M72.067,253.857a42.884,42.884,0,0,1-.576,4.663c-.367,1.676,1.886,2.672,3.72,2.2s2.568-1.415,1.782-2.41a17.237,17.237,0,0,1-1.676-3.772Z" transform="translate(-71.451 -253.857)" fill="#ffbf9f"/>
      </g>
      <g id="Grupo_936693" data-name="Grupo 936693" transform="translate(61.511 58.75)">
        <path id="Trazado_678186" data-name="Trazado 678186" d="M110.9,248.015s1.729,4.977,3.981,5.5,3.615-.524,2.672-1.415-2.409-2.1-1.572-2.253,1.729-.629.524-1.2a21.1,21.1,0,0,1-3.405-2.621Z" transform="translate(-110.9 -246.023)" fill="#ffbf9f"/>
      </g>
      <path id="Trazado_678187" data-name="Trazado 678187" d="M79.3,210.692s1.729,5.187,4.715,6.366a6.063,6.063,0,0,0,5.03,0l-1.373-9.431Z" transform="translate(-57.526 -197.158)" fill="#232538"/>
      <g id="Grupo_936694" data-name="Grupo 936694" transform="translate(25.397 9.527)">
        <path id="Trazado_678188" data-name="Trazado 678188" d="M93.329,206.878s3.064,7.465,1.807,9.588a3.558,3.558,0,0,1-3.144,1.964l.629,2.123s-1.572,4.007-3.379,3.222a13.8,13.8,0,0,1-3.537-2.515s-.392-5.242-1.415-5.882-2.829-3.391-1.807-3.077,2.672,1.179,2.436.394-.864-3.38-.864-3.38Z" transform="translate(-82.18 -206.878)" fill="#ffbf9f"/>
      </g>
      <g id="Grupo_936695" data-name="Grupo 936695" transform="translate(20.984)">
        <path id="Trazado_678189" data-name="Trazado 678189" d="M94.232,208.829s2.907-.786,2.75-1.022S94,207.1,93.6,206.392s-3.593-9.509-10.52-6.444-3.626,12.889-3.626,12.889l5.5-1.572Z" transform="translate(-78.671 -199.302)" fill="#ffe045"/>
      </g>
      <path id="Trazado_678190" data-name="Trazado 678190" d="M90.981,216.347l-4.873-1.376s2.868,3.38,3.654,2.986A3.274,3.274,0,0,0,90.981,216.347Z" transform="translate(-55.772 -195.268)" fill="#c96353"/>
      <g id="Grupo_936696" data-name="Grupo 936696" transform="translate(10.311 23.204)">
        <path id="Trazado_678191" data-name="Trazado 678191" d="M124.084,253.2c.151.855-2.289,3.445-3.068,4.074-.629.5-7.645-7.293-11.04-11.254-.817-.956-1.421-1.685-1.685-2.024-1.308-1.672-4.8-8.362-5.017-8.777l-.013-.025s.226,9.67.629,12.348a3.192,3.192,0,0,1-1.421,3.533l-.138.013-15.894,1.081s-2.59.075-2.439-1.886-1.408-17.68-1.408-17.68-4.8,9.821-5.508,11.468-.855,19.34-1.019,20.119-2.351.553-3.772.4-2.351-15.253-2.05-18.547c.327-3.307,6.841-15.643,9.041-20.509s9.519-7.079,9.519-7.079,2.817,1.257,3.848,1.572,3.068-2.276,3.068-2.276,5.256.7,6.589,1.408,8.8,16.2,9.984,18.158S123.92,252.335,124.084,253.2Z" transform="translate(-70.183 -217.755)" fill="#f4bd5b"/>
      </g>
      <g id="Grupo_936697" data-name="Grupo 936697" transform="translate(43.388 33.654)">
        <path id="Trazado_678192" data-name="Trazado 678192" d="M103.2,243.883c-.817-.956-1.421-1.685-1.685-2.025-1.308-1.672-4.8-8.362-5.017-8.777l-.013-.025v-6.991Z" transform="translate(-96.488 -226.065)" fill="#ef8a5e"/>
      </g>
      <g id="Grupo_936698" data-name="Grupo 936698" transform="translate(22.716 32.396)">
        <path id="Trazado_678193" data-name="Trazado 678193" d="M99.79,249.208,83.9,250.289s-2.59.075-2.439-1.886-1.408-17.68-1.408-17.68l1.408-5.659a66.938,66.938,0,0,0,1.27,13.518C84.034,244.354,95.15,248.642,99.79,249.208Z" transform="translate(-80.048 -225.065)" fill="#ef8a5e"/>
      </g>
      <g id="Grupo_936699" data-name="Grupo 936699" transform="translate(1.258 83.428)">
        <rect id="Rectángulo_329703" data-name="Rectángulo 329703" width="25.725" height="1.781" fill="#c4264b"/>
        <rect id="Rectángulo_329704" data-name="Rectángulo 329704" width="25.725" height="2.541" transform="translate(0 9.09)" fill="#c4264b"/>
      </g>
    </g>
    <g id="Grupo_936666" data-name="Grupo 936666" transform="translate(147.048 166.15)">
      <path id="Trazado_678100" data-name="Trazado 678100" d="M202.533,201.728s.756,5.374,1.934,5.454,10.768.864,10.453,0-3.97-1.257-6.189-3.144a8.91,8.91,0,0,1-2.692-3.223Z" transform="translate(-110.864 -131.949)" fill="#ed8772"/>
      <path id="Trazado_678101" data-name="Trazado 678101" d="M176.7,242.965s5.266,10.185,3.852,11.286-17.168,7.388-17.308,5.738,3.476-3.852,6.148-6.524,3.379-9.588,3.379-9.588Z" transform="translate(-120.979 -121.097)" fill="#232538"/>
      <path id="Trazado_678102" data-name="Trazado 678102" d="M146.531,236.253s-5.5,4.068-7.623,3.919-9.431-2.2-9.274,0,11.081,10.38,12.652,9.437S149.2,239.16,149.2,239.16Z" transform="translate(-129.632 -122.825)" fill="#232538"/>
      <path id="Trazado_678103" data-name="Trazado 678103" d="M187.773,194.191s-26.642,16.5-27.742,19.646-19.333,32.008-18.39,33.687,4.4,4.508,5.973,3.093,15.4-23.058,17.761-26.147,2.2-4.346,4.715-5.446,8.624-5.03,8.624-5.03l17.311-16.818-.786-2.2Z" transform="translate(-126.549 -133.654)" fill="#534741"/>
      <path id="Trazado_678104" data-name="Trazado 678104" d="M201.047,195.185s1.484,6.765-4.6,12.738-20.39,16.19-20.39,17.761,2.2,30.022,1.1,30.807-6.6,2.307-7.073.761-4.087-34.181-3.3-37.825,20.786-24.23,20.786-24.23Z" transform="translate(-120.097 -133.398)" fill="#736357"/>
      <path id="Trazado_678105" data-name="Trazado 678105" d="M181.7,160.9s1.284.083.812-1.332a2.89,2.89,0,0,1,1.467-3.2c.89-.576,2.2-1.1,2.409-.839s3.878,1.677,2.778,4.14-5.013,3.337-5.013,3.337Z" transform="translate(-116.228 -143.623)" fill="#ed8772"/>
      <path id="Trazado_678106" data-name="Trazado 678106" d="M183.884,157.412l1.624,4.558,5.868-2.279-1.711-6.007Z" transform="translate(-115.665 -144.083)" fill="#232538"/>
      <path id="Trazado_678107" data-name="Trazado 678107" d="M194.017,154.523l7.807,3.668a2.335,2.335,0,0,1-1.022,2.814c-1.729,1.352-2.436,1.9-1.335,1.9s2.722.236,2.5,1.572-.851,1.572.8,2.358,2.907.629,2.515,2.28-1.808,1.886-.551,3.3-1.021,4.759-1.021,4.759-9.2-2.245-10.531-7.274a50.185,50.185,0,0,1-2.043-11.317C190.9,154.733,194.017,154.523,194.017,154.523Z" transform="translate(-113.801 -143.866)" fill="#232538"/>
      <path id="Trazado_678108" data-name="Trazado 678108" d="M190.094,167.555s.988-2.38.831-3.272-.209-.89-1.2-1.257-3.825-.1-2.882-3.562a39.23,39.23,0,0,1,3.2-7.44l5.134,3.144s-1.415,4.14,0,3.721,2.778-.839,3.3.262-.576,2.013-1.572,2.5a2.022,2.022,0,0,0-1.047,2.53c.314,1.047.1,1.153-.21,2.358s1.281,2.515,1.281,2.515-1.647,6.444-3.613,7-5.736-1.337-5.894-3.93S190.094,167.555,190.094,167.555Z" transform="translate(-114.953 -144.51)" fill="#ed8772"/>
      <g id="Grupo_936660" data-name="Grupo 936660" transform="translate(52.166 21.498)">
        <path id="Trazado_678109" data-name="Trazado 678109" d="M214.753,211.066c-.541,0-4.238.943-4.791,0s-6.526-31.524-6.526-31.524-1.572,8.023-2.125,12.273,0,11.154-1.408,11.619c-1.006.34-8.513.314-13.48.013h-.038a23.553,23.553,0,0,1-4.087-.478c-2.2-.7-3.458-1.182-2.993-2.276s2.364-9.594,2.842-12.65-.717-7.784-.163-9.594.792-2.515.792-2.515-9.846,7.243-11.33,6.652,2.364-8.274,5.344-11.745,9.8-7.7,9.8-7.7l7.507,1.547s-.163,5.508,1.647,5.269,5.181-3.772,5.181-3.772,6.916.78,7.394,2.2S215.306,211.066,214.753,211.066Z" transform="translate(-171.117 -163.145)" fill="#f4bd5b"/>
      </g>
      <g id="Grupo_936661" data-name="Grupo 936661" transform="translate(48.788 17.139)">
        <path id="Trazado_678110" data-name="Trazado 678110" d="M188.177,162.6s-3.066-3.537-3.772-2.829-12.5,14.539-14.226,16.661-2.278,4.951-1.178,6.68,5.108-.235,6.68-1.65S188.177,162.6,188.177,162.6Z" transform="translate(-168.431 -159.679)" fill="#f4bd5b"/>
      </g>
      <g id="Grupo_936662" data-name="Grupo 936662" transform="translate(60.239 29.807)">
        <path id="Trazado_678111" data-name="Trazado 678111" d="M181.116,174.232l1.65-4.48-5.229,7.006Z" transform="translate(-177.537 -169.753)" fill="#ef8a5e"/>
      </g>
      <g id="Grupo_936663" data-name="Grupo 936663" transform="translate(67.471 32.84)">
        <path id="Trazado_678112" data-name="Trazado 678112" d="M201.044,172.165l-.742,5.055s-1.572,8.023-2.125,12.273,0,11.154-1.408,11.619c-1.006.339-8.513.314-13.48.013.578-.063,7.017-.843,9.921-3.936,3.03-3.244,2.829-10.475-1.471-10.374a16.919,16.919,0,0,1-8.45-2.6c.541.189,6.375,2.125,10.965.78C198.768,183.683,200.805,173.448,201.044,172.165Z" transform="translate(-183.289 -172.165)" fill="#ef8a5e"/>
      </g>
      <g id="Grupo_936664" data-name="Grupo 936664" transform="translate(72.703)">
        <path id="Trazado_678113" data-name="Trazado 678113" d="M189.829,153.561s-3.091-1.44-2.227-2.462,2.986,0,2.986,0,3.852-7.073,10.61-4.479,4.873,13.91,1.572,13.753c0,0-9.064-4.087-10.7-4.951A5.913,5.913,0,0,1,189.829,153.561Z" transform="translate(-187.45 -146.048)" fill="#ffe045"/>
      </g>
      <g id="Grupo_936665" data-name="Grupo 936665" transform="translate(56.037 21.498)">
        <path id="Trazado_678114" data-name="Trazado 678114" d="M183.627,166.559,174.2,180.57l13.951-16.94-2.355-.485Z" transform="translate(-174.196 -163.145)" fill="#ef8a5e"/>
      </g>
    </g>
  </g>
</svg>
