<svg xmlns="http://www.w3.org/2000/svg" width="317.316" height="214.028" viewBox="0 0 317.316 214.028">
  <g id="Grupo_933518" data-name="Grupo 933518" transform="translate(-55.88 -57.684)">
    <path id="Trazado_670864" data-name="Trazado 670864" d="M365.851,343.622H111.2c-20.1-14.043-23.018-46.6-3.08-62.934,3.529-3.046,7.6-5.473,10.8-8.866,18.117-25.308,3.989-56.757,38.694-89.92,28.96-30.556,86.254-29.624,106.281,10.1,4.584,9.036,6.838,19.611,14.015,26.765,21.48,20.2,53.969-.98,78.978,6.545C403.31,242.81,388.062,310.3,365.851,343.622Z" transform="translate(-28.876 -76.713)" fill="#b8ecff"/>
    <path id="Trazado_670865" data-name="Trazado 670865" d="M497.168,207.013a1.975,1.975,0,0,0-.705-1.933,2.994,2.994,0,0,0-2.031-.61,6.433,6.433,0,0,0-2.1.52,8.129,8.129,0,0,0-3.006,1.918,34.3,34.3,0,0,1,.294-5.26c.021-.159.045-.317.068-.475l3.683.758a6.585,6.585,0,0,0,2.486.189,2.246,2.246,0,0,0,1.836-1.508,1.974,1.974,0,0,0-.706-1.933,2.991,2.991,0,0,0-2.03-.61,6.433,6.433,0,0,0-2.1.52,8,8,0,0,0-3.081,2,34.975,34.975,0,0,1,1.43-5.673l3.761.625a6.59,6.59,0,0,0,2.491.093,2.247,2.247,0,0,0,1.777-1.577,1.974,1.974,0,0,0-.779-1.9,2.993,2.993,0,0,0-2.053-.532,6.432,6.432,0,0,0-2.075.6,8.267,8.267,0,0,0-2.855,1.944,34.393,34.393,0,0,1,1.707-3.876c.192-.372.393-.738.6-1.1l3.889.516a6.581,6.581,0,0,0,2.493.011,2.247,2.247,0,0,0,1.724-1.634,1.974,1.974,0,0,0-.841-1.877,2.992,2.992,0,0,0-2.069-.464,6.429,6.429,0,0,0-2.054.668,8.712,8.712,0,0,0-2.542,1.761,32.959,32.959,0,0,1,2.454-3.474l3.574-1.364a6.6,6.6,0,0,0,2.2-1.178,2.248,2.248,0,0,0,.74-2.258,1.97,1.97,0,0,0-1.633-1.249,3,3,0,0,0-2.041.577,6.462,6.462,0,0,0-1.49,1.565,7.7,7.7,0,0,0-1.564,3.634l-.01.01a33.288,33.288,0,0,0-2.6,3.7,8.532,8.532,0,0,0-.074-3.24,6.441,6.441,0,0,0-.688-2.047,2.994,2.994,0,0,0-1.605-1.386,1.973,1.973,0,0,0-2.009.443,2.247,2.247,0,0,0-.285,2.359,6.585,6.585,0,0,0,1.494,2l2.66,2.743a34.381,34.381,0,0,0-2.332,5.023,8.313,8.313,0,0,0-.881-3.292,6.424,6.424,0,0,0-1.174-1.812,2.992,2.992,0,0,0-1.9-.943,1.975,1.975,0,0,0-1.837.928,2.246,2.246,0,0,0,.308,2.355,6.582,6.582,0,0,0,1.943,1.562l3.256,1.995c-.019.055-.039.109-.057.165a35.458,35.458,0,0,0-1.38,5.544,7.854,7.854,0,0,0-1.6-3.441,6.428,6.428,0,0,0-1.516-1.536,3,3,0,0,0-2.051-.538,1.976,1.976,0,0,0-1.611,1.281,2.244,2.244,0,0,0,.778,2.243,6.58,6.58,0,0,0,2.219,1.135L489.376,201c0,.026-.008.053-.011.079l-.034.016.03.006a34.819,34.819,0,0,0-.375,5.546,8.513,8.513,0,0,0-2.436-2.417,6.561,6.561,0,0,0-1.96-1,3.056,3.056,0,0,0-2.157.138,2.011,2.011,0,0,0-1.147,1.754,2.284,2.284,0,0,0,1.474,1.917,6.713,6.713,0,0,0,2.511.385l3.63.09.108.022a33.2,33.2,0,0,0,.8,6.069c.048.211.386.176.337-.038a33.121,33.121,0,0,1-.794-5.961l3.494.72a6.59,6.59,0,0,0,2.486.189A2.246,2.246,0,0,0,497.168,207.013Z" transform="translate(-317.609 -90.296)" fill="#5a8233"/>
    <g id="Grupo_933386" data-name="Grupo 933386" transform="translate(106.187 78.261)">
      <g id="Grupo_933385" data-name="Grupo 933385" transform="translate(0)">
        <path id="Trazado_670866" data-name="Trazado 670866" d="M254.41,189.8c3.52.032,6.791,2.57,9.719,5.063s6.078,5.149,9.6,5.512c6.235.632,14.407-4.977,15.627-11.043a6.937,6.937,0,0,0,.155-1.721,4.376,4.376,0,0,0,.368.283,7.737,7.737,0,0,0,.852.547l-25.583-49.554a24.68,24.68,0,0,0-1.909,6.672,12.114,12.114,0,0,0,2.275,8.878c1.331,1.635,3.379,3.233,3.134,5.236a17.666,17.666,0,0,1-9.255-7.207,22.242,22.242,0,0,0-.746,7.657c.343,2.631,1.8,5.4,4.1,6.462,1.607.742,3.69.792,4.6,2.449a2.7,2.7,0,0,1-1.212,3.685,4.268,4.268,0,0,1-4.034-.893A17.518,17.518,0,0,1,259,168.385a13.146,13.146,0,0,0-3.242-3.29c2.091,4-1.008,9.252,1.664,12.864a6.581,6.581,0,0,0,4.562,2.372c1.672.222,3.344.067,5.017.372a4.686,4.686,0,0,1,2.747,1.335,2.578,2.578,0,0,1,.552,2.927c-.737,1.131-2.394.749-3.73.452A12.085,12.085,0,0,0,254.41,189.8Zm15.348-13.874a1.382,1.382,0,0,1,1.863-.378c.784.36,1.213,1.084.961,1.645a1.382,1.382,0,0,1-1.863.378C269.934,177.211,269.505,176.488,269.758,175.926Z" transform="translate(-254.41 -138.887)" fill="#5a8233"/>
        <path id="Trazado_670867" data-name="Trazado 670867" d="M296.8,138.887l25.583,49.554c5.337,2.986,14.244.39,17.612-4.963,1.895-3.009,1.726-7.134,1.571-10.961-.166-3.849-.164-7.993,1.983-10.784a12.068,12.068,0,0,0-10.94,6.9c-.592,1.223-1.3,2.768-2.635,2.653a2.589,2.589,0,0,1-1.99-2.24,4.816,4.816,0,0,1,.641-2.987c.8-1.5,1.943-2.727,2.808-4.175a6.607,6.607,0,0,0,.918-5.062c-1.2-4.317-7.244-5.117-9.109-9.215a13.2,13.2,0,0,0,.6,4.573,17.242,17.242,0,0,1,.8,4.565,4.319,4.319,0,0,1-1.77,3.736,2.711,2.711,0,0,1-3.652-1.312c-.747-1.742.492-3.41.9-5.134.57-2.477-.7-5.323-2.569-7.211a22.078,22.078,0,0,0-6.5-4.11,17.725,17.725,0,0,1,0,11.72c-1.748-1.044-1.738-3.636-2.212-5.685a12.111,12.111,0,0,0-5.608-7.255A24.962,24.962,0,0,0,296.8,138.887Zm37.721,35.335c.205-1.677,1.333-2.913,2.523-2.762s1.982,1.6,1.777,3.282-1.338,2.9-2.523,2.762S334.31,175.888,334.521,174.222Zm-20.358-22.386c.12-.979.774-1.706,1.471-1.621s1.167.941,1.047,1.921-.79,1.7-1.488,1.616S314.037,152.8,314.163,151.835Z" transform="translate(-286.058 -138.887)" fill="#779c50"/>
      </g>
    </g>
    <g id="Grupo_933408" data-name="Grupo 933408" transform="translate(283.071 76.156)">
      <g id="Grupo_933389" data-name="Grupo 933389" transform="translate(0 45.384)">
        <g id="Grupo_933387" data-name="Grupo 933387">
          <path id="Trazado_670868" data-name="Trazado 670868" d="M959.281,313.675l-6.827,2.007,6.946,1.087,36.717-.9,7.412-3.6-7.651-2.591Z" transform="translate(-952.455 -309.68)" fill="#83c1e6"/>
        </g>
        <g id="Grupo_933388" data-name="Grupo 933388">
          <path id="Trazado_670869" data-name="Trazado 670869" d="M959.281,313.675l-6.827,2.007,1.836.287,4.731-1.391,36.6-4,6.707,2.272,1.2-.584-7.651-2.591Z" transform="translate(-952.455 -309.68)" fill="#64a5cc"/>
        </g>
      </g>
      <g id="Grupo_933392" data-name="Grupo 933392" transform="translate(48.673 48.528)">
        <g id="Grupo_933390" data-name="Grupo 933390">
          <path id="Trazado_670870" data-name="Trazado 670870" d="M1181.271,346.795l4.716,5.328-6.462-2.771L1148.9,329.076l-4.367-6.986,7.858,1.871Z" transform="translate(-1144.534 -322.09)" fill="#83c1e6"/>
        </g>
        <g id="Grupo_933391" data-name="Grupo 933391">
          <path id="Trazado_670871" data-name="Trazado 670871" d="M1181.271,346.795l4.716,5.328-1.708-.732-3.268-3.692-28.878-22.834-6.889-1.64-.709-1.134,7.858,1.871Z" transform="translate(-1144.534 -322.09)" fill="#64a5cc"/>
        </g>
      </g>
      <g id="Grupo_933395" data-name="Grupo 933395" transform="translate(48.348 0)">
        <g id="Grupo_933393" data-name="Grupo 933393">
          <path id="Trazado_670872" data-name="Trazado 670872" d="M1161.9,137.579l1.369-7-4.03,6.357-15.7,35.224-.292,7.945,5.612-6.661Z" transform="translate(-1143.251 -130.581)" fill="#83c1e6"/>
        </g>
        <g id="Grupo_933394" data-name="Grupo 933394">
          <path id="Trazado_670873" data-name="Trazado 670873" d="M1161.9,137.579l1.369-7-1.065,1.681-.949,4.85-13.039,35.866-4.92,5.84-.047,1.29,5.612-6.661Z" transform="translate(-1143.251 -130.581)" fill="#64a5cc"/>
        </g>
      </g>
      <g id="Grupo_933396" data-name="Grupo 933396" transform="translate(43.609 49.526)">
        <path id="Trazado_670874" data-name="Trazado 670874" d="M1134.027,463.679h-9.478l2.74-137.651h4Z" transform="translate(-1124.55 -326.028)" fill="#83c1e6"/>
      </g>
      <g id="Grupo_933400" data-name="Grupo 933400" transform="translate(43.609 49.526)">
        <g id="Grupo_933397" data-name="Grupo 933397" transform="translate(3.204)">
          <path id="Trazado_670875" data-name="Trazado 670875" d="M1139.82,326.1l.226,137.574h3.421l-2.74-137.651h-3.534Z" transform="translate(-1137.194 -326.028)" fill="#64a5cc"/>
        </g>
        <g id="Grupo_933399" data-name="Grupo 933399" transform="translate(0 137.594)">
          <g id="Grupo_933398" data-name="Grupo 933398">
            <path id="Trazado_670876" data-name="Trazado 670876" d="M1124.551,869.023v.056h1.947Z" transform="translate(-1124.55 -869.023)" fill="#d3e2f0"/>
          </g>
        </g>
      </g>
      <g id="Grupo_933404" data-name="Grupo 933404" transform="translate(44.351 44.911)">
        <g id="Grupo_933401" data-name="Grupo 933401">
          <path id="Trazado_670877" data-name="Trazado 670877" d="M1127.481,312.137a4.321,4.321,0,1,1,4.321,4.321A4.321,4.321,0,0,1,1127.481,312.137Z" transform="translate(-1127.481 -307.816)" fill="#64a5cc"/>
        </g>
        <g id="Grupo_933402" data-name="Grupo 933402" transform="translate(0.472 0.472)">
          <path id="Trazado_670878" data-name="Trazado 670878" d="M1129.345,313.529a3.849,3.849,0,1,1,3.849,3.849A3.849,3.849,0,0,1,1129.345,313.529Z" transform="translate(-1129.345 -309.68)" fill="#fff"/>
        </g>
        <g id="Grupo_933403" data-name="Grupo 933403" transform="translate(1.291 1.291)">
          <path id="Trazado_670879" data-name="Trazado 670879" d="M1132.576,315.94a3.03,3.03,0,1,1,3.031,3.03A3.03,3.03,0,0,1,1132.576,315.94Z" transform="translate(-1132.576 -312.91)" fill="#64a5cc"/>
        </g>
      </g>
      <g id="Grupo_933405" data-name="Grupo 933405" transform="translate(41.623 168.964)">
        <path id="Trazado_670880" data-name="Trazado 670880" d="M1130.205,818.216h-13.491l1.318-20.844h10.854Z" transform="translate(-1116.714 -797.372)" fill="#83c1e6"/>
      </g>
      <g id="Grupo_933406" data-name="Grupo 933406" transform="translate(51.985 168.964)">
        <path id="Trazado_670881" data-name="Trazado 670881" d="M1159.416,797.372h-1.811l1.318,20.844h1.811Z" transform="translate(-1157.605 -797.372)" fill="#64a5cc"/>
      </g>
      <g id="Grupo_933407" data-name="Grupo 933407" transform="translate(40.274 187.177)">
        <rect id="Rectángulo_329196" data-name="Rectángulo 329196" width="16.373" height="3.97" fill="#83c1e6"/>
      </g>
    </g>
    <g id="Grupo_933430" data-name="Grupo 933430" transform="translate(55.88 106.718)">
      <g id="Grupo_933411" data-name="Grupo 933411" transform="translate(32.7 38.003)">
        <g id="Grupo_933409" data-name="Grupo 933409">
          <path id="Trazado_670882" data-name="Trazado 670882" d="M221.977,404.508l5.717,1.681-5.817.91-30.746-.754-6.207-3.012,6.407-2.17Z" transform="translate(-184.925 -401.163)" fill="#83c1e6"/>
        </g>
        <g id="Grupo_933410" data-name="Grupo 933410">
          <path id="Trazado_670883" data-name="Trazado 670883" d="M221.977,404.508l5.717,1.681-1.538.241-3.961-1.164-30.646-3.345-5.617,1.9-1.008-.489,6.407-2.17Z" transform="translate(-184.925 -401.163)" fill="#64a5cc"/>
        </g>
      </g>
      <g id="Grupo_933414" data-name="Grupo 933414" transform="translate(0 40.636)">
        <g id="Grupo_933412" data-name="Grupo 933412">
          <path id="Trazado_670884" data-name="Trazado 670884" d="M59.829,432.242,55.88,436.7l5.411-2.32L86.935,417.4l3.657-5.85-6.58,1.567Z" transform="translate(-55.88 -411.554)" fill="#83c1e6"/>
        </g>
        <g id="Grupo_933413" data-name="Grupo 933413">
          <path id="Trazado_670885" data-name="Trazado 670885" d="M59.829,432.242,55.88,436.7l1.43-.613L60.047,433l24.182-19.121L90,412.5l.594-.95-6.58,1.567Z" transform="translate(-55.88 -411.554)" fill="#64a5cc"/>
        </g>
      </g>
      <g id="Grupo_933417" data-name="Grupo 933417" transform="translate(18.219)">
        <g id="Grupo_933415" data-name="Grupo 933415">
          <path id="Trazado_670886" data-name="Trazado 670886" d="M128.925,257.049l-1.147-5.861,3.374,5.323,13.146,29.5.244,6.653-4.7-5.578Z" transform="translate(-127.778 -251.189)" fill="#83c1e6"/>
        </g>
        <g id="Grupo_933416" data-name="Grupo 933416">
          <path id="Trazado_670887" data-name="Trazado 670887" d="M128.925,257.049l-1.147-5.861.892,1.407.795,4.061,10.918,30.034,4.12,4.89.04,1.08-4.7-5.578Z" transform="translate(-127.778 -251.189)" fill="#64a5cc"/>
        </g>
      </g>
      <g id="Grupo_933418" data-name="Grupo 933418" transform="translate(31.016 41.472)">
        <path id="Trazado_670888" data-name="Trazado 670888" d="M178.278,530.118h7.936l-2.294-115.266h-3.348Z" transform="translate(-178.278 -414.852)" fill="#83c1e6"/>
      </g>
      <g id="Grupo_933422" data-name="Grupo 933422" transform="translate(31.016 41.472)">
        <g id="Grupo_933419" data-name="Grupo 933419">
          <path id="Trazado_670889" data-name="Trazado 670889" d="M181.332,414.916l-.19,115.2h-2.865l2.294-115.266h2.959Z" transform="translate(-178.278 -414.852)" fill="#64a5cc"/>
        </g>
        <g id="Grupo_933421" data-name="Grupo 933421" transform="translate(6.306 115.219)">
          <g id="Grupo_933420" data-name="Grupo 933420">
            <path id="Trazado_670890" data-name="Trazado 670890" d="M204.793,869.545v.047h-1.631Z" transform="translate(-203.163 -869.545)" fill="#d3e2f0"/>
          </g>
        </g>
      </g>
      <g id="Grupo_933426" data-name="Grupo 933426" transform="translate(31.093 37.608)">
        <g id="Grupo_933423" data-name="Grupo 933423">
          <path id="Trazado_670891" data-name="Trazado 670891" d="M185.82,403.22a3.619,3.619,0,1,0-3.619,3.619A3.619,3.619,0,0,0,185.82,403.22Z" transform="translate(-178.583 -399.601)" fill="#64a5cc"/>
        </g>
        <g id="Grupo_933424" data-name="Grupo 933424" transform="translate(0.396 0.396)">
          <path id="Trazado_670892" data-name="Trazado 670892" d="M186.59,404.386a3.223,3.223,0,1,0-3.223,3.223A3.223,3.223,0,0,0,186.59,404.386Z" transform="translate(-180.144 -401.163)" fill="#fff"/>
        </g>
        <g id="Grupo_933425" data-name="Grupo 933425" transform="translate(1.081 1.081)">
          <path id="Trazado_670893" data-name="Trazado 670893" d="M187.924,406.4a2.538,2.538,0,1,0-2.538,2.537A2.538,2.538,0,0,0,187.924,406.4Z" transform="translate(-182.849 -403.867)" fill="#64a5cc"/>
        </g>
      </g>
      <g id="Grupo_933427" data-name="Grupo 933427" transform="translate(29.318 141.487)">
        <path id="Trazado_670894" data-name="Trazado 670894" d="M171.578,827h11.3l-1.1-17.455h-9.089Z" transform="translate(-171.578 -809.546)" fill="#83c1e6"/>
      </g>
      <g id="Grupo_933428" data-name="Grupo 933428" transform="translate(29.318 141.487)">
        <path id="Trazado_670895" data-name="Trazado 670895" d="M172.682,809.546H174.2L173.094,827h-1.516Z" transform="translate(-171.578 -809.546)" fill="#64a5cc"/>
      </g>
      <g id="Grupo_933429" data-name="Grupo 933429" transform="translate(28.034 156.738)">
        <rect id="Rectángulo_329197" data-name="Rectángulo 329197" width="13.711" height="3.324" fill="#83c1e6"/>
      </g>
    </g>
    <g id="Grupo_933432" data-name="Grupo 933432" transform="translate(101.78 114.862)">
      <rect id="Rectángulo_329198" data-name="Rectángulo 329198" width="20.988" height="67.106" transform="translate(120.695 142.83) rotate(180)" fill="#fff"/>
      <rect id="Rectángulo_329199" data-name="Rectángulo 329199" width="46.118" height="4.388" transform="translate(133.26 147.217) rotate(180)" fill="#fff"/>
      <rect id="Rectángulo_329200" data-name="Rectángulo 329200" width="57.218" height="5.188" transform="translate(138.81 152.046) rotate(180)" fill="#fff"/>
      <path id="Trazado_670896" data-name="Trazado 670896" d="M664.051,653.3v-4.029H651.486V582.162H630.5v1.758h18.61v67.106h12.565v4.029h5.55v3.43H669.6V653.3Z" transform="translate(-530.791 -506.439)" fill="#bce4ff"/>
      <path id="Trazado_670897" data-name="Trazado 670897" d="M237.018,392.952h220.4l-34.6-109.622H271.615Z" transform="translate(-237.018 -283.33)" fill="#fff"/>
      <path id="Trazado_670898" data-name="Trazado 670898" d="M297.059,295.045l-30.428,101h205.4l-30.428-101Z" transform="translate(-259.127 -292.077)" fill="#1c92b7"/>
      <g id="Grupo_933431" data-name="Grupo 933431" transform="translate(20.657 5.776)">
        <path id="Trazado_670899" data-name="Trazado 670899" d="M926.495,381.033l10.361,4.491-1.251-4.491Z" transform="translate(-772.439 -362.051)" fill="#187e9e"/>
        <path id="Trazado_670900" data-name="Trazado 670900" d="M844.531,328.82l.8,4.578,10.935,4.737h10.13Z" transform="translate(-711.246 -323.069)" fill="#187e9e"/>
        <path id="Trazado_670901" data-name="Trazado 670901" d="M753.639,306.125l17.814,7.721-.683-4.486-7.587-3.235Z" transform="translate(-643.385 -306.125)" fill="#187e9e"/>
        <path id="Trazado_670902" data-name="Trazado 670902" d="M513.824,344.536l-.281,1.8,6.954,3.534h3.9Z" transform="translate(-464.129 -334.803)" fill="#187e9e"/>
        <path id="Trazado_670903" data-name="Trazado 670903" d="M571.389,381.033,593.552,392.3l.025-2.069-18.234-9.2Z" transform="translate(-507.317 -362.051)" fill="#187e9e"/>
        <path id="Trazado_670904" data-name="Trazado 670904" d="M946.95,571.966l20.273,10.308-.791-2.838-14.8-7.47Z" transform="translate(-787.712 -504.602)" fill="#187e9e"/>
        <path id="Trazado_670905" data-name="Trazado 670905" d="M879.321,528.521l.439,2.519,5.946,3.025h4.6Z" transform="translate(-737.219 -472.166)" fill="#187e9e"/>
        <path id="Trazado_670906" data-name="Trazado 670906" d="M743.412,468.486l27.631,14.047-.374-2.458L747.7,468.486Z" transform="translate(-635.75 -427.344)" fill="#187e9e"/>
        <path id="Trazado_670907" data-name="Trazado 670907" d="M644.11,418l25.163,12.792-.141-2.235L648.2,418Z" transform="translate(-561.61 -389.653)" fill="#187e9e"/>
        <path id="Trazado_670908" data-name="Trazado 670908" d="M424.051,306.125,441.7,315.1l.312-1.759-14.293-7.214Z" transform="translate(-397.314 -306.125)" fill="#187e9e"/>
        <path id="Trazado_670909" data-name="Trazado 670909" d="M594.542,571.966l15.738,9.364.034-2.822-11.094-6.542Z" transform="translate(-524.603 -504.602)" fill="#187e9e"/>
        <path id="Trazado_670910" data-name="Trazado 670910" d="M682.1,612.69l.023,2.889,19.639,11.68h5.05Z" transform="translate(-589.971 -535.007)" fill="#187e9e"/>
        <path id="Trazado_670911" data-name="Trazado 670911" d="M489.307,499.7l-.375,2.4,17.57,10.449h4.6Z" transform="translate(-445.755 -450.649)" fill="#187e9e"/>
        <path id="Trazado_670912" data-name="Trazado 670912" d="M363.5,425.917l-.592,2.1,6.882,4.091h4.217Z" transform="translate(-351.664 -395.562)" fill="#187e9e"/>
        <path id="Trazado_670913" data-name="Trazado 670913" d="M420.534,468.486l11.6,6.9.416-2.343-7.729-4.559Z" transform="translate(-394.689 -427.344)" fill="#187e9e"/>
        <path id="Trazado_670914" data-name="Trazado 670914" d="M855.055,389.229l1.41,8.095,15.976,7.395h14.719l-.33-1.184Z" transform="translate(-719.103 -368.171)" fill="#187e9e"/>
        <path id="Trazado_670915" data-name="Trazado 670915" d="M679.68,310.3l.055,6.906,15.344,7.1H710.8Z" transform="translate(-588.167 -309.242)" fill="#187e9e"/>
        <path id="Trazado_670916" data-name="Trazado 670916" d="M773.853,381.033l15.5,7.172-1.092-7.172Z" transform="translate(-658.477 -362.051)" fill="#187e9e"/>
        <path id="Trazado_670917" data-name="Trazado 670917" d="M611.976,306.125l12.174,5.635.068-5.635Z" transform="translate(-537.619 -306.125)" fill="#187e9e"/>
        <path id="Trazado_670918" data-name="Trazado 670918" d="M535.533,468.486l30.91,17.332.2-16.737-1.128-.6Z" transform="translate(-480.547 -427.344)" fill="#187e9e"/>
        <path id="Trazado_670919" data-name="Trazado 670919" d="M681.059,482.893,681.2,500h32.156Z" transform="translate(-589.197 -438.1)" fill="#187e9e"/>
        <path id="Trazado_670920" data-name="Trazado 670920" d="M720.066,571.966l38.7,21.705-3.07-20.165-2.912-1.54Z" transform="translate(-618.32 -504.602)" fill="#187e9e"/>
        <path id="Trazado_670921" data-name="Trazado 670921" d="M890.719,593.949l3.365,19.318h33.1Z" transform="translate(-745.729 -521.015)" fill="#187e9e"/>
        <path id="Trazado_670922" data-name="Trazado 670922" d="M500.778,390.912l-2.25,14.4,1.183.664h29.5Z" transform="translate(-452.92 -369.427)" fill="#187e9e"/>
        <path id="Trazado_670923" data-name="Trazado 670923" d="M379.587,381.033l24.683,13.843,2.458-13.843Z" transform="translate(-364.118 -362.051)" fill="#187e9e"/>
        <path id="Trazado_670924" data-name="Trazado 670924" d="M384.8,329.937l-2.546,9.032h19.6Z" transform="translate(-366.107 -323.903)" fill="#187e9e"/>
        <path id="Trazado_670925" data-name="Trazado 670925" d="M483.96,571.975l43.1,24.886h.475l.04-3.238-37.5-21.648Z" transform="translate(-442.043 -504.609)" fill="#187e9e"/>
        <path id="Trazado_670926" data-name="Trazado 670926" d="M346.437,483.631l25.372,14.647h2.548l.334-1.87-27.4-15.816Z" transform="translate(-339.368 -436.381)" fill="#187e9e"/>
        <path id="Trazado_670927" data-name="Trazado 670927" d="M318.539,576.942,348.6,594.3l2.413-13.6-15.11-8.725H319.94Z" transform="translate(-318.539 -504.609)" fill="#187e9e"/>
        <path id="Trazado_670928" data-name="Trazado 670928" d="M463.777,633.256h23.666l-21.711-12.533Z" transform="translate(-426.974 -541.004)" fill="#187e9e"/>
        <path id="Trazado_670929" data-name="Trazado 670929" d="M330.157,543.163H335.1l-4.249-2.452Z" transform="translate(-327.213 -481.267)" fill="#187e9e"/>
      </g>
      <path id="Trazado_670930" data-name="Trazado 670930" d="M307.152,337.636h8.539l-.808,4.56,5.685,3.351,1.238-7.911h41.318l-.011.6h.005l5.759,3.051h.006l-.034-3.65h15.833l-9.041-4.594h-6.826l-.028-3.486-5.532-2.814-.079,6.3H322.522l.1-.661-5.453-3.063-.661,3.724H299.36Zm37.888-22.162h18.348l-.136,11.268,5.532,2.814-.113-14.082H406.8l1.091,7.176,6.492,3-1.413-8.1-13.313-5.99H368.644l-.057-7.1-5.04-2.328-.113,9.431H337.282Zm67.928,2.079-.362-2.079h18.467l-9.035-3.91H411.923l-.825-4.741-6.012-2.6,1.119,7.346h-6.549Zm-61.333,46.308h11.172l-.079,6.538,6.413,3.78-.079-10.318h9.7l-9.747-5.47-.136-17.1h-.006l-5.759-3.051h-.005l-.237,20.156H342.362Zm-44.482-26.225h8.539l-.808,4.56,5.685,3.351,1.238-7.911h41.318l-.011.6h.005l5.759,3.051h.006l-.034-3.65h15.833l-9.041-4.594h-6.826l-.028-3.486-5.532-2.814-.079,6.3H322.522l.1-.661-5.453-3.063-.661,3.724H299.36Zm44.482,26.225h11.172l-.079,6.538,6.413,3.78-.079-10.318h9.7l-9.747-5.47-.136-17.1h-.006l-5.759-3.051h-.005l-.237,20.156H342.362Zm61.333-46.308-.362-2.079h18.467l-9.035-3.91H411.923l-.825-4.741-6.012-2.6,1.119,7.346h-6.549Zm-67.928-2.079h18.348l-.136,11.268,5.532,2.814-.113-14.082H406.8l1.091,7.176,6.492,3-1.413-8.1-13.313-5.99H368.644l-.057-7.1-5.04-2.328-.113,9.431H337.282Zm-37.888,22.162h8.539l-.808,4.56,5.685,3.351,1.238-7.911h41.318l-.011.6h.005l5.759,3.051h.006l-.034-3.65h15.833l-9.041-4.594h-6.826l-.028-3.486-5.532-2.814-.079,6.3H322.522l.1-.661-5.453-3.063-.661,3.724H299.36Zm44.482,26.225h11.172l-.079,6.538,6.413,3.78-.079-10.318h9.7l-9.747-5.47-.136-17.1h-.006l-5.759-3.051h-.005l-.237,20.156H342.362Zm61.333-46.308-.362-2.079h18.467l-9.035-3.91H411.923l-.825-4.741-6.012-2.6,1.119,7.346h-6.549Zm-67.928-2.079h18.348l-.136,11.268,5.532,2.814-.113-14.082H406.8l1.091,7.176,6.492,3-1.413-8.1-13.313-5.99H368.644l-.057-7.1-5.04-2.328-.113,9.431H337.282Zm-37.888,22.162h8.539l-.808,4.56,5.685,3.351,1.238-7.911h41.318l-.011.6h.005l5.759,3.051h.006l-.034-3.65h15.833l-9.041-4.594h-6.826l-.028-3.486-5.532-2.814-.079,6.3H322.522l.1-.661-5.453-3.063-.661,3.724H299.36Zm44.482,26.225h11.172l-.079,6.538,6.413,3.78-.079-10.318h9.7l-9.747-5.47-.136-17.1h-.006l-5.759-3.051h-.005l-.237,20.156H342.362Zm61.333-46.308-.362-2.079h18.467l-9.035-3.91H411.923l-.825-4.741-6.012-2.6,1.119,7.346h-6.549Zm-67.928-2.079h18.348l-.136,11.268,5.532,2.814-.113-14.082H406.8l1.091,7.176,6.492,3-1.413-8.1-13.313-5.99H368.644l-.057-7.1-5.04-2.328-.113,9.431H337.282Zm-37.888,22.162h8.539l-.808,4.56,5.685,3.351,1.238-7.911h41.318l-.011.6h.005l5.759,3.051h.006l-.034-3.65h15.833l-9.041-4.594h-6.826l-.028-3.486-5.532-2.814-.079,6.3H322.522l.1-.661-5.453-3.063-.661,3.724H299.36Zm44.482,26.225h11.172l-.079,6.538,6.413,3.78-.079-10.318h9.7l-9.747-5.47-.136-17.1h-.006l-5.759-3.051h-.005l-.237,20.156H342.362Zm61.333-46.308-.362-2.079h18.467l-9.035-3.91H411.923l-.825-4.741-6.012-2.6,1.119,7.346h-6.549Zm-67.928-2.079h18.348l-.136,11.268,5.532,2.814-.113-14.082H406.8l1.091,7.176,6.492,3-1.413-8.1-13.313-5.99H368.644l-.057-7.1-5.04-2.328-.113,9.431H337.282Zm-37.888,22.162h8.539l-.808,4.56,5.685,3.351,1.238-7.911h41.318l-.011.6h.005l5.759,3.051h.006l-.034-3.65h15.833l-9.041-4.594h-6.826l-.028-3.486-5.532-2.814-.079,6.3H322.522l.1-.661-5.453-3.063-.661,3.724H299.36Zm44.482,26.225h11.172l-.079,6.538,6.413,3.78-.079-10.318h9.7l-9.747-5.47-.136-17.1h-.006l-5.759-3.051h-.005l-.237,20.156H342.362Zm61.333-46.308-.362-2.079h18.467l-9.035-3.91H411.923l-.825-4.741-6.012-2.6,1.119,7.346h-6.549Zm-67.928-2.079h18.348l-.136,11.268,5.532,2.814-.113-14.082H406.8l1.091,7.176,6.492,3-1.413-8.1-13.313-5.99H368.644l-.057-7.1-5.04-2.328-.113,9.431H337.282Zm-37.888,22.162h8.539l-.808,4.56,5.685,3.351,1.238-7.911h41.318l-.011.6h.005l5.759,3.051h.006l-.034-3.65h15.833l-9.041-4.594h-6.826l-.028-3.486-5.532-2.814-.079,6.3H322.522l.1-.661-5.453-3.063-.661,3.724H299.36Zm44.482,26.225h11.172l-.079,6.538,6.413,3.78-.079-10.318h9.7l-9.747-5.47-.136-17.1h-.006l-5.759-3.051h-.005l-.237,20.156H342.362Zm61.333-46.308-.362-2.079h18.467l-9.035-3.91H411.923l-.825-4.741-6.012-2.6,1.119,7.346h-6.549Zm-67.928-2.079h18.348l-.136,11.268,5.532,2.814-.113-14.082H406.8l1.091,7.176,6.492,3-1.413-8.1-13.313-5.99H368.644l-.057-7.1-5.04-2.328-.113,9.431H337.282Zm-37.888,22.162h8.539l-.808,4.56,5.685,3.351,1.238-7.911h41.318l-.011.6h.005l5.759,3.051h.006l-.034-3.65h15.833l-9.041-4.594h-6.826l-.028-3.486-5.532-2.814-.079,6.3H322.522l.1-.661-5.453-3.063-.661,3.724H299.36Zm44.482,26.225h11.172l-.079,6.538,6.413,3.78-.079-10.318h9.7l-9.747-5.47-.136-17.1h-.006l-5.759-3.051h-.005l-.237,20.156H342.362Zm61.333-46.308-.362-2.079h18.467l-9.035-3.91H411.923l-.825-4.741-6.012-2.6,1.119,7.346h-6.549Zm-67.928-2.079h18.348l-.136,11.268,5.532,2.814-.113-14.082H406.8l1.091,7.176,6.492,3-1.413-8.1-13.313-5.99H368.644l-.057-7.1-5.04-2.328-.113,9.431H337.282Zm-37.888,22.162h8.539l-.808,4.56,5.685,3.351,1.238-7.911h41.318l-.011.6h.005l5.759,3.051h.006l-.034-3.65h15.833l-9.041-4.594h-6.826l-.028-3.486-5.532-2.814-.079,6.3H322.522l.1-.661-5.453-3.063-.661,3.724H299.36Zm44.482,26.225h11.172l-.079,6.538,6.413,3.78-.079-10.318h9.7l-9.747-5.47-.136-17.1h-.006l-5.759-3.051h-.005l-.237,20.156H342.362Zm61.333-46.308-.362-2.079h18.467l-9.035-3.91H411.923l-.825-4.741-6.012-2.6,1.119,7.346h-6.549Zm-67.928-2.079h18.348l-.136,11.268,5.532,2.814-.113-14.082H406.8l1.091,7.176,6.492,3-1.413-8.1-13.313-5.99H368.644l-.057-7.1-5.04-2.328-.113,9.431H337.282Zm-37.888,22.162h8.539l-.808,4.56,5.685,3.351,1.238-7.911h41.318l-.011.6h.005l5.759,3.051h.006l-.034-3.65h15.833l-9.041-4.594h-6.826l-.028-3.486-5.532-2.814-.079,6.3H322.522l.1-.661-5.453-3.063-.661,3.724H299.36Zm44.482,26.225h11.172l-.079,6.538,6.413,3.78-.079-10.318h9.7l-9.747-5.47-.136-17.1h-.006l-5.759-3.051h-.005l-.237,20.156H342.362Zm61.333-46.308-.362-2.079h18.467l-9.035-3.91H411.923l-.825-4.741-6.012-2.6,1.119,7.346h-6.549Zm-67.928-2.079h18.348l-.136,11.268,5.532,2.814-.113-14.082H406.8l1.091,7.176,6.492,3-1.413-8.1-13.313-5.99H368.644l-.057-7.1-5.04-2.328-.113,9.431H337.282Zm-37.888,22.162h8.539l-.808,4.56,5.685,3.351,1.238-7.911h41.318l-.011.6h.005l5.759,3.051h.006l-.034-3.65h15.833l-9.041-4.594h-6.826l-.028-3.486-5.532-2.814-.079,6.3H322.522l.1-.661-5.453-3.063-.661,3.724H299.36Zm44.482,26.225h11.172l-.079,6.538,6.413,3.78-.079-10.318h9.7l-9.747-5.47-.136-17.1h-.006l-5.759-3.051h-.005l-.237,20.156H342.362Zm61.333-46.308-.362-2.079h18.467l-9.035-3.91H411.923l-.825-4.741-6.012-2.6,1.119,7.346h-6.549Zm-67.928-2.079h18.348l-.136,11.268,5.532,2.814-.113-14.082H406.8l1.091,7.176,6.492,3-1.413-8.1-13.313-5.99H368.644l-.057-7.1-5.04-2.328-.113,9.431H337.282Zm-37.888,22.162h8.539l-.808,4.56,5.685,3.351,1.238-7.911h41.318l-.011.6h.005l5.759,3.051h.006l-.034-3.65h15.833l-9.041-4.594h-6.826l-.028-3.486-5.532-2.814-.079,6.3H322.522l.1-.661-5.453-3.063-.661,3.724H299.36Zm44.482,26.225h11.172l-.079,6.538,6.413,3.78-.079-10.318h9.7l-9.747-5.47-.136-17.1h-.006l-5.759-3.051h-.005l-.237,20.156H342.362Zm61.333-46.308-.362-2.079h18.467l-9.035-3.91H411.923l-.825-4.741-6.012-2.6,1.119,7.346h-6.549Zm-67.928-2.079h18.348l-.136,11.268,5.532,2.814-.113-14.082H406.8l1.091,7.176,6.492,3-1.413-8.1-13.313-5.99H368.644l-.057-7.1-5.04-2.328-.113,9.431H337.282Zm-37.888,22.162h8.539l-.808,4.56,5.685,3.351,1.238-7.911h41.318l-.011.6h.005l5.759,3.051h.006l-.034-3.65h15.833l-9.041-4.594h-6.826l-.028-3.486-5.532-2.814-.079,6.3H322.522l.1-.661-5.453-3.063-.661,3.724H299.36Zm44.482,26.225h11.172l-.079,6.538,6.413,3.78-.079-10.318h9.7l-9.747-5.47-.136-17.1h-.006l-5.759-3.051h-.005l-.237,20.156H342.362Zm61.333-46.308-.362-2.079h18.467l-9.035-3.91H411.923l-.825-4.741-6.012-2.6,1.119,7.346h-6.549Zm-67.928-2.079h18.348l-.136,11.268,5.532,2.814-.113-14.082H406.8l1.091,7.176,6.492,3-1.413-8.1-13.313-5.99H368.644l-.057-7.1-5.04-2.328-.113,9.431H337.282Zm-32.7,41.047,12.708,7.34h26.587l-9.272-5.47h-23.8l2.006-12.844-5.685-3.351Zm0,0,12.708,7.34h26.587l-9.272-5.47h-23.8l2.006-12.844-5.685-3.351Zm0,0,12.708,7.34h26.587l-9.272-5.47h-23.8l2.006-12.844-5.685-3.351ZM262.924,395.15H470.193L439.487,293.227H293.63l-13.471,44.72-.9,3.006-3.639,12.076L271.767,365.8Zm22.885-57.513h29.881l-.808,4.56-2.543,14.325-.334,1.87H279.961l.69-2.452,3.436-12.194.859-3.04ZM407.888,322.65l1.582,10.392H368.813l-.028-3.486-.113-14.082H406.8Zm5.441,35.741H369.017l-.136-17.1-.034-3.65h41.324Zm-50.456,0H318.561l2.006-12.844,1.238-7.911h41.318l-.011.6Zm-70.815-42.917h27.57l-2.458,13.844-.661,3.724h-29.4ZM323,296.493l-2.673,15.07H293.161l4.249-15.07Zm2.272,18.981h38.12l-.136,11.268-.079,6.3H322.522l.1-.661Zm38.346-18.981-.068,5.639-.113,9.431H325.879l2.35-15.07Zm41.471,7.725,1.119,7.346H368.644l-.057-7.1-.067-7.967H403.91Zm34.006,7.346H411.923l-.825-4.741-1.8-10.33h25.592Zm5.984,21.479H415.669l-1.289-7.391-1.413-8.1-.362-2.079h27.576Zm-24.038,30.819h32.622l6.933,24.886H425.371Zm-.955-5.47-3.617-20.755h29.887l5.781,20.755ZM369.26,388.747l-.2-24.886h45.1l3.786,24.886Zm-55.44,0,1.955-12.533,1.933-12.353h45.1l-.079,6.538-.181,15.11-.04,3.238Zm-7.2,0h-35.21l5.611-19.919,1.4-4.967h32.616l-1.549,8.725-2.413,13.6Zm5.725-32.226,12.708,7.34h26.587l-9.272-5.47h-23.8l2.006-12.844-5.685-3.351Zm0,0,12.708,7.34h26.587l-9.272-5.47h-23.8l2.006-12.844-5.685-3.351Zm56.508-18.885.028,3.65.141,17.1-.136-17.1Zm-5.973,20.755.243-20.156.006-.6-.011.6Zm-50.535-1.87,12.708,7.34h26.587l-9.272-5.47h-23.8l2.006-12.844-5.685-3.351Zm32.7-41.047h18.348l-.136,11.268,5.532,2.814-.113-14.082H406.8l1.091,7.176,6.492,3-1.413-8.1-13.313-5.99H368.644l-.057-7.1-5.04-2.328-.113,9.431H337.282Zm67.928,2.079-.362-2.079h18.467l-9.035-3.91H411.923l-.825-4.741-6.012-2.6,1.119,7.346h-6.549Zm-61.333,46.308h11.172l-.079,6.538,6.413,3.78-.079-10.318h9.7l-9.747-5.47-.136-17.1h-.006l-5.759-3.051h-.005l-.237,20.156H342.362Zm-44.482-26.225h8.539l-.808,4.56,5.685,3.351,1.238-7.911h41.318l-.011.6h.005l5.759,3.051h.006l-.034-3.65h15.833l-9.041-4.594h-6.826l-.028-3.486-5.532-2.814-.079,6.3H322.522l.1-.661-5.453-3.063-.661,3.724H299.36Zm37.888-22.162h18.348l-.136,11.268,5.532,2.814-.113-14.082H406.8l1.091,7.176,6.492,3-1.413-8.1-13.313-5.99H368.644l-.057-7.1-5.04-2.328-.113,9.431H337.282Zm67.928,2.079-.362-2.079h18.467l-9.035-3.91H411.923l-.825-4.741-6.012-2.6,1.119,7.346h-6.549Zm-61.333,46.308h11.172l-.079,6.538,6.413,3.78-.079-10.318h9.7l-9.747-5.47-.136-17.1h-.006l-5.759-3.051h-.005l-.237,20.156H342.362Zm-44.482-26.225h8.539l-.808,4.56,5.685,3.351,1.238-7.911h41.318l-.011.6h.005l5.759,3.051h.006l-.034-3.65h15.833l-9.041-4.594h-6.826l-.028-3.486-5.532-2.814-.079,6.3H322.522l.1-.661-5.453-3.063-.661,3.724H299.36Zm37.888-22.162h18.348l-.136,11.268,5.532,2.814-.113-14.082H406.8l1.091,7.176,6.492,3-1.413-8.1-13.313-5.99H368.644l-.057-7.1-5.04-2.328-.113,9.431H337.282Zm67.928,2.079-.362-2.079h18.467l-9.035-3.91H411.923l-.825-4.741-6.012-2.6,1.119,7.346h-6.549Zm-61.333,46.308h11.172l-.079,6.538,6.413,3.78-.079-10.318h9.7l-9.747-5.47-.136-17.1h-.006l-5.759-3.051h-.005l-.237,20.156H342.362Zm-44.482-26.225h8.539l-.808,4.56,5.685,3.351,1.238-7.911h41.318l-.011.6h.005l5.759,3.051h.006l-.034-3.65h15.833l-9.041-4.594h-6.826l-.028-3.486-5.532-2.814-.079,6.3H322.522l.1-.661-5.453-3.063-.661,3.724H299.36Zm37.888-22.162h18.348l-.136,11.268,5.532,2.814-.113-14.082H406.8l1.091,7.176,6.492,3-1.413-8.1-13.313-5.99H368.644l-.057-7.1-5.04-2.328-.113,9.431H337.282Zm67.928,2.079-.362-2.079h18.467l-9.035-3.91H411.923l-.825-4.741-6.012-2.6,1.119,7.346h-6.549Zm-61.333,46.308h11.172l-.079,6.538,6.413,3.78-.079-10.318h9.7l-9.747-5.47-.136-17.1h-.006l-5.759-3.051h-.005l-.237,20.156H342.362Zm-44.482-26.225h8.539l-.808,4.56,5.685,3.351,1.238-7.911h41.318l-.011.6h.005l5.759,3.051h.006l-.034-3.65h15.833l-9.041-4.594h-6.826l-.028-3.486-5.532-2.814-.079,6.3H322.522l.1-.661-5.453-3.063-.661,3.724H299.36Zm37.888-22.162h18.348l-.136,11.268,5.532,2.814-.113-14.082H406.8l1.091,7.176,6.492,3-1.413-8.1-13.313-5.99H368.644l-.057-7.1-5.04-2.328-.113,9.431H337.282Zm67.928,2.079-.362-2.079h18.467l-9.035-3.91H411.923l-.825-4.741-6.012-2.6,1.119,7.346h-6.549Zm-61.333,46.308h11.172l-.079,6.538,6.413,3.78-.079-10.318h9.7l-9.747-5.47-.136-17.1h-.006l-5.759-3.051h-.005l-.237,20.156H342.362Zm-44.482-26.225h8.539l-.808,4.56,5.685,3.351,1.238-7.911h41.318l-.011.6h.005l5.759,3.051h.006l-.034-3.65h15.833l-9.041-4.594h-6.826l-.028-3.486-5.532-2.814-.079,6.3H322.522l.1-.661-5.453-3.063-.661,3.724H299.36Zm37.888-22.162h18.348l-.136,11.268,5.532,2.814-.113-14.082H406.8l1.091,7.176,6.492,3-1.413-8.1-13.313-5.99H368.644l-.057-7.1-5.04-2.328-.113,9.431H337.282Zm67.928,2.079-.362-2.079h18.467l-9.035-3.91H411.923l-.825-4.741-6.012-2.6,1.119,7.346h-6.549Zm-61.333,46.308h11.172l-.079,6.538,6.413,3.78-.079-10.318h9.7l-9.747-5.47-.136-17.1h-.006l-5.759-3.051h-.005l-.237,20.156H342.362Zm-44.482-26.225h8.539l-.808,4.56,5.685,3.351,1.238-7.911h41.318l-.011.6h.005l5.759,3.051h.006l-.034-3.65h15.833l-9.041-4.594h-6.826l-.028-3.486-5.532-2.814-.079,6.3H322.522l.1-.661-5.453-3.063-.661,3.724H299.36Zm37.888-22.162h18.348l-.136,11.268,5.532,2.814-.113-14.082H406.8l1.091,7.176,6.492,3-1.413-8.1-13.313-5.99H368.644l-.057-7.1-5.04-2.328-.113,9.431H337.282Zm67.928,2.079-.362-2.079h18.467l-9.035-3.91H411.923l-.825-4.741-6.012-2.6,1.119,7.346h-6.549Zm-61.333,46.308h11.172l-.079,6.538,6.413,3.78-.079-10.318h9.7l-9.747-5.47-.136-17.1h-.006l-5.759-3.051h-.005l-.237,20.156H342.362Zm-44.482-26.225h8.539l-.808,4.56,5.685,3.351,1.238-7.911h41.318l-.011.6h.005l5.759,3.051h.006l-.034-3.65h15.833l-9.041-4.594h-6.826l-.028-3.486-5.532-2.814-.079,6.3H322.522l.1-.661-5.453-3.063-.661,3.724H299.36Zm37.888-22.162h18.348l-.136,11.268,5.532,2.814-.113-14.082H406.8l1.091,7.176,6.492,3-1.413-8.1-13.313-5.99H368.644l-.057-7.1-5.04-2.328-.113,9.431H337.282Zm67.928,2.079-.362-2.079h18.467l-9.035-3.91H411.923l-.825-4.741-6.012-2.6,1.119,7.346h-6.549Zm-61.333,46.308h11.172l-.079,6.538,6.413,3.78-.079-10.318h9.7l-9.747-5.47-.136-17.1h-.006l-5.759-3.051h-.005l-.237,20.156H342.362Zm-44.482-26.225h8.539l-.808,4.56,5.685,3.351,1.238-7.911h41.318l-.011.6h.005l5.759,3.051h.006l-.034-3.65h15.833l-9.041-4.594h-6.826l-.028-3.486-5.532-2.814-.079,6.3H322.522l.1-.661-5.453-3.063-.661,3.724H299.36Zm37.888-22.162h18.348l-.136,11.268,5.532,2.814-.113-14.082H406.8l1.091,7.176,6.492,3-1.413-8.1-13.313-5.99H368.644l-.057-7.1-5.04-2.328-.113,9.431H337.282Zm67.928,2.079-.362-2.079h18.467l-9.035-3.91H411.923l-.825-4.741-6.012-2.6,1.119,7.346h-6.549Zm-61.333,46.308h11.172l-.079,6.538,6.413,3.78-.079-10.318h9.7l-9.747-5.47-.136-17.1h-.006l-5.759-3.051h-.005l-.237,20.156H342.362Zm-44.482-26.225h8.539l-.808,4.56,5.685,3.351,1.238-7.911h41.318l-.011.6h.005l5.759,3.051h.006l-.034-3.65h15.833l-9.041-4.594h-6.826l-.028-3.486-5.532-2.814-.079,6.3H322.522l.1-.661-5.453-3.063-.661,3.724H299.36Zm37.888-22.162h18.348l-.136,11.268,5.532,2.814-.113-14.082H406.8l1.091,7.176,6.492,3-1.413-8.1-13.313-5.99H368.644l-.057-7.1-5.04-2.328-.113,9.431H337.282Zm67.928,2.079-.362-2.079h18.467l-9.035-3.91H411.923l-.825-4.741-6.012-2.6,1.119,7.346h-6.549Zm-61.333,46.308h11.172l-.079,6.538,6.413,3.78-.079-10.318h9.7l-9.747-5.47-.136-17.1h-.006l-5.759-3.051h-.005l-.237,20.156H342.362Zm-44.482-26.225h8.539l-.808,4.56,5.685,3.351,1.238-7.911h41.318l-.011.6h.005l5.759,3.051h.006l-.034-3.65h15.833l-9.041-4.594h-6.826l-.028-3.486-5.532-2.814-.079,6.3H322.522l.1-.661-5.453-3.063-.661,3.724H299.36Zm37.888-22.162h18.348l-.136,11.268,5.532,2.814-.113-14.082H406.8l1.091,7.176,6.492,3-1.413-8.1-13.313-5.99H368.644l-.057-7.1-5.04-2.328-.113,9.431H337.282Zm67.928,2.079-.362-2.079h18.467l-9.035-3.91H411.923l-.825-4.741-6.012-2.6,1.119,7.346h-6.549Zm-61.333,46.308h11.172l-.079,6.538,6.413,3.78-.079-10.318h9.7l-9.747-5.47-.136-17.1h-.006l-5.759-3.051h-.005l-.237,20.156H342.362Zm-44.482-26.225h8.539l-.808,4.56,5.685,3.351,1.238-7.911h41.318l-.011.6h.005l5.759,3.051h.006l-.034-3.65h15.833l-9.041-4.594h-6.826l-.028-3.486-5.532-2.814-.079,6.3H322.522l.1-.661-5.453-3.063-.661,3.724H299.36Zm37.888-22.162h18.348l-.136,11.268,5.532,2.814-.113-14.082H406.8l1.091,7.176,6.492,3-1.413-8.1-13.313-5.99H368.644l-.057-7.1-5.04-2.328-.113,9.431H337.282Zm67.928,2.079-.362-2.079h18.467l-9.035-3.91H411.923l-.825-4.741-6.012-2.6,1.119,7.346h-6.549Zm-61.333,46.308h11.172l-.079,6.538,6.413,3.78-.079-10.318h9.7l-9.747-5.47-.136-17.1h-.006l-5.759-3.051h-.005l-.237,20.156H342.362Zm-44.482-26.225h8.539l-.808,4.56,5.685,3.351,1.238-7.911h41.318l-.011.6h.005l5.759,3.051h.006l-.034-3.65h15.833l-9.041-4.594h-6.826l-.028-3.486-5.532-2.814-.079,6.3H322.522l.1-.661-5.453-3.063-.661,3.724H299.36Zm37.888-22.162h18.348l-.136,11.268,5.532,2.814-.113-14.082H406.8l1.091,7.176,6.492,3-1.413-8.1-13.313-5.99H368.644l-.057-7.1-5.04-2.328-.113,9.431H337.282Zm67.928,2.079-.362-2.079h18.467l-9.035-3.91H411.923l-.825-4.741-6.012-2.6,1.119,7.346h-6.549Zm-61.333,46.308h11.172l-.079,6.538,6.413,3.78-.079-10.318h9.7l-9.747-5.47-.136-17.1h-.006l-5.759-3.051h-.005l-.237,20.156H342.362Zm-44.482-26.225h8.539l-.808,4.56,5.685,3.351,1.238-7.911h41.318l-.011.6h.005l5.759,3.051h.006l-.034-3.65h15.833l-9.041-4.594h-6.826l-.028-3.486-5.532-2.814-.079,6.3H322.522l.1-.661-5.453-3.063-.661,3.724H299.36Z" transform="translate(-256.36 -290.719)" fill="#fff"/>
    </g>
    <g id="Grupo_933440" data-name="Grupo 933440" transform="translate(170.142 241.296)">
      <g id="Grupo_933433" data-name="Grupo 933433" transform="translate(0 0)">
        <path id="Trazado_670931" data-name="Trazado 670931" d="M507.167,806.934a7.227,7.227,0,0,0,1.794,2.421l61.165-.4a5.23,5.23,0,0,0,.385-.748,5.337,5.337,0,0,0,.025-4.071,5.419,5.419,0,0,0-.985-1.591,5.71,5.71,0,0,0-1.186-1.027,7.376,7.376,0,0,0-2.415-1,8.7,8.7,0,0,0-1.339-.2,9.954,9.954,0,0,0-4.732.768,6.71,6.71,0,0,0-2.465,1.775,3.658,3.658,0,0,0-.606-5.372,6.383,6.383,0,0,0-6.724-.264c1.515-3.74,1.694-8.071-.962-11.339s-8.736-4.814-12.7-2.489a7.751,7.751,0,0,0-3.708,5.745,18.183,18.183,0,0,0,.576,6.238c-.657-2.4-4.354-3.98-7.211-2.97-2.915,1.029-3.99,4.42-2.112,6.428a7.575,7.575,0,0,0-1.487-1.115,8.228,8.228,0,0,0-2.478-.945,7.525,7.525,0,0,0-1.587-.148,6.668,6.668,0,0,0-1.446.192c-2.576.648-4.174,3.422-2.62,5.153a.572.572,0,0,0,.052.06c-.016-.019-.036-.038-.055-.057l0,0a3.829,3.829,0,0,0-2.431-1.019.129.129,0,0,1-.03,0,5.216,5.216,0,0,0-3.467.924A4.2,4.2,0,0,0,507.167,806.934Z" transform="translate(-506.799 -782.282)" fill="#5a8233"/>
      </g>
      <g id="Grupo_933434" data-name="Grupo 933434" transform="translate(43.066 18.836)">
        <path id="Trazado_670932" data-name="Trazado 670932" d="M677.009,858.752c-.546,1.493-.2,2.993.775,3.348s2.205-.567,2.751-2.06.2-2.993-.775-3.348S677.554,857.258,677.009,858.752Z" transform="translate(-676.75 -856.615)" fill="#71964d"/>
      </g>
      <g id="Grupo_933435" data-name="Grupo 933435" transform="translate(37.185 10.295)">
        <path id="Trazado_670933" data-name="Trazado 670933" d="M653.8,825.047c-.546,1.494-.2,2.993.775,3.349s2.205-.567,2.751-2.061.2-2.993-.775-3.348S654.348,823.553,653.8,825.047Z" transform="translate(-653.544 -822.91)" fill="#71964d"/>
      </g>
      <g id="Grupo_933436" data-name="Grupo 933436" transform="translate(31.757 3.208)">
        <path id="Trazado_670934" data-name="Trazado 670934" d="M632.177,797.51c-.247,1.571.384,2.975,1.408,3.135s2.054-.983,2.3-2.554-.384-2.975-1.408-3.135S632.423,795.939,632.177,797.51Z" transform="translate(-632.123 -794.942)" fill="#71964d"/>
      </g>
      <g id="Grupo_933437" data-name="Grupo 933437" transform="translate(19.755 13.411)">
        <path id="Trazado_670935" data-name="Trazado 670935" d="M585.225,838.77c.734,1.411,2.074,2.167,2.994,1.688s1.071-2.009.337-3.42-2.074-2.167-2.994-1.689S584.492,837.359,585.225,838.77Z" transform="translate(-584.76 -835.206)" fill="#71964d"/>
      </g>
      <g id="Grupo_933438" data-name="Grupo 933438" transform="translate(11.184 17.431)">
        <path id="Trazado_670936" data-name="Trazado 670936" d="M551.4,854.634c.734,1.411,2.074,2.167,2.994,1.689s1.071-2.01.337-3.421-2.074-2.167-2.994-1.688S550.664,853.224,551.4,854.634Z" transform="translate(-550.933 -851.07)" fill="#71964d"/>
      </g>
      <g id="Grupo_933439" data-name="Grupo 933439" transform="translate(3.066 21.652)">
        <path id="Trazado_670937" data-name="Trazado 670937" d="M519.363,871.292c.734,1.411,2.074,2.167,2.994,1.689s1.071-2.01.337-3.42-2.074-2.167-2.994-1.689S518.629,869.881,519.363,871.292Z" transform="translate(-518.898 -867.728)" fill="#71964d"/>
      </g>
    </g>
    <g id="Grupo_933446" data-name="Grupo 933446" transform="translate(217.251 233.187)">
      <g id="Grupo_933441" data-name="Grupo 933441" transform="translate(0 0)">
        <path id="Trazado_670938" data-name="Trazado 670938" d="M692.705,771.722c-.044,4.2,4.338,9.058,7.419,12.631h26.062c4.181-4.068,7.6-9.419,7.932-15.187-2.547-7.363-10.392,4.438-11.631,7.65,2.417-6.937,10.719-23.68,1.539-24.78-2.682-.322-4.725,1.939-5.585,3.195a30.347,30.347,0,0,0-5.16,12.861c.083-6.246-.63-12.114-5.146-16.456a4.166,4.166,0,0,0-6.477.4c-3.725,5.494-1.752,12.418.717,18.851,1,2.612,2.091,5.138,2.912,7.459-1.13-2.043-2.878-5.524-5.042-7.793-2.052-2.156-4.486-3.217-7.115-.891A5.3,5.3,0,0,0,692.705,771.722Z" transform="translate(-692.705 -750.281)" fill="#f5b545"/>
      </g>
      <g id="Grupo_933442" data-name="Grupo 933442" transform="translate(22.789 6.614)">
        <path id="Trazado_670939" data-name="Trazado 670939" d="M782.639,803.841h1.434a105.64,105.64,0,0,1,6.168-26.592c.326-.865-1.061-1.234-1.378-.383A106.783,106.783,0,0,0,782.639,803.841Z" transform="translate(-782.639 -776.384)" fill="#e0892d"/>
      </g>
      <g id="Grupo_933443" data-name="Grupo 933443" transform="translate(28.609 21.059)">
        <path id="Trazado_670940" data-name="Trazado 670940" d="M805.606,846.4h1.574a46.012,46.012,0,0,1,7.828-11.779c.617-.678-.391-1.686-1.013-1.008A47.96,47.96,0,0,0,805.606,846.4Z" transform="translate(-805.606 -833.388)" fill="#e0892d"/>
      </g>
      <g id="Grupo_933444" data-name="Grupo 933444" transform="translate(11.78 5.706)">
        <path id="Trazado_670941" data-name="Trazado 670941" d="M742.8,790.956a66.2,66.2,0,0,1-.03,10.21h1.417c.031-.4.061-.791.083-1.187q.2-3.24.083-6.481a68.552,68.552,0,0,0-3.729-20.207c-.3-.865-1.682-.491-1.382.383A67.343,67.343,0,0,1,742.8,790.956Z" transform="translate(-739.194 -772.801)" fill="#e0892d"/>
      </g>
      <g id="Grupo_933445" data-name="Grupo 933445" transform="translate(4.021 22.676)">
        <path id="Trazado_670942" data-name="Trazado 670942" d="M708.682,840.827a37.067,37.067,0,0,1,4.3,10.336h1.469a38.417,38.417,0,0,0-4.534-11.058C709.439,839.323,708.2,840.041,708.682,840.827Z" transform="translate(-708.574 -839.768)" fill="#e0892d"/>
      </g>
    </g>
    <g id="Grupo_933481" data-name="Grupo 933481" transform="translate(93.615 123.319)">
      <g id="Grupo_933447" data-name="Grupo 933447" transform="translate(0 127.182)">
        <path id="Trazado_670943" data-name="Trazado 670943" d="M215.033,821.847c3.516,5.59,8.29,9.364,5.3,14.073l-15.534-10.745c1.231-2.024,3.051-5.32,5.249-6.567Z" transform="translate(-204.794 -818.608)" fill="#30334d"/>
      </g>
      <g id="Grupo_933448" data-name="Grupo 933448" transform="translate(5.249 122.031)">
        <path id="Trazado_670944" data-name="Trazado 670944" d="M227.714,798.281l-2.207,5.151,4.99,3.239,4.4-7.307Z" transform="translate(-225.507 -798.281)" fill="#f0baa8"/>
      </g>
      <g id="Grupo_933450" data-name="Grupo 933450" transform="translate(51.889 27.281)">
        <g id="Grupo_933449" data-name="Grupo 933449">
          <path id="Trazado_670945" data-name="Trazado 670945" d="M441.153,450.55s-12.807,1.463-17.934.858c-2.321-.274-4.832-1.813-7.061-3.706-3.77-3.2-6.732-7.409-6.587-8.179l.9-15.161c2.108,2.1,12.767,19.272,13.637,20.532,2.453-.151,13.27,4.041,13.624,3.546,0,0,.96-2.63,2.2-3.451,1.1-.726.7,1.057,1.157.775.5-.311,4.782-3.374,5.518-1.505C448.24,448.422,441.153,450.55,441.153,450.55Z" transform="translate(-409.566 -424.363)" fill="#f9c8b8"/>
        </g>
      </g>
      <g id="Grupo_933452" data-name="Grupo 933452" transform="translate(49.904 26.119)">
        <g id="Grupo_933451" data-name="Grupo 933451">
          <path id="Trazado_670946" data-name="Trazado 670946" d="M417.121,435.439c-1.72,3.367-5.626,7.293-6.707,9.4-3.77-3.2-8.823-5.776-8.678-6.546l2.089-18.516C405.932,421.882,413.256,430.436,417.121,435.439Z" transform="translate(-401.733 -419.778)" fill="#fff"/>
        </g>
      </g>
      <g id="Grupo_933454" data-name="Grupo 933454" transform="translate(24.069 58.188)">
        <g id="Grupo_933453" data-name="Grupo 933453">
          <path id="Trazado_670947" data-name="Trazado 670947" d="M317.418,588.952a67.19,67.19,0,0,0-.131,10.356c.608,7.833,2.638,19.716,5.428,26.933l3.868-1.116s1.822-21.238,2.537-32.058c.191-2.747.281-5.186.227-7-.279-10.378-11.455-37.855-12.175-39.635l-.029-.068-.01-.025-16.26.722C296.164,568.652,307.548,571.582,317.418,588.952Z" transform="translate(-299.777 -546.334)" fill="#f0baa8"/>
        </g>
      </g>
      <g id="Grupo_933456" data-name="Grupo 933456" transform="translate(24.034 58.188)">
        <g id="Grupo_933455" data-name="Grupo 933455">
          <path id="Trazado_670948" data-name="Trazado 670948" d="M306.332,574.132c3.089,4.187,6.875,8.664,10.522,15.08-.789,2.844-.208,21.906,3.182,31.637a18.051,18.051,0,0,0,8.474-1.048c.19-2.747.789-31.921.734-33.739-.279-10.378-11.455-37.855-12.175-39.635l-.029-.068-.01-.025-16.26.722C297.8,560.68,301.049,566.975,306.332,574.132Z" transform="translate(-299.64 -546.334)" fill="#215b85"/>
        </g>
      </g>
      <g id="Grupo_933458" data-name="Grupo 933458" transform="translate(5.249 57.923)">
        <g id="Grupo_933457" data-name="Grupo 933457">
          <path id="Trazado_670949" data-name="Trazado 670949" d="M225.507,610.959c.908,1.476,4.356,4.98,7.5,4.107,1.385-1.792,16.589-18.162,18.166-20.434,6.56-9.451,7.572-49.343,7.572-49.343l-13.635.156-.563.009c-10.011,9.2-5.406,26.923-5.53,39.446C238.962,590.01,225.507,610.959,225.507,610.959Z" transform="translate(-225.507 -545.289)" fill="#296d9e"/>
        </g>
      </g>
      <g id="Grupo_933460" data-name="Grupo 933460" transform="translate(22.976 22.261)">
        <g id="Grupo_933459" data-name="Grupo 933459">
          <path id="Trazado_670950" data-name="Trazado 670950" d="M295.536,441.416a2.679,2.679,0,0,0,.371,2.094,2.6,2.6,0,0,0,.867.819c3.264,1.891,16.1,5.137,19.117,5.766,1.179.244,6.01-11.487,9.289-19.211,2.078-4.885,6.076-18.178-2.348-23.819l-5.377-2.19c-6.674-.831-10.957-.432-14.268,5.665C299.962,416.483,296.728,436.3,295.536,441.416Z" transform="translate(-295.465 -404.551)" fill="#fff"/>
        </g>
      </g>
      <g id="Grupo_933461" data-name="Grupo 933461" transform="translate(45.341 136.491)">
        <path id="Trazado_670951" data-name="Trazado 670951" d="M389.673,855.345c6.2,2.278,13.036,1.935,13.543,7.492l-19.406-.4a13.92,13.92,0,0,1,1.074-7.027Z" transform="translate(-383.727 -855.345)" fill="#30334d"/>
      </g>
      <g id="Grupo_933462" data-name="Grupo 933462" transform="translate(42.403 3.458)">
        <path id="Trazado_670952" data-name="Trazado 670952" d="M380.724,346.728c-2.445-.191-3.756.548-6.042-1.815-3.478-3.6-4.146-12.35,2.8-13.435a2.622,2.622,0,0,1,3.032-1.037c1.61.266,2.875,1.515,4.933,2.291s4.293-.731,4.9,2.949-3.241,4.788-6.036,5.373S381.226,344.448,380.724,346.728Z" transform="translate(-372.132 -330.348)" fill="#30334d"/>
      </g>
      <g id="Grupo_933464" data-name="Grupo 933464" transform="translate(44.885 17.407)">
        <g id="Grupo_933463" data-name="Grupo 933463">
          <path id="Trazado_670953" data-name="Trazado 670953" d="M381.926,390.557c1.184,2.742,2.887,3.853,5.459,2.206l1.036-3.973.438-1.672-4.345-1.724-.476.955Z" transform="translate(-381.926 -385.395)" fill="#f9c8b8"/>
        </g>
      </g>
      <g id="Grupo_933466" data-name="Grupo 933466" transform="translate(46.656 15.563)">
        <g id="Grupo_933465" data-name="Grupo 933465">
          <path id="Trazado_670954" data-name="Trazado 670954" d="M388.913,381.6c.561,1.718,3.371,3.266,4.393,3.03l.769-2.942-3.642-3.567Z" transform="translate(-388.913 -378.119)" fill="#f0b4b4"/>
        </g>
      </g>
      <g id="Grupo_933468" data-name="Grupo 933468" transform="translate(46.706 9.221)">
        <g id="Grupo_933467" data-name="Grupo 933467">
          <path id="Trazado_670955" data-name="Trazado 670955" d="M401.469,355.119c-.117,3.187-1.6,9.749-4.878,11.105-2.078.859-7.3-1.864-6.827-6.3-.936-1.473-.98-4.174.648-4.746,1.161-.407,1.477,2.011,3.112,2.281.62.1.38-4.409,2.424-4.363S399.31,355.318,401.469,355.119Z" transform="translate(-389.113 -353.091)" fill="#f9c8b8"/>
        </g>
      </g>
      <g id="Grupo_933474" data-name="Grupo 933474" transform="translate(41.501)">
        <g id="Grupo_933473" data-name="Grupo 933473">
          <g id="Grupo_933469" data-name="Grupo 933469" transform="translate(0 6.402)">
            <path id="Trazado_670956" data-name="Trazado 670956" d="M389.46,345.292c-.08,1.5-4.82,2.467-10.588,2.161s-10.379-1.768-10.3-3.268,4.819-2.467,10.587-2.161S389.539,343.793,389.46,345.292Z" transform="translate(-368.572 -341.968)" fill="#ffbc47"/>
          </g>
          <g id="Grupo_933470" data-name="Grupo 933470" transform="translate(1.48)">
            <path id="Trazado_670957" data-name="Trazado 670957" d="M392.422,325.571a.9.9,0,0,1-.682.824,31.485,31.485,0,0,1-4.7.74,28.014,28.014,0,0,1-6.584-.231,29.308,29.308,0,0,1-5.467-1.4.9.9,0,0,1-.582-.894,8.381,8.381,0,0,1,6.576-7.726,8.678,8.678,0,0,1,2.207-.174l1.327.073a8.064,8.064,0,0,1,3.029.75,7.568,7.568,0,0,1,1.011.554,8.342,8.342,0,0,1,3.86,7.479Z" transform="translate(-374.411 -316.703)" fill="#ffbc47"/>
          </g>
          <g id="Grupo_933471" data-name="Grupo 933471" transform="translate(1.48 0.658)">
            <path id="Trazado_670958" data-name="Trazado 670958" d="M377.171,320.788a8.334,8.334,0,0,1,2.371-1.487,8.459,8.459,0,0,0-.695.551,8.37,8.37,0,0,0-2.759,5.766.9.9,0,0,0,.582.894,29.288,29.288,0,0,0,5.467,1.4,28,28,0,0,0,6.584.231,30.879,30.879,0,0,0,3.677-.521.9.9,0,0,1-.659.718,31.477,31.477,0,0,1-4.7.74,28.017,28.017,0,0,1-6.584-.231,29.308,29.308,0,0,1-5.467-1.4.9.9,0,0,1-.582-.894A8.368,8.368,0,0,1,377.171,320.788Z" transform="translate(-374.411 -319.301)" fill="#d68b07"/>
          </g>
          <g id="Grupo_933472" data-name="Grupo 933472" transform="translate(14.608 1.39)">
            <path id="Trazado_670959" data-name="Trazado 670959" d="M430.89,327.313a3.035,3.035,0,0,1-.989.342,3.175,3.175,0,0,1-2.659-5.468A8.311,8.311,0,0,1,430.89,327.313Z" transform="translate(-426.219 -322.187)" fill="#ffcf7a"/>
          </g>
        </g>
      </g>
      <g id="Grupo_933475" data-name="Grupo 933475" transform="translate(21.602 22.188)">
        <path id="Trazado_670960" data-name="Trazado 670960" d="M308.647,404.342s4.194,4.6,1.62,15.985c-1.628,7.2-15.909,6.991-15.909,6.991l-4.313,17.156c8.259,3.914,16.569,6.266,23.775,5.79,0,0,6.116-12.947,8.243-20.631,2.645-9.555,1.822-17.347.62-19.007l-1.665-1.836s.418,8.965-.36,9.943c-1.839,2.313-7.546,1.322-6.909-1.967s-.34-11.5-2.411-12.325A7.712,7.712,0,0,0,308.647,404.342Z" transform="translate(-290.044 -404.264)" fill="#296d9e"/>
      </g>
      <path id="Trazado_670961" data-name="Trazado 670961" d="M454.022,503.884H418.841l-5.348,20.377H459.37Z" transform="translate(-360.609 -456.452)" fill="#fcf2e8"/>
      <path id="Trazado_670962" data-name="Trazado 670962" d="M420.457,526.911l4.633-17.654h33.081l4.633,17.654Z" transform="translate(-365.808 -460.464)" fill="#187e9e"/>
      <g id="Grupo_933480" data-name="Grupo 933480" transform="translate(30.91 27.281)">
        <g id="Grupo_933477" data-name="Grupo 933477" transform="translate(1.245 0.052)">
          <g id="Grupo_933476" data-name="Grupo 933476">
            <path id="Trazado_670963" data-name="Trazado 670963" d="M331.7,434.724s-.323,7.056,2.07,12.376a14.676,14.676,0,0,0,1.876,3.194c4.676,5.664,20.18,12.872,20.18,12.872,1.257,6.455,6.774,5.443,8.455,3.939,3.84-3.436-4.2-3.865-3.886-6,0,0,1.488-.819,1.535-1.82.05-1.074-3.308.011-3.308.011-5.691-5.389-10.939-9.36-15.459-14.148-.088-.868-.176-1.735-.284-2.6-.8-6.237-2.347-12.381-6.027-17.973C332.474,426.423,332.4,430.725,331.7,434.724Z" transform="translate(-331.688 -424.569)" fill="#f9c8b8"/>
          </g>
        </g>
        <g id="Grupo_933479" data-name="Grupo 933479">
          <g id="Grupo_933478" data-name="Grupo 933478">
            <path id="Trazado_670964" data-name="Trazado 670964" d="M328.356,446.306c4.23.81,8.067-.376,11.59-3.152-.8-6.237-.564-18.8-7.12-18.791C325.469,424.368,325.964,440.986,328.356,446.306Z" transform="translate(-326.776 -424.363)" fill="#fff"/>
          </g>
        </g>
      </g>
    </g>
    <g id="Grupo_933516" data-name="Grupo 933516" transform="translate(265.48 165.999)">
      <g id="Grupo_933488" data-name="Grupo 933488" transform="translate(3.076 23.269)">
        <g id="Grupo_933484" data-name="Grupo 933484" transform="translate(0 3.32)">
          <g id="Grupo_933483" data-name="Grupo 933483">
            <g id="Grupo_933482" data-name="Grupo 933482">
              <path id="Trazado_670965" data-name="Trazado 670965" d="M927.907,598.527s-9.032,5.846-10.063,6.018c-5.243.876-17.965-4.154-17.965-4.154-4.01,2.013-4.871-.414-4.681-2.079.306-2.683,1.166-1.717,2.493-1.354,0,0-1.736-2.019-.47-2.511.767-.3,2.8,2.841,2.8,2.841a117.361,117.361,0,0,0,15.228.014c.5-.414,1.236-1.034,1.744-1.437a27.846,27.846,0,0,1,12.058-5.806C930.408,593.323,929.621,596.046,927.907,598.527Z" transform="translate(-895.173 -590.059)" fill="#f9c8b8"/>
            </g>
          </g>
        </g>
        <g id="Grupo_933487" data-name="Grupo 933487" transform="translate(20.213)">
          <g id="Grupo_933486" data-name="Grupo 933486">
            <g id="Grupo_933485" data-name="Grupo 933485">
              <path id="Trazado_670966" data-name="Trazado 670966" d="M978.9,595.187l-3.963-8.345c2.754-3.309,11.193-12.15,13.782-9.342C992.824,581.949,982.942,593.615,978.9,595.187Z" transform="translate(-974.941 -576.958)" fill="#fff"/>
            </g>
          </g>
        </g>
      </g>
      <g id="Grupo_933489" data-name="Grupo 933489" transform="translate(2.665 55.493)">
        <path id="Trazado_670967" data-name="Trazado 670967" d="M908.492,748.43l-1.028-4.779c.234-1.015.5-6.107.692-7.011,1.594-7.5,1.679-11.53.729-18.109,0,0,32.463,5.694,30.3-14.406H925.608s-22.755.02-26.171,6.722c-3.24,6.357,2.382,13.072,4.386,26.021.137.833.217,5.777.314,6.662l-10.586,4.9Z" transform="translate(-893.551 -704.125)" fill="#f0baa8"/>
      </g>
      <g id="Grupo_933490" data-name="Grupo 933490" transform="translate(7.512 55.493)">
        <path id="Trazado_670968" data-name="Trazado 670968" d="M917.679,741.339l5.208.275c1.594-7.5,1.229-16.5.279-23.083a60.338,60.338,0,0,0,14.3.527c8.394-.807,17.159-4.171,16-14.933H939.888s-22.755.02-26.171,6.722C910.477,717.2,915.674,728.384,917.679,741.339Z" transform="translate(-912.679 -704.125)" fill="#296d9e"/>
      </g>
      <g id="Grupo_933491" data-name="Grupo 933491" transform="translate(14.659 61.937)" style="mix-blend-mode: multiply;isolation: isolate">
        <path id="Trazado_670969" data-name="Trazado 670969" d="M962.943,729.579l-4.425,8.466a60.436,60.436,0,0,1-14.3-.524c.024.158.045.315.068.476.9,6.53,1.21,15.281-.346,22.606l-2.6-.137c2.482-5.6,2.094-16.425-.422-24.412a1,1,0,0,1,1.069-1.255C954.706,736.407,954.665,729.109,962.943,729.579Z" transform="translate(-940.882 -729.557)" fill="#e0d7c5"/>
      </g>
      <g id="Grupo_933492" data-name="Grupo 933492" transform="translate(28.941 56.283)">
        <path id="Trazado_670970" data-name="Trazado 670970" d="M999.875,750.8c4.184,3.787,19.391-8.693,28.045-10.86a9.934,9.934,0,0,1,2.056-.312l.488-4.984c-.872.007-1.718.013-2.544.026-9.708.162-16.345,1.1-21.206,5,.95-.885,19.267-18.167,11.159-32.431h-12.786S991.735,743.456,999.875,750.8Z" transform="translate(-997.245 -707.245)" fill="#f0baa8"/>
      </g>
      <g id="Grupo_933493" data-name="Grupo 933493" transform="translate(28.018 55.834)">
        <path id="Trazado_670971" data-name="Trazado 670971" d="M997.157,749.48c6.991,2.715,19.391-8.121,28.045-10.287V733.35c-9.676.162-15.727.651-20.582,4.516,1.328-1.25,17.862-17.2,10.984-31.1-.137-.287-.286-.566-.449-.846l-13.137-.449S986.936,745.51,997.157,749.48Z" transform="translate(-993.604 -705.474)" fill="#296d9e"/>
      </g>
      <g id="Grupo_933494" data-name="Grupo 933494" transform="translate(36.956 15.309)">
        <path id="Trazado_670972" data-name="Trazado 670972" d="M1029.765,547.3l.4,4.016c-4.623,4.307,4.652,4.566,4.6-.326l-1.326-3.326-.69-2.114Z" transform="translate(-1028.875 -545.548)" fill="#f0baa8"/>
      </g>
      <g id="Grupo_933495" data-name="Grupo 933495" transform="translate(2.096 94.545)">
        <path id="Trazado_670973" data-name="Trazado 670973" d="M905.841,858.319c1.173,1.11,1.6,3.254,1.422,5.928H891.3c.433-4.382,7.692-4.443,11.186-6.006A2.942,2.942,0,0,0,905.841,858.319Z" transform="translate(-891.304 -858.241)" fill="#1d3970"/>
      </g>
      <g id="Grupo_933496" data-name="Grupo 933496" transform="translate(61.141 82.602)">
        <path id="Trazado_670974" data-name="Trazado 670974" d="M1124.319,812.189c1.576-1.094,3.473-1.191,6.146-1.009v15.959c-4.382-.433-4.274-6.461-5.837-9.954C1125.256,816.177,1125.08,813.449,1124.319,812.189Z" transform="translate(-1124.319 -811.107)" fill="#1d3970"/>
      </g>
      <g id="Grupo_933497" data-name="Grupo 933497" transform="translate(30.84 20.75)">
        <path id="Trazado_670975" data-name="Trazado 670975" d="M1025.128,576.908c0-7.692-3.651-6.966-8.381-9.889v.007h0c-1.719,4.2-6.962,4.136-4.6.319-3.964,1.337-8.857,7.83-6.881,13.7,2.982,8.853-.154,14.732-.3,20.082-.026.966-.662,1.588.332,1.628,13.81,1.253,18.417,2.58,19.278-.692C1025.228,599.568,1025.128,586.887,1025.128,576.908Z" transform="translate(-1004.739 -567.019)" fill="#fff"/>
      </g>
      <g id="Grupo_933498" data-name="Grupo 933498" transform="translate(29.189 21.077)">
        <path id="Trazado_670976" data-name="Trazado 670976" d="M1020.263,615.3l-22.04-11.273s4.1-11.366,1.875-20.264a16.661,16.661,0,0,1-.021-6.129c.068-.381.154-.771.257-1.165.014-.055.031-.11.045-.165.007-.017.01-.038.017-.055,1.134-3.8,4.219-7.037,6.886-7.935a4.436,4.436,0,0,0-.511,1.1,13.022,13.022,0,0,0-4.254,8.706c-.4,5.889,5.652,3.273,6.557-1.145.826-4.028,3.071-6.828,5.906-7.383a23.216,23.216,0,0,1,2.088,1.039c-1.9.182-6.389,1.734-6.927,12.209,0,0-.319,9.817,10.084,10.783a.052.052,0,0,0,0,.014v.007C1020.321,594.232,1022.515,608.55,1020.263,615.3Z" transform="translate(-998.223 -568.309)" fill="#296d9e"/>
      </g>
      <g id="Grupo_933499" data-name="Grupo 933499" transform="translate(30.783 39.494)" style="mix-blend-mode: multiply;isolation: isolate">
        <path id="Trazado_670977" data-name="Trazado 670977" d="M1033.346,685.206v2.543c-8.562-.192-16.4,2.17-23.867,5.844a.608.608,0,0,1-.86-.7c1.508-5.508,9.5-14.671,12.161-20.844a27.731,27.731,0,0,0,1.347-3.945,29.6,29.6,0,0,0,.888-10.341c-.332-3.116-1.289-5.615-2.818-6.722-2.9-2.091-15.548,3.479-15.685,1.333v-.041a.7.7,0,0,1,.058-.25s0,0,0-.007c.8-1.94,8.946-8.439,10.084-10.389a1.63,1.63,0,0,1,.857-.7c.99,2.859,3.427,6.334,9.405,6.889a.051.051,0,0,0,0,.014v.007c.089.576,2.135,13.933.25,20.929-1.625,10.351-11.041,19.593-12.343,20.833-.027.024-.048.041-.065.058C1017.62,685.857,1023.67,685.367,1033.346,685.206Z" transform="translate(-1004.513 -640.989)" fill="#e0d7c5"/>
      </g>
      <g id="Grupo_933500" data-name="Grupo 933500" transform="translate(31.306 8.38)">
        <path id="Trazado_670978" data-name="Trazado 670978" d="M1017.947,524.454s-.052.236-.176.608h0c-.526,1.563-2.325,5.507-6.8,4.165-3.832-1.151-4.5-7.147-4.378-10.7,4.005,2.117,8.554-3.361,11.313,2.438C1020.436,519.567,1020.478,523.827,1017.947,524.454Z" transform="translate(-1006.579 -518.204)" fill="#f9c8b8"/>
      </g>
      <g id="Grupo_933501" data-name="Grupo 933501" transform="translate(29.36 3.859)">
        <path id="Trazado_670979" data-name="Trazado 670979" d="M999.056,504.187a2.362,2.362,0,0,0,2.421,3.232c2.7.051,4.536-1.52,5.459-1.754,3.31-.839,1.348,3.736,4.789,3.893-.111-.521-.057-1.092.746-2.087.326-.15,1.054-.135,1.24.126,0,0,.573-4.847-2.3-5.744a4.18,4.18,0,0,0-2.358-1.41C1006.7,500.114,1000.646,500.668,999.056,504.187Z" transform="translate(-998.9 -500.361)" fill="#7a4e36"/>
      </g>
      <g id="Grupo_933507" data-name="Grupo 933507" transform="translate(29.756)">
        <g id="Grupo_933506" data-name="Grupo 933506">
          <g id="Grupo_933502" data-name="Grupo 933502" transform="translate(0 4.696)">
            <path id="Trazado_670980" data-name="Trazado 670980" d="M1000.471,504.788c-.2,1.152,3.237,2.7,7.67,3.46s8.187.44,8.384-.712-3.237-2.7-7.67-3.46S1000.668,503.636,1000.471,504.788Z" transform="translate(-1000.463 -503.664)" fill="#ffbc47"/>
          </g>
          <g id="Grupo_933503" data-name="Grupo 933503" transform="translate(1.206)">
            <path id="Trazado_670981" data-name="Trazado 670981" d="M1005.234,490.541a.7.7,0,0,0,.376.743,24.534,24.534,0,0,0,3.439,1.369,21.821,21.821,0,0,0,5.041.956,22.83,22.83,0,0,0,4.392-.121.7.7,0,0,0,.6-.579,6.526,6.526,0,0,0-3.668-7,6.746,6.746,0,0,0-1.646-.511l-1.02-.172a6.275,6.275,0,0,0-2.43.049,5.9,5.9,0,0,0-.863.247,6.5,6.5,0,0,0-4.217,5.017Z" transform="translate(-1005.223 -485.132)" fill="#ffbc47"/>
          </g>
          <g id="Grupo_933504" data-name="Grupo 933504" transform="translate(1.215 1.386)">
            <path id="Trazado_670982" data-name="Trazado 670982" d="M1018,492.138a6.484,6.484,0,0,0-1.546-1.537,6.385,6.385,0,0,1,1.538,5.391.7.7,0,0,1-.6.579,22.827,22.827,0,0,1-4.392.121,21.815,21.815,0,0,1-5.041-.956,24.068,24.068,0,0,1-2.7-1.028.7.7,0,0,0,.377.658,24.539,24.539,0,0,0,3.439,1.369,21.814,21.814,0,0,0,5.041.956,22.827,22.827,0,0,0,4.392-.121.7.7,0,0,0,.6-.579A6.517,6.517,0,0,0,1018,492.138Z" transform="translate(-1005.258 -490.601)" fill="#db9112"/>
          </g>
          <g id="Grupo_933505" data-name="Grupo 933505" transform="translate(1.782 0.392)">
            <path id="Trazado_670983" data-name="Trazado 670983" d="M1007.495,489.944a2.371,2.371,0,0,0,.693.43,2.472,2.472,0,0,0,2.959-3.7A6.473,6.473,0,0,0,1007.495,489.944Z" transform="translate(-1007.495 -486.677)" fill="#ffcf7a"/>
          </g>
        </g>
      </g>
      <g id="Grupo_933514" data-name="Grupo 933514" transform="translate(20.653 23.907)">
        <g id="Grupo_933510" data-name="Grupo 933510" transform="translate(0 0.511)">
          <g id="Grupo_933509" data-name="Grupo 933509">
            <g id="Grupo_933508" data-name="Grupo 933508">
              <path id="Trazado_670984" data-name="Trazado 670984" d="M995.735,589.288s-3.221,12.21-4.061,13.1c-4.789,5.064-20.569,12.352-20.569,12.352-2.857,3.943-5.558,2.751-6.238.685-1.6-4.868,3.169-2.386,2.986-4.255,0,0-2-1.34-.416-1.475a9.767,9.767,0,0,1,2.392.19c2.924-2.079,10.081-7.261,14-11.256.111-.75.222-1.5.349-2.247.942-5.381,2.421-10.181,5.837-14.889A9.186,9.186,0,0,1,995.735,589.288Z" transform="translate(-964.538 -581.492)" fill="#f9c8b8"/>
            </g>
          </g>
        </g>
        <g id="Grupo_933513" data-name="Grupo 933513" transform="translate(18.757)">
          <g id="Grupo_933512" data-name="Grupo 933512">
            <g id="Grupo_933511" data-name="Grupo 933511">
              <path id="Trazado_670985" data-name="Trazado 670985" d="M1049.085,597.353l-10.527-2.518c.942-5.381,2.025-15.395,7.841-15.359C1053.475,579.519,1051.373,592.83,1049.085,597.353Z" transform="translate(-1038.558 -579.476)" fill="#fff"/>
            </g>
          </g>
        </g>
      </g>
      <g id="Grupo_933515" data-name="Grupo 933515" transform="translate(0 20.273)">
        <path id="Trazado_670986" data-name="Trazado 670986" d="M901.068,568.48c.338.045,1.426,3.223-.986,4.212a1.623,1.623,0,0,0-.957,1.016l-4.454,14.483a2.812,2.812,0,0,0,.076,1.869c.414,1.039.692,2.789-1.77,3.348a.268.268,0,0,1-.306-.368l.451-1.049a.989.989,0,0,0-.4-1.239h0l6.135-20.065s0,0,.006.006a.9.9,0,0,0,1.136-.462C900.337,569.529,900.883,568.454,901.068,568.48Z" transform="translate(-890.213 -567.632)" fill="#99b2cc"/>
        <path id="Trazado_670987" data-name="Trazado 670987" d="M891.143,565.143c-.306-.152-2.985,1.874-1.538,4.043a1.622,1.622,0,0,1,.225,1.377l-4.408,14.5a2.811,2.811,0,0,1-1.108,1.507c-.925.63-2.134,1.925-.406,3.765a.268.268,0,0,0,.459-.134l.213-1.122a.989.989,0,0,1,1.026-.8h0l6.135-20.064s0,0-.008,0a.9.9,0,0,1-.684-1.018C891.163,566.423,891.312,565.226,891.143,565.143Z" transform="translate(-883.034 -565.135)" fill="#809fba"/>
      </g>
      <path id="Trazado_670988" data-name="Trazado 670988" d="M898.552,618.766c-.3,1.072-1.035,1.8-1.639,1.634s-.85-1.177-.55-2.249,1.035-1.8,1.639-1.634S898.853,617.694,898.552,618.766Z" transform="translate(-892.89 -583.206)" fill="#f9c8b8"/>
    </g>
    <rect id="Rectángulo_329201" data-name="Rectángulo 329201" width="275.322" height="4.804" rx="2.402" transform="translate(74.321 266.909)" fill="#aac96d"/>
    <g id="Grupo_933517" data-name="Grupo 933517" transform="translate(232.808 57.684)">
      <path id="Trazado_670989" data-name="Trazado 670989" d="M799.6,84.939c1.258-.6,4.957-1.168,6.215-1.772-1.417-.223-5.246-.668-6.561-1.242l3.875-1.55a13.742,13.742,0,0,1-4.157-1.186,7.756,7.756,0,0,1,2.39-2c-.985-.11-1.744-.155-2.729-.265a37.772,37.772,0,0,1,3.893-5.465,47,47,0,0,1-6.555,2.033,15.415,15.415,0,0,1,1.982-2.541H795.02l1.69-2.5c-.961.1-2.986.151-2.986.151l3.582-5.51L791.1,66.248a13.8,13.8,0,0,1,.937-3.614l-3.544,2.7q.164-2.319.328-4.638c-1.275,1.3-2.83,3.581-4.366,4.557.082-.628.3-2.386.377-3.014L782.756,63.5l-1.29-5.818c-.523,1.664-2.378,6.013-2.378,6.013a14.621,14.621,0,0,0-1.128-2.662l-.949,1.5-2.685-3.624c-.092,1.641-.089,6.147-.089,6.147l-2.11-2.554a6.338,6.338,0,0,1-.6,1.857c-1.01-1.022-2.854-2.17-3.863-3.192-.4,2.025.027,4.176-.376,6.2l-1.895-1.073q-.006,1.567-.012,3.133c-1.494-.417-5.368-.958-5.368-.958a27.307,27.307,0,0,1,1.7,6.3c-1.2-.048-2.985-.246-4.186-.294,1.037,1.126,3.887,4.711,3.887,4.711L754.1,78.7l5.564,4.607s-2.187,1.49-3.2,1.5l2.962,1.331L754.1,89a44.549,44.549,0,0,1,6.806-.4c-1.258,1.482-4.3,3.766-5.2,4.74,1.2-.048,7.45-.849,7.45-.849l-3.095,6.372a52.152,52.152,0,0,0,5.323-.847q.006,1.567.012,3.133l1.895-1.073c.4,2.025-.027,4.176.376,6.2,1.01-1.022,4.245-4.346,4.245-4.346l-.079,3.267a11.163,11.163,0,0,0,1.323-1.422,13.32,13.32,0,0,1,1.172,4.76l2.685-3.624.949,1.5,1.162-1.3a16.183,16.183,0,0,1,2.343,4.654l1.29-5.818,2.073,1.267c-.082-.628-.14-3.461-.14-3.461s2.854,3.706,4.129,5q-.164-2.319-.328-4.638l3.544,2.7a7.426,7.426,0,0,1-.937-3.614,47.107,47.107,0,0,0,6.209,3.156l-3.582-5.51c.961.1,2.025.046,2.986.151l-1.69-2.5h2.931c-.54-.334-1.942-3.466-1.942-3.466l6.516,2.959s-2.761-3.533-3.893-5.465c.985-.11,1.744-.154,2.729-.265a7.753,7.753,0,0,1-2.6-2.276c2.218-.912,7.051-.982,7.051-.982S801.621,85.76,799.6,84.939Z" transform="translate(-754.099 -57.684)" fill="#ffb403"/>
      <circle id="Elipse_5251" data-name="Elipse 5251" cx="17.314" cy="17.314" r="17.314" transform="translate(5.992 40.354) rotate(-80.783)" fill="#ff9500"/>
      <circle id="Elipse_5252" data-name="Elipse 5252" cx="16.247" cy="16.247" r="16.247" transform="translate(9.61 9.79)" fill="#fdd51a"/>
    </g>
  </g>
</svg>
