<svg xmlns="http://www.w3.org/2000/svg" width="105" height="105" viewBox="0 0 105 105">
  <g id="Grupo_999307" data-name="Grupo 999307" transform="translate(-265 -5025)">
    <circle id="Elipse_5148" data-name="Elipse 5148" cx="52.5" cy="52.5" r="52.5" transform="translate(265 5025)" fill="#ad84ff"/>
    <g id="speedometer" transform="translate(280 5040)">
      <circle id="Elipse_5158" data-name="Elipse 5158" cx="34" cy="34" r="34" transform="translate(3.333 3.333)" fill="#ebe5dd"/>
      <path id="Trazado_667403" data-name="Trazado 667403" d="M70.217,36.062A34.155,34.155,0,0,1,9.15,57.085,34.149,34.149,0,0,0,57.085,9.15,34.046,34.046,0,0,1,70.217,36.062Z" transform="translate(1.271 1.271)" fill="#d9ccbc"/>
      <path id="Trazado_667404" data-name="Trazado 667404" d="M57.8,34.133H48.382a18.623,18.623,0,0,0-2.532-9.41l.012-.012L54,20h.012A28.054,28.054,0,0,1,57.8,34.133Z" transform="translate(7.795 3.2)" fill="#cd2a00"/>
      <circle id="Elipse_5159" data-name="Elipse 5159" cx="2.5" cy="2.5" r="2.5" transform="translate(58.333 46.333)" fill="#cd2a00"/>
      <path id="Trazado_667405" data-name="Trazado 667405" d="M55.042,21.559,46.9,26.27l-.012.012a17.784,17.784,0,0,0-2.685-3.58l2.862-3.5-3.5,2.862a17.784,17.784,0,0,0-3.58-2.685L40,19.368l4.711-8.138A28.384,28.384,0,0,1,55.042,21.559Z" transform="translate(6.753 1.641)" fill="#ff3051"/>
      <ellipse id="Elipse_5160" data-name="Elipse 5160" cx="2" cy="2.5" rx="2" ry="2.5" transform="translate(49.333 46.333)" fill="#ff3051"/>
      <path id="Trazado_667406" data-name="Trazado 667406" d="M46.133,11.792V11.8l-4.711,8.138-.012.012A18.623,18.623,0,0,0,32,17.422V8a28.054,28.054,0,0,1,14.133,3.792Z" transform="translate(5.333 1.067)" fill="#ffde55"/>
      <circle id="Elipse_5161" data-name="Elipse 5161" cx="7" cy="7" r="7" transform="translate(30.333 30.333)" fill="#57a4ff"/>
      <path id="Trazado_667407" data-name="Trazado 667407" d="M48.843,18l-2.862,3.5-7.608,9.328h-.012l-4.346,5.324a2.349,2.349,0,0,1-3.321-3.321l5.324-4.346V28.47l9.328-7.608Z" transform="translate(4.979 2.844)" fill="#898890"/>
      <path id="Trazado_667408" data-name="Trazado 667408" d="M25,48H41.489v9.422H25Z" transform="translate(4.089 8.177)" fill="#57a4ff"/>
      <path id="Trazado_667409" data-name="Trazado 667409" d="M34.133,8v9.422a18.623,18.623,0,0,0-9.41,2.532l-.012-.012L20,11.8v-.012A28.054,28.054,0,0,1,34.133,8Z" transform="translate(3.2 1.067)" fill="#ffde55"/>
      <path id="Trazado_667410" data-name="Trazado 667410" d="M26.27,19.368l.012.012a18.831,18.831,0,0,0-6.9,6.9l-.012-.012L11.23,21.559A28.384,28.384,0,0,1,21.559,11.23Z" transform="translate(1.641 1.641)" fill="#00b6bd"/>
      <ellipse id="Elipse_5162" data-name="Elipse 5162" cx="2" cy="2.5" rx="2" ry="2.5" transform="translate(21.333 46.333)" fill="#ffde55"/>
      <path id="Trazado_667411" data-name="Trazado 667411" d="M19.943,24.711l.012.012a18.623,18.623,0,0,0-2.532,9.41H8A28.054,28.054,0,0,1,11.792,20H11.8Z" transform="translate(1.067 3.2)" fill="#00b6bd"/>
      <circle id="Elipse_5163" data-name="Elipse 5163" cx="2.5" cy="2.5" r="2.5" transform="translate(11.333 46.333)" fill="#ffde55"/>
      <path id="Trazado_667412" data-name="Trazado 667412" d="M37.333,2A35.333,35.333,0,1,0,72.666,37.333,35.333,35.333,0,0,0,37.333,2Zm0,68.31A32.977,32.977,0,1,1,70.31,37.333,32.977,32.977,0,0,1,37.333,70.31Z"/>
      <path id="Trazado_667413" data-name="Trazado 667413" d="M41.667,47H25.178A1.178,1.178,0,0,0,24,48.178V57.6a1.178,1.178,0,0,0,1.178,1.178H41.667A1.178,1.178,0,0,0,42.844,57.6V48.178A1.178,1.178,0,0,0,41.667,47Zm-1.178,9.422H26.356V49.356H40.489Z" transform="translate(3.911 8)"/>
      <path id="Trazado_667414" data-name="Trazado 667414" d="M36.444,7A29.47,29.47,0,0,0,7,36.444a1.178,1.178,0,0,0,1.178,1.178H17.6a1.178,1.178,0,0,0,1.178-1.178A17.659,17.659,0,0,1,47.621,22.77l-7.644,6.242a8.291,8.291,0,1,0,3.9,3.9l6.242-7.644a17.576,17.576,0,0,1,3.993,11.177,1.178,1.178,0,0,0,1.178,1.178h9.422a1.178,1.178,0,0,0,1.178-1.178A29.47,29.47,0,0,0,36.444,7ZM16.457,35.266H9.379a27.017,27.017,0,0,1,3.039-11.33l6.148,3.545A19.718,19.718,0,0,0,16.457,35.266Zm3.286-9.823L13.607,21.9A27.166,27.166,0,0,1,21.9,13.607l3.533,6.124a20.213,20.213,0,0,0-5.689,5.712Zm15.523-8.963a19.884,19.884,0,0,0-7.785,2.073l-3.545-6.136a27.017,27.017,0,0,1,11.33-3.039Zm1.178,25.852a5.889,5.889,0,1,1,0-11.778,6.379,6.379,0,0,1,1.425.177l-3.84,3.133a.544.544,0,0,0-.082.082,3.533,3.533,0,1,0,4.994,4.994.544.544,0,0,0,.082-.082l3.133-3.84a6.379,6.379,0,0,1,.177,1.425A5.889,5.889,0,0,1,36.444,42.333Zm.8-5.017a1.226,1.226,0,0,1-1.637-.035,1.166,1.166,0,0,1-.342-.836,1.194,1.194,0,0,1,.306-.8l9.069-7.4Zm.377-20.835v-7.1a27.017,27.017,0,0,1,11.33,3.039l-3.545,6.136a19.884,19.884,0,0,0-7.785-2.073Zm15.523,8.963a19.744,19.744,0,0,0-1.519-2.026L53.84,20.7a1.171,1.171,0,0,0-1.649-1.649l-2.732,2.226a21.052,21.052,0,0,0-2-1.543l3.533-6.124A27.166,27.166,0,0,1,59.281,21.9Zm3.286,9.823a19.718,19.718,0,0,0-2.108-7.785l6.148-3.545a27.017,27.017,0,0,1,3.039,11.33Z" transform="translate(0.889 0.889)"/>
      <path id="Trazado_667415" data-name="Trazado 667415" d="M44.533,39a3.533,3.533,0,1,0,3.533,3.533A3.533,3.533,0,0,0,44.533,39Zm0,4.711a1.178,1.178,0,1,1,1.178-1.178A1.178,1.178,0,0,1,44.533,43.711Z" transform="translate(6.933 6.577)"/>
      <path id="Trazado_667416" data-name="Trazado 667416" d="M52.533,39a3.533,3.533,0,1,0,3.533,3.533A3.533,3.533,0,0,0,52.533,39Zm0,4.711a1.178,1.178,0,1,1,1.178-1.178A1.178,1.178,0,0,1,52.533,43.711Z" transform="translate(8.355 6.577)"/>
      <path id="Trazado_667417" data-name="Trazado 667417" d="M20.533,39a3.533,3.533,0,1,0,3.533,3.533A3.533,3.533,0,0,0,20.533,39Zm0,4.711a1.178,1.178,0,1,1,1.178-1.178A1.178,1.178,0,0,1,20.533,43.711Z" transform="translate(2.666 6.577)"/>
      <path id="Trazado_667418" data-name="Trazado 667418" d="M12.533,39a3.533,3.533,0,1,0,3.533,3.533A3.533,3.533,0,0,0,12.533,39Zm0,4.711a1.178,1.178,0,1,1,1.178-1.178A1.178,1.178,0,0,1,12.533,43.711Z" transform="translate(1.244 6.577)"/>
      <path id="Trazado_667419" data-name="Trazado 667419" d="M25,41h2.356v2.356H25Z" transform="translate(4.089 6.933)"/>
      <path id="Trazado_667420" data-name="Trazado 667420" d="M29,41h5.889v2.356H29Z" transform="translate(4.8 6.933)"/>
      <path id="Trazado_667421" data-name="Trazado 667421" d="M36,41h2.356v2.356H36Z" transform="translate(6.044 6.933)"/>
    </g>
  </g>
</svg>
