<svg xmlns="http://www.w3.org/2000/svg" width="263.363" height="416" viewBox="0 0 263.363 416">
  <g id="Grupo_152210" data-name="Grupo 152210" transform="translate(-1063.997 -5635)">
    <g id="Grupo_152209" data-name="Grupo 152209" transform="translate(1063.997 5635)">
      <path id="Trazado_119477" data-name="Trazado 119477" d="M79.06,80.591l-6.079-3.518L60.784,83.9,66.9,87.427Z" transform="translate(43.387 92.083)" fill="#fff"/>
      <path id="Trazado_119480" data-name="Trazado 119480" d="M96.384,70.983,90.3,67.465l-12.2,6.822,6.117,3.532Z" transform="translate(55.753 52.414)" fill="#fff"/>
      <path id="Trazado_119488" data-name="Trazado 119488" d="M91.039,91.894c0,.737.448,1.076,1,.757a2.4,2.4,0,0,0,1-1.914c0-.737-.448-1.076-1-.757a2.4,2.4,0,0,0-1,1.914" transform="translate(67.205 76.631)" fill="#fff"/>
      <path id="Trazado_119525" data-name="Trazado 119525" d="M137.993,59.323,42.925,114.21v-7.449l95.068-54.887Z" transform="translate(43.434 47.626)" fill="#a3a3a3"/>
      <path id="Trazado_119526" data-name="Trazado 119526" d="M139.882,52.964,44.814,107.851l-8.316-4.8,95.068-54.887Z" transform="translate(39.111 43.778)" fill="#bcbcbc"/>
      <path id="Trazado_119527" data-name="Trazado 119527" d="M36.5,90.588v7.449l8.316,4.8V95.389Z" transform="translate(25.269 70.742)" fill="#7f7f7f"/>
      <path id="Trazado_119528" data-name="Trazado 119528" d="M137.993,47.714,42.925,102.6V95.152l95.068-54.887Z" transform="translate(43.434 36.968)" fill="#a3a3a3"/>
      <path id="Trazado_119529" data-name="Trazado 119529" d="M139.882,41.355,44.814,96.242l-8.316-4.8,95.068-54.887Z" transform="translate(39.111 33.226)" fill="#bcbcbc"/>
      <path id="Trazado_119530" data-name="Trazado 119530" d="M36.5,78.979v7.449l8.316,4.8V83.78Z" transform="translate(25.269 61.677)" fill="#7f7f7f"/>
      <path id="Trazado_119531" data-name="Trazado 119531" d="M117.992,107a.509.509,0,0,1-.259-.07L.259,39.1a.518.518,0,0,1,.519-.9L118.25,106.029a.518.518,0,0,1-.259.966" transform="translate(0 35.92)" fill="#666"/>
      <path id="Trazado_119532" data-name="Trazado 119532" d="M151.625,87.352a.52.52,0,0,1-.259-.069L33.893,19.461a.518.518,0,1,1,.517-.9L151.883,86.386a.518.518,0,0,1-.259.966" transform="translate(40.71 5.431)" fill="#666"/>
      <path id="Trazado_119533" data-name="Trazado 119533" d="M183.525,68.859a.52.52,0,0,1-.259-.069L65.793.966a.518.518,0,1,1,.517-.9L183.783,67.893a.518.518,0,0,1-.259.966" transform="translate(79.321 -0.001)" fill="#666"/>
      <path id="Trazado_119534" data-name="Trazado 119534" d="M43.5,82.094h0a.729.729,0,0,1-.727-.727V69.349a.727.727,0,0,1,1.454,0V81.367a.729.729,0,0,1-.727.727" transform="translate(29.031 53.768)" fill="#3a3a3a"/>
      <path id="Trazado_119535" data-name="Trazado 119535" d="M50.133,71.921c0,1.7-2.481,3.086-5.542,3.086s-5.544-1.382-5.544-3.086,2.481-3.086,5.544-3.086,5.542,1.382,5.542,3.086" transform="translate(27.258 52.883)" fill="#4f4f4f"/>
      <path id="Trazado_119536" data-name="Trazado 119536" d="M40.2,68.835l-1.111,2.687H50.07l-1.111-2.687Z" transform="translate(27.277 52.404)" fill="#4f4f4f"/>
      <path id="Trazado_119537" data-name="Trazado 119537" d="M48.859,69.851c0,1.386-2.017,2.509-4.5,2.509s-4.5-1.123-4.5-2.509,2.017-2.509,4.5-2.509,4.5,1.123,4.5,2.509" transform="translate(27.645 51.579)" fill="#666"/>
      <path id="Trazado_119538" data-name="Trazado 119538" d="M50.133,68.188c0,1.7-2.481,3.086-5.542,3.086s-5.544-1.382-5.544-3.086S41.528,65.1,44.591,65.1s5.542,1.382,5.542,3.086" transform="translate(27.258 50.015)" fill="#4f4f4f"/>
      <path id="Trazado_119539" data-name="Trazado 119539" d="M40.2,65.1l-1.111,2.686H50.07L48.959,65.1Z" transform="translate(27.277 49.562)" fill="#4f4f4f"/>
      <path id="Trazado_119540" data-name="Trazado 119540" d="M48.859,66.119c0,1.386-2.017,2.509-4.5,2.509s-4.5-1.123-4.5-2.509,2.017-2.509,4.5-2.509,4.5,1.123,4.5,2.509" transform="translate(27.645 48.721)" fill="#666"/>
      <path id="Trazado_119541" data-name="Trazado 119541" d="M50.133,64.3c0,1.7-2.481,3.086-5.542,3.086s-5.544-1.382-5.544-3.086,2.481-3.086,5.544-3.086S50.133,62.6,50.133,64.3" transform="translate(27.258 47.03)" fill="#4f4f4f"/>
      <path id="Trazado_119542" data-name="Trazado 119542" d="M40.2,61.215,39.087,63.9H50.07l-1.111-2.686Z" transform="translate(27.277 46.603)" fill="#4f4f4f"/>
      <path id="Trazado_119543" data-name="Trazado 119543" d="M48.859,62.232c0,1.386-2.017,2.509-4.5,2.509s-4.5-1.123-4.5-2.509,2.017-2.509,4.5-2.509,4.5,1.123,4.5,2.509" transform="translate(27.645 45.744)" fill="#666"/>
      <path id="Trazado_119544" data-name="Trazado 119544" d="M76.618,62.782h0a.729.729,0,0,1-.727-.727V50.037a.727.727,0,0,1,1.454,0V62.055a.729.729,0,0,1-.727.727" transform="translate(51.514 38.636)" fill="#3a3a3a"/>
      <path id="Trazado_119545" data-name="Trazado 119545" d="M83.254,52.609c0,1.7-2.481,3.086-5.542,3.086s-5.544-1.382-5.544-3.086,2.483-3.086,5.544-3.086,5.542,1.382,5.542,3.086" transform="translate(50.379 38.046)" fill="#4f4f4f"/>
      <path id="Trazado_119546" data-name="Trazado 119546" d="M73.32,49.522l-1.111,2.686H83.192l-1.111-2.686Z" transform="translate(50.392 37.701)" fill="#4f4f4f"/>
      <path id="Trazado_119547" data-name="Trazado 119547" d="M81.981,50.539c0,1.386-2.017,2.509-4.5,2.509s-4.5-1.123-4.5-2.509,2.017-2.509,4.5-2.509,4.5,1.123,4.5,2.509" transform="translate(50.624 36.788)" fill="#666"/>
      <path id="Trazado_119548" data-name="Trazado 119548" d="M83.254,48.876c0,1.7-2.481,3.086-5.542,3.086s-5.544-1.382-5.544-3.086,2.483-3.086,5.544-3.086,5.542,1.382,5.542,3.086" transform="translate(50.379 35.179)" fill="#4f4f4f"/>
      <path id="Trazado_119549" data-name="Trazado 119549" d="M73.32,45.79l-1.111,2.686H83.192L82.081,45.79Z" transform="translate(50.392 34.86)" fill="#4f4f4f"/>
      <path id="Trazado_119550" data-name="Trazado 119550" d="M81.981,46.807c0,1.386-2.017,2.509-4.5,2.509s-4.5-1.123-4.5-2.509,2.017-2.509,4.5-2.509,4.5,1.123,4.5,2.509" transform="translate(50.624 33.929)" fill="#666"/>
      <path id="Trazado_119551" data-name="Trazado 119551" d="M83.254,44.99c0,1.7-2.481,3.086-5.542,3.086s-5.544-1.382-5.544-3.086S74.651,41.9,77.712,41.9s5.542,1.382,5.542,3.086" transform="translate(50.379 32.193)" fill="#4f4f4f"/>
      <path id="Trazado_119552" data-name="Trazado 119552" d="M73.32,41.9,72.208,44.59H83.192L82.081,41.9Z" transform="translate(50.392 31.901)" fill="#4f4f4f"/>
      <path id="Trazado_119553" data-name="Trazado 119553" d="M81.981,42.92c0,1.386-2.017,2.509-4.5,2.509s-4.5-1.123-4.5-2.509,2.017-2.509,4.5-2.509,4.5,1.123,4.5,2.509" transform="translate(50.624 30.952)" fill="#666"/>
      <path id="Trazado_119554" data-name="Trazado 119554" d="M110.032,43.98h0a.729.729,0,0,1-.727-.727V31.235a.727.727,0,0,1,1.454,0V43.253a.729.729,0,0,1-.727.727" transform="translate(74.195 23.904)" fill="#3a3a3a"/>
      <path id="Trazado_119555" data-name="Trazado 119555" d="M116.669,33.807c0,1.7-2.481,3.086-5.542,3.086s-5.544-1.382-5.544-3.086,2.483-3.086,5.544-3.086,5.542,1.382,5.542,3.086" transform="translate(73.705 9.023)" fill="#4f4f4f"/>
      <path id="Trazado_119556" data-name="Trazado 119556" d="M106.734,30.721l-1.111,2.686h10.984L115.5,30.721Z" transform="translate(73.71 9.023)" fill="#4f4f4f"/>
      <path id="Trazado_119557" data-name="Trazado 119557" d="M115.4,31.737c0,1.386-2.017,2.509-4.5,2.509s-4.5-1.123-4.5-2.509,2.017-2.509,4.5-2.509,4.5,1.123,4.5,2.509" transform="translate(73.806 8.585)" fill="#666"/>
      <path id="Trazado_119558" data-name="Trazado 119558" d="M116.669,30.075c0,1.7-2.481,3.086-5.542,3.086s-5.544-1.383-5.544-3.086,2.483-3.087,5.544-3.087,5.542,1.383,5.542,3.087" transform="translate(73.705 7.927)" fill="#4f4f4f"/>
      <path id="Trazado_119559" data-name="Trazado 119559" d="M106.734,26.988l-1.111,2.686h10.984L115.5,26.988Z" transform="translate(73.71 7.927)" fill="#4f4f4f"/>
      <path id="Trazado_119560" data-name="Trazado 119560" d="M115.4,28c0,1.386-2.017,2.509-4.5,2.509s-4.5-1.123-4.5-2.509,2.017-2.509,4.5-2.509,4.5,1.123,4.5,2.509" transform="translate(73.806 7.488)" fill="#666"/>
      <path id="Trazado_119561" data-name="Trazado 119561" d="M116.669,26.188c0,1.7-2.481,3.086-5.542,3.086s-5.544-1.382-5.544-3.086,2.483-3.086,5.544-3.086,5.542,1.382,5.542,3.086" transform="translate(73.705 6.786)" fill="#4f4f4f"/>
      <path id="Trazado_119562" data-name="Trazado 119562" d="M106.734,23.1l-1.111,2.686h10.984L115.5,23.1Z" transform="translate(73.71 6.785)" fill="#4f4f4f"/>
      <path id="Trazado_119563" data-name="Trazado 119563" d="M115.4,24.118c0,1.386-2.017,2.509-4.5,2.509s-4.5-1.123-4.5-2.509,2.017-2.509,4.5-2.509,4.5,1.123,4.5,2.509" transform="translate(73.806 6.347)" fill="#666"/>
      <path id="Trazado_699591" data-name="Trazado 699591" d="M85.252,291.046l-19.74,11.1V90.891l19.74-11.1Z" transform="translate(51.367 113.855)" fill="#e8e8e8"/>
      <path id="Trazado_699592" data-name="Trazado 699592" d="M60.783,293.6l9.933,5.734V88.08l-9.933-5.734Z" transform="translate(41.812 116.664)" fill="#bcbcbc"/>
      <path id="Trazado_699593" data-name="Trazado 699593" d="M102.577,281.437l-19.742,11.1V81.282l19.742-11.1Z" transform="translate(81.865 103.282)" fill="#e8e8e8"/>
      <path id="Trazado_699594" data-name="Trazado 699594" d="M78.107,283.991l9.933,5.734V78.472l-9.933-5.734Z" transform="translate(71.961 106.092)" fill="#a3a3a3"/>
      <path id="Trazado_699595" data-name="Trazado 699595" d="M121.1,88.692l-53.588,30.92v6.194L121.1,94.886Z" transform="translate(60.338 57.869)" fill="#bcbcbc"/>
      <path id="Trazado_699596" data-name="Trazado 699596" d="M69.242,104.46l-3.308-2v6.194l3.308,2Z" transform="translate(49.921 78.005)" fill="#a3a3a3"/>
      <path id="Trazado_699597" data-name="Trazado 699597" d="M122.83,89.739l-3.308-2L65.934,118.66l3.308,2Z" transform="translate(58.03 55.176)" fill="#fff"/>
      <path id="Trazado_699598" data-name="Trazado 699598" d="M121.1,161.309,67.509,192.23v6.194L121.1,167.5Z" transform="translate(60.338 203.559)" fill="#bcbcbc"/>
      <path id="Trazado_699599" data-name="Trazado 699599" d="M69.242,177.078l-3.308-2v6.194l3.308,2Z" transform="translate(49.921 218.71)" fill="#a3a3a3"/>
      <path id="Trazado_699600" data-name="Trazado 699600" d="M122.83,162.357l-3.308-2-53.588,30.92,3.308,2Z" transform="translate(58.03 202.509)" fill="#fff"/>
      <path id="Trazado_699601" data-name="Trazado 699601" d="M68.2,106.027c0,1.082.657,1.58,1.47,1.111a3.522,3.522,0,0,0,1.468-2.808c0-1.082-.657-1.58-1.468-1.111a3.518,3.518,0,0,0-1.47,2.808" transform="translate(53.785 78.287)" fill="#fff"/>
      <path id="Trazado_699602" data-name="Trazado 699602" d="M68.2,178.7c0,1.082.657,1.58,1.47,1.111a3.522,3.522,0,0,0,1.468-2.808c0-1.082-.657-1.579-1.468-1.111A3.518,3.518,0,0,0,68.2,178.7" transform="translate(53.785 219.414)" fill="#fff"/>
      <path id="Trazado_699603" data-name="Trazado 699603" d="M91.039,165.522c0,1.082.657,1.58,1.47,1.111a3.522,3.522,0,0,0,1.468-2.808c0-1.082-.657-1.579-1.468-1.113a3.525,3.525,0,0,0-1.47,2.81" transform="translate(93.221 204.909)" fill="#fff"/>
      <path id="Trazado_699604" data-name="Trazado 699604" d="M109.282,167.2c-9-19.286-31.5-65.138-31.727-65.6l1.51-.739c.227.46,22.731,46.329,31.737,65.628Z" transform="translate(74.899 88.92)" fill="#3a3a3a"/>
      <rect id="Rectángulo_344888" data-name="Rectángulo 344888" width="1.681" height="74.143" transform="matrix(0.92, -0.391, 0.391, 0.92, 162.115, 184.743)" fill="#3a3a3a"/>
      <path id="Trazado_699605" data-name="Trazado 699605" d="M82.443,108.672a3.183,3.183,0,0,1-.842-.109,16.984,16.984,0,0,1-2.415-.735l2.26-1.285a1.028,1.028,0,0,0,.628.407,3.4,3.4,0,0,0,2.468-.718c2.785-1.718,1.124-6.545-.294-9.124-1.29-2.342-3.256-3.367-3.646-3.205a1.017,1.017,0,0,0-.055.384v2.747l-1.68.97V94.286a1.838,1.838,0,0,1,1.323-2.014c1.594-.407,4.083,1.393,5.53,4.024,2.119,3.85,3.312,9.139-.294,11.365a5.817,5.817,0,0,1-2.983,1.01" transform="translate(73.114 60.438)" fill="#9b8e83"/>
      <path id="Trazado_699606" data-name="Trazado 699606" d="M82.076,108.9a3.183,3.183,0,0,1-.842-.109,2.687,2.687,0,0,1-1.645-1.22l1.481-.794a1.084,1.084,0,0,0,.636.4,3.4,3.4,0,0,0,2.468-.718c2.785-1.72,1.126-6.545-.294-9.124-1.29-2.342-3.256-3.369-3.646-3.205a1.018,1.018,0,0,0-.055.384v2.71l-1.68.97v-3.68A1.836,1.836,0,0,1,79.822,92.5c1.594-.41,4.083,1.393,5.53,4.024,2.119,3.85,3.312,9.139-.3,11.365a5.8,5.8,0,0,1-2.98,1.01" transform="translate(72.476 60.871)" fill="#e8e8e8"/>
      <path id="Trazado_699607" data-name="Trazado 699607" d="M79.157,110.6a3.182,3.182,0,0,1-.842-.109,16.885,16.885,0,0,1-2.415-.735l2.26-1.285a1.028,1.028,0,0,0,.628.407,3.4,3.4,0,0,0,2.468-.718c2.785-1.718,1.124-6.545-.294-9.124-1.29-2.342-3.256-3.367-3.646-3.205a1.017,1.017,0,0,0-.055.384v2.747l-1.68.97V96.211A1.838,1.838,0,0,1,76.9,94.2c1.594-.41,4.083,1.393,5.53,4.024,2.119,3.85,3.312,9.139-.294,11.365a5.816,5.816,0,0,1-2.983,1.01" transform="translate(67.403 64.063)" fill="#9b8e83"/>
      <path id="Trazado_699608" data-name="Trazado 699608" d="M78.79,110.826a3.184,3.184,0,0,1-.842-.109A2.7,2.7,0,0,1,76.3,109.5l1.481-.8a1.085,1.085,0,0,0,.636.4,3.4,3.4,0,0,0,2.468-.718c2.785-1.718,1.126-6.545-.294-9.124-1.29-2.342-3.256-3.367-3.646-3.205a1.017,1.017,0,0,0-.055.384v2.71l-1.68.97v-3.68a1.838,1.838,0,0,1,1.323-2.014c1.594-.41,4.083,1.393,5.53,4.024,2.119,3.85,3.312,9.139-.3,11.365a5.8,5.8,0,0,1-2.98,1.01" transform="translate(66.765 64.496)" fill="#e8e8e8"/>
      <path id="Trazado_699609" data-name="Trazado 699609" d="M112.352,127.7c-4.745-2.493-14.732-7.847-15.74-8.849,0,0-.891-4.14-1.653-7.37s-3.132-3.942-5.15-4.938-3.226.313-2.508,2.441,1.729,2.8,2.315,3.858,1.3,3.207,1.025,3.031-3.113-1.336-3.718-.762.512,1.565,1.525,2.084,1.2,2.854,2.966,4.308a14.806,14.806,0,0,0,3.705,2.184s.933,1.808,4.7,5.927a34.07,34.07,0,0,0,9,6.654s8.278-6.074,3.533-8.568" transform="translate(90.143 89.931)" fill="#3a3a3a"/>
      <path id="Trazado_699610" data-name="Trazado 699610" d="M96.219,123.11l-6.194-5.23s1.365-4.48,4.7-5.7c2.187-.8,9.479,4.7,9.479,4.7Z" transform="translate(93.476 96.649)" fill="#ad84ff"/>
      <path id="Trazado_699611" data-name="Trazado 699611" d="M109.3,128.564c-4.728-.979-9.922-2.285-11.517-2.615-3.829-5.031-11.752-9.053-13.758-11.286-.825-1.506-1.231-4.274-2.254-6.482s-1.859-.771-1.943.891.258,3.167-.8,2.945S75.852,109.8,72,109.979s-5.6,4.325-1.372,6.772a85.329,85.329,0,0,0,11.254,5.121,121.884,121.884,0,0,1,10.208,10.985c1.5,2.222,2.51,1.519,4.381,2.115s9.116,3.06,11.8,2.829,1.025-9.238,1.025-9.238" transform="translate(59.477 91.738)" fill="#3a3a3a"/>
      <path id="Trazado_699612" data-name="Trazado 699612" d="M100.16,113.45s9.357-8.009,14.751,1.235c4.184,7.169,1.884,14.153-2.67,17.366s-12.082-18.6-12.082-18.6" transform="translate(111.776 95.716)" fill="#ad84ff"/>
      <path id="Trazado_699613" data-name="Trazado 699613" d="M106.6,176.22c2.653-6.238,2.569-18.192,1.758-21.975-4.648-.884-10.416-1.25-13.926.54.336,4.039.011,4.644.164,7.54a87.476,87.476,0,0,1,.086,9.208c-2.959-3.279-8.463-2.044-9.242,2-.193,1.006.756,5.585,1.609,6.339,4.543,4.018,7.91,2.579,10.084,2.464,1.481,1.863,5.789,3.188,8.683,1.376.958-.6,1.493-6.4.783-7.5" transform="translate(87.082 194.978)" fill="#3a3a3a"/>
      <path id="Trazado_699614" data-name="Trazado 699614" d="M84.807,156.041c-1.7,3.695-3.05,9.42-3.281,9.937-2.457-1.857-4.581-4.234-7.427-3.571-2.989.7-3.919,2.92-4.068,5.373a14.1,14.1,0,0,0,3.356,5.249,35.178,35.178,0,0,0,7.53,5.23c1.59,1.838,4.066,3.686,6.478,3.283,2.481-.414,3.848-1,3.993-3.545.237-4.249,1.4-5.566,3.6-12.252,1.855-5.64-8.708-12.886-10.176-9.7" transform="translate(60.146 196.904)" fill="#3a3a3a"/>
      <path id="Trazado_699615" data-name="Trazado 699615" d="M128.273,132.4s3.039,6.711,2.054,13.354a11.342,11.342,0,0,1-8.257,9.555,65.747,65.747,0,0,1-9.29,6.772,82.294,82.294,0,0,1-9.324,4.495s1.565.76.72,2.924c.3.313,2.569,3.138,2.7,8.3.181,7.162-1.26,17.316-3.069,21.645-.557,1.336-3.581.9-6.419.044a8.449,8.449,0,0,1-5.5-4.73c-1.031-3.138-1.6-24.827-2.846-27.933-1.664-4.15-1.846-5.854,2.384-9.605C93.72,155.2,107.944,144.1,107.944,144.1Z" transform="translate(95.476 171.748)" fill="#12263f"/>
      <path id="Trazado_699616" data-name="Trazado 699616" d="M100.117,144.357s5.688,4.642,12.226,1.277c5.287-2.72,5.9-6.505,5.9-6.505s1.386,5.585-6.574,9.511a14.248,14.248,0,0,1-12.859.092Z" transform="translate(109.937 147.282)" fill="#3a3a3a"/>
      <path id="Trazado_699617" data-name="Trazado 699617" d="M110.344,132.4s-7.162,3.006-12.848,5.81-10.227,7.347-12.762,9.935c-1.582,1.613-4.669,3.321-4.669,7.929s-.7,10.679-2.109,19.454c-1.046,6.52-2.451,15.6-2.451,15.6s-.365,8.889,10.989,9.185c2.68-.84,6.461-16.318,7.255-19.731,1.558-6.713,2.966-13.283.951-15.776,2.208-1.668-.252-3.258-.252-3.258s4.844-1.271,9.553-2.187,10.229-.672,13.756-2.737c2.6,1.645,10.214.8,13.9-5.2,4.627-7.532,3.581-12.59,2.46-12.63s-23.775-6.394-23.775-6.394" transform="translate(76.298 171.748)" fill="#12263f"/>
      <path id="Trazado_699618" data-name="Trazado 699618" d="M99.342,122.51l4.064,6.392c3.352-.082,6.8-2.875,9.2-5.85-.811-1.239-3.97-4.743-3.856-6.009,2.22-2.857,1.365-6.156-.685-10.05-2.147-4.079-7.835-5.917-12.126-4.346a5.637,5.637,0,0,0-4.377,4.224c-.752,3.569.273,10.853,2.71,13.306,1.7,1.71,2.857,2.43,5.066,2.334" transform="translate(97.111 81.322)" fill="#ffc9b6"/>
      <path id="Trazado_699619" data-name="Trazado 699619" d="M113.935,111.4a7.987,7.987,0,0,0-2.481-7.765c-2.7-2.5-8.292-4.566-11.79-2.546a1.773,1.773,0,0,0-.042-.317,2.2,2.2,0,0,0-2.966-1.145,5.536,5.536,0,0,0-2.386,1.727,2.62,2.62,0,0,0-1.7-.525c-2.1.158-3.785,4.1-.078,7.16-1.75,2.735,1.514,6.091,5.484,6.438-.79,1.785-.218,3.081.861,4.774,1.687,2.644,6.266,4.986,9.3,4.55,3.44-.494,5.95-4.148,6.875-7.669a5.175,5.175,0,0,0-1.086-4.682" transform="translate(96.028 75.759)" fill="#3a3a3a"/>
      <path id="Trazado_699620" data-name="Trazado 699620" d="M93.211,107.212a1.715,1.715,0,0,1,2.968.082c1.588,2.019-2.165,5.243-2.165,5.243Z" transform="translate(97.047 84.879)" fill="#ffc9b6"/>
      <path id="Trazado_699621" data-name="Trazado 699621" d="M117.58,111.131c-3.9.355-3.861,1.052-12.747,4.178-2.8.983-6.438,2.044-8.313,3.09-4.079,2.271-4.749,4.627-5.068,7.089-.466,3.594-.561,6.511.034,14.01.756,9.546,3.686,12.67,3.686,12.67s-1.46,1.85-2.63,3.033c-.949.962.708,2.084,2.3,3.9,3.319,3.8,13.552,12.155,28.4,2.4,2.588-1.7,3.556-3.476,4.052-6.568,1.483-9.28.052-17.7.074-23.842.036-9.271-6.366-20.277-9.784-19.967" transform="translate(99.879 106.07)" fill="#ad84ff"/>
      <path id="Trazado_699622" data-name="Trazado 699622" d="M118.322,120.061s-2.521-1.951-7.122-.254a21.586,21.586,0,0,0-6.429,3.327s-8.868-2.18-11.117-2.523c-4.528-4.89-9.658-7.753-13.844-10.38-1.1,1.05-4.554,3.386-6.116,8.114,3.188,4.556,9.981,10.928,13.525,14.031,5.946,3.136,25.228,9.263,27.471,8.265,11.094-4.934,5.913-16.816,3.634-20.58" transform="translate(70.614 97.762)" fill="#ad84ff"/>
      <path id="Trazado_699623" data-name="Trazado 699623" d="M95.366,116.67s3.34,1.426,9.9-.834,4.818-4.484,4.818-4.484a16.011,16.011,0,0,0-7.053,1.773c-3.993,1.926-7.662,3.546-7.662,3.546" transform="translate(102.964 94.06)" fill="#ad84ff"/>
      <path id="Trazado_699624" data-name="Trazado 699624" d="M90.674,133.434a33.777,33.777,0,0,0,9.114,7.746c7.887,4.379,13.686,3.478,16.352,2.978a14.55,14.55,0,0,0,5-1.9l.149-2.976s-10.985,2.182-15.066,1.056-14.713-7.713-14.713-7.713Z" transform="translate(97.839 135.34)" fill="#ad84ff"/>
      <path id="Trazado_699625" data-name="Trazado 699625" d="M92.789,141.748a13.957,13.957,0,0,0,9.994-.05c4.925-2.163,9.668-6.4,9.387-14.76a148.191,148.191,0,0,0,13.879-5.724c.981,4.117,1.05,7.312,2.3,12.052s1.174,9.208-1.472,11.916c-1.836,4.9-8.223,9.07-16.259,9.049-7.183-.019-11.166-2.447-14.793-4.72-4.938-3.1-3.783-2.214-4.1-3.617-.729-3.224,1.069-4.146,1.069-4.146" transform="translate(100.888 119.483)" fill="#12263f"/>
      <path id="Trazado_699626" data-name="Trazado 699626" d="M94.469,114.821a17.57,17.57,0,0,1,8.834,7.429,51.137,51.137,0,0,1,5.612,15.077l2.455-1.313s-2.609-11.262-6.518-16.39-7.555-5.961-7.555-5.961Z" transform="translate(101.782 102.603)" fill="#12263f"/>
      <path id="Trazado_699627" data-name="Trazado 699627" d="M102.372,111.56s3.665.66,6.667,9.185,3.18,13.943,3.18,13.943l2.237-.949s-1.411-9.71-3.676-14.984c-2.476-5.77-6.236-7.6-6.236-7.6Z" transform="translate(114.633 97.808)" fill="#12263f"/>
      <path id="Trazado_699628" data-name="Trazado 699628" d="M86.568,148.223a7.576,7.576,0,0,1-3.806-.647,4.985,4.985,0,0,1-2.63-3.092s5.058,1.611,6.436,3.739" transform="translate(74.931 155.2)" fill="#efb000"/>
      <path id="Trazado_699629" data-name="Trazado 699629" d="M87.39,147.633a7.576,7.576,0,0,1-3.512,1.607,4.987,4.987,0,0,1-3.913-1.078s5.089-1.514,7.425-.529" transform="translate(74.797 159.928)" fill="#efb000"/>
      <path id="Trazado_699630" data-name="Trazado 699630" d="M111.808,103.036s-12.743-10.779-20.376-1.664c-5.831,6.965,8.358,16.961,8.358,16.961Z" transform="translate(94.917 71.656)" fill="#12263f"/>
      <path id="Trazado_699631" data-name="Trazado 699631" d="M93.639,103.314c3.176-4.669,10.267-7.333,16.249-3.882,8.442,4.871,6.728,17.331,2.424,20.838-6.631,3.184-12.533.821-14.982-1.5-5.459-5.175-6.2-11.762-3.69-15.453" transform="translate(99.231 72.65)" fill="#636363"/>
      <path id="Trazado_699632" data-name="Trazado 699632" d="M92.641,101.651s-.286,6.616,6.566,11.844c5.831,4.449,14.484,1.17,14.484,1.17l-2.17,2.443s-6.841,2.178-12.315-1.071c-6.7-3.976-7.862-9.54-6.566-14.386" transform="translate(98.658 78.156)" fill="#727997"/>
      <path id="Trazado_699633" data-name="Trazado 699633" d="M104,100.694c5.992,2.754,7.093,9.815,5.566,15.585-9.981,1.71-16.868-6.1-16.331-11,.521-4.867,6.957-6.331,10.765-4.581" transform="translate(99.587 75.091)" fill="#12263f"/>
      <path id="Trazado_699634" data-name="Trazado 699634" d="M110.691,116.569s.225-8.225-4.552-13.508c-4.862-5.381-10.074-4.388-10.074-4.388s4.608-3.256,11.174,2.014c7.673,6.156,3.451,15.881,3.451,15.881" transform="translate(104.36 71.235)" fill="#12263f"/>
      <path id="Trazado_699635" data-name="Trazado 699635" d="M88.831,134.775s2.892,3.459,6.452,12.39a41.8,41.8,0,0,1,2.689,10.454s3.812,1.428,5.266-1.905c-.8-8.507-10.832-22.525-10.832-22.525s-2.735-1.1-3.575,1.586" transform="translate(91.43 139.641)" fill="#3a3a3a"/>
      <path id="Trazado_699636" data-name="Trazado 699636" d="M92.915,131.429l-2.241,3.321a28.272,28.272,0,0,0,18.017,9.458c11.51,1.208,18.345-4.909,18.345-4.909l.8-5.358a19.633,19.633,0,0,1-15.2,5.438c-9.819-.563-19.721-7.95-19.721-7.95" transform="translate(99.225 133.36)" fill="#3a3a3a"/>
      <path id="Trazado_699637" data-name="Trazado 699637" d="M95.683,108.3s-2.787,4.1-2.247,6.4,3.659.972,3.659.972l1.6-5.257Z" transform="translate(97.67 88.815)" fill="#3a3a3a"/>
    </g>
  </g>
</svg>
