<svg xmlns="http://www.w3.org/2000/svg" width="505" height="284.309" viewBox="0 0 505 284.309">
  <g id="Grupo_936370" data-name="Grupo 936370" transform="translate(-253.187 -192.001)">
    <path id="Trazado_677912" data-name="Trazado 677912" d="M758.187,314.618c0,4.4-113.048,7.961-252.5,7.961s-252.5-3.565-252.5-7.961,113.05-7.964,252.5-7.964S758.187,310.222,758.187,314.618Z" transform="translate(0 153.731)" fill="#90cc3a"/>
    <g id="Grupo_936201" data-name="Grupo 936201" transform="translate(284.503 412.989)">
      <g id="Grupo_936200" data-name="Grupo 936200">
        <g id="Grupo_936199" data-name="Grupo 936199">
          <g id="Grupo_936198" data-name="Grupo 936198">
            <g id="Grupo_936197" data-name="Grupo 936197">
              <path id="Trazado_677913" data-name="Trazado 677913" d="M266.565,287.406l.826-.772,3.3,3.493a2.615,2.615,0,0,0,3.675.119l2.816-2.626a3.732,3.732,0,0,1,5.288.19l2.17,2.334a2.618,2.618,0,0,0,3.717.108l2.46-2.367a3.741,3.741,0,0,1,5.449.29l1.344,1.6a2.615,2.615,0,0,0,3.961.04l2.985-3.4.845.747-2.978,3.406a3.735,3.735,0,0,1-5.679-.066l-1.334-1.594a2.611,2.611,0,0,0-3.809-.2l-2.467,2.364a3.729,3.729,0,0,1-5.321-.15l-2.168-2.332a2.6,2.6,0,0,0-1.821-.831,2.577,2.577,0,0,0-1.868.7l-2.816,2.624a3.747,3.747,0,0,1-5.269-.168Z" transform="translate(-266.565 -286.407)" fill="#ffb502"/>
            </g>
          </g>
        </g>
      </g>
    </g>
    <g id="Grupo_936232" data-name="Grupo 936232" transform="translate(456.559 316.165)">
      <g id="Grupo_936216" data-name="Grupo 936216" transform="translate(0.046 41.203)">
        <g id="Grupo_936203" data-name="Grupo 936203" transform="translate(0.038 35.311)">
          <g id="Grupo_936202" data-name="Grupo 936202" transform="translate(0 0)">
            <rect id="Rectángulo_329502" data-name="Rectángulo 329502" width="1.663" height="3.952" transform="translate(0 0.002) rotate(-0.073)" fill="#848fb7"/>
          </g>
        </g>
        <g id="Grupo_936205" data-name="Grupo 936205" transform="translate(0.03 29.427)">
          <g id="Grupo_936204" data-name="Grupo 936204">
            <path id="Trazado_677914" data-name="Trazado 677914" d="M341.764,275.217H340.1l.007,3.953h1.662Z" transform="translate(-340.1 -275.217)" fill="#848fb7"/>
          </g>
        </g>
        <g id="Grupo_936207" data-name="Grupo 936207" transform="translate(0.025 23.541)">
          <g id="Grupo_936206" data-name="Grupo 936206" transform="translate(0 0)">
            <rect id="Rectángulo_329503" data-name="Rectángulo 329503" width="1.662" height="3.952" transform="translate(0 0.002) rotate(-0.081)" fill="#848fb7"/>
          </g>
        </g>
        <g id="Grupo_936209" data-name="Grupo 936209" transform="translate(0.021 17.657)">
          <g id="Grupo_936208" data-name="Grupo 936208">
            <rect id="Rectángulo_329504" data-name="Rectángulo 329504" width="1.663" height="3.95" fill="#848fb7"/>
          </g>
        </g>
        <g id="Grupo_936211" data-name="Grupo 936211" transform="translate(0.011 11.768)">
          <g id="Grupo_936210" data-name="Grupo 936210" transform="translate(0 0)">
            <rect id="Rectángulo_329505" data-name="Rectángulo 329505" width="1.664" height="3.954" transform="translate(0 0.002) rotate(-0.073)" fill="#848fb7"/>
          </g>
        </g>
        <g id="Grupo_936213" data-name="Grupo 936213" transform="translate(0.004 5.882)">
          <g id="Grupo_936212" data-name="Grupo 936212" transform="translate(0 0)">
            <rect id="Rectángulo_329506" data-name="Rectángulo 329506" width="1.662" height="3.951" transform="translate(0 0.002) rotate(-0.081)" fill="#848fb7"/>
          </g>
        </g>
        <g id="Grupo_936215" data-name="Grupo 936215">
          <g id="Grupo_936214" data-name="Grupo 936214">
            <rect id="Rectángulo_329507" data-name="Rectángulo 329507" width="1.663" height="3.951" fill="#848fb7"/>
          </g>
        </g>
      </g>
      <g id="Grupo_936231" data-name="Grupo 936231">
        <g id="Grupo_936218" data-name="Grupo 936218" transform="translate(0.038 35.314)">
          <g id="Grupo_936217" data-name="Grupo 936217">
            <rect id="Rectángulo_329508" data-name="Rectángulo 329508" width="1.663" height="3.952" fill="#848fb7"/>
          </g>
        </g>
        <g id="Grupo_936220" data-name="Grupo 936220" transform="translate(0.032 29.43)">
          <g id="Grupo_936219" data-name="Grupo 936219">
            <path id="Trazado_677915" data-name="Trazado 677915" d="M341.743,257.616h-1.662l0,3.95h1.662Z" transform="translate(-340.081 -257.616)" fill="#848fb7"/>
          </g>
        </g>
        <g id="Grupo_936222" data-name="Grupo 936222" transform="translate(0.022 23.541)">
          <g id="Grupo_936221" data-name="Grupo 936221" transform="translate(0 0)">
            <rect id="Rectángulo_329509" data-name="Rectángulo 329509" width="1.663" height="3.952" transform="translate(0 0.002) rotate(-0.08)" fill="#848fb7"/>
          </g>
        </g>
        <g id="Grupo_936224" data-name="Grupo 936224" transform="translate(0.016 17.655)">
          <g id="Grupo_936223" data-name="Grupo 936223" transform="translate(0 0)">
            <rect id="Rectángulo_329510" data-name="Rectángulo 329510" width="1.662" height="3.951" transform="matrix(1, -0.003, 0.003, 1, 0, 0.005)" fill="#848fb7"/>
          </g>
        </g>
        <g id="Grupo_936226" data-name="Grupo 936226" transform="translate(0.014 11.77)">
          <g id="Grupo_936225" data-name="Grupo 936225">
            <rect id="Rectángulo_329511" data-name="Rectángulo 329511" width="1.662" height="3.952" fill="#848fb7"/>
          </g>
        </g>
        <g id="Grupo_936228" data-name="Grupo 936228" transform="translate(0.005 5.883)">
          <g id="Grupo_936227" data-name="Grupo 936227" transform="translate(0 0)">
            <rect id="Rectángulo_329512" data-name="Rectángulo 329512" width="1.66" height="3.952" transform="translate(0 0.004) rotate(-0.121)" fill="#848fb7"/>
          </g>
        </g>
        <g id="Grupo_936230" data-name="Grupo 936230">
          <g id="Grupo_936229" data-name="Grupo 936229">
            <rect id="Rectángulo_329513" data-name="Rectángulo 329513" width="1.664" height="3.952" fill="#848fb7"/>
          </g>
        </g>
      </g>
    </g>
    <g id="Grupo_936238" data-name="Grupo 936238" transform="translate(619.783 302.034)">
      <g id="Grupo_936234" data-name="Grupo 936234" transform="translate(46.437 45.878)">
        <g id="Grupo_936233" data-name="Grupo 936233">
          <path id="Trazado_677916" data-name="Trazado 677916" d="M456.2,272.473a13.291,13.291,0,1,1-12.7-13.855A13.259,13.259,0,0,1,456.2,272.473Z" transform="translate(-429.635 -258.606)" fill="#cbe9f4"/>
        </g>
      </g>
      <g id="Grupo_936235" data-name="Grupo 936235">
        <path id="Trazado_677917" data-name="Trazado 677917" d="M515.75,290.793a17.99,17.99,0,0,1-5.569-15.433c.52-3.354,9.96-9.2,9.96-9.2l-14.085-15.309s-6.608,8.961-9.988,9.19a16.875,16.875,0,0,1-14.16-6.592c-2-2.746.588-13.549.588-13.549l-20.805-.894s1.629,11-.581,13.546A14.449,14.449,0,0,1,448.1,256.98c-3.331-.665-8.715-10.377-8.715-10.377l-15.939,13.392s8.626,6.992,8.717,10.367a19.13,19.13,0,0,1-7.645,15.349c-2.767,1.971-13.558-.754-13.558-.754L409.8,305.751s10.995-1.514,13.511.737a18.044,18.044,0,0,1,5.578,15.442c-.515,3.35-9.974,9.192-9.974,9.192L433,346.43s6.6-8.949,9.991-9.183a16.979,16.979,0,0,1,14.174,6.589c2,2.753-.574,13.544-.574,13.544l20.791.9s-1.648-10.99.566-13.544a14.491,14.491,0,0,1,13.029-4.427c3.317.672,8.708,10.375,8.708,10.375l15.934-13.389S507,330.3,506.894,326.919a19.184,19.184,0,0,1,7.654-15.346c2.765-1.957,13.565.768,13.565.768l1.149-20.789S518.285,293.045,515.75,290.793Zm-47.692,41.823a34.475,34.475,0,1,1,35.929-32.954A34.471,34.471,0,0,1,468.058,332.616Z" transform="translate(-409.797 -239.007)" fill="#cbe9f4"/>
      </g>
      <g id="Grupo_936237" data-name="Grupo 936237" transform="translate(33.407 33.283)">
        <g id="Grupo_936236" data-name="Grupo 936236">
          <path id="Trazado_677918" data-name="Trazado 677918" d="M476.731,280.715a26.343,26.343,0,1,1-25.183-27.465A26.33,26.33,0,0,1,476.731,280.715Z" transform="translate(-424.068 -253.225)" fill="#cbe9f4"/>
        </g>
      </g>
    </g>
    <g id="Grupo_936291" data-name="Grupo 936291" transform="translate(530.014 296.335)">
      <g id="Grupo_936239" data-name="Grupo 936239" transform="translate(81.259)">
        <rect id="Rectángulo_329514" data-name="Rectángulo 329514" width="46.023" height="169.458" fill="#64b4d7"/>
      </g>
      <g id="Grupo_936240" data-name="Grupo 936240">
        <rect id="Rectángulo_329515" data-name="Rectángulo 329515" width="81.259" height="169.458" fill="#c1e4fa"/>
      </g>
      <g id="Grupo_936241" data-name="Grupo 936241" transform="translate(93.466 125.188)">
        <rect id="Rectángulo_329516" data-name="Rectángulo 329516" width="21.605" height="36.443" fill="#848fb7"/>
      </g>
      <g id="Grupo_936242" data-name="Grupo 936242" transform="translate(96.136 129.074)">
        <rect id="Rectángulo_329517" data-name="Rectángulo 329517" width="16.269" height="1.582" fill="#464f72"/>
      </g>
      <g id="Grupo_936243" data-name="Grupo 936243" transform="translate(96.136 131.84)">
        <rect id="Rectángulo_329518" data-name="Rectángulo 329518" width="16.269" height="1.582" fill="#464f72"/>
      </g>
      <g id="Grupo_936244" data-name="Grupo 936244" transform="translate(96.136 134.67)">
        <rect id="Rectángulo_329519" data-name="Rectángulo 329519" width="16.269" height="1.586" fill="#464f72"/>
      </g>
      <g id="Grupo_936245" data-name="Grupo 936245" transform="translate(96.136 137.437)">
        <rect id="Rectángulo_329520" data-name="Rectángulo 329520" width="16.269" height="1.586" fill="#464f72"/>
      </g>
      <g id="Grupo_936246" data-name="Grupo 936246" transform="translate(96.136 140.257)">
        <rect id="Rectángulo_329521" data-name="Rectángulo 329521" width="16.269" height="1.582" fill="#464f72"/>
      </g>
      <g id="Grupo_936247" data-name="Grupo 936247" transform="translate(96.136 143.023)">
        <rect id="Rectángulo_329522" data-name="Rectángulo 329522" width="16.269" height="1.582" fill="#464f72"/>
      </g>
      <g id="Grupo_936248" data-name="Grupo 936248" transform="translate(96.136 145.853)">
        <rect id="Rectángulo_329523" data-name="Rectángulo 329523" width="16.269" height="1.582" fill="#464f72"/>
      </g>
      <g id="Grupo_936249" data-name="Grupo 936249" transform="translate(96.136 148.619)">
        <rect id="Rectángulo_329524" data-name="Rectángulo 329524" width="16.269" height="1.586" fill="#464f72"/>
      </g>
      <g id="Grupo_936250" data-name="Grupo 936250" transform="translate(96.136 151.984)">
        <rect id="Rectángulo_329525" data-name="Rectángulo 329525" width="16.269" height="1.586" fill="#464f72"/>
      </g>
      <g id="Grupo_936251" data-name="Grupo 936251" transform="translate(96.136 154.819)">
        <rect id="Rectángulo_329526" data-name="Rectángulo 329526" width="16.269" height="1.582" fill="#464f72"/>
      </g>
      <g id="Grupo_936252" data-name="Grupo 936252" transform="translate(96.136 157.585)">
        <rect id="Rectángulo_329527" data-name="Rectángulo 329527" width="16.269" height="1.586" fill="#464f72"/>
      </g>
      <g id="Grupo_936256" data-name="Grupo 936256" transform="translate(93.194 23.55)">
        <g id="Grupo_936253" data-name="Grupo 936253">
          <path id="Trazado_677919" data-name="Trazado 677919" d="M411.26,268.788h22.153l-11.078-22.156Z" transform="translate(-411.26 -246.633)" fill="#6d76a1"/>
        </g>
        <g id="Grupo_936254" data-name="Grupo 936254" transform="translate(2.142 3.255)">
          <path id="Trazado_677920" data-name="Trazado 677920" d="M430.042,265.42l-8.934-17.4-8.933,17.4Z" transform="translate(-412.175 -248.023)" fill="#ffcf03"/>
        </g>
        <g id="Grupo_936255" data-name="Grupo 936255" transform="translate(10.454 7.173)">
          <path id="Trazado_677921" data-name="Trazado 677921" d="M418.165,261.731l.169-7.855-2.025,2.734-.549-6.913-.034,9.011,1.637-2.277Z" transform="translate(-415.726 -249.697)" fill="#6d76a1"/>
        </g>
      </g>
      <g id="Grupo_936257" data-name="Grupo 936257" transform="translate(9.132 14.013)">
        <rect id="Rectángulo_329528" data-name="Rectángulo 329528" width="62.062" height="25.918" fill="#6d76a1"/>
      </g>
      <g id="Grupo_936258" data-name="Grupo 936258" transform="translate(12.296 17.071)">
        <rect id="Rectángulo_329529" data-name="Rectángulo 329529" width="44.965" height="12.961" fill="#464f72"/>
      </g>
      <g id="Grupo_936259" data-name="Grupo 936259" transform="translate(9.132 46.309)">
        <rect id="Rectángulo_329530" data-name="Rectángulo 329530" width="62.062" height="7.041" fill="#6d76a1"/>
      </g>
      <g id="Grupo_936260" data-name="Grupo 936260" transform="translate(66.547 61.73)">
        <rect id="Rectángulo_329531" data-name="Rectángulo 329531" width="4.647" height="25.795" fill="#6d76a1"/>
      </g>
      <g id="Grupo_936261" data-name="Grupo 936261" transform="translate(58.278 61.73)">
        <rect id="Rectángulo_329532" data-name="Rectángulo 329532" width="4.652" height="25.795" fill="#6d76a1"/>
      </g>
      <g id="Grupo_936262" data-name="Grupo 936262" transform="translate(50.012 61.73)">
        <rect id="Rectángulo_329533" data-name="Rectángulo 329533" width="4.647" height="25.795" fill="#6d76a1"/>
      </g>
      <g id="Grupo_936263" data-name="Grupo 936263" transform="translate(41.744 61.73)">
        <rect id="Rectángulo_329534" data-name="Rectángulo 329534" width="4.652" height="25.795" fill="#6d76a1"/>
      </g>
      <g id="Grupo_936264" data-name="Grupo 936264" transform="translate(34.769 61.73)">
        <rect id="Rectángulo_329535" data-name="Rectángulo 329535" width="4.652" height="25.795" fill="#6d76a1"/>
      </g>
      <g id="Grupo_936265" data-name="Grupo 936265" transform="translate(26.503 61.73)">
        <rect id="Rectángulo_329536" data-name="Rectángulo 329536" width="4.652" height="25.795" fill="#6d76a1"/>
      </g>
      <g id="Grupo_936266" data-name="Grupo 936266" transform="translate(18.24 61.73)">
        <rect id="Rectángulo_329537" data-name="Rectángulo 329537" width="4.647" height="25.795" fill="#6d76a1"/>
      </g>
      <g id="Grupo_936267" data-name="Grupo 936267" transform="translate(9.971 61.73)">
        <rect id="Rectángulo_329538" data-name="Rectángulo 329538" width="4.652" height="25.795" fill="#6d76a1"/>
      </g>
      <g id="Grupo_936268" data-name="Grupo 936268" transform="translate(12.004 84.727)">
        <rect id="Rectángulo_329539" data-name="Rectángulo 329539" width="0.585" height="51.53" fill="#6d76a1"/>
      </g>
      <g id="Grupo_936269" data-name="Grupo 936269" transform="translate(20.269 84.727)">
        <rect id="Rectángulo_329540" data-name="Rectángulo 329540" width="0.585" height="51.53" fill="#6d76a1"/>
      </g>
      <g id="Grupo_936270" data-name="Grupo 936270" transform="translate(28.536 84.727)">
        <rect id="Rectángulo_329541" data-name="Rectángulo 329541" width="0.585" height="51.53" fill="#6d76a1"/>
      </g>
      <g id="Grupo_936271" data-name="Grupo 936271" transform="translate(36.804 84.727)">
        <rect id="Rectángulo_329542" data-name="Rectángulo 329542" width="0.585" height="51.53" fill="#6d76a1"/>
      </g>
      <g id="Grupo_936272" data-name="Grupo 936272" transform="translate(43.778 84.727)">
        <rect id="Rectángulo_329543" data-name="Rectángulo 329543" width="0.585" height="51.53" fill="#6d76a1"/>
      </g>
      <g id="Grupo_936273" data-name="Grupo 936273" transform="translate(52.044 84.727)">
        <rect id="Rectángulo_329544" data-name="Rectángulo 329544" width="0.585" height="51.53" fill="#6d76a1"/>
      </g>
      <g id="Grupo_936274" data-name="Grupo 936274" transform="translate(60.31 84.727)">
        <rect id="Rectángulo_329545" data-name="Rectángulo 329545" width="0.585" height="51.53" fill="#6d76a1"/>
      </g>
      <g id="Grupo_936275" data-name="Grupo 936275" transform="translate(68.577 84.727)">
        <rect id="Rectángulo_329546" data-name="Rectángulo 329546" width="0.585" height="51.53" fill="#6d76a1"/>
      </g>
      <g id="Grupo_936276" data-name="Grupo 936276" transform="translate(9.132 135.699)">
        <rect id="Rectángulo_329547" data-name="Rectángulo 329547" width="62.062" height="3.123" fill="#6d76a1"/>
      </g>
      <g id="Grupo_936277" data-name="Grupo 936277" transform="translate(56.579 49.817)">
        <path id="Trazado_677922" data-name="Trazado 677922" d="M408.113,272.877l-.035-4.518a2.1,2.1,0,0,0-.6-1.468,1.727,1.727,0,0,0-1.215-.513h-.014l-7.741.061a2.8,2.8,0,0,1-2.018-.878,3.062,3.062,0,0,1-.829-2.1l-.042-5.606,1.17-.007.042,5.6a1.9,1.9,0,0,0,.508,1.3,1.582,1.582,0,0,0,1.149.513h.012l7.739-.061h.026a2.9,2.9,0,0,1,2.034.845,3.271,3.271,0,0,1,.95,2.3l.035,4.518Z" transform="translate(-395.618 -257.854)" fill="#6d76a1"/>
      </g>
      <g id="Grupo_936278" data-name="Grupo 936278" transform="translate(39.892 49.807)">
        <path id="Trazado_677923" data-name="Trazado 677923" d="M400.982,272.878l-.033-4.522a2.076,2.076,0,0,0-.557-1.421,1.717,1.717,0,0,0-1.259-.559h-.016l-7.736.061h-.026a2.733,2.733,0,0,1-2-.878,3.071,3.071,0,0,1-.829-2.09l-.04-5.609,1.17-.009.04,5.609a1.892,1.892,0,0,0,.51,1.294,1.559,1.559,0,0,0,1.161.513l7.736-.061h.026a2.892,2.892,0,0,1,2.109.925,3.229,3.229,0,0,1,.878,2.217l.033,4.522Z" transform="translate(-388.489 -257.85)" fill="#6d76a1"/>
      </g>
      <g id="Grupo_936279" data-name="Grupo 936279" transform="translate(25.24 49.798)">
        <path id="Trazado_677924" data-name="Trazado 677924" d="M393.7,272.879l-.033-4.523a1.841,1.841,0,0,0-1.625-1.98h-.009l-7.1.056h-.019a2.459,2.459,0,0,1-1.735-.737,3.179,3.179,0,0,1-.911-2.236l-.044-5.6,1.17-.009.044,5.6a2.017,2.017,0,0,0,.559,1.414,1.3,1.3,0,0,0,.915.4h.009l7.1-.056h.019a3,3,0,0,1,2.795,3.141l.033,4.522Z" transform="translate(-382.23 -257.846)" fill="#6d76a1"/>
      </g>
      <g id="Grupo_936280" data-name="Grupo 936280" transform="translate(10.568 49.793)">
        <path id="Trazado_677925" data-name="Trazado 677925" d="M385.906,272.886l-.033-4.518a2.523,2.523,0,0,0-.454-1.472,1.158,1.158,0,0,0-.876-.508h-.007l-6.145.042h-.019a2.09,2.09,0,0,1-1.458-.632,3.306,3.306,0,0,1-.908-2.341l-.044-5.6,1.17-.009.044,5.6a2.17,2.17,0,0,0,.562,1.519.934.934,0,0,0,.637.293h.007l6.145-.042h.019a2.286,2.286,0,0,1,1.807.974,3.666,3.666,0,0,1,.691,2.168l.033,4.518Z" transform="translate(-375.962 -257.844)" fill="#6d76a1"/>
      </g>
      <g id="Grupo_936281" data-name="Grupo 936281" transform="translate(9.132 143.81)">
        <rect id="Rectángulo_329548" data-name="Rectángulo 329548" width="62.062" height="9.761" fill="#6d76a1"/>
      </g>
      <g id="Grupo_936282" data-name="Grupo 936282" transform="translate(66.547 97.889)">
        <rect id="Rectángulo_329549" data-name="Rectángulo 329549" width="4.647" height="6.712" fill="#6d76a1"/>
      </g>
      <g id="Grupo_936283" data-name="Grupo 936283" transform="translate(58.278 116.899)">
        <rect id="Rectángulo_329550" data-name="Rectángulo 329550" width="4.652" height="6.712" fill="#6d76a1"/>
      </g>
      <g id="Grupo_936284" data-name="Grupo 936284" transform="translate(50.012 101.245)">
        <rect id="Rectángulo_329551" data-name="Rectángulo 329551" width="4.647" height="6.707" fill="#6d76a1"/>
      </g>
      <g id="Grupo_936285" data-name="Grupo 936285" transform="translate(41.746 126.51)">
        <rect id="Rectángulo_329552" data-name="Rectángulo 329552" width="4.65" height="6.712" fill="#6d76a1"/>
      </g>
      <g id="Grupo_936286" data-name="Grupo 936286" transform="translate(34.769 94.533)">
        <rect id="Rectángulo_329553" data-name="Rectángulo 329553" width="4.652" height="6.712" fill="#6d76a1"/>
      </g>
      <g id="Grupo_936287" data-name="Grupo 936287" transform="translate(18.772 97.889)">
        <rect id="Rectángulo_329554" data-name="Rectángulo 329554" width="4.652" height="6.712" fill="#6d76a1"/>
      </g>
      <g id="Grupo_936288" data-name="Grupo 936288" transform="translate(9.971 123.154)">
        <rect id="Rectángulo_329555" data-name="Rectángulo 329555" width="4.652" height="6.712" fill="#6d76a1"/>
      </g>
      <g id="Grupo_936289" data-name="Grupo 936289" transform="translate(79.021 16.349)">
        <rect id="Rectángulo_329556" data-name="Rectángulo 329556" width="2.978" height="40.96" fill="#c1e4fa"/>
      </g>
      <g id="Grupo_936290" data-name="Grupo 936290" transform="translate(79.021 110.279)">
        <rect id="Rectángulo_329557" data-name="Rectángulo 329557" width="2.978" height="40.964" fill="#c1e4fa"/>
      </g>
    </g>
    <g id="Grupo_936294" data-name="Grupo 936294" transform="translate(506.568 348.899)">
      <g id="Grupo_936292" data-name="Grupo 936292">
        <path id="Trazado_677926" data-name="Trazado 677926" d="M362.135,263.064a6.354,6.354,0,0,1,7.465-1.416c4.431,2.381,10.1,10.934,17.039,10.712,6.971-.239,9.153-4.389,10.992-6.969,1.831-2.6,1.341-4.485,2.582-5.871s2.818.143.875,5c-.927,2.327-4.141,14.352-12.364,16.156C377.945,283.047,357.372,269.3,362.135,263.064Z" transform="translate(-361.431 -259.028)" fill="#fbc6b4"/>
      </g>
      <g id="Grupo_936293" data-name="Grupo 936293" transform="translate(0.228 0.236)">
        <path id="Trazado_677927" data-name="Trazado 677927" d="M363.084,260.541s-4.143,3.635,1.093,9.953,8.394,8.354,8.394,8.354,4.958-2.067,9.012-9.45C381.584,269.4,368.185,254.586,363.084,260.541Z" transform="translate(-361.528 -259.129)" fill="#eda503"/>
      </g>
    </g>
    <g id="Grupo_936295" data-name="Grupo 936295" transform="translate(490.507 347.732)">
      <path id="Trazado_677928" data-name="Trazado 677928" d="M355.625,273.988c3.076,11.365,1.379,19.352,0,23.682,3.209,1.032,1.3,2.753,1.21,2.968-4.534,9.412,23.659,3.834,28.614-3.787,1.7-2.619.075-5.948.379-10.976.11-1.133.138-2.278.15-3.4a62.992,62.992,0,0,0-.932-13.612c-2.214-10.386-11.983-10.894-17.928-10.061-2.7.37-6.222.826-8.926,2.418l-.014.023C355.028,263.147,353.341,265.535,355.625,273.988Z" transform="translate(-354.57 -258.529)" fill="#ffb502"/>
    </g>
    <g id="Grupo_936296" data-name="Grupo 936296" transform="translate(491.562 347.629)">
      <path id="Trazado_677929" data-name="Trazado 677929" d="M362.008,268.473c1.217,5.157,5.576,20.9-6.987,28.78,0,0,20.8,15.229,32.7,2.053,0,0-2.392-22.481-5.719-31.4-.953-2.566-3.49-10.442-8.057-9.3,0,0,8.027,12.643,4.366,15.979s-7.118.536-8.736-1.978c-2.589-4.047-5.356-13.406-5.356-13.406l-4.855,1.236A52.274,52.274,0,0,1,362.008,268.473Z" transform="translate(-355.021 -258.485)" fill="#1c2745"/>
    </g>
    <g id="Grupo_936300" data-name="Grupo 936300" transform="translate(498.31 328.945)">
      <g id="Grupo_936297" data-name="Grupo 936297" transform="translate(3.658 11.527)">
        <path id="Trazado_677930" data-name="Trazado 677930" d="M360.053,255.428s2.664,4.188-.171,6.976c-2.914,2.858,10.48,7.91,9.831,5.337-.831-3.319-2.809-5.094-1.662-9.176Z" transform="translate(-359.466 -255.428)" fill="#f7b2a0"/>
      </g>
      <g id="Grupo_936298" data-name="Grupo 936298" transform="translate(1.734 1.132)">
        <path id="Trazado_677931" data-name="Trazado 677931" d="M367.175,251.991c3.221,2.336,7.825,13.816,5.155,16.826-1.18,1.306-6.742.712-10.824-4.075-1.681-1.952-3.935-5.756-2.287-10.07C359.973,252.709,363.437,249.28,367.175,251.991Z" transform="translate(-358.645 -250.987)" fill="#fbc6b4"/>
      </g>
      <g id="Grupo_936299" data-name="Grupo 936299">
        <path id="Trazado_677932" data-name="Trazado 677932" d="M371.275,253.7c.824,1.409.686,1.774-3.715,3.036s-5.206,1.06-4.612,2.067c1.746,2.975-1.533,2.769.592,6.3s-1.941,1.751-3.989-1.1c-.4-.58-2.68-3.347-1.093-8.289C360.3,249.943,368.225,248.529,371.275,253.7Z" transform="translate(-357.904 -250.504)" fill="#1d1b3a"/>
      </g>
    </g>
    <g id="Grupo_936301" data-name="Grupo 936301" transform="translate(502.763 329.976)">
      <path id="Trazado_677933" data-name="Trazado 677933" d="M359.806,260.827s13.619-3.848,12.985-8.092c-.391-2.619-8.294-1.592-8.294-1.592Z" transform="translate(-359.806 -250.944)" fill="#eda503"/>
    </g>
    <g id="Grupo_936302" data-name="Grupo 936302" transform="translate(497.368 327.329)">
      <path id="Trazado_677934" data-name="Trazado 677934" d="M371.815,254.626c-1.089,4.1-4.3,6.351-12.65,9.017,0,0-4.518-8.1,1.337-12.385C365.672,247.484,372.51,252,371.815,254.626Z" transform="translate(-357.501 -249.813)" fill="#ffb502"/>
    </g>
    <g id="Grupo_936307" data-name="Grupo 936307" transform="translate(479.224 381.062)">
      <g id="Grupo_936303" data-name="Grupo 936303" transform="translate(1.437 23.617)">
        <path id="Trazado_677935" data-name="Trazado 677935" d="M353.981,308.365c-2.823,11.046-6.133,34.632-.709,34.768s8.45-1.522,5.325-2.395-3.254-1.22-3.158-2.1c1.344-11.4,19.16-29.16,20.672-42.7.51-4.621.859-8.851,1.1-12.563,2.027,9.918.536,20.447.714,23.926.571,12.381,3.219,35.784,9.153,35.833,6.32.042,9.424-1.709,5.386-2.54-3.495-.742-3.347-.9-3.284-1.765.852-12.5,6.912-35.616,8.073-50.466C398.6,271.223,356.439,298.7,353.981,308.365Z" transform="translate(-350.364 -282.857)" fill="#fbc6b4"/>
      </g>
      <g id="Grupo_936304" data-name="Grupo 936304" transform="translate(34.818 81.077)">
        <path id="Trazado_677936" data-name="Trazado 677936" d="M364.629,307.4s4.714,1.866,7.624,0c0,0,5.314.714,1.978,2.008C370.879,310.709,364.43,311.779,364.629,307.4Z" transform="translate(-364.624 -307.404)" fill="#ffb502"/>
      </g>
      <g id="Grupo_936305" data-name="Grupo 936305" transform="translate(2.039 81.498)">
        <path id="Trazado_677937" data-name="Trazado 677937" d="M350.625,307.584s4.719,1.861,7.627,0c0,0,5.316.728,1.964,2.011S350.429,311.964,350.625,307.584Z" transform="translate(-350.621 -307.584)" fill="#ffb502"/>
      </g>
      <g id="Grupo_936306" data-name="Grupo 936306">
        <path id="Trazado_677938" data-name="Trazado 677938" d="M393.884,272.768c-10.805,7.21-25.913,6.472-31.8,5.335-1.589,12.851-11.248,61.077-12.338,67.7,4.742,1.573,6.32,1.9,7.692,1.9,22.9-29.534,20.274-42.2,20.517-45.915.861,4.288-1.966,25.307,2.978,45.915,1.657,1.07,6.681,2.46,10.274,0,.18-1.316,6.9-24.988,6.756-43.518C397.866,291.548,395.752,282.88,393.884,272.768Z" transform="translate(-349.75 -272.768)" fill="#1c2745"/>
      </g>
    </g>
    <g id="Grupo_936309" data-name="Grupo 936309" transform="translate(492.045 388.382)">
      <g id="Grupo_936308" data-name="Grupo 936308">
        <path id="Trazado_677939" data-name="Trazado 677939" d="M355.5,284.795a10.667,10.667,0,0,0,7.315-8.837l-.892-.063a9.585,9.585,0,0,1-6.7,8.055Z" transform="translate(-355.227 -275.895)" fill="#fff"/>
      </g>
    </g>
    <g id="Grupo_936311" data-name="Grupo 936311" transform="translate(516.441 386.722)">
      <g id="Grupo_936310" data-name="Grupo 936310">
        <path id="Trazado_677940" data-name="Trazado 677940" d="M372.969,284.09l.274-.85a9.722,9.722,0,0,1-6.7-8.055l-.894.068A10.667,10.667,0,0,0,372.969,284.09Z" transform="translate(-365.649 -275.186)" fill="#fff"/>
      </g>
    </g>
    <g id="Grupo_936312" data-name="Grupo 936312" transform="translate(407.068 440.51)">
      <rect id="Rectángulo_329558" data-name="Rectángulo 329558" width="47.114" height="27.212" fill="#c1e4fa"/>
    </g>
    <g id="Grupo_936313" data-name="Grupo 936313" transform="translate(454.181 440.51)">
      <rect id="Rectángulo_329559" data-name="Rectángulo 329559" width="18.279" height="27.212" fill="#4ca1bf"/>
    </g>
    <g id="Grupo_936314" data-name="Grupo 936314" transform="translate(409.911 431.979)">
      <rect id="Rectángulo_329560" data-name="Rectángulo 329560" width="6.767" height="13.268" fill="#c1e4fa"/>
    </g>
    <g id="Grupo_936315" data-name="Grupo 936315" transform="translate(413.295 433.876)">
      <rect id="Rectángulo_329561" data-name="Rectángulo 329561" width="50.364" height="1.623" fill="#464f72"/>
    </g>
    <g id="Grupo_936316" data-name="Grupo 936316" transform="translate(460.276 431.979)">
      <rect id="Rectángulo_329562" data-name="Rectángulo 329562" width="6.766" height="13.268" fill="#4ca1bf"/>
    </g>
    <g id="Grupo_936322" data-name="Grupo 936322" transform="translate(474.136 382.643)">
      <g id="Grupo_936317" data-name="Grupo 936317" transform="translate(0 6.986)">
        <rect id="Rectángulo_329563" data-name="Rectángulo 329563" width="38.594" height="22.293" fill="#c1e4fa"/>
      </g>
      <g id="Grupo_936318" data-name="Grupo 936318" transform="translate(38.594 6.986)">
        <rect id="Rectángulo_329564" data-name="Rectángulo 329564" width="14.971" height="22.293" fill="#4ca1bf"/>
      </g>
      <g id="Grupo_936319" data-name="Grupo 936319" transform="translate(2.329)">
        <rect id="Rectángulo_329565" data-name="Rectángulo 329565" width="5.544" height="10.867" fill="#c1e4fa"/>
      </g>
      <g id="Grupo_936320" data-name="Grupo 936320" transform="translate(5.102 1.554)">
        <rect id="Rectángulo_329566" data-name="Rectángulo 329566" width="41.255" height="1.331" fill="#464f72"/>
      </g>
      <g id="Grupo_936321" data-name="Grupo 936321" transform="translate(43.584)">
        <rect id="Rectángulo_329567" data-name="Rectángulo 329567" width="5.544" height="10.867" fill="#4ca1bf"/>
      </g>
    </g>
    <g id="Grupo_936325" data-name="Grupo 936325" transform="translate(483.658 349.557)">
      <g id="Grupo_936323" data-name="Grupo 936323" transform="translate(1.984 1.712)">
        <path id="Trazado_677941" data-name="Trazado 677941" d="M362.832,260.211c1.21.389,3.441,2.355,2.867,5.9-.761,4.745-6.706,12.526-4.331,18.708,2.385,6.2,6.809,6.877,9.714,7.732s4.455-.183,6.093.489.749,2.6-4.237,2.36c-2.385-.115-14.23.749-18.427-6.1C349.014,280.318,355.725,257.865,362.832,260.211Z" transform="translate(-352.492 -260.04)" fill="#fbc6b4"/>
      </g>
      <g id="Grupo_936324" data-name="Grupo 936324">
        <path id="Trazado_677942" data-name="Trazado 677942" d="M363.894,259.323s-3.287-.613-7.35,6.093c-4.052,6.688-4.9,10.164-4.9,10.164s3.413,3.827,11.33,5.18C362.974,280.761,371.9,263.244,363.894,259.323Z" transform="translate(-351.644 -259.309)" fill="#eda503"/>
      </g>
    </g>
    <g id="Grupo_936332" data-name="Grupo 936332" transform="translate(503.429 306.17)">
      <g id="Grupo_936328" data-name="Grupo 936328" transform="translate(0 0)">
        <g id="Grupo_936327" data-name="Grupo 936327">
          <g id="Grupo_936326" data-name="Grupo 936326">
            <rect id="Rectángulo_329568" data-name="Rectángulo 329568" width="2.203" height="10.424" transform="matrix(0.701, -0.713, 0.713, 0.701, 0, 1.57)" fill="#ffb502"/>
          </g>
        </g>
      </g>
      <g id="Grupo_936331" data-name="Grupo 936331" transform="translate(0.07 0.014)">
        <g id="Grupo_936330" data-name="Grupo 936330" transform="translate(0 0)">
          <g id="Grupo_936329" data-name="Grupo 936329">
            <rect id="Rectángulo_329569" data-name="Rectángulo 329569" width="10.31" height="2.202" transform="translate(0 7.301) rotate(-45.086)" fill="#ffb502"/>
          </g>
        </g>
      </g>
    </g>
    <g id="Grupo_936354" data-name="Grupo 936354" transform="translate(592.431 275.287)">
      <g id="Grupo_936335" data-name="Grupo 936335" transform="translate(0 1.058)">
        <g id="Grupo_936334" data-name="Grupo 936334">
          <g id="Grupo_936333" data-name="Grupo 936333">
            <path id="Trazado_677943" data-name="Trazado 677943" d="M400.1,231.055l.957-1.06s-.475-.475-.95-.941c-.442-.513-.887-1.021-.887-1.021l-1.11.9s.473.548.953,1.1C399.584,230.545,400.1,231.055,400.1,231.055Z" transform="translate(-398.112 -228.033)" fill="#fbe366"/>
          </g>
        </g>
      </g>
      <g id="Grupo_936338" data-name="Grupo 936338" transform="translate(3.141 3.806)">
        <g id="Grupo_936337" data-name="Grupo 936337">
          <g id="Grupo_936336" data-name="Grupo 936336">
            <path id="Trazado_677944" data-name="Trazado 677944" d="M402.242,231.648l.3-1.4a5.987,5.987,0,0,1-1.173-.4,5.093,5.093,0,0,1-.768-.421l-.337-.22-.812,1.18.4.25a5.205,5.205,0,0,0,.925.5A7.346,7.346,0,0,0,402.242,231.648Z" transform="translate(-399.454 -229.207)" fill="#fbe366"/>
          </g>
        </g>
      </g>
      <g id="Grupo_936341" data-name="Grupo 936341" transform="translate(7.42 4.347)">
        <g id="Grupo_936340" data-name="Grupo 936340">
          <g id="Grupo_936339" data-name="Grupo 936339">
            <path id="Trazado_677945" data-name="Trazado 677945" d="M404.295,230.749l-.569-1.311a7.691,7.691,0,0,1-1.212.428,5.445,5.445,0,0,1-1.231.183l.047,1.433a7.047,7.047,0,0,0,1.538-.229A9.628,9.628,0,0,0,404.295,230.749Z" transform="translate(-401.282 -229.438)" fill="#fbe366"/>
          </g>
        </g>
      </g>
      <g id="Grupo_936344" data-name="Grupo 936344" transform="translate(11.025 2.32)">
        <g id="Grupo_936343" data-name="Grupo 936343">
          <g id="Grupo_936342" data-name="Grupo 936342">
            <path id="Trazado_677946" data-name="Trazado 677946" d="M405.935,229.775l-.768-1.2s-.59.372-1.177.747l-1.168.7.7,1.248,1.236-.737Z" transform="translate(-402.822 -228.572)" fill="#fbe366"/>
          </g>
        </g>
      </g>
      <g id="Grupo_936347" data-name="Grupo 936347" transform="translate(14.553 0.328)">
        <g id="Grupo_936346" data-name="Grupo 936346">
          <g id="Grupo_936345" data-name="Grupo 936345">
            <path id="Trazado_677947" data-name="Trazado 677947" d="M407.426,229.083,407,227.721a12.26,12.26,0,0,0-1.393.562c-.66.325-1.276.7-1.276.7l.728,1.234s.585-.346,1.173-.644A10.87,10.87,0,0,1,407.426,229.083Z" transform="translate(-404.329 -227.721)" fill="#fbe366"/>
          </g>
        </g>
      </g>
      <g id="Grupo_936350" data-name="Grupo 936350" transform="translate(18.703)">
        <g id="Grupo_936349" data-name="Grupo 936349">
          <g id="Grupo_936348" data-name="Grupo 936348">
            <path id="Trazado_677948" data-name="Trazado 677948" d="M408.586,229.444l.59-1.3a6.046,6.046,0,0,0-1.5-.471,5.715,5.715,0,0,0-1.575-.068l.133,1.426a4,4,0,0,1,1.194.051A5.019,5.019,0,0,1,408.586,229.444Z" transform="translate(-406.102 -227.581)" fill="#fbe366"/>
          </g>
        </g>
      </g>
      <g id="Grupo_936353" data-name="Grupo 936353" transform="translate(22.245 1.316)">
        <g id="Grupo_936352" data-name="Grupo 936352">
          <g id="Grupo_936351" data-name="Grupo 936351">
            <path id="Trazado_677949" data-name="Trazado 677949" d="M409.539,231.081l1.074-.946s-.5-.529-1.016-1.056c-.283-.239-.564-.485-.777-.662a4.49,4.49,0,0,0-.384-.274l-.822,1.17a3.511,3.511,0,0,1,.325.232c.187.157.433.37.681.581C409.085,230.6,409.539,231.081,409.539,231.081Z" transform="translate(-407.615 -228.143)" fill="#fbe366"/>
          </g>
        </g>
      </g>
    </g>
    <g id="Grupo_936357" data-name="Grupo 936357" transform="translate(428.345 419.392)">
      <g id="Grupo_936356" data-name="Grupo 936356">
        <g id="Grupo_936355" data-name="Grupo 936355">
          <rect id="Rectángulo_329570" data-name="Rectángulo 329570" width="20.265" height="1.563" fill="#27355c"/>
        </g>
      </g>
    </g>
    <g id="Grupo_936360" data-name="Grupo 936360" transform="translate(436.257 414.272)">
      <g id="Grupo_936359" data-name="Grupo 936359">
        <g id="Grupo_936358" data-name="Grupo 936358">
          <rect id="Rectángulo_329571" data-name="Rectángulo 329571" width="11.172" height="1.568" fill="#27355c"/>
        </g>
      </g>
    </g>
    <path id="Trazado_677950" data-name="Trazado 677950" d="M292.042,395.176H329.85L322.21,246.73H310.947Z" transform="translate(52.098 73.383)" fill="#ae6a44"/>
    <path id="Trazado_677951" data-name="Trazado 677951" d="M292.042,395.176h21.772L310.947,246.73h0Z" transform="translate(52.098 73.383)" fill="#9b5a3a"/>
    <path id="Trazado_677952" data-name="Trazado 677952" d="M302.292,230.627c0,9.1,7.971,16.486,17.807,16.486s17.807-7.383,17.807-16.486-7.973-16.489-17.807-16.489S302.292,221.521,302.292,230.627Z" transform="translate(65.841 29.682)" fill="#90cc3a"/>
    <path id="Trazado_677953" data-name="Trazado 677953" d="M292.571,225.2c0,15.236,13.34,27.591,29.8,27.591s29.794-12.355,29.794-27.591-13.338-27.594-29.794-27.594S292.571,209.962,292.571,225.2Z" transform="translate(52.807 7.517)" fill="#90cc3a"/>
    <ellipse id="Elipse_5316" data-name="Elipse 5316" cx="21.986" cy="20.358" rx="21.986" ry="20.358" transform="translate(325.793 192.001)" fill="#90cc3a"/>
    <path id="Trazado_677954" data-name="Trazado 677954" d="M273.26,227.012c0,5.62,4.92,10.178,10.992,10.178s10.992-4.558,10.992-10.178-4.92-10.178-10.992-10.178S273.26,221.387,273.26,227.012Z" transform="translate(26.914 33.297)" fill="#90cc3a"/>
    <path id="Trazado_677955" data-name="Trazado 677955" d="M275.277,229.726c0,15.239,13.343,27.594,29.8,27.594s29.8-12.355,29.8-27.594-13.338-27.591-29.8-27.591S275.277,214.49,275.277,229.726Z" transform="translate(29.619 13.588)" fill="#90cc3a"/>
    <path id="Trazado_677956" data-name="Trazado 677956" d="M282.652,243.526c0,15.239,13.343,27.594,29.8,27.594s29.8-12.355,29.8-27.594-13.343-27.591-29.8-27.591S282.652,228.29,282.652,243.526Z" transform="translate(39.507 32.091)" fill="#90cc3a"/>
    <path id="Trazado_677957" data-name="Trazado 677957" d="M299.419,253.494c0,18.125,15.868,32.816,35.442,32.816S370.3,271.619,370.3,253.494s-15.864-32.816-35.438-32.816S299.419,235.371,299.419,253.494Z" transform="translate(61.989 38.451)" fill="#90cc3a"/>
    <path id="Trazado_677958" data-name="Trazado 677958" d="M302.366,278.283c0,18.125,15.866,32.816,35.44,32.816s35.438-14.691,35.438-32.816-15.866-32.818-35.438-32.818S302.366,260.158,302.366,278.283Z" transform="translate(65.94 71.686)" fill="#90cc3a"/>
    <path id="Trazado_677959" data-name="Trazado 677959" d="M280.242,281.805c0,18.123,15.866,32.816,35.44,32.816s35.442-14.693,35.442-32.816-15.869-32.818-35.442-32.818S280.242,263.68,280.242,281.805Z" transform="translate(36.276 76.408)" fill="#90cc3a"/>
    <path id="Trazado_677960" data-name="Trazado 677960" d="M274.309,240.009c0,11.847,10.368,21.449,23.163,21.449s23.169-9.6,23.169-21.449-10.372-21.451-23.169-21.451S274.309,228.165,274.309,240.009Z" transform="translate(28.321 35.608)" fill="#90cc3a"/>
    <path id="Trazado_677961" data-name="Trazado 677961" d="M288.009,266.295c0,20.255,17.734,36.676,39.609,36.676s39.611-16.421,39.611-36.676-17.734-36.676-39.611-36.676S288.009,246.04,288.009,266.295Z" transform="translate(46.69 50.439)" fill="#90cc3a"/>
    <path id="Trazado_677962" data-name="Trazado 677962" d="M318.03,256.015c0,10.424,9.132,18.879,20.393,18.879s20.391-8.455,20.391-18.879-9.129-18.883-20.391-18.883S318.03,245.587,318.03,256.015Z" transform="translate(86.943 60.513)" fill="#90cc3a"/>
    <path id="Trazado_677963" data-name="Trazado 677963" d="M301.343,235.714c0-7.36,6.442-13.326,14.394-13.326a14.329,14.329,0,0,1,13.7,9.251,23.124,23.124,0,0,1,2.842-.178c11.781,0,21.334,8.844,21.334,19.754a18.966,18.966,0,0,1-6.025,13.745,9.348,9.348,0,0,1,2.219,6.007c0,5.435-4.757,9.845-10.632,9.845s-10.63-4.41-10.63-9.845c0-.105.012-.2.014-.3-10.009-1.632-17.615-9.717-17.615-19.448a18.37,18.37,0,0,1,.225-2.865A13.461,13.461,0,0,1,301.343,235.714Z" transform="translate(64.569 40.744)" opacity="0.2" style="mix-blend-mode: overlay;isolation: isolate"/>
    <path id="Trazado_677964" data-name="Trazado 677964" d="M297.027,242.95c0-7.362,6.447-13.331,14.4-13.331a14.327,14.327,0,0,1,13.7,9.253,23.206,23.206,0,0,1,2.842-.18c11.779,0,21.332,8.844,21.332,19.754a18.958,18.958,0,0,1-6.021,13.748,9.34,9.34,0,0,1,2.219,6c0,5.44-4.761,9.848-10.634,9.848s-10.632-4.408-10.632-9.848c0-.1.012-.2.016-.3-10.007-1.632-17.612-9.717-17.612-19.448a18.676,18.676,0,0,1,.222-2.865A13.464,13.464,0,0,1,297.027,242.95Z" transform="translate(58.782 50.439)" fill="#90cc3a"/>
    <path id="Trazado_677965" data-name="Trazado 677965" d="M318.49,208.478c0-4.93-4.314-8.926-9.637-8.926a9.6,9.6,0,0,0-9.176,6.2,15.428,15.428,0,0,0-1.9-.119c-7.891,0-14.286,5.92-14.286,13.226a12.7,12.7,0,0,0,4.033,9.206,6.245,6.245,0,0,0-1.486,4.019,7.141,7.141,0,0,0,14.239,0c0-.07-.009-.136-.012-.206,6.7-1.091,11.793-6.5,11.793-13.02a12.678,12.678,0,0,0-.147-1.919A9.01,9.01,0,0,0,318.49,208.478Z" transform="translate(40.631 10.125)" opacity="0.2" style="mix-blend-mode: overlay;isolation: isolate"/>
    <path id="Trazado_677966" data-name="Trazado 677966" d="M321.381,213.32c0-4.93-4.319-8.926-9.64-8.926a9.6,9.6,0,0,0-9.176,6.194,15.918,15.918,0,0,0-1.9-.119c-7.891,0-14.284,5.922-14.284,13.226a12.681,12.681,0,0,0,4.033,9.2,6.259,6.259,0,0,0-1.486,4.024,7.142,7.142,0,0,0,14.241,0c0-.073-.009-.138-.014-.206,6.7-1.091,11.793-6.505,11.793-13.022a12.344,12.344,0,0,0-.152-1.917A9.016,9.016,0,0,0,321.381,213.32Z" transform="translate(44.505 16.617)" fill="#90cc3a"/>
    <path id="Trazado_677967" data-name="Trazado 677967" d="M266.409,262.062c0,16.772,14.689,30.372,32.807,30.372s32.8-13.6,32.8-30.372-14.684-30.375-32.8-30.375S266.409,245.285,266.409,262.062Z" transform="translate(17.728 53.212)" fill="#90cc3a"/>
    <ellipse id="Elipse_5317" data-name="Elipse 5317" cx="33.608" cy="31.119" rx="33.608" ry="31.119" transform="translate(288.552 320.113)" fill="#90cc3a"/>
    <path id="Trazado_677968" data-name="Trazado 677968" d="M322.35,250.161c0-6.491-5.686-11.751-12.692-11.751a12.627,12.627,0,0,0-12.081,8.158,20.554,20.554,0,0,0-2.5-.159c-10.391,0-18.811,7.8-18.811,17.416a16.711,16.711,0,0,0,5.309,12.121,8.246,8.246,0,0,0-1.959,5.3c0,4.794,4.2,8.677,9.377,8.677s9.375-3.883,9.375-8.677c0-.094-.012-.178-.016-.269,8.827-1.437,15.534-8.565,15.534-17.149a16.363,16.363,0,0,0-.2-2.526A11.868,11.868,0,0,0,322.35,250.161Z" transform="translate(30.94 62.226)" opacity="0.2" style="mix-blend-mode: overlay;isolation: isolate"/>
    <path id="Trazado_677969" data-name="Trazado 677969" d="M326.156,256.535c0-6.489-5.683-11.749-12.69-11.749a12.633,12.633,0,0,0-12.083,8.158,20.566,20.566,0,0,0-2.5-.159c-10.386,0-18.813,7.8-18.813,17.416a16.72,16.72,0,0,0,5.314,12.121,8.227,8.227,0,0,0-1.959,5.295c0,4.8,4.2,8.682,9.377,8.682s9.375-3.886,9.375-8.682c0-.091-.012-.178-.016-.269,8.825-1.435,15.531-8.563,15.531-17.146a16.64,16.64,0,0,0-.2-2.526A11.871,11.871,0,0,0,326.156,256.535Z" transform="translate(36.039 70.775)" fill="#90cc3a"/>
    <g id="Grupo_936361" data-name="Grupo 936361" transform="translate(312.642 439.684)">
      <path id="Trazado_677970" data-name="Trazado 677970" d="M278.615,300.1s14.218,5.049,11.517,23.106h-4.265S289.849,310.832,278.615,300.1Z" transform="translate(-278.547 -294.739)" fill="#90cc3a"/>
      <path id="Trazado_677971" data-name="Trazado 677971" d="M294.393,297.811s-14.221,6.17-11.517,28.24h4.265A33.223,33.223,0,0,1,294.393,297.811Z" transform="translate(-273.293 -297.811)" fill="#8bbf30"/>
      <path id="Trazado_677972" data-name="Trazado 677972" d="M294.932,300.1s-14.221,5.049-11.517,23.106h4.265S283.7,310.832,294.932,300.1Z" transform="translate(-272.57 -294.739)" fill="#90cc3a"/>
      <path id="Trazado_677973" data-name="Trazado 677973" d="M278.586,303.264s8.495,2.219,9.057,15.054l-2.374.391A19.572,19.572,0,0,0,278.586,303.264Z" transform="translate(-278.586 -290.499)" fill="#8bbf30"/>
      <path id="Trazado_677974" data-name="Trazado 677974" d="M293.584,303.264s-8.493,2.219-9.061,15.054l2.374.391A19.585,19.585,0,0,1,293.584,303.264Z" transform="translate(-270.625 -290.499)" fill="#8bbf30"/>
    </g>
    <g id="Grupo_936362" data-name="Grupo 936362" transform="translate(374.458 440.559)">
      <path id="Trazado_677975" data-name="Trazado 677975" d="M305.023,300.476s14.22,5.049,11.517,23.106h-4.265S316.257,311.206,305.023,300.476Z" transform="translate(-304.955 -295.113)" fill="#90cc3a"/>
      <path id="Trazado_677976" data-name="Trazado 677976" d="M320.8,298.185s-14.218,6.17-11.517,28.24h4.265A33.224,33.224,0,0,1,320.8,298.185Z" transform="translate(-299.7 -298.185)" fill="#8bbf30"/>
      <path id="Trazado_677977" data-name="Trazado 677977" d="M321.339,300.476s-14.218,5.049-11.517,23.106h4.265S310.106,311.206,321.339,300.476Z" transform="translate(-298.978 -295.113)" fill="#90cc3a"/>
      <path id="Trazado_677978" data-name="Trazado 677978" d="M304.994,303.638s8.495,2.219,9.057,15.054l-2.371.391A19.579,19.579,0,0,0,304.994,303.638Z" transform="translate(-304.994 -290.873)" fill="#8bbf30"/>
      <path id="Trazado_677979" data-name="Trazado 677979" d="M319.993,303.638s-8.495,2.219-9.061,15.054l2.371.391A19.583,19.583,0,0,1,319.993,303.638Z" transform="translate(-297.032 -290.873)" fill="#8bbf30"/>
    </g>
    <g id="Grupo_936363" data-name="Grupo 936363" transform="translate(710.977 439.569)">
      <path id="Trazado_677980" data-name="Trazado 677980" d="M448.784,300.053S463,305.1,460.3,323.159h-4.265S460.018,310.783,448.784,300.053Z" transform="translate(-448.716 -294.69)" fill="#90cc3a"/>
      <path id="Trazado_677981" data-name="Trazado 677981" d="M464.562,297.762s-14.221,6.17-11.517,28.24h4.265A33.223,33.223,0,0,1,464.562,297.762Z" transform="translate(-443.462 -297.762)" fill="#8bbf30"/>
      <path id="Trazado_677982" data-name="Trazado 677982" d="M465.1,300.053s-14.221,5.049-11.517,23.106h4.265S453.867,310.783,465.1,300.053Z" transform="translate(-442.739 -294.69)" fill="#90cc3a"/>
      <path id="Trazado_677983" data-name="Trazado 677983" d="M448.755,303.215s8.495,2.219,9.057,15.056l-2.374.391A19.576,19.576,0,0,0,448.755,303.215Z" transform="translate(-448.755 -290.45)" fill="#8bbf30"/>
      <path id="Trazado_677984" data-name="Trazado 677984" d="M463.753,303.215s-8.492,2.219-9.061,15.056l2.374.391A19.589,19.589,0,0,1,463.753,303.215Z" transform="translate(-440.795 -290.45)" fill="#8bbf30"/>
    </g>
    <g id="Grupo_936366" data-name="Grupo 936366" transform="translate(674.276 442.718)">
      <g id="Grupo_936365" data-name="Grupo 936365">
        <g id="Grupo_936364" data-name="Grupo 936364">
          <rect id="Rectángulo_329572" data-name="Rectángulo 329572" width="20.263" height="1.566" fill="#27355c"/>
        </g>
      </g>
    </g>
    <g id="Grupo_936369" data-name="Grupo 936369" transform="translate(682.185 437.6)">
      <g id="Grupo_936368" data-name="Grupo 936368">
        <g id="Grupo_936367" data-name="Grupo 936367">
          <rect id="Rectángulo_329573" data-name="Rectángulo 329573" width="11.174" height="1.564" fill="#27355c"/>
        </g>
      </g>
    </g>
  </g>
</svg>
