<svg xmlns="http://www.w3.org/2000/svg" width="451.826" height="322.428" viewBox="0 0 451.826 322.428">
  <g id="Grupo_999364" data-name="Grupo 999364" transform="translate(-180 -4356.014)">
    <rect id="BG" width="451.826" height="322.428" transform="translate(180 4356.014)" fill="#e8e8e8" opacity="0.949"/>
    <g id="exactitud" transform="translate(316.443 4427.45)">
      <g id="Grupo_83355" data-name="Grupo 83355" transform="translate(3.864 3.864)">
        <g id="Grupo_83346" data-name="Grupo 83346" transform="translate(14.319)">
          <path id="Trazado_99898" data-name="Trazado 99898" d="M7,2H121.553V173.829H7Z" transform="translate(-7 -2)" fill="#e6e9ed"/>
        </g>
        <g id="Grupo_83347" data-name="Grupo 83347" transform="translate(117.417 108.825)">
          <path id="Trazado_99899" data-name="Trazado 99899" d="M65.911,45.728V68.638a11.455,11.455,0,0,1-22.911,0V45.728A5.744,5.744,0,0,1,48.728,40H60.183A5.744,5.744,0,0,1,65.911,45.728Z" transform="translate(-43 -40)" fill="#969faa"/>
        </g>
        <g id="Grupo_83348" data-name="Grupo 83348" transform="translate(120.28 96.511)">
          <path id="Trazado_99900" data-name="Trazado 99900" d="M61.183,35.7v6.587a5.744,5.744,0,0,1-5.728,5.728H49.728A5.744,5.744,0,0,1,44,42.287V35.7a42.439,42.439,0,0,0,8.591.859A42.439,42.439,0,0,0,61.183,35.7Z" transform="translate(-44 -35.7)" fill="#ccd1d9"/>
        </g>
        <g id="Grupo_83349" data-name="Grupo 83349" transform="translate(85.915 11.455)">
          <path id="Trazado_99901" data-name="Trazado 99901" d="M74.957,6a42.962,42.962,0,0,1,8.591,85.055,43.387,43.387,0,0,1-17.183,0A42.962,42.962,0,0,1,74.957,6Z" transform="translate(-32 -6)" fill="#76c2dd"/>
        </g>
        <g id="Grupo_83350" data-name="Grupo 83350" transform="translate(97.15 22.141)">
          <ellipse id="Elipse_4074" data-name="Elipse 4074" cx="31.255" cy="32.296" rx="31.255" ry="32.296" transform="translate(0 0)" fill="#ccf8ff"/>
        </g>
        <g id="Grupo_83351" data-name="Grupo 83351" transform="translate(0 68.732)">
          <path id="Trazado_99902" data-name="Trazado 99902" d="M93.642,63.23V80.413l-7.274,2.32a41.609,41.609,0,0,1-3.551,8.649l3.494,6.759L74.14,110.282l-6.759-3.465a41.608,41.608,0,0,1-8.649,3.551l-2.32,7.274H39.23l-2.32-7.274a41.607,41.607,0,0,1-8.649-3.551L21.5,110.282l-5.184-5.155L9.331,98.14l3.494-6.759a41.609,41.609,0,0,1-3.551-8.649L2,80.413V63.23l7.274-2.32a41.609,41.609,0,0,1,3.551-8.649L9.331,45.5l6.988-6.988L21.5,33.331l6.759,3.494a41.609,41.609,0,0,1,8.649-3.551L39.23,26H56.413l2.32,7.274a41.609,41.609,0,0,1,8.649,3.551l6.759-3.494L86.311,45.5l-3.494,6.759a41.609,41.609,0,0,1,3.551,8.649Z" transform="translate(-2 -26)" fill="#ee6c4d"/>
        </g>
        <g id="Grupo_83352" data-name="Grupo 83352" transform="translate(25.774 11.455)">
          <path id="Trazado_99903" data-name="Trazado 99903" d="M11,6H62.549V28.911H11Z" transform="translate(-11 -6)" fill="#ee6c4d"/>
        </g>
        <g id="Grupo_83353" data-name="Grupo 83353" transform="translate(17.972 86.732)">
          <circle id="Elipse_4075" data-name="Elipse 4075" cx="28.129" cy="28.129" r="28.129" transform="translate(0 0)" fill="#ccf8ff"/>
        </g>
        <g id="Grupo_83354" data-name="Grupo 83354" transform="translate(34.643 103.403)">
          <circle id="Elipse_4076" data-name="Elipse 4076" cx="11.46" cy="11.46" r="11.46" transform="translate(0 0)" fill="#265d99"/>
        </g>
      </g>
      <g id="Grupo_83356" data-name="Grupo 83356" transform="translate(1 1)">
        <path id="Trazado_99904" data-name="Trazado 99904" d="M38.5,94A31.5,31.5,0,1,0,7,62.5,31.539,31.539,0,0,0,38.5,94ZM12.9,65.366H24.472A14.364,14.364,0,0,0,35.638,76.532V88.107A25.807,25.807,0,0,1,12.9,65.366ZM38.5,53.911A8.591,8.591,0,1,1,29.911,62.5,8.6,8.6,0,0,1,38.5,53.911Zm2.864,34.2V76.532A14.364,14.364,0,0,0,52.532,65.366H64.107A25.807,25.807,0,0,1,41.366,88.107ZM64.107,59.638H52.532A14.364,14.364,0,0,0,41.366,48.472V36.9A25.807,25.807,0,0,1,64.107,59.638ZM35.638,36.9V48.472A14.364,14.364,0,0,0,24.472,59.638H12.9A25.807,25.807,0,0,1,35.638,36.9Z" transform="translate(10.183 54.915)"/>
        <path id="Trazado_99905" data-name="Trazado 99905" d="M35,43.366A34.366,34.366,0,1,0,69.366,9,34.4,34.4,0,0,0,35,43.366Zm63,0A28.638,28.638,0,1,1,69.366,14.728,28.671,28.671,0,0,1,98,43.366Z" transform="translate(62.37 13.911)"/>
        <path id="Trazado_99906" data-name="Trazado 99906" d="M144.191,102.588A45.757,45.757,0,0,0,135.6,12.6V1H15.319V83.93L7.707,91.542l3.757,7.3a43.258,43.258,0,0,0-2.632,6.383L1,107.737V129.1l7.83,2.509a42.877,42.877,0,0,0,2.632,6.383l-3.757,7.3,7.615,7.612v25.654H135.6v-23.2a14.344,14.344,0,0,0,11.455-14.03V118.417a8.573,8.573,0,0,0-4.012-7.243,8.5,8.5,0,0,0,1.148-4.213Zm-8.591,7.237h-5.728a2.865,2.865,0,0,1-2.864-2.864V103.7a41.4,41.4,0,0,0,11.455,0v3.262A2.865,2.865,0,0,1,135.6,109.825Zm37.23-51.549a40.093,40.093,0,1,1-40.093-40.093A40.137,40.137,0,0,1,172.829,58.276ZM17.192,136.567a37.159,37.159,0,0,1-3.3-8.01l-.418-1.481L6.728,124.92v-13l6.747-2.159.418-1.481a36.914,36.914,0,0,1,3.3-8.01l.75-1.343-3.236-6.283,9.2-9.2,6.283,3.236,1.343-.75a36.914,36.914,0,0,1,8.01-3.3l1.481-.418,2.156-6.747h13l2.159,6.747,1.481.418a36.914,36.914,0,0,1,8.01,3.3l1.343.75,6.283-3.236,9.2,9.2-3.236,6.283.75,1.343a36.914,36.914,0,0,1,3.3,8.01l.418,1.481,6.747,2.156v13l-6.747,2.159-.418,1.481a37.159,37.159,0,0,1-3.3,8.01l-.753,1.34,3.236,6.286-9.2,9.2-6.286-3.233-1.34.753a37.16,37.16,0,0,1-8.01,3.3l-1.481.418-2.156,6.747h-13l-2.159-6.747-1.481-.418a37.16,37.16,0,0,1-8.01-3.3l-1.34-.753-6.286,3.233-9.2-9.2,3.236-6.286Zm3.855,36.262v-14.2l1.764,1.764,7.3-3.754a42.877,42.877,0,0,0,6.383,2.632l2.512,7.833H60.367l2.509-7.83a42.881,42.881,0,0,0,6.383-2.632l7.3,3.754,15.1-15.1-3.757-7.3a43.006,43.006,0,0,0,2.632-6.383L98.37,129.1V107.734l-7.83-2.509a43.131,43.131,0,0,0-2.632-6.383l3.757-7.3-15.1-15.1-7.3,3.757a43.257,43.257,0,0,0-6.383-2.632l-2.514-7.833H39l-2.509,7.83a43.128,43.128,0,0,0-6.383,2.632l-7.3-3.757L21.047,78.2V6.728H129.872V12.6a45.757,45.757,0,0,0-8.591,89.987v4.373a8.5,8.5,0,0,0,1.148,4.213,8.573,8.573,0,0,0-4.012,7.243v22.911a14.346,14.346,0,0,0,11.455,14.03v17.472Zm120.28-31.5a8.591,8.591,0,1,1-17.183,0V118.416a2.865,2.865,0,0,1,2.864-2.864h11.455a2.865,2.865,0,0,1,2.864,2.864Z" transform="translate(-1 -1)"/>
        <path id="Trazado_99907" data-name="Trazado 99907" d="M44.342,32.476l-4.049,4.049L50.909,47.142l27.8-27.8-4.049-4.049-23.75,23.75Z" transform="translate(72.235 25.64)"/>
        <path id="Trazado_99908" data-name="Trazado 99908" d="M10,33.638H67.276V5H10Zm5.728-22.911H61.549V27.911H15.728Z" transform="translate(15.774 6.455)"/>
        <path id="Trazado_99909" data-name="Trazado 99909" d="M10,17h5.728v5.728H10Z" transform="translate(15.774 28.821)"/>
        <path id="Trazado_99910" data-name="Trazado 99910" d="M14,17H56.957v5.728H14Z" transform="translate(23.23 28.821)"/>
        <path id="Trazado_99911" data-name="Trazado 99911" d="M10,21H64.413v5.728H10Z" transform="translate(15.774 36.276)"/>
        <path id="Trazado_99912" data-name="Trazado 99912" d="M33,57H55.911v5.728H33Z" transform="translate(58.642 103.374)"/>
        <path id="Trazado_99913" data-name="Trazado 99913" d="M33,53H55.911v5.728H33Z" transform="translate(58.642 95.918)"/>
      </g>
    </g>
  </g>
</svg>
