<svg xmlns="http://www.w3.org/2000/svg" xmlns:xlink="http://www.w3.org/1999/xlink" width="451.826" height="275.617" viewBox="0 0 451.826 275.617">
  <defs>
    <linearGradient id="linear-gradient" y1="0.5" x2="1" y2="0.5" gradientUnits="objectBoundingBox">
      <stop offset="0" stop-color="#dae3fe"/>
      <stop offset="1" stop-color="#e9effd"/>
    </linearGradient>
    <linearGradient id="linear-gradient-5" y1="0.5" x2="1" y2="0.5" gradientUnits="objectBoundingBox">
      <stop offset="0" stop-color="#09005d"/>
      <stop offset="1" stop-color="#1a0f91"/>
    </linearGradient>
    <linearGradient id="linear-gradient-23" x1="-4.651" y1="0.5" x2="-3.651" y2="0.5" xlink:href="#linear-gradient-5"/>
    <linearGradient id="linear-gradient-26" x1="-12.127" y1="0.5" x2="-11.127" y2="0.5" xlink:href="#linear-gradient-5"/>
    <linearGradient id="linear-gradient-27" x1="12.729" y1="-0.367" x2="9.885" y2="-0.163" xlink:href="#linear-gradient-5"/>
    <linearGradient id="linear-gradient-28" x1="0.666" y1="-8.942" x2="0.228" y2="15.947" xlink:href="#linear-gradient-5"/>
    <linearGradient id="linear-gradient-29" x1="-13.337" y1="-40.221" x2="-12.357" y2="-40.021" xlink:href="#linear-gradient-5"/>
    <linearGradient id="linear-gradient-30" x1="22.839" y1="-0.356" x2="14.434" y2="-0.032" xlink:href="#linear-gradient-5"/>
    <linearGradient id="linear-gradient-31" x1="0.671" y1="-8.919" x2="0.22" y2="15.909" xlink:href="#linear-gradient-5"/>
    <linearGradient id="linear-gradient-32" x1="-13.744" y1="-43.803" x2="-12.764" y2="-43.603" xlink:href="#linear-gradient-5"/>
    <linearGradient id="linear-gradient-33" x1="-0.871" y1="2.382" x2="2.369" y2="-2.056" gradientUnits="objectBoundingBox">
      <stop offset="0" stop-color="#4042e2"/>
      <stop offset="1" stop-color="#4f52ff"/>
    </linearGradient>
    <linearGradient id="linear-gradient-34" x1="-1.531" y1="3.304" x2="1.653" y2="-1.086" xlink:href="#linear-gradient-33"/>
    <linearGradient id="linear-gradient-35" x1="-2.181" y1="4.226" x2="0.947" y2="-0.116" xlink:href="#linear-gradient-33"/>
    <linearGradient id="linear-gradient-36" x1="-0.485" y1="1.862" x2="2.754" y2="-2.601" xlink:href="#linear-gradient-33"/>
    <linearGradient id="linear-gradient-37" x1="-1.149" y1="2.792" x2="2.033" y2="-1.623" xlink:href="#linear-gradient-33"/>
    <linearGradient id="linear-gradient-38" x1="-1.803" y1="3.723" x2="1.323" y2="-0.646" xlink:href="#linear-gradient-33"/>
    <linearGradient id="linear-gradient-39" x1="-0.098" y1="1.322" x2="3.139" y2="-3.128" xlink:href="#linear-gradient-33"/>
    <linearGradient id="linear-gradient-40" x1="-0.766" y1="2.252" x2="2.415" y2="-2.151" xlink:href="#linear-gradient-33"/>
    <linearGradient id="linear-gradient-41" x1="-1.4" y1="3.182" x2="1.694" y2="-1.174" xlink:href="#linear-gradient-33"/>
    <linearGradient id="linear-gradient-44" x1="-0.751" y1="1.906" x2="2.504" y2="-1.743" xlink:href="#linear-gradient-33"/>
    <linearGradient id="linear-gradient-45" x1="-1.47" y1="2.728" x2="1.728" y2="-0.882" xlink:href="#linear-gradient-33"/>
    <linearGradient id="linear-gradient-46" x1="-2.179" y1="3.549" x2="0.963" y2="-0.022" xlink:href="#linear-gradient-33"/>
    <linearGradient id="linear-gradient-47" x1="-0.372" y1="1.488" x2="2.881" y2="-2.182" xlink:href="#linear-gradient-33"/>
    <linearGradient id="linear-gradient-48" x1="-1.095" y1="2.316" x2="2.101" y2="-1.315" xlink:href="#linear-gradient-33"/>
    <linearGradient id="linear-gradient-49" x1="-1.808" y1="3.145" x2="1.332" y2="-0.447" xlink:href="#linear-gradient-33"/>
    <linearGradient id="linear-gradient-50" x1="0.008" y1="1.053" x2="3.26" y2="-2.606" xlink:href="#linear-gradient-33"/>
    <linearGradient id="linear-gradient-51" x1="-0.719" y1="1.881" x2="2.476" y2="-1.739" xlink:href="#linear-gradient-33"/>
    <linearGradient id="linear-gradient-52" x1="-1.411" y1="2.709" x2="1.695" y2="-0.872" xlink:href="#linear-gradient-33"/>
    <linearGradient id="linear-gradient-53" x1="-30.53" y1="-7.617" x2="-30.417" y2="-0.965" xlink:href="#linear-gradient-33"/>
    <linearGradient id="linear-gradient-54" x1="-125.458" y1="0.5" x2="-124.458" y2="0.5" gradientUnits="objectBoundingBox">
      <stop offset="0" stop-color="#ff928e"/>
      <stop offset="1" stop-color="#feb3b1"/>
    </linearGradient>
    <linearGradient id="linear-gradient-55" x1="-38.68" y1="0.5" x2="-37.68" y2="0.5" xlink:href="#linear-gradient-5"/>
    <linearGradient id="linear-gradient-56" x1="-82.431" y1="-9.024" x2="-82.151" y2="-1.235" xlink:href="#linear-gradient-33"/>
    <linearGradient id="linear-gradient-57" x1="-153.818" y1="0.5" x2="-152.818" y2="0.5" xlink:href="#linear-gradient-54"/>
    <linearGradient id="linear-gradient-58" x1="-27.872" y1="0.5" x2="-26.872" y2="0.5" xlink:href="#linear-gradient-5"/>
    <linearGradient id="linear-gradient-59" x1="-15.37" y1="4.168" x2="-15.82" y2="4.766" gradientUnits="objectBoundingBox">
      <stop offset="0" stop-color="#fe7062"/>
      <stop offset="1" stop-color="#ff928e"/>
    </linearGradient>
    <linearGradient id="linear-gradient-60" x1="-22.142" y1="0.5" x2="-21.142" y2="0.5" xlink:href="#linear-gradient-54"/>
    <linearGradient id="linear-gradient-61" x1="1.091" y1="-0.689" x2="0.917" y2="-0.352" xlink:href="#linear-gradient-54"/>
    <linearGradient id="linear-gradient-62" x1="1.665" y1="-0.953" x2="-0.737" y2="1.75" xlink:href="#linear-gradient-54"/>
    <linearGradient id="linear-gradient-63" x1="-41.515" y1="9.957" x2="-42.644" y2="11.485" xlink:href="#linear-gradient-59"/>
    <linearGradient id="linear-gradient-64" x1="-20.745" y1="0.5" x2="-19.745" y2="0.5" xlink:href="#linear-gradient-54"/>
    <linearGradient id="linear-gradient-65" x1="-90.253" y1="-3.497" x2="-90.826" y2="1.805" gradientUnits="objectBoundingBox">
      <stop offset="0" stop-color="#53d8ff"/>
      <stop offset="1" stop-color="#3840f7"/>
    </linearGradient>
    <linearGradient id="linear-gradient-66" x1="-47.225" y1="-1.235" x2="-47.368" y2="1.146" xlink:href="#linear-gradient-65"/>
    <linearGradient id="linear-gradient-67" x1="-62.855" y1="0.5" x2="-61.855" y2="0.5" xlink:href="#linear-gradient-54"/>
    <linearGradient id="linear-gradient-68" x1="0.303" y1="-0.616" x2="0.607" y2="1.138" xlink:href="#linear-gradient-54"/>
    <linearGradient id="linear-gradient-69" x1="-154.619" y1="-71.133" x2="-155.132" y2="-70.022" xlink:href="#linear-gradient-54"/>
    <linearGradient id="linear-gradient-70" x1="-120.797" y1="-50.106" x2="-120.591" y2="-48.923" xlink:href="#linear-gradient-5"/>
    <linearGradient id="linear-gradient-71" x1="-506.979" y1="-347.961" x2="-508.65" y2="-342.576" xlink:href="#linear-gradient-54"/>
    <linearGradient id="linear-gradient-72" x1="-21.388" y1="-3.005" x2="-20.686" y2="-4.289" xlink:href="#linear-gradient-59"/>
    <linearGradient id="linear-gradient-73" x1="0.51" y1="-0.414" x2="0.487" y2="2.614" xlink:href="#linear-gradient-59"/>
    <linearGradient id="linear-gradient-74" x1="-19.276" y1="-4.87" x2="-18.211" y2="-4.87" xlink:href="#linear-gradient-59"/>
    <linearGradient id="linear-gradient-75" x1="-8.368" y1="0.049" x2="-9.057" y2="0.806" xlink:href="#linear-gradient-54"/>
    <linearGradient id="linear-gradient-76" x1="-19.927" y1="2.034" x2="-6.137" y2="-1.575" xlink:href="#linear-gradient-33"/>
    <linearGradient id="linear-gradient-77" x1="175.127" y1="-20.965" x2="171.656" y2="-20.448" xlink:href="#linear-gradient-5"/>
    <linearGradient id="linear-gradient-78" x1="151.506" y1="8.078" x2="152.669" y2="7.91" xlink:href="#linear-gradient-33"/>
    <linearGradient id="linear-gradient-79" x1="0.2" y1="-0.426" x2="0.666" y2="1.331" xlink:href="#linear-gradient-54"/>
    <linearGradient id="linear-gradient-80" x1="-208.708" y1="-119.907" x2="-209.527" y2="-118.913" xlink:href="#linear-gradient-54"/>
    <linearGradient id="linear-gradient-81" x1="-437.54" y1="81.056" x2="-439.428" y2="82.953" xlink:href="#linear-gradient-5"/>
    <linearGradient id="linear-gradient-82" x1="-589.919" y1="-449.117" x2="-592.23" y2="-445.404" xlink:href="#linear-gradient-54"/>
    <linearGradient id="linear-gradient-83" x1="131.986" y1="1.673" x2="133.387" y2="0.537" xlink:href="#linear-gradient-54"/>
    <linearGradient id="linear-gradient-84" x1="343.703" y1="-27.344" x2="342.932" y2="-26.379" xlink:href="#linear-gradient-5"/>
    <linearGradient id="linear-gradient-85" x1="3.681" y1="0.033" x2="2.308" y2="0.221" xlink:href="#linear-gradient-54"/>
    <linearGradient id="linear-gradient-86" x1="269.155" y1="2.191" x2="270.147" y2="2.191" xlink:href="#linear-gradient-5"/>
    <linearGradient id="linear-gradient-87" x1="116.423" y1="1.821" x2="116.899" y2="0.871" xlink:href="#linear-gradient-5"/>
    <linearGradient id="linear-gradient-88" x1="198.338" y1="59.536" x2="199.025" y2="58.113" xlink:href="#linear-gradient-59"/>
    <linearGradient id="linear-gradient-89" x1="214.9" y1="88.288" x2="215.933" y2="89.715" xlink:href="#linear-gradient-59"/>
    <linearGradient id="linear-gradient-90" x1="0.81" y1="-2.799" x2="0.674" y2="-1.19" xlink:href="#linear-gradient-54"/>
    <linearGradient id="linear-gradient-91" x1="0.571" y1="0.312" x2="0.199" y2="1.715" xlink:href="#linear-gradient-59"/>
    <linearGradient id="linear-gradient-92" x1="-22.393" y1="2.128" x2="-7.958" y2="-1.018" xlink:href="#linear-gradient-33"/>
    <linearGradient id="linear-gradient-93" x1="-0.115" y1="1.085" x2="0.811" y2="0.362" xlink:href="#linear-gradient-54"/>
    <linearGradient id="linear-gradient-94" x1="0.207" y1="-1.207" x2="0.413" y2="-0.155" xlink:href="#linear-gradient-54"/>
  </defs>
  <g id="Grupo_999366" data-name="Grupo 999366" transform="translate(3.254 -3.814)">
    <g id="Grupo_999367" data-name="Grupo 999367">
      <rect id="BG" width="451.826" height="275.617" transform="translate(-3.254 3.814)" fill="#e8e8e8" opacity="0.949"/>
      <g id="Grupo_66342" data-name="Grupo 66342" transform="translate(-338.886 -141.334)">
        <g id="Grupo_66263" data-name="Grupo 66263" transform="translate(431.319 226.074)">
          <g id="Grupo_66260" data-name="Grupo 66260" transform="translate(0 13.298)">
            <g id="Grupo_66257" data-name="Grupo 66257">
              <path id="Trazado_115524" data-name="Trazado 115524" d="M640.458,813.268a.316.316,0,0,1-.3-.228q-.154-.534-.291-1.073a.316.316,0,1,1,.612-.155q.134.53.286,1.053a.316.316,0,0,1-.3.4Z" transform="translate(-638.842 -768.977)" fill="#bdd0fb"/>
              <path id="Trazado_115525" data-name="Trazado 115525" d="M633.357,550.856a.315.315,0,0,1-.312-.27c-.119-.809-.211-1.635-.271-2.454a.316.316,0,0,1,.629-.047c.06.8.149,1.615.266,2.409a.315.315,0,0,1-.266.358A.308.308,0,0,1,633.357,550.856Zm-.332-6.407h-.013a.316.316,0,0,1-.3-.328q.023-.564.065-1.13c.033-.443.074-.891.124-1.331a.316.316,0,1,1,.627.07c-.049.433-.09.873-.122,1.307q-.041.557-.064,1.11A.315.315,0,0,1,633.025,544.45Zm.859-6.356a.315.315,0,0,1-.308-.387c.185-.8.4-1.6.643-2.384a.316.316,0,0,1,.6.186c-.237.769-.45,1.556-.631,2.34A.316.316,0,0,1,633.883,538.093Zm2.031-6.086a.316.316,0,0,1-.288-.444c.332-.749.7-1.5,1.081-2.222a.316.316,0,1,1,.557.3c-.379.712-.736,1.446-1.061,2.182A.316.316,0,0,1,635.914,532.008Zm3.14-5.6a.316.316,0,0,1-.259-.5c.467-.674.964-1.34,1.478-1.979a.316.316,0,0,1,.492.4c-.5.627-.993,1.281-1.451,1.943A.316.316,0,0,1,639.054,526.411Zm4.131-4.909a.315.315,0,0,1-.222-.54c.585-.577,1.2-1.138,1.82-1.669a.316.316,0,1,1,.41.48c-.611.521-1.212,1.072-1.786,1.638A.314.314,0,0,1,643.185,521.5Zm4.97-4.055a.316.316,0,0,1-.176-.578c.682-.458,1.388-.9,2.1-1.3a.316.316,0,1,1,.313.548c-.7.4-1.389.828-2.059,1.277A.313.313,0,0,1,648.154,517.447Zm32.988-2.814a.312.312,0,0,1-.129-.027c-.735-.329-1.491-.635-2.248-.91a.315.315,0,1,1,.216-.593c.771.28,1.541.591,2.289.926a.316.316,0,0,1-.129.6Zm-27.353-.245a.316.316,0,0,1-.124-.606c.755-.322,1.529-.62,2.3-.886a.316.316,0,1,1,.206.6c-.759.261-1.519.554-2.26.87A.313.313,0,0,1,653.79,514.388Zm21.276-1.809a.326.326,0,0,1-.073-.008c-.785-.185-1.585-.343-2.379-.471a.316.316,0,1,1,.1-.623c.809.13,1.624.292,2.423.48a.316.316,0,0,1-.072.623Zm-15.168-.14a.316.316,0,0,1-.067-.624c.8-.174,1.618-.321,2.43-.438a.316.316,0,0,1,.089.625c-.8.114-1.6.259-2.385.43A.312.312,0,0,1,659.9,512.439Zm8.813-.742H668.7c-.806-.037-1.622-.044-2.425-.024a.312.312,0,0,1-.323-.308.315.315,0,0,1,.307-.324c.817-.02,1.648-.013,2.469.024a.316.316,0,0,1-.014.631Z" transform="translate(-632.709 -511.031)" fill="#bdd0fb"/>
              <path id="Trazado_115526" data-name="Trazado 115526" d="M1007,551.6a.313.313,0,0,1-.181-.057q-.446-.314-.9-.613a.316.316,0,1,1,.346-.528q.465.305.919.624a.316.316,0,0,1-.182.574Z" transform="translate(-952.897 -544.777)" fill="#bdd0fb"/>
            </g>
            <g id="Grupo_66258" data-name="Grupo 66258" transform="translate(13.254 27.525)">
              <path id="Trazado_115527" data-name="Trazado 115527" d="M1110.862,706.946a.316.316,0,0,1-.311-.264q-.088-.539-.195-1.074a.316.316,0,1,1,.619-.123q.107.545.2,1.094a.315.315,0,0,1-.26.363A.3.3,0,0,1,1110.862,706.946Z" transform="translate(-1055.907 -705.231)" fill="#bdd0fb"/>
              <path id="Trazado_115528" data-name="Trazado 115528" d="M762.009,775.339c-.426,0-.859-.007-1.292-.023a.316.316,0,0,1-.3-.327.319.319,0,0,1,.327-.3c.425.015.853.018,1.269.023s.86-.008,1.292-.025a.316.316,0,1,1,.024.631C762.886,775.33,762.443,775.339,762.009,775.339Zm-5.46-.429a.294.294,0,0,1-.05,0c-.856-.136-1.717-.306-2.56-.506a.316.316,0,1,1,.146-.614c.827.2,1.673.363,2.513.5a.315.315,0,0,1-.049.627Zm10.94-.017a.316.316,0,0,1-.05-.627c.84-.137,1.684-.308,2.509-.508a.316.316,0,0,1,.149.613c-.841.2-1.7.378-2.556.518A.331.331,0,0,1,767.489,774.893ZM750,773.188a.316.316,0,0,1-.11-.02c-.811-.3-1.622-.64-2.408-1a.316.316,0,0,1,.265-.573c.772.357,1.568.688,2.364.985a.315.315,0,0,1-.11.611Zm24.036-.048a.316.316,0,0,1-.112-.611c.794-.3,1.587-.635,2.357-1a.316.316,0,0,1,.268.572c-.784.367-1.592.708-2.4,1.014A.315.315,0,0,1,774.032,773.14Zm-30.118-2.94a.316.316,0,0,1-.166-.047q-.24-.149-.477-.3a.316.316,0,0,1,.343-.53q.232.15.467.3a.316.316,0,0,1-.167.584Zm36.181-.073a.316.316,0,0,1-.168-.583c.721-.452,1.433-.937,2.116-1.441a.316.316,0,0,1,.375.508c-.7.514-1.421,1.007-2.155,1.468A.312.312,0,0,1,780.1,770.128Zm5.355-4.148a.316.316,0,0,1-.217-.545c.619-.585,1.222-1.2,1.793-1.829a.316.316,0,1,1,.467.425c-.581.64-1.2,1.266-1.826,1.863A.315.315,0,0,1,785.451,765.98Zm4.438-5.119a.316.316,0,0,1-.257-.5c.492-.7.962-1.418,1.4-2.146a.316.316,0,1,1,.542.324c-.444.742-.923,1.478-1.424,2.186A.316.316,0,0,1,789.889,760.861Zm3.342-5.9a.316.316,0,0,1-.289-.443c.344-.777.661-1.578.945-2.379a.316.316,0,0,1,.6.21c-.289.817-.612,1.632-.962,2.424A.316.316,0,0,1,793.232,754.965Zm2.105-6.438a.323.323,0,0,1-.068-.007.316.316,0,0,1-.241-.376c.182-.829.335-1.677.454-2.519a.316.316,0,1,1,.625.089c-.122.858-.277,1.721-.463,2.566A.316.316,0,0,1,795.337,748.528Zm.8-6.727h-.006a.316.316,0,0,1-.309-.322q.007-.34.007-.679c0-.624-.017-1.257-.052-1.881a.316.316,0,0,1,.3-.333.312.312,0,0,1,.333.3c.035.636.053,1.28.053,1.916q0,.345-.007.692A.316.316,0,0,1,796.132,741.8Z" transform="translate(-740.731 -733.857)" fill="#bdd0fb"/>
              <path id="Trazado_115529" data-name="Trazado 115529" d="M727.422,944.42a.312.312,0,0,1-.185-.06q-.451-.326-.89-.666a.316.316,0,0,1,.386-.5q.431.334.874.654a.316.316,0,0,1-.185.571Z" transform="translate(-726.225 -909.41)" fill="#bdd0fb"/>
            </g>
            <g id="Grupo_66259" data-name="Grupo 66259" transform="translate(8.025 7.761)">
              <path id="Trazado_115530" data-name="Trazado 115530" d="M697.233,611.123a.41.41,0,0,0,.459.128l4.7-1.7a21.751,21.751,0,0,0,6.189,3.371l1.12,4.863a.41.41,0,0,0,.357.316l5.956.632a.411.411,0,0,0,.415-.234l2.116-4.52a21.747,21.747,0,0,0,6.759-2l4.234,2.649a.41.41,0,0,0,.475-.029l4.659-3.765a.41.41,0,0,0,.128-.459l-1.7-4.7a21.755,21.755,0,0,0,3.371-6.19l4.863-1.12a.411.411,0,0,0,.316-.357l.632-5.957a.41.41,0,0,0-.234-.415l-4.52-2.116a21.756,21.756,0,0,0-2-6.759l2.648-4.234a.41.41,0,0,0-.029-.475l-3.765-4.659a.41.41,0,0,0-.459-.128l-4.7,1.7a21.752,21.752,0,0,0-6.19-3.371l-1.12-4.864a.411.411,0,0,0-.357-.316l-5.957-.632a.41.41,0,0,0-.415.234l-2.116,4.52a21.748,21.748,0,0,0-6.759,2l-4.234-2.649a.41.41,0,0,0-.475.029l-4.659,3.765a.41.41,0,0,0-.128.459l1.7,4.7a21.753,21.753,0,0,0-3.371,6.19l-4.863,1.12a.41.41,0,0,0-.316.357l-.632,5.957a.411.411,0,0,0,.234.415l4.52,2.115a21.76,21.76,0,0,0,2,6.759l-2.649,4.234a.411.411,0,0,0,.029.476Z" transform="translate(-689.333 -565.789)" fill="#bdd0fb"/>
              <path id="Trazado_115531" data-name="Trazado 115531" d="M841.979,724.073a5.637,5.637,0,1,1,.8-.057A5.643,5.643,0,0,1,841.979,724.073Zm.015-10.639a5.066,5.066,0,0,0-.717.051,4.981,4.981,0,1,0,.717-.051Z" transform="translate(-815.51 -691.965)" fill="url(#linear-gradient)"/>
              <path id="Trazado_115532" data-name="Trazado 115532" d="M787.346,677.272a15,15,0,0,1-1.586-.084h0a14.87,14.87,0,0,1-3.074-.66.316.316,0,0,1-.217-.3.321.321,0,0,1,.016-.1.316.316,0,0,1,.4-.2,14.239,14.239,0,0,0,2.943.632h0a14.048,14.048,0,0,0,10.267-2.974l.112-.09a14.045,14.045,0,0,0,5.172-9.5,14.356,14.356,0,0,0,.081-1.518,14.139,14.139,0,0,0-28.2-1.464,14.136,14.136,0,0,0,1.227,7.43.316.316,0,1,1-.573.266,14.729,14.729,0,0,1-1.365-6.194,14.773,14.773,0,0,1,16.328-14.7,14.773,14.773,0,0,1,13.213,14.659,15.018,15.018,0,0,1-.084,1.586,14.774,14.774,0,0,1-14.659,13.214Z" transform="translate(-760.754 -636.116)" fill="url(#linear-gradient)"/>
            </g>
          </g>
          <path id="Trazado_115533" data-name="Trazado 115533" d="M1095.666,468.365l2.547-1.159a12.19,12.19,0,0,0,3.607,1.608l.842,2.667a.229.229,0,0,0,.213.161l3.355.088a.23.23,0,0,0,.221-.149l.981-2.618a12.191,12.191,0,0,0,3.687-1.416l2.482,1.291a.23.23,0,0,0,.264-.037l2.435-2.31a.23.23,0,0,0,.051-.262l-1.159-2.547a12.187,12.187,0,0,0,1.608-3.607l2.667-.842a.23.23,0,0,0,.161-.213l.088-3.355a.229.229,0,0,0-.149-.221l-2.619-.981a12.183,12.183,0,0,0-1.416-3.686l1.291-2.482a.23.23,0,0,0-.037-.264l-2.31-2.435a.23.23,0,0,0-.262-.051l-2.547,1.159a12.185,12.185,0,0,0-3.607-1.608l-.842-2.667a.23.23,0,0,0-.213-.161l-3.355-.088a.231.231,0,0,0-.222.149l-.981,2.619a12.187,12.187,0,0,0-3.686,1.416l-2.482-1.291a.23.23,0,0,0-.264.037l-2.435,2.31a.23.23,0,0,0-.051.262l1.159,2.547a12.185,12.185,0,0,0-1.608,3.607l-2.667.842a.23.23,0,0,0-.161.213l-.088,3.355a.23.23,0,0,0,.149.221l2.619.981a12.183,12.183,0,0,0,1.416,3.686l-1.291,2.482a.23.23,0,0,0,.037.264l2.31,2.435A.23.23,0,0,0,1095.666,468.365Z" transform="translate(-1025.328 -438.64)" fill="#bdd0fb"/>
          <path id="Trazado_115534" data-name="Trazado 115534" d="M1174.445,529.768a3.3,3.3,0,1,1,.729-.081h0A3.32,3.32,0,0,1,1174.445,529.768Zm.007-5.962a2.665,2.665,0,1,0,.584,5.265h0a2.665,2.665,0,0,0-.584-5.265Z" transform="translate(-1094.84 -508.156)" fill="url(#linear-gradient)"/>
          <g id="Grupo_66261" data-name="Grupo 66261" transform="translate(61.308)">
            <path id="Trazado_115535" data-name="Trazado 115535" d="M1082.526,608.2a.315.315,0,0,1-.265-.144c-.2-.312-.4-.634-.581-.959a.316.316,0,0,1,.55-.31c.177.313.365.625.56.925a.316.316,0,0,1-.264.488Z" transform="translate(-1079.319 -579.781)" fill="#bdd0fb"/>
            <path id="Trazado_115536" data-name="Trazado 115536" d="M1066.519,441.564a.316.316,0,0,1-.3-.215,18.528,18.528,0,0,1-.506-1.818q-.063-.277-.116-.554a.316.316,0,1,1,.62-.12q.051.268.112.535a17.926,17.926,0,0,0,.489,1.756.316.316,0,0,1-.3.416Zm-.932-6.229h-.009a.316.316,0,0,1-.307-.324,18.253,18.253,0,0,1,.232-2.442.316.316,0,1,1,.623.1,17.583,17.583,0,0,0-.224,2.358A.316.316,0,0,1,1065.587,435.336Zm1.276-6.168a.312.312,0,0,1-.117-.023.315.315,0,0,1-.176-.41,18.419,18.419,0,0,1,1.06-2.211.316.316,0,1,1,.55.31,17.812,17.812,0,0,0-1.024,2.135A.316.316,0,0,1,1066.863,429.168Zm3.321-5.35a.315.315,0,0,1-.235-.526,18.374,18.374,0,0,1,1.753-1.712.316.316,0,0,1,.41.48,17.715,17.715,0,0,0-1.693,1.653A.315.315,0,0,1,1070.184,423.818Zm4.958-3.88a.316.316,0,0,1-.148-.595,18.3,18.3,0,0,1,2.239-1,.316.316,0,1,1,.218.592,17.6,17.6,0,0,0-2.161.965A.315.315,0,0,1,1075.141,419.938Zm5.993-1.93a.316.316,0,0,1-.043-.628,18.322,18.322,0,0,1,2.446-.172h0a.316.316,0,0,1,0,.631,17.728,17.728,0,0,0-2.362.166A.309.309,0,0,1,1081.135,418.008Z" transform="translate(-1065.271 -417.208)" fill="#bdd0fb"/>
            <path id="Trazado_115537" data-name="Trazado 115537" d="M1225.66,422.273a.312.312,0,0,1-.1-.016c-.338-.112-.687-.214-1.038-.307a.316.316,0,1,1,.16-.61c.363.1.725.2,1.075.317a.316.316,0,0,1-.1.616Z" transform="translate(-1201.75 -420.746)" fill="#bdd0fb"/>
          </g>
          <g id="Grupo_66262" data-name="Grupo 66262" transform="translate(72.907 9.513)">
            <path id="Trazado_115538" data-name="Trazado 115538" d="M1304.984,485.947a.316.316,0,0,1-.287-.184c-.149-.326-.31-.653-.48-.97a.316.316,0,0,1,.557-.3c.176.329.343.667.5,1a.316.316,0,0,1-.287.447Z" transform="translate(-1281.917 -484.329)" fill="#bdd0fb"/>
            <path id="Trazado_115539" data-name="Trazado 115539" d="M1187.211,536.636c-.292,0-.585-.007-.871-.021a.316.316,0,0,1,.031-.631,17.614,17.614,0,0,0,2.328-.042.315.315,0,1,1,.053.629C1188.24,536.614,1187.721,536.636,1187.211,536.636Zm5.292-.793a.316.316,0,0,1-.092-.617,17.792,17.792,0,0,0,2.177-.825.315.315,0,1,1,.262.574,18.273,18.273,0,0,1-2.255.855A.31.31,0,0,1,1192.5,535.843Zm5.523-2.805a.316.316,0,0,1-.19-.568,17.624,17.624,0,0,0,1.764-1.517.316.316,0,0,1,.442.451,18.374,18.374,0,0,1-1.828,1.571A.315.315,0,0,1,1198.025,533.037Zm4.238-4.516a.315.315,0,0,1-.263-.489,17.9,17.9,0,0,0,1.149-2.026.316.316,0,0,1,.568.275,18.534,18.534,0,0,1-1.189,2.1A.315.315,0,0,1,1202.263,528.522Zm2.465-5.684a.326.326,0,0,1-.074-.008.316.316,0,0,1-.233-.381,17.611,17.611,0,0,0,.394-2.3.316.316,0,0,1,.628.065,18.359,18.359,0,0,1-.408,2.378A.316.316,0,0,1,1204.728,522.837Zm.383-6.185a.315.315,0,0,1-.313-.28,17.939,17.939,0,0,0-.323-1.921c-.028-.125-.057-.249-.088-.372a.316.316,0,0,1,.613-.151q.048.191.091.385a18.576,18.576,0,0,1,.335,1.989.316.316,0,0,1-.278.349Z" transform="translate(-1180.521 -509.527)" fill="#bdd0fb"/>
            <path id="Trazado_115540" data-name="Trazado 115540" d="M1148.46,663.846a.311.311,0,0,1-.094-.014c-.355-.111-.712-.235-1.059-.366a.316.316,0,1,1,.224-.59c.335.128.679.247,1.023.354a.316.316,0,0,1-.094.617Z" transform="translate(-1147.103 -637.551)" fill="#bdd0fb"/>
          </g>
          <path id="Trazado_115541" data-name="Trazado 115541" d="M1143.8,503.516l-.225,0a8.483,8.483,0,0,1-1.711-.22l-.065-.015a.316.316,0,0,1-.241-.307.327.327,0,0,1,.009-.075.315.315,0,0,1,.381-.232,7.832,7.832,0,0,0,1.643.218h0a7.794,7.794,0,0,0,7.956-7.072q.023-.249.029-.5c0-.069,0-.138,0-.207a7.783,7.783,0,0,0-15.563-.2c0,.069,0,.138,0,.206a7.771,7.771,0,0,0,1,3.817.316.316,0,1,1-.55.31,8.4,8.4,0,0,1-1.082-4.128q0-.111,0-.223a8.414,8.414,0,0,1,16.825.22q0,.112,0,.224A8.425,8.425,0,0,1,1143.8,503.516Z" transform="translate(-1064.136 -476.841)" fill="url(#linear-gradient)"/>
        </g>
        <g id="Grupo_66273" data-name="Grupo 66273" transform="translate(456.579 194.511)">
          <g id="Grupo_66265" data-name="Grupo 66265" transform="translate(0 34.792)">
            <path id="Trazado_115542" data-name="Trazado 115542" d="M834.462,451.665A1.263,1.263,0,0,1,833.2,450.4V441.25a1.263,1.263,0,1,1,2.525,0V450.4A1.263,1.263,0,0,1,834.462,451.665Z" transform="translate(-830.043 -439.987)" fill="url(#linear-gradient-5)"/>
            <g id="Grupo_66264" data-name="Grupo 66264" transform="translate(0 4.103)">
              <path id="Trazado_115543" data-name="Trazado 115543" d="M820.084,470.041a1.1,1.1,0,0,1-1.1,1.1h-6.944a1.1,1.1,0,0,1-1.1-1.1h0a1.1,1.1,0,0,1,1.1-1.1h6.944a1.1,1.1,0,0,1,1.1,1.1Z" transform="translate(-810.931 -468.936)" fill="url(#linear-gradient-5)"/>
              <path id="Trazado_115544" data-name="Trazado 115544" d="M820.084,507.9a1.1,1.1,0,0,1-1.1,1.1h-6.944a1.1,1.1,0,0,1-1.1-1.1h0a1.1,1.1,0,0,1,1.1-1.1h6.944a1.1,1.1,0,0,1,1.1,1.1Z" transform="translate(-810.931 -501.428)" fill="url(#linear-gradient-5)"/>
            </g>
          </g>
          <g id="Grupo_66267" data-name="Grupo 66267" transform="translate(118.358 34.792)">
            <path id="Trazado_115545" data-name="Trazado 115545" d="M1669.543,451.665a1.263,1.263,0,0,1-1.262-1.263V441.25a1.262,1.262,0,1,1,2.525,0V450.4A1.263,1.263,0,0,1,1669.543,451.665Z" transform="translate(-1665.125 -439.987)" fill="url(#linear-gradient-5)"/>
            <g id="Grupo_66266" data-name="Grupo 66266" transform="translate(0 4.103)">
              <path id="Trazado_115546" data-name="Trazado 115546" d="M1655.165,470.041a1.1,1.1,0,0,1-1.1,1.1h-6.943a1.1,1.1,0,0,1-1.1-1.1h0a1.1,1.1,0,0,1,1.1-1.1h6.943a1.1,1.1,0,0,1,1.1,1.1Z" transform="translate(-1646.012 -468.936)" fill="url(#linear-gradient-5)"/>
              <path id="Trazado_115547" data-name="Trazado 115547" d="M1655.165,507.9a1.1,1.1,0,0,1-1.1,1.1h-6.943a1.1,1.1,0,0,1-1.1-1.1h0a1.1,1.1,0,0,1,1.1-1.1h6.943a1.1,1.1,0,0,1,1.1,1.1Z" transform="translate(-1646.012 -501.428)" fill="url(#linear-gradient-5)"/>
            </g>
          </g>
          <g id="Grupo_66269" data-name="Grupo 66269" transform="translate(116.78 79.295)">
            <path id="Trazado_115548" data-name="Trazado 115548" d="M1658.409,765.656a1.263,1.263,0,0,1-1.262-1.262V755.24a1.263,1.263,0,0,1,2.525,0v9.153A1.262,1.262,0,0,1,1658.409,765.656Z" transform="translate(-1653.99 -753.978)" fill="url(#linear-gradient-5)"/>
            <g id="Grupo_66268" data-name="Grupo 66268" transform="translate(0 4.103)">
              <path id="Trazado_115549" data-name="Trazado 115549" d="M1644.03,784.032a1.1,1.1,0,0,1-1.1,1.1h-6.944a1.1,1.1,0,0,1-1.1-1.1h0a1.1,1.1,0,0,1,1.1-1.1h6.944a1.1,1.1,0,0,1,1.1,1.1Z" transform="translate(-1634.877 -782.927)" fill="url(#linear-gradient-5)"/>
              <path id="Trazado_115550" data-name="Trazado 115550" d="M1644.03,821.889a1.1,1.1,0,0,1-1.1,1.1h-6.944a1.1,1.1,0,0,1-1.1-1.1h0a1.1,1.1,0,0,1,1.1-1.1h6.944a1.1,1.1,0,0,1,1.1,1.1Z" transform="translate(-1634.877 -815.419)" fill="url(#linear-gradient-5)"/>
            </g>
          </g>
          <g id="Grupo_66271" data-name="Grupo 66271" transform="translate(0 79.295)">
            <path id="Trazado_115551" data-name="Trazado 115551" d="M834.462,765.656a1.263,1.263,0,0,1-1.263-1.262V755.24a1.263,1.263,0,0,1,2.525,0v9.153A1.263,1.263,0,0,1,834.462,765.656Z" transform="translate(-830.043 -753.978)" fill="url(#linear-gradient-5)"/>
            <g id="Grupo_66270" data-name="Grupo 66270" transform="translate(0 4.103)">
              <path id="Trazado_115552" data-name="Trazado 115552" d="M820.084,784.032a1.1,1.1,0,0,1-1.1,1.1h-6.944a1.1,1.1,0,0,1-1.1-1.1h0a1.1,1.1,0,0,1,1.1-1.1h6.944a1.1,1.1,0,0,1,1.1,1.1Z" transform="translate(-810.931 -782.927)" fill="url(#linear-gradient-5)"/>
              <path id="Trazado_115553" data-name="Trazado 115553" d="M820.084,821.889a1.1,1.1,0,0,1-1.1,1.1h-6.944a1.1,1.1,0,0,1-1.1-1.1h0a1.1,1.1,0,0,1,1.1-1.1h6.944a1.1,1.1,0,0,1,1.1,1.1Z" transform="translate(-810.931 -815.419)" fill="url(#linear-gradient-5)"/>
            </g>
          </g>
          <g id="Grupo_66272" data-name="Grupo 66272" transform="translate(2.472)">
            <path id="Trazado_115554" data-name="Trazado 115554" d="M1057.21,375.039a1.263,1.263,0,0,1-1.247-1.074l-26.72-176.8-23.473,2.6-25.562,174.2a1.262,1.262,0,1,1-2.5-.367l25.7-175.162a1.262,1.262,0,0,1,1.11-1.071l25.648-2.84a1.26,1.26,0,0,1,1.387,1.066l26.9,178a1.263,1.263,0,0,1-1.06,1.437A1.3,1.3,0,0,1,1057.21,375.039Z" transform="translate(-956.533 -194.511)" fill="url(#linear-gradient-5)"/>
            <path id="Trazado_115555" data-name="Trazado 115555" d="M950.47,276.531H829.632a1.263,1.263,0,0,1-.611-2.368l45.917-25.388a1.263,1.263,0,1,1,1.222,2.21l-41.635,23.021H945.833L902.6,248.579a1.263,1.263,0,0,1,1.28-2.177L951.11,274.18a1.263,1.263,0,0,1-.64,2.351Z" transform="translate(-828.37 -238.898)" fill="url(#linear-gradient-5)"/>
            <path id="Trazado_115556" data-name="Trazado 115556" d="M948.576,488.9H829.632a1.262,1.262,0,0,1-.912-2.135l42.215-44.151a1.263,1.263,0,1,1,1.825,1.745l-40.174,42.016h113.09L906.517,444.3a1.263,1.263,0,1,1,1.848-1.72L949.5,486.776a1.263,1.263,0,0,1-.924,2.123Z" transform="translate(-828.37 -407.079)" fill="url(#linear-gradient-5)"/>
            <path id="Trazado_115557" data-name="Trazado 115557" d="M1190.96,247.347a1.257,1.257,0,0,1-.887-.364l-30.651-30.268a1.262,1.262,0,1,1,1.774-1.8l30.651,30.268a1.262,1.262,0,0,1-.887,2.161Z" transform="translate(-1112.179 -211.713)" fill="url(#linear-gradient-5)"/>
            <path id="Trazado_115558" data-name="Trazado 115558" d="M1128.971,230.148a1.262,1.262,0,0,1-.934-2.112l30.089-33.109a1.263,1.263,0,0,1,1.869,1.7l-30.09,33.109A1.259,1.259,0,0,1,1128.971,230.148Z" transform="translate(-1085.283 -194.514)" fill="url(#linear-gradient-5)"/>
            <path id="Trazado_115559" data-name="Trazado 115559" d="M1021.772,544.439a1.262,1.262,0,0,1-.88-2.167l56.03-54.494-41.432-43.44a1.262,1.262,0,0,1,1.827-1.743l42.3,44.345a1.262,1.262,0,0,1-.033,1.776l-56.927,55.365A1.259,1.259,0,0,1,1021.772,544.439Z" transform="translate(-993.277 -407.097)" fill="url(#linear-gradient-5)"/>
            <path id="Trazado_115560" data-name="Trazado 115560" d="M1136.6,542.21a1.259,1.259,0,0,1-.88-.357l-56.926-55.365a1.262,1.262,0,0,1-.033-1.776l42.3-44.345a1.263,1.263,0,0,1,1.827,1.743l-41.433,43.44,56.031,54.494a1.262,1.262,0,0,1-.88,2.167Z" transform="translate(-1042.97 -405.185)" fill="url(#linear-gradient-23)"/>
          </g>
          <path id="Trazado_115561" data-name="Trazado 115561" d="M1087.486,1161.8h-65.965a1.263,1.263,0,0,1,0-2.525h65.965a1.263,1.263,0,0,1,0,2.525Z" transform="translate(-990.59 -1022.532)" fill="url(#linear-gradient-5)"/>
          <path id="Trazado_115562" data-name="Trazado 115562" d="M980.834,1201.237a1.262,1.262,0,0,1-1.039-1.978l27.129-39.455a1.263,1.263,0,1,1,2.081,1.431l-27.129,39.454A1.261,1.261,0,0,1,980.834,1201.237Z" transform="translate(-955.671 -1022.521)" fill="url(#linear-gradient-5)"/>
          <path id="Trazado_115563" data-name="Trazado 115563" d="M1366.494,1201.237a1.261,1.261,0,0,1-1.042-.547l-27.129-39.454a1.263,1.263,0,1,1,2.08-1.431l27.129,39.455a1.262,1.262,0,0,1-1.039,1.978Z" transform="translate(-1263.383 -1022.521)" fill="url(#linear-gradient-26)"/>
        </g>
        <g id="Grupo_66278" data-name="Grupo 66278" transform="translate(613.855 259.878)">
          <g id="Grupo_66274" data-name="Grupo 66274" transform="translate(25.714 26.237)">
            <path id="Trazado_115564" data-name="Trazado 115564" d="M2113.07,892.435l1.118-51.609h3.068v52.866Z" transform="translate(-2111.504 -840.826)" fill="url(#linear-gradient-27)"/>
            <path id="Trazado_115565" data-name="Trazado 115565" d="M2109.231,1205.228c0,.814-.386,1.42-.862,1.42h-5.485c-.476,0-.862-.606-.862-1.42h0c0-.814.386-1.42.862-1.42h5.485c.476,0,.862.606.862,1.42Z" transform="translate(-2102.022 -1152.361)" fill="url(#linear-gradient-28)"/>
          </g>
          <g id="Grupo_66277" data-name="Grupo 66277">
            <path id="Trazado_115566" data-name="Trazado 115566" d="M2148.118,656.053c-.6-2.976-10.576,14.234-13.887,18.468s-.729,5.563-.729,5.563l.434.41h0a3.045,3.045,0,0,0,3.291-1.409C2140.29,673.637,2148.612,658.483,2148.118,656.053Z" transform="translate(-2102.503 -655.709)" fill="#7d97f4"/>
            <path id="Trazado_115567" data-name="Trazado 115567" d="M2148.559,877.31c2.9.9-7.421-16.106-9.549-21.042s-4.5-3.268-4.5-3.268l-.535.222h0a2.858,2.858,0,0,0-.374,3.526C2136.914,862.048,2146.189,876.578,2148.559,877.31Z" transform="translate(-2103.031 -824.805)" fill="#7d97f4"/>
            <path id="Trazado_115568" data-name="Trazado 115568" d="M1920.822,836.677c-2.55-1.65,17.113-4.647,22.264-6.184s5.363,1.353,5.363,1.353l.141.553v0a2.723,2.723,0,0,1-2.432,2.55C1939.968,835.811,1922.9,838.025,1920.822,836.677Z" transform="translate(-1920.594 -805.335)" fill="#7d97f4"/>
            <g id="Grupo_66276" data-name="Grupo 66276" transform="translate(27.078 23.307)">
              <path id="Trazado_115569" data-name="Trazado 115569" d="M2117.631,824.333a3.092,3.092,0,1,1-1.8-3.984A3.092,3.092,0,0,1,2117.631,824.333Z" transform="translate(-2111.644 -820.15)" fill="url(#linear-gradient-29)"/>
              <g id="Grupo_66275" data-name="Grupo 66275" transform="translate(0.891 0.898)">
                <path id="Trazado_115570" data-name="Trazado 115570" d="M2120.135,830.908a2.21,2.21,0,1,1,2.07-1.431h0A2.213,2.213,0,0,1,2120.135,830.908Zm0-4.105a1.895,1.895,0,1,0,1.774,2.563h0a1.9,1.9,0,0,0-1.774-2.563Z" transform="translate(-2117.928 -826.487)" fill="#7d97f4"/>
              </g>
            </g>
          </g>
        </g>
        <g id="Grupo_66283" data-name="Grupo 66283" transform="translate(570.299 281.121)">
          <g id="Grupo_66279" data-name="Grupo 66279" transform="translate(22.156 22.669)">
            <path id="Trazado_115571" data-name="Trazado 115571" d="M1778.9,1009.968l1-44.436h2.579v45.487Z" transform="translate(-1777.581 -965.532)" fill="url(#linear-gradient-30)"/>
            <path id="Trazado_115572" data-name="Trazado 115572" d="M1775.817,1278.557c0,.7-.332,1.263-.743,1.263h-4.726c-.41,0-.743-.561-.743-1.263h0c0-.7.332-1.262.743-1.262h4.726c.41,0,.743.561.743,1.262Z" transform="translate(-1769.606 -1233.108)" fill="url(#linear-gradient-31)"/>
          </g>
          <g id="Grupo_66282" data-name="Grupo 66282" transform="translate(0)">
            <path id="Trazado_115573" data-name="Trazado 115573" d="M1809.322,805.887c-.521-2.564-9.113,12.264-11.966,15.912s-.627,4.794-.627,4.794l.373.353h0a2.623,2.623,0,0,0,2.836-1.214C1802.577,821.038,1809.748,807.981,1809.322,805.887Z" transform="translate(-1770.02 -805.591)" fill="#7d97f4"/>
            <path id="Trazado_115574" data-name="Trazado 115574" d="M1809.7,996.525c2.5.772-6.394-13.877-8.227-18.13s-3.878-2.816-3.878-2.816l-.461.191h0a2.461,2.461,0,0,0-.322,3.038C1799.668,983.374,1807.66,995.894,1809.7,996.525Z" transform="translate(-1770.475 -951.285)" fill="#7d97f4"/>
            <path id="Trazado_115575" data-name="Trazado 115575" d="M1613.48,961.516c-2.2-1.422,14.745-4,19.183-5.328s4.664,1.166,4.664,1.166l.165.476v0a2.388,2.388,0,0,1-2.138,2.2C1630.02,960.769,1615.274,962.677,1613.48,961.516Z" transform="translate(-1613.285 -934.51)" fill="#7d97f4"/>
            <g id="Grupo_66281" data-name="Grupo 66281" transform="translate(23.331 20.081)">
              <path id="Trazado_115576" data-name="Trazado 115576" d="M1783.054,950.879a2.664,2.664,0,1,1-1.555-3.432A2.664,2.664,0,0,1,1783.054,950.879Z" transform="translate(-1777.895 -947.275)" fill="url(#linear-gradient-32)"/>
              <g id="Grupo_66280" data-name="Grupo 66280" transform="translate(0.745 0.752)">
                <path id="Trazado_115577" data-name="Trazado 115577" d="M1785.074,956.435a1.925,1.925,0,1,1,1.8-1.247h0A1.929,1.929,0,0,1,1785.074,956.435Zm0-3.537a1.61,1.61,0,1,0,1.508,2.178h0a1.613,1.613,0,0,0-1.508-2.178Z" transform="translate(-1783.15 -952.583)" fill="#7d97f4"/>
              </g>
            </g>
          </g>
        </g>
        <g id="Grupo_66288" data-name="Grupo 66288" transform="translate(557.273 338.365)">
          <g id="Grupo_66284" data-name="Grupo 66284" transform="translate(18.612 10.244)">
            <rect id="Rect치ngulo_32398" data-name="Rect치ngulo 32398" width="5.681" height="28.09" transform="translate(3.472)" fill="#7d97f4"/>
            <path id="Trazado_115578" data-name="Trazado 115578" d="M1665,1477.026c0,.066-.1.119-.18.12l-11.669.085a.456.456,0,0,1-.461-.468v-.582a.436.436,0,0,1,.447-.485l11.7.2c.075,0,.165.052.165.116Z" transform="translate(-1652.692 -1448.207)" fill="#7d97f4"/>
          </g>
          <g id="Grupo_66287" data-name="Grupo 66287" transform="translate(0 0)">
            <g id="Grupo_66286" data-name="Grupo 66286">
              <path id="Trazado_115579" data-name="Trazado 115579" d="M1578.815,1209.475l-44.576.552a.828.828,0,0,0-.658.421l-12.154,23.969c-.118.233-.014.424.233.425l44.51.267a.841.841,0,0,0,.693-.434l12.219-24.778A.27.27,0,0,0,1578.815,1209.475Z" transform="translate(-1521.378 -1209.475)" fill="#91b3fa"/>
              <g id="Grupo_66285" data-name="Grupo 66285" transform="translate(2.287 1.737)">
                <path id="Trazado_115580" data-name="Trazado 115580" d="M1607.221,1224.051l-12.129.135a.829.829,0,0,0-.66.422l-2.792,5.512c-.117.231-.011.417.237.415l12.124-.079a.833.833,0,0,0,.669-.425l2.8-5.564C1607.583,1224.234,1607.473,1224.048,1607.221,1224.051Z" transform="translate(-1583.928 -1223.721)" fill="url(#linear-gradient-33)"/>
                <path id="Trazado_115581" data-name="Trazado 115581" d="M1708.46,1222.9l-12.388.139a.836.836,0,0,0-.67.426l-2.8,5.57c-.117.234-.007.421.246.42l12.384-.081a.841.841,0,0,0,.679-.43l2.8-5.624C1708.832,1223.086,1708.718,1222.9,1708.46,1222.9Z" transform="translate(-1670.583 -1222.734)" fill="url(#linear-gradient-34)"/>
                <path id="Trazado_115582" data-name="Trazado 115582" d="M1811.87,1221.727l-12.656.141a.845.845,0,0,0-.68.431l-2.8,5.629c-.117.236,0,.426.255.424l12.652-.082a.85.85,0,0,0,.689-.435l2.806-5.684A.27.27,0,0,0,1811.87,1221.727Z" transform="translate(-1759.095 -1221.727)" fill="url(#linear-gradient-35)"/>
                <path id="Trazado_115583" data-name="Trazado 115583" d="M1580.252,1277.59l-12.123.068a.824.824,0,0,0-.66.421l-2.805,5.537c-.118.232-.013.42.235.42l12.118-.011a.828.828,0,0,0,.67-.425l2.81-5.591C1580.613,1277.777,1580.5,1277.589,1580.252,1277.59Z" transform="translate(-1560.774 -1269.672)" fill="url(#linear-gradient-36)"/>
                <path id="Trazado_115584" data-name="Trazado 115584" d="M1681.442,1277.011l-12.383.07a.833.833,0,0,0-.67.426l-2.811,5.6c-.118.235-.008.425.244.424l12.378-.011a.836.836,0,0,0,.68-.429l2.815-5.65C1681.813,1277.2,1681.7,1277.01,1681.442,1277.011Z" transform="translate(-1647.387 -1269.175)" fill="url(#linear-gradient-37)"/>
                <path id="Trazado_115585" data-name="Trazado 115585" d="M1784.807,1276.419l-12.651.071a.841.841,0,0,0-.681.43l-2.815,5.656c-.118.237,0,.429.254.429l12.647-.011a.845.845,0,0,0,.69-.434l2.819-5.711A.272.272,0,0,0,1784.807,1276.419Z" transform="translate(-1735.859 -1268.667)" fill="url(#linear-gradient-38)"/>
                <path id="Trazado_115586" data-name="Trazado 115586" d="M1553.157,1331.38H1541.04a.821.821,0,0,0-.661.421l-2.818,5.563c-.118.233-.013.423.234.424l12.112.057a.823.823,0,0,0,.671-.424l2.823-5.617C1553.518,1331.57,1553.41,1331.38,1553.157,1331.38Z" transform="translate(-1537.512 -1315.838)" fill="url(#linear-gradient-39)"/>
                <path id="Trazado_115587" data-name="Trazado 115587" d="M1654.3,1331.376H1641.92a.828.828,0,0,0-.671.425l-2.824,5.622c-.118.236-.01.428.243.429l12.372.059a.833.833,0,0,0,.681-.429l2.828-5.677C1654.668,1331.568,1654.555,1331.376,1654.3,1331.376Z" transform="translate(-1624.082 -1315.835)" fill="url(#linear-gradient-40)"/>
                <path id="Trazado_115588" data-name="Trazado 115588" d="M1756.6,1331.373h-12.646a.836.836,0,0,0-.681.43l-3.043,6.114,13.109.062a.841.841,0,0,0,.691-.433l2.833-5.739A.275.275,0,0,0,1756.6,1331.373Z" transform="translate(-1711.499 -1315.833)" fill="url(#linear-gradient-41)"/>
              </g>
            </g>
            <path id="Trazado_115589" data-name="Trazado 115589" d="M1782.218,1324.31h0l-8.619-.046a.158.158,0,0,1,0-.316h0l8.619.046h0c.177,0,.391-.22.5-.433l4.5-9.129a.158.158,0,0,1,.283.14l-4.5,9.129A1.01,1.01,0,0,1,1782.218,1324.31Z" transform="translate(-1737.714 -1299.481)" fill="url(#linear-gradient)"/>
            <path id="Trazado_115590" data-name="Trazado 115590" d="M1583.259,1223.859a.157.157,0,0,1-.14-.229l3.849-7.6a.977.977,0,0,1,.845-.426l9.479-.114a.168.168,0,0,1,.16.156.158.158,0,0,1-.156.16l-9.479.113a.69.69,0,0,0-.568.253l-3.849,7.6A.158.158,0,0,1,1583.259,1223.859Z" transform="translate(-1574.353 -1214.642)" fill="url(#linear-gradient)"/>
          </g>
        </g>
        <g id="Grupo_66293" data-name="Grupo 66293" transform="translate(612.444 330.75)">
          <g id="Grupo_66289" data-name="Grupo 66289" transform="translate(22.146 11.861)">
            <rect id="Rect치ngulo_32399" data-name="Rect치ngulo 32399" width="6.312" height="34.087" transform="translate(4.419)" fill="#7d97f4"/>
            <path id="Trazado_115591" data-name="Trazado 115591" d="M2081.727,1476.3c0,.079-.09.143-.182.144l-14.04.1a.6.6,0,0,1-.612-.56v-.7a.62.62,0,0,1,.211-.413.631.631,0,0,1,.438-.168l14,.239c.09,0,.184.063.184.139Z" transform="translate(-2066.893 -1441.364)" fill="#7d97f4"/>
          </g>
          <g id="Grupo_66292" data-name="Grupo 66292" transform="translate(0 0)">
            <g id="Grupo_66291" data-name="Grupo 66291">
              <path id="Trazado_115592" data-name="Trazado 115592" d="M1979.458,1155.75l-53.406.662a.992.992,0,0,0-.789.505l-14.562,28.718c-.142.279-.017.507.279.509l53.328.32a1.007,1.007,0,0,0,.83-.52l14.639-29.686A.323.323,0,0,0,1979.458,1155.75Z" transform="translate(-1910.643 -1155.75)" fill="#91b3fa"/>
              <g id="Grupo_66290" data-name="Grupo 66290" transform="translate(2.74 2.081)">
                <path id="Trazado_115593" data-name="Trazado 115593" d="M2013.491,1173.215l-14.532.162a.992.992,0,0,0-.79.505l-3.346,6.6c-.14.277-.013.5.283.5l14.526-.094a1,1,0,0,0,.8-.509l3.351-6.667C2013.925,1173.434,2013.793,1173.212,2013.491,1173.215Z" transform="translate(-1985.583 -1172.82)" fill="url(#linear-gradient-44)"/>
                <path id="Trazado_115594" data-name="Trazado 115594" d="M2134.786,1171.837l-14.842.166a1,1,0,0,0-.8.511l-3.352,6.673c-.141.28-.009.5.294.5l14.837-.1a1.007,1.007,0,0,0,.813-.515l3.356-6.738C2135.231,1172.058,2135.094,1171.833,2134.786,1171.837Z" transform="translate(-2089.405 -1171.637)" fill="url(#linear-gradient-45)"/>
                <path id="Trazado_115595" data-name="Trazado 115595" d="M2258.682,1170.43l-15.163.169a1.011,1.011,0,0,0-.814.516l-3.357,6.744c-.141.283,0,.51.305.508l15.158-.1a1.02,1.02,0,0,0,.826-.521l3.361-6.811A.323.323,0,0,0,2258.682,1170.43Z" transform="translate(-2195.451 -1170.43)" fill="url(#linear-gradient-46)"/>
                <path id="Trazado_115596" data-name="Trazado 115596" d="M1981.18,1237.36l-14.524.082a.987.987,0,0,0-.791.5l-3.361,6.634c-.141.278-.015.5.281.5l14.519-.013a.992.992,0,0,0,.8-.509l3.367-6.7C1981.613,1237.584,1981.482,1237.358,1981.18,1237.36Z" transform="translate(-1957.843 -1227.874)" fill="url(#linear-gradient-47)"/>
                <path id="Trazado_115597" data-name="Trazado 115597" d="M2102.416,1236.665l-14.836.084a1,1,0,0,0-.8.51l-3.367,6.7c-.141.281-.01.509.293.508l14.83-.013a1,1,0,0,0,.815-.515l3.373-6.77C2102.861,1236.891,2102.725,1236.663,2102.416,1236.665Z" transform="translate(-2061.614 -1227.278)" fill="url(#linear-gradient-48)"/>
                <path id="Trazado_115598" data-name="Trazado 115598" d="M2226.258,1235.956l-15.157.086a1.008,1.008,0,0,0-.815.516l-3.373,6.776c-.141.284,0,.514.3.514l15.152-.014a1.012,1.012,0,0,0,.827-.52l3.378-6.843A.326.326,0,0,0,2226.258,1235.956Z" transform="translate(-2167.614 -1226.669)" fill="url(#linear-gradient-49)"/>
                <path id="Trazado_115599" data-name="Trazado 115599" d="M1948.718,1301.806H1934.2a.983.983,0,0,0-.792.5l-3.377,6.665c-.141.279-.016.507.28.508l14.511.069a.988.988,0,0,0,.8-.508l3.383-6.73C1949.15,1302.034,1949.02,1301.806,1948.718,1301.806Z" transform="translate(-1929.974 -1283.186)" fill="url(#linear-gradient-50)"/>
                <path id="Trazado_115600" data-name="Trazado 115600" d="M2069.894,1301.8h-14.829a.991.991,0,0,0-.8.509l-3.383,6.736c-.142.282-.012.512.291.514l14.823.07a1,1,0,0,0,.816-.514l3.388-6.8C2070.338,1302.031,2070.2,1301.8,2069.894,1301.8Z" transform="translate(-2033.692 -1283.181)" fill="url(#linear-gradient-51)"/>
                <path id="Trazado_115601" data-name="Trazado 115601" d="M2192.465,1301.8h-15.151a1,1,0,0,0-.816.515l-3.646,7.325,15.706.074a1.006,1.006,0,0,0,.828-.519l3.394-6.876A.329.329,0,0,0,2192.465,1301.8Z" transform="translate(-2138.427 -1283.178)" fill="url(#linear-gradient-52)"/>
              </g>
            </g>
            <path id="Trazado_115602" data-name="Trazado 115602" d="M2223.344,1293.493h0l-10.327-.055a.158.158,0,0,1,0-.316h0l10.327.055h0c.224,0,.493-.272.623-.536l5.4-10.938a.158.158,0,0,1,.283.14l-5.4,10.938A1.178,1.178,0,0,1,2223.344,1293.493Z" transform="translate(-2170.024 -1263.776)" fill="#fff"/>
            <path id="Trazado_115603" data-name="Trazado 115603" d="M1984.972,1173.141a.161.161,0,0,1-.071-.017.157.157,0,0,1-.069-.212l4.612-9.1a1.141,1.141,0,0,1,.985-.494l11.357-.136h0a.158.158,0,0,1,0,.316l-11.356.136a.851.851,0,0,0-.708.32l-4.612,9.1A.158.158,0,0,1,1984.972,1173.141Z" transform="translate(-1974.302 -1162.129)" fill="#fff"/>
          </g>
        </g>
        <g id="Grupo_66327" data-name="Grupo 66327" transform="translate(398.062 252.309)">
          <g id="Grupo_66304" data-name="Grupo 66304" transform="translate(0 13.257)">
            <g id="Grupo_66294" data-name="Grupo 66294" transform="translate(6.699 5.027)">
              <path id="Trazado_115604" data-name="Trazado 115604" d="M447.1,745.429a.515.515,0,0,1-.278-.086.75.75,0,0,1-.247-.65l.619-6.068h-1.229a.578.578,0,0,1-.515-.4l-.032-.027a.628.628,0,0,1-.07-.52l1.535-5.995a.364.364,0,0,1,.359-.3.5.5,0,0,1,.286.043c.006,0,.012-.059.019-.059h5.138s0,.072,0,.071a.435.435,0,0,1,.322-.127.384.384,0,0,1,.338.265.523.523,0,0,1-.02.518l-.015.034-1.962,3.772a.749.749,0,0,0-.006.343c.022.058.068.175.106.175h.836c-.016,0,0,.069.007.064a.612.612,0,0,1,.219-.017.415.415,0,0,1,.376.312.644.644,0,0,1-.1.637l-5.326,7.814A.444.444,0,0,1,447.1,745.429ZM447.4,738a.423.423,0,0,1,.325.221.428.428,0,0,1,.125.4l-.6,5.733,4.937-7.306h-.839c-.335,0-.482-.308-.579-.562a1.6,1.6,0,0,1,.027-.986l1.8-3.5H447.5c-.028,0-.055.073-.081.068l-1.432,5.747c-.007.027.021.057.021.057v.012a.043.043,0,0,0,0,.054c.013.024.013-.02.028.012s.024.047.046.047h1.083C447.23,737.994,447.3,738,447.4,738Z" transform="translate(-445.324 -731.309)" fill="#fff"/>
            </g>
            <g id="Grupo_66303" data-name="Grupo 66303">
              <g id="Grupo_66298" data-name="Grupo 66298" transform="translate(0 11.905)">
                <g id="Grupo_66295" data-name="Grupo 66295" transform="translate(19.072 4.248)">
                  <path id="Trazado_115605" data-name="Trazado 115605" d="M532.937,811.1a.316.316,0,0,1-.255-.5c.149-.205.293-.419.426-.635a.316.316,0,1,1,.537.332c-.142.229-.294.456-.453.674A.315.315,0,0,1,532.937,811.1Z" transform="translate(-532.622 -809.812)" fill="#fff"/>
                </g>
                <g id="Grupo_66296" data-name="Grupo 66296" transform="translate(0.575 2.358)">
                  <path id="Trazado_115606" data-name="Trazado 115606" d="M412.548,804.013a.316.316,0,0,1-.005-.631,10.322,10.322,0,0,0,1.575-.148.316.316,0,1,1,.107.622,10.907,10.907,0,0,1-1.672.157Zm-1.627-.1a.318.318,0,0,1-.044,0,11,11,0,0,1-1.641-.356.316.316,0,0,1,.181-.6,10.385,10.385,0,0,0,1.547.335.316.316,0,0,1-.042.628Zm4.832-.455a.316.316,0,0,1-.1-.615,10.206,10.206,0,0,0,1.455-.621.316.316,0,0,1,.292.559,10.806,10.806,0,0,1-1.545.66A.309.309,0,0,1,415.753,803.461Zm-7.949-.476a.314.314,0,0,1-.135-.031,10.878,10.878,0,0,1-1.456-.837.316.316,0,0,1,.356-.521,10.206,10.206,0,0,0,1.371.789.316.316,0,0,1-.136.6Zm10.833-1.028a.316.316,0,0,1-.187-.57q.118-.087.233-.177a10.366,10.366,0,0,0,.967-.856.316.316,0,1,1,.447.446,11.1,11.1,0,0,1-1.025.908q-.123.1-.248.188A.313.313,0,0,1,418.637,801.956Zm-13.516-.807a.314.314,0,0,1-.216-.086,11.027,11.027,0,0,1-1.131-1.241.316.316,0,1,1,.5-.388,10.389,10.389,0,0,0,1.066,1.169.316.316,0,0,1-.216.546Zm-2-2.563a.315.315,0,0,1-.276-.161,10.87,10.87,0,0,1-.7-1.525.316.316,0,0,1,.592-.219,10.252,10.252,0,0,0,.663,1.436.316.316,0,0,1-.275.47Z" transform="translate(-402.12 -796.474)" fill="#fff"/>
                </g>
                <g id="Grupo_66297" data-name="Grupo 66297">
                  <path id="Trazado_115607" data-name="Trazado 115607" d="M398.5,781.25a.316.316,0,0,1-.309-.253c-.053-.265-.1-.535-.13-.8a.316.316,0,0,1,.626-.078c.031.252.073.506.123.755a.316.316,0,0,1-.247.372A.335.335,0,0,1,398.5,781.25Z" transform="translate(-398.062 -779.84)" fill="#fff"/>
                </g>
              </g>
              <g id="Grupo_66302" data-name="Grupo 66302" transform="translate(2.001)">
                <g id="Grupo_66299" data-name="Grupo 66299" transform="translate(0 3.662)">
                  <path id="Trazado_115608" data-name="Trazado 115608" d="M412.493,722.93a.316.316,0,0,1-.253-.5c.16-.216.331-.429.509-.634a.316.316,0,0,1,.477.413c-.167.193-.328.393-.479.6A.315.315,0,0,1,412.493,722.93Z" transform="translate(-412.178 -721.683)" fill="#fff"/>
                </g>
                <g id="Grupo_66300" data-name="Grupo 66300" transform="translate(1.634)">
                  <path id="Trazado_115609" data-name="Trazado 115609" d="M440.987,703.875a.316.316,0,0,1-.3-.221,10.2,10.2,0,0,0-.58-1.444.316.316,0,0,1,.566-.279,10.84,10.84,0,0,1,.616,1.533.316.316,0,0,1-.206.4A.307.307,0,0,1,440.987,703.875Zm-1.414-2.869a.315.315,0,0,1-.259-.135q-.157-.225-.328-.444c-.206-.264-.427-.521-.656-.762a.316.316,0,0,1,.458-.435c.244.257.478.529.7.809q.181.232.348.471a.316.316,0,0,1-.258.5Zm-15.553-2a.316.316,0,0,1-.205-.556q.18-.154.369-.3a11.2,11.2,0,0,1,.965-.674.316.316,0,0,1,.333.536,10.5,10.5,0,0,0-.91.636q-.178.138-.347.283A.315.315,0,0,1,424.019,699.007Zm13.35-.321a.313.313,0,0,1-.193-.066,10.229,10.229,0,0,0-1.3-.856.316.316,0,1,1,.306-.552,10.822,10.822,0,0,1,1.379.909.316.316,0,0,1-.193.565Zm-10.631-1.366a.316.316,0,0,1-.124-.606,10.837,10.837,0,0,1,1.565-.531.316.316,0,0,1,.157.612,10.2,10.2,0,0,0-1.473.5A.318.318,0,0,1,426.738,697.32Zm7.835-.185a.318.318,0,0,1-.11-.02,10.326,10.326,0,0,0-1.5-.428.316.316,0,1,1,.128-.618,10.991,10.991,0,0,1,1.588.455.316.316,0,0,1-.11.612Zm-4.737-.609a.316.316,0,0,1-.031-.63,11,11,0,0,1,1.651-.038.315.315,0,1,1-.033.63,10.368,10.368,0,0,0-1.556.036Z" transform="translate(-423.703 -695.843)" fill="#fff"/>
                </g>
                <g id="Grupo_66301" data-name="Grupo 66301" transform="translate(18.967 8.971)">
                  <path id="Trazado_115610" data-name="Trazado 115610" d="M546.409,760.553a.316.316,0,0,1-.314-.291c-.02-.252-.049-.508-.088-.76a.316.316,0,1,1,.624-.1c.041.267.072.539.093.806a.316.316,0,0,1-.29.339Z" transform="translate(-546.003 -759.139)" fill="#fff"/>
                </g>
              </g>
            </g>
          </g>
          <g id="Grupo_66315" data-name="Grupo 66315" transform="translate(37.074 29.984)">
            <g id="Grupo_66305" data-name="Grupo 66305" transform="translate(5.03 3.821)">
              <path id="Trazado_115611" data-name="Trazado 115611" d="M696.548,851.569a.47.47,0,0,1-.253-.078.678.678,0,0,1-.221-.583l.414-4.086h-.8c-.29,0-.374-.215-.449-.471a.417.417,0,0,0-.037-.081.566.566,0,0,1-.055-.449l1.155-4.524c.05-.2.207-.339.327-.339.2,0,.3.183.346.183h3.673c.052,0,.14-.316.357-.316h.216l.1.31.133.287-.169.172-1.472,2.794a.425.425,0,0,0,0,.172c.009.021.03.052.051.052h.546c.059,0,.126.018.212.018a.412.412,0,0,1,.353.309.574.574,0,0,1-.083.553l-4.008,5.884A.415.415,0,0,1,696.548,851.569Zm.324-5.693h.141l.188.28-.016.18-.421,4.018,3.446-5.109h-.471c-.308,0-.437-.257-.513-.455a1.268,1.268,0,0,1,.028-.793l1.156-2.223h-3.562c-.016,0-.031.075-.045.073l-1.038,4.112a1.157,1.157,0,0,1,.086.2c.007.025.017.035.027.035h.584c.026,0,.061-.033.113-.08l.023-.176Z" transform="translate(-695.129 -840.826)" fill="#fff"/>
            </g>
            <g id="Grupo_66314" data-name="Grupo 66314">
              <g id="Grupo_66309" data-name="Grupo 66309" transform="translate(0 8.957)">
                <g id="Grupo_66306" data-name="Grupo 66306" transform="translate(14.235 3.196)">
                  <path id="Trazado_115612" data-name="Trazado 115612" d="M760.386,900.895a.315.315,0,0,1-.25-.507c.152-.2.3-.409.43-.624a.316.316,0,0,1,.537.332c-.144.233-.3.46-.466.675A.315.315,0,0,1,760.386,900.895Z" transform="translate(-760.071 -899.614)" fill="#fff"/>
                </g>
                <g id="Grupo_66307" data-name="Grupo 66307" transform="translate(0.665 2.334)">
                  <path id="Trazado_115613" data-name="Trazado 115613" d="M672.638,898.762a.316.316,0,0,1-.029-.63,7.649,7.649,0,0,0,1.541-.307.316.316,0,1,1,.187.6,8.267,8.267,0,0,1-1.669.333ZM671,898.748l-.035,0a8.325,8.325,0,0,1-1.663-.36.316.316,0,0,1,.2-.6,7.7,7.7,0,0,0,1.536.333.316.316,0,0,1-.034.629Zm4.746-.949a.316.316,0,0,1-.154-.591,7.744,7.744,0,0,0,1-.66q.15-.117.292-.24a.316.316,0,1,1,.413.478q-.154.133-.317.26a8.344,8.344,0,0,1-1.078.715A.314.314,0,0,1,675.748,897.8Zm-7.842-.064a.315.315,0,0,1-.157-.042,8.262,8.262,0,0,1-1.379-1,.316.316,0,0,1,.421-.471,7.61,7.61,0,0,0,1.273.92.316.316,0,0,1-.158.589Zm-2.427-2.169a.315.315,0,0,1-.254-.128,8.325,8.325,0,0,1-.867-1.464.316.316,0,0,1,.573-.264,7.671,7.671,0,0,0,.8,1.353.316.316,0,0,1-.254.5Z" transform="translate(-664.33 -893.527)" fill="#fff"/>
                </g>
                <g id="Grupo_66308" data-name="Grupo 66308">
                  <path id="Trazado_115614" data-name="Trazado 115614" d="M660.089,878.469a.315.315,0,0,1-.307-.246c-.06-.265-.108-.536-.142-.807a.316.316,0,1,1,.626-.078c.031.25.075.5.131.746a.316.316,0,0,1-.238.378A.32.32,0,0,1,660.089,878.469Z" transform="translate(-659.638 -877.062)" fill="#fff"/>
                </g>
              </g>
              <g id="Grupo_66313" data-name="Grupo 66313" transform="translate(1.506)">
                <g id="Grupo_66310" data-name="Grupo 66310" transform="translate(0 2.608)">
                  <path id="Trazado_115615" data-name="Trazado 115615" d="M670.575,833.506a.316.316,0,0,1-.253-.5,8.2,8.2,0,0,1,.522-.633.316.316,0,0,1,.467.425c-.169.186-.331.382-.482.585A.315.315,0,0,1,670.575,833.506Z" transform="translate(-670.26 -832.266)" fill="#fff"/>
                </g>
                <g id="Grupo_66311" data-name="Grupo 66311" transform="translate(1.699)">
                  <path id="Trazado_115616" data-name="Trazado 115616" d="M694.662,819.5a.316.316,0,0,1-.293-.2,7.646,7.646,0,0,0-.718-1.369.316.316,0,1,1,.526-.348,8.25,8.25,0,0,1,.777,1.482.316.316,0,0,1-.293.433Zm-1.765-2.673a.315.315,0,0,1-.224-.093,7.632,7.632,0,0,0-1.2-.977.316.316,0,0,1,.347-.527,8.234,8.234,0,0,1,1.3,1.059.316.316,0,0,1-.224.538Zm-10.332-.8a.316.316,0,0,1-.187-.57,8.319,8.319,0,0,1,1.443-.847.316.316,0,0,1,.263.574,7.65,7.65,0,0,0-1.333.782A.314.314,0,0,1,682.566,816.028Zm7.659-.965a.315.315,0,0,1-.117-.023,7.7,7.7,0,0,0-1.486-.425.316.316,0,1,1,.112-.621,8.33,8.33,0,0,1,1.608.46.316.316,0,0,1-.117.609Zm-4.748-.367a.316.316,0,0,1-.07-.623,8.277,8.277,0,0,1,1.66-.207.312.312,0,0,1,.323.308.315.315,0,0,1-.308.323,7.685,7.685,0,0,0-1.534.192A.323.323,0,0,1,685.477,814.7Z" transform="translate(-682.25 -813.864)" fill="#fff"/>
                </g>
                <g id="Grupo_66312" data-name="Grupo 66312" transform="translate(14.241 6.556)">
                  <path id="Trazado_115617" data-name="Trazado 115617" d="M771.154,861.536a.316.316,0,0,1-.314-.291c-.02-.251-.052-.5-.1-.751a.316.316,0,0,1,.622-.111c.048.268.083.541.1.813a.316.316,0,0,1-.29.339Z" transform="translate(-770.738 -860.122)" fill="#fff"/>
                </g>
              </g>
            </g>
          </g>
          <g id="Grupo_66326" data-name="Grupo 66326" transform="translate(34.233)">
            <g id="Grupo_66316" data-name="Grupo 66316" transform="translate(4.308 3.19)">
              <path id="Trazado_115618" data-name="Trazado 115618" d="M671.207,634.1a.4.4,0,0,1-.216-.066.448.448,0,0,1-.189-.423l.355-3.423h-.681c-.248,0-.32-.259-.384-.478-.012-.042-.022-.085-.032-.108a.53.53,0,0,1-.047-.4l.989-3.882c.043-.169.177-.313.28-.313.173,0,.253.134.3.134h3.144c.045,0,.12-.316.305-.316h.185l.082.306.114.266-.145.158-1.26,2.4a.831.831,0,0,0,0,.224c.007.018.025.121.044.121h.468c.05,0,.108-.059.181-.059a.31.31,0,0,1,.3.228.457.457,0,0,1-.071.455l-3.431,5.027A.346.346,0,0,1,671.207,634.1Zm.278-4.859h.121l.161.233-.013.15-.36,3.4,2.95-4.414h-.4a.458.458,0,0,1-.44-.351.946.946,0,0,1,.024-.632l.989-1.857h-3.049c-.013,0-.026.036-.039.035l-.889,3.507a1.314,1.314,0,0,1,.073.193c.006.021.015.053.023.053h.5c.022,0,.052-.059.1-.1l.019-.159Z" transform="translate(-669.992 -624.818)" fill="#fff"/>
            </g>
            <g id="Grupo_66325" data-name="Grupo 66325">
              <g id="Grupo_66320" data-name="Grupo 66320" transform="translate(0 7.668)">
                <g id="Grupo_66317" data-name="Grupo 66317" transform="translate(12.185 2.736)">
                  <path id="Trazado_115619" data-name="Trazado 115619" d="M725.84,676.812a.27.27,0,0,1-.214-.434c.131-.17.254-.35.368-.534a.27.27,0,1,1,.459.284c-.123.2-.257.394-.4.578A.269.269,0,0,1,725.84,676.812Z" transform="translate(-725.57 -675.716)" fill="#fff"/>
                </g>
                <g id="Grupo_66318" data-name="Grupo 66318" transform="translate(0.569 1.998)">
                  <path id="Trazado_115620" data-name="Trazado 115620" d="M650.724,674.986a.27.27,0,0,1-.025-.539,6.557,6.557,0,0,0,1.319-.263.27.27,0,1,1,.16.516,7.086,7.086,0,0,1-1.429.285Zm-1.4-.012-.03,0a7.132,7.132,0,0,1-1.423-.309.27.27,0,0,1,.168-.514,6.6,6.6,0,0,0,1.315.285.27.27,0,0,1-.03.539Zm4.063-.812a.27.27,0,0,1-.132-.506,6.63,6.63,0,0,0,.853-.565q.129-.1.25-.206a.27.27,0,0,1,.353.409q-.132.114-.271.222a7.148,7.148,0,0,1-.923.612A.269.269,0,0,1,653.387,674.161Zm-6.713-.055a.271.271,0,0,1-.135-.036,7.066,7.066,0,0,1-1.18-.853.27.27,0,1,1,.36-.4,6.509,6.509,0,0,0,1.09.788.27.27,0,0,1-.135.5ZM644.6,672.25a.27.27,0,0,1-.218-.11,7.123,7.123,0,0,1-.742-1.253.27.27,0,1,1,.491-.226,6.577,6.577,0,0,0,.686,1.158.27.27,0,0,1-.217.431Z" transform="translate(-643.612 -670.504)" fill="#fff"/>
                </g>
                <g id="Grupo_66319" data-name="Grupo 66319">
                  <path id="Trazado_115621" data-name="Trazado 115621" d="M639.983,657.615a.27.27,0,0,1-.263-.21c-.051-.227-.092-.459-.121-.691a.27.27,0,0,1,.536-.067c.027.214.065.429.112.639a.27.27,0,0,1-.2.323A.262.262,0,0,1,639.983,657.615Z" transform="translate(-639.596 -656.41)" fill="#fff"/>
                </g>
              </g>
              <g id="Grupo_66324" data-name="Grupo 66324" transform="translate(1.289)">
                <g id="Grupo_66321" data-name="Grupo 66321" transform="translate(0 2.233)">
                  <path id="Trazado_115622" data-name="Trazado 115622" d="M648.959,619.125a.27.27,0,0,1-.217-.431,6.97,6.97,0,0,1,.446-.542.27.27,0,1,1,.4.364c-.145.159-.284.327-.412.5A.27.27,0,0,1,648.959,619.125Z" transform="translate(-648.689 -618.063)" fill="#fff"/>
                </g>
                <g id="Grupo_66322" data-name="Grupo 66322" transform="translate(1.455)">
                  <path id="Trazado_115623" data-name="Trazado 115623" d="M669.578,607.132a.27.27,0,0,1-.251-.17,6.552,6.552,0,0,0-.615-1.172.27.27,0,1,1,.451-.3,7.077,7.077,0,0,1,.665,1.269.271.271,0,0,1-.251.371Zm-1.511-2.288a.27.27,0,0,1-.191-.079,6.519,6.519,0,0,0-1.024-.836.27.27,0,1,1,.3-.451,7.052,7.052,0,0,1,1.109.906.27.27,0,0,1-.191.461Zm-8.844-.682a.27.27,0,0,1-.16-.488,7.112,7.112,0,0,1,1.235-.725.27.27,0,0,1,.225.491,6.554,6.554,0,0,0-1.141.67A.269.269,0,0,1,659.223,604.162Zm6.557-.826a.268.268,0,0,1-.1-.019,6.589,6.589,0,0,0-1.272-.364.27.27,0,1,1,.1-.532,7.123,7.123,0,0,1,1.376.394.27.27,0,0,1-.1.521Zm-4.065-.315a.27.27,0,0,1-.06-.534,7.1,7.1,0,0,1,1.421-.178.267.267,0,0,1,.276.264.27.27,0,0,1-.264.276,6.577,6.577,0,0,0-1.313.164A.267.267,0,0,1,661.715,603.021Z" transform="translate(-658.953 -602.309)" fill="#fff"/>
                </g>
                <g id="Grupo_66323" data-name="Grupo 66323" transform="translate(12.191 5.612)">
                  <path id="Trazado_115624" data-name="Trazado 115624" d="M735.058,643.119a.27.27,0,0,1-.269-.249c-.017-.215-.044-.431-.082-.643a.27.27,0,1,1,.532-.1c.041.229.071.463.089.7a.27.27,0,0,1-.248.29Z" transform="translate(-734.703 -641.909)" fill="#fff"/>
                </g>
              </g>
            </g>
          </g>
        </g>
        <g id="Grupo_66333" data-name="Grupo 66333" transform="translate(555.825 298.506)">
          <path id="Trazado_115625" data-name="Trazado 115625" d="M1628.336,1457.974s.277,1.566.412,3.117a1.069,1.069,0,0,1-1.022,1.157c-2.065.086-6.483.253-8.068.182a.347.347,0,0,1-.306-.476h0a.777.777,0,0,1,.4-.419l7.3-3.354Z" transform="translate(-1603.998 -1382.895)" fill="url(#linear-gradient-53)"/>
          <path id="Trazado_115626" data-name="Trazado 115626" d="M1670.112,1449.727l-.222,1.874a2.325,2.325,0,0,1-2.151-.075l.529-2.088Z" transform="translate(-1645.547 -1375.569)" fill="url(#linear-gradient-54)"/>
          <path id="Trazado_115627" data-name="Trazado 115627" d="M1670.875,1202.92c.1.489.516,24.419-2.042,35.143a.364.364,0,0,0,.214.423,6.335,6.335,0,0,0,2.083.423.627.627,0,0,0,.622-.45c.731-2.488,4.235-14.954,4.692-26.862.511-13.306,0-.453,0-.453l-.3-8.225Z" transform="translate(-1646.478 -1163.99)" fill="url(#linear-gradient-55)"/>
          <path id="Trazado_115628" data-name="Trazado 115628" d="M1724.379,1463.74a11.276,11.276,0,0,1,.867,2.892.652.652,0,0,1-.574.781c-.682.067-1.732.153-2.573.148a.65.65,0,0,1-.643-.725,5.481,5.481,0,0,1,1.28-3.006Z" transform="translate(-1691.647 -1387.844)" fill="url(#linear-gradient-56)"/>
          <path id="Trazado_115629" data-name="Trazado 115629" d="M1732.426,1446.069l-.52,2.834a1.832,1.832,0,0,1-1.53.1l.248-3.049Z" transform="translate(-1699.308 -1372.583)" fill="url(#linear-gradient-57)"/>
          <path id="Trazado_115630" data-name="Trazado 115630" d="M1692.148,1200.087c2.092,12.625-.454,31.205-1.312,34.842a.567.567,0,0,1-.458.43,3.808,3.808,0,0,1-1.636-.065.52.52,0,0,1-.374-.478c-.115-2.94.092-20.989-1.857-28.121a1.62,1.62,0,0,0-.625-.894l-3.783-2.69-.29-4.348Z" transform="translate(-1657.626 -1160.423)" fill="url(#linear-gradient-58)"/>
          <g id="Grupo_66328" data-name="Grupo 66328" transform="translate(2.673 6.032)">
            <path id="Trazado_115631" data-name="Trazado 115631" d="M1605.88,1033.113a58.939,58.939,0,0,1,13.187,1.646c1.869,10.9.327,23.481.327,23.481-4.854,1.273-10.329-.778-10.329-.778-.807-4.558-4.571-17.385-4.571-17.385a20.653,20.653,0,0,1-7.665-2.432,13.444,13.444,0,0,0,2.657-5.557A21.027,21.027,0,0,0,1605.88,1033.113Z" transform="translate(-1587.361 -1023.403)" fill="url(#linear-gradient-59)"/>
            <path id="Trazado_115632" data-name="Trazado 115632" d="M1530.025,971.287a1.2,1.2,0,0,1,1.4-.392c.922,3.9,5.76,7.057,10.73,8.6a13.446,13.446,0,0,1-2.657,5.557C1531.245,980.417,1530.025,971.287,1530.025,971.287Z" transform="translate(-1530.025 -970.812)" fill="url(#linear-gradient-60)"/>
          </g>
          <g id="Grupo_66329" data-name="Grupo 66329">
            <path id="Trazado_115633" data-name="Trazado 115633" d="M1513.99,934.948c-.064.2.682.517,1.121-.321a7.9,7.9,0,0,0,.02-2.449,32.044,32.044,0,0,0-3.756-3.927.59.59,0,0,0-.074.819l1.2,1.252a5.822,5.822,0,0,0-.7,1.387,1.684,1.684,0,0,0,.168,1.24c.211.38.5.874.771,1.261A1.664,1.664,0,0,0,1513.99,934.948Z" transform="translate(-1511.167 -928.252)" fill="url(#linear-gradient-61)"/>
            <path id="Trazado_115634" data-name="Trazado 115634" d="M1522.833,948.6l1.1.929.344.924-.977,1.083a12.589,12.589,0,0,0-.572-2.231C1522.479,948.906,1522.605,948.714,1522.833,948.6Z" transform="translate(-1520.971 -945.714)" fill="url(#linear-gradient-62)"/>
          </g>
          <path id="Trazado_115635" data-name="Trazado 115635" d="M1736.758,1057l2.4-6.071s5.856,3.979,6.819,9.024a13.858,13.858,0,0,0-5.091,1.364C1740.458,1058.939,1736.758,1057,1736.758,1057Z" transform="translate(-1704.784 -1033.545)" fill="url(#linear-gradient-63)"/>
          <path id="Trazado_115636" data-name="Trazado 115636" d="M1695.383,1117.359s6.575,3.716,8.793.543a2.493,2.493,0,0,0,.457-1.938,13.859,13.859,0,0,1,5.091-1.364,6.963,6.963,0,0,1-.757,4.773c-3.886,7.108-14.455-.393-14.455-.393Z" transform="translate(-1668.527 -1088.188)" fill="url(#linear-gradient-64)"/>
          <g id="Grupo_66330" data-name="Grupo 66330" transform="translate(11.221 19.082)">
            <path id="Trazado_115637" data-name="Trazado 115637" d="M1606.764,1085.047l-3.588-12.531a.365.365,0,0,0-.309-.263c-.65-.076-2.534-.289-4.709-.473a53.439,53.439,0,0,0-7.481-.248.366.366,0,0,0-.3.528c1.034,2.092,5.286,10.6,7.416,13.387a.368.368,0,0,0,.3.145l8.325-.077A.367.367,0,0,0,1606.764,1085.047Z" transform="translate(-1590.339 -1070.258)" fill="#bdd0fb"/>
            <path id="Trazado_115638" data-name="Trazado 115638" d="M1625.806,1063.323l-2.6-.433a.187.187,0,0,0-.208.243l.258.78a.186.186,0,0,0,.152.127l2.5.334a.187.187,0,0,0,.206-.228l-.159-.681A.187.187,0,0,0,1625.806,1063.323Z" transform="translate(-1618.359 -1062.887)" fill="url(#linear-gradient-65)"/>
            <path id="Trazado_115639" data-name="Trazado 115639" d="M1620.407,1070.246l-.214-1.116a.259.259,0,0,0-.228-.208l-5.255-.533a.258.258,0,0,0-.277.317l.334,1.391a.258.258,0,0,0,.238.2l5.135.258A.258.258,0,0,0,1620.407,1070.246Z" transform="translate(-1611.013 -1067.608)" fill="url(#linear-gradient-66)"/>
            <path id="Trazado_115640" data-name="Trazado 115640" d="M1673.256,1120a9.12,9.12,0,0,0,.3-2.785c-.2-.729-.592-1.667-1.894-1.458a19.067,19.067,0,0,0-2.838.757.745.745,0,0,0,1.067.644l-.614.475s.088.76.924.354l-.571.63a.665.665,0,0,0,.974.224C1671.218,1118.441,1671.512,1120.249,1673.256,1120Z" transform="translate(-1657.698 -1108.239)" fill="url(#linear-gradient-67)"/>
          </g>
          <path id="Trazado_115641" data-name="Trazado 115641" d="M1680.9,1003.408l1.995,5.769a.208.208,0,0,1-.095.25,4.689,4.689,0,0,1-4.864-.327.978.978,0,0,1-.451-.7l-.646-4.993Z" transform="translate(-1653.359 -992.756)" fill="url(#linear-gradient-68)"/>
          <g id="Grupo_66331" data-name="Grupo 66331" transform="translate(21.267 2.343)">
            <path id="Trazado_115642" data-name="Trazado 115642" d="M1663.15,965.716s-2.19,4.124-1.91,5.789,3,1.546,5.366.193l1.657-4.452Z" transform="translate(-1661.216 -962.749)" fill="url(#linear-gradient-69)"/>
            <path id="Trazado_115643" data-name="Trazado 115643" d="M1671.575,951.547a.17.17,0,0,1-.074-.249,4.439,4.439,0,0,0,.609-1.294s.394-.252-1-.586-3.478-.853-3.916-2.041c-.426-1.159,1.311-3.015,2.483-1.751a.174.174,0,0,0,.269,0,1.752,1.752,0,0,1,2.134-.693,1.607,1.607,0,0,1,1.1,1.553.169.169,0,0,0,.2.173,1.96,1.96,0,0,1,2.289,1.067,1.576,1.576,0,0,1-.113,1.892.169.169,0,0,0,.073.281,1.02,1.02,0,0,1,.719,1.164c-.06,1.078-1.264.983-1.607.934a.17.17,0,0,0-.151.053,5.791,5.791,0,0,1-3.054,1.875.171.171,0,0,1-.18-.226l.621-1.8a.171.171,0,0,0-.093-.212Z" transform="translate(-1666.289 -944.785)" fill="url(#linear-gradient-70)"/>
            <path id="Trazado_115644" data-name="Trazado 115644" d="M1693.828,991.1s1.56-1.07,1.674-.169-1.4,1.305-2.156.969Z" transform="translate(-1688.791 -984.078)" fill="url(#linear-gradient-71)"/>
          </g>
          <g id="Grupo_66332" data-name="Grupo 66332" transform="translate(20.624 0.443)">
            <path id="Trazado_115645" data-name="Trazado 115645" d="M1668.735,937.218s2.485-4.292,6.926-1.728,2.039,5.715,2.039,5.715Z" transform="translate(-1667.026 -934.206)" fill="url(#linear-gradient-72)"/>
            <path id="Trazado_115646" data-name="Trazado 115646" d="M1677.84,934.613s-5.351-4.271-7.879.319c-1.033-.455-1.226-.545-1.226-.545s2.245-4.112,5.307-2.727S1677.845,933.709,1677.84,934.613Z" transform="translate(-1667.026 -931.375)" fill="url(#linear-gradient-73)"/>
            <path id="Trazado_115647" data-name="Trazado 115647" d="M1689.57,956.846a.056.056,0,0,0,.049,0l.035-.019c.8-.426,2.13-1.139,3.015-.773a8.258,8.258,0,0,1,1.243.7c.283.181.577.369.87.523.4.21.841.435,1.346.687h0a.055.055,0,0,0,.048-.1c-.505-.252-.945-.476-1.344-.686-.29-.152-.581-.338-.862-.518a8.548,8.548,0,0,0-1.261-.708c-.933-.386-2.3.343-3.109.778l-.035.018a.055.055,0,0,0,0,.1Z" transform="translate(-1684.881 -952.374)" fill="#fff"/>
            <path id="Trazado_115648" data-name="Trazado 115648" d="M1667.338,957.27l-10.552-4.059a.168.168,0,0,1,.009-.317,3.635,3.635,0,0,1,1.806-.259c1.156.518,8.752,3.94,8.752,3.94S1667.542,956.664,1667.338,957.27Z" transform="translate(-1656.678 -949.577)" fill="url(#linear-gradient-74)"/>
          </g>
        </g>
        <g id="Grupo_66338" data-name="Grupo 66338" transform="translate(525.753 305.976)">
          <g id="Grupo_66337" data-name="Grupo 66337" transform="translate(0 0)">
            <g id="Grupo_66335" data-name="Grupo 66335">
              <path id="Trazado_115649" data-name="Trazado 115649" d="M1312.6,1030.822l-2.321,7.362a5.826,5.826,0,0,1-6.129.091,8.747,8.747,0,0,1-1.627-1.165c-4.169-3.721-1.4-9.134-1.4-9.134s-3.182-1.284-1.768-3.985a.231.231,0,0,1,.427.047,3.812,3.812,0,0,0,1.761,2.509c.054.022.1.047.152.069a.546.546,0,0,0-.065-.485c-.329-.5.264-1.182.264-1.182a1.522,1.522,0,0,0,.5.98,1.469,1.469,0,0,1,.315,1.649c-.572,2.213-1.425,5.138,1.9,7.279a2.76,2.76,0,0,0,1.056.409C1308.83,1035.8,1312.6,1030.822,1312.6,1030.822Z" transform="translate(-1298.991 -1017.786)" fill="url(#linear-gradient-75)"/>
              <path id="Trazado_115650" data-name="Trazado 115650" d="M1343.85,1072.929l-2.322,7.362a5.826,5.826,0,0,1-6.129.091l1.5-3.009C1340.079,1077.9,1343.85,1072.929,1343.85,1072.929Z" transform="translate(-1330.24 -1059.893)" fill="url(#linear-gradient-76)"/>
              <path id="Trazado_115651" data-name="Trazado 115651" d="M1386.545,987.8s-1.314-4.578,3.6-3.319c0,0,2.41-.336,2.478,1.933a7.365,7.365,0,0,1,1.085,3.5s4.735,1.224,5.482,3.121c.765,1.942.34,5.026-1.6,5.559a1.923,1.923,0,0,1,.764,2.578c-.782,1.756-4.561,2.918-6.725.709,0,0-6.322.685-6.091-3.764,0,0-2.887-1.962.279-5.568S1386.545,987.8,1386.545,987.8Z" transform="translate(-1372.238 -983.793)" fill="url(#linear-gradient-77)"/>
              <path id="Trazado_115652" data-name="Trazado 115652" d="M1373.839,1065.606a6.785,6.785,0,0,1,6.641,1.692,1.7,1.7,0,0,1,.491,1.7c-.739,2.722-2.69,10.764-.979,14.244,0,0-3.014,3.323-6.3.645,0,0-1.475-6.43-3.408-9.253-1.334-1.949,2.127-7.319,3-8.616A1.026,1.026,0,0,1,1373.839,1065.606Z" transform="translate(-1359.917 -1053.38)" fill="url(#linear-gradient-78)"/>
              <path id="Trazado_115653" data-name="Trazado 115653" d="M1406.666,1030.059a33.861,33.861,0,0,1,1.581,5.992,3.144,3.144,0,0,1-3.156-.508,46.2,46.2,0,0,0-.392-4.9Z" transform="translate(-1389.716 -1023.099)" fill="url(#linear-gradient-79)"/>
              <path id="Trazado_115654" data-name="Trazado 115654" d="M1385.384,999.983s-3.97,5.289-1.709,6.905,5.087-2.142,5.087-2.142.961-2.923.052-3.944S1385.384,999.983,1385.384,999.983Z" transform="translate(-1371.074 -997.272)" fill="url(#linear-gradient-80)"/>
              <path id="Trazado_115655" data-name="Trazado 115655" d="M1400.241,990.971s-1.775.377-2.042,1.17,2.468,1.6,3.238,1.653l.545,3.239s1.908-2.99,1.221-4.758S1400.241,990.971,1400.241,990.971Z" transform="translate(-1384.122 -989.504)" fill="url(#linear-gradient-81)"/>
              <path id="Trazado_115656" data-name="Trazado 115656" d="M1418.589,1025.02s1.537-1.7,2.106-.554-1.393,1.946-2.052,1.375Z" transform="translate(-1401.638 -1017.959)" fill="url(#linear-gradient-82)"/>
              <path id="Trazado_115657" data-name="Trazado 115657" d="M1364.044,1291.442c.011.292-.5,2.607-.78,3.842a2.034,2.034,0,0,0,.219,1.459l9.66,16.259a2.219,2.219,0,0,1,.254.633,13.956,13.956,0,0,1,.353,4.334l-.5,1.038,2.161-.491.47-5.8-.612-.373a2.91,2.91,0,0,1-1.176-1.377,82.95,82.95,0,0,1-3.6-10.155c-.635-2.991-3.958-5.421-3.958-5.421l.583-1.38Z" transform="translate(-1354.111 -1247.436)" fill="url(#linear-gradient-83)"/>
              <path id="Trazado_115658" data-name="Trazado 115658" d="M1434.648,1442.635a13.191,13.191,0,0,1-1.3-2.571c-.137-.72-.52-1.992-1.239-1.609a42.277,42.277,0,0,0-.222,4.866c.117,1.367-1.546,1.323-1.546,1.323a1.553,1.553,0,0,0-.794.4.389.389,0,0,0,.261.655,9.355,9.355,0,0,0,2.316-.131.708.708,0,0,0,.571-.653l.24-4.027,1.473,1.859Z" transform="translate(-1410.947 -1373.552)" fill="url(#linear-gradient-84)"/>
              <path id="Trazado_115659" data-name="Trazado 115659" d="M1397.617,1307.343s.341,14.543.387,16.609-.326,6.643-2.4,8.011l.9.667a12.034,12.034,0,0,0,2.226-2.8,17.044,17.044,0,0,1,1.609-2.447l-.41-.839a1.847,1.847,0,0,1-.15-1.184c.447-2.166,1.939-9.369,2.347-10.92a6.987,6.987,0,0,0-1.158-6.323C1399.3,1306.069,1397.617,1307.343,1397.617,1307.343Z" transform="translate(-1381.913 -1260.747)" fill="url(#linear-gradient-85)"/>
              <path id="Trazado_115660" data-name="Trazado 115660" d="M1393.381,1454.909a.127.127,0,0,0,.128-.109,18.834,18.834,0,0,1,.591-2.932c.269-.576,1.147-3,0-3.208,0,0-2.854,4.169-3.4,4.731a1.074,1.074,0,0,1-1.239.2,2.062,2.062,0,0,0-.936.672.378.378,0,0,0,.3.607l1.922.018a1.353,1.353,0,0,0,1.268-.852,7.216,7.216,0,0,1,1.6-2.634l-.352,3.37A.128.128,0,0,0,1393.381,1454.909Z" transform="translate(-1375.766 -1382.37)" fill="url(#linear-gradient-86)"/>
              <path id="Trazado_115661" data-name="Trazado 115661" d="M1366.442,1179.354a6.824,6.824,0,0,1-.232,3.654l-4.127,14.413a.446.446,0,0,0,.279.543,27.529,27.529,0,0,0,10.833,1.314.628.628,0,0,0,.573-.49c.365-1.643,1.611-7.249,1.867-8.4.977-4.389,2.068-9.123-2.731-11.985C1370.691,1179.349,1368.628,1179.908,1366.442,1179.354Z" transform="translate(-1353.125 -1150.417)" fill="url(#linear-gradient-87)"/>
              <g id="Grupo_66334" data-name="Grupo 66334" transform="translate(11.87)">
                <path id="Trazado_115662" data-name="Trazado 115662" d="M1392.874,986.354a4.317,4.317,0,0,1,5.833-2.288c4.155,1.729,2.421,4.743,2.421,4.743Z" transform="translate(-1391.438 -983.254)" fill="url(#linear-gradient-88)"/>
                <path id="Trazado_115663" data-name="Trazado 115663" d="M1400.825,983.22s-5.141-3.112-6.822,1.17c-.951-.279-1.129-.336-1.129-.336s1.489-3.833,4.311-2.974S1400.727,982.432,1400.825,983.22Z" transform="translate(-1391.438 -980.954)" fill="url(#linear-gradient-89)"/>
                <path id="Trazado_115664" data-name="Trazado 115664" d="M1417.981,1002.516a.042.042,0,0,1-.016,0c-.46-.159-.869-.3-1.25-.446-.273-.1-.549-.23-.815-.355a7.209,7.209,0,0,0-1.163-.468c-.81-.219-1.891.553-2.536,1.014l-.028.02a.049.049,0,0,1-.057-.08l.028-.02c.659-.47,1.762-1.26,2.619-1.029a7.329,7.329,0,0,1,1.18.474c.264.124.538.253.806.352.381.14.789.286,1.249.445a.049.049,0,0,1-.016.1Z" transform="translate(-1407.935 -998.251)" fill="url(#linear-gradient-90)"/>
                <path id="Trazado_115665" data-name="Trazado 115665" d="M1392.5,1005.87l-9.644-2.338a.147.147,0,0,1-.028-.277,3.191,3.191,0,0,1,1.542-.43c1.065.32,8.063,2.439,8.063,2.439S1392.608,1005.32,1392.5,1005.87Z" transform="translate(-1382.743 -999.708)" fill="url(#linear-gradient-91)"/>
              </g>
              <path id="Trazado_115666" data-name="Trazado 115666" d="M1438.445,1088.346s.032,0,.032,0c-.52-.408-3.281-.423-3.281-.423s-2.005-2.9-2.685-3.624l-.063-.063c-.015-.015-.03-.03-.052-.048-.249-.23-.513-.46-.8-.7a2.5,2.5,0,0,1-.72-.984c-1.062-2.674-.223-4.422,1.708-3.3a20.418,20.418,0,0,1,5.666,8.2c.019.059.033.115.052.171.063.223.126.434.182.631,0,.015-.012.036-.008.051C1438.488,1088.284,1438.434,1088.313,1438.445,1088.346Z" transform="translate(-1411.786 -1064.982)" fill="url(#linear-gradient-92)"/>
            </g>
            <path id="Trazado_115667" data-name="Trazado 115667" d="M1412.076,1143.454s4.742,2.68,6.343.391a5.72,5.72,0,0,0,.5-2.562c1.422-.718,2.491.337,3.29.279a4.626,4.626,0,0,1-.333,3.344c-2.8,5.128-10.427-.283-10.427-.283Z" transform="translate(-1395.509 -1118.344)" fill="url(#linear-gradient-93)"/>
            <g id="Grupo_66336" data-name="Grupo 66336" transform="translate(5.288 17.832)">
              <path id="Trazado_115668" data-name="Trazado 115668" d="M1348.149,1122.755l-2.588-9.039a.264.264,0,0,0-.223-.19c-.469-.055-1.828-.208-3.4-.341a38.494,38.494,0,0,0-5.4-.179.264.264,0,0,0-.216.38c.746,1.509,3.814,7.647,5.35,9.657a.266.266,0,0,0,.213.1l6.005-.056A.265.265,0,0,0,1348.149,1122.755Z" transform="translate(-1336.3 -1112.086)" fill="#91b3fa"/>
              <path id="Trazado_115669" data-name="Trazado 115669" d="M1361.885,1107.083l-1.877-.313a.135.135,0,0,0-.15.175l.186.563a.134.134,0,0,0,.11.091l1.806.241a.135.135,0,0,0,.149-.164l-.115-.491A.135.135,0,0,0,1361.885,1107.083Z" transform="translate(-1356.513 -1106.769)" fill="#bdd0fb"/>
              <path id="Trazado_115670" data-name="Trazado 115670" d="M1357.99,1112.077l-.155-.805a.186.186,0,0,0-.164-.15l-3.79-.385a.186.186,0,0,0-.2.229l.241,1a.186.186,0,0,0,.172.142l3.7.187A.186.186,0,0,0,1357.99,1112.077Z" transform="translate(-1351.213 -1110.174)" fill="#bdd0fb"/>
              <path id="Trazado_115671" data-name="Trazado 115671" d="M1396.114,1147.969a6.58,6.58,0,0,0,.215-2.009c-.145-.526-.427-1.2-1.366-1.052a13.756,13.756,0,0,0-2.048.546.538.538,0,0,0,.77.464l-.443.343s.063.549.666.255l-.412.454a.48.48,0,0,0,.7.162C1394.643,1146.844,1394.856,1148.148,1396.114,1147.969Z" transform="translate(-1384.891 -1139.485)" fill="url(#linear-gradient-94)"/>
            </g>
          </g>
        </g>
        <g id="Grupo_66341" data-name="Grupo 66341" transform="translate(530.621 264.93)">
          <g id="Grupo_66339" data-name="Grupo 66339" transform="translate(23.938)">
            <path id="Trazado_115672" data-name="Trazado 115672" d="M1502.577,796.893c.231.1.476.2.718.292s.488.182.734.268a.24.24,0,1,1-.158.454q-.376-.131-.748-.273c-.249-.1-.493-.192-.744-.3a.241.241,0,1,1,.193-.442h0Z" transform="translate(-1502.235 -781.916)" fill="#91b3fa"/>
            <path id="Trazado_115673" data-name="Trazado 115673" d="M1523.524,804.286l1.513.407.011,0a.239.239,0,0,1-.124.461l-1.535-.412a.24.24,0,0,1,.124-.463h0Z" transform="translate(-1520.239 -788.27)" fill="#91b3fa"/>
            <path id="Trazado_115674" data-name="Trazado 115674" d="M1545.138,809.569l1.545.264.011,0a.237.237,0,0,1-.08.468l-1.567-.266a.238.238,0,0,1,.079-.469h0Z" transform="translate(-1538.809 -792.809)" fill="#91b3fa"/>
            <path id="Trazado_115675" data-name="Trazado 115675" d="M1567.188,812.771q.779.073,1.562.1a.236.236,0,0,1-.019.471q-.795-.031-1.587-.105a.237.237,0,1,1,.044-.471Z" transform="translate(-1557.76 -795.561)" fill="#91b3fa"/>
            <path id="Trazado_115676" data-name="Trazado 115676" d="M1589.412,813.18q.782-.014,1.561-.076a.234.234,0,0,1,.038.467q-.794.064-1.59.079a.235.235,0,1,1-.009-.47Z" transform="translate(-1576.858 -795.847)" fill="#91b3fa"/>
            <path id="Trazado_115677" data-name="Trazado 115677" d="M1611.571,810.137q.773-.114,1.536-.281a.233.233,0,0,1,.1.454q-.779.172-1.568.288a.233.233,0,1,1-.068-.461Z" transform="translate(-1595.904 -793.055)" fill="#91b3fa"/>
            <path id="Trazado_115678" data-name="Trazado 115678" d="M1633.273,803.972q.747-.224,1.476-.505a.231.231,0,0,1,.167.431q-.744.289-1.509.519a.232.232,0,0,1-.134-.444Z" transform="translate(-1614.559 -787.563)" fill="#91b3fa"/>
            <path id="Trazado_115679" data-name="Trazado 115679" d="M1653.956,794.676l1.395-.714.009,0a.229.229,0,0,1,.209.408l-1.414.725a.23.23,0,1,1-.21-.409h0Z" transform="translate(-1632.335 -779.393)" fill="#91b3fa"/>
            <path id="Trazado_115680" data-name="Trazado 115680" d="M1673.559,783.493l1.338-.821.007,0a.228.228,0,1,1,.238.388l-1.351.831a.228.228,0,1,1-.239-.389h0Z" transform="translate(-1649.177 -769.696)" fill="#91b3fa"/>
            <path id="Trazado_115681" data-name="Trazado 115681" d="M1692.3,770.885l1.268-.922.008-.006a.226.226,0,0,1,.266.366l-1.284.935a.227.227,0,1,1-.267-.367h0Z" transform="translate(-1665.272 -758.778)" fill="#91b3fa"/>
            <path id="Trazado_115682" data-name="Trazado 115682" d="M1709.992,756.6c.4-.338.785-.687,1.158-1.049a.225.225,0,1,1,.313.322q-.572.556-1.179,1.071a.225.225,0,1,1-.292-.343Z" transform="translate(-1680.478 -746.397)" fill="#91b3fa"/>
            <path id="Trazado_115683" data-name="Trazado 115683" d="M1725.871,739.887a12.365,12.365,0,0,0,.94-1.231.223.223,0,1,1,.372.246,12.772,12.772,0,0,1-.973,1.277.224.224,0,1,1-.339-.292Z" transform="translate(-1694.128 -731.865)" fill="#91b3fa"/>
            <path id="Trazado_115684" data-name="Trazado 115684" d="M1737.893,719.721a5.236,5.236,0,0,0,.389-1.458.221.221,0,0,1,.44.047,5.686,5.686,0,0,1-.419,1.583.222.222,0,1,1-.411-.171Z" transform="translate(-1704.478 -714.278)" fill="#91b3fa"/>
            <path id="Trazado_115685" data-name="Trazado 115685" d="M1735.074,699.225a3.925,3.925,0,0,0-.27-.693,1.777,1.777,0,0,0-.446-.536.22.22,0,1,1,.281-.338,2.217,2.217,0,0,1,.555.671,4.368,4.368,0,0,1,.3.776.221.221,0,0,1-.425.121Z" transform="translate(-1701.391 -696.721)" fill="#91b3fa"/>
            <path id="Trazado_115686" data-name="Trazado 115686" d="M1715.057,691.984a5.777,5.777,0,0,0-1.5-.2.218.218,0,1,1,0-.437,6.231,6.231,0,0,1,1.619.21.219.219,0,0,1-.114.423Z" transform="translate(-1683.415 -691.351)" fill="#91b3fa"/>
            <path id="Trazado_115687" data-name="Trazado 115687" d="M1694.969,693.394a2.681,2.681,0,0,0-.657.311,1.659,1.659,0,0,0-.268.222c-.078.077-.15.188-.225.28l-.021.026a.216.216,0,0,1-.335-.273,4.068,4.068,0,0,1,.269-.334,2.091,2.091,0,0,1,.338-.281,3.105,3.105,0,0,1,.764-.365.218.218,0,1,1,.138.413Z" transform="translate(-1666.318 -692.74)" fill="#91b3fa"/>
            <path id="Trazado_115688" data-name="Trazado 115688" d="M1690.534,709.969a3.9,3.9,0,0,0,.285,1.458.215.215,0,1,1-.4.153,4.329,4.329,0,0,1-.314-1.621.216.216,0,1,1,.432.009Z" transform="translate(-1663.475 -707.14)" fill="#91b3fa"/>
            <path id="Trazado_115689" data-name="Trazado 115689" d="M1697.652,730.646a10.089,10.089,0,0,0,.912,1.246.214.214,0,0,1-.325.278,10.558,10.558,0,0,1-.952-1.3.214.214,0,0,1,.364-.226Z" transform="translate(-1669.614 -724.99)" fill="#91b3fa"/>
            <path id="Trazado_115690" data-name="Trazado 115690" d="M1712.014,747.5a12.679,12.679,0,0,0,1.225.951.212.212,0,0,1-.239.35,13.116,13.116,0,0,1-1.267-.982.213.213,0,0,1,.281-.319Z" transform="translate(-1681.978 -739.495)" fill="#91b3fa"/>
            <path id="Trazado_115691" data-name="Trazado 115691" d="M1730.288,760.085q.685.371,1.4.679a.21.21,0,0,1-.167.387c-.488-.21-.969-.441-1.438-.694a.211.211,0,1,1,.2-.372Z" transform="translate(-1697.698 -750.321)" fill="#91b3fa"/>
            <path id="Trazado_115692" data-name="Trazado 115692" d="M1750.673,768.937q.739.256,1.495.464a.209.209,0,1,1-.111.4q-.766-.211-1.52-.47a.21.21,0,1,1,.137-.4Z" transform="translate(-1715.222 -757.931)" fill="#91b3fa"/>
            <path id="Trazado_115693" data-name="Trazado 115693" d="M1772.1,774.9q.765.167,1.539.288a.207.207,0,0,1-.064.41q-.785-.123-1.563-.291a.208.208,0,0,1,.088-.407Z" transform="translate(-1733.637 -763.057)" fill="#91b3fa"/>
            <path id="Trazado_115694" data-name="Trazado 115694" d="M1794.074,778.372q.78.079,1.563.116a.206.206,0,0,1-.02.411q-.793-.037-1.585-.116a.207.207,0,0,1,.041-.411Z" transform="translate(-1752.516 -766.037)" fill="#91b3fa"/>
            <path id="Trazado_115695" data-name="Trazado 115695" d="M1816.269,779.219l1.568-.038h.009a.2.2,0,0,1,.01.408l-1.587.04a.2.2,0,0,1-.01-.41h.01Z" transform="translate(-1771.58 -766.732)" fill="#91b3fa"/>
            <path id="Trazado_115696" data-name="Trazado 115696" d="M1838.506,777.42l1.562-.166h.007a.2.2,0,0,1,.043.4l-1.576.169a.2.2,0,0,1-.043-.4h.008Z" transform="translate(-1790.683 -765.077)" fill="#91b3fa"/>
            <path id="Trazado_115697" data-name="Trazado 115697" d="M1860.6,774.076l1.55-.267h.006a.2.2,0,0,1,.068.4l-1.56.27a.2.2,0,1,1-.069-.4h.006Z" transform="translate(-1809.659 -762.119)" fill="#91b3fa"/>
            <path id="Trazado_115698" data-name="Trazado 115698" d="M1882.5,769.571l1.537-.341h0a.2.2,0,1,1,.087.389l-1.544.344a.2.2,0,0,1-.087-.391h0Z" transform="translate(-1828.462 -758.188)" fill="#91b3fa"/>
            <path id="Trazado_115699" data-name="Trazado 115699" d="M1904.2,764.264l1.527-.39h0a.2.2,0,0,1,.1.383l-1.531.393a.2.2,0,1,1-.1-.385h0Z" transform="translate(-1847.095 -753.589)" fill="#91b3fa"/>
            <path id="Trazado_115700" data-name="Trazado 115700" d="M1925.751,758.485l1.521-.416a.2.2,0,1,1,.1.378l-1.523.418a.2.2,0,0,1-.1-.38Z" transform="translate(-1865.599 -748.606)" fill="#91b3fa"/>
            <path id="Trazado_115701" data-name="Trazado 115701" d="M1947.227,752.541l1.521-.422a.195.195,0,0,1,.1.376l-1.52.423a.2.2,0,1,1-.105-.377Z" transform="translate(-1884.034 -743.5)" fill="#91b3fa"/>
            <path id="Trazado_115702" data-name="Trazado 115702" d="M1968.7,746.735l1.527-.405a.193.193,0,0,1,.1.373h0l-1.523.406h0a.194.194,0,0,1-.1-.375Z" transform="translate(-1902.466 -738.531)" fill="#91b3fa"/>
            <path id="Trazado_115703" data-name="Trazado 115703" d="M1990.265,741.373l1.538-.367a.192.192,0,1,1,.089.373h0l-1.532.367h0a.192.192,0,0,1-.09-.374Z" transform="translate(-1920.969 -733.964)" fill="#91b3fa"/>
            <path id="Trazado_115704" data-name="Trazado 115704" d="M2011.983,736.782l1.553-.3a.19.19,0,1,1,.073.373h0l-1.544.3h0a.191.191,0,0,1-.074-.374Z" transform="translate(-1939.602 -730.078)" fill="#91b3fa"/>
            <path id="Trazado_115705" data-name="Trazado 115705" d="M2033.9,733.317l1.569-.216a.188.188,0,1,1,.052.373h-.006l-1.557.216h-.006a.189.189,0,0,1-.052-.375Z" transform="translate(-1958.406 -727.181)" fill="#91b3fa"/>
            <path id="Trazado_115706" data-name="Trazado 115706" d="M2056.024,731.355l1.582-.1a.187.187,0,0,1,.024.373h-.008l-1.567.1h-.008a.188.188,0,0,1-.024-.374Z" transform="translate(-1977.383 -725.599)" fill="#91b3fa"/>
            <path id="Trazado_115707" data-name="Trazado 115707" d="M2078.3,731l1.585.019a.18.18,0,0,1,0,.361h-.006l-1.572-.012h-.006a.184.184,0,1,1,0-.368Z" transform="translate(-1996.495 -725.384)" fill="#91b3fa"/>
            <path id="Trazado_115708" data-name="Trazado 115708" d="M2100.635,731.711q.791.058,1.579.155a.173.173,0,0,1-.042.344q-.779-.093-1.562-.146a.177.177,0,1,1,.024-.353Z" transform="translate(-2015.659 -725.991)" fill="#91b3fa"/>
            <path id="Trazado_115709" data-name="Trazado 115709" d="M2122.79,734.478q.781.143,1.553.335a.166.166,0,0,1-.08.322q-.761-.187-1.533-.323a.17.17,0,1,1,.06-.334Z" transform="translate(-2034.665 -728.363)" fill="#91b3fa"/>
            <path id="Trazado_115710" data-name="Trazado 115710" d="M2144.441,739.93q.755.25,1.489.56a.159.159,0,0,1-.123.292q-.721-.3-1.467-.544a.162.162,0,1,1,.1-.308Z" transform="translate(-2053.236 -733.038)" fill="#91b3fa"/>
          </g>
          <g id="Grupo_66340" data-name="Grupo 66340" transform="translate(0 4.571)">
            <path id="Trazado_115711" data-name="Trazado 115711" d="M1469.359,764.579l-.258,4.994-3.271-2.322Z" transform="translate(-1447.052 -758.772)" fill="#7d97f4"/>
            <path id="Trazado_115712" data-name="Trazado 115712" d="M1333.338,725.386l12.875,12.526a1.265,1.265,0,0,0,1.822-.059l12.089-13.4a.507.507,0,0,0-.411-.846Z" transform="translate(-1333.338 -723.605)" fill="#91b3fa"/>
            <path id="Trazado_115713" data-name="Trazado 115713" d="M1355.644,740.2l-22.306-4.027,20.362,6.2-.012,1.388Z" transform="translate(-1333.338 -734.391)" fill="#7d97f4"/>
            <path id="Trazado_115714" data-name="Trazado 115714" d="M1468.8,781.16l2.85,1.548-1.688-2.825Z" transform="translate(-1449.599 -771.907)" fill="#7d97f4"/>
          </g>
        </g>
      </g>
    </g>
  </g>
</svg>
