<svg id="Grupo_999000" data-name="Grupo 999000" xmlns="http://www.w3.org/2000/svg" xmlns:xlink="http://www.w3.org/1999/xlink" width="295" height="260.693" viewBox="0 0 295 260.693">
  <defs>
    <clipPath id="clip-path">
      <rect id="Rectángulo_345044" data-name="Rectángulo 345044" width="295" height="260.693" fill="none"/>
    </clipPath>
    <clipPath id="clip-path-2">
      <rect id="Rectángulo_345024" data-name="Rectángulo 345024" width="392.387" height="260.693" fill="none"/>
    </clipPath>
    <clipPath id="clip-path-5">
      <rect id="Rectángulo_345027" data-name="Rectángulo 345027" width="6.589" height="5.678" fill="none"/>
    </clipPath>
    <clipPath id="clip-path-8">
      <rect id="Rectángulo_345038" data-name="Rectángulo 345038" width="20.432" height="16.208" fill="none"/>
    </clipPath>
    <clipPath id="clip-path-11">
      <rect id="Rectángulo_345042" data-name="Rectángulo 345042" width="11.249" height="4.732" fill="none"/>
    </clipPath>
  </defs>
  <g id="Grupo_998999" data-name="Grupo 998999" clip-path="url(#clip-path)">
    <g id="Grupo_998973" data-name="Grupo 998973">
      <g id="Grupo_998972" data-name="Grupo 998972" clip-path="url(#clip-path-2)">
        <path id="Trazado_700074" data-name="Trazado 700074" d="M331.23,34.274a25.61,25.61,0,1,1-29.018-21.6,25.581,25.581,0,0,1,29.018,21.6" transform="translate(-116.83 -5.17)" fill="#f5f5f5"/>
        <path id="Trazado_700075" data-name="Trazado 700075" d="M329.557,39.5a19.516,19.516,0,1,1-22.114-16.462A19.494,19.494,0,0,1,329.557,39.5" transform="translate(-121.187 -9.516)" fill="#ebebeb"/>
        <path id="Trazado_700076" data-name="Trazado 700076" d="M329.211,38.363a11.508,11.508,0,0,1-.848-2.248,20.717,20.717,0,0,0-3.088-5.6,20,20,0,0,0-3.067-3.138,19.546,19.546,0,0,0-4.264-2.636,19.157,19.157,0,0,0-5.306-1.527,18.929,18.929,0,0,0-2.919-.17,19.035,19.035,0,0,0-5.913,1.049,18.963,18.963,0,0,0-2.682,1.165,19.11,19.11,0,0,0-4.457,3.26,19.538,19.538,0,0,0-3.1,3.944,20,20,0,0,0-1.8,4,20.705,20.705,0,0,0-.971,6.316,11.5,11.5,0,0,1-.022,2.4,5.721,5.721,0,0,1-.56-2.371,18.052,18.052,0,0,1,.538-6.643,19.554,19.554,0,0,1,4.933-8.619,18.88,18.88,0,0,1,2.183-1.928,19.11,19.11,0,0,1,2.557-1.651,19.877,19.877,0,0,1,2.886-1.279,20.014,20.014,0,0,1,6.379-1.132,19.968,19.968,0,0,1,3.149.208,19.907,19.907,0,0,1,5.683,1.728,19.548,19.548,0,0,1,7.6,6.394,18.067,18.067,0,0,1,2.794,6.051,5.737,5.737,0,0,1,.291,2.42" transform="translate(-120.934 -8.987)" fill="#e0e0e0"/>
        <path id="Trazado_700077" data-name="Trazado 700077" d="M321.855,57.694l.538,3.357-3,.479-.523-3.266a14.382,14.382,0,0,1-7.846-1.2l1.062-3.921a12.27,12.27,0,0,0,6.155,1.2l-.8-5.006c-3.456-.276-7.35-.79-8.036-5.076-.509-3.176,1.362-6.273,6.011-7.571l-.532-3.327,3-.481.523,3.267a13.734,13.734,0,0,1,6.376.854l-.907,3.927a12.441,12.441,0,0,0-4.836-.825l.816,5.1c3.451.246,7.285.77,7.962,5,.5,3.117-1.348,6.179-5.962,7.5m-5.117-12.767-.682-4.256c-1.53.614-2.021,1.584-1.863,2.573.169,1.048,1.159,1.475,2.545,1.682m6.312,6.4c-.169-1.05-1.128-1.479-2.49-1.724l.662,4.137c1.446-.57,1.98-1.454,1.827-2.413" transform="translate(-128.94 -13.705)" fill="#e0e0e0"/>
        <path id="Trazado_700078" data-name="Trazado 700078" d="M443.194,17.894A16.76,16.76,0,1,1,427.643.042a16.742,16.742,0,0,1,15.55,17.852" transform="translate(-170.786 0)" fill="#f5f5f5"/>
        <path id="Trazado_700079" data-name="Trazado 700079" d="M442.066,20.459a12.772,12.772,0,1,1-11.85-13.6,12.757,12.757,0,0,1,11.85,13.6" transform="translate(-173.636 -2.844)" fill="#ebebeb"/>
        <path id="Trazado_700080" data-name="Trazado 700080" d="M442.044,19.713a7.519,7.519,0,0,1-.229-1.556,13.581,13.581,0,0,0-1.2-4.008,13.088,13.088,0,0,0-1.525-2.434,12.786,12.786,0,0,0-2.36-2.279,12.521,12.521,0,0,0-3.18-1.715,12.417,12.417,0,0,0-1.843-.516,12.466,12.466,0,0,0-3.927-.152,12.47,12.47,0,0,0-1.878.371,12.545,12.545,0,0,0-3.3,1.465,12.77,12.77,0,0,0-2.528,2.091,13.071,13.071,0,0,0-1.708,2.309,13.548,13.548,0,0,0-1.5,3.9,7.5,7.5,0,0,1-.348,1.533,3.754,3.754,0,0,1-.028-1.594,11.813,11.813,0,0,1,1.268-4.174,12.806,12.806,0,0,1,4.354-4.825,12.994,12.994,0,0,1,3.529-1.629,13.03,13.03,0,0,1,2.024-.416,13.089,13.089,0,0,1,4.236.163,13.108,13.108,0,0,1,1.985.571,13.011,13.011,0,0,1,3.393,1.9,12.792,12.792,0,0,1,3.97,5.146,11.829,11.829,0,0,1,.944,4.259,3.749,3.749,0,0,1-.15,1.588" transform="translate(-173.59 -2.497)" fill="#e0e0e0"/>
        <path id="Trazado_700081" data-name="Trazado 700081" d="M435.125,30.063,435,32.284l-1.983-.111.12-2.161a9.416,9.416,0,0,1-4.85-1.861l1.225-2.359a8.028,8.028,0,0,0,3.77,1.622l.184-3.312c-2.172-.657-4.59-1.528-4.433-4.364.117-2.1,1.744-3.822,4.9-4l.122-2.2,1.983.11-.12,2.162a8.987,8.987,0,0,1,3.958,1.433l-1.127,2.385a8.134,8.134,0,0,0-2.978-1.2l-.187,3.372c2.173.637,4.552,1.506,4.4,4.3-.115,2.063-1.721,3.764-4.857,3.968m-1.5-8.877.156-2.817c-1.064.18-1.513.732-1.549,1.387-.038.693.535,1.1,1.393,1.43m3.146,4.97c.038-.695-.516-1.1-1.352-1.449l-.152,2.737c1-.163,1.469-.654,1.5-1.289" transform="translate(-178.529 -5.64)" fill="#e0e0e0"/>
        <path id="Trazado_700082" data-name="Trazado 700082" d="M77.724,30.823a26.091,26.091,0,1,1,5.047,23.322,25.956,25.956,0,0,1-5.047-23.322m48.726,13.031a24.334,24.334,0,1,0-8.049,12.52,24.34,24.34,0,0,0,8.049-12.52" transform="translate(-32.03 -4.776)" fill="#e0e0e0"/>
        <path id="Trazado_700083" data-name="Trazado 700083" d="M76.766,28.6a26.091,26.091,0,1,1,5.047,23.322A25.956,25.956,0,0,1,76.766,28.6m48.726,13.031a24.334,24.334,0,1,0-8.049,12.52,24.34,24.34,0,0,0,8.049-12.52" transform="translate(-31.631 -3.851)" fill="#f5f5f5"/>
        <path id="Trazado_700084" data-name="Trazado 700084" d="M43.006,105.862l-.413-.454c-.883-.973-1.152-2.169-.6-2.671L67.024,80c.124-.112.383-.027.581.19l2.9,3.192c.2.217.257.484.134.6l-25.03,22.74c-.553.5-1.718.121-2.6-.852" transform="translate(-17.385 -33.325)" fill="#f5f5f5"/>
        <path id="Trazado_700085" data-name="Trazado 700085" d="M104.874,21.262a3.789,3.789,0,0,1,.651-.422,8.072,8.072,0,0,1,.8-.432c.32-.153.678-.346,1.1-.5a19.368,19.368,0,0,1,2.988-.974,20.218,20.218,0,0,1,7.658-.331,19.449,19.449,0,0,1,3.061.713c.43.121.8.282,1.135.407a7.788,7.788,0,0,1,.836.362,3.811,3.811,0,0,1,.685.363c-.026.057-1.018-.43-2.719-.927a21.614,21.614,0,0,0-3.038-.641,21.306,21.306,0,0,0-7.556.326,21.393,21.393,0,0,0-2.971.9c-1.651.64-2.6,1.211-2.629,1.157" transform="translate(-43.716 -7.664)" fill="#e0e0e0"/>
        <path id="Trazado_700086" data-name="Trazado 700086" d="M143.33,25.5a3.972,3.972,0,0,1-1.375-.685c-.714-.45-1.258-.872-1.213-.943a4,4,0,0,1,1.375.686c.714.45,1.258.871,1.213.942" transform="translate(-58.666 -9.947)" fill="#e0e0e0"/>
        <path id="Trazado_700087" data-name="Trazado 700087" d="M122.272,149.314a2.67,2.67,0,0,1-2-3.2l5.208-22.614a2.214,2.214,0,0,1,2.7-1.571l2.126.49a2.3,2.3,0,0,0,2.3-.745l.671-.822a2.3,2.3,0,0,1,2.3-.745l10.094,2.324a2.318,2.318,0,0,1,1.68,1.465l.315.9a2.316,2.316,0,0,0,1.68,1.464l12.867,2.964a2.214,2.214,0,0,1,1.745,2.6l-5.327,23.129a2.669,2.669,0,0,1-3.2,2Z" transform="translate(-50.105 -50.039)" fill="#e0e0e0"/>
        <path id="Trazado_700088" data-name="Trazado 700088" d="M148,124.939l-8.181-1.9L139.4,121.5a2.9,2.9,0,0,0-2.169-2.024l-8-1.843a2.567,2.567,0,0,0-3.135,1.821l-.215.932-5.655,24.555a2.916,2.916,0,0,0,2.3,3.418l32.5,7.485a2.916,2.916,0,0,0,3.562-2.069l5.342-23.2a1.923,1.923,0,0,0-1.442-2.305Z" transform="translate(-50.088 -49.005)" fill="#ebebeb"/>
        <rect id="Rectángulo_345023" data-name="Rectángulo 345023" width="8.351" height="19.849" transform="matrix(0.224, -0.974, 0.974, 0.224, 81.983, 90.448)" fill="#fff"/>
        <path id="Trazado_700089" data-name="Trazado 700089" d="M160.943,151.567c-.017.072-3.006-.555-6.675-1.4s-6.632-1.589-6.615-1.661,3,.555,6.675,1.4,6.631,1.589,6.615,1.661" transform="translate(-61.548 -61.901)" fill="#e0e0e0"/>
        <path id="Trazado_700090" data-name="Trazado 700090" d="M160.258,154.54c-.016.072-3.006-.555-6.675-1.4s-6.632-1.589-6.615-1.661,3,.555,6.675,1.4,6.631,1.589,6.615,1.661" transform="translate(-61.262 -63.14)" fill="#e0e0e0"/>
      </g>
    </g>
    <g id="Grupo_998975" data-name="Grupo 998975">
      <g id="Grupo_998974" data-name="Grupo 998974" clip-path="url(#clip-path-2)">
        <path id="Trazado_700091" data-name="Trazado 700091" d="M394.26,446.4c0,.084-87.26.152-194.875.152-107.652,0-194.893-.068-194.893-.152s87.241-.152,194.893-.152c107.615,0,194.875.068,194.875.152" transform="translate(-1.872 -186.014)" fill="#263238"/>
      </g>
    </g>
    <path id="Trazado_700092" data-name="Trazado 700092" d="M193.99,92.471V290.01H371.833V277.458L197.645,71.073Z" transform="translate(-80.863 -29.626)" fill="#12263f"/>
    <g id="Grupo_998986" data-name="Grupo 998986">
      <g id="Grupo_998985" data-name="Grupo 998985" clip-path="url(#clip-path-2)">
        <path id="Trazado_700093" data-name="Trazado 700093" d="M371.39,279.954H200.258V71.073H371.39a7.112,7.112,0,0,1,7.112,7.112V272.842a7.112,7.112,0,0,1-7.112,7.112" transform="translate(-83.476 -29.626)" fill="#25ffff"/>
        <path id="Trazado_700094" data-name="Trazado 700094" d="M371.182,280.038H199.759V70.573H371.182a7.412,7.412,0,0,1,7.4,7.4V272.634a7.412,7.412,0,0,1-7.4,7.4m-170.84-.583h170.84A6.829,6.829,0,0,0,378,272.634V77.977a6.829,6.829,0,0,0-6.821-6.821H200.342Z" transform="translate(-83.268 -29.418)" fill="#263238"/>
        <path id="Trazado_700095" data-name="Trazado 700095" d="M363.967,81.317l9.875,16.465V278.028L219.981,276.5l-8.425-8.712Z" transform="translate(-88.185 -33.896)" fill="#e0e0e0"/>
        <rect id="Rectángulo_345026" data-name="Rectángulo 345026" width="152.411" height="187.258" transform="translate(123.371 46.629)" fill="#fff"/>
        <path id="Trazado_700096" data-name="Trazado 700096" d="M363.859,267.109c0-1.184-.055-75.886-.136-187.257l.136.135L211.464,80h-.016l.152-.151c-.009,69.274-.018,133.7-.025,187.257l-.127-.127,152.411.127-152.411.127h-.127v-.127c-.007-53.56-.016-117.983-.025-187.257V79.7h.168l152.4.016h.136v.136c-.08,111.371-.135,186.074-.135,187.257" transform="translate(-88.077 -33.222)" fill="#263238"/>
        <path id="Trazado_700097" data-name="Trazado 700097" d="M238.691,185.37a3.474,3.474,0,1,1-3.458-3.811,3.647,3.647,0,0,1,3.458,3.811" transform="translate(-96.613 -75.681)" fill="#263238"/>
        <g id="Grupo_998978" data-name="Grupo 998978" transform="translate(116.782 130.893)" opacity="0.3">
          <g id="Grupo_998977" data-name="Grupo 998977">
            <g id="Grupo_998976" data-name="Grupo 998976" clip-path="url(#clip-path-5)">
              <path id="Trazado_700098" data-name="Trazado 700098" d="M200.258,230.135h6.589l-.017-5.678h-6.572Z" transform="translate(-200.258 -224.456)"/>
            </g>
          </g>
        </g>
        <path id="Trazado_700099" data-name="Trazado 700099" d="M190.827,155.738c-11.463,0-20.788,9.077-20.788,20.233s9.438,20.234,20.9,20.234h3.311l-.048-4.8-3.262.132c-9.128,0-16.667-6.984-16.667-15.569S181.7,160.4,190.827,160.4s16.555,6.984,16.555,15.567a2.127,2.127,0,1,0,4.234,0c0-11.156-9.326-20.233-20.789-20.233" transform="translate(-70.879 -64.918)" fill="#e0e0e0"/>
        <path id="Trazado_700100" data-name="Trazado 700100" d="M190.761,155.738s.167,0,.492.009l1.446.056c.633.056,1.412.183,2.332.322a23.352,23.352,0,0,1,3.088.884,21.307,21.307,0,0,1,7.429,4.64l.9.958c.15.164.31.322.456.5l.418.542c.275.368.581.724.843,1.118l.767,1.223a20.682,20.682,0,0,1,2.258,5.734,20.415,20.415,0,0,1,.423,3.3,4.862,4.862,0,0,1-.068,1.738,2.394,2.394,0,0,1-1.114,1.4,2.073,2.073,0,0,1-1.824.087,2.351,2.351,0,0,1-1.256-1.379,2.86,2.86,0,0,1-.16-.946q-.025-.458-.051-.921a13.276,13.276,0,0,0-.237-1.853,15.169,15.169,0,0,0-3.413-6.912,16.408,16.408,0,0,0-3.044-2.7,17.646,17.646,0,0,0-1.777-1.081c-.31-.161-.635-.293-.953-.442a7.559,7.559,0,0,0-.979-.4l-1.007-.346c-.341-.1-.692-.172-1.038-.26a18.018,18.018,0,0,0-2.128-.367,18.274,18.274,0,0,0-6.565.573c-.36.1-.71.239-1.067.356l-.534.184-.516.232A16.081,16.081,0,0,0,180,164.364a15.323,15.323,0,0,0-3.116,3.43,14.147,14.147,0,0,0-1.968,4.27,13.151,13.151,0,0,0-.507,4.741,13.656,13.656,0,0,0,1.083,4.707,16.087,16.087,0,0,0,7.828,8.139,16.477,16.477,0,0,0,5.345,1.582,9.871,9.871,0,0,0,1.371.117,10.738,10.738,0,0,0,1.37.019l2.728-.11.152-.006v.152q.024,2.441.046,4.8v.148h-.146c-1.23-.008-2.445.016-3.656-.019l-1.812-.092-1.777-.265a21.94,21.94,0,0,1-6.552-2.385c-.486-.3-1-.558-1.454-.887l-1.364-.989-1.253-1.1a5.5,5.5,0,0,1-.59-.576l-.561-.6a20.272,20.272,0,0,1-3.512-5.272c-.241-.457-.381-.953-.574-1.423l-.269-.71-.2-.727c-.12-.486-.277-.959-.363-1.444s-.153-.969-.228-1.447a19.548,19.548,0,0,1,.115-5.591,18.534,18.534,0,0,1,.587-2.585,10.855,10.855,0,0,1,.424-1.214c.16-.393.279-.8.467-1.169a20.271,20.271,0,0,1,1.145-2.149l.625-1c.218-.32.465-.613.692-.916a20.628,20.628,0,0,1,6.07-5.278c.257-.147.5-.3.755-.435l.76-.354a12.685,12.685,0,0,1,1.449-.622l1.361-.48c.439-.129.866-.219,1.264-.321a15.373,15.373,0,0,1,2.143-.392c.312-.04.6-.1.862-.112l.718-.029.971-.036c.218-.006.329,0,.329,0s-.111.014-.329.029l-.968.06-.716.041c-.264.02-.548.079-.858.123a15.781,15.781,0,0,0-2.13.413c-.4.106-.819.2-1.255.331l-1.349.488a12.616,12.616,0,0,0-1.436.629l-.753.356c-.251.131-.493.289-.748.437a20.562,20.562,0,0,0-6,5.266c-.223.3-.467.591-.682.909l-.615.99a20.072,20.072,0,0,0-1.125,2.132c-.185.367-.3.77-.458,1.159a10.751,10.751,0,0,0-.416,1.2,18.262,18.262,0,0,0-.572,2.559,19.348,19.348,0,0,0-.1,5.527l.229,1.43c.086.478.243.945.362,1.425l.195.718.268.7c.192.463.331.953.57,1.4a20.034,20.034,0,0,0,3.479,5.2l.555.589a5.356,5.356,0,0,0,.583.567l1.238,1.08,1.349.974c.453.324.957.578,1.437.874a21.685,21.685,0,0,0,6.47,2.345l1.754.26,1.788.089c1.2.033,2.424.008,3.652.015l-.146.147q-.025-2.36-.05-4.8l.153.146-2.733.112a10.945,10.945,0,0,1-1.389-.019,10.121,10.121,0,0,1-1.4-.118,16.766,16.766,0,0,1-5.439-1.607,16.373,16.373,0,0,1-7.976-8.293,13.966,13.966,0,0,1-1.107-4.806,13.465,13.465,0,0,1,.52-4.84,14.444,14.444,0,0,1,2.009-4.357,15.635,15.635,0,0,1,3.177-3.493,16.387,16.387,0,0,1,3.96-2.415l.525-.235.543-.187c.363-.12.719-.26,1.085-.362a18.562,18.562,0,0,1,6.674-.576,18.441,18.441,0,0,1,2.162.375c.353.09.709.163,1.056.266l1.022.353a7.643,7.643,0,0,1,.994.406c.324.152.654.287.969.451a17.845,17.845,0,0,1,1.8,1.1,16.649,16.649,0,0,1,3.09,2.748,15.406,15.406,0,0,1,3.458,7.038,13.482,13.482,0,0,1,.238,1.886q.024.471.049.937a2.6,2.6,0,0,0,.144.864,2.111,2.111,0,0,0,1.122,1.242,1.833,1.833,0,0,0,1.615-.073,2.161,2.161,0,0,0,1.008-1.266,4.7,4.7,0,0,0,.063-1.66,20.259,20.259,0,0,0-.408-3.264,20.553,20.553,0,0,0-2.215-5.683l-.756-1.214c-.258-.392-.559-.746-.83-1.112l-.412-.539c-.143-.172-.3-.329-.45-.493l-.887-.954a21.307,21.307,0,0,0-7.351-4.65,23.688,23.688,0,0,0-3.066-.906c-.914-.148-1.689-.284-2.319-.349l-1.442-.086c-.325-.021-.492-.04-.492-.04" transform="translate(-70.813 -64.918)" fill="#263238"/>
        <path id="Trazado_700101" data-name="Trazado 700101" d="M238.691,279.718a3.474,3.474,0,1,1-3.458-3.811,3.647,3.647,0,0,1,3.458,3.811" transform="translate(-96.613 -115.01)" fill="#263238"/>
        <rect id="Rectángulo_345028" data-name="Rectángulo 345028" width="117.405" height="4.914" transform="translate(147.294 93.861)" fill="#ad84ff"/>
        <rect id="Rectángulo_345029" data-name="Rectángulo 345029" width="68.43" height="4.914" transform="translate(147.294 87.836)" fill="#ad84ff"/>
        <rect id="Rectángulo_345030" data-name="Rectángulo 345030" width="68.43" height="4.914" transform="translate(147.294 199.515)" fill="#ad84ff"/>
        <rect id="Rectángulo_345031" data-name="Rectángulo 345031" width="117.552" height="7.168" transform="translate(147.803 77.258)" fill="#e0e0e0"/>
        <rect id="Rectángulo_345032" data-name="Rectángulo 345032" width="117.552" height="7.168" transform="translate(146.537 142.96)" fill="#e0e0e0"/>
        <rect id="Rectángulo_345033" data-name="Rectángulo 345033" width="46.882" height="7.168" transform="translate(147.803 107.656)" fill="#e0e0e0"/>
        <rect id="Rectángulo_345034" data-name="Rectángulo 345034" width="58.614" height="7.168" transform="translate(205.475 107.656)" fill="#e0e0e0"/>
        <path id="Trazado_700102" data-name="Trazado 700102" d="M321.758,155.526c0,.084-15.086.152-33.69.152s-33.694-.068-33.694-.152,15.082-.152,33.694-.152,33.69.068,33.69.152" transform="translate(-106.034 -64.766)" fill="#263238"/>
        <path id="Trazado_700103" data-name="Trazado 700103" d="M370.642,165.2c0,.084-26.078.152-58.24.152s-58.245-.068-58.245-.152,26.072-.152,58.245-.152,58.24.068,58.24.152" transform="translate(-105.943 -68.798)" fill="#263238"/>
        <path id="Trazado_700104" data-name="Trazado 700104" d="M370.642,174.359c0,.084-26.078.152-58.24.152s-58.245-.068-58.245-.152,26.072-.152,58.245-.152,58.24.068,58.24.152" transform="translate(-105.943 -72.617)" fill="#263238"/>
        <path id="Trazado_700105" data-name="Trazado 700105" d="M299.662,204.29c0,.084-10.488.152-23.421.152s-23.423-.068-23.423-.152,10.485-.152,23.423-.152,23.421.068,23.421.152" transform="translate(-105.385 -85.093)" fill="#263238"/>
        <path id="Trazado_700106" data-name="Trazado 700106" d="M300.218,213.731c0,.084-10.313.152-23.032.152s-23.035-.068-23.035-.152,10.311-.152,23.035-.152,23.032.068,23.032.152" transform="translate(-105.941 -89.029)" fill="#263238"/>
        <path id="Trazado_700107" data-name="Trazado 700107" d="M299.607,223.326c0,.083-10.4.152-23.23.152s-23.232-.068-23.232-.152,10.4-.152,23.232-.152,23.23.068,23.23.152" transform="translate(-105.521 -93.028)" fill="#263238"/>
        <path id="Trazado_700108" data-name="Trazado 700108" d="M299.607,232.641c0,.083-10.4.152-23.23.152s-23.232-.068-23.232-.152,10.4-.152,23.232-.152,23.23.068,23.23.152" transform="translate(-105.521 -96.911)" fill="#263238"/>
        <path id="Trazado_700109" data-name="Trazado 700109" d="M416.632,206.5c0,.083-10.862.152-24.258.152s-24.261-.068-24.261-.152,10.86-.152,24.261-.152,24.258.068,24.258.152" transform="translate(-153.445 -86.016)" fill="#263238"/>
        <path id="Trazado_700110" data-name="Trazado 700110" d="M359.211,207a8.8,8.8,0,0,1-.061-1.008c-.023-.619-.051-1.479-.064-2.5l.125.131-3.34.02c-.032.033.272-.287.143-.151h0v.476c0,.158,0,.314,0,.469q0,.464,0,.907c-.005.584-.01,1.138-.015,1.656l-.125-.131c.974.013,1.793.043,2.382.067a7.552,7.552,0,0,1,.959.064,5.07,5.07,0,0,1-.879.064c-.581.024-1.432.054-2.462.067h-.124V207c0-.518-.009-1.072-.015-1.656q0-.444,0-.907c0-.155,0-.311,0-.469v-.476h0l.145-.152,3.34.02h.126v.13c-.012,1.082-.04,1.977-.064,2.587a5.792,5.792,0,0,1-.061.924" transform="translate(-148.268 -84.76)" fill="#263238"/>
        <path id="Trazado_700111" data-name="Trazado 700111" d="M416.632,218.068c0,.084-10.862.152-24.258.152s-24.261-.068-24.261-.152,10.86-.152,24.261-.152,24.258.068,24.258.152" transform="translate(-153.445 -90.836)" fill="#263238"/>
        <path id="Trazado_700112" data-name="Trazado 700112" d="M359.211,218.567a8.8,8.8,0,0,1-.061-1.008c-.023-.619-.051-1.479-.064-2.5l.125.131-3.34.02c-.032.033.272-.287.143-.151h0v.476c0,.158,0,.314,0,.469q0,.464,0,.907c-.005.584-.01,1.138-.015,1.656l-.125-.131c.974.013,1.793.043,2.382.067a7.693,7.693,0,0,1,.959.064,5.07,5.07,0,0,1-.879.064c-.581.024-1.432.054-2.462.067h-.124v-.132c0-.518-.009-1.072-.015-1.656q0-.443,0-.907c0-.155,0-.311,0-.469v-.476h0l.145-.152,3.34.02h.126v.13c-.012,1.082-.04,1.977-.064,2.587a5.792,5.792,0,0,1-.061.924" transform="translate(-148.268 -89.58)" fill="#263238"/>
        <path id="Trazado_700113" data-name="Trazado 700113" d="M416.632,229.631c0,.084-10.862.152-24.258.152s-24.261-.068-24.261-.152,10.86-.152,24.261-.152,24.258.068,24.258.152" transform="translate(-153.445 -95.656)" fill="#263238"/>
        <path id="Trazado_700114" data-name="Trazado 700114" d="M359.211,230.13a8.8,8.8,0,0,1-.061-1.008c-.023-.619-.051-1.479-.064-2.5l.125.131-3.34.02c-.032.033.272-.287.143-.151h0v.476c0,.158,0,.314,0,.469q0,.464,0,.907c-.005.584-.01,1.138-.015,1.656L355.87,230c.974.013,1.793.043,2.382.067a7.691,7.691,0,0,1,.959.064,5,5,0,0,1-.879.064c-.581.024-1.432.054-2.462.067h-.124v-.132c0-.518-.009-1.072-.015-1.656q0-.443,0-.907c0-.155,0-.311,0-.469v-.476h0l.145-.152,3.34.02h.126v.13c-.012,1.082-.04,1.977-.064,2.587a5.793,5.793,0,0,1-.061.924" transform="translate(-148.268 -94.4)" fill="#263238"/>
        <path id="Trazado_700115" data-name="Trazado 700115" d="M368.473,301.507s-.006-.2-.009-.575-.005-.942-.009-1.678c-.005-1.481-.012-3.665-.022-6.5-.012-5.676-.028-13.965-.049-24.447l.089.093-115.742.059h-.007l.145-.152c0,11.425,0,22.561,0,33.205l-.141-.148,82.664.068,24.281.042,6.53.019,1.693.01c.382,0,.581.009.581.009s-.187.006-.563.009l-1.676.01-6.5.019-24.248.042-82.762.068h-.141v-.148c0-10.644,0-21.78,0-33.205v-.152h.151l115.742.058h.089v.093c-.021,10.505-.038,18.814-.049,24.5-.009,2.831-.017,5.008-.022,6.484,0,.729-.007,1.284-.009,1.663s-.009.556-.009.556" transform="translate(-105.286 -111.776)" fill="#263238"/>
        <path id="Trazado_700116" data-name="Trazado 700116" d="M368.808,282.632c0,.084-25.841.152-57.71.152s-57.716-.068-57.716-.152,25.836-.152,57.716-.152,57.71.068,57.71.152" transform="translate(-105.62 -117.749)" fill="#263238"/>
        <path id="Trazado_700117" data-name="Trazado 700117" d="M368.808,296.772c0,.083-25.841.152-57.71.152s-57.716-.068-57.716-.152,25.836-.152,57.716-.152,57.71.068,57.71.152" transform="translate(-105.62 -123.644)" fill="#263238"/>
        <path id="Trazado_700118" data-name="Trazado 700118" d="M368.808,311.066c0,.083-25.841.152-57.71.152s-57.716-.068-57.716-.152,25.836-.152,57.716-.152,57.71.068,57.71.152" transform="translate(-105.62 -129.602)" fill="#263238"/>
        <path id="Trazado_700119" data-name="Trazado 700119" d="M275.8,301.867c-.08,0-.144-7.511-.144-16.774s.064-16.775.144-16.775.144,7.509.144,16.775-.064,16.774-.144,16.774" transform="translate(-114.903 -111.846)" fill="#263238"/>
        <path id="Trazado_700120" data-name="Trazado 700120" d="M342.915,301.219c-.079,0-.144-7.172-.144-16.017s.065-16.019.144-16.019.145,7.171.145,16.019-.065,16.017-.145,16.017" transform="translate(-142.881 -112.207)" fill="#263238"/>
        <path id="Trazado_700121" data-name="Trazado 700121" d="M413.639,303.093c-.08,0-.144-7.4-.144-16.521s.064-16.523.144-16.523.144,7.4.144,16.523-.064,16.521-.144,16.521" transform="translate(-172.362 -112.567)" fill="#263238"/>
        <path id="Trazado_700122" data-name="Trazado 700122" d="M366.667,338c0,.084-25.275.152-56.445.152s-56.451-.068-56.451-.152,25.269-.152,56.451-.152,56.445.068,56.445.152" transform="translate(-105.782 -140.831)" fill="#263238"/>
        <path id="Trazado_700123" data-name="Trazado 700123" d="M366.667,346.234c0,.083-25.275.152-56.445.152s-56.451-.068-56.451-.152,25.269-.152,56.451-.152,56.445.068,56.445.152" transform="translate(-105.782 -144.261)" fill="#263238"/>
        <path id="Trazado_700124" data-name="Trazado 700124" d="M294.853,354.464c0,.084-9.2.152-20.54.152s-20.542-.068-20.542-.152,9.2-.152,20.542-.152,20.54.068,20.54.152" transform="translate(-105.782 -147.692)" fill="#263238"/>
        <g id="Grupo_998981" data-name="Grupo 998981" transform="translate(116.782 184.201)" opacity="0.3">
          <g id="Grupo_998980" data-name="Grupo 998980">
            <g id="Grupo_998979" data-name="Grupo 998979" clip-path="url(#clip-path-5)">
              <path id="Trazado_700125" data-name="Trazado 700125" d="M200.258,321.546h6.589l-.017-5.678h-6.572Z" transform="translate(-200.258 -315.868)"/>
            </g>
          </g>
        </g>
        <path id="Trazado_700126" data-name="Trazado 700126" d="M190.827,249.364c-11.463,0-20.788,9.076-20.788,20.233s9.438,20.234,20.9,20.234h3.311l-.048-4.8-3.262.132c-9.128,0-16.667-6.984-16.667-15.569s7.427-15.567,16.555-15.567,16.555,6.984,16.555,15.567a2.127,2.127,0,1,0,4.234,0c0-11.156-9.326-20.233-20.789-20.233" transform="translate(-70.879 -103.945)" fill="#e0e0e0"/>
        <path id="Trazado_700127" data-name="Trazado 700127" d="M190.761,249.364s.167,0,.492.009l1.446.056c.633.056,1.412.183,2.332.322a23.355,23.355,0,0,1,3.088.884,21.307,21.307,0,0,1,7.429,4.64l.9.958c.15.164.31.322.456.5l.418.542c.275.368.581.724.843,1.118l.767,1.223a20.682,20.682,0,0,1,2.258,5.734,20.413,20.413,0,0,1,.423,3.3,4.866,4.866,0,0,1-.068,1.739,2.4,2.4,0,0,1-1.114,1.4,2.072,2.072,0,0,1-1.824.087,2.351,2.351,0,0,1-1.256-1.379,2.857,2.857,0,0,1-.16-.946q-.025-.458-.051-.921a13.276,13.276,0,0,0-.237-1.853,15.169,15.169,0,0,0-3.413-6.912,16.407,16.407,0,0,0-3.044-2.7,17.646,17.646,0,0,0-1.777-1.081c-.31-.161-.635-.293-.953-.442a7.561,7.561,0,0,0-.979-.4l-1.007-.346c-.341-.1-.692-.172-1.038-.26a18.014,18.014,0,0,0-2.128-.367,18.273,18.273,0,0,0-6.565.573c-.36.1-.71.238-1.067.356l-.534.184-.516.232A16.081,16.081,0,0,0,180,257.99a15.336,15.336,0,0,0-3.116,3.43,14.147,14.147,0,0,0-1.968,4.27,13.151,13.151,0,0,0-.507,4.741,13.656,13.656,0,0,0,1.083,4.707,16.084,16.084,0,0,0,7.828,8.139,16.477,16.477,0,0,0,5.345,1.582,9.871,9.871,0,0,0,1.371.117,10.741,10.741,0,0,0,1.37.019l2.728-.11.152-.006v.152q.024,2.441.046,4.8v.148h-.146c-1.23-.008-2.445.016-3.656-.019l-1.812-.092-1.777-.265a21.94,21.94,0,0,1-6.552-2.385c-.486-.3-1-.558-1.454-.887l-1.364-.989-1.253-1.1a5.5,5.5,0,0,1-.59-.576l-.561-.6a20.272,20.272,0,0,1-3.512-5.272c-.241-.457-.381-.953-.574-1.423l-.269-.71-.2-.727c-.12-.486-.277-.959-.363-1.444s-.153-.969-.228-1.447a19.548,19.548,0,0,1,.115-5.591,18.534,18.534,0,0,1,.587-2.585,10.855,10.855,0,0,1,.424-1.214c.16-.393.279-.8.467-1.169a20.333,20.333,0,0,1,1.145-2.149l.625-1c.218-.32.465-.613.692-.916a20.628,20.628,0,0,1,6.07-5.278c.257-.147.5-.3.755-.435l.76-.354a12.8,12.8,0,0,1,1.449-.623l1.361-.479c.439-.129.866-.219,1.264-.321a15.369,15.369,0,0,1,2.143-.392c.312-.04.6-.1.862-.112l.718-.029.971-.036c.218-.006.329,0,.329,0s-.111.014-.329.029l-.968.061-.716.041c-.264.02-.548.08-.858.123a15.784,15.784,0,0,0-2.13.413c-.4.106-.819.2-1.255.331l-1.349.488a12.616,12.616,0,0,0-1.436.629l-.753.356c-.251.131-.493.289-.748.437a20.562,20.562,0,0,0-6,5.266c-.223.3-.467.591-.682.909l-.615.99a20.077,20.077,0,0,0-1.125,2.132c-.185.367-.3.77-.458,1.159a10.75,10.75,0,0,0-.416,1.2,18.262,18.262,0,0,0-.572,2.559,19.348,19.348,0,0,0-.1,5.527l.229,1.43c.086.478.243.945.362,1.425l.195.718.268.7c.192.463.331.953.57,1.4a20.034,20.034,0,0,0,3.479,5.2l.555.589a5.355,5.355,0,0,0,.583.567l1.238,1.08,1.349.974c.453.324.957.578,1.437.874a21.684,21.684,0,0,0,6.47,2.345l1.754.26,1.788.089c1.2.033,2.424.008,3.652.015l-.146.147q-.025-2.36-.05-4.8l.153.146-2.733.112a10.954,10.954,0,0,1-1.389-.019,10.126,10.126,0,0,1-1.4-.118,16.766,16.766,0,0,1-5.439-1.607,16.373,16.373,0,0,1-7.976-8.293,13.966,13.966,0,0,1-1.107-4.806,13.465,13.465,0,0,1,.52-4.84,14.444,14.444,0,0,1,2.009-4.357,15.636,15.636,0,0,1,3.177-3.493,16.386,16.386,0,0,1,3.96-2.415l.525-.235.543-.187c.363-.12.719-.26,1.085-.362a18.562,18.562,0,0,1,6.674-.576,18.322,18.322,0,0,1,2.162.376c.353.09.709.163,1.056.266l1.022.353a7.643,7.643,0,0,1,.994.406c.324.152.654.287.969.451a17.842,17.842,0,0,1,1.8,1.1,16.668,16.668,0,0,1,3.09,2.748,15.406,15.406,0,0,1,3.458,7.038,13.481,13.481,0,0,1,.238,1.886q.024.471.049.937a2.6,2.6,0,0,0,.144.864,2.114,2.114,0,0,0,1.122,1.242,1.835,1.835,0,0,0,1.615-.074,2.161,2.161,0,0,0,1.008-1.266,4.7,4.7,0,0,0,.063-1.66,20.259,20.259,0,0,0-.408-3.264,20.554,20.554,0,0,0-2.215-5.683l-.756-1.214c-.258-.392-.559-.746-.83-1.112l-.412-.539c-.143-.172-.3-.329-.45-.493l-.887-.954a21.307,21.307,0,0,0-7.351-4.65,23.688,23.688,0,0,0-3.066-.906c-.914-.148-1.689-.284-2.319-.349l-1.442-.086c-.325-.021-.492-.04-.492-.04" transform="translate(-70.813 -103.945)" fill="#263238"/>
        <path id="Trazado_700129" data-name="Trazado 700129" d="M219.057,278.476s.263-.008.777-.01h2.284l8.8.03,32.565.164,109.022.657-.152.152c0-4.759,0-9.823,0-14.94.017-46.511.033-88.612.044-119.09.02-15.234.037-27.563.048-36.089.012-4.257.022-7.564.029-9.812.006-1.118.012-1.972.015-2.551s.015-.869.015-.869.01.295.016.869.009,1.433.015,2.551c.006,2.248.016,5.555.029,9.812.011,8.526.028,20.854.048,36.089.011,30.479.027,72.579.044,119.09,0,5.117,0,10.181,0,14.94v.152h-.152l-109.021-.754-32.564-.257-8.8-.084-2.284-.029c-.514-.008-.777-.02-.777-.02" transform="translate(-91.312 -40.066)" fill="#263238"/>
        <path id="Trazado_700130" data-name="Trazado 700130" d="M214.729,272.971s.262-.009.775-.012l2.278-.006,8.784.006,32.494.075,108.858.357-.152.15c.005-5.017.01-10.352.016-15.745.065-46.66.124-88.895.167-119.472.036-15.283.065-27.651.085-36.2.017-4.27.03-7.588.039-9.843.008-1.121.013-1.978.017-2.559s.016-.872.016-.872.011.3.015.872.007,1.438.013,2.559c0,2.255.01,5.573.018,9.843,0,8.553.006,20.921.011,36.2-.02,30.576-.048,72.811-.078,119.471-.006,5.394-.012,10.728-.017,15.745v.152h-.152l-108.859-.455-32.493-.168-8.783-.059-2.278-.023c-.513-.007-.775-.017-.775-.017" transform="translate(-89.508 -37.035)" fill="#263238"/>
        <path id="Trazado_700131" data-name="Trazado 700131" d="M222.942,284.407s.263-.008.777-.01H226l8.8.029,32.516.163,108.759.652-.152.15c.017-4.392.034-9.073.052-13.8.195-46.107.371-87.841.5-118.055.078-15.1.142-27.323.186-35.774.029-4.22.051-7.5.066-9.727.01-1.109.019-1.955.025-2.53s.019-.861.019-.861.009.292.012.862,0,1.421.005,2.529c0,2.229,0,5.506-.009,9.727-.021,8.452-.051,20.674-.089,35.776-.1,30.214-.25,71.948-.409,118.055-.018,4.728-.037,9.409-.054,13.8v.152h-.152L267.311,284.8l-32.516-.256-8.8-.083-2.282-.029c-.513-.008-.776-.02-.776-.02" transform="translate(-92.932 -43.62)" fill="#263238"/>
        <path id="Trazado_700132" data-name="Trazado 700132" d="M477.7,117.151h14.28l5.089,5.716-4.427,6.809H477.691Z" transform="translate(-199.121 -48.833)" fill="#455a64"/>
      </g>
    </g>
    <g id="Grupo_998991" data-name="Grupo 998991">
      <g id="Grupo_998990" data-name="Grupo 998990" clip-path="url(#clip-path-2)">
        <path id="Trazado_700133" data-name="Trazado 700133" d="M46.431,229.655a1.289,1.289,0,0,1-1.46-1.092l-1.6-11.088a1.069,1.069,0,0,1,.944-1.179l1.043-.15a1.108,1.108,0,0,0,.9-.737l.159-.487a1.11,1.11,0,0,1,.9-.737l4.949-.714a1.118,1.118,0,0,1,1.012.366l.3.35a1.12,1.12,0,0,0,1.012.366l6.309-.91a1.069,1.069,0,0,1,1.239.864l1.636,11.341a1.289,1.289,0,0,1-1.092,1.46Z" transform="translate(-18.075 -88.979)" fill="#12263f"/>
        <path id="Trazado_700135" data-name="Trazado 700135" d="M53.82,214.753l-4.015.57-.455-.619a1.4,1.4,0,0,0-1.33-.533l-3.923.566A1.239,1.239,0,0,0,43,216.1l.066.458,1.737,12.04a1.407,1.407,0,0,0,1.631,1.138l15.936-2.3a1.408,1.408,0,0,0,1.242-1.553l-1.641-11.373a.928.928,0,0,0-1.051-.786Z" transform="translate(-17.921 -89.087)" fill="#ad84ff"/>
        <rect id="Rectángulo_345039" data-name="Rectángulo 345039" width="9.582" height="4.032" transform="translate(30.898 130.878) rotate(-8.212)" fill="#fff"/>
        <path id="Trazado_700136" data-name="Trazado 700136" d="M62.519,225.457c.006.036-1.45.275-3.249.534s-3.263.441-3.268.406,1.45-.274,3.249-.534,3.262-.442,3.267-.406" transform="translate(-23.344 -93.978)" fill="#263238"/>
        <path id="Trazado_700137" data-name="Trazado 700137" d="M62.73,226.915c.005.035-1.45.274-3.249.534s-3.263.441-3.268.406,1.45-.274,3.249-.534,3.262-.441,3.267-.406" transform="translate(-23.432 -94.586)" fill="#263238"/>
      </g>
    </g>
    <g id="Grupo_998993" data-name="Grupo 998993">
      <g id="Grupo_998992" data-name="Grupo 998992" clip-path="url(#clip-path-2)">
        <path id="Trazado_700138" data-name="Trazado 700138" d="M61.623,173.593l-4.276-.046a13.745,13.745,0,1,1,2.771-4.072l0-.006Z" transform="translate(-14.11 -62.602)" fill="#fff"/>
        <path id="Trazado_700139" data-name="Trazado 700139" d="M61.527,173.5s-.042-.1-.111-.276-.174-.454-.3-.791L59.967,169.4l.111.019-.005.006a.064.064,0,0,1-.09.01.066.066,0,0,1-.019-.077,13.749,13.749,0,0,0,1.1-6.594,13.811,13.811,0,0,0-3.758-8.331,13.57,13.57,0,0,0-20.993,1.7c-.154.233-.315.461-.463.7l-.4.732-.2.364-.162.38-.322.759A13.785,13.785,0,0,0,34.7,168.4a13.652,13.652,0,0,0,22.506,5.01.064.064,0,0,1,.046-.019l3.158.073.827.023c.187.006.29.013.29.013a2.389,2.389,0,0,1-.264.008l-.809.006-3.2,0,.046-.019a13.669,13.669,0,0,1-5.761,3.53,13.874,13.874,0,0,1-17.109-8.533,14.042,14.042,0,0,1,.062-9.541l.328-.776.166-.388.2-.373.406-.748c.151-.241.315-.474.473-.711a13.847,13.847,0,0,1,21.428-1.7,13.732,13.732,0,0,1,2.73,4.193,13.572,13.572,0,0,1,1.043,4.3,13.737,13.737,0,0,1-1.183,6.662l-.109-.068.005-.006a.064.064,0,0,1,.09-.01.067.067,0,0,1,.02.029l1.087,3.1c.115.335.2.594.27.784.059.174.087.261.082.258" transform="translate(-14.015 -62.505)" fill="#263238"/>
        <path id="Trazado_700140" data-name="Trazado 700140" d="M52.988,172.5a4.46,4.46,0,1,1,2.508-.776,4.462,4.462,0,0,1-2.508.776m-.012-7.754a3.294,3.294,0,1,0,2.726,1.436,3.278,3.278,0,0,0-2.726-1.436" transform="translate(-20.225 -68.185)" fill="#263238"/>
        <path id="Trazado_700141" data-name="Trazado 700141" d="M62.065,180.639a.583.583,0,0,1-.482-.254l-2.564-3.756a.584.584,0,0,1,.964-.658l2.563,3.756a.583.583,0,0,1-.481.912" transform="translate(-24.559 -73.246)" fill="#263238"/>
      </g>
    </g>
    <g id="Grupo_998998" data-name="Grupo 998998">
      <g id="Grupo_998997" data-name="Grupo 998997" clip-path="url(#clip-path-2)">
        <path id="Trazado_700142" data-name="Trazado 700142" d="M130.628,196.569l-7.555,5.591,2.334,6.761a16.36,16.36,0,0,0,5.222-12.352" transform="translate(-51.302 -81.938)" fill="#263238"/>
        <path id="Trazado_700143" data-name="Trazado 700143" d="M103.169,172.766a9.917,9.917,0,0,1,6.662-.8,21.008,21.008,0,0,1,6.3,2.6,10.277,10.277,0,0,1,3.011,2.35,14.618,14.618,0,0,1,3.033,7.17,25.823,25.823,0,0,1-1.407,8.325c-.732,1.573-4.157,2.77-5.848,3.158L99.407,177.526a7.854,7.854,0,0,1,3.762-4.76" transform="translate(-41.437 -71.583)" fill="#263238"/>
        <path id="Trazado_700144" data-name="Trazado 700144" d="M98.113,177.205l3.719-.665c-2.033,4.842-2.585,15.914-3.747,21.035-1.371-1.989-4.555-8.048-4.384-10.458s-.007-10.323,4.412-9.912" transform="translate(-39.056 -73.589)" fill="#263238"/>
        <path id="Trazado_700145" data-name="Trazado 700145" d="M117.2,185.74a6.352,6.352,0,0,0-4.779-5.85l-8.565-2.185c-3.7-.4-6.173,4.154-6.416,7.869a58.846,58.846,0,0,0,.047,11.565c.97,6.2,5.715,6.994,5.715,6.994s0,2.947,0,4.756l2.866,11.865,9.555-10.309,1.594-24.629c0-.106-.012.066-.022-.075" transform="translate(-40.508 -74.065)" fill="#ffc09d"/>
        <path id="Trazado_700146" data-name="Trazado 700146" d="M100.816,198.729a.794.794,0,0,0,.764.8.76.76,0,0,0,.821-.714.794.794,0,0,0-.764-.8.76.76,0,0,0-.821.714" transform="translate(-42.024 -82.54)" fill="#263238"/>
        <path id="Trazado_700147" data-name="Trazado 700147" d="M99.211,194.784c.1.1.7-.34,1.556-.336s1.48.433,1.573.328c.046-.046-.054-.233-.327-.433a2.176,2.176,0,0,0-1.259-.391,2.093,2.093,0,0,0-1.239.4c-.264.2-.353.388-.3.434" transform="translate(-41.35 -80.847)" fill="#263238"/>
        <path id="Trazado_700148" data-name="Trazado 700148" d="M113.593,198.729a.794.794,0,0,0,.764.8.76.76,0,0,0,.82-.714.8.8,0,0,0-.763-.8.76.76,0,0,0-.821.715" transform="translate(-47.35 -82.54)" fill="#263238"/>
        <path id="Trazado_700149" data-name="Trazado 700149" d="M113.131,194.784c.1.1.7-.34,1.556-.336s1.48.433,1.573.328c.045-.046-.053-.233-.327-.433a2.176,2.176,0,0,0-1.259-.391,2.093,2.093,0,0,0-1.239.4c-.262.2-.352.388-.3.435" transform="translate(-47.153 -80.847)" fill="#263238"/>
        <path id="Trazado_700150" data-name="Trazado 700150" d="M107,201.8a5.7,5.7,0,0,0-1.388-.254c-.218-.023-.425-.066-.461-.216a1.107,1.107,0,0,1,.147-.647l.649-1.66a28.548,28.548,0,0,0,1.459-4.344,28.681,28.681,0,0,0-1.805,4.216q-.325.875-.622,1.671a1.261,1.261,0,0,0-.115.856.548.548,0,0,0,.359.32,1.484,1.484,0,0,0,.37.052,5.533,5.533,0,0,0,1.407,0" transform="translate(-43.695 -81.15)" fill="#263238"/>
        <path id="Trazado_700151" data-name="Trazado 700151" d="M115.721,219.262s-2.015,4.254-8.213,3.661l0-1.457a15.6,15.6,0,0,0,8.215-2.2" transform="translate(-44.813 -91.398)" fill="#ff9b6c"/>
        <path id="Trazado_700152" data-name="Trazado 700152" d="M113.6,189.626c.083.233.937.124,1.94.247,1.005.1,1.813.4,1.947.19.06-.1-.08-.318-.407-.544a3.4,3.4,0,0,0-2.961-.334c-.368.148-.554.33-.518.44" transform="translate(-47.35 -78.778)" fill="#263238"/>
        <path id="Trazado_700153" data-name="Trazado 700153" d="M99.682,190.264c.15.194.739-.006,1.447-.013.707-.033,1.307.133,1.446-.069.061-.1-.033-.293-.3-.478a2.095,2.095,0,0,0-2.331.067c-.251.2-.333.4-.267.493" transform="translate(-41.543 -78.942)" fill="#263238"/>
        <path id="Trazado_700154" data-name="Trazado 700154" d="M100.43,178.2a2.724,2.724,0,0,1,2.406-1.542,5.291,5.291,0,0,1,2.857.833c3.689,2.132,5.585,7.282,9.23,9.488.9.543,2.063.045,2.826.765a2.629,2.629,0,0,1,.835,2.826,8.681,8.681,0,0,0,1.265-2.139,2.931,2.931,0,0,0-.1-2.414c-.316-.546-.872-.963-1.026-1.575a8.238,8.238,0,0,1,.055-1.656,3.613,3.613,0,0,0-.568-1.58,16.075,16.075,0,0,0-5.921-6.229,10.476,10.476,0,0,0-5.436-1.405,8.014,8.014,0,0,0-5.171,2.053c-.815.76-1.672,1.546-1.25,2.578" transform="translate(-41.817 -72.35)" fill="#263238"/>
        <path id="Trazado_700155" data-name="Trazado 700155" d="M130.054,198.958c.065-.178,3.3-1.344,3.339,2.091.041,3.336-3.325,2.679-3.332,2.583s-.008-4.674-.008-4.674" transform="translate(-54.212 -82.795)" fill="#ffc09d"/>
        <path id="Trazado_700156" data-name="Trazado 700156" d="M131.81,203.137c.015-.01.058.04.157.084a.581.581,0,0,0,.434.005,1.439,1.439,0,0,0,.653-1.3,1.909,1.909,0,0,0-.171-.83.668.668,0,0,0-.441-.442.3.3,0,0,0-.342.162c-.044.094-.022.16-.04.166s-.072-.055-.047-.194a.372.372,0,0,1,.129-.21.439.439,0,0,1,.321-.088.816.816,0,0,1,.612.511,1.984,1.984,0,0,1,.21.928,1.509,1.509,0,0,1-.835,1.449.623.623,0,0,1-.532-.083c-.1-.082-.122-.156-.111-.162" transform="translate(-54.943 -83.573)" fill="#ff9b6c"/>
        <path id="Trazado_700157" data-name="Trazado 700157" d="M119.5,188.219a1.32,1.32,0,0,1-.2-.113c-.128-.081-.325-.189-.56-.355a11.471,11.471,0,0,1-1.8-1.64,32.068,32.068,0,0,1-2.2-2.861,26.311,26.311,0,0,0-2.753-3.428,10.465,10.465,0,0,0-1.777-1.4,8.673,8.673,0,0,0-1.919-.871,9.516,9.516,0,0,0-3.534-.434,9.111,9.111,0,0,0-2.367.464c-.275.083-.477.176-.618.229a1.353,1.353,0,0,1-.218.077,1.334,1.334,0,0,1,.206-.106,5.837,5.837,0,0,1,.611-.257,8.661,8.661,0,0,1,2.379-.516,9.429,9.429,0,0,1,3.584.408,8.7,8.7,0,0,1,1.954.877,10.491,10.491,0,0,1,1.806,1.423,25.513,25.513,0,0,1,2.761,3.455,34.452,34.452,0,0,0,2.169,2.871,12.359,12.359,0,0,0,1.755,1.663c.228.173.419.288.541.377a1.263,1.263,0,0,1,.185.139" transform="translate(-42.329 -73.771)" fill="#455a64"/>
        <path id="Trazado_700158" data-name="Trazado 700158" d="M132.081,206.032a.657.657,0,1,1-.156.05" transform="translate(-54.835 -85.879)" fill="#fff"/>
        <path id="Trazado_700159" data-name="Trazado 700159" d="M131.883,206.062a.9.9,0,0,0-.3.448.565.565,0,0,0,.131.524.583.583,0,0,0,1.026-.327.566.566,0,0,0-.2-.5.9.9,0,0,0-.5-.192c0-.008.051-.034.156-.037a.682.682,0,0,1,.416.146.667.667,0,0,1,.267.6.716.716,0,0,1-1.27.4.667.667,0,0,1-.13-.646.681.681,0,0,1,.255-.359c.087-.059.146-.068.149-.061" transform="translate(-54.792 -85.859)" fill="#263238"/>
        <path id="Trazado_700160" data-name="Trazado 700160" d="M127.785,194.489a5.139,5.139,0,0,1-.327,2.683,1.771,1.771,0,0,1-2.275.907,2.522,2.522,0,0,1-.949-1.933c-.317-2.125-.461-4.273-.8-6.395Z" transform="translate(-51.454 -79.096)" fill="#263238"/>
        <path id="Trazado_700161" data-name="Trazado 700161" d="M101.919,178.684c0,.019.3-.055.829-.072a5.7,5.7,0,0,1,2.208.4,7.284,7.284,0,0,1,1.383.713,14.988,14.988,0,0,1,1.427,1.089,17.171,17.171,0,0,1,2.794,3.011c.423.6.8,1.207,1.205,1.773a8.488,8.488,0,0,0,1.338,1.5,14.85,14.85,0,0,0,2.819,1.886c.854.451,1.567.767,2.059.986l.571.243a.957.957,0,0,0,.2.072.935.935,0,0,0-.188-.107l-.556-.275c-.482-.239-1.186-.572-2.027-1.036a15.418,15.418,0,0,1-2.768-1.9,8.444,8.444,0,0,1-1.3-1.481c-.4-.56-.774-1.173-1.2-1.775a16.835,16.835,0,0,0-2.834-3.035,14.606,14.606,0,0,0-1.454-1.088A7.263,7.263,0,0,0,105,178.89a5.507,5.507,0,0,0-2.257-.352,3.888,3.888,0,0,0-.618.086.915.915,0,0,0-.209.059" transform="translate(-42.484 -74.418)" fill="#455a64"/>
        <path id="Trazado_700162" data-name="Trazado 700162" d="M131.05,191.281a1.483,1.483,0,0,0,.3.2l.845.5.285.163a.9.9,0,0,0,.365.121.35.35,0,0,0,.226-.053.292.292,0,0,0,.125-.22.745.745,0,0,0-.157-.422l-.981-1.57-.132.122a3.492,3.492,0,0,0,2.266.675.983.983,0,0,0,.3-.052.409.409,0,0,0,.259-.225.362.362,0,0,0-.056-.337,1.344,1.344,0,0,0-.19-.209,7.045,7.045,0,0,1-1.136-1.433,11.94,11.94,0,0,1-.723-1.536,1.737,1.737,0,0,0,.1.449,6.253,6.253,0,0,0,.5,1.153,6.745,6.745,0,0,0,1.13,1.49c.124.118.248.254.2.359s-.23.157-.4.158a3.375,3.375,0,0,1-2.147-.64l-.4-.291.266.414,1,1.558a.633.633,0,0,1,.142.325c0,.1-.085.15-.192.142a1.712,1.712,0,0,1-.6-.247l-.871-.448a1.49,1.49,0,0,0-.326-.142" transform="translate(-54.627 -77.95)" fill="#455a64"/>
        <path id="Trazado_700163" data-name="Trazado 700163" d="M112.568,208.983a1.116,1.116,0,0,0-1.152-.847,1.168,1.168,0,0,0-.9.637,1.435,1.435,0,0,0-.051,1.116l.018.08a1.27,1.27,0,0,0,1.429.3,1.188,1.188,0,0,0,.653-1.291" transform="translate(-46.011 -86.758)" fill="#ff9b6c"/>
        <path id="Trazado_700164" data-name="Trazado 700164" d="M109.5,209.575c0-.13.863-.089,1.513-.8s.6-1.634.723-1.635c.055-.009.157.213.149.6a2.155,2.155,0,0,1-.554,1.367,1.876,1.876,0,0,1-1.266.613c-.363.015-.573-.092-.564-.151" transform="translate(-45.644 -86.346)" fill="#263238"/>
        <path id="Trazado_700165" data-name="Trazado 700165" d="M86.67,284.526c.776-4.017,3.267-17.543,3.264-20.276a15.661,15.661,0,0,0-.83-2.289c-.727-2.441-3.259-11.422-2.69-16.155.454-3.784,3.656-8.627,4.616-11.214.452-1.218,4.049-2.473,5.248-2.972l2.55-3.6s-.554,1.673,1.7,3.176a6.842,6.842,0,0,0,4.109,1.089,10.461,10.461,0,0,0,7.5-3.691l.419.325c8.234,2.655,8.145,2.671,9.727,3.337,2.036.857-4.413,21.747-4.413,21.747s-3.81,14.1-1.756,18.476c1.157,2.462,5.05,6.527,6.035,8.816a14.484,14.484,0,0,1,1.748,3c.033.6-10.139,5.008-18.168,5.453-14.858.824-19.058-5.217-19.058-5.217" transform="translate(-35.986 -95.047)" fill="#f5f5f5"/>
        <path id="Trazado_700166" data-name="Trazado 700166" d="M147.894,387.8H87a2.19,2.19,0,0,0-2.19,2.19v12.618A2.19,2.19,0,0,0,87,404.8h60.9a2.19,2.19,0,0,0,2.19-2.19V389.993a2.19,2.19,0,0,0-2.19-2.19" transform="translate(-35.351 -161.653)" fill="#263238"/>
        <path id="Trazado_700167" data-name="Trazado 700167" d="M163.721,394.76H135.6a.413.413,0,0,0-.413.413v8.773a.413.413,0,0,0,.413.412h28.12a.413.413,0,0,0,.413-.412v-8.773a.413.413,0,0,0-.413-.413" transform="translate(-56.352 -164.552)" fill="#fff"/>
        <path id="Trazado_700168" data-name="Trazado 700168" d="M111.32,400.507a3.475,3.475,0,1,0-3.474,3.474,3.474,3.474,0,0,0,3.474-3.474" transform="translate(-43.506 -165.5)" fill="#263238"/>
        <path id="Trazado_700169" data-name="Trazado 700169" d="M107.428,404.147a4.058,4.058,0,1,1,4.058-4.058,4.062,4.062,0,0,1-4.058,4.058m0-6.95a2.892,2.892,0,1,0,2.891,2.892,2.9,2.9,0,0,0-2.891-2.892" transform="translate(-43.089 -165.082)" fill="#e0e0e0"/>
        <path id="Trazado_700170" data-name="Trazado 700170" d="M140.275,397.574a34.215,34.215,0,0,1,0,6.435,34.218,34.218,0,0,1,0-6.435" transform="translate(-58.409 -165.725)" fill="#e0e0e0"/>
        <path id="Trazado_700171" data-name="Trazado 700171" d="M145.1,397.574a34.346,34.346,0,0,1,0,6.435,34.215,34.215,0,0,1,0-6.435" transform="translate(-60.422 -165.725)" fill="#e0e0e0"/>
        <path id="Trazado_700172" data-name="Trazado 700172" d="M149.932,397.574a34.218,34.218,0,0,1,0,6.435,34.211,34.211,0,0,1,0-6.435" transform="translate(-62.435 -165.725)" fill="#e0e0e0"/>
        <path id="Trazado_700173" data-name="Trazado 700173" d="M154.761,397.574a34.215,34.215,0,0,1,0,6.435,34.215,34.215,0,0,1,0-6.435" transform="translate(-64.447 -165.725)" fill="#e0e0e0"/>
        <path id="Trazado_700174" data-name="Trazado 700174" d="M159.59,397.574a34.215,34.215,0,0,1,0,6.435,34.215,34.215,0,0,1,0-6.435" transform="translate(-66.46 -165.725)" fill="#e0e0e0"/>
        <path id="Trazado_700175" data-name="Trazado 700175" d="M164.419,397.574a34.346,34.346,0,0,1,0,6.435,34.215,34.215,0,0,1,0-6.435" transform="translate(-68.473 -165.725)" fill="#e0e0e0"/>
        <path id="Trazado_700176" data-name="Trazado 700176" d="M169.247,397.574a34.211,34.211,0,0,1,0,6.435,34.215,34.215,0,0,1,0-6.435" transform="translate(-70.486 -165.725)" fill="#e0e0e0"/>
        <path id="Trazado_700177" data-name="Trazado 700177" d="M174.076,397.574a34.215,34.215,0,0,1,0,6.435,34.215,34.215,0,0,1,0-6.435" transform="translate(-72.499 -165.725)" fill="#e0e0e0"/>
        <path id="Trazado_700178" data-name="Trazado 700178" d="M178.9,397.574a34.218,34.218,0,0,1,0,6.435,34.215,34.215,0,0,1,0-6.435" transform="translate(-74.512 -165.725)" fill="#e0e0e0"/>
        <path id="Trazado_700179" data-name="Trazado 700179" d="M147.894,359.735H87a2.19,2.19,0,0,0-2.19,2.19v12.618a2.19,2.19,0,0,0,2.19,2.19h60.9a2.19,2.19,0,0,0,2.19-2.19V361.925a2.19,2.19,0,0,0-2.19-2.19" transform="translate(-35.351 -149.953)" fill="#455a64"/>
        <path id="Trazado_700180" data-name="Trazado 700180" d="M163.721,366.693H135.6a.413.413,0,0,0-.413.413v8.773a.413.413,0,0,0,.413.412h28.12a.413.413,0,0,0,.413-.412v-8.773a.413.413,0,0,0-.413-.413" transform="translate(-56.352 -152.853)" fill="#fff"/>
        <path id="Trazado_700181" data-name="Trazado 700181" d="M111.32,372.438a3.475,3.475,0,1,0-3.474,3.474,3.474,3.474,0,0,0,3.474-3.474" transform="translate(-43.506 -153.8)" fill="#263238"/>
        <path id="Trazado_700182" data-name="Trazado 700182" d="M107.428,376.08a4.058,4.058,0,1,1,4.058-4.058,4.063,4.063,0,0,1-4.058,4.058m0-6.949a2.892,2.892,0,1,0,2.891,2.891,2.9,2.9,0,0,0-2.891-2.891" transform="translate(-43.089 -153.383)" fill="#e0e0e0"/>
        <path id="Trazado_700183" data-name="Trazado 700183" d="M140.275,369.506a34.215,34.215,0,0,1,0,6.435,34.218,34.218,0,0,1,0-6.435" transform="translate(-58.409 -154.025)" fill="#e0e0e0"/>
        <path id="Trazado_700184" data-name="Trazado 700184" d="M145.1,369.506a34.346,34.346,0,0,1,0,6.435,34.215,34.215,0,0,1,0-6.435" transform="translate(-60.422 -154.025)" fill="#e0e0e0"/>
        <path id="Trazado_700185" data-name="Trazado 700185" d="M149.932,369.506a34.218,34.218,0,0,1,0,6.435,34.211,34.211,0,0,1,0-6.435" transform="translate(-62.435 -154.025)" fill="#e0e0e0"/>
        <path id="Trazado_700186" data-name="Trazado 700186" d="M154.761,369.506a34.215,34.215,0,0,1,0,6.435,34.215,34.215,0,0,1,0-6.435" transform="translate(-64.447 -154.025)" fill="#e0e0e0"/>
        <path id="Trazado_700187" data-name="Trazado 700187" d="M159.59,369.506a34.215,34.215,0,0,1,0,6.435,34.215,34.215,0,0,1,0-6.435" transform="translate(-66.46 -154.025)" fill="#e0e0e0"/>
        <path id="Trazado_700188" data-name="Trazado 700188" d="M164.419,369.506a34.346,34.346,0,0,1,0,6.435,34.215,34.215,0,0,1,0-6.435" transform="translate(-68.473 -154.025)" fill="#e0e0e0"/>
        <path id="Trazado_700189" data-name="Trazado 700189" d="M169.247,369.506a34.211,34.211,0,0,1,0,6.435,34.215,34.215,0,0,1,0-6.435" transform="translate(-70.486 -154.025)" fill="#e0e0e0"/>
        <path id="Trazado_700190" data-name="Trazado 700190" d="M174.076,369.506a34.215,34.215,0,0,1,0,6.435,34.215,34.215,0,0,1,0-6.435" transform="translate(-72.499 -154.025)" fill="#e0e0e0"/>
        <path id="Trazado_700191" data-name="Trazado 700191" d="M178.9,369.506a34.218,34.218,0,0,1,0,6.435,34.215,34.215,0,0,1,0-6.435" transform="translate(-74.512 -154.025)" fill="#e0e0e0"/>
        <path id="Trazado_700192" data-name="Trazado 700192" d="M147.894,417.108H87a2.19,2.19,0,0,0-2.19,2.19v12.618a2.19,2.19,0,0,0,2.19,2.19h60.9a2.19,2.19,0,0,0,2.19-2.19V419.3a2.19,2.19,0,0,0-2.19-2.19" transform="translate(-35.351 -173.868)" fill="#e0e0e0"/>
        <path id="Trazado_700193" data-name="Trazado 700193" d="M163.721,424.066H135.6a.413.413,0,0,0-.413.413v8.773a.412.412,0,0,0,.413.412h28.12a.412.412,0,0,0,.413-.412v-8.773a.413.413,0,0,0-.413-.413" transform="translate(-56.352 -176.768)" fill="#fff"/>
        <path id="Trazado_700194" data-name="Trazado 700194" d="M111.32,429.812a3.475,3.475,0,1,0-3.474,3.474,3.474,3.474,0,0,0,3.474-3.474" transform="translate(-43.506 -177.715)" fill="#263238"/>
        <path id="Trazado_700195" data-name="Trazado 700195" d="M107.428,433.453a4.058,4.058,0,1,1,4.058-4.058,4.062,4.062,0,0,1-4.058,4.058m0-6.949a2.892,2.892,0,1,0,2.891,2.892,2.9,2.9,0,0,0-2.891-2.892" transform="translate(-43.089 -177.298)" fill="#f5f5f5"/>
        <path id="Trazado_700196" data-name="Trazado 700196" d="M140.275,426.879a34.215,34.215,0,0,1,0,6.435,34.218,34.218,0,0,1,0-6.435" transform="translate(-58.409 -177.941)" fill="#e0e0e0"/>
        <path id="Trazado_700197" data-name="Trazado 700197" d="M145.1,426.879a34.345,34.345,0,0,1,0,6.435,34.215,34.215,0,0,1,0-6.435" transform="translate(-60.422 -177.941)" fill="#e0e0e0"/>
        <path id="Trazado_700198" data-name="Trazado 700198" d="M149.932,426.879a34.218,34.218,0,0,1,0,6.435,34.211,34.211,0,0,1,0-6.435" transform="translate(-62.435 -177.941)" fill="#e0e0e0"/>
        <path id="Trazado_700199" data-name="Trazado 700199" d="M154.761,426.879a34.215,34.215,0,0,1,0,6.435,34.215,34.215,0,0,1,0-6.435" transform="translate(-64.447 -177.941)" fill="#e0e0e0"/>
        <path id="Trazado_700200" data-name="Trazado 700200" d="M159.59,426.879a34.215,34.215,0,0,1,0,6.435,34.215,34.215,0,0,1,0-6.435" transform="translate(-66.46 -177.941)" fill="#e0e0e0"/>
        <path id="Trazado_700201" data-name="Trazado 700201" d="M164.419,426.879a34.345,34.345,0,0,1,0,6.435,34.215,34.215,0,0,1,0-6.435" transform="translate(-68.473 -177.941)" fill="#e0e0e0"/>
        <path id="Trazado_700202" data-name="Trazado 700202" d="M169.247,426.879a34.211,34.211,0,0,1,0,6.435,34.215,34.215,0,0,1,0-6.435" transform="translate(-70.486 -177.941)" fill="#e0e0e0"/>
        <path id="Trazado_700203" data-name="Trazado 700203" d="M174.076,426.879a34.215,34.215,0,0,1,0,6.435,34.215,34.215,0,0,1,0-6.435" transform="translate(-72.499 -177.941)" fill="#e0e0e0"/>
        <path id="Trazado_700204" data-name="Trazado 700204" d="M178.9,426.879a34.218,34.218,0,0,1,0,6.435,34.215,34.215,0,0,1,0-6.435" transform="translate(-74.512 -177.941)" fill="#e0e0e0"/>
        <path id="Trazado_700205" data-name="Trazado 700205" d="M18.25,387.453l-4.834,10.435s-12.071-1.6-13.152.246L20,408.421l8.2-15.951Z" transform="translate(-0.11 -161.507)" fill="#455a64"/>
        <path id="Trazado_700206" data-name="Trazado 700206" d="M32.846,409.023a.918.918,0,0,1,.092,1.221.882.882,0,0,1-1.21.1.968.968,0,0,1-.09-1.294.915.915,0,0,1,1.27.034" transform="translate(-13.101 -170.411)" fill="#e0e0e0"/>
        <path id="Trazado_700207" data-name="Trazado 700207" d="M19.892,415.638l.653-1.271-19.357-9.6A1.7,1.7,0,0,0,0,405.406Z" transform="translate(0 -168.724)" fill="#263238"/>
        <path id="Trazado_700208" data-name="Trazado 700208" d="M22.448,405.284c-.047.1.42.392.742.951s.369,1.1.479,1.107c.1.027.251-.632-.15-1.3s-1.046-.857-1.071-.756" transform="translate(-9.356 -168.929)" fill="#263238"/>
        <path id="Trazado_700209" data-name="Trazado 700209" d="M18.082,404.952c-.071.083.269.465.391,1.048.14.578,0,1.069.1,1.114.085.062.443-.476.278-1.2s-.714-1.056-.764-.964" transform="translate(-7.533 -168.795)" fill="#263238"/>
        <path id="Trazado_700210" data-name="Trazado 700210" d="M13.833,406.757c.078.066.463-.354.483-1.018s-.328-1.109-.411-1.048.055.49.029,1.035-.194.972-.1,1.03" transform="translate(-5.756 -168.69)" fill="#263238"/>
        <path id="Trazado_700211" data-name="Trazado 700211" d="M24.809,401.346c0,.11.513.2,1.047.521s.876.711.97.654c.092-.042-.144-.618-.779-.984s-1.248-.293-1.239-.191" transform="translate(-10.341 -167.263)" fill="#263238"/>
        <path id="Trazado_700212" data-name="Trazado 700212" d="M26.115,396.9a2.114,2.114,0,0,0,1.007.5,5.075,5.075,0,0,0,1.214.211,5.342,5.342,0,0,0,.731-.013,1.381,1.381,0,0,0,.423-.082.478.478,0,0,0,.31-.5.6.6,0,0,0-.315-.441,1.475,1.475,0,0,0-.4-.139,4.052,4.052,0,0,0-.733-.1,4,4,0,0,0-1.234.138c-.683.195-1.028.479-1,.516.028.055.409-.136,1.063-.252a4.5,4.5,0,0,1,1.151-.05,4.236,4.236,0,0,1,.667.115c.24.052.422.142.429.264,0,.046,0,.062-.079.1a1.137,1.137,0,0,1-.31.059,5.905,5.905,0,0,1-.684.034,6.244,6.244,0,0,1-1.159-.121,7.824,7.824,0,0,0-1.072-.243" transform="translate(-10.883 -165.211)" fill="#263238"/>
        <path id="Trazado_700213" data-name="Trazado 700213" d="M55.523,416.051l.611,11.485s-11.415,4.238-11.508,6.372l22.256-.145-.218-17.934Z" transform="translate(-18.602 -173.334)" fill="#455a64"/>
        <path id="Trazado_700214" data-name="Trazado 700214" d="M75.133,434.092a.918.918,0,0,1,.653,1.036.883.883,0,0,1-1.021.656.968.968,0,0,1-.686-1.1.916.916,0,0,1,1.138-.565" transform="translate(-30.867 -180.933)" fill="#e0e0e0"/>
        <path id="Trazado_700215" data-name="Trazado 700215" d="M66.8,445.558l-.017-1.428-21.6.574a1.7,1.7,0,0,0-.75,1.121Z" transform="translate(-18.523 -185.132)" fill="#263238"/>
        <path id="Trazado_700216" data-name="Trazado 700216" d="M64.013,435.958c.006.11.555.15,1.1.493s.841.8.942.755c.1-.023-.074-.676-.742-1.081s-1.326-.268-1.3-.167" transform="translate(-26.683 -181.681)" fill="#263238"/>
        <path id="Trazado_700217" data-name="Trazado 700217" d="M60,437.743c-.023.107.455.285.836.743s.5.946.606.94c.1.015.169-.629-.315-1.188s-1.126-.6-1.126-.495" transform="translate(-25.01 -182.45)" fill="#263238"/>
        <path id="Trazado_700218" data-name="Trazado 700218" d="M57.139,441.31c.1.022.243-.53-.049-1.125s-.809-.826-.854-.734c-.06.091.279.408.511.9s.283.949.392.958" transform="translate(-23.439 -183.173)" fill="#263238"/>
        <path id="Trazado_700219" data-name="Trazado 700219" d="M64.272,431.193c.048.1.549-.061,1.169-.03s1.108.219,1.163.124-.416-.478-1.148-.5-1.24.326-1.185.411" transform="translate(-26.79 -179.567)" fill="#263238"/>
        <path id="Trazado_700220" data-name="Trazado 700220" d="M63.516,425.925a2.11,2.11,0,0,0,1.125-.025,5.069,5.069,0,0,0,1.171-.382,5.315,5.315,0,0,0,.64-.354,1.392,1.392,0,0,0,.335-.271.478.478,0,0,0,.04-.584.6.6,0,0,0-.485-.243,1.467,1.467,0,0,0-.421.066,4.062,4.062,0,0,0-.7.252,3.98,3.98,0,0,0-1.026.7c-.513.492-.684.9-.646.925s.3-.313.822-.72a4.479,4.479,0,0,1,.994-.583,4.235,4.235,0,0,1,.643-.211c.237-.066.439-.072.5.033.023.04.026.056-.023.127a1.137,1.137,0,0,1-.246.2,5.987,5.987,0,0,1-.588.35,6.231,6.231,0,0,1-1.081.436,7.757,7.757,0,0,0-1.061.287" transform="translate(-26.476 -176.768)" fill="#263238"/>
        <path id="Trazado_700221" data-name="Trazado 700221" d="M98.7,317.8s-45.574-5.4-48.2-5.4c-6.17,0-9.062,4.515-9.983,8.144-.682,2.685-14.409,41.462-14.409,41.462l10.127,5.25,14.892-26.462,7.59-13.2,39.114,6.044Z" transform="translate(-10.884 -130.222)" fill="#263238"/>
        <path id="Trazado_700222" data-name="Trazado 700222" d="M71.152,335.6s-6.111,0-9.412,4.889c-1.94,2.874-1.258,8.01-1.3,11.887-.053,5.278,1.222,37.434,1.222,37.434l12.5.209L76.785,356.5l-.155-6.194,24.96-2.029s2.273-7.566-3.316-13.536c-.719-.768-27.122.855-27.122.855" transform="translate(-25.16 -139.449)" fill="#263238"/>
        <path id="Trazado_700223" data-name="Trazado 700223" d="M136.033,321.65s3.894,8.991-1.361,16.678c-3.471,5.076-10.129,3.914-10.129,3.914L115.7,331.169l7.055-11.025Z" transform="translate(-48.229 -133.449)" fill="#263238"/>
        <path id="Trazado_700224" data-name="Trazado 700224" d="M62.6,399.408a1.149,1.149,0,0,1,.221-.013l.648,0,2.49.012,9.145.1-.114.1c.485-6.729,1.136-15.782,1.852-25.722.239-3.237.472-6.379.693-9.368v.014q-.056-2.38-.11-4.62l0-.134.133-.011c7.093-.572,13.141-1.082,17.414-1.471,2.136-.2,3.828-.356,4.984-.487.58-.057,1.021-.125,1.321-.16.292-.055.446-.091.451-.083a3.7,3.7,0,0,1-.443.129c-.3.05-.741.133-1.318.2-1.155.16-2.845.348-4.98.567-4.269.438-10.314.987-17.407,1.581l.13-.144q.059,2.237.121,4.62v.015c-.218,2.989-.448,6.132-.684,9.369-.746,9.938-1.426,18.988-1.931,25.716l-.008.106-.106,0-9.143-.2-2.489-.072-.647-.027a1.1,1.1,0,0,1-.22-.02" transform="translate(-26.094 -149.048)" fill="#455a64"/>
        <path id="Trazado_700225" data-name="Trazado 700225" d="M101.614,348.712a1.009,1.009,0,0,0-.166-.087l-.5-.232-1.923-.871-7.092-3.16L81.4,339.7l-6.223-2.742c-.546-.23-1.07-.5-1.65-.7a10.5,10.5,0,0,0-1.776-.454,13.465,13.465,0,0,0-3.727-.032A11.814,11.814,0,0,0,64.44,336.8a6.369,6.369,0,0,0-1.542,1.008,5.771,5.771,0,0,0-1.132,1.417,8.036,8.036,0,0,0-1.044,3.339c-.049.58-.015,1.138-.016,1.693s.012,1.1.017,1.645c.05,4.332.094,8.234.132,11.516s.084,5.916.11,7.764c.019.906.033,1.614.043,2.111.007.232.013.413.017.549a1.107,1.107,0,0,0,.014.187.989.989,0,0,0,.011-.187c0-.136,0-.318.008-.549,0-.5,0-1.205,0-2.111-.008-1.847-.018-4.5-.031-7.764s-.049-7.184-.078-11.515q-.006-.813-.013-1.646c0-.553-.029-1.121.02-1.672a7.813,7.813,0,0,1,1.017-3.235,5.534,5.534,0,0,1,1.087-1.358,6.158,6.158,0,0,1,1.484-.966,11.593,11.593,0,0,1,3.511-.994,13.246,13.246,0,0,1,3.656.03,10.236,10.236,0,0,1,1.731.441c.557.188,1.1.461,1.638.688l6.228,2.729,10.552,4.608,7.124,3.087,1.942.828.508.209a1.013,1.013,0,0,0,.176.064" transform="translate(-25.3 -139.92)" fill="#455a64"/>
        <path id="Trazado_700226" data-name="Trazado 700226" d="M91.63,268.07a4.15,4.15,0,0,0-.1-.729c-.085-.465-.183-1.141-.276-1.979s-.159-1.84-.175-2.953a28.806,28.806,0,0,1,.839-7.177c.272-1.08.564-2.041.851-2.834s.535-1.429.725-1.861a4.139,4.139,0,0,0,.264-.687,4.08,4.08,0,0,0-.353.647,19.98,19.98,0,0,0-.8,1.84,26.06,26.06,0,0,0-.909,2.838,26.816,26.816,0,0,0-.846,7.236,25.93,25.93,0,0,0,.23,2.971,19.92,19.92,0,0,0,.356,1.976,4.111,4.111,0,0,0,.194.71" transform="translate(-37.869 -104.148)" fill="#263238"/>
        <path id="Trazado_700227" data-name="Trazado 700227" d="M97.432,226.7l-.023-1.84-2.161,3.523-4.4,1.622c-1.384,1.6-5.869,19.553-4.962,22.524l1.566,17.561-4.464,6.713,8.01.857s1.721-1.7,1.291-6.2c-1.089-11.39.037-24.384.2-27.262.247-4.332,4.944-17.5,4.944-17.5" transform="translate(-34.592 -93.732)" fill="#afafaf"/>
        <path id="Trazado_700228" data-name="Trazado 700228" d="M89.2,230.9s-7.227,2.363-8.174,3.724c-2.576,3.7-18.085,29.026-10.472,36.579,4.987,4.948,11.991-5.49,11.991-5.49Z" transform="translate(-28.541 -96.25)" fill="#afafaf"/>
        <path id="Trazado_700229" data-name="Trazado 700229" d="M73.639,281.4a3.918,3.918,0,0,0,.658-.117l1.8-.387c1.531-.322,3.677-.777,6.137-1.146l-.131-.077.737,1.892,1.752,4.448.017-.112-2.719,3.392-.755.971a2.057,2.057,0,0,0-.25.361,2.022,2.022,0,0,0,.3-.316l.8-.931,2.789-3.335.042-.05-.024-.062c-.517-1.334-1.106-2.852-1.728-4.458l-.741-1.891-.036-.092-.1.015c-2.476.382-4.614.868-6.139,1.233-.762.184-1.37.343-1.786.459a3.889,3.889,0,0,0-.638.2" transform="translate(-30.696 -116.502)" fill="#263238"/>
        <path id="Trazado_700230" data-name="Trazado 700230" d="M85.712,265.11a5.078,5.078,0,0,0-.073-.808c-.069-.56-.16-1.3-.269-2.191a34.813,34.813,0,0,1-.238-7.245,19.893,19.893,0,0,1,2-6.923c.407-.836.775-1.493,1.032-1.947a5.814,5.814,0,0,0,.386-.713c-.007,0-.053.052-.133.164s-.2.279-.336.5c-.283.439-.676,1.086-1.107,1.918a18.951,18.951,0,0,0-2.092,6.979,31.6,31.6,0,0,0,.311,7.291c.131.925.259,1.669.349,2.183a5.059,5.059,0,0,0,.169.794" transform="translate(-35.342 -102.244)" fill="#263238"/>
        <path id="Trazado_700231" data-name="Trazado 700231" d="M96.466,256.226a1.238,1.238,0,0,0,0-.29c-.016-.216-.036-.49-.061-.828-.067-.751-.159-1.782-.272-3.041-.124-1.292-.271-2.818-.433-4.506-.085-.848-.173-1.738-.265-2.66a9.571,9.571,0,0,1-.075-1.392,2.556,2.556,0,0,1,.38-1.317,1.5,1.5,0,0,1,1.275-.741l.456.029-.38-.256-1.9-1.284.036.161,3.711-6.368,1.058-1.859.273-.5a.761.761,0,0,0,.083-.181c-.007,0-.047.051-.119.159l-.307.482L98.8,233.656l-3.788,6.323-.058.1.094.064,1.9,1.29.078-.227a1.746,1.746,0,0,0-1.5.85,2.793,2.793,0,0,0-.42,1.445,9.693,9.693,0,0,0,.08,1.429l.279,2.659c.183,1.686.348,3.209.487,4.5.145,1.256.264,2.284.35,3.032.043.336.079.608.107.823a1.239,1.239,0,0,0,.055.285" transform="translate(-39.582 -96.37)" fill="#263238"/>
        <path id="Trazado_700232" data-name="Trazado 700232" d="M123.044,225.6l2.161,2.318,8.021,2.548a142.506,142.506,0,0,1-1.9,17.562c-1.766,9.893-2.713,19.977-2.765,20.132a53.824,53.824,0,0,1,6.474,11.3c1.919,4.684,2.972,14.462,2.972,14.462L117.817,300.1l-3.42-36.6.89-16.93Z" transform="translate(-47.685 -94.038)" fill="#afafaf"/>
        <path id="Trazado_700233" data-name="Trazado 700233" d="M115.929,257.146a1.687,1.687,0,0,0,.152-.3c.1-.225.23-.518.392-.882.339-.766.831-1.875,1.467-3.231a115.6,115.6,0,0,1,5.483-10.331l.554-.916.076-.125-.134-.055-2.274-.939.031.207a6.19,6.19,0,0,1,2.523-1.27l.082-.019.007-.084a27.781,27.781,0,0,1,.709-4.012c.281-1.2.523-2.252.664-3.139a15.09,15.09,0,0,0,.206-2.082c.008-.243,0-.43-.006-.556a.732.732,0,0,0-.017-.191,6.709,6.709,0,0,0-.051.744,18.3,18.3,0,0,1-.27,2.061c-.16.877-.417,1.924-.713,3.118a26.862,26.862,0,0,0-.751,4.038l.089-.1a6.38,6.38,0,0,0-2.627,1.307l-.156.129.187.078,2.272.944-.059-.181-.556.917a101.569,101.569,0,0,0-5.429,10.386c-.616,1.368-1.084,2.489-1.4,3.267-.144.373-.259.672-.349.9a1.7,1.7,0,0,0-.1.321" transform="translate(-48.324 -95.548)" fill="#263238"/>
        <path id="Trazado_700234" data-name="Trazado 700234" d="M137.3,320.141a1.708,1.708,0,0,0,.181.251l.534.672,1.973,2.417.052-.145-9.591,1.8.125.05-.152-.212-2.676-3.723-.082.187,6.9-.9,2-.279.539-.083a.883.883,0,0,0,.191-.041.6.6,0,0,0-.177,0l-.527.047-1.994.211-6.965.8-.2.023.117.164,2.666,3.73.152.212.047.065.078-.015,9.577-1.874.152-.029-.1-.115-2.063-2.388-.562-.633a1.342,1.342,0,0,0-.2-.2" transform="translate(-53.12 -133.446)" fill="#263238"/>
        <g id="Grupo_998996" data-name="Grupo 998996" transform="translate(75.086 188.655)" opacity="0.3">
          <g id="Grupo_998995" data-name="Grupo 998995">
            <g id="Grupo_998994" data-name="Grupo 998994" clip-path="url(#clip-path-11)">
              <path id="Trazado_700235" data-name="Trazado 700235" d="M139.372,325.064l.634,1.239-9,1.935-2.249-4.732,2.264,3.16Z" transform="translate(-128.758 -323.506)"/>
            </g>
          </g>
        </g>
        <path id="Trazado_700236" data-name="Trazado 700236" d="M32,275.381l4.924,24.171H79.66a.853.853,0,1,0,0-1.707h-8.6l-4.565-22.48a.933.933,0,0,0-.9-.748l-32.662-.357a.933.933,0,0,0-.925,1.12" transform="translate(-13.331 -114.323)" fill="#e0e0e0"/>
        <path id="Trazado_700237" data-name="Trazado 700237" d="M32,275.372s-.005-.024-.013-.073a.851.851,0,0,1,0-.219.939.939,0,0,1,.452-.707.974.974,0,0,1,.282-.112,1.511,1.511,0,0,1,.336-.02l.769.006,1.923.016,12.35.117,8.609.087,4.823.05,2.53.026,1.293.013c.11,0,.213,0,.331.008a.975.975,0,0,1,.33.1.989.989,0,0,1,.469.492,1.546,1.546,0,0,1,.089.328l.066.325.133.653q.134.655.269,1.32.27,1.328.547,2.689.554,2.721,1.132,5.565c.77,3.789,1.572,7.732,2.4,11.793l-.057-.047h8.46a1.559,1.559,0,0,1,.333.02.914.914,0,0,1,.245,1.7.933.933,0,0,1-.4.108l-.395,0H68.557l-11.57,0-20.065-.01h-.037l-.008-.036c-1.5-7.429-2.729-13.473-3.577-17.662l-.972-4.829c-.11-.552-.193-.974-.25-1.26s-.081-.43-.081-.43.034.145.094.428.148.706.263,1.257l.995,4.824c.858,4.186,2.1,10.227,3.616,17.653l-.044-.036,20.065-.011,11.57,0H79.3l.39,0a.788.788,0,0,0,.756-.673.793.793,0,0,0-.619-.9,1.512,1.512,0,0,0-.308-.018H71.007L71,297.848c-.824-4.062-1.624-8-2.393-11.794q-.576-2.842-1.128-5.566-.276-1.361-.545-2.69-.135-.664-.267-1.32l-.132-.654-.066-.325a1.461,1.461,0,0,0-.083-.308.883.883,0,0,0-.715-.527c-.1-.009-.215-.005-.321-.008l-1.293-.015-2.53-.029-4.823-.056-8.609-.1-12.35-.153-1.923-.026-.769-.011a1.453,1.453,0,0,0-.331.017.961.961,0,0,0-.276.107.932.932,0,0,0-.452.689,1.217,1.217,0,0,0,.006.291" transform="translate(-13.329 -114.315)" fill="#263238"/>
        <path id="Trazado_700238" data-name="Trazado 700238" d="M63.765,294.141a1.412,1.412,0,1,1-1.411-1.411,1.411,1.411,0,0,1,1.411,1.411" transform="translate(-25.403 -122.022)" fill="#fff"/>
        <path id="Trazado_700239" data-name="Trazado 700239" d="M32.082,276.512s.05,0,.147,0l.433,0,1.661,0,6.11.03,20.16.142,2.916.024.716.006a1.871,1.871,0,0,1,.366.022,1.03,1.03,0,0,1,.347.141,1.013,1.013,0,0,1,.433.588c.054.237.093.46.141.689l1.042,5.25,1.758,8.892,1.174,6c.136.706.241,1.254.314,1.632.034.184.06.325.079.425s.023.146.023.146-.014-.048-.035-.143-.051-.24-.09-.422c-.078-.376-.19-.924-.335-1.627l-1.212-5.989-1.782-8.887c-.334-1.673-.685-3.429-1.049-5.249-.046-.226-.089-.461-.139-.681a.9.9,0,0,0-.384-.521.909.909,0,0,0-.307-.124,1.731,1.731,0,0,0-.344-.019l-.716-.006-2.916-.023-20.159-.177-6.11-.067-1.661-.024-.432-.009c-.1,0-.147-.007-.147-.007" transform="translate(-13.373 -115.258)" fill="#263238"/>
        <path id="Trazado_700240" data-name="Trazado 700240" d="M107.737,294.863l.014.009-.014-.009" transform="translate(-44.909 -122.911)" fill="#ffc09d"/>
        <path id="Trazado_700241" data-name="Trazado 700241" d="M107.88,294.953l.031.019-.031-.019" transform="translate(-44.969 -122.949)" fill="#ffc09d"/>
        <path id="Trazado_700242" data-name="Trazado 700242" d="M107.761,294.878l.069.044-.069-.044" transform="translate(-44.919 -122.917)" fill="#ffc09d"/>
        <path id="Trazado_700243" data-name="Trazado 700243" d="M107.684,294.829l.031.019-.031-.019" transform="translate(-44.887 -122.897)" fill="#ffc09d"/>
        <path id="Trazado_700244" data-name="Trazado 700244" d="M92.944,300.155c.793-1.149,6.24-3.781,6.24-3.781l-1.334-.479-1.589.461a3.748,3.748,0,0,1-.819,1.341c-.65.728-1.5-.205-1.5-.205l1-2.989,3.208-1.447a29.666,29.666,0,0,1,3.2,1.035l1.071,1.242c.478.476,1.807,2.285,2.217,2.384.127.03,3.909-1.2,3.909-1.2l1.568,6.938-5.775.5-3.511.537a24.141,24.141,0,0,1-2.907.629c-1.159.1-1.878-.352-1.835-.981s.929-.594.929-.594a17.386,17.386,0,0,0,2.3-.7,3.869,3.869,0,0,0,1.395-1.208h-1.23s-2.789,1.483-3.82,1.893-1.108-.576-1.151-.878,3.273-2.858,3.273-2.858-3.032,1.408-3.593,1.787-1.329.422-1.456.108-.584-.377.209-1.526" transform="translate(-38.553 -122.157)" fill="#ffc09d"/>
        <path id="Trazado_700245" data-name="Trazado 700245" d="M107.933,294.986l.027.017-.027-.017" transform="translate(-44.991 -122.962)" fill="#ffc09d"/>
        <path id="Trazado_700246" data-name="Trazado 700246" d="M108,295.031h0" transform="translate(-45.021 -122.981)" fill="#ffc09d"/>
        <path id="Trazado_700247" data-name="Trazado 700247" d="M107.979,295.015l.015.009-.015-.009" transform="translate(-45.01 -122.975)" fill="#ffc09d"/>
        <path id="Trazado_700248" data-name="Trazado 700248" d="M115.538,305.422a.636.636,0,0,0,.038-.2,1.191,1.191,0,0,0,.012-.235,1.716,1.716,0,0,0-.02-.312,4.331,4.331,0,0,0-.633-1.681,9.276,9.276,0,0,0-1.084-1.431,3.653,3.653,0,0,0-.53-.521,5.793,5.793,0,0,0,.466.576,11.979,11.979,0,0,1,1.045,1.437,4.748,4.748,0,0,1,.653,1.631c.075.446.027.73.052.732" transform="translate(-47.237 -125.488)" fill="#ff9b6c"/>
        <path id="Trazado_700249" data-name="Trazado 700249" d="M104.189,298.356a1.884,1.884,0,0,0,1.664-.348c-.019-.031-.355.162-.815.255s-.844.057-.848.092" transform="translate(-43.43 -124.221)" fill="#ff9b6c"/>
        <path id="Trazado_700250" data-name="Trazado 700250" d="M102.064,303.658a15.9,15.9,0,0,0,2.656-.742,15.893,15.893,0,0,0-2.656.742" transform="translate(-42.544 -126.266)" fill="#ff9b6c"/>
        <path id="Trazado_700251" data-name="Trazado 700251" d="M106.372,307.419a10.74,10.74,0,0,0,1.366-.355,2.621,2.621,0,0,0-1.366.355" transform="translate(-44.34 -127.991)" fill="#ff9b6c"/>
        <path id="Trazado_700252" data-name="Trazado 700252" d="M102.732,304.656a1.658,1.658,0,0,1,.665,1.128c.015,0,.039-.077.034-.208a1.083,1.083,0,0,0-.5-.85c-.112-.068-.192-.084-.2-.071" transform="translate(-42.823 -126.991)" fill="#ff9b6c"/>
        <path id="Trazado_700253" data-name="Trazado 700253" d="M101.074,301.2c-.019.029.188.176.3.45a3.283,3.283,0,0,1,.122.528.605.605,0,0,0-.012-.576c-.135-.314-.4-.433-.413-.4" transform="translate(-42.131 -125.552)" fill="#ff9b6c"/>
        <path id="Trazado_700254" data-name="Trazado 700254" d="M102.349,294.742c.012.008.065-.043.114-.148a.88.88,0,0,0-.1-.863c-.072-.092-.136-.128-.146-.117a1.342,1.342,0,0,1,.135,1.128" transform="translate(-42.606 -122.39)" fill="#ff9b6c"/>
        <path id="Trazado_700255" data-name="Trazado 700255" d="M133.712,233.941a8.5,8.5,0,0,1,4.785,5.633s.853,2.644,1.49,5.608c1.547,7.2,4.32,19.459,4.454,23.042.241,6.479-4.447,8.32-7.077,8.887s-18.949,2.583-18.949,2.583l-2.853-8.059,16.639-7.242s-3.173-10.894-3.907-14.3" transform="translate(-48.171 -97.516)" fill="#afafaf"/>
        <path id="Trazado_700256" data-name="Trazado 700256" d="M128.169,250.1s.029.083.072.249.107.423.188.737l.759,2.834c.678,2.461,1.691,6.025,2.987,10.449l.026.087-.083.036-16.625,7.275.076-.174,2.861,8.057-.157-.1c4.241-.532,8.763-1.106,13.413-1.741,1.879-.266,3.75-.506,5.552-.851a9.559,9.559,0,0,0,4.734-2.4,7.458,7.458,0,0,0,2.125-4.6c.021-.212.053-.422.064-.633l.006-.633a10.463,10.463,0,0,0-.053-1.256c-.09-.833-.2-1.657-.338-2.469-.531-3.245-1.167-6.31-1.759-9.177-.609-2.863-1.177-5.531-1.7-7.968l-.748-3.472c-.249-1.092-.517-2.115-.782-3.066s-.526-1.838-.8-2.63a7.813,7.813,0,0,0-1.1-2.008,8.783,8.783,0,0,0-2.329-2.154,8.1,8.1,0,0,0-.721-.413c-.167-.086-.255-.124-.253-.129a1.789,1.789,0,0,1,.267.1,6.574,6.574,0,0,1,.74.39,8.591,8.591,0,0,1,2.391,2.134,7.9,7.9,0,0,1,1.144,2.028c.288.8.548,1.685.828,2.636s.549,1.975.807,3.069q.364,1.644.769,3.47l1.732,7.962c.6,2.867,1.249,5.93,1.789,9.185q.2,1.22.346,2.485a10.921,10.921,0,0,1,.057,1.284l-.006.649c-.011.217-.044.433-.065.65a7.746,7.746,0,0,1-2.2,4.782,9.847,9.847,0,0,1-4.879,2.486c-1.833.352-3.691.59-5.576.857-4.654.636-9.176,1.207-13.418,1.733l-.118.015-.039-.112-2.846-8.062-.043-.122.119-.051,16.653-7.21-.058.124c-1.271-4.433-2.254-8.006-2.9-10.478-.32-1.236-.56-2.2-.707-2.849-.077-.325-.125-.576-.16-.744s-.043-.255-.043-.255" transform="translate(-48.046 -97.516)" fill="#263238"/>
        <path id="Trazado_700257" data-name="Trazado 700257" d="M136.093,247.545a1.784,1.784,0,0,1-.093-.523,11,11,0,0,1-.064-1.444,15.345,15.345,0,0,1,3.043-8.914,10.846,10.846,0,0,1,.934-1.1c.24-.244.378-.371.394-.357.04.036-.468.592-1.153,1.586a17.136,17.136,0,0,0-3,8.8c-.065,1.2,0,1.956-.057,1.96" transform="translate(-56.663 -98.042)" fill="#263238"/>
      </g>
    </g>
  </g>
</svg>
