<svg id="Grupo_998830" data-name="Grupo 998830" xmlns="http://www.w3.org/2000/svg" xmlns:xlink="http://www.w3.org/1999/xlink" width="521.558" height="531.364" viewBox="0 0 521.558 531.364">
  <defs>
    <clipPath id="clip-path">
      <rect id="Rectángulo_344872" data-name="Rectángulo 344872" width="521.558" height="531.364" fill="none"/>
    </clipPath>
    <clipPath id="clip-path-3">
      <rect id="Rectángulo_344841" data-name="Rectángulo 344841" width="280.275" height="148.481" fill="none"/>
    </clipPath>
  </defs>
  <g id="Grupo_998829" data-name="Grupo 998829" clip-path="url(#clip-path)">
    <g id="Grupo_998828" data-name="Grupo 998828" transform="translate(0 0.001)">
      <g id="Grupo_998827" data-name="Grupo 998827" clip-path="url(#clip-path)">
        <path id="Trazado_699528" data-name="Trazado 699528" d="M244.359,1470.156a17.365,17.365,0,0,0-5.7-5.479,14.2,14.2,0,0,0-7.969-1.495l6.475,4.649Z" transform="translate(-163.719 -1038.348)" fill="#577062"/>
        <path id="Trazado_699529" data-name="Trazado 699529" d="M230.282,1355.933a12.449,12.449,0,0,0-4.084-3.927,10.18,10.18,0,0,0-5.713-1.071l4.641,3.332Z" transform="translate(-156.476 -958.702)" fill="#577062"/>
        <path id="Trazado_699530" data-name="Trazado 699530" d="M1769.93,1157.435a13.827,13.827,0,0,0-4.536-4.362,11.308,11.308,0,0,0-6.345-1.19l5.155,3.7Z" transform="translate(-1248.372 -817.434)" fill="#577062"/>
        <path id="Trazado_699531" data-name="Trazado 699531" d="M1676.031,1130.4a15.108,15.108,0,0,1,4.956-4.766,12.355,12.355,0,0,1,6.932-1.3l-5.632,4.044Z" transform="translate(-1189.456 -797.881)" fill="#7e9b8b"/>
        <path id="Trazado_699532" data-name="Trazado 699532" d="M1696.5,1031.052a10.826,10.826,0,0,1,3.552-3.416,8.855,8.855,0,0,1,4.968-.932l-4.037,2.9Z" transform="translate(-1203.985 -728.606)" fill="#7e9b8b"/>
        <path id="Trazado_699533" data-name="Trazado 699533" d="M657.422,1718.5c0,10.485-90.557,18.985-202.265,18.985s-202.265-8.5-202.265-18.985,90.557-18.985,202.265-18.985,202.265,8.5,202.265,18.985" transform="translate(-179.474 -1206.125)" fill="#efefef"/>
        <path id="Trazado_699534" data-name="Trazado 699534" d="M756.527,72.042v30.787H701.238l-7.736,5.138-19.463,12.923L489.21,243.636V102.829h23.037a5.639,5.639,0,0,0,5.641-5.627,5.707,5.707,0,0,0-.092-1.033l-4.437-24.127Z" transform="translate(-347.186 -51.128)" fill="#f6f6f6"/>
        <path id="Trazado_699535" data-name="Trazado 699535" d="M517.888,97.2a5.639,5.639,0,0,1-5.641,5.627H489.21l24.149-30.787L517.8,96.168a5.707,5.707,0,0,1,.092,1.033" transform="translate(-347.186 -51.127)" fill="#e4f2f2"/>
        <path id="Trazado_699536" data-name="Trazado 699536" d="M832.478,36.01V77.257h-5.846V46.47H587.993V36.01Z" transform="translate(-417.291 -25.556)" fill="#f3f9ff"/>
        <path id="Trazado_699537" data-name="Trazado 699537" d="M756.008,178.085V510.3H461.882V324.158l7.934-5.266,56.408-37.461,3.553-2.357,17.772-11.805,3.2-2.123L568.7,253.227l3.2-2.123,17.941-11.919,3.2-2.123,61.609-40.915,19.463-12.924,7.736-5.138Z" transform="translate(-327.791 -126.385)" fill="#f6f6f6"/>
        <path id="Trazado_699538" data-name="Trazado 699538" d="M859.384,0V51.7h-7.113V10.456H615.883V0Z" transform="translate(-437.083 -0.002)" fill="#12263f"/>
        <path id="Trazado_699539" data-name="Trazado 699539" d="M756.008,867.378,461.882,681.239V867.378Z" transform="translate(-327.791 -483.467)" fill="#e8e8e8"/>
        <path id="Trazado_699540" data-name="Trazado 699540" d="M702.327,381.234l-3.2,2.123H615.882v-2.123Z" transform="translate(-437.083 -270.557)" fill="#12263f"/>
        <path id="Trazado_699541" data-name="Trazado 699541" d="M615.883,429.6h65.3l-3.2,2.123H615.883Z" transform="translate(-437.083 -304.883)" fill="#12263f"/>
        <path id="Trazado_699542" data-name="Trazado 699542" d="M660.039,477.969l-3.2,2.123H615.883v-2.123Z" transform="translate(-437.083 -339.208)" fill="#12263f"/>
        <path id="Trazado_699543" data-name="Trazado 699543" d="M639.068,888.947l-3.553,2.357H615.882v-2.357Z" transform="translate(-437.083 -630.874)" fill="#80aaa8"/>
        <rect id="Rectángulo_344839" data-name="Rectángulo 344839" width="55.792" height="2.123" transform="translate(178.799 76.571)" fill="#12263f"/>
        <rect id="Rectángulo_344840" data-name="Rectángulo 344840" width="55.792" height="2.123" transform="translate(178.799 90.614)" fill="#12263f"/>
        <g id="Grupo_998826" data-name="Grupo 998826" transform="translate(142.024 44.026)" opacity="0.15">
          <g id="Grupo_998825" data-name="Grupo 998825">
            <g id="Grupo_998824" data-name="Grupo 998824" clip-path="url(#clip-path-3)">
              <path id="Trazado_699544" data-name="Trazado 699544" d="M769.487,151.654h-75.8L489.211,288.875v11.259L701.238,159.327h68.248Z" transform="translate(-489.211 -151.653)" fill="#335a60"/>
            </g>
          </g>
        </g>
        <path id="Trazado_699545" data-name="Trazado 699545" d="M1423.3,368.782l-7.608,3.079-82.7,33.455s-10.914-5.23-24.042-19.385a154.041,154.041,0,0,1-11.536-20.242c-11.706-24.545-17.156-57.93-19.13-72.913l81.186-24.2s.948,22.91,17.12,49.316A147.747,147.747,0,0,0,1389.12,335.1a272.576,272.576,0,0,0,34.177,33.682" transform="translate(-907.177 -190.607)" fill="#e4f2f2"/>
        <path id="Trazado_699546" data-name="Trazado 699546" d="M570.315,1072.79s-5.457,51.177-24.248,85.786-41.226,47.653-41.226,47.653l-4.855-1.508c8.521-8.231,21.742-23.6,33.569-48.4,13.5-28.3,20.327-66.033,23.235-86.367Z" transform="translate(-354.833 -759.336)" fill="#cce2e1"/>
        <path id="Trazado_699547" data-name="Trazado 699547" d="M60.556,142.787l68.793,31.159s-11.024,37.637-28.417,61.166-34.046,30.434-34.046,30.434L0,226.3S26.493,207.063,41.947,185s18.609-42.211,18.609-42.211" transform="translate(0 -101.335)" fill="#e4f2f2"/>
        <path id="Trazado_699548" data-name="Trazado 699548" d="M1217.836,1114.837s-2.56-.815-2.934-1.935.917-2.173.917-2.173l2.017,1.426Z" transform="translate(-862.151 -788.269)" fill="#cc274e"/>
        <path id="Trazado_699549" data-name="Trazado 699549" d="M1212.105,1156.049c-2.288,4.426-4.693,6.859-6.952,8.09-.122-4.867-1.853-9.083-6.842-11.267,2.7-2.776,6.2-5.343,8.363-8.1,4.484-5.709-1.225-23.231,2.718-23.771s10.593,19.828,2.712,35.044" transform="translate(-850.425 -795.555)" fill="#636363"/>
        <path id="Trazado_699550" data-name="Trazado 699550" d="M1225.551,1107.187s1.858-3.618.635-6.335-8.49-.136-8.014,2.037,2.224,5.136,3.9,5.421a5.326,5.326,0,0,0,3.483-1.123" transform="translate(-864.503 -780.43)" fill="#f73c60"/>
        <path id="Trazado_699551" data-name="Trazado 699551" d="M1105.365,1751.782a8.1,8.1,0,0,1,1.376,6.566c-.943,3.653-22.041-1.079-20.91-3.8s19.534-2.764,19.534-2.764" transform="translate(-770.569 -1243.216)" fill="#132951"/>
        <path id="Trazado_699552" data-name="Trazado 699552" d="M1157.155,1734.911a7.774,7.774,0,0,1,1.32,6.3c-.9,3.5-21.141-1.035-20.057-3.647s18.737-2.651,18.737-2.651" transform="translate(-807.89 -1231.243)" fill="#132951"/>
        <path id="Trazado_699553" data-name="Trazado 699553" d="M1128.285,1430.191s1.915,5.378-2.161,12.537c-10.386,18.243.519,77.318-6.763,77.32-13.525,0-14.436-76.524-9.03-93.627s17.953,3.769,17.953,3.769" transform="translate(-785.795 -1007.533)" fill="#6969f9"/>
        <path id="Trazado_699554" data-name="Trazado 699554" d="M1179.881,1423.548s1.613,5.158-1.821,12.026c-8.749,17.5.438,74.163-5.7,74.165-11.395,0-12.162-73.4-7.607-89.807s15.125,3.616,15.125,3.616" transform="translate(-824.764 -1003.123)" fill="#6969f9"/>
        <path id="Trazado_699555" data-name="Trazado 699555" d="M1120.348,1114.893s2.737-.871,3.136-2.069-.98-2.323-.98-2.323l-2.156,1.524Z" transform="translate(-795.095 -788.108)" fill="#cc274e"/>
        <rect id="Rectángulo_344842" data-name="Rectángulo 344842" width="0.708" height="49.359" transform="translate(59.744 76.073) rotate(-62.723)" fill="#9dc6c5"/>
        <rect id="Rectángulo_344843" data-name="Rectángulo 344843" width="0.708" height="49.42" transform="translate(53.968 84.88) rotate(-62.484)" fill="#9dc6c5"/>
        <rect id="Rectángulo_344844" data-name="Rectángulo 344844" width="0.708" height="49.416" transform="matrix(0.462, -0.887, 0.887, 0.462, 39.341, 104.467)" fill="#9dc6c5"/>
        <rect id="Rectángulo_344845" data-name="Rectángulo 344845" width="0.708" height="49.42" transform="translate(47.407 92.848) rotate(-62.484)" fill="#9dc6c5"/>
        <rect id="Rectángulo_344846" data-name="Rectángulo 344846" width="0.708" height="49.417" transform="translate(33.47 114.6) rotate(-62.497)" fill="#9dc6c5"/>
        <rect id="Rectángulo_344847" data-name="Rectángulo 344847" width="0.708" height="22.667" transform="matrix(0.458, -0.889, 0.889, 0.458, 65.654, 65.903)" fill="#9dc6c5"/>
        <rect id="Rectángulo_344848" data-name="Rectángulo 344848" width="0.708" height="22.667" transform="matrix(0.458, -0.889, 0.889, 0.458, 68.055, 60.686)" fill="#9dc6c5"/>
        <path id="Trazado_699556" data-name="Trazado 699556" d="M1166.889,1186.3a6.928,6.928,0,0,0-1.743,3.211,13.076,13.076,0,0,0,0,5.455s6.475,1.547,7.97-1.818-.268-5.107-.268-5.107l-2.3-2.321-1.916-.348Z" transform="translate(-826.67 -841.244)" fill="#f73c60"/>
        <path id="Trazado_699557" data-name="Trazado 699557" d="M1177.513,1216.034v3.168h4.712l-.786-4.392-2.624-.251Z" transform="translate(-835.665 -861.956)" fill="#f73c60"/>
        <path id="Trazado_699558" data-name="Trazado 699558" d="M1137.3,1264.74c2.759,4.936,3.775,24.828,3.775,24.828s-1.6,3.769-15.925,3.7c-15.46-.076-20.664-6.894-20.664-6.894-1.162-14.229,6.824-15.971,5.372-22.941s-1.643-20.908,0-28.65c1.208-5.68,11.047-8.213,16.2-9.153a16.557,16.557,0,0,1,8.078.459,14.728,14.728,0,0,1,1.44.546c4.989,2.183,6.72,6.4,6.842,11.267.261,10.407-6.812,23.806-5.123,26.838" transform="translate(-783.755 -869.605)" fill="#636363"/>
        <path id="Trazado_699559" data-name="Trazado 699559" d="M1097.857,1106.716s-1.986-3.868-.679-6.771,9.075-.145,8.567,2.178-2.377,5.49-4.165,5.794-3.723-1.2-3.723-1.2" transform="translate(-778.336 -779.729)" fill="#f73c60"/>
        <path id="Trazado_699560" data-name="Trazado 699560" d="M261.275,954.353s-.524,5.563-1.791,14.445c-2.909,20.334-9.739,58.064-23.235,86.367-11.827,24.793-25.047,40.165-33.569,48.4a71.487,71.487,0,0,1-8.988,7.6L81.061,1071.436s34.411-36.852,51.312-74.745,15.754-69.275,15.754-69.275Z" transform="translate(-57.528 -658.175)" fill="#fff"/>
        <rect id="Rectángulo_344849" data-name="Rectángulo 344849" width="0.707" height="76.02" transform="matrix(0.281, -0.96, 0.96, 0.281, 99.579, 321.639)" fill="#80aaa8"/>
        <rect id="Rectángulo_344850" data-name="Rectángulo 344850" width="0.708" height="76.113" transform="matrix(0.285, -0.959, 0.959, 0.285, 93.43, 336.649)" fill="#80aaa8"/>
        <rect id="Rectángulo_344851" data-name="Rectángulo 344851" width="0.708" height="76.108" transform="translate(77.058 370.553) rotate(-73.473)" fill="#80aaa8"/>
        <rect id="Rectángulo_344852" data-name="Rectángulo 344852" width="0.708" height="76.113" transform="translate(85.845 350.62) rotate(-73.459)" fill="#80aaa8"/>
        <rect id="Rectángulo_344853" data-name="Rectángulo 344853" width="0.708" height="76.108" transform="translate(71.151 387.595) rotate(-73.473)" fill="#80aaa8"/>
        <rect id="Rectángulo_344854" data-name="Rectángulo 344854" width="0.707" height="34.91" transform="translate(105.533 304.53) rotate(-73.699)" fill="#80aaa8"/>
        <rect id="Rectángulo_344855" data-name="Rectángulo 344855" width="0.707" height="34.91" transform="matrix(0.281, -0.96, 0.96, 0.281, 107.634, 295.938)" fill="#80aaa8"/>
        <path id="Trazado_699561" data-name="Trazado 699561" d="M160.848,1375.1l20.375,7.186a80.922,80.922,0,0,0,5.446-6.53c2.086-2.92,2.343-4.276,2.343-4.276l-20.023-6.909a35.322,35.322,0,0,1-8.14,10.528" transform="translate(-114.152 -968.42)" fill="#afafaf"/>
        <rect id="Rectángulo_344856" data-name="Rectángulo 344856" width="60.898" height="0.708" transform="translate(395.007 131.219) rotate(-16.34)" fill="#9dc6c5"/>
        <rect id="Rectángulo_344857" data-name="Rectángulo 344857" width="60.973" height="0.708" transform="translate(399.928 143.495) rotate(-16.554)" fill="#9dc6c5"/>
        <rect id="Rectángulo_344858" data-name="Rectángulo 344858" width="60.968" height="0.708" transform="translate(413.045 170.647) rotate(-16.554)" fill="#9dc6c5"/>
        <rect id="Rectángulo_344859" data-name="Rectángulo 344859" width="60.973" height="0.708" transform="translate(406.003 154.687) rotate(-16.554)" fill="#9dc6c5"/>
        <rect id="Rectángulo_344860" data-name="Rectángulo 344860" width="60.968" height="0.708" transform="translate(417.777 184.299) rotate(-16.554)" fill="#9dc6c5"/>
        <rect id="Rectángulo_344861" data-name="Rectángulo 344861" width="27.966" height="0.708" transform="translate(421.843 108.258) rotate(-16.34)" fill="#9dc6c5"/>
        <rect id="Rectángulo_344862" data-name="Rectángulo 344862" width="27.966" height="0.708" transform="translate(420.16 101.375) rotate(-16.34)" fill="#9dc6c5"/>
        <path id="Trazado_699562" data-name="Trazado 699562" d="M1144.54,1261.988s1.613,3.012-1.648,5.7-5.639.774-5.639.774,6.387-2.8,7.287-6.47" transform="translate(-807.093 -895.616)" fill="#bf8a1f"/>
        <path id="Trazado_699563" data-name="Trazado 699563" d="M1653.321,609.2,1637,614.953a64.8,64.8,0,0,1-4.362-5.231,10.548,10.548,0,0,1-1.877-3.425l16.04-5.535a28.292,28.292,0,0,0,6.521,8.434" transform="translate(-1157.328 -426.353)" fill="#2e0877"/>
        <path id="Trazado_699564" data-name="Trazado 699564" d="M1477.8,888.437l-56.925,38.226s-15.068-5.195-31.686-25.033c-.884-1.054-1.755-2.151-2.611-3.277-10.341-13.546-18.515-31.389-22.691-41.432-1.974-4.742-3.057-7.75-3.057-7.75l59.04-31.191s3.864,17.609,18.692,36.258c.588.736,1.189,1.472,1.812,2.2,8.932,10.581,20.6,19.973,28.516,25.8,5.294,3.893,8.911,6.2,8.911,6.2" transform="translate(-965.759 -580.51)" fill="#fff"/>
        <rect id="Rectángulo_344863" data-name="Rectángulo 344863" width="43.645" height="0.531" transform="matrix(0.86, -0.511, 0.511, 0.86, 418.872, 289.788)" fill="#80aaa8"/>
        <rect id="Rectángulo_344864" data-name="Rectángulo 344864" width="43.698" height="0.531" transform="translate(424.505 297.467) rotate(-31.039)" fill="#80aaa8"/>
        <rect id="Rectángulo_344865" data-name="Rectángulo 344865" width="43.695" height="0.531" transform="translate(438.47 313.968) rotate(-31.055)" fill="#80aaa8"/>
        <rect id="Rectángulo_344866" data-name="Rectángulo 344866" width="43.698" height="0.531" transform="translate(430.727 304.152) rotate(-31.055)" fill="#80aaa8"/>
        <rect id="Rectángulo_344867" data-name="Rectángulo 344867" width="43.695" height="0.531" transform="translate(444.197 322.596) rotate(-31.055)" fill="#80aaa8"/>
        <rect id="Rectángulo_344868" data-name="Rectángulo 344868" width="20.043" height="0.531" transform="matrix(0.86, -0.511, 0.511, 0.86, 433.396, 269.068)" fill="#80aaa8"/>
        <rect id="Rectángulo_344869" data-name="Rectángulo 344869" width="20.042" height="0.531" transform="matrix(0.86, -0.511, 0.511, 0.86, 430.998, 264.593)" fill="#80aaa8"/>
        <path id="Trazado_699565" data-name="Trazado 699565" d="M1676.582,1048.042l-10.3,6.915a46.441,46.441,0,0,1-3.963-2.849,7.562,7.562,0,0,1-1.916-2.042l10.142-6.711a20.277,20.277,0,0,0,6.034,4.687" transform="translate(-1178.367 -740.455)" fill="#6969f9"/>
        <rect id="Rectángulo_344870" data-name="Rectángulo 344870" width="31.72" height="18.402" transform="translate(189.503 44.027)" fill="#25ffff"/>
        <path id="Trazado_699566" data-name="Trazado 699566" d="M1177.554,1158.493c-1.3.842-1.012,4.239-5.492,3.864-.042-.007-.092-.007-.135-.014,2.958-.361,2.874-3.022,3.985-3.744,1.444-.942,1.536-2.046,1.054-3.758-.467-1.67-2.13-2-2.081-2.852s2.229-1.224,1.161-2.541c-1.458-1.8-3.532-1.2-4.812-1.876-.764-.411-3.815-6.391-6.292-6.476,2.647-2.973,6.865,5.542,7.8,6.037,1.317.708,3.454.085,4.954,1.939,1.09,1.352-1.153,1.727-1.2,2.612s1.663,1.217,2.152,2.937c.5,1.755.4,2.9-1.09,3.871" transform="translate(-826.743 -809.375)" fill="#cad4e0"/>
        <path id="Trazado_699567" data-name="Trazado 699567" d="M1170.91,1160.135c-1.111.722-1.026,3.383-3.984,3.744-3.213-.347-.538-3.227-1.387-4.084-.389-.4-.87-.078-1.3.361-.524.538-.991,1.26-1.161,1.1-.213-.184-.34-.311-.255-.984a13.829,13.829,0,0,1,.29-1.394c.489-1.96-.481-1.96-3.6-4.544s-.764-9.095-.764-9.095a6.427,6.427,0,0,1,1.2-2.612c2.477.085,5.528,6.066,6.292,6.476,1.281.679,3.355.071,4.813,1.875,1.069,1.317-1.118,1.677-1.161,2.541s1.614,1.182,2.081,2.852c.481,1.713.389,2.817-1.054,3.758" transform="translate(-821.741 -810.911)" fill="#132951"/>
        <path id="Trazado_699568" data-name="Trazado 699568" d="M1107.224,1161.3a5.74,5.74,0,0,1-3.94,7.019c-3.64,1.123-9.406.678-14.617-9.384-8.421-16.262-1.307-38.041,2.9-37.46s-1.888,19.311,2.9,25.409c3.725,4.741,11.135,8.955,12.749,14.416" transform="translate(-769.825 -795.889)" fill="#636363"/>
        <path id="Trazado_699569" data-name="Trazado 699569" d="M1163.727,1356.312a69.391,69.391,0,0,1,8.6-1.1,12.927,12.927,0,0,1,5.725,1.1Z" transform="translate(-825.881 -961.775)" fill="#bf8a1f"/>
        <path id="Trazado_699570" data-name="Trazado 699570" d="M1182.788,1370.681a35.586,35.586,0,0,0,6.534-2.541,8.969,8.969,0,0,0,2.831-2.323Z" transform="translate(-839.408 -969.302)" fill="#bf8a1f"/>
        <path id="Trazado_699571" data-name="Trazado 699571" d="M1104.369,1207.173a3.487,3.487,0,0,1,3.5-1.105Z" transform="translate(-783.755 -855.886)" fill="#bf8a1f"/>
        <path id="Trazado_699572" data-name="Trazado 699572" d="M1283.755,445.084a137.168,137.168,0,0,1-14.332-18.458c-18.4-28.268-26.64-71.624-26.64-71.624l10.3-3.072c1.974,14.983,7.424,48.368,19.13,72.913a154.042,154.042,0,0,0,11.536,20.242" transform="translate(-881.986 -249.76)" fill="#cce2e1"/>
        <path id="Trazado_699573" data-name="Trazado 699573" d="M1380.327,993.544c-16.016-15.124-28.3-37.568-28.3-37.568l5.613-3.864c4.176,10.043,12.35,27.885,22.69,41.432" transform="translate(-959.513 -675.701)" fill="#cce2e1"/>
        <path id="Trazado_699574" data-name="Trazado 699574" d="M701.775,1747.494a10.948,10.948,0,0,0-1.7,4.867c0,2.251.852,4.228,4.228,4.228s17-5.566,16.7-7.27-12.368-3.155-12.368-3.155l-5.334-1.1Z" transform="translate(-496.831 -1238.446)" fill="#6969f9"/>
        <path id="Trazado_699575" data-name="Trazado 699575" d="M647.871,1734.038a10.948,10.948,0,0,0-1.7,4.867c0,2.251.852,4.228,4.228,4.228s17-5.566,16.7-7.27-12.368-3.155-12.368-3.155l-5.335-1.1Z" transform="translate(-458.576 -1228.897)" fill="#6969f9"/>
        <path id="Trazado_699576" data-name="Trazado 699576" d="M664.365,1407.388a122.674,122.674,0,0,0,6.594,20.177c4.38,10.038,5.292,20.623,4.2,31.208s-1.825,20.075-.913,28.653a102.835,102.835,0,0,0,2.19,13.505,7.365,7.365,0,0,0,3.589,1.278,3.711,3.711,0,0,0,2.95-1.065s8.3-39.512,7.817-61.655-2.1-33.776-2.1-33.776l-12.259-8.078Z" transform="translate(-471.491 -991.882)" fill="#132951"/>
        <path id="Trazado_699577" data-name="Trazado 699577" d="M621.559,1391.26s-1.094,12.813,3.286,22.85,5.292,20.622,4.2,31.208-1.825,20.075-.913,28.653a102.83,102.83,0,0,0,2.19,13.505,7.363,7.363,0,0,0,3.589,1.277,3.71,3.71,0,0,0,2.95-1.065s8.3-39.511,7.817-61.655-2.1-33.775-2.1-33.775l-12.259-8.078Z" transform="translate(-441.026 -982.334)" fill="#132951"/>
        <path id="Trazado_699578" data-name="Trazado 699578" d="M823.874,1169.031s.857-4.354,2.013-5.693,2.8-3.346,3.468-2.859-1.156,2.555-.73,2.92,3.954.973,3.528,3.163a11.66,11.66,0,0,1-1.521,3.831l-4.38.366Z" transform="translate(-584.692 -823.524)" fill="#f73c60"/>
        <path id="Trazado_699579" data-name="Trazado 699579" d="M698.588,1172.431a16.076,16.076,0,0,1,2.048,5.461,28.87,28.87,0,0,1-.315,7.509,9.265,9.265,0,0,1-5.3-1.838,16.54,16.54,0,0,1-3.361-3.781l-.368-2.363,1.628-3.2,1.575-1.418Z" transform="translate(-490.598 -832.059)" fill="#f73c60"/>
        <path id="Trazado_699580" data-name="Trazado 699580" d="M695.347,1209.578a5.942,5.942,0,0,0-.362,1.9c-.026,1.076,0,4.989,0,4.989l-6.459-.131-.131-5.278,1-2.153,2.888-1.232,2.809-.422Z" transform="translate(-488.544 -856.77)" fill="#f73c60"/>
        <path id="Trazado_699581" data-name="Trazado 699581" d="M598.853,1253.54s-12.431,12.436-12.613,18.256,1.643,13.484,11.133,17.865,13.14-12.958,12.958-13.687-11.477-22.433-11.477-22.433" transform="translate(-416.038 -889.621)" fill="#c9c9c9"/>
        <path id="Trazado_699582" data-name="Trazado 699582" d="M680.147,1195.242c.821.365,1.088,1.084-.077,1.84-1.216.792-1.259.161-1.464.945,0,0,0,.007,0,.011-2.825,11.815-9.14,34.672-15.549,34.131-8.639-.73-11.074-8.64-11.074-8.64a42.189,42.189,0,0,1-.029,9.49,17.1,17.1,0,0,0,2.1,12.045c2.373,4.2.456,12.41.456,12.41s-12.866,8.64-27.222,4.866-15.454-8.881-15.454-8.881a38.881,38.881,0,0,1,2.8-11.315c1.347-3.164.869-8.074.318-13.447-.051-.482-.1-.967-.15-1.456a64.1,64.1,0,0,1-.412-11.79c1.34-15.038,21.422-15.5,21.422-15.5s10.578.095,16.783,3.865a35.442,35.442,0,0,1,9.611,8.516,171.223,171.223,0,0,1,7.847-15.622q.515-.838.986-1.555a0,0,0,0,1,0,0c.628-.985-.2-1.693.577-2.1s.139-1.095.46-2.329a1,1,0,0,1,.478-.595v0a3.058,3.058,0,0,1,1.036-.365,5.438,5.438,0,0,1,2.629.178l3.93,1.227a2.581,2.581,0,0,1,.883,1.457,2.154,2.154,0,0,1,.029.657c-.139,1.325-1.734,1.6-.912,1.964" transform="translate(-434.207 -844.295)" fill="#fff"/>
        <path id="Trazado_699583" data-name="Trazado 699583" d="M680.045,1119.874c-6.063-1.343-8.957,8.789-7.526,12.06.949,2.172-3.573.789-5.1,5.041a6.829,6.829,0,0,0,.788,5.632s-.982,3.325,1.365,5.281c-4.895-1.376-3.435-6.314-3.435-6.314a6.833,6.833,0,0,1-.788-5.632c1.526-4.256,6.044-2.873,5.1-5.041-1.471-3.361,1.628-13.969,8.034-11.921a4.127,4.127,0,0,1,1.562.894" transform="translate(-471.963 -793.94)" fill="#cad4e0"/>
        <path id="Trazado_699584" data-name="Trazado 699584" d="M685.013,1136.837s-.38,1.982-1.876,2.3-1.931,1.617-1.577,2.285,1.445.931,1.668,1.905-.022,1.836-.766,1.128-1.65-.946-1.927-.2-.117,2.048,1.142,2.007.785,4.752-4.8,4.489a9.926,9.926,0,0,1-2.237-.339c-2.347-1.956-1.365-5.282-1.365-5.282a6.829,6.829,0,0,1-.789-5.632c1.522-4.253,6.044-2.869,5.1-5.041-1.431-3.271,1.464-13.4,7.526-12.06,3.931,3.614-.091,14.439-.091,14.439" transform="translate(-477.022 -796.464)" fill="#132951"/>
        <path id="Trazado_699585" data-name="Trazado 699585" d="M788.479,1273.187a15.787,15.787,0,0,1,2.312,4.684,19.066,19.066,0,0,1,.547,5.108Z" transform="translate(-559.573 -903.564)" fill="#c9c9c9"/>
        <path id="Trazado_699586" data-name="Trazado 699586" d="M817.837,1204.456s-.091.8.981,1.369a10.584,10.584,0,0,0,3.627.547Z" transform="translate(-580.406 -854.786)" fill="#c9c9c9"/>
        <path id="Trazado_699587" data-name="Trazado 699587" d="M820.98,1195.183s-.091.8.981,1.369a10.581,10.581,0,0,0,3.627.548Z" transform="translate(-582.637 -848.205)" fill="#c9c9c9"/>
        <path id="Trazado_699588" data-name="Trazado 699588" d="M720.068,1343.406a15.985,15.985,0,0,1-3.407,4.5c-2.311,2.129-6.749,2.311-6.749,2.311Z" transform="translate(-503.815 -953.397)" fill="#c9c9c9"/>
        <path id="Trazado_699589" data-name="Trazado 699589" d="M655.639,1449.78s-.345,2.3,1.685,6.724a21.9,21.9,0,0,0,4.331,6.547Z" transform="translate(-465.282 -1028.889)" fill="#0b1a30"/>
        <path id="Trazado_699590" data-name="Trazado 699590" d="M1170.339,1469.893a22.693,22.693,0,0,1-3.158,7.432,15.817,15.817,0,0,1-4.227,4.476Z" transform="translate(-825.332 -1043.163)" fill="#5252d8"/>
      </g>
    </g>
  </g>
</svg>
