<svg xmlns="http://www.w3.org/2000/svg" width="451.826" height="319.416" viewBox="0 0 451.826 319.416">
  <g id="Grupo_999302" data-name="Grupo 999302" transform="translate(-180 -1035.389)">
    <rect id="BG" width="451.826" height="319.416" transform="translate(180 1035.389)" fill="#efefef"/>
    <g id="Grupo_83386" data-name="Grupo 83386" transform="translate(42.434 760.926)">
      <path id="Trazado_100113" data-name="Trazado 100113" d="M412.066,426.347a120.848,120.848,0,0,1-196.075,96.6c-2.034-1.634-4.005-3.313-5.935-5.075l-.022-.022a120.47,120.47,0,0,1-31.94-46.909v-.02a120.97,120.97,0,0,1,15.421-113.624,115.657,115.657,0,0,1,7.845-9.7A120.556,120.556,0,0,1,267.9,309.772c2.084-.417,4.19-.768,6.3-1.056,2-.287,4.005-.512,6.03-.693,1.517-.152,3.057-.263,4.6-.331,1.456-.088,2.914-.132,4.391-.156A120.849,120.849,0,0,1,412.066,426.347Z" transform="translate(0 5.529)" fill="#dee4f0"/>
      <g id="Grupo_83376" data-name="Grupo 83376" transform="translate(236.446 302.932)">
        <path id="Trazado_100114" data-name="Trazado 100114" d="M202.126,359.245l29.2-52.58a5.026,5.026,0,0,1,8.705-.146L270.967,358.1a5.027,5.027,0,0,1-4.228,7.611l-60.134,1.006A5.028,5.028,0,0,1,202.126,359.245Z" transform="translate(-198.954 -301.549)" fill="#ccf8ff"/>
        <path id="Trazado_100115" data-name="Trazado 100115" d="M268.165,369.616l-60.133,1.006A7.555,7.555,0,0,1,201.3,359.4l29.2-52.582a7.554,7.554,0,0,1,13.083-.218l30.939,51.576a7.555,7.555,0,0,1-6.354,11.44Zm-31.1-61.629a2.461,2.461,0,0,0-2.144,1.286l-29.2,52.582a2.5,2.5,0,0,0,2.225,3.712l60.136-1.006a2.5,2.5,0,0,0,2.1-3.785L239.246,309.2A2.459,2.459,0,0,0,237.06,307.988Z" transform="translate(-200.338 -302.932)" fill="#12263f"/>
        <path id="Trazado_100116" data-name="Trazado 100116" d="M218.237,312.777l-4.05,14.966,3.314-.329-3.453,9.943,3.951-.93-3.966,15.487,14.119-20.734-5.239,1.077,4.31-9.332-4.628,1.1,5.618-12.428Z" transform="translate(-183.829 -292.48)" fill="#ad84ff"/>
      </g>
      <g id="Grupo_83377" data-name="Grupo 83377" transform="translate(323.511 380.319)">
        <path id="Trazado_100117" data-name="Trazado 100117" d="M332.846,445.424H239.814V338.02h106.77v93.814Z" transform="translate(-239.814 -338.02)" fill="#fff" fill-rule="evenodd"/>
        <path id="Trazado_100118" data-name="Trazado 100118" d="M313.142,384.457v2.069h17.3v-2.069h-7.616V351.647H286.281a10.909,10.909,0,0,0-21.72,0H249.639v7.47h-3.86v22.549h3.86v13.024h-3.86V417.24h3.86v7.6h19.386v6.094h2.069v-5.337l12.347,7.126v-7.883h39.384V391.464h7.616V389.4h-17.3v2.069h7.616v31.3H300.315v-25.1a12.7,12.7,0,0,0,0-18.848v-25.1h20.443v30.741Zm-30.787-26.3-5.472-5.474,5.472-5.474a8.8,8.8,0,0,1,0,10.948Zm-1.462,1.46a8.793,8.793,0,0,1-10.944,0l5.472-5.472Zm0-13.868-5.472,5.472-5.472-5.472a8.793,8.793,0,0,1,10.944,0Zm-12.406,1.46,5.472,5.474-5.472,5.474a8.792,8.792,0,0,1,0-10.948Zm-20.639,13.976H253.5V379.6h-5.651Zm0,35.573H253.5v18.414h-5.651Zm33.524,26.01h-7.455l7.455-4.3Zm0,6.372-7.455-4.3h7.455Zm16.877-6.372H283.44v-7.885l-12.347,7.128v-5.337h-2.069v6.094h-17.32V417.24h3.862V394.691h-3.862v-5.7h27.322a12.719,12.719,0,0,0,19.221,10.2Zm-9.592-39.3v-3.776H286.59v7.236h-5.445a10.67,10.67,0,0,1,16.418-7.644l-5.8,2.4.013-1.372Zm-2.067,5.527v7.236h2.067v-2.715l8.9,3.685a10.666,10.666,0,0,1-16.466-8.207Zm15.847-.752a10.648,10.648,0,0,1-3.059,7.472l-10.721-4.435v-6.758l4.876.035-.979-.964,6.824-2.823A10.648,10.648,0,0,1,302.437,388.242Zm-4.188-10.957a12.728,12.728,0,0,0-19.192,9.642H251.705v-5.26h3.862V359.118h-3.862v-5.4h12.856a10.909,10.909,0,0,0,21.72,0h11.967Z" transform="translate(-232.623 -333.5)" fill="#12263f"/>
        <path id="Trazado_100119" data-name="Trazado 100119" d="M282,380.555h13.738L282,394.146Z" transform="translate(-188.963 -286.742)" fill="#fff"/>
      </g>
      <path id="Trazado_100120" data-name="Trazado 100120" d="M196.821,428.535,228.3,376.69a13.9,13.9,0,0,1,19.062-4.8l.24.143a13.9,13.9,0,0,1,4.8,19.062l-34.552,56.752Z" transform="translate(31.869 80.755)" fill="#265d99"/>
      <path id="Trazado_100121" data-name="Trazado 100121" d="M339.028,444.154a13.822,13.822,0,0,0-2.6-7.393l-31.885-53.978a18.141,18.141,0,0,0-8.9-7.642l-27.551-11.025c0,4.762-6.833,7.128-13.626,7.1-6.793.029-13.626-2.34-13.626-7.1l-23.983,9.6v89.242h79.33l2.164-35.582.507,3.608v28.081h26.307c.082,0,.163-.013.245-.013s-9.177,3.908-9.1,3.906c19.532-.373,22.353-9.876,22.715-17C339.033,445.819,339.039,444.311,339.028,444.154Z" transform="translate(56.024 73.759)" fill="#265d99"/>
      <path id="Trazado_100122" data-name="Trazado 100122" d="M215.177,462.955h30.758V364.116l-33.3,13.32Z" transform="translate(50.93 73.759)" fill="#12263f"/>
      <path id="Trazado_100123" data-name="Trazado 100123" d="M271.105,462.955H240.348V364.116l33.3,13.32Z" transform="translate(84.341 73.759)" fill="#12263f"/>
      <path id="Trazado_100124" data-name="Trazado 100124" d="M227.838,368.256h0v-7.574c2.7,3.125,5.046,4.477,8.937,4.956a36.068,36.068,0,0,0,4.495.229h.154a36.043,36.043,0,0,0,4.495-.229c3.891-.478,6.237-1.831,8.937-4.956v7.574C254.856,377.722,227.838,377.722,227.838,368.256Z" transform="translate(69.26 69.619)" fill="#f2c28d"/>
      <path id="Trazado_100125" data-name="Trazado 100125" d="M234.027,363.03h0Z" transform="translate(76.58 72.45)" fill="#ffd2a1"/>
      <path id="Trazado_100126" data-name="Trazado 100126" d="M248.043,329.342A23.248,23.248,0,0,0,224.805,352.6v9.1a4.059,4.059,0,0,0-.84-.344c-.051-.018-.1-.018-.137-.033a3.433,3.433,0,0,0-1.03-.035c-1.389.223-2.472,1.46-3.09,3.26a13.431,13.431,0,0,0-.41,6.471c.651,4,2.642,7.122,4.821,7.947a2.929,2.929,0,0,0,1.562.19c.154-.035.309-.1.463-.139,1.2,5.681,2.8,10.178,4.841,13.163a99,99,0,0,0,6.023,8.255,16.242,16.242,0,0,0,4.393,3.794,14.186,14.186,0,0,0,5.37,1.612,37.347,37.347,0,0,0,4.874.258h.512a37.348,37.348,0,0,0,4.874-.258,14.174,14.174,0,0,0,5.37-1.612,16.209,16.209,0,0,0,4.393-3.794,99.447,99.447,0,0,0,6.025-8.255c2.04-2.984,3.637-7.481,4.839-13.163.154.035.309.1.463.139a2.929,2.929,0,0,0,1.562-.19c2.179-.825,4.171-3.948,4.823-7.947a13.429,13.429,0,0,0-.412-6.471c-.617-1.8-1.7-3.037-3.09-3.26a3.436,3.436,0,0,0-1.03.035c-.033.015-.086.015-.137.033a4.06,4.06,0,0,0-.84.344v-9.1a23.248,23.248,0,0,0-23.237-23.255Z" transform="translate(58.716 31.838)" fill="#ffd2a1"/>
      <path id="Trazado_100127" data-name="Trazado 100127" d="M262.111,338.74c5.39,0,9.766,7.594,9.766,13l-.139,17.452h3.571l.567-7.739V352.6a23.248,23.248,0,0,0-23.237-23.255h-7.719A23.248,23.248,0,0,0,221.682,352.6v8.855l.567,7.739h3.571l-.139-17.452c0-5.406,4.378-13,9.766-13C244.622,345.374,253.53,345.833,262.111,338.74Z" transform="translate(61.839 31.838)" fill="#3c3c3b"/>
      <g id="Grupo_83378" data-name="Grupo 83378" transform="translate(276.62 343.424)">
        <path id="Trazado_100128" data-name="Trazado 100128" d="M281.648,362.257v-9.285a3.764,3.764,0,0,0-.018-.446,30.9,30.9,0,0,0-8.169-20.544,32.823,32.823,0,0,0-2.832-2.728,30.98,30.98,0,0,0-10.176-5.715,26.467,26.467,0,0,0-2.832-.807,29.456,29.456,0,0,0-13.679,0,26.472,26.472,0,0,0-2.832.807,30.99,30.99,0,0,0-10.178,5.715,33.143,33.143,0,0,0-2.832,2.728,30.912,30.912,0,0,0-8.167,20.544,3.764,3.764,0,0,0-.018.446v9.285Z" transform="translate(-216.911 -320.524)" fill="#12263f"/>
        <path id="Trazado_100129" data-name="Trazado 100129" d="M286.293,339.378v2.914h-6.2a5.492,5.492,0,0,0-2.719.719L272.3,345.9a16.753,16.753,0,0,1-8.277,2.186H240.827a16.753,16.753,0,0,1-8.277-2.186l-5.079-2.887a5.5,5.5,0,0,0-2.719-.719h-6.2v-2.914Z" transform="translate(-218.553 -299.487)" fill="#12263f"/>
        <path id="Trazado_100130" data-name="Trazado 100130" d="M240.317,335.8h6.043a1.556,1.556,0,0,1,1.555,1.555v6.33h-9.153v-6.33A1.556,1.556,0,0,1,240.317,335.8Z" transform="translate(-194.191 -303.796)" fill="#d2e1f1"/>
        <path id="Trazado_100131" data-name="Trazado 100131" d="M232.506,335.8h-6.043a1.554,1.554,0,0,0-1.555,1.555v6.33h9.153v-6.33A1.556,1.556,0,0,0,232.506,335.8Z" transform="translate(-210.892 -303.796)" fill="#d2e1f1"/>
        <path id="Trazado_100132" data-name="Trazado 100132" d="M247.9,335.8a3.756,3.756,0,0,1,.018.446v7.448h2.078v-6.332a1.568,1.568,0,0,0-1.564-1.561Z" transform="translate(-183.178 -303.799)" fill="#b0c0d2"/>
        <path id="Trazado_100133" data-name="Trazado 100133" d="M221.068,335.8a3.756,3.756,0,0,0-.018.446v7.448h-2.078v-6.332a1.567,1.567,0,0,1,1.561-1.561Z" transform="translate(-218.047 -303.799)" fill="#b0c0d2"/>
        <path id="Trazado_100134" data-name="Trazado 100134" d="M244.488,342v-18.78a1.931,1.931,0,0,0-1.93-1.93h-9.819a1.929,1.929,0,0,0-1.93,1.93V342Z" transform="translate(-203.778 -321.291)" fill="#b0c0d2"/>
        <path id="Trazado_100135" data-name="Trazado 100135" d="M239.821,322.127a1.13,1.13,0,0,0-1.526,1.059v17.893h10.176v-12.8a2.6,2.6,0,0,0-1.076-2.1A32.384,32.384,0,0,0,239.821,322.127Z" transform="translate(-194.754 -320.369)" fill="#b0c0d2"/>
        <path id="Trazado_100136" data-name="Trazado 100136" d="M233.562,322.127a1.131,1.131,0,0,1,1.526,1.059v17.893H224.91v-12.8a2.6,2.6,0,0,1,1.079-2.1A32.383,32.383,0,0,1,233.562,322.127Z" transform="translate(-210.889 -320.369)" fill="#b0c0d2"/>
        <path id="Trazado_100137" data-name="Trazado 100137" d="M237.011,322.292v17.1a1.4,1.4,0,0,0,1.4,1.4h.029a1.4,1.4,0,0,0,1.4-1.4V323.1A26.458,26.458,0,0,0,237.011,322.292Z" transform="translate(-196.302 -320.084)" fill="#12263f"/>
        <path id="Trazado_100138" data-name="Trazado 100138" d="M232.357,322.292v17.1a1.4,1.4,0,0,1-1.4,1.4h-.029a1.4,1.4,0,0,1-1.4-1.4V323.1A26.465,26.465,0,0,1,232.357,322.292Z" transform="translate(-205.326 -320.084)" fill="#12263f"/>
        <path id="Trazado_100139" data-name="Trazado 100139" d="M242.909,325.249v10.578a1.4,1.4,0,0,0,1.4,1.4h.029a1.4,1.4,0,0,0,1.4-1.4v-7.85A32.841,32.841,0,0,0,242.909,325.249Z" transform="translate(-189.191 -316.52)" fill="#12263f"/>
        <path id="Trazado_100140" data-name="Trazado 100140" d="M226.458,325.249v10.578a1.4,1.4,0,0,1-1.4,1.4h-.029a1.4,1.4,0,0,1-1.4-1.4v-7.85A33.162,33.162,0,0,1,226.458,325.249Z" transform="translate(-212.437 -316.52)" fill="#12263f"/>
      </g>
      <path id="Trazado_100141" data-name="Trazado 100141" d="M268.588,407.2l.026-.079a3.934,3.934,0,0,0-2.929-4.987,123.053,123.053,0,0,1-24.488-9.973,4.2,4.2,0,0,0-5.551,1.562l-.042.071a3.912,3.912,0,0,0,1.584,5.507,130.939,130.939,0,0,0,25.617,10.617A4.744,4.744,0,0,0,268.588,407.2Z" transform="translate(77.945 106.988)" fill="#c1bea2" fill-rule="evenodd"/>
      <rect id="Rectángulo_31761" data-name="Rectángulo 31761" width="7.212" height="20.848" transform="translate(347.655 512.033)" fill="#e0ddbc"/>
      <path id="Trazado_100142" data-name="Trazado 100142" d="M252.4,396.2h24.461a13.9,13.9,0,0,1,13.9,13.9v.28a13.9,13.9,0,0,1-13.9,13.9H252.4Z" transform="translate(98.876 112.436)" fill="#265d99"/>
      <path id="Trazado_100143" data-name="Trazado 100143" d="M254.7,397.83l21.588.086a1.52,1.52,0,0,0,1.52-1.522v-.1a1.52,1.52,0,0,0-1.52-1.52H254.733Z" transform="translate(101.641 110.719)" fill="#265d99"/>
      <path id="Trazado_100144" data-name="Trazado 100144" d="M249.1,367.715c.024.044.048.095.073.139v-.192Z" transform="translate(94.895 78.034)" fill="#3c3c3b"/>
      <g id="Grupo_83379" data-name="Grupo 83379" transform="translate(304.032 467.697)">
        <path id="Trazado_100145" data-name="Trazado 100145" d="M242.335,399.937c0,.642-1.321,1.162-2.951,1.162s-2.949-.521-2.949-1.162,1.319-1.162,2.949-1.162S242.335,399.3,242.335,399.937Z" transform="translate(-224.407 -352.156)" fill="#3c3c3b"/>
        <rect id="Rectángulo_31762" data-name="Rectángulo 31762" width="14.242" height="10.98" transform="translate(7.856 35.086)" fill="#3c3c3b"/>
        <path id="Trazado_100146" data-name="Trazado 100146" d="M260.936,393.263c0-9.228-7.669-16.588-16.718-15.522a15.3,15.3,0,0,0-13.032,12.9,16.05,16.05,0,0,0,4.232,13.718,11.761,11.761,0,0,1,3.421,8.149v.212H253.08v-.139a11.709,11.709,0,0,1,3.366-8.167A15.912,15.912,0,0,0,260.936,393.263Z" transform="translate(-230.982 -377.637)" fill="#d2e1f1"/>
        <path id="Trazado_100147" data-name="Trazado 100147" d="M244.615,400.284h-5.9l-4.171-1.76h14.242Z" transform="translate(-226.687 -352.458)" fill="#9d9d9c"/>
        <path id="Trazado_100148" data-name="Trazado 100148" d="M237.021,384.06c.794,0,1.171.668,1.5,1.259.34.606.58.975,1.015.975s.671-.368,1.012-.975c.331-.591.708-1.259,1.5-1.259s1.169.668,1.5,1.259c.342.606.58.975,1.012.975s.67-.368,1.012-.975c.333-.591.708-1.259,1.5-1.259s1.167.668,1.5,1.259c.34.606.578.975,1.01.975a.279.279,0,1,1,0,.558c-.792,0-1.167-.67-1.5-1.259-.34-.607-.578-.975-1.012-.975s-.67.368-1.012.975c-.331.591-.708,1.259-1.5,1.259s-1.167-.668-1.5-1.259c-.342-.607-.58-.975-1.015-.975s-.671.368-1.012.975c-.333.591-.708,1.259-1.5,1.259s-1.169-.67-1.5-1.259c-.342-.607-.58-.975-1.017-.975s-.673.368-1.015.975c-.331.589-.708,1.259-1.5,1.259a.279.279,0,0,1,0-.558c.437,0,.675-.368,1.017-.977C235.855,384.728,236.23,384.06,237.021,384.06Z" transform="translate(-227.069 -369.895)" fill="#fff"/>
        <path id="Trazado_100149" data-name="Trazado 100149" d="M239.522,389.217h-1.048a1.577,1.577,0,0,0-1.718,1.381v8.167h4.482V390.6A1.575,1.575,0,0,0,239.522,389.217Z" transform="translate(-224.02 -363.678)" fill="#f6f6f6"/>
        <path id="Trazado_100150" data-name="Trazado 100150" d="M240.858,395.638a.371.371,0,0,1-.309-.168L234.12,385.6a.369.369,0,1,1,.618-.4l6.429,9.867a.369.369,0,0,1-.108.512A.372.372,0,0,1,240.858,395.638Z" transform="translate(-227.271 -368.723)" fill="#3c3c3b"/>
        <path id="Trazado_100151" data-name="Trazado 100151" d="M238.6,395.638a.373.373,0,0,1-.2-.06.368.368,0,0,1-.106-.512l6.429-9.867a.372.372,0,0,1,.509-.108.368.368,0,0,1,.106.512l-6.429,9.868A.368.368,0,0,1,238.6,395.638Z" transform="translate(-222.237 -368.722)" fill="#3c3c3b"/>
      </g>
      <rect id="Rectángulo_31763" data-name="Rectángulo 31763" width="20.489" height="7.556" rx="1.696" transform="translate(308.05 508.255)" fill="#c1bea2"/>
      <rect id="Rectángulo_31764" data-name="Rectángulo 31764" width="21.413" height="7.555" rx="1.696" transform="translate(307.125 515.811)" fill="#c1bea2"/>
      <rect id="Rectángulo_31765" data-name="Rectángulo 31765" width="19.16" height="7.555" rx="1.696" transform="translate(309.379 523.366)" fill="#c1bea2"/>
      <path id="Trazado_100152" data-name="Trazado 100152" d="M262.928,414.4V407.03a11,11,0,0,0-11.006-11h-9V425.4h9A11,11,0,0,0,262.928,414.4Z" transform="translate(87.447 112.228)" fill="#e0ddbc" fill-rule="evenodd"/>
      <g id="Grupo_83382" data-name="Grupo 83382" transform="translate(182.491 376.053)">
        <path id="Trazado_100153" data-name="Trazado 100153" d="M206.591,381.8l-3.381-5.761-3.361-.935-1.954-.97c-4.173-2.144-12.673-3.657-20.269-8.485-.007,4.318.494,8.617.829,12.986.454,5.92-1.356,7.344-.569,13.224,2.916,4.691,6,13.476,14.193,12.88.207.4,4.444,6.965,4.444,6.965l10.428,1.05.353-.035,3.041-12.258-1.811-4.905Z" transform="translate(-173.762 -300.451)" fill="#c1bea2" fill-rule="evenodd"/>
        <g id="Grupo_83380" data-name="Grupo 83380" transform="translate(8.187)">
          <rect id="Rectángulo_31766" data-name="Rectángulo 31766" width="4.387" height="75.914" transform="translate(1.808 7.677) rotate(-1.95)" fill="#c6c6c6"/>
          <path id="Trazado_100154" data-name="Trazado 100154" d="M181.119,336.235l-1.533,6.623,1.977,6.216,4.408-.15,1.55-6.336-1.993-6.5Z" transform="translate(-179.586 -336.085)" fill="#dadada"/>
          <path id="Trazado_100155" data-name="Trazado 100155" d="M187.521,339.034c-2.638,2.051-5.282,2.353-7.935.269l1.976,6.217a3.074,3.074,0,0,0,4.409-.152Z" transform="translate(-179.586 -332.531)" fill="#c6c6c6"/>
        </g>
        <path id="Trazado_100156" data-name="Trazado 100156" d="M191.8,378.434l-11.694.4.066,1.91c.1,3.068,11.8,2.671,11.691-.4Z" transform="translate(-170.771 -285.034)" fill="#12263f"/>
        <path id="Trazado_100157" data-name="Trazado 100157" d="M190.036,359.7l-9.579.326-.931,3.737,11.692-.4Z" transform="translate(-171.471 -307.624)" fill="#12263f"/>
        <path id="Trazado_100158" data-name="Trazado 100158" d="M191.333,361.142l-11.111.377a1.079,1.079,0,0,1-1.118-1.043v-.022a1.079,1.079,0,0,1,1.043-1.118l11.111-.377A1.079,1.079,0,0,1,192.376,360v.022A1.079,1.079,0,0,1,191.333,361.142Z" transform="translate(-171.982 -308.513)" fill="#12263f"/>
        <g id="Grupo_83381" data-name="Grupo 83381" transform="translate(7.816 55.737)">
          <path id="Trazado_100159" data-name="Trazado 100159" d="M192.631,399.021l-11.694.4a240.316,240.316,0,0,1-1.281-37.664l11.694-.4A240.321,240.321,0,0,1,192.631,399.021Z" transform="translate(-179.418 -361.357)" fill="#dee4f0"/>
          <path id="Trazado_100160" data-name="Trazado 100160" d="M185.106,395.106a1.159,1.159,0,0,1-1.127,1.162h0a1.155,1.155,0,0,1-1.2-1.083c-.494-10.534-.856-21.107-1.083-31.649a1.16,1.16,0,0,1,1.129-1.162h0a1.158,1.158,0,0,1,1.206,1.083C184.524,373.99,184.881,384.563,185.106,395.106Z" transform="translate(-176.672 -360.133)" fill="#12263f"/>
          <path id="Trazado_100161" data-name="Trazado 100161" d="M186.7,395.044c-.018.622-.4,1.138-.849,1.153h0c-.45.015-.807-.476-.805-1.1.09-10.553-.267-21.127-1.063-31.651-.046-.62.282-1.134.732-1.149h0c.452-.013.867.474.926,1.094A264.564,264.564,0,0,1,186.7,395.044Z" transform="translate(-173.926 -360.219)" fill="#12263f"/>
          <path id="Trazado_100162" data-name="Trazado 100162" d="M182.59,395.188c.046.618-.28,1.134-.73,1.149h0c-.45.015-.862-.474-.922-1.094a273.147,273.147,0,0,1-1.1-31.649c.015-.62.4-1.136.847-1.151h0c.452-.015.814.474.812,1.1C181.441,374.092,181.8,384.663,182.59,395.188Z" transform="translate(-178.997 -360.049)" fill="#12263f"/>
        </g>
        <path id="Trazado_100163" data-name="Trazado 100163" d="M204.17,402.624c-.981-1.458-2.23-3.436-2.225-3.469,2.007-7.238-2.861-15.7-3.549-16.654l-2.166-3a23.812,23.812,0,0,1-2.106-4.859c-.915-3.092-1.939-6.145-2.708-9.281a3.755,3.755,0,0,0-4.374-2.8l-.073.022a3.51,3.51,0,0,0-2.514,2.12,3.828,3.828,0,0,0-.174,2.419c.287,1.158.589,2.3.9,3.456q.956,3.417,2.12,6.78c.291.862.6,1.714.911,2.567.046.132.1.28.148.412a.011.011,0,0,1,.009.013.545.545,0,0,1,.038.121,2.144,2.144,0,0,1-.368,1.939,15.917,15.917,0,0,0-2.883,12.834c.071.333.141.664.223,1a16.173,16.173,0,0,0,7.719,10.3,13.35,13.35,0,0,0,3.661,1.376,9.705,9.705,0,0,0,1.4.234c.1.015,2.369,8.5,2.468,8.522l8.851-6.579C207.9,408.1,205.672,404.865,204.17,402.624Z" transform="translate(-165.883 -304.261)" fill="#e0ddbc" fill-rule="evenodd"/>
        <path id="Trazado_100164" data-name="Trazado 100164" d="M206.933,379.911l26.66,40.634a13.9,13.9,0,0,1-4.021,19.241l-.236.154A13.9,13.9,0,0,1,210.1,435.92l-26.069-40.456Z" transform="translate(-166.047 -283.253)" fill="#265d99"/>
        <path id="Trazado_100165" data-name="Trazado 100165" d="M179.9,374.741c.77.3,3.194.924,3.194.924a4.177,4.177,0,0,0,5.3-2.554l.022-.077a4.177,4.177,0,0,0-3.145-4.978l-3.194-.922C175.586,365.645,173.912,373.239,179.9,374.741Z" transform="translate(-175.483 -298.888)" fill="#e0ddbc" fill-rule="evenodd"/>
        <path id="Trazado_100166" data-name="Trazado 100166" d="M178.875,378.369l5.428,1.557a4.194,4.194,0,0,0,5.317-2.594l.022-.077a4.2,4.2,0,0,0-3.134-5.018l-5.428-1.557C176.367,369.5,173.813,376.163,178.875,378.369Z" transform="translate(-175.598 -294.547)" fill="#e0ddbc" fill-rule="evenodd"/>
        <path id="Trazado_100167" data-name="Trazado 100167" d="M179.117,381.372l4.356,1.248a3.528,3.528,0,0,0,4.365-2.417l.02-.068a3.529,3.529,0,0,0-2.419-4.365l-4.356-1.248C176.8,373.192,174.56,379.607,179.117,381.372Z" transform="translate(-174.993 -289.967)" fill="#e0ddbc" fill-rule="evenodd"/>
        <path id="Trazado_100168" data-name="Trazado 100168" d="M181.194,371.878c.825-.037,3.3-.441,3.3-.441a4.175,4.175,0,0,0,3.827-4.473l-.009-.079a4.18,4.18,0,0,0-4.885-3.288l-3.293.441C173.582,365.291,175.106,372.915,181.194,371.878Z" transform="translate(-175.874 -302.975)" fill="#e0ddbc" fill-rule="evenodd"/>
      </g>
      <rect id="Rectángulo_31767" data-name="Rectángulo 31767" width="17.103" height="6.744" rx="1.514" transform="translate(312.743 530.921)" fill="#c1bea2"/>
      <path id="Trazado_100169" data-name="Trazado 100169" d="M250.524,425.4h-6.692a3.321,3.321,0,0,1-3.321-3.322v-.066a3.321,3.321,0,0,1,3.321-3.321h-1.217a3.739,3.739,0,0,1-3.738-3.741v-.075a3.739,3.739,0,0,1,3.738-3.741h-1.127a3.739,3.739,0,0,1-3.738-3.738v-.077a3.739,3.739,0,0,1,3.738-3.738,3.741,3.741,0,0,1-3.738-3.741v-.075a3.739,3.739,0,0,1,3.738-3.741h9.036Z" transform="translate(81.21 112.228)" fill="#e0ddbc" fill-rule="evenodd"/>
      <path id="Trazado_100170" data-name="Trazado 100170" d="M251.858,388.485a32.632,32.632,0,0,1-8.588,11.892v8.242a4.736,4.736,0,0,1-4.733,4.733H204.691a4.741,4.741,0,0,1-4.753-4.733v-8.242a32.772,32.772,0,0,1,0-49.307v-8.242a4.745,4.745,0,0,1,4.753-4.755h32.622a107.481,107.481,0,0,1,5.957,12.078v.92c.2.183.408.366.611.571A110.76,110.76,0,0,1,251.858,388.485Z" transform="translate(22.149 42.364)" fill="#afafaf" opacity="0.761" style="mix-blend-mode: multiply;isolation: isolate"/>
      <g id="Grupo_83385" data-name="Grupo 83385" transform="translate(200.002 373.503)">
        <rect id="Rectángulo_31768" data-name="Rectángulo 31768" width="43.325" height="75.283" rx="2.149" transform="translate(17.901 1.922)" fill="#265d99"/>
        <circle id="Elipse_4099" data-name="Elipse 4099" cx="32.854" cy="32.854" r="32.854" transform="translate(0 63.926) rotate(-76.624)" fill="#ccf8ff"/>
        <rect id="Rectángulo_31769" data-name="Rectángulo 31769" width="40.548" height="32.075" rx="1.968" transform="translate(19.29 23.526)" fill="#fff"/>
        <g id="Grupo_83383" data-name="Grupo 83383" transform="translate(23.585 28.588)">
          <rect id="Rectángulo_31770" data-name="Rectángulo 31770" width="5.427" height="8.067" fill="#265d99"/>
          <rect id="Rectángulo_31771" data-name="Rectángulo 31771" width="5.427" height="8.067" transform="translate(6.633)" fill="#265d99"/>
          <rect id="Rectángulo_31772" data-name="Rectángulo 31772" width="5.427" height="8.067" transform="translate(13.266)" fill="#265d99"/>
          <rect id="Rectángulo_31773" data-name="Rectángulo 31773" width="5.427" height="8.067" transform="translate(19.898)" fill="#265d99"/>
          <rect id="Rectángulo_31774" data-name="Rectángulo 31774" width="5.427" height="8.067" transform="translate(26.531)" fill="#265d99"/>
        </g>
        <path id="Trazado_100171" data-name="Trazado 100171" d="M229.425,379.537H197.56a5.553,5.553,0,0,1-5.547-5.547V350.6a5.554,5.554,0,0,1,5.547-5.549h31.865a5.554,5.554,0,0,1,5.547,5.549V373.99A5.552,5.552,0,0,1,229.425,379.537ZM197.56,347.462a3.14,3.14,0,0,0-3.136,3.136V373.99a3.14,3.14,0,0,0,3.136,3.134h31.865a3.14,3.14,0,0,0,3.136-3.134V350.6a3.14,3.14,0,0,0-3.136-3.136Z" transform="translate(-173.929 -322.729)" fill="#284e66"/>
        <g id="Grupo_83384" data-name="Grupo 83384" transform="translate(23.585 39.788)">
          <rect id="Rectángulo_31775" data-name="Rectángulo 31775" width="15.979" height="2.711" fill="#265d99"/>
          <rect id="Rectángulo_31776" data-name="Rectángulo 31776" width="15.979" height="2.711" transform="translate(15.979)" fill="#12263f"/>
        </g>
        <rect id="Rectángulo_31777" data-name="Rectángulo 31777" width="14.176" height="1.122" transform="translate(26.298 44.182)" fill="#636363"/>
        <rect id="Rectángulo_31778" data-name="Rectángulo 31778" width="9.924" height="1.122" transform="translate(42.905 44.182)" fill="#636363"/>
        <rect id="Rectángulo_31779" data-name="Rectángulo 31779" width="26.531" height="1.122" transform="translate(26.298 46.8)" fill="#636363"/>
        <rect id="Rectángulo_31780" data-name="Rectángulo 31780" width="8.122" height="1.122" transform="translate(26.298 49.418)" fill="#636363"/>
        <rect id="Rectángulo_31781" data-name="Rectángulo 31781" width="15.979" height="1.122" transform="translate(36.85 49.418)" fill="#636363"/>
      </g>
    </g>
  </g>
</svg>
