<svg xmlns="http://www.w3.org/2000/svg" xmlns:xlink="http://www.w3.org/1999/xlink" width="94" height="94" viewBox="0 0 94 94">
  <defs>
    <linearGradient id="linear-gradient" y1="0.5" x2="1" y2="0.5" gradientUnits="objectBoundingBox">
      <stop offset="0" stop-color="#2bc4f3"/>
      <stop offset="0.5" stop-color="#00aeee"/>
      <stop offset="1" stop-color="#0095da"/>
    </linearGradient>
    <linearGradient id="linear-gradient-2" x1="-0.016" y1="0.148" x2="0.772" y2="0.844" gradientUnits="objectBoundingBox">
      <stop offset="0"/>
      <stop offset="1" stop-opacity="0"/>
    </linearGradient>
  </defs>
  <g id="numero-2" transform="translate(-0.075)">
    <circle id="Elipse_4907" data-name="Elipse 4907" cx="47" cy="47" r="47" transform="translate(0.075)" fill="url(#linear-gradient)"/>
    <path id="Trazado_635565" data-name="Trazado 635565" d="M225.6,165.306l-32.221-32.221c-2.968-3.115-7.49-4.956-12.937-4.956-10.232,0-16.426,6.246-16.426,15.7v.865l12.566,12.566c-3.127,3.883-7.427,9.007-13.319,15.956v2.845l22.6,22.6A46.89,46.89,0,0,0,225.6,165.306Z" transform="translate(-133.79 -105.242)" opacity="0.49" fill="url(#linear-gradient-2)"/>
    <path id="Trazado_635566" data-name="Trazado 635566" d="M198.021,164.972v11.084H163.262v-2.845c18.8-22.178,21.394-25.762,21.394-29.775a3.948,3.948,0,0,0-4.063-4.233c-2.624,0-4.223,1.769-4.223,4.583v.9H164.015v-.865c0-9.449,6.194-15.7,16.426-15.7,9.914,0,16.758,6.1,16.758,14.869,0,5.881-2.176,10.4-12.171,21.974Z" transform="translate(-133.79 -105.242)" fill="#fff"/>
  </g>
</svg>
