<svg id="numero-3" xmlns="http://www.w3.org/2000/svg" xmlns:xlink="http://www.w3.org/1999/xlink" width="94" height="94" viewBox="0 0 94 94">
  <defs>
    <linearGradient id="linear-gradient" y1="0.5" x2="1" y2="0.5" gradientUnits="objectBoundingBox">
      <stop offset="0" stop-color="#2bc4f3"/>
      <stop offset="0.5" stop-color="#00aeee"/>
      <stop offset="1" stop-color="#0095da"/>
    </linearGradient>
    <linearGradient id="linear-gradient-2" x1="-0.011" y1="0.027" x2="0.823" y2="0.799" gradientUnits="objectBoundingBox">
      <stop offset="0"/>
      <stop offset="1" stop-opacity="0"/>
    </linearGradient>
  </defs>
  <circle id="Elipse_4908" data-name="Elipse 4908" cx="47" cy="47" r="47" fill="url(#linear-gradient)"/>
  <path id="Trazado_635567" data-name="Trazado 635567" d="M226.975,159.055l-30.633-30.632H164.2V139.1l9.776,9.776-1.682,2.765v2.611l10.688,10.688a5.518,5.518,0,0,1-2.444.635l-5.491-5.491H163.024a16.538,16.538,0,0,0,4.7,11.515l25.887,25.887A47.009,47.009,0,0,0,226.975,159.055Z" transform="translate(-133.529 -105.427)" opacity="0.49" fill="url(#linear-gradient-2)"/>
  <path id="Trazado_635568" data-name="Trazado 635568" d="M186.94,145.626c6.716,1.685,11.013,7.122,11.013,14.376,0,9.526-7.382,16.349-17.661,16.349-10.066,0-16.987-6.571-17.268-16.267h12.023c.141,3.3,2.194,5.5,5.275,5.5,3.2,0,5.447-2.357,5.447-5.78s-2.327-5.548-5.972-5.548h-7.5v-2.611l7.628-12.541H164.2V128.423h32.143v2.152Z" transform="translate(-133.529 -105.427)" fill="#fff"/>
</svg>
