<svg xmlns="http://www.w3.org/2000/svg" xmlns:xlink="http://www.w3.org/1999/xlink" width="400" height="360.782" viewBox="0 0 400 360.782">
  <defs>
    <clipPath id="clip-path">
      <rect id="Rectángulo_344957" data-name="Rectángulo 344957" width="400" height="360.782" fill="none"/>
    </clipPath>
    <clipPath id="clip-path-2">
      <rect id="Rectángulo_344959" data-name="Rectángulo 344959" width="121.543" height="12.898" fill="#25ffff"/>
    </clipPath>
    <clipPath id="clip-path-4">
      <path id="Trazado_699779" data-name="Trazado 699779" d="M337.309,828.388l4.141,103.954h72.145l-4.141-103.954Z" transform="translate(-337.309 -828.388)" fill="none"/>
    </clipPath>
  </defs>
  <g id="Grupo_998890" data-name="Grupo 998890" transform="translate(0 0)">
    <g id="Grupo_998881" data-name="Grupo 998881" transform="translate(0 0)">
      <g id="Grupo_998880" data-name="Grupo 998880" clip-path="url(#clip-path)">
        <path id="Trazado_699765" data-name="Trazado 699765" d="M345.137,341.282H22.474A22.474,22.474,0,0,1,0,318.808V46.381A22.474,22.474,0,0,1,22.474,23.907H345.137a22.474,22.474,0,0,1,22.474,22.474V318.808a22.474,22.474,0,0,1-22.474,22.474" transform="translate(0 -17.495)" fill="#12263f"/>
        <rect id="Rectángulo_344946" data-name="Rectángulo 344946" width="65.978" height="65.978" transform="translate(19.488 99.825)" fill="#25ffff"/>
        <rect id="Rectángulo_344947" data-name="Rectángulo 344947" width="65.978" height="65.978" transform="translate(19.488 28.785)" fill="#f0f0f0"/>
        <rect id="Rectángulo_344948" data-name="Rectángulo 344948" width="65.978" height="65.978" transform="translate(90.48 28.785)" fill="#f0f0f0"/>
        <rect id="Rectángulo_344949" data-name="Rectángulo 344949" width="65.978" height="65.978" transform="translate(202.066 99.511)" fill="#f0f0f0"/>
        <rect id="Rectángulo_344950" data-name="Rectángulo 344950" width="65.978" height="65.978" transform="translate(273.058 99.511)" fill="#ad84ff"/>
        <rect id="Rectángulo_344951" data-name="Rectángulo 344951" width="65.978" height="65.978" transform="translate(90.48 170.503)" fill="#f0f0f0"/>
        <rect id="Rectángulo_344952" data-name="Rectángulo 344952" width="65.978" height="65.978" transform="translate(90.48 241.499)" fill="#ffdf69"/>
        <rect id="Rectángulo_344953" data-name="Rectángulo 344953" width="65.978" height="65.978" transform="translate(202.066 241.499)" fill="#f0f0f0"/>
        <rect id="Rectángulo_344954" data-name="Rectángulo 344954" width="65.978" height="65.978" transform="translate(19.488 170.662)" fill="#f0f0f0"/>
        <path id="Trazado_699766" data-name="Trazado 699766" d="M1055.93,900.356s-.046,30.54-7.2,56.428l-15.258,9.55h-53.8c10.221-27.2,10.283-65.978,10.283-65.978Z" transform="translate(-716.897 -658.857)" fill="#b0c0d2"/>
        <path id="Trazado_699767" data-name="Trazado 699767" d="M1180.238,1119.678v-9.771H1195.5Z" transform="translate(-863.668 -812.201)" fill="#12263f"/>
        <path id="Trazado_699768" data-name="Trazado 699768" d="M791.258,635.672s-.046,30.54-7.2,56.428l-15.259,9.55H715c10.221-27.2,10.283-65.978,10.283-65.978Z" transform="translate(-523.216 -465.168)" fill="#4ba2f4"/>
        <path id="Trazado_699769" data-name="Trazado 699769" d="M915.565,854.993v-9.771h15.259Z" transform="translate(-669.987 -618.511)" fill="#375eab"/>
        <rect id="Rectángulo_344955" data-name="Rectángulo 344955" width="65.978" height="65.978" transform="translate(273.058 28.832)" fill="#f0f0f0"/>
        <path id="Trazado_699770" data-name="Trazado 699770" d="M791.258,107.493s-.046,30.54-7.2,56.428l-15.259,9.55H715c10.221-27.2,10.283-65.978,10.283-65.978Z" transform="translate(-523.216 -78.661)" fill="#afafaf"/>
        <path id="Trazado_699771" data-name="Trazado 699771" d="M915.565,326.815v-9.771h15.259Z" transform="translate(-669.987 -232.004)" fill="#f6f6f6"/>
        <path id="Trazado_699772" data-name="Trazado 699772" d="M110.569,900.356s-.046,30.54-7.2,56.428l-15.258,9.55h-53.8c10.221-27.2,10.283-65.978,10.283-65.978Z" transform="translate(-25.106 -658.857)" fill="#f0f0f0"/>
        <path id="Trazado_699773" data-name="Trazado 699773" d="M234.877,1119.678v-9.771h15.258Z" transform="translate(-171.877 -812.201)" fill="#c9c9c9"/>
        <path id="Trazado_699774" data-name="Trazado 699774" d="M1055.93,635.672s-.046,30.54-7.2,56.428l-15.258,9.55h-53.8c10.221-27.2,10.283-65.978,10.283-65.978Z" transform="translate(-716.897 -465.168)" fill="#f0f0f0"/>
        <path id="Trazado_699775" data-name="Trazado 699775" d="M1180.238,854.993v-9.771H1195.5Z" transform="translate(-863.668 -618.511)" fill="#c9c9c9"/>
        <rect id="Rectángulo_344956" data-name="Rectángulo 344956" width="4.15" height="340.975" transform="translate(175.577 3.419)" fill="#fff"/>
      </g>
    </g>
    <g id="Grupo_998883" data-name="Grupo 998883" transform="translate(204.637 0)">
      <g id="Grupo_998882" data-name="Grupo 998882" clip-path="url(#clip-path-2)">
        <rect id="Rectángulo_344958" data-name="Rectángulo 344958" width="121.543" height="12.898" fill="#25ffff"/>
      </g>
    </g>
    <g id="Grupo_998885" data-name="Grupo 998885" transform="translate(0 0)">
      <g id="Grupo_998884" data-name="Grupo 998884" clip-path="url(#clip-path)">
        <path id="Trazado_699776" data-name="Trazado 699776" d="M333.109,1056.72l-4.124-103.528H400.31l4.125,103.561.819-.033L401.1,952.372H328.133l4.158,104.38Z" transform="translate(-240.119 -696.922)" fill="#004e8c"/>
        <path id="Trazado_699777" data-name="Trazado 699777" d="M320.618,953.191h71.324l-4.124,103.528.819.033,4.158-104.38H319.83l-4.157,104.348.819.033Z" transform="translate(-231.002 -696.921)" fill="#004e8c"/>
        <path id="Trazado_699778" data-name="Trazado 699778" d="M389.345,932.342H317.2l4.141-103.954h72.145Z" transform="translate(-232.119 -606.193)" fill="#d2e1f1"/>
      </g>
    </g>
    <g id="Grupo_998887" data-name="Grupo 998887" transform="translate(90.475 222.195)">
      <g id="Grupo_998886" data-name="Grupo 998886" clip-path="url(#clip-path-4)">
        <rect id="Rectángulo_344961" data-name="Rectángulo 344961" width="127.449" height="127.449" transform="translate(-51.977 51.977) rotate(-45)" fill="#ad84ff"/>
      </g>
    </g>
    <g id="Grupo_998889" data-name="Grupo 998889" transform="translate(0 0)">
      <g id="Grupo_998888" data-name="Grupo 998888" clip-path="url(#clip-path)">
        <rect id="Rectángulo_344962" data-name="Rectángulo 344962" width="3.626" height="27.596" transform="translate(151.519 285.914)" fill="#e3f2ff"/>
        <rect id="Rectángulo_344963" data-name="Rectángulo 344963" width="3.626" height="24.504" transform="translate(144.354 289.006)" fill="#e3f2ff"/>
        <rect id="Rectángulo_344964" data-name="Rectángulo 344964" width="3.626" height="20.481" transform="translate(136.571 293.029)" fill="#e3f2ff"/>
        <rect id="Rectángulo_344965" data-name="Rectángulo 344965" width="3.626" height="15.408" transform="translate(128.578 298.101)" fill="#e3f2ff"/>
        <path id="Trazado_699780" data-name="Trazado 699780" d="M396.55,919.511l-.786-.28,6.838-19.182,14.829-3.923,5.329-21.054,11.443-5.051,2.563-16.371.824.129L434.956,870.6l-11.488,5.071-5.35,21.136-14.879,3.936Z" transform="translate(-289.609 -624.679)" fill="#e3f2ff"/>
        <path id="Trazado_699781" data-name="Trazado 699781" d="M473.477,1005.8a2.225,2.225,0,1,1-3.131-.315,2.225,2.225,0,0,1,3.131.315" transform="translate(-343.589 -735.42)" fill="#12263f"/>
        <path id="Trazado_699782" data-name="Trazado 699782" d="M472.291,1008.119a2.643,2.643,0,1,1,.374-3.718,2.646,2.646,0,0,1-.374,3.718m-2.817-3.446a1.808,1.808,0,1,0,2.544.256,1.81,1.81,0,0,0-2.544-.256" transform="translate(-342.454 -734.285)" fill="#e3f2ff"/>
        <path id="Trazado_699783" data-name="Trazado 699783" d="M493.607,927.626a2.225,2.225,0,1,1-3.131-.315,2.225,2.225,0,0,1,3.131.315" transform="translate(-358.319 -678.215)" fill="#12263f"/>
        <path id="Trazado_699784" data-name="Trazado 699784" d="M492.421,929.945a2.642,2.642,0,1,1,.374-3.719,2.645,2.645,0,0,1-.374,3.719M489.6,926.5a1.808,1.808,0,1,0,2.544.256,1.81,1.81,0,0,0-2.544-.256" transform="translate(-357.184 -677.08)" fill="#e3f2ff"/>
        <path id="Trazado_699785" data-name="Trazado 699785" d="M535.613,908.26a2.225,2.225,0,1,1-3.131-.315,2.225,2.225,0,0,1,3.131.315" transform="translate(-389.058 -664.043)" fill="#12263f"/>
        <path id="Trazado_699786" data-name="Trazado 699786" d="M534.427,910.579a2.643,2.643,0,1,1,.374-3.718,2.645,2.645,0,0,1-.374,3.718m-2.817-3.446a1.808,1.808,0,1,0,2.544.256,1.809,1.809,0,0,0-2.544-.256" transform="translate(-387.923 -662.908)" fill="#e3f2ff"/>
        <path id="Trazado_699787" data-name="Trazado 699787" d="M418.409,1021.152a2.225,2.225,0,1,1-3.131-.315,2.225,2.225,0,0,1,3.131.315" transform="translate(-303.291 -746.655)" fill="#12263f"/>
        <path id="Trazado_699788" data-name="Trazado 699788" d="M417.222,1023.471a2.643,2.643,0,1,1,.374-3.719,2.645,2.645,0,0,1-.374,3.719m-2.817-3.446a1.808,1.808,0,1,0,2.544.256,1.81,1.81,0,0,0-2.544-.256" transform="translate(-302.156 -745.519)" fill="#e3f2ff"/>
        <path id="Trazado_699789" data-name="Trazado 699789" d="M393.612,932.928H374.529a1.6,1.6,0,0,1-1.6-1.6V929.91a1.6,1.6,0,0,1,1.6-1.6h19.083a1.6,1.6,0,0,1,1.6,1.6v1.421a1.6,1.6,0,0,1-1.6,1.6" transform="translate(-272.901 -679.316)" fill="#ebebeb"/>
        <path id="Trazado_699790" data-name="Trazado 699790" d="M393.612,902.846H374.529a1.6,1.6,0,0,1-1.6-1.6v-1.421a1.6,1.6,0,0,1,1.6-1.6h19.083a1.6,1.6,0,0,1,1.6,1.6v1.421a1.6,1.6,0,0,1-1.6,1.6" transform="translate(-272.901 -657.302)" fill="#ebebeb"/>
        <path id="Trazado_699791" data-name="Trazado 699791" d="M169.044,626.42s6.112,2.99,4.6,11.124-2.18,9.23-.49,12.408,3.685,16.736,2.164,19.306-18.832-11.293-21.232-22.923,1.521-16.8,2.908-18.73,6.654-3.922,12.05-1.183" transform="translate(-112.2 -457.416)" fill="#0e2d3d"/>
        <path id="Trazado_699792" data-name="Trazado 699792" d="M272.834,593.09H253.277V610.25l2.986-2.986h16.571Z" transform="translate(-185.342 -434.008)" fill="#0f58b9"/>
        <path id="Trazado_699793" data-name="Trazado 699793" d="M199.418,1287.718H200.8v-6.533a18.557,18.557,0,0,1,4.422,4.315c1.705,2.5,4.049,2.291,7.619,2.132s3.41-1.6,3.09-3.623-3.942-2.664-5.115-2.984-3.833-4.9-4.689-6.02a15.3,15.3,0,0,1-1.785-2.984s-.666-2.717-3.969,0-2.344,7.938-1.971,8.418,1.012,7.28,1.012,7.28" transform="translate(-144.88 -929.948)" fill="#163342"/>
        <path id="Trazado_699794" data-name="Trazado 699794" d="M210.876,1282.36c1.225.8,4.422,0,4.422,0-.906-1.172-6.474-9-6.474-9-3.383-1.972-4.72.741-4.72.741,1.38.422,5.546,7.464,6.772,8.263" transform="translate(-149.358 -931.283)" fill="#eea886"/>
        <path id="Trazado_699795" data-name="Trazado 699795" d="M361.683,849.5s2.218.425,2.976-.617a7.239,7.239,0,0,1,2.57-1.777c.606-.281,2.145-1.837,2.507-1.076s-2.413,2.688-2.914,3.208,2.722.75,3.277,1.256-.128,5.822-2.321,5.408-4.264-2.3-4.664-2.3a13.643,13.643,0,0,1-1.608-.238Z" transform="translate(-264.541 -618.952)" fill="#eea886"/>
        <path id="Trazado_699796" data-name="Trazado 699796" d="M387.007,862.43s6.631,1.713,6.977,2.2.232.838-.394.7-6.455-1.469-6.455-1.469,7.507,3.346,7.878,3.681c.217.2.036.894-.306.853s-7.973-2.932-7.973-2.932,7,3.137,7.231,3.509a.528.528,0,0,1-.663.728c-.535-.2-7.2-2.741-7.2-2.741s4.954,2.6,4.96,3.032c0,.262-.124.872-1.381.16s-4.4-2.08-4.4-2.08Z" transform="translate(-281.938 -631.104)" fill="#eea886"/>
        <path id="Trazado_699797" data-name="Trazado 699797" d="M135.344,1302.664h.852v-4.8a10.431,10.431,0,0,1,2.209,3.851c.693,2.291,3.173,2.97,6.956,2.864s3.836-1.6,3.516-3.837-3.516-3.41-3.516-3.41c-1.439-1.279-5.008-6.58-5.008-6.58a4.99,4.99,0,0,0-4.089.839c-1.8,1.452-1.239,4.729-1.186,5.581s.266,5.488.266,5.488" transform="translate(-98.756 -944.448)" fill="#163342"/>
        <path id="Trazado_699798" data-name="Trazado 699798" d="M124.979,904.46a33.452,33.452,0,0,0-5.73,12.814c-1.223,6.953.722,30.29.669,33.726s-3.25,11.988-2.611,18.461,3.162,38.693,3.162,38.693l6.907-1.371s-.4-32.847,0-35.564,1.2-12.622,1.362-13.741,10.147-30.5,10.147-35.512-3.037-25.685-13.906-17.507" transform="translate(-85.78 -660.476)" fill="#b0c0d2"/>
        <path id="Trazado_699799" data-name="Trazado 699799" d="M188.278,914.161s7.406,28.265,8.285,32.181,2.153,7.146,2.153,8.808a58.209,58.209,0,0,1-1.433,10.053l-9.4,44.978h-8.957s4.991-26.984,5.125-32.261,4.205-12.8,3.406-15.035-12.867-28.052-12.867-28.052-9.137-28.877,13.693-20.672" transform="translate(-126.435 -667.886)" fill="#b0c0d2"/>
        <path id="Trazado_699800" data-name="Trazado 699800" d="M148.932,1297.687l-5.008-6.58-4.089.839a18.545,18.545,0,0,0,3.088,5.161c2.354,2.625,6.009.581,6.009.581" transform="translate(-102.328 -944.799)" fill="#eea886"/>
        <path id="Trazado_699801" data-name="Trazado 699801" d="M211.821,739.09a9.24,9.24,0,0,1,5.36,2.76,35.386,35.386,0,0,1,5.077,7.732c.6,1.319,9.074,13.536,9.514,13.811s4.7,1.7,7.518,2.647c4.354,1.465,13.08,4.637,13.08,4.637l-1.733,5.487s-16.41-5.369-20.519-6.382c-5.025-1.238-16.594-16.079-16.594-16.079s-8.625-10.108-1.7-14.612" transform="translate(-153.037 -540.847)" fill="#285173"/>
        <path id="Trazado_699802" data-name="Trazado 699802" d="M141.458,730.538a41.37,41.37,0,0,0,5.328,2.142c1.373.275,6.7,7.2,7.636,9.723s0,6.317-1.923,10.767-.11,5.933-.989,10.382-.6,21.095-.432,23.567-25.711,6.219-30.82,1.715c0,0,3.458-15,7.553-19.283.886-.926.792-7.1.187-8.635s-7.415-13.019-7.415-13.019-.5-11.644,2.472-13.953c2.582-2,9.618-2.72,10.881-3.159a21.575,21.575,0,0,1,7.521-.246" transform="translate(-88.002 -534.438)" fill="#25ffff"/>
        <path id="Trazado_699803" data-name="Trazado 699803" d="M180.666,699.32s-.118,1.089-.254,2.561c-.053.582-.11,1.225-.163,1.883a44.448,44.448,0,0,0-.207,5.174s-4.111,4.119-8.784-4.806a12.263,12.263,0,0,0,.485-8.692c-1.48-5.014,8.923,3.88,8.923,3.88" transform="translate(-125.322 -507.783)" fill="#eea886"/>
        <path id="Trazado_699804" data-name="Trazado 699804" d="M243.9,792.727s.989-6.58-.062-10.581a25.549,25.549,0,0,1-1.887,8.327Z" transform="translate(-177.054 -572.354)" fill="#183c59"/>
        <path id="Trazado_699805" data-name="Trazado 699805" d="M159.483,732.379s2.827,8.35,10.589,7.736,3.68-7.051,3.68-7.051a17.147,17.147,0,0,0-2.479-1.214c-.544-.1-8.582-.206-8.582-.206Z" transform="translate(-116.706 -535.398)" fill="#eea886"/>
        <path id="Trazado_699806" data-name="Trazado 699806" d="M212.68,736.939s4.065,11.245,4.065,22.707.328,30.132,1.747,36.028,5.459,24.13,5.459,24.13l3.166-1.638s-7.614-29.1-8.189-31.2.437-24.267.982-26.123,2.868-10.118,2.507-12.41c-.455-2.89-3.159-7.165-7.526-10.842Z" transform="translate(-155.634 -539.273)" fill="#285173"/>
        <path id="Trazado_699807" data-name="Trazado 699807" d="M118.4,733.074a116.924,116.924,0,0,1,3.807,18.453c1.281,10.362-3.931,58.46-7.424,69.379l-13.539-2.183s2.914-34,6.87-40.186,5.215-11.661.944-24.575,1.872-19.309,1.872-19.309,6.282-1.445,7.469-1.579" transform="translate(-74.085 -536.445)" fill="#285173"/>
        <path id="Trazado_699808" data-name="Trazado 699808" d="M125.084,831.124l-16.416,28.433L90.419,849.021l15.7-28.844Z" transform="translate(-66.167 -600.184)" fill="#616161"/>
        <path id="Trazado_699809" data-name="Trazado 699809" d="M128.286,838.111l-14.579,25.252L97.5,854.006l13.946-25.618Z" transform="translate(-71.347 -606.193)" fill="#e0cec7"/>
        <path id="Trazado_699810" data-name="Trazado 699810" d="M173.652,841.023l1.023-1.772-6.552-3.783-1.279,1.625Z" transform="translate(-122.092 -611.374)" fill="#616161"/>
        <path id="Trazado_699811" data-name="Trazado 699811" d="M168.775,907.279a3.391,3.391,0,0,1-1.073-.155s-.573-.333-1-.544a3.168,3.168,0,0,0-.332-.15,6.215,6.215,0,0,1-1.83-.774,41.639,41.639,0,0,1-3.3-3.479l1.214-1.846.89-1.891s5.4.349,6.127.74a2.03,2.03,0,0,1,.2.122,7.934,7.934,0,0,1,1.143,1.168c.1.089,1.077,1.041,1.043,1.447a1.329,1.329,0,0,1-.646,1.12,3.177,3.177,0,0,1-.681,1.61,1.976,1.976,0,0,1-.951,1.463s-.213,1.021-.813,1.169" transform="translate(-117.997 -657.456)" fill="#eea886"/>
        <path id="Trazado_699812" data-name="Trazado 699812" d="M104.675,738.634s-4.985-1.428-7.841,4.065a25.069,25.069,0,0,0-3.224,10.52c-.36,2.533-1.988,9.448-2.153,10.162s-3.85,9.23-2.16,12.206c1.7,2.992,18.953,11.8,18.843,12.457s2.988-6.658,2.988-6.658-6.982-3.891-8.125-5.09c-1.857-1.947-5.776-4.043-4.971-6.458.946-2.836,3.786-12.4,4.445-13.805s6.4-15.614,2.2-17.4" transform="translate(-65.022 -540.391)" fill="#285173"/>
        <path id="Trazado_699813" data-name="Trazado 699813" d="M176.686,632.736s8.875,2.789,4.057,18.1-16.939-1.775-15.671-11.106,11.614-7,11.614-7" transform="translate(-120.728 -462.83)" fill="#eea987"/>
        <path id="Trazado_699814" data-name="Trazado 699814" d="M179.74,638.317a20.018,20.018,0,0,1-11.79,4.869s-2.836,3.326-3.054,4.631c0,0-6.585-11.224,1.51-17.952s16.31,5.68,13.335,8.453" transform="translate(-118.819 -459.475)" fill="#0e2d3d"/>
        <path id="Trazado_699815" data-name="Trazado 699815" d="M175.1,677.688c-.057-1.115-.744-3.651-2.4-2.941s.1,5.876,1.2,5.558c0,0,1.336.02,1.2-2.617" transform="translate(-125.882 -493.672)" fill="#eea987"/>
        <path id="Trazado_699816" data-name="Trazado 699816" d="M187.111,712.239c-.053.582-.11,1.225-.163,1.884,0,0-3.917-.233-6.536-6.06.171.254,3.041,4.471,6.7,4.177" transform="translate(-132.022 -518.142)" fill="#a77860"/>
        <rect id="Rectángulo_344966" data-name="Rectángulo 344966" width="30.57" height="1.815" transform="translate(319.777 265.413)" fill="#e2d2ca"/>
        <rect id="Rectángulo_344967" data-name="Rectángulo 344967" width="2.679" height="82.529" transform="translate(343.572 271.951)" fill="#706865"/>
        <rect id="Rectángulo_344968" data-name="Rectángulo 344968" width="21.249" height="2.592" transform="translate(303.313 264.899)" fill="#ccbdb7"/>
        <rect id="Rectángulo_344969" data-name="Rectángulo 344969" width="8.047" height="24.44" transform="translate(309.914 242.787)" fill="#ccbdb7"/>
        <rect id="Rectángulo_344970" data-name="Rectángulo 344970" width="117.734" height="4.692" transform="translate(243.58 267.259)" fill="#b59074"/>
        <path id="Trazado_699817" data-name="Trazado 699817" d="M1395.8,869s1.288,18.058-2.241,20.219c-2.21,1.354-11.023,5.92-10.762,6.776s4.976,7.619,4.976,7.619,16.928-11.148,17.474-14.66c.533-3.432-.833-26.441-3.16-27.5-1.743-.794-2.663-.137-4.859,1.493-3.082,2.288-1.429,6.053-1.429,6.053" transform="translate(-1011.895 -630.145)" fill="#b0c0d2"/>
        <path id="Trazado_699818" data-name="Trazado 699818" d="M1312.2,896.591l-1.492-.552s1.861-4.368,2.672-4.261a20.229,20.229,0,0,1,2.1.431Z" transform="translate(-959.144 -652.579)" fill="#ead8cf"/>
        <path id="Trazado_699819" data-name="Trazado 699819" d="M1315,896.547c.191-.142,3.172-5.861,3.172-5.861l6.369.866-3.441,6.773Z" transform="translate(-962.285 -651.781)" fill="#da9b5b"/>
        <path id="Trazado_699820" data-name="Trazado 699820" d="M1353.646,1278.274s.526,3.654.592,4.2,5.856-.323,5.856-.323l.469-4.35s-6.193-.045-6.917.47" transform="translate(-990.563 -935.063)" fill="#424773"/>
        <path id="Trazado_699821" data-name="Trazado 699821" d="M1328.212,1292.821a15.632,15.632,0,0,1-3.609,3.161c-1.774.96-4.562,1.34-5.612,2.333-.757.717-2.758,3.8,4.611,3.742s10.922.436,11.712-.748-1.142-8.736-1.142-8.736-1.745.628-5.959.247" transform="translate(-964.598 -945.872)" fill="#292c47"/>
        <path id="Trazado_699822" data-name="Trazado 699822" d="M1215.345,1278.4s.526,3.654.592,4.2,5.856-.323,5.856-.323l.469-4.35s-6.193-.045-6.917.471" transform="translate(-889.358 -935.157)" fill="#424773"/>
        <path id="Trazado_699823" data-name="Trazado 699823" d="M1180.624,1292.951a15.627,15.627,0,0,1-3.609,3.161c-1.774.96-8.3,1.748-9.353,2.742-.757.717-2.017,3.6,8.351,3.334,7.367-.192,10.922.436,11.712-.748s-1.142-8.736-1.142-8.736-1.644.671-5.959.248" transform="translate(-854.107 -945.967)" fill="#292c47"/>
        <path id="Trazado_699824" data-name="Trazado 699824" d="M1258.429,1044.255s-21.05,3.562-25.8,4.309-30.534,7.162-33.757,9.116c-2.566,1.556,1.346,38.924,2.26,53.181h10.154l.736-42.766c12.184.305,20.879-2.85,29.752-1.5s16.27,3.263,21.908-4.3c0,0,.209-16.385-5.249-18.037" transform="translate(-876.671 -764.159)" fill="#292c47"/>
        <path id="Trazado_699825" data-name="Trazado 699825" d="M1337.338,1123.315l9.9-.612.964-42.189a60.139,60.139,0,0,0,11.288-.716l7.989-18.571c-7,1.4-29.435,7.058-32.426,8.872-2.566,1.556,1.375,38.958,2.289,53.216" transform="translate(-976.328 -776.579)" fill="#292c47"/>
        <path id="Trazado_699826" data-name="Trazado 699826" d="M1353.7,749.079s-7.717-2.133-10.661,3.858-1.609,17.347,2.28,18.415,9.482-.162,11.1-3.89,2.9-9.026,2.516-12.457-3.182-5.106-5.231-5.926" transform="translate(-981.631 -547.887)" fill="#eea886"/>
        <path id="Trazado_699827" data-name="Trazado 699827" d="M1362.231,814.342s.085,4.556-.418,5.527,10.745.727,10.745.727-1.772-5.47-.767-10.131c1-4.613-9.561,3.877-9.561,3.877" transform="translate(-996.528 -592.073)" fill="#eea886"/>
        <path id="Trazado_699828" data-name="Trazado 699828" d="M1356.846,762.472s-.6,1.223-3.513,1.025-6.751-3.71-7.987-4.023-1.31-1.017-1.31-1.017l-.654,1.163-1.266.193s.86-3.52-1.015-4.759.844-11.222,10.338-8.814c0,0,7.245,1.327,7.342,5.372s-.529,8.719-1.936,10.862" transform="translate(-980.977 -545.804)" fill="#3a3f47"/>
        <path id="Trazado_699829" data-name="Trazado 699829" d="M1359.653,840.663s.032-1.856.873-2.034,8.841-1.278,9.873-.872l.443,2.45s-1.989,1.224-11.189.456" transform="translate(-994.959 -612.984)" fill="#e2d2ca"/>
        <path id="Trazado_699830" data-name="Trazado 699830" d="M1350.749,784.1c.216-1.521,1.945-3.268,2.936-.9s-.669,5.819-1.779,5.634-1.449-2.671-1.156-4.735" transform="translate(-988.37 -572.273)" fill="#eea886"/>
        <path id="Trazado_699831" data-name="Trazado 699831" d="M1234.633,930.571a.021.021,0,0,1,.014,0c-.058.026-.066.028-.014,0" transform="translate(-903.447 -680.966)" fill="#323657"/>
        <path id="Trazado_699832" data-name="Trazado 699832" d="M1395.534,754.131s9.408-.443,1.642,14.245Z" transform="translate(-1021.216 -551.853)" fill="#3a3f47"/>
        <path id="Trazado_699833" data-name="Trazado 699833" d="M1391.1,1280.856l-.7,1.969-29.573-9.163,1.417-3.987Z" transform="translate(-995.818 -929.116)" fill="#918783"/>
        <rect id="Rectángulo_344971" data-name="Rectángulo 344971" width="3.361" height="32.151" transform="translate(363.994 310.992)" fill="#918783"/>
        <rect id="Rectángulo_344972" data-name="Rectángulo 344972" width="19.825" height="1.894" transform="translate(355.762 309.284)" fill="#5e5854"/>
        <path id="Trazado_699834" data-name="Trazado 699834" d="M1251.963,1280.174l.7,1.969,29.573-9.163-1.3-4.237Z" transform="translate(-916.154 -928.433)" fill="#918783"/>
        <path id="Trazado_699835" data-name="Trazado 699835" d="M1329.644,1281.932v2.29l9.437-11.243-1.3-4.237Z" transform="translate(-972.999 -928.433)" fill="#918783"/>
        <path id="Trazado_699836" data-name="Trazado 699836" d="M1241.659,1314.03a2.764,2.764,0,1,0,2.764-2.764,2.764,2.764,0,0,0-2.764,2.764" transform="translate(-908.614 -959.551)" fill="#bfb2ac"/>
        <path id="Trazado_699837" data-name="Trazado 699837" d="M1328.769,1314.03a2.764,2.764,0,1,0,2.764-2.764,2.764,2.764,0,0,0-2.764,2.764" transform="translate(-972.359 -959.551)" fill="#bfb2ac"/>
        <path id="Trazado_699838" data-name="Trazado 699838" d="M1463.386,1314.03a2.764,2.764,0,1,0,2.764-2.764,2.764,2.764,0,0,0-2.764,2.764" transform="translate(-1070.868 -959.551)" fill="#bfb2ac"/>
        <path id="Trazado_699839" data-name="Trazado 699839" d="M1278.819,1133.494H1318.7a3.542,3.542,0,0,0,3.543-3.542v-.091a3.542,3.542,0,0,0-3.543-3.543h-39.881a3.542,3.542,0,0,0-3.543,3.543v.091a3.542,3.542,0,0,0,3.543,3.542" transform="translate(-933.214 -824.21)" fill="#e2d2ca"/>
        <rect id="Rectángulo_344973" data-name="Rectángulo 344973" width="2.679" height="82.529" transform="translate(258.643 271.951)" fill="#706865"/>
        <path id="Trazado_699840" data-name="Trazado 699840" d="M1044.433,815.328h62.414a3.534,3.534,0,0,0,3.534-3.534V769.846a3.534,3.534,0,0,0-3.534-3.534h-62.414a3.534,3.534,0,0,0-3.534,3.534v41.948a3.534,3.534,0,0,0,3.534,3.534" transform="translate(-761.703 -560.767)" fill="#dee4f0"/>
        <rect id="Rectángulo_344974" data-name="Rectángulo 344974" width="64.04" height="38.686" transform="translate(281.917 208.194)" fill="#f5f7ff"/>
        <path id="Trazado_699841" data-name="Trazado 699841" d="M1162.065,925.84a2.241,2.241,0,1,0,2.241-2.241,2.241,2.241,0,0,0-2.241,2.241" transform="translate(-850.369 -675.866)" fill="#918681"/>
        <path id="Trazado_699842" data-name="Trazado 699842" d="M1116.8,979.445v-.872s1.226-5.425,9.9-5.425,8.5,6.3,8.5,6.3Z" transform="translate(-817.242 -712.124)" fill="#e2d2ca"/>
        <path id="Trazado_699843" data-name="Trazado 699843" d="M1143.292,966.984a8.544,8.544,0,0,1-2.575-.563c-.69-.416-4.82-3.194-5.791-2.75s-7.427,2.423-7.2,3.367.821.853,1.277.686a33.165,33.165,0,0,1,5.557-.985s-4.6,1.68-4.623,2.906.964,1.525,1.4,1.988.961,1.615,2.148,1.7,6.977-1.927,8.17-2.019,3.4.074,3.548-.12-1.909-4.213-1.909-4.213" transform="translate(-825.235 -705.155)" fill="#eea886"/>
        <path id="Trazado_699844" data-name="Trazado 699844" d="M1214.772,850.163c6.008-1.055,12.332-2.572,12.332-2.572l11.189-.456s10.269,2.261,14.314,4.087c.383.173.385,9.161,1.438,11.519l-3.353,7.074s-1.937,14.013-2.339,20.245c-.185,2.861.522,27.649.522,27.649s-1.005.5-8.642,1.338-26.718-.3-26.838-1.206,3.7-33.586,3.864-35.278c.259-2.6-.75-14.6-.75-14.6-1.439,1.933-5.107,10.661-8.93,14.814-2.25,2.443-13.386,3.94-15.485,4.011-4.569.152-12.905,1.062-13.149.618-.195-.267-.726-7.4-.2-7.573.457-.153,15.936-1.043,19.9-3.148,1.451-.77,5.788-10.227,5.788-10.227s7.026-14.8,10.341-16.293" transform="translate(-862.41 -619.912)" fill="#b0c0d2"/>
        <path id="Trazado_699845" data-name="Trazado 699845" d="M1377.331,985.2h18.784a6.8,6.8,0,0,0,6.8-6.8V947.14a6.8,6.8,0,0,0-6.8-6.8h-18.784a6.8,6.8,0,0,0-6.8,6.8v31.255a6.8,6.8,0,0,0,6.8,6.8" transform="translate(-1002.918 -688.115)" fill="#e2d2ca"/>
        <path id="Trazado_699846" data-name="Trazado 699846" d="M1387.01,1073.743a14.839,14.839,0,0,0,11.512-4.766c6.475-7.148,5.311-19.714,5.259-20.246a1.8,1.8,0,0,0-3.586.354c.014.143,1.046,11.533-4.35,17.48a11.238,11.238,0,0,1-8.834,3.574,1.8,1.8,0,1,0,0,3.6" transform="translate(-1013.66 -766.245)" fill="#e2d2ca"/>
        <path id="Trazado_699847" data-name="Trazado 699847" d="M1203.441,789.721h17.746a.507.507,0,0,0,.507-.507v-1.031a.507.507,0,0,0-.507-.507h-17.746a.507.507,0,0,0-.507.507v1.031a.507.507,0,0,0,.507.507" transform="translate(-880.276 -576.402)" fill="#dfe1e8"/>
        <path id="Trazado_699848" data-name="Trazado 699848" d="M1203.441,806.066h17.746a.507.507,0,0,0,.507-.507v-1.031a.507.507,0,0,0-.507-.506h-17.746a.507.507,0,0,0-.507.506v1.031a.507.507,0,0,0,.507.507" transform="translate(-880.276 -588.363)" fill="#dfe1e8"/>
        <path id="Trazado_699849" data-name="Trazado 699849" d="M1204.638,845.877h15.352a1.7,1.7,0,0,0,1.7-1.7v-19.7a1.7,1.7,0,0,0-1.7-1.7h-15.352a1.7,1.7,0,0,0-1.7,1.7v19.7a1.7,1.7,0,0,0,1.7,1.7" transform="translate(-880.276 -602.079)" fill="#dfe1e8"/>
        <path id="Trazado_699850" data-name="Trazado 699850" d="M1066.967,820.2h28.012a2.7,2.7,0,0,0,2.7-2.7V790.374a2.7,2.7,0,0,0-2.7-2.7h-28.012a2.7,2.7,0,0,0-2.7,2.7V817.5a2.7,2.7,0,0,0,2.7,2.7" transform="translate(-778.805 -576.402)" fill="#dfe1e8"/>
        <path id="Trazado_699851" data-name="Trazado 699851" d="M621.691,738.857l-17.614,9.682L586.388,720.7l21.394-7.431Z" transform="translate(-429.104 -521.953)" fill="#292c47"/>
        <path id="Trazado_699852" data-name="Trazado 699852" d="M623.771,740.264,607.3,749.319l-16.542-26.032,20.008-6.95Z" transform="translate(-432.3 -524.197)" fill="#e2d2ca"/>
        <path id="Trazado_699853" data-name="Trazado 699853" d="M679.352,771.609s-3.066-1.466-4.411-2.233-4.807-1.819-5.087-2.068-10.261-.866-10.867-1.388-1.194,1.224,1.393,1.791,6.187,1.952,6.384,2.963-2.657,1.25-2.946,2.083.081.646.49.825,3.395-1.475,4.708-1.006,3.32-.18,4.326.164,5.9,1.991,5.9,1.991Z" transform="translate(-481.848 -560.41)" fill="#eea886"/>
        <path id="Trazado_699854" data-name="Trazado 699854" d="M612.338,783.58s-2.576-2.318-3.822-3.288-3.586-3.822-3.93-3.988-4.811-9.333-5.539-9.7.689-1.6,2.23.615,4.249,5.071,5.278,4.862.144-2.991.816-3.588.641-.175.968.141-.068,3.774.885,4.828,1.123,3.2,1.839,4.013,4.174,4.784,4.174,4.784Z" transform="translate(-438.223 -560.487)" fill="#eea886"/>
        <path id="Trazado_699855" data-name="Trazado 699855" d="M855.934,1292.307s.557,3.867.627,4.448,6.2-.342,6.2-.342l.5-4.6s-6.555-.048-7.321.5" transform="translate(-626.351 -945.312)" fill="#424773"/>
        <path id="Trazado_699856" data-name="Trazado 699856" d="M829.013,1307.7a16.548,16.548,0,0,1-3.82,3.346c-1.878,1.016-4.829,1.418-5.94,2.469-.8.759-2.92,4.026,4.88,3.96s11.56.462,12.4-.791-1.209-9.247-1.209-9.247-1.847.665-6.307.262" transform="translate(-598.869 -956.752)" fill="#292c47"/>
        <path id="Trazado_699857" data-name="Trazado 699857" d="M692.232,1292.307s.557,3.867.627,4.448,6.2-.342,6.2-.342l.5-4.6s-6.555-.048-7.321.5" transform="translate(-506.558 -945.312)" fill="#424773"/>
        <path id="Trazado_699858" data-name="Trazado 699858" d="M655.483,1307.7a16.548,16.548,0,0,1-3.82,3.346c-1.878,1.016-8.789,1.85-9.9,2.9-.8.759-2.135,3.814,8.84,3.528,7.8-.2,11.56.462,12.4-.791s-1.209-9.247-1.209-9.247-1.741.71-6.307.262" transform="translate(-469.247 -956.752)" fill="#292c47"/>
        <path id="Trazado_699859" data-name="Trazado 699859" d="M798.655,923.2s5.758,9.148,5.329,17.418,2.088,17.3,2.953,25.937c.965,9.631,4.911,32.43,5.054,37.582s-.612,21.6-.612,21.6l-7.9.181s-6.635-39.859-8.353-43.927-10.24-33.062-10.526-36.315S798.655,923.2,798.655,923.2" transform="translate(-574.146 -675.574)" fill="#292c47"/>
        <path id="Trazado_699860" data-name="Trazado 699860" d="M697.842,920.14s-4.34,22.666-4.912,27.727-.955,24.494-1.241,27.657-1.909,41.4-3.437,46.1h10.1s7.753-27.794,7.753-40.944,5.989-28.588,9.855-37.264,12.716-8.882,15.092-24.98c0,0-29.992-3.4-33.21,1.708" transform="translate(-503.645 -671.274)" fill="#292c47"/>
        <path id="Trazado_699861" data-name="Trazado 699861" d="M763.637,634.511s-7.729-2.887-11.293,3-3.221,17.662.676,19.11,9.748.691,11.742-2.99,3.8-9,3.709-12.56-2.8-5.529-4.834-6.556" transform="translate(-548.737 -463.8)" fill="#eea886"/>
        <path id="Trazado_699862" data-name="Trazado 699862" d="M764.11,699.851a6.684,6.684,0,0,1-.21,3.115c-.532,1.028,10.013,1.055,10.013,1.055a69.486,69.486,0,0,1,2.479-10.315c1.623-4.724-12.282,6.146-12.282,6.146" transform="translate(-558.988 -506.765)" fill="#eea886"/>
        <path id="Trazado_699863" data-name="Trazado 699863" d="M767.045,648.312s-.728,1.2-3.7.735-6.6-4.418-7.836-4.852-1.252-1.162-1.252-1.162l-.777,1.134-1.318.083s1.2-3.536-.611-4.978,1.882-11.444,11.409-8.114c0,0,7.317,2.017,7.051,6.179s-1.332,8.9-2.969,10.975" transform="translate(-549.641 -461.371)" fill="#3a3f47"/>
        <path id="Trazado_699864" data-name="Trazado 699864" d="M761.62,723.134s.033-1.964.923-2.152,9.827-1.048,10.919-.618v2.288s-2.105,1.3-11.843.482" transform="translate(-557.334 -527.057)" fill="#e2d2ca"/>
        <path id="Trazado_699865" data-name="Trazado 699865" d="M762.953,667.484c.167-.7,1.942-2.693,2.621-.557s-1.027,5.009-1.979,4.763-1.065-2.436-.643-4.206" transform="translate(-558.138 -487.338)" fill="#eea886"/>
        <path id="Trazado_699866" data-name="Trazado 699866" d="M629.3,817.525a.025.025,0,0,1,.015,0c-.061.027-.07.029-.015,0" transform="translate(-460.475 -598.243)" fill="#323657"/>
        <path id="Trazado_699867" data-name="Trazado 699867" d="M691.622,803.042a81.709,81.709,0,0,1-12.823,2.286c-8.082.891-28.277-.322-28.405-1.276s4.344-35.557,4.09-37.339-.391-8.131-.391-8.131a44.751,44.751,0,0,1-4.012,12.72c-.773,1.4-3.367,5.786-4.616,4.789-6.05-4.831-15.419-23.033-16.013-23.187.5-.217,4.44-2.031,4.993-2.216.484-.162,4.849,4.46,7.493,7.324,1.179,1.277,2.016,2.2,2.016,2.2.764-1.718,3.546-12.543,4.409-16.289,1.95-8.449,1.65-8.8,1.65-8.8,5.913-1.789,14.889-5.429,14.889-5.429l11.843-.483s10.869,2.393,15.15,4.326c.406.183.408,9.7,1.522,12.191l-3.549,7.487s-2.05,14.831-2.476,21.427c-.2,3.028,4.228,28.394,4.228,28.394" transform="translate(-460.617 -533.621)" fill="#0f58b9"/>
        <path id="Trazado_699868" data-name="Trazado 699868" d="M833.793,769.886c-.309,1-1.713,1.842-2.625,2.21a3.393,3.393,0,0,1-1.9.191l-.464-.086h0l-8.116-1.505s-1.776-20.451,11.087-25.352c.34.112,4.855,15.385,2.014,24.542" transform="translate(-600.5 -545.424)" fill="#0f58b9"/>
        <path id="Trazado_699869" data-name="Trazado 699869" d="M853.537,816.855h0a3.394,3.394,0,0,1-1.9.191l-.464-.086h0l.8-10.451Z" transform="translate(-622.869 -590.182)" fill="#0a336a"/>
        <path id="Trazado_699870" data-name="Trazado 699870" d="M678.017,838.776l-.992,4.2A33.211,33.211,0,0,1,676,836.571c1.179,1.277,2.016,2.2,2.016,2.2" transform="translate(-494.678 -612.181)" fill="#0a336a"/>
        <path id="Trazado_699871" data-name="Trazado 699871" d="M809.4,638.972s10.129-1.268.172,15.651Z" transform="translate(-592.297 -467.568)" fill="#3a3f47"/>
        <path id="Trazado_699872" data-name="Trazado 699872" d="M613.938,722.949l-1.029-1.769,8.11-2.8,1.029,1.76Z" transform="translate(-448.51 -525.694)" fill="#292c47"/>
      </g>
    </g>
  </g>
</svg>
