<svg xmlns="http://www.w3.org/2000/svg" xmlns:xlink="http://www.w3.org/1999/xlink" width="232.852" height="351.745" viewBox="0 0 232.852 351.745">
  <defs>
    <clipPath id="clip-path">
      <rect id="Rectángulo_344801" data-name="Rectángulo 344801" width="232.852" height="351.745" fill="none"/>
    </clipPath>
  </defs>
  <g id="Grupo_998625" data-name="Grupo 998625" transform="translate(0 -0.001)">
    <g id="Grupo_998624" data-name="Grupo 998624" transform="translate(0 0.001)" clip-path="url(#clip-path)">
      <path id="Trazado_699351" data-name="Trazado 699351" d="M142.649,6.407v199.8c0,3.538-3.336,6.406-7.449,6.406H22.274c-4.116,0-7.455-2.871-7.455-6.409V6.407C14.819,2.869,18.155,0,22.271,0H135.2c4.113,0,7.449,2.868,7.449,6.406" transform="translate(-11.327 -0.001)" fill="#b2ada5"/>
      <path id="Trazado_699352" data-name="Trazado 699352" d="M127.83,17.408v199.8c0,3.538-3.336,6.406-7.449,6.406H7.455c-4.116,0-7.455-2.871-7.455-6.409V17.408C0,13.87,3.336,11,7.452,11H120.381c4.113,0,7.449,2.868,7.449,6.406" transform="translate(0 -8.774)" fill="#fff"/>
      <path id="Trazado_699353" data-name="Trazado 699353" d="M144.17,140.1v56.658c0,3.334-3.145,6.036-7.023,6.036H37.927c-3.879,0-7.022-2.7-7.022-6.036V140.1c0-3.334,3.142-6.036,7.022-6.036h99.22c3.879,0,7.023,2.7,7.023,6.036" transform="translate(-23.623 -106.907)" fill="#f4f4f4"/>
      <path id="Trazado_699354" data-name="Trazado 699354" d="M216.025,47.934a3.06,3.06,0,0,1-1.117,2.321,4.14,4.14,0,0,1-2.7.96H170.625a3.578,3.578,0,0,1-3.817-3.281,3.054,3.054,0,0,1,1.117-2.319,4.127,4.127,0,0,1,2.7-.963h41.583a3.58,3.58,0,0,1,3.817,3.281" transform="translate(-127.502 -35.608)" fill="#e8e8e8"/>
      <path id="Trazado_699355" data-name="Trazado 699355" d="M158.549,679.168a2.81,2.81,0,0,1-1.027,2.132,3.811,3.811,0,0,1-2.484.883H54.6a3.291,3.291,0,0,1-3.511-3.016,2.816,2.816,0,0,1,1.027-2.135,3.8,3.8,0,0,1,2.484-.883H155.038a3.291,3.291,0,0,1,3.511,3.018" transform="translate(-39.051 -539.185)" fill="#e8e8e8"/>
      <path id="Trazado_699356" data-name="Trazado 699356" d="M158.549,731.4a2.81,2.81,0,0,1-1.027,2.132,3.81,3.81,0,0,1-2.484.883H54.6A3.291,3.291,0,0,1,51.09,731.4a2.816,2.816,0,0,1,1.027-2.135,3.8,3.8,0,0,1,2.484-.883H155.038a3.291,3.291,0,0,1,3.511,3.018" transform="translate(-39.051 -580.833)" fill="#e8e8e8"/>
      <path id="Trazado_699357" data-name="Trazado 699357" d="M158.549,781.383a2.81,2.81,0,0,1-1.027,2.132,3.811,3.811,0,0,1-2.484.883H54.6a3.291,3.291,0,0,1-3.511-3.016,2.816,2.816,0,0,1,1.027-2.135,3.8,3.8,0,0,1,2.484-.883H155.038a3.291,3.291,0,0,1,3.511,3.018" transform="translate(-39.051 -620.694)" fill="#e8e8e8"/>
      <path id="Trazado_699358" data-name="Trazado 699358" d="M158.549,833.612a2.81,2.81,0,0,1-1.027,2.132,3.81,3.81,0,0,1-2.484.883H54.6a3.291,3.291,0,0,1-3.511-3.016,2.816,2.816,0,0,1,1.027-2.135,3.8,3.8,0,0,1,2.484-.883H155.038a3.291,3.291,0,0,1,3.511,3.018" transform="translate(-39.051 -662.343)" fill="#0f58b9"/>
      <path id="Trazado_699359" data-name="Trazado 699359" d="M158.549,879.08a2.81,2.81,0,0,1-1.027,2.132,3.811,3.811,0,0,1-2.484.883H54.6a3.291,3.291,0,0,1-3.511-3.016,2.816,2.816,0,0,1,1.027-2.135,3.8,3.8,0,0,1,2.484-.883H155.038a3.291,3.291,0,0,1,3.511,3.018" transform="translate(-39.051 -698.6)" fill="#e8e8e8"/>
      <path id="Trazado_699360" data-name="Trazado 699360" d="M158.549,931.307a2.809,2.809,0,0,1-1.027,2.132,3.81,3.81,0,0,1-2.484.883H54.6a3.291,3.291,0,0,1-3.511-3.016,2.816,2.816,0,0,1,1.027-2.135,3.8,3.8,0,0,1,2.484-.883H155.038a3.291,3.291,0,0,1,3.511,3.019" transform="translate(-39.051 -740.248)" fill="#e8e8e8"/>
      <path id="Trazado_699361" data-name="Trazado 699361" d="M89.8,555.348H65.665V534.6H89.8Zm-20.892-2.79H86.556V537.388H68.911Z" transform="translate(-50.192 -426.306)" fill="#e8e8e8"/>
      <path id="Trazado_699362" data-name="Trazado 699362" d="M93.764,542.423l-8.418-7.614,3.875-3.166,4.838,4.376,16.251-12.543,3.572,3.42Z" transform="translate(-65.235 -417.437)" fill="#25ffff"/>
      <path id="Trazado_699363" data-name="Trazado 699363" d="M266.576,605.14a2.805,2.805,0,0,1-1.027,2.132,3.788,3.788,0,0,1-2.481.886H198.8a3.3,3.3,0,0,1-3.511-3.018,2.822,2.822,0,0,1,1.027-2.132,3.818,3.818,0,0,1,2.484-.883h64.265a3.289,3.289,0,0,1,3.508,3.016" transform="translate(-149.274 -480.154)" fill="#0f58b9"/>
      <path id="Trazado_699364" data-name="Trazado 699364" d="M144.17,140.1v10.209H30.905V140.1c0-3.334,3.142-6.036,7.022-6.036h99.22c3.879,0,7.023,2.7,7.023,6.036" transform="translate(-23.623 -106.907)" fill="#0f58b9"/>
      <path id="Trazado_699365" data-name="Trazado 699365" d="M156.335,284.251H55.481a.273.273,0,1,1,0-.54H156.335a.273.273,0,1,1,0,.54" transform="translate(-42.168 -226.241)" fill="#e5e5e5"/>
      <path id="Trazado_699366" data-name="Trazado 699366" d="M785.883,1574.083c.724.485,6.733,4.4,8.9,2.693,2.3-1.82,8.272-7.147,11.211-7.682s5.184-6.5,5.184-6.5l-.209-7a34.529,34.529,0,0,1-3.055,1.774c-2.777,1.407-6.416,2.678-9.716,2.018-.191,2-.459,4.276-.793,6.234-.624,3.653-8.083,7.072-11.517,8.465" transform="translate(-600.699 -1240.481)" fill="#f78769"/>
      <path id="Trazado_699367" data-name="Trazado 699367" d="M808.943,1221.274a24.078,24.078,0,0,1-3.131,3.443c3.079.309,6.4.193,8.133-1.293,0,0,1.247-45.865-11.675-64.141l1.922-25.063c-3.78,7.914-8.628,15.126-14.812,20.05,0,0,16.645,50.878,19.563,67" transform="translate(-603.372 -904.464)" fill="#39434c"/>
      <path id="Trazado_699368" data-name="Trazado 699368" d="M683.387,811.517l8.383,33.32,26.14,103.916a43.824,43.824,0,0,0,6.885,1.293,24.079,24.079,0,0,0,3.131-3.443c-2.919-16.127-19.563-67-19.563-67,6.185-4.924,11.032-12.136,14.812-20.05l4.134-53.939,1.029-13.441-41.26-2.393Z" transform="translate(-522.355 -629.793)" fill="#47525e"/>
      <path id="Trazado_699369" data-name="Trazado 699369" d="M758.36,342.607c.919,2.028,5.432,5,5.432,5a20.78,20.78,0,0,0,13.025-7.3c-1.459-3.123-1.324-8.223-1.1-11.12-5.6,5.687-15.911,7.588-15.911,7.588s-.412-.2-1.1-.542c.386,4.217-.276,6.173-.341,6.355Z" transform="translate(-579.661 -262.506)" fill="#ff8f6a"/>
      <path id="Trazado_699370" data-name="Trazado 699370" d="M758.387,342.59l2.488-3.885c12.041-2.625,14.864-9.517,14.864-9.517-5.6,5.687-15.912,7.588-15.912,7.588s-.411-.2-1.1-.542c.386,4.217-.277,6.173-.341,6.355" transform="translate(-579.682 -262.506)" fill="#db421a"/>
      <path id="Trazado_699371" data-name="Trazado 699371" d="M704.547,137.93c4.431-11.052,19.388-12.553,25.613-10.9a9.119,9.119,0,0,1,1.181.395c5.24,2.208,6.118,3.974,6.118,3.974a28.551,28.551,0,0,1,6.518,4.367,14.676,14.676,0,0,1,4.314,6.5c3.3,11.124-10.382,20.66-9.87,26.045a15.358,15.358,0,0,1-.53-4.324c-1.236,1.771-3.413,5.259-2.845,7.121a4.891,4.891,0,0,1-.667-2.6,5.883,5.883,0,0,0-.406,4.927s-2.736-3.333-.42-8.339l1.554-.087a13.454,13.454,0,0,1,.689-1.456,8.794,8.794,0,0,0,.413-1.226c6.221,1.06,6.383-9.691,3.478-10.155-1.968-.313-3.917.973-5.109,1.992l-.463,3.912a19.891,19.891,0,0,0-.435-3.07,7.248,7.248,0,0,0-1.209-2.881c-1.437-1.733-18.49-2.979-19.21-8.007,0,0-3.867,5.965-8.276,7.464-.09.032-.18.06-.27.087a26.893,26.893,0,0,1-.6,11.529c1.13-5.3-4.316-13.425.428-25.257" transform="translate(-537.02 -100.846)" fill="#5e1212"/>
      <path id="Trazado_699372" data-name="Trazado 699372" d="M750.612,386.364s3.163,4.825,7.059,6.427c0,0,7.413-1.409,12.395-5.6a14.067,14.067,0,0,0,2.359-2.481l.007-.005-1.537-.619s-4.224,5.19-13.025,7.3c0,0-3.838-2.238-5.426-5.018l.328-1.581-1.839.127a.039.039,0,0,1-.006.017Z" transform="translate(-573.739 -306.279)" fill="#cecccc"/>
      <path id="Trazado_699373" data-name="Trazado 699373" d="M714.315,236.436c1.573,3.289,6.907,6.249,9.564,7.606.687.347,1.1.544,1.1.544s10.31-1.9,15.908-7.589a12.637,12.637,0,0,0,2.724-3.983,8.8,8.8,0,0,0,.41-1.228c6.224,1.062,6.387-9.692,3.483-10.153-1.97-.316-3.923.969-5.11,1.989l-.464,3.911a19.89,19.89,0,0,0-.434-3.072,7.278,7.278,0,0,0-1.211-2.88c-1.44-1.73-18.493-2.978-19.21-8,0,0-3.868,5.962-8.279,7.459a23.287,23.287,0,0,0,.524,3.222c1.175,4.833-.99,8.048.992,12.176" transform="translate(-544.835 -170.314)" fill="#ff8f6a"/>
      <path id="Trazado_699374" data-name="Trazado 699374" d="M819.637,89.144c.328.089.63.188.907.293h.006c.1.033.186.072.27.1,5.239,2.205,6.12,3.974,6.12,3.974a28.576,28.576,0,0,1,6.519,4.366,17.507,17.507,0,0,0,1.723-.431c11.013-3.371,7.213-15.535-2.436-18.033-8.242-2.133-11.437,3.664-12.652,7.831-.18.608-.315,1.183-.418,1.691-.013.072-.026.138-.039.2" transform="translate(-626.499 -62.965)" fill="#5e1212"/>
      <path id="Trazado_699375" data-name="Trazado 699375" d="M876.091,194.493c4.675-5.47,6.585-10.523,5.676-15.019a12.078,12.078,0,0,0-5.225-7.451l-.11.14a11.9,11.9,0,0,1,5.142,7.343c.9,4.448-1,9.457-5.642,14.886Z" transform="translate(-669.53 -137.177)" fill="#5e1212"/>
      <path id="Trazado_699376" data-name="Trazado 699376" d="M716.084,137.051c3.56-9.891,18.145-9.592,24.249-9l.022-.168c-6.154-.592-20.855-.89-24.459,9.122Z" transform="translate(-547.203 -101.782)" fill="#5e1212"/>
      <path id="Trazado_699377" data-name="Trazado 699377" d="M819.8,121.566q.4.207.868.5h.006c4.1,2.476,10.732,6.763,10.732,6.763l2.177,1.682a17.511,17.511,0,0,0,1.723-.431,31.285,31.285,0,0,0-15.088-10.2c-.18.608-.315,1.183-.418,1.691" transform="translate(-626.625 -95.592)" fill="#7ac4bd"/>
      <path id="Trazado_699378" data-name="Trazado 699378" d="M693.205,938.677l29.283,69.33c.246.038.49.065.734.079a7.861,7.861,0,0,0,.828.016c3.04-.133,5.818-2.005,7.81-3.815a26.421,26.421,0,0,0,2.128-2.183c.427-.5.729-.888.883-1.093l.12-.167c-2.92-16.127-19.562-67-19.562-67,6.183-4.923,11.031-12.135,14.81-20.049,10.255-21.449,12.667-48.032,12.667-48.032a32.313,32.313,0,0,0-8.534-5.907c-6.306-2.94-15.093-4.035-22.725,5.907-5.58,7.264-9.784,20.338-12.811,33.32a340.436,340.436,0,0,0-6.159,35.978,7.161,7.161,0,0,0,.527,3.621" transform="translate(-529.421 -684.036)" fill="#47525e"/>
      <path id="Trazado_699379" data-name="Trazado 699379" d="M719.022,475.753c-.514-33.85-.617-62.859,2.687-71.426,2.192-5.692,6.326-10.882,8.943-13.811-4.982,4.195-12.395,5.6-12.395,5.6-3.9-1.6-7.059-6.427-7.059-6.427l.315-1.437c-.347.707-11.726,23.9-11.135,28.495s.913,46.4-1.331,55.012c6.988,3.448,15.506,3.979,19.975,3.99" transform="translate(-534.325 -309.608)" fill="#e8e8e8"/>
      <path id="Trazado_699380" data-name="Trazado 699380" d="M465.589,481.371l2.154,17.906,8.614,4.477s21.55,33.491,29.444,37.045,11.109-1.238,11.109-1.238c3.176-8.649-4.931-12.96-4.931-12.96l-31.135-26.859c-2.867-2.471-1.973-8.34-2.334-10.65A2.6,2.6,0,0,0,476,486.776l-1.074,6.328-1.479-4.073a12.127,12.127,0,0,0-2.976-4.548,14.486,14.486,0,0,0-4.88-3.111" transform="translate(-355.878 -383.861)" fill="#ff8f6a"/>
      <path id="Trazado_699381" data-name="Trazado 699381" d="M824.888,84.3c0-.061.092-6.134,4.078-8.188,2.175-1.121,5.114-.858,8.736.78l.092-.15c-3.688-1.668-6.692-1.929-8.929-.776-4.081,2.1-4.173,8.27-4.173,8.332Z" transform="translate(-630.362 -60.012)" fill="#5e1212"/>
      <path id="Trazado_699382" data-name="Trazado 699382" d="M885.606,169.1a2.671,2.671,0,0,1,2.311,1.168s.141-2.24-2.311-1.168" transform="translate(-676.923 -134.612)" fill="#5e1212"/>
      <path id="Trazado_699383" data-name="Trazado 699383" d="M816.112,110.256a2.2,2.2,0,0,1,1.359,1.987s1.39-1.9-1.359-1.987" transform="translate(-623.805 -87.922)" fill="#5e1212"/>
      <path id="Trazado_699384" data-name="Trazado 699384" d="M708.961,221.175c6.662-.28,9.244-7.6,9.27-7.679l-.188-.048c-.025.073-2.569,7.283-9.091,7.558Z" transform="translate(-541.895 -170.211)" fill="#5e1212"/>
      <path id="Trazado_699385" data-name="Trazado 699385" d="M843.268,266.583c5.227-.414,5.535-7.1,3.78-8.058a2.228,2.228,0,0,0-1.652-.144,2.731,2.731,0,0,0-2.122,3.233,6.766,6.766,0,0,0,.591,1.619c.72,1.3-.6,3.349-.6,3.349" transform="translate(-644.511 -205.969)" fill="#db421a"/>
      <path id="Trazado_699386" data-name="Trazado 699386" d="M699.047,471.762l1.324.613c3.105-7.03,1.569-52.917,1.762-56.161s9.065-26.522,9.065-26.522l.315-1.437c-.347.707-11.726,23.9-11.135,28.495s.913,46.4-1.331,55.012" transform="translate(-534.325 -309.608)" fill="#cecccc"/>
      <path id="Trazado_699387" data-name="Trazado 699387" d="M782.936,474.86c.013.674.019,1.348.032,2.028.321,21.045,15.14,25.953,26.763,26.561a55.63,55.63,0,0,0,13.751-1.039l-15.108-53.8c10.427,2.874,20.862,14.369,20.862,14.369s2.674-3.675,1.6-18.044c-.907-12.236-11.8-42.3-15.024-50.966a5.11,5.11,0,0,0-3.664-3.062l-15.217-3.769-.006.005c-.084.077-1.022.984-2.359,2.481-2.616,2.929-6.75,8.118-8.942,13.811-3.3,8.566-3.2,37.575-2.687,71.425" transform="translate(-598.239 -308.716)" fill="#ad84ff"/>
      <path id="Trazado_699388" data-name="Trazado 699388" d="M679.035,831.539a17.046,17.046,0,0,0,3.706,2.994s-.977-14.525-.134-24.134a31.7,31.7,0,0,1,.873-5.495c-.773,2.593-4.647,16.183-4.445,26.635" transform="translate(-519.023 -641.857)" fill="#2e0877"/>
      <path id="Trazado_699389" data-name="Trazado 699389" d="M662.494,499.223c-.2-10.452,3.672-24.042,4.445-26.635.071-.243.115-.39.128-.428a.034.034,0,0,0,0-.011c.044-.138.089-.293.134-.453,2.243-8.615,1.911-50.431,1.331-55.012s10.788-27.789,11.133-28.494a.037.037,0,0,0,.008-.018l-9.818,1.575a4.823,4.823,0,0,0-3.753,2.735l-3.384,7.96s1.774,32.434,0,56.416c-.629,8.516-1.709,15.972-3.47,20.518-4.322,11.141-.241,18.211,3.242,21.847" transform="translate(-502.482 -309.541)" fill="#ad84ff"/>
      <path id="Trazado_699390" data-name="Trazado 699390" d="M694.22,808.713l1-5.923c-.013.038-.058.185-.128.428a31.7,31.7,0,0,0-.873,5.495" transform="translate(-530.635 -640.172)" fill="#7ac4bd"/>
      <path id="Trazado_699391" data-name="Trazado 699391" d="M661.07,504.675a42.919,42.919,0,0,0,4.468.481c1.774-23.98,0-56.415,0-56.415Z" transform="translate(-505.297 -357.841)" fill="#2e0877"/>
      <path id="Trazado_699392" data-name="Trazado 699392" d="M575.426,470.5l-4-17.3s-21.363-13.827-38.7-15.772c0,0,20.99,36.808,17.482,55.675,0,0,23.4,6.647,29.977,10.1a208.312,208.312,0,0,0-4.755-32.707" transform="translate(-407.192 -348.817)" fill="#e8e8e8"/>
      <path id="Trazado_699393" data-name="Trazado 699393" d="M572.552,470.5l-4-17.3s-21.362-13.827-38.7-15.772c0,0,20.99,36.808,17.482,55.675,0,0,23.4,6.647,29.977,10.1a208.313,208.313,0,0,0-4.756-32.707" transform="translate(-404.996 -348.817)" fill="#d1d1d1"/>
      <path id="Trazado_699394" data-name="Trazado 699394" d="M569.747,472.695l-4-17.3s-21.362-13.827-38.7-15.772c0,0,20.99,36.808,17.482,55.676,0,0,23.4,6.647,29.977,10.1a208.319,208.319,0,0,0-4.756-32.707" transform="translate(-402.852 -350.569)" fill="#e8e8e8"/>
      <path id="Trazado_699395" data-name="Trazado 699395" d="M640.226,581.908c2.4,3.244,7.56,13.64,7.9,14.529s11.707,6.35,11.707,6.35,32.157,16.348,45.542,20.316a21,21,0,0,0,3.754.829c9.438.884,11.231-5.637,11.231-5.637-9.733-11.589-20.862-14.369-20.862-14.369l-.3,2.061c-14.195-3.316-32.961-7.577-32.961-7.577-2.559-1.475-3.105-7.229-3.105-7.229-2.36-4.609-4.622-5.764-5.985-5.98-.636-.1-1.138.447-.887.956l2.411,4.875c-7.895-6.345-18.444-9.124-18.444-9.124" transform="translate(-489.364 -464.033)" fill="#ff8f6a"/>
      <path id="Trazado_699396" data-name="Trazado 699396" d="M886.917,556.008s.539-20.324-1.5-34.19c0,0,1.182,2.521,3.147,14.654a120.374,120.374,0,0,1,1.7,20.741Z" transform="translate(-676.782 -416.115)" fill="#2e0877"/>
      <path id="Trazado_699397" data-name="Trazado 699397" d="M739.181,1607.586s9.487-5.584,10.4-5.948c.724.485,6.733,4.4,8.9,2.693,2.3-1.82,8.272-7.147,11.212-7.683s5.184-6.5,5.184-6.5l0,.008c.116.149,3.432,4.531,3.484,7.479h0l0,.046a3.32,3.32,0,0,1-.042.561l-.888,12a6.874,6.874,0,0,1-2.308,0s0-6.054-.74-8.746a39.281,39.281,0,0,1-3.968,1.4,21.573,21.573,0,0,0-6.764,3.341c-3.026,2.267-8.6,4.568-13.115,4.318-4.353-.248-7.6.178-11.078-.749-1.271-.339-1.468-1.706-.275-2.224" transform="translate(-564.394 -1268.036)" fill="#252d33"/>
      <path id="Trazado_699398" data-name="Trazado 699398" d="M890.49,692.664s12.22,4,21.164,12.308c0,0-10.325-12.1-20.862-14.369Z" transform="translate(-680.656 -550.71)" fill="#db421a"/>
      <path id="Trazado_699399" data-name="Trazado 699399" d="M709.891,945.326s5.141-21.5,9.678-29.539L707.1,934.223Z" transform="translate(-540.479 -730.279)" fill="#39434c"/>
      <path id="Trazado_699400" data-name="Trazado 699400" d="M693.2,831.02s.419-26.852,6.45-26.241c9.183.929,13.274,6.583,15.922,14.2.231.68.488,1.387.765,2.133,4.751,12.8,24.7,12.026,24.7,12.026l-.064-.066c-11.623-.608-26.442-5.516-26.763-26.561-.013-.68-.019-1.354-.032-2.028-9.714.9-19.975-3.99-19.975-3.99-2.61,6.715-1,30.523-1,30.523" transform="translate(-529.484 -638.343)" fill="#39434c"/>
      <path id="Trazado_699401" data-name="Trazado 699401" d="M790.519,1589.711c.9.311,8.3,2.773,9.917.507,1.709-2.418,5.96-9.3,8.756-10.58s3.051-7.877,3.051-7.877l-2.55-6.964c-.155.2-.456.6-.883,1.093a26.448,26.448,0,0,1-2.128,2.183c-1.992,1.809-4.77,3.681-7.81,3.814a7.763,7.763,0,0,1-.828-.016c.474,2.043.957,4.364,1.276,6.394.6,3.853-5.795,9.179-8.8,11.445" transform="translate(-604.242 -1247.821)" fill="#ff8f6a"/>
      <path id="Trazado_699402" data-name="Trazado 699402" d="M753.463,1623.6l6.775-5.364.037-.032c.128-.091.686-.479,1.485-1.075.9.311,8.3,2.773,9.917.505,1.711-2.416,5.961-9.3,8.756-10.579s3.052-7.877,3.052-7.877l.008.006c.185.135,6.092,4.541,6.251,7.626h.007l-.005.073a2.205,2.205,0,0,1-.028.439c0,.01,0,.019-.007.029l-.943,12.742a7.236,7.236,0,0,1-2.431,0,57.625,57.625,0,0,0-.61-8.484c-.807.57-1.65,1.112-2.445,1.6a20.258,20.258,0,0,0-5.719,5.072c-2.3,3.051-6.33,7.431-10.987,8.3a34.086,34.086,0,0,1-12.336-.4,1.445,1.445,0,0,1-.776-2.578" transform="translate(-575.484 -1275.235)" fill="#39434c"/>
      <path id="Trazado_699403" data-name="Trazado 699403" d="M804.323,791.274c.161.4,6.075,6.6,20.3,8.765v-2.426s-.444-.094-1.2-.271c-3.626-.851-14.478-3.669-17.7-7.566,0,0-1.55,1.089-1.4,1.5" transform="translate(-614.785 -629.794)" fill="#2e0877"/>
      <path id="Trazado_699404" data-name="Trazado 699404" d="M662.4,580.167s-9.818-9.067-17.3-11.885l.569,3.276s14.252,6.4,16.726,8.608" transform="translate(-493.093 -453.167)" fill="#cecccc"/>
    </g>
  </g>
</svg>
