<svg xmlns="http://www.w3.org/2000/svg" xmlns:xlink="http://www.w3.org/1999/xlink" width="145" height="145" viewBox="0 0 145 145">
  <defs>
    <filter id="Elipse_5261" x="0" y="0" width="145" height="145" filterUnits="userSpaceOnUse">
      <feOffset dy="3" input="SourceAlpha"/>
      <feGaussianBlur stdDeviation="3" result="blur"/>
      <feFlood flood-opacity="0.161"/>
      <feComposite operator="in" in2="blur"/>
      <feComposite in="SourceGraphic"/>
    </filter>
  </defs>
  <g id="Grupo_999389" data-name="Grupo 999389" transform="translate(-719 -9541.003)">
    <g transform="matrix(1, 0, 0, 1, 719, 9541)" filter="url(#Elipse_5261)">
      <circle id="Elipse_5261-2" data-name="Elipse 5261" cx="63.5" cy="63.5" r="63.5" transform="translate(9 6)" fill="#ad84ff"/>
    </g>
    <g id="Layer_3" transform="translate(755.499 9559.202)">
      <g id="Grupo_930582" data-name="Grupo 930582" transform="translate(0.001 17.437)">
        <g id="Grupo_930525" data-name="Grupo 930525" transform="translate(0.703 9.686)">
          <path id="Trazado_667339" data-name="Trazado 667339" d="M44.956,51.875H4.437A1.936,1.936,0,0,0,2.5,53.811V82.924A1.936,1.936,0,0,0,4.437,84.86H44.956a1.936,1.936,0,0,0,1.936-1.936V53.811A1.936,1.936,0,0,0,44.956,51.875Z" transform="translate(-2.501 -51.875)" fill="#70d6f9"/>
        </g>
        <g id="Grupo_930526" data-name="Grupo 930526" transform="translate(13.064 21.557)">
          <path id="Trazado_667340" data-name="Trazado 667340" d="M64.654,94.085H48.028a1.576,1.576,0,1,0,0,3.152H64.654a1.576,1.576,0,0,0,0-3.152Z" transform="translate(-46.452 -94.085)" fill="#edf4fc"/>
        </g>
        <g id="Grupo_930527" data-name="Grupo 930527" transform="translate(29.778 21.557)">
          <path id="Trazado_667341" data-name="Trazado 667341" d="M107.364,94.085h-1.488v3.152h1.488a1.576,1.576,0,0,0,0-3.152Z" transform="translate(-105.876 -94.085)" fill="#3caadc"/>
        </g>
        <g id="Grupo_930528" data-name="Grupo 930528" transform="translate(0.703 33.853)">
          <path id="Trazado_667342" data-name="Trazado 667342" d="M2.5,137.8H46.892v3.146H2.5Z" transform="translate(-2.501 -137.803)" fill="#f5c84c"/>
        </g>
        <g id="Grupo_930529" data-name="Grupo 930529" transform="translate(0.703 33.853)">
          <path id="Trazado_667343" data-name="Trazado 667343" d="M2.5,137.8H7.087v3.146H2.5Z" transform="translate(-2.501 -137.803)" fill="#3caadc"/>
        </g>
        <g id="Grupo_930530" data-name="Grupo 930530" transform="translate(0.703 9.686)">
          <path id="Trazado_667344" data-name="Trazado 667344" d="M44.956,51.875H4.437A1.936,1.936,0,0,0,2.5,53.811v2.62A1.936,1.936,0,0,1,4.437,54.5H44.956a1.936,1.936,0,0,1,1.936,1.936v-2.62A1.936,1.936,0,0,0,44.956,51.875Z" transform="translate(-2.501 -51.875)" fill="#29589f"/>
        </g>
        <g id="Grupo_930531" data-name="Grupo 930531" transform="translate(6.008 50.699)">
          <path id="Trazado_667345" data-name="Trazado 667345" d="M53.588,197.7H23.225a1.87,1.87,0,0,0,0,3.741H53.588a1.87,1.87,0,0,0,0-3.741Z" transform="translate(-21.361 -197.7)" fill="#edf4fc"/>
        </g>
        <g id="Grupo_930532" data-name="Grupo 930532" transform="translate(43.514 49.397)">
          <path id="Trazado_667346" data-name="Trazado 667346" d="M164.5,196.049a5.383,5.383,0,0,0-9.633,0,1.419,1.419,0,0,0,1.258,2.064h7.116A1.419,1.419,0,0,0,164.5,196.049Z" transform="translate(-154.717 -193.07)" fill="#edf4fc"/>
        </g>
        <g id="Grupo_930533" data-name="Grupo 930533" transform="translate(0.703 36.999)">
          <path id="Trazado_667347" data-name="Trazado 667347" d="M2.5,148.989v3.735a1.936,1.936,0,0,0,1.936,1.936H44.956a1.936,1.936,0,0,0,1.936-1.936v-3.735Z" transform="translate(-2.501 -148.989)" fill="#29589f"/>
        </g>
        <g id="Grupo_930534" data-name="Grupo 930534" transform="translate(14.992 47.857)">
          <path id="Trazado_667348" data-name="Trazado 667348" d="M67.7,187.593H54.721a1.421,1.421,0,0,0,0,2.842H67.705a1.421,1.421,0,0,0,0-2.842Z" transform="translate(-53.307 -187.593)" fill="#29589f"/>
        </g>
        <g id="Grupo_930535" data-name="Grupo 930535" transform="translate(21.325 42.671)">
          <path id="Trazado_667349" data-name="Trazado 667349" d="M75.824,169.154H78.97v5.186H75.824Z" transform="translate(-75.824 -169.154)" fill="#173f7f"/>
        </g>
        <g id="Grupo_930536" data-name="Grupo 930536" transform="translate(67.598 9.84)">
          <path id="Trazado_667350" data-name="Trazado 667350" d="M242.883,52.423h-1.376a1.165,1.165,0,0,0-1.162,1.162V92.261a1.165,1.165,0,0,0,1.162,1.162h1.376a1.165,1.165,0,0,0,1.162-1.162V53.585A1.165,1.165,0,0,0,242.883,52.423Z" transform="translate(-240.346 -52.423)" fill="#29589f"/>
        </g>
        <g id="Grupo_930538" data-name="Grupo 930538" transform="translate(52.548 10.692)">
          <g id="Grupo_930537" data-name="Grupo 930537">
            <path id="Trazado_667351" data-name="Trazado 667351" d="M201.934,55.454H186.92a1.129,1.129,0,0,1,.016.155V94.285a1.15,1.15,0,0,1-.1.464h15.1a1.139,1.139,0,0,1-.048-.309V55.763a1.151,1.151,0,0,1,.048-.309Z" transform="translate(-186.837 -55.454)" fill="#173f7f"/>
          </g>
        </g>
        <g id="Grupo_930539" data-name="Grupo 930539" transform="translate(48.947 9.686)">
          <path id="Trazado_667352" data-name="Trazado 667352" d="M176.972,92.8a1.163,1.163,0,0,0,.762-1.086V53.037a1.165,1.165,0,0,0-1.162-1.162H175.2a1.165,1.165,0,0,0-1.162,1.162V91.608A5.351,5.351,0,0,1,176.972,92.8Z" transform="translate(-174.035 -51.875)" fill="#29589f"/>
        </g>
        <g id="Grupo_930541" data-name="Grupo 930541" transform="translate(52.548 37.877)">
          <g id="Grupo_930540" data-name="Grupo 930540">
            <path id="Trazado_667353" data-name="Trazado 667353" d="M201.887,152.187l-7.055,3.563a.761.761,0,0,1-.686,0l-7.21-3.641v11.647a1.15,1.15,0,0,1-.1.464h15.1a1.139,1.139,0,0,1-.048-.309V152.187Z" transform="translate(-186.837 -152.109)" fill="#29589f"/>
          </g>
        </g>
        <g id="Grupo_930542" data-name="Grupo 930542" transform="translate(56.392 39.768)">
          <path id="Trazado_667354" data-name="Trazado 667354" d="M204.653,160.582a.761.761,0,0,1-.686,0l-3.464-1.749v3.083l3.464,1.749a.761.761,0,0,0,.686,0l3.285-1.659v-3.083Z" transform="translate(-200.503 -158.833)" fill="#ef4460"/>
        </g>
        <g id="Grupo_930543" data-name="Grupo 930543" transform="translate(52.646 29.261)">
          <path id="Trazado_667355" data-name="Trazado 667355" d="M187.187,121.475h14.951v3.7H187.187Z" transform="translate(-187.187 -121.475)" fill="#29589f"/>
        </g>
        <g id="Grupo_930544" data-name="Grupo 930544" transform="translate(52.646 21.862)">
          <path id="Trazado_667356" data-name="Trazado 667356" d="M187.187,95.169h14.951v3.7H187.187Z" transform="translate(-187.187 -95.169)" fill="#29589f"/>
        </g>
        <g id="Grupo_930545" data-name="Grupo 930545" transform="translate(52.646 14.464)">
          <path id="Trazado_667357" data-name="Trazado 667357" d="M187.187,68.864h14.951v3.7H187.187Z" transform="translate(-187.187 -68.864)" fill="#29589f"/>
        </g>
        <g id="Grupo_930546" data-name="Grupo 930546" transform="translate(27.033 0)">
          <path id="Trazado_667358" data-name="Trazado 667358" d="M99.65,18.808h-.582v-.582a.789.789,0,0,0-1.578,0v.582h-.582a.789.789,0,1,0,0,1.578h.582v.582a.789.789,0,0,0,1.578,0v-.582h.582a.789.789,0,0,0,0-1.578Z" transform="translate(-96.119 -17.437)" fill="#f5c84c"/>
        </g>
        <g id="Grupo_930547" data-name="Grupo 930547" transform="translate(46.125 57.657)">
          <path id="Trazado_667359" data-name="Trazado 667359" d="M168.586,224.657a2.773,2.773,0,0,1-2.223-2.178.05.05,0,0,0-.1,0,2.773,2.773,0,0,1-2.223,2.178.049.049,0,0,0,0,.1,2.773,2.773,0,0,1,2.223,2.178.05.05,0,0,0,.1,0,2.773,2.773,0,0,1,2.223-2.178A.049.049,0,0,0,168.586,224.657Z" transform="translate(-163.999 -222.437)" fill="#3caadc"/>
        </g>
        <g id="Grupo_930548" data-name="Grupo 930548" transform="translate(18.514 4.506)">
          <ellipse id="Elipse_5154" data-name="Elipse 5154" cx="1.029" cy="0.686" rx="1.029" ry="0.686" transform="translate(0 0)" fill="#3caadc"/>
        </g>
        <g id="Grupo_930549" data-name="Grupo 930549" transform="translate(58.286 54.564)">
          <circle id="Elipse_5155" data-name="Elipse 5155" cx="1.029" cy="1.029" r="1.029" transform="translate(0 0)" fill="#87d147"/>
        </g>
        <g id="Grupo_930550" data-name="Grupo 930550" transform="translate(45.943 3.821)">
          <circle id="Elipse_5156" data-name="Elipse 5156" cx="1.029" cy="1.029" r="1.029" transform="translate(0 0)" fill="#e22342"/>
        </g>
        <g id="Grupo_930551" data-name="Grupo 930551" transform="translate(14.289 47.154)">
          <path id="Trazado_667360" data-name="Trazado 667360" d="M65.907,189.342H52.924a2.124,2.124,0,0,1,0-4.249H65.907a2.124,2.124,0,0,1,0,4.249ZM52.924,186.5a.712.712,0,0,0-.711.711.728.728,0,0,0,.711.725H65.907a.728.728,0,0,0,.711-.725.712.712,0,0,0-.711-.711Z" transform="translate(-50.806 -185.093)"/>
        </g>
        <g id="Grupo_930552" data-name="Grupo 930552" transform="translate(5.304 49.996)">
          <path id="Trazado_667361" data-name="Trazado 667361" d="M51.791,200.347H21.428a2.573,2.573,0,0,1,0-5.147H51.791a2.573,2.573,0,0,1,0,5.147Zm-30.363-3.741a1.183,1.183,0,0,0-1.16,1.174,1.162,1.162,0,0,0,1.16,1.16H51.791a1.162,1.162,0,0,0,1.16-1.16,1.183,1.183,0,0,0-1.16-1.174Z" transform="translate(-18.861 -195.2)"/>
        </g>
        <g id="Grupo_930553" data-name="Grupo 930553" transform="translate(66.894 9.137)">
          <path id="Trazado_667362" data-name="Trazado 667362" d="M241.087,92.329h-1.376a1.867,1.867,0,0,1-1.865-1.865V51.788a1.867,1.867,0,0,1,1.865-1.865h1.376a1.867,1.867,0,0,1,1.865,1.865V90.464A1.867,1.867,0,0,1,241.087,92.329Zm-1.375-41a.465.465,0,0,0-.459.459V90.464a.465.465,0,0,0,.459.459h1.376a.465.465,0,0,0,.459-.459V51.788a.465.465,0,0,0-.459-.459Z" transform="translate(-237.846 -49.923)"/>
        </g>
        <g id="Grupo_930556" data-name="Grupo 930556" transform="translate(51.845 9.989)">
          <g id="Grupo_930554" data-name="Grupo 930554" transform="translate(0.082)">
            <path id="Trazado_667363" data-name="Trazado 667363" d="M200.348,54.36H185.334a.7.7,0,0,1,0-1.406h15.014a.7.7,0,1,1,0,1.406Z" transform="translate(-184.631 -52.954)"/>
          </g>
          <g id="Grupo_930555" data-name="Grupo 930555" transform="translate(0 39.295)">
            <path id="Trazado_667364" data-name="Trazado 667364" d="M200.138,194.074h-15.1a.7.7,0,0,1,0-1.406h15.1a.7.7,0,0,1,0,1.406Z" transform="translate(-184.338 -192.668)"/>
          </g>
        </g>
        <g id="Grupo_930557" data-name="Grupo 930557" transform="translate(58.756 35.956)">
          <path id="Trazado_667365" data-name="Trazado 667365" d="M211.093,146.686h-1.48a.7.7,0,0,1,0-1.406h1.48a.7.7,0,1,1,0,1.406Z" transform="translate(-208.91 -145.28)"/>
        </g>
        <g id="Grupo_930558" data-name="Grupo 930558" transform="translate(0 8.983)">
          <path id="Trazado_667366" data-name="Trazado 667366" d="M43.159,83.766H2.64A2.642,2.642,0,0,1,0,81.127V52.014A2.642,2.642,0,0,1,2.64,49.375H43.159A2.642,2.642,0,0,1,45.8,52.014V81.127A2.642,2.642,0,0,1,43.159,83.766ZM2.64,50.781a1.235,1.235,0,0,0-1.233,1.233V81.127A1.235,1.235,0,0,0,2.64,82.36H43.159a1.235,1.235,0,0,0,1.233-1.233V52.014a1.235,1.235,0,0,0-1.233-1.233Z" transform="translate(-0.001 -49.375)"/>
        </g>
        <g id="Grupo_930559" data-name="Grupo 930559" transform="translate(0 11.603)">
          <path id="Trazado_667367" data-name="Trazado 667367" d="M45.095,62.033a.7.7,0,0,1-.7-.7A1.235,1.235,0,0,0,43.159,60.1H2.64A1.234,1.234,0,0,0,1.407,61.33.7.7,0,1,1,0,61.33,2.642,2.642,0,0,1,2.64,58.691H43.159A2.642,2.642,0,0,1,45.8,61.33.7.7,0,0,1,45.095,62.033Z" transform="translate(-0.001 -58.691)"/>
        </g>
        <g id="Grupo_930560" data-name="Grupo 930560" transform="translate(21.887 39.039)">
          <path id="Trazado_667368" data-name="Trazado 667368" d="M79.142,157.647h-.617a.7.7,0,1,1,0-1.406h.617a.7.7,0,1,1,0,1.406Z" transform="translate(-77.822 -156.241)"/>
        </g>
        <g id="Grupo_930561" data-name="Grupo 930561" transform="translate(20.622 41.968)">
          <path id="Trazado_667369" data-name="Trazado 667369" d="M77.174,173.246H74.027a.7.7,0,0,1-.7-.7v-5.186a.7.7,0,0,1,.7-.7h3.146a.7.7,0,0,1,.7.7v5.186A.7.7,0,0,1,77.174,173.246ZM74.73,171.84h1.74v-3.78H74.73Z" transform="translate(-73.324 -166.654)"/>
        </g>
        <g id="Grupo_930562" data-name="Grupo 930562" transform="translate(42.81 48.694)">
          <path id="Trazado_667370" data-name="Trazado 667370" d="M161.447,197.019h-7.116a2.1,2.1,0,0,1-1.8-1,2.124,2.124,0,0,1-.09-2.081,6.086,6.086,0,0,1,10.89,0h0a2.126,2.126,0,0,1-.091,2.081,2.1,2.1,0,0,1-1.8,1Zm-3.558-5.043a4.659,4.659,0,0,0-4.188,2.59.719.719,0,0,0,.029.712.7.7,0,0,0,.6.334h7.116a.7.7,0,0,0,.6-.334.717.717,0,0,0,.03-.712A4.659,4.659,0,0,0,157.889,191.976Z" transform="translate(-152.214 -190.57)"/>
        </g>
        <g id="Grupo_930563" data-name="Grupo 930563" transform="translate(48.244 8.983)">
          <path id="Trazado_667371" data-name="Trazado 667371" d="M175.175,91.705a.7.7,0,0,1-.245-1.362.461.461,0,0,0,.3-.427V51.24a.465.465,0,0,0-.459-.459H173.4a.465.465,0,0,0-.459.459V89.811a.7.7,0,0,1-1.406,0V51.24a1.867,1.867,0,0,1,1.865-1.865h1.376a1.867,1.867,0,0,1,1.865,1.865V89.916a1.872,1.872,0,0,1-1.22,1.745.7.7,0,0,1-.245.044Z" transform="translate(-171.534 -49.375)"/>
        </g>
        <g id="Grupo_930564" data-name="Grupo 930564" transform="translate(19.16 17.548)">
          <path id="Trazado_667372" data-name="Trazado 667372" d="M75.008,81.235h-6.18a.7.7,0,0,1,0-1.406h6.18a.7.7,0,0,1,0,1.406Z" transform="translate(-68.125 -79.829)"/>
        </g>
        <g id="Grupo_930565" data-name="Grupo 930565" transform="translate(12.361 20.854)">
          <path id="Trazado_667373" data-name="Trazado 667373" d="M62.856,96.143H46.231a2.279,2.279,0,1,1,0-4.559H62.857a2.279,2.279,0,1,1,0,4.559ZM46.231,92.991a.873.873,0,1,0,0,1.746H62.857a.873.873,0,1,0,0-1.746Z" transform="translate(-43.952 -91.584)"/>
        </g>
        <g id="Grupo_930566" data-name="Grupo 930566" transform="translate(24.117 27.026)">
          <path id="Trazado_667374" data-name="Trazado 667374" d="M87.6,114.934H86.453a.7.7,0,1,1,0-1.406H87.6a.7.7,0,1,1,0,1.406Z" transform="translate(-85.75 -113.528)"/>
        </g>
        <g id="Grupo_930567" data-name="Grupo 930567" transform="translate(19.234 27.026)">
          <path id="Trazado_667375" data-name="Trazado 667375" d="M70.241,114.934H69.092a.7.7,0,1,1,0-1.406h1.149a.7.7,0,0,1,0,1.406Z" transform="translate(-68.389 -113.528)"/>
        </g>
        <g id="Grupo_930570" data-name="Grupo 930570" transform="translate(51.845 37.174)">
          <g id="Grupo_930568" data-name="Grupo 930568" transform="translate(0.098)">
            <path id="Trazado_667376" data-name="Trazado 667376" d="M192.943,154.737a1.465,1.465,0,0,1-.66-.157l-7.21-3.64a.7.7,0,0,1,.634-1.255l7.21,3.64a.057.057,0,0,0,.052,0l7.056-3.563a.7.7,0,1,1,.634,1.255L193.6,154.58A1.461,1.461,0,0,1,192.943,154.737Z" transform="translate(-184.687 -149.609)"/>
          </g>
          <g id="Grupo_930569" data-name="Grupo 930569" transform="translate(0 12.11)">
            <path id="Trazado_667377" data-name="Trazado 667377" d="M200.138,194.074h-15.1a.7.7,0,0,1,0-1.406h15.1a.7.7,0,0,1,0,1.406Z" transform="translate(-184.338 -192.668)"/>
          </g>
        </g>
        <g id="Grupo_930571" data-name="Grupo 930571" transform="translate(55.689 39.065)">
          <path id="Trazado_667378" data-name="Trazado 667378" d="M202.514,162.652a1.465,1.465,0,0,1-.66-.157l-3.464-1.749a.7.7,0,0,1-.386-.627v-3.083a.7.7,0,1,1,1.406,0v2.65l3.078,1.554a.058.058,0,0,0,.052,0l2.9-1.464v-2.65a.7.7,0,1,1,1.406,0v3.083a.7.7,0,0,1-.386.627l-3.285,1.659A1.457,1.457,0,0,1,202.514,162.652Z" transform="translate(-198.004 -156.333)"/>
        </g>
        <g id="Grupo_930572" data-name="Grupo 930572" transform="translate(51.944 28.558)">
          <path id="Trazado_667379" data-name="Trazado 667379" d="M200.342,120.381H185.391a.7.7,0,1,1,0-1.406h14.951a.7.7,0,0,1,0,1.406Z" transform="translate(-184.688 -118.975)"/>
        </g>
        <g id="Grupo_930573" data-name="Grupo 930573" transform="translate(51.944 32.257)">
          <path id="Trazado_667380" data-name="Trazado 667380" d="M200.342,133.533H185.391a.7.7,0,1,1,0-1.406h14.951a.7.7,0,0,1,0,1.406Z" transform="translate(-184.688 -132.127)"/>
        </g>
        <g id="Grupo_930574" data-name="Grupo 930574" transform="translate(51.944 21.159)">
          <path id="Trazado_667381" data-name="Trazado 667381" d="M200.342,94.075H185.391a.7.7,0,1,1,0-1.406h14.951a.7.7,0,0,1,0,1.406Z" transform="translate(-184.688 -92.669)"/>
        </g>
        <g id="Grupo_930575" data-name="Grupo 930575" transform="translate(51.944 24.858)">
          <path id="Trazado_667382" data-name="Trazado 667382" d="M200.342,107.228H185.391a.7.7,0,1,1,0-1.406h14.951a.7.7,0,0,1,0,1.406Z" transform="translate(-184.688 -105.822)"/>
        </g>
        <g id="Grupo_930576" data-name="Grupo 930576" transform="translate(51.944 13.761)">
          <path id="Trazado_667383" data-name="Trazado 667383" d="M200.342,67.77H185.391a.7.7,0,1,1,0-1.406h14.951a.7.7,0,0,1,0,1.406Z" transform="translate(-184.688 -66.364)"/>
        </g>
        <g id="Grupo_930577" data-name="Grupo 930577" transform="translate(51.944 17.46)">
          <path id="Trazado_667384" data-name="Trazado 667384" d="M200.342,80.923H185.391a.7.7,0,1,1,0-1.406h14.951a.7.7,0,0,1,0,1.406Z" transform="translate(-184.688 -79.517)"/>
        </g>
        <g id="Grupo_930578" data-name="Grupo 930578" transform="translate(0 33.15)">
          <path id="Trazado_667385" data-name="Trazado 667385" d="M45.1,136.709H.7a.7.7,0,0,1,0-1.406H45.1a.7.7,0,0,1,0,1.406Z" transform="translate(-0.001 -135.303)"/>
        </g>
        <g id="Grupo_930579" data-name="Grupo 930579" transform="translate(0 36.296)">
          <path id="Trazado_667386" data-name="Trazado 667386" d="M45.1,147.9H.7a.7.7,0,0,1,0-1.406H45.1a.7.7,0,0,1,0,1.406Z" transform="translate(-0.001 -146.489)"/>
        </g>
        <g id="Grupo_930580" data-name="Grupo 930580" transform="translate(4.586 33.15)">
          <path id="Trazado_667387" data-name="Trazado 667387" d="M17.011,139.855a.7.7,0,0,1-.7-.7v-3.146a.7.7,0,1,1,1.406,0v3.146A.7.7,0,0,1,17.011,139.855Z" transform="translate(-16.308 -135.303)"/>
        </g>
        <g id="Grupo_930581" data-name="Grupo 930581" transform="translate(29.074 20.854)">
          <path id="Trazado_667388" data-name="Trazado 667388" d="M104.078,96.143a.7.7,0,0,1-.7-.7V92.288a.7.7,0,1,1,1.406,0V95.44A.7.7,0,0,1,104.078,96.143Z" transform="translate(-103.375 -91.585)"/>
        </g>
      </g>
    </g>
  </g>
</svg>
