<svg xmlns="http://www.w3.org/2000/svg" width="525" height="238.021" viewBox="0 0 525 238.021">
  <g id="Grupo_999357" data-name="Grupo 999357" transform="translate(-285 -4800.877)">
    <rect id="BG" width="525" height="238.021" transform="translate(285 4800.877)" fill="#e8e8e8" opacity="0.949"/>
    <g id="Grupo_1" data-name="Grupo 1" transform="translate(-178.75 4639.217)">
      <g id="Group_2" data-name="Group 2" transform="translate(581 264.898)">
        <path id="Fill_105" data-name="Fill 105" d="M2.169,18.07H5.207V0H0Z" transform="translate(80.548 72.891)" fill="#d4dff9"/>
        <path id="Fill_107" data-name="Fill 107" d="M3.037,18.07H0V0H5.207Z" transform="translate(13.169 72.891)" fill="#d4dff9"/>
        <path id="Fill_109" data-name="Fill 109" d="M3.945,39.815H94.673a3.941,3.941,0,0,0,3.945-3.938V3.938A3.941,3.941,0,0,0,94.673,0H3.945A3.941,3.941,0,0,0,0,3.938V35.877a3.941,3.941,0,0,0,3.945,3.938" transform="translate(0 34.302)" fill="#f0f5ff"/>
        <path id="Stroke_111" data-name="Stroke 111" d="M2.372,20.52H90.12a2.369,2.369,0,0,0,2.372-2.365V2.365A2.369,2.369,0,0,0,90.12,0H2.372A2.368,2.368,0,0,0,0,2.365V18.155A2.368,2.368,0,0,0,2.372,20.52Z" transform="translate(3.063 36.752)" fill="none" stroke="#d4dff9" stroke-miterlimit="10" stroke-width="2"/>
        <path id="Stroke_113" data-name="Stroke 113" d="M2.226,11.944h88.04a2.217,2.217,0,0,0,2.226-2.208V2.208A2.217,2.217,0,0,0,90.266,0H2.226A2.217,2.217,0,0,0,0,2.208V9.737A2.217,2.217,0,0,0,2.226,11.944Z" transform="translate(3.063 59.109)" fill="none" stroke="#d4dff9" stroke-miterlimit="10" stroke-width="2"/>
        <path id="Fill_115" data-name="Fill 115" d="M1.325,2.756H8.169A1.352,1.352,0,0,0,9.494,1.378,1.352,1.352,0,0,0,8.169,0H1.325A1.352,1.352,0,0,0,0,1.378,1.352,1.352,0,0,0,1.325,2.756" transform="translate(44.715 38.283)" fill="#bbd1f5"/>
        <path id="Fill_117" data-name="Fill 117" d="M1.325,2.756H8.169A1.352,1.352,0,0,0,9.494,1.378,1.352,1.352,0,0,0,8.169,0H1.325A1.352,1.352,0,0,0,0,1.378,1.352,1.352,0,0,0,1.325,2.756" transform="translate(44.715 60.641)" fill="#bbd1f5"/>
        <path id="Fill_119" data-name="Fill 119" d="M0,29.4H6.432V0H0Z" transform="translate(15.926 4.9)" fill="#bbd1f5"/>
        <path id="Fill_121" data-name="Fill 121" d="M0,2.756H4.594V0H0Z" transform="translate(16.845 6.738)" fill="#fff"/>
        <path id="Fill_122" data-name="Fill 122" d="M0,29.4H6.432V0H0Z" transform="translate(22.357 4.9)" fill="#b7bfe7"/>
        <path id="Fill_123" data-name="Fill 123" d="M0,2.756H4.594V0H0Z" transform="translate(23.276 6.738)" fill="#fff"/>
        <path id="Fill_124" data-name="Fill 124" d="M0,29.4H6.432V0H0Z" transform="translate(28.789 4.9)" fill="#bbd1f5"/>
        <path id="Fill_125" data-name="Fill 125" d="M0,2.756H4.594V0H0Z" transform="translate(29.708 6.738)" fill="#fff"/>
        <path id="Fill_126" data-name="Fill 126" d="M19.221,24.219a14.623,14.623,0,0,1-9.34,5.142v2.693a.6.6,0,0,1-.007.09h7.659a.719.719,0,0,1,.719.719v.719a.719.719,0,0,1-.719.719H.719A.718.718,0,0,1,0,33.583v-.719a.718.718,0,0,1,.719-.719h7.55a.6.6,0,0,1,0-.09V28.638a.808.808,0,0,1,.808-.809.911.911,0,0,1,.158.015A13.164,13.164,0,0,0,7.646,1.585.786.786,0,0,1,6.84.811.787.787,0,0,1,7.611,0a14.748,14.748,0,0,1,11.61,24.215" transform="translate(53.29 0)" fill="#bbd1f5"/>
        <path id="Fill_127" data-name="Fill 127" d="M22.051,11.026A11.026,11.026,0,1,1,11.025,0,11.026,11.026,0,0,1,22.051,11.026" transform="translate(50.534 3.675)" fill="#d4dff9"/>
      </g>
      <g id="Group_9" data-name="Group 9" transform="translate(714.532 202.42)">
        <g id="Group_5" data-name="Group 5" transform="translate(0 14.701)">
          <path id="Fill_11" data-name="Fill 11" d="M.006,7.7a1.5,1.5,0,0,0,.114.467H17.037a.018.018,0,0,0,.016-.012,3.191,3.191,0,0,1,.276-.5c.5-.7.962-.39,1.261-.019a2.775,2.775,0,0,1,.171.243.6.6,0,0,0,.511.29h1.586a.594.594,0,0,0,.558-.378c.357-.968.885-1.6.36-7.251A.6.6,0,0,0,21.18,0H14.692a.594.594,0,0,0-.376.135,27.2,27.2,0,0,1-2.394,1.739c-.068.044-.138.089-.206.131-.469.3-.937.574-1.4.831q-.109.063-.217.119A30.117,30.117,0,0,1,1.209,6.121a1.475,1.475,0,0,0-.869.506A1.45,1.45,0,0,0,.006,7.7" transform="translate(55.806 156.907)" fill="#0a173b"/>
          <path id="Fill_13" data-name="Fill 13" d="M.006,7.7a1.5,1.5,0,0,0,.114.467H17.037a.018.018,0,0,0,.016-.012,3.191,3.191,0,0,1,.276-.5c.5-.7.962-.39,1.261-.019a2.775,2.775,0,0,1,.171.243.6.6,0,0,0,.511.29h1.586a.594.594,0,0,0,.558-.378c.357-.968.885-1.6.36-7.251A.6.6,0,0,0,21.18,0H14.692a.594.594,0,0,0-.376.135,27.2,27.2,0,0,1-2.394,1.739c-.068.044-.138.089-.206.131-.469.3-.937.574-1.4.831q-.109.063-.217.119A30.117,30.117,0,0,1,1.209,6.121a1.475,1.475,0,0,0-.869.506A1.45,1.45,0,0,0,.006,7.7" transform="translate(27.532 156.907)" fill="#0a173b"/>
          <path id="Fill_15" data-name="Fill 15" d="M38.554,82.422H29.675l-12.384-44.6L10.749,82.188l-9.58.233L.037,2.68.03,2.122,0,0,33.414,1.4V36.658Z" transform="translate(39.722 74.952)" fill="#d5dcf4"/>
          <path id="Fill_17" data-name="Fill 17" d="M33.383.208V9.529C28.554,2.837,6.93.985.007.558L0,0Z" transform="translate(39.752 77.075)" fill="#aab1c9"/>
          <path id="Fill_19" data-name="Fill 19" d="M35.692,27.785H3.33A3.328,3.328,0,0,1,0,24.458V3.327A3.328,3.328,0,0,1,3.33,0H35.692a3.328,3.328,0,0,1,3.33,3.327V24.458a3.328,3.328,0,0,1-3.33,3.327" transform="translate(46.732 92.931)" fill="#aab1c9"/>
          <path id="Fill_21" data-name="Fill 21" d="M17.291,11.091H0V3.327A3.328,3.328,0,0,1,3.33,0H13.961a3.329,3.329,0,0,1,3.33,3.327v7.763ZM3.33,1.868a1.461,1.461,0,0,0-1.46,1.459v5.9H15.422v-5.9a1.461,1.461,0,0,0-1.46-1.459Z" transform="translate(56.896 84.409)" fill="#aab1c9"/>
          <path id="Fill_23" data-name="Fill 23" d="M37.152.467H.234A.233.233,0,1,1,.234,0H37.152a.233.233,0,1,1,0,.467" transform="translate(47.491 103.555)" fill="#0a173b"/>
          <path id="Fill_25" data-name="Fill 25" d="M6.338,4.9H1.84A1.839,1.839,0,0,1,0,3.065V1.839A1.839,1.839,0,0,1,1.84,0h4.5a1.839,1.839,0,0,1,1.84,1.839V3.065A1.839,1.839,0,0,1,6.338,4.9" transform="translate(62.095 101.453)" fill="#0a173b"/>
          <path id="Fill_27" data-name="Fill 27" d="M8.177,0l-2.8,1.4L3,.808A1.129,1.129,0,0,0,2.18.916L.582,1.8A.279.279,0,0,0,.443,2L0,4.43a0,0,0,0,0,.005.005l1.319-.188A.467.467,0,0,0,1.711,3.9l.157-.63L4.875,6.7a.531.531,0,0,0,.626.13L9.579,4.9Z" transform="translate(0 66.547)" fill="#f28887"/>
          <path id="Fill_29" data-name="Fill 29" d="M2,0,.834,4.67s-2.8,3.5,1.869,4.436C7.827,10.13,8.253,6.421,8.253,6.421L7.116,5.385a1.807,1.807,0,0,1-.521-1.833L7.61,0Z" transform="translate(61.319 79.856)" fill="#f28887"/>
          <path id="Fill_31" data-name="Fill 31" d="M.788,0,.067,2.161A1.3,1.3,0,0,0,1,3.834L5.271,4.865A1.3,1.3,0,0,0,6.8,4.052L8.032.7Z" transform="translate(62.3 77.521)" fill="#effff5"/>
          <path id="Fill_33" data-name="Fill 33" d="M1.669.1.445.772a.853.853,0,0,0-.433.889L.89,6.928a.854.854,0,0,0,1.224.623L4.556,6.33a.853.853,0,0,0,.4-1.11L2.858.507A.854.854,0,0,0,1.669.1" transform="translate(8.032 65.017)" fill="#effff5"/>
          <path id="Fill_71" data-name="Fill 71" d="M24.186,6.771c-.322.016-.726.033-1.2.044-.051,0-.1,0-.152,0l-1.115.021c-5.748.089-17.221-.026-20.7-.063-.467,0-.79-.009-.937-.012H0L1.58,6.3,23.018,0l.208,1.2.453,2.624Z" transform="translate(39.602 70.516)" fill="#00b1ba"/>
          <path id="Fill_73" data-name="Fill 73" d="M70.675,29.21,64.444,45.542l-2.708,7.1-.428,1.121A2.115,2.115,0,0,1,59.032,55.1l-4.795-.684a1.526,1.526,0,0,1-1.273-1.835c0-.026.012-.051.019-.077l.245-.9-.142.016c-.367.042-.753.084-1.157.124-6.218.6-16.658.745-20.9.782h0l-.968.007h-.086c-.523,0-.815,0-.815,0L27.291,34.556l-.622.336L1.993,48.22a.511.511,0,0,1-.75-.369L.007,40.027a.508.508,0,0,1,.234-.514L16.847,29.088l1.332-.836q.55-2.6,1.178-4.859c3.533-12.877,8.4-17.556,8.4-17.556L40.234,1.179,48.087,0,65.547,6.809A3.317,3.317,0,0,1,67.6,9.263l3.33,17.028a5.318,5.318,0,0,1-.252,2.919" transform="translate(9.626 24.752)" fill="#00b1ba"/>
          <path id="Fill_75" data-name="Fill 75" d="M0,0,1.4,6.771.814,15.394l7.831-1.385-.935-5.6,1.4-7.284Z" transform="translate(48.133 27.32)" fill="#effff5"/>
          <path id="Fill_77" data-name="Fill 77" d="M0,4.706,1.57,8.156h2.2L6.907,5.333,4.081,0,.942,1.569Z" transform="translate(49.861 25.932)" fill="#3107ad"/>
          <path id="Fill_79" data-name="Fill 79" d="M4.081,2.51,7.534,7.529,9.418,0,.942,1.255,0,7.529Z" transform="translate(48.919 24.677)" fill="#e8eeff"/>
          <path id="Fill_81" data-name="Fill 81" d="M2.516.471,0,8.784.628,26.037,5.651,10.666,4.709,0Z" transform="translate(48.919 33.147)" fill="#3107ad"/>
          <path id="Fill_83" data-name="Fill 83" d="M5.337,0,1.884,1.882,0,10.038H4.4L0,10.979,4.709,34.821Z" transform="translate(44.838 25.305)" fill="#2ac6b4"/>
          <path id="Fill_85" data-name="Fill 85" d="M8.162,1.569,0,35.762,10.829,13.193a.267.267,0,0,0-.206-.38l-4.344-.579h4.354a.379.379,0,0,0,.378-.354l.6-9.371S8.79.119,7.848,0Z" transform="translate(49.547 23.422)" fill="#2ac6b4"/>
          <path id="Fill_87" data-name="Fill 87" d="M4.664,14.416s-1.588-1.058-1.893-4.74a.3.3,0,0,0-.129-.223A4.956,4.956,0,0,1,1.015,7.392a11.427,11.427,0,0,1-.95-3.514,3.079,3.079,0,0,1,.72-2.9A3.96,3.96,0,0,1,2.7.125,4.656,4.656,0,0,1,4.459.056a2.385,2.385,0,0,1,1.5.872c.484.656.536,1.545,1.214,2.065a4.353,4.353,0,0,0,2.491.632,22.055,22.055,0,0,0,3.37-.213q.58-.063,1.158-.143a2.192,2.192,0,0,1,2.721,2.447s3.453.337,2.406,7.645L14.73,17.134Z" transform="translate(40.286)" fill="#0a173b"/>
          <path id="Fill_89" data-name="Fill 89" d="M7.536,8.157C2.512,12.548,0,9.723,0,9.723V4.706L3.81,2.112,6.907,0l.067.863.039.5.033.434Z" transform="translate(50.236 16.602)" fill="#f3b5a5"/>
          <path id="Fill_91" data-name="Fill 91" d="M4.485,41.911,3.9,42.25h0l-.03.019c-.467,0-.79-.009-.937-.012H2.847c-.523,0-.815,0-.815,0L.162,24.283S-.2,1.333.162,0c0,0,.923,34.851,4.264,41.792.019.042.04.082.058.119" transform="translate(36.756 35.026)" fill="#1c84ae"/>
          <path id="Fill_93" data-name="Fill 93" d="M2.57,0V7.883H0Z" transform="translate(71.5 69.638)" fill="#1c84ae"/>
          <path id="Fill_95" data-name="Fill 95" d="M4.136,6.026,0,5.695l1.332-.836Q1.882,2.257,2.51,0A15.711,15.711,0,0,0,4.136,6.026" transform="translate(26.473 48.145)" fill="#1c84ae"/>
          <path id="Fill_97" data-name="Fill 97" d="M10.477.682C7.358,5.936,4.62,7.592,3.431,8.093V4.953A3.869,3.869,0,0,1,2.195,4.84,4.119,4.119,0,0,1,0,3.275L7.241,1,10.313.033,10.424,0l.02.248Z" transform="translate(46.805 17.712)" fill="#f28887"/>
          <path id="Fill_99" data-name="Fill 99" d="M15.228,2.383a2.757,2.757,0,0,1-.061.6A2.185,2.185,0,0,1,13.05,4.56,5.38,5.38,0,0,1,12.8,5.976c-.025.089-.056.184-.092.281a.3.3,0,0,1-.014.045c-.025.081-.058.164-.095.25-.646,1.609-2.228,3.729-6.074,4.531a4.894,4.894,0,0,1-.7.095,3.863,3.863,0,0,1-1.237-.114A4.12,4.12,0,0,1,2.392,9.5C.989,7.665.407,4.718.164,2.578.056,1.615.014.817,0,.357A.289.289,0,0,1,.387.077,16.8,16.8,0,0,0,9.263.009.282.282,0,0,1,9.6.2c.668,2,1.454,2.688,2.077,2.872a1.007,1.007,0,0,0,1.25-.738l.27-1.082A.736.736,0,0,1,13.95.694a1.279,1.279,0,0,1,1.237,1.177,2.826,2.826,0,0,1,.042.512" transform="translate(44.413 11.488)" fill="#f3b5a5"/>
          <path id="Fill_128" data-name="Fill 128" d="M.234,38.293A.234.234,0,0,1,.008,38l6.53-24.7L4.443.271A.234.234,0,0,1,4.9.2l2.1,13.075a.229.229,0,0,1,0,.1L.46,38.119a.234.234,0,0,1-.226.174" transform="translate(62.387 39.228)" fill="#0a173b"/>
          <path id="Fill_133" data-name="Fill 133" d="M1.058,24.75a.233.233,0,0,1-.232-.205C-1.026,9.5.811.278.83.187a.234.234,0,0,1,.458.094c-.018.091-1.839,9.25,0,24.208a.234.234,0,0,1-.2.26l-.029,0" transform="translate(36.326 34.792)" fill="#0a173b"/>
          <path id="Fill_134" data-name="Fill 134" d="M0,7l2.8.233V0Z" transform="translate(71.266 70.283)" fill="#1c84ae"/>
          <path id="Fill_135" data-name="Fill 135" d="M.234,9.934a.234.234,0,0,1-.218-.317L3.628.151a.234.234,0,0,1,.437.166L.452,9.783a.235.235,0,0,1-.218.15" transform="translate(71.078 67.821)" fill="#0a173b"/>
        </g>
        <path id="Fill_137" data-name="Fill 137" d="M0,11.944H41.211A5.972,5.972,0,0,0,41.211,0H5.954A5.963,5.963,0,0,0,0,5.972Z" transform="translate(58.803)" fill="#94baf5"/>
      </g>
      <g id="Group_10" data-name="Group 10" transform="translate(618.058 202.42)">
        <g id="Group_4" data-name="Group 4" transform="translate(23.582 15.313)">
          <path id="Fill_35" data-name="Fill 35" d="M10.685,4.492,16.76,6.253a2.315,2.315,0,0,1,1.671,2.223,1.756,1.756,0,0,1-1.758,1.755H1.9A1.9,1.9,0,0,1,0,8.275L.19,2.246,6.187,0Z" transform="translate(0 156.377)" fill="#b6badc"/>
          <path id="Fill_37" data-name="Fill 37" d="M10.685,4.492,16.76,6.253a2.315,2.315,0,0,1,1.671,2.223,1.756,1.756,0,0,1-1.758,1.755H1.9A1.9,1.9,0,0,1,0,8.275L.19,2.246,6.187,0Z" transform="translate(27.272 156.377)" fill="#b6badc"/>
          <path id="Fill_39" data-name="Fill 39" d="M8.828,0,8.763,1.727,8.669,4.113l-.011.327L0,3.972.234,0Z" transform="translate(16.956 18.46)" fill="#f3b5a5"/>
          <path id="Fill_41" data-name="Fill 41" d="M30.039,1.636,33.081,43.93l4.914,43H26.3L17.441,40.448l-.271-1.424-5.85,48.6H.089s-.936-36.219,3.276-46.5c0,0-5.616-24.536-1.638-41.126Z" transform="translate(0.02 73.841)" fill="#d5dcf4"/>
          <path id="Fill_43" data-name="Fill 43" d="M4.186,3.082A1.537,1.537,0,0,1,2.6,2.9L2.511,5.281A6.77,6.77,0,0,1,0,1.168H1.769C1.881.75,1.989.36,2.09,0H3.447Z" transform="translate(23.114 17.292)" fill="#f28887"/>
          <path id="Fill_45" data-name="Fill 45" d="M.7,0,2.156,1.306a4.536,4.536,0,0,0,2.05,1.055l.942.209L10.3,6.543,6.184,9.63a1.242,1.242,0,0,1-1.269.117A18.321,18.321,0,0,1,0,6.075Z" transform="translate(68.902 65.428)" fill="#f3b5a5"/>
          <path id="Fill_47" data-name="Fill 47" d="M2.739,18.523l7.538.612,5.912-7.591s2.745.633,3.8-4.006-1.9-4.006-6.123-6.115S2.254-1.106.565,4.8c-1.615,5.645.63,11.482,1.753,13.458a.531.531,0,0,0,.421.268" transform="translate(14.849)" fill="#0a173b"/>
          <path id="Fill_49" data-name="Fill 49" d="M6.968,1.477A43.116,43.116,0,0,1,4.013,10.12,3.434,3.434,0,0,1,2.6,11.782a1.536,1.536,0,0,1-1.582-.187A3.958,3.958,0,0,1,0,10.543c.061-.234.122-.458.18-.675C.292,9.45.4,9.059.5,8.7c.753-2.687,1.189-3.849,1.189-3.849S0,4.638.634,2.531,3.379,1.9,3.379,1.9L4.013,0c.634,1.054,2.956,1.477,2.956,1.477" transform="translate(24.703 8.592)" fill="#f3b5a5"/>
          <path id="Fill_51" data-name="Fill 51" d="M70.1,44.77l-.711,7.1a.826.826,0,0,1-1.231.636L36.76,34.617a2.864,2.864,0,0,1-1.111-1.152L33.461,29.3s-.007.04-.019.112c-.225,1.3-2.309,13.6-2.087,16.479a18.571,18.571,0,0,1-1.872,8.88S9.594,57.8,0,53.131c0,0,.7-33.883,2.34-39.491S6.084,6.864,6.084,6.864l8.424-4.44L14.814.737A.9.9,0,0,1,15.86.015l8.618,1.563a.968.968,0,0,1,.793.951v1.3L36.978,9.14a3.321,3.321,0,0,1,1.671,1.7l5.8,13.319.711,1.636,1.165.837L69.392,43.2A1.721,1.721,0,0,1,70.1,44.77" transform="translate(0.576 21.177)" fill="#6d4ef9"/>
          <path id="Fill_53" data-name="Fill 53" d="M23.4,3.505a.231.231,0,0,1-.087-.017C16.413.732.392.47.231.468A.234.234,0,1,1,.238,0C.4,0,16.507.267,23.486,3.055a.234.234,0,0,1-.087.451" transform="translate(6.192 29.676)" fill="#0a173b"/>
          <path id="Fill_55" data-name="Fill 55" d="M2.106,27.573a18.571,18.571,0,0,1-1.872,8.88L0,0,4.193,11.095c-.225,1.3-2.309,13.6-2.087,16.479" transform="translate(29.825 39.491)" fill="#3107ad"/>
          <path id="Fill_59" data-name="Fill 59" d="M.423,43.463a.234.234,0,0,1-.233-.214C-1.2,26.809,5.51.44,5.578.176a.234.234,0,0,1,.453.116C5.964.556-.729,26.849.656,43.21a.234.234,0,0,1-.213.253H.423" transform="translate(7.641 31.078)" fill="#0a173b"/>
          <path id="Fill_61" data-name="Fill 61" d="M3.744,10.048a.234.234,0,0,1-.21-.129C2.37,7.593.107.6.011.305A.234.234,0,0,1,.457.162C.48.234,2.8,7.416,3.953,9.71a.234.234,0,0,1-.209.338" transform="translate(30.293 40.659)" fill="#0a173b"/>
          <path id="Fill_63" data-name="Fill 63" d="M0,0,3.915,39.252,5.827,23.367Z" transform="translate(11.362 89.497)" fill="#aab1c9"/>
          <path id="Fill_65" data-name="Fill 65" d="M.234,4.206a.234.234,0,0,1-.191-.368C1.705,1.466,5.835.071,6.01.012a.234.234,0,1,1,.148.444C6.117.469,2,1.861.426,4.107a.233.233,0,0,1-.192.1" transform="translate(31.463 31.078)" fill="#0a173b"/>
          <path id="Fill_69" data-name="Fill 69" d="M6.247,26.092a.234.234,0,0,1-.221-.157C3.174,17.755.035.449,0,.275A.234.234,0,0,1,.464.192c.031.173,3.164,17.443,6,25.589a.234.234,0,0,1-.221.311" transform="translate(11.106 87.861)" fill="#0a173b"/>
        </g>
        <path id="Fill_136" data-name="Fill 136" d="M47.165,11.944H5.954A5.972,5.972,0,0,1,5.954,0H41.211a5.963,5.963,0,0,1,5.954,5.972Z" transform="translate(0)" fill="#94baf5"/>
      </g>
      <g id="Group_6" data-name="Group 6" transform="translate(691.868 177)">
        <path id="Fill_138" data-name="Fill 138" d="M42.373,66.766H1.729A1.732,1.732,0,0,1,0,65.032V1.734A1.732,1.732,0,0,1,1.729,0H42.373A1.732,1.732,0,0,1,44.1,1.734v63.3a1.732,1.732,0,0,1-1.729,1.734" fill="#f0f5ff"/>
        <path id="Fill_139" data-name="Fill 139" d="M26.951,13.476A13.476,13.476,0,1,1,13.476,0,13.475,13.475,0,0,1,26.951,13.476" transform="translate(8.575 4.594)" fill="#00b1ba"/>
        <path id="Fill_140" data-name="Fill 140" d="M4.038,10.719a1.171,1.171,0,0,1-.921-.448L.26,6.658A1.212,1.212,0,0,1,.441,4.972,1.168,1.168,0,0,1,2.1,5.156L4.225,7.843,13.709.257a1.168,1.168,0,0,1,1.658.2,1.212,1.212,0,0,1-.2,1.684l-10.4,8.321a1.164,1.164,0,0,1-.729.257" transform="translate(14.701 12.251)" fill="#e8eeff"/>
        <path id="Fill_141" data-name="Fill 141" d="M25.862,3.981H.476C.213,3.981,0,3.675,0,3.3V.684C0,.306.213,0,.476,0H25.862c.263,0,.476.306.476.684V3.3c0,.378-.213.684-.476.684" transform="translate(3.063 38.283)" fill="#d5e0ff"/>
        <path id="Fill_142" data-name="Fill 142" d="M37.29,3.981H.687A.686.686,0,0,1,0,3.3V.684A.686.686,0,0,1,.687,0h36.6a.685.685,0,0,1,.687.684V3.3a.686.686,0,0,1-.687.684" transform="translate(3.063 45.634)" fill="#d5e0ff"/>
      </g>
      <g id="Group_8" data-name="Group 8" transform="translate(595.701 222.94)">
        <path id="Fill_129" data-name="Fill 129" d="M28.8,30.627H1.827A1.827,1.827,0,0,1,0,28.8V1.827A1.827,1.827,0,0,1,1.827,0H28.8a1.827,1.827,0,0,1,1.827,1.827V28.8A1.827,1.827,0,0,1,28.8,30.627" fill="#f0f5ff"/>
        <path id="Fill_130" data-name="Fill 130" d="M26.339,1.819v22.7a1.819,1.819,0,0,1-1.819,1.819H1.819A1.819,1.819,0,0,1,0,24.519V1.819A1.819,1.819,0,0,1,1.819,0h22.7a1.819,1.819,0,0,1,1.819,1.819" transform="translate(2.144 2.144)" fill="#fff"/>
        <path id="Fill_131" data-name="Fill 131" d="M26.339,0V18.383a1.825,1.825,0,0,1-1.819,1.83H1.819A1.825,1.825,0,0,1,0,18.383V16.7c1.731-3.554,4.736-7.82,9.184-7.82,7.624,0,7.624,1.743,10.4-4.184A7.719,7.719,0,0,1,26.339,0" transform="translate(2.144 8.269)" fill="#bbd1f5"/>
        <path id="Fill_132" data-name="Fill 132" d="M6.738,3.369A3.369,3.369,0,1,1,3.369,0,3.369,3.369,0,0,1,6.738,3.369" transform="translate(6.738 4.594)" fill="#d6ddf5"/>
      </g>
    </g>
  </g>
</svg>
