<svg id="Grupo_888968" data-name="Grupo 888968" xmlns="http://www.w3.org/2000/svg" xmlns:xlink="http://www.w3.org/1999/xlink" width="273" height="261.513" viewBox="0 0 273 261.513">
  <defs>
    <clipPath id="clip-path">
      <rect id="Rectángulo_326263" data-name="Rectángulo 326263" width="273" height="261.513" fill="none"/>
    </clipPath>
    <clipPath id="clip-path-3">
      <rect id="Rectángulo_326239" data-name="Rectángulo 326239" width="51.333" height="15.213" fill="none"/>
    </clipPath>
    <clipPath id="clip-path-4">
      <rect id="Rectángulo_326240" data-name="Rectángulo 326240" width="51.332" height="15.213" fill="none"/>
    </clipPath>
    <clipPath id="clip-path-5">
      <rect id="Rectángulo_326241" data-name="Rectángulo 326241" width="68.386" height="59.564" fill="none"/>
    </clipPath>
    <clipPath id="clip-path-6">
      <rect id="Rectángulo_326242" data-name="Rectángulo 326242" width="49.142" height="35.992" fill="none"/>
    </clipPath>
    <clipPath id="clip-path-7">
      <rect id="Rectángulo_326243" data-name="Rectángulo 326243" width="35.977" height="19.552" fill="none"/>
    </clipPath>
    <clipPath id="clip-path-8">
      <rect id="Rectángulo_326244" data-name="Rectángulo 326244" width="116.897" height="67.717" fill="none"/>
    </clipPath>
    <clipPath id="clip-path-9">
      <rect id="Rectángulo_326245" data-name="Rectángulo 326245" width="107.842" height="60.417" fill="none"/>
    </clipPath>
    <clipPath id="clip-path-10">
      <rect id="Rectángulo_326246" data-name="Rectángulo 326246" width="108.407" height="62.588" fill="none"/>
    </clipPath>
    <clipPath id="clip-path-11">
      <rect id="Rectángulo_326247" data-name="Rectángulo 326247" width="32.555" height="18.36" fill="none"/>
    </clipPath>
    <clipPath id="clip-path-12">
      <rect id="Rectángulo_326248" data-name="Rectángulo 326248" width="15.605" height="13.005" fill="none"/>
    </clipPath>
    <clipPath id="clip-path-13">
      <rect id="Rectángulo_326249" data-name="Rectángulo 326249" width="7.13" height="6.81" fill="none"/>
    </clipPath>
    <clipPath id="clip-path-14">
      <path id="Trazado_623949" data-name="Trazado 623949" d="M110.971,258.316c-1.45,2.691-1.355,5.557.212,6.4s4.013-.652,5.461-3.343,1.355-5.556-.212-6.4a2.025,2.025,0,0,0-.97-.235c-1.486,0-3.316,1.4-4.492,3.579" transform="translate(-109.942 -254.737)" fill="none"/>
    </clipPath>
    <linearGradient id="linear-gradient" x1="-9.626" y1="4.64" x2="-9.538" y2="4.64" gradientUnits="objectBoundingBox">
      <stop offset="0" stop-color="#d6dae6"/>
      <stop offset="0.045" stop-color="#cfd3e5"/>
      <stop offset="0.278" stop-color="#b4b8e3"/>
      <stop offset="0.395" stop-color="#999fc7"/>
      <stop offset="0.53" stop-color="#8289af"/>
      <stop offset="0.654" stop-color="#747ca1"/>
      <stop offset="0.758" stop-color="#70789c"/>
      <stop offset="0.853" stop-color="#767da2"/>
      <stop offset="0.986" stop-color="#888db2"/>
      <stop offset="1" stop-color="#8b90b5"/>
    </linearGradient>
    <clipPath id="clip-path-16">
      <rect id="Rectángulo_326252" data-name="Rectángulo 326252" width="39.321" height="29.343" fill="none"/>
    </clipPath>
    <clipPath id="clip-path-17">
      <rect id="Rectángulo_326253" data-name="Rectángulo 326253" width="5.828" height="8.505" fill="none"/>
    </clipPath>
    <clipPath id="clip-path-18">
      <rect id="Rectángulo_326255" data-name="Rectángulo 326255" width="47.439" height="31.805" fill="none"/>
    </clipPath>
    <clipPath id="clip-path-19">
      <path id="Trazado_623961" data-name="Trazado 623961" d="M85.764,301.412l36.465-21.75s.308-.169.436-.221a60.812,60.812,0,0,1,8.416-3.573l.013-.008c.581-.2.874-.031.725.664a3.157,3.157,0,0,1-1.264,1.854l-.014.008s-5.4,4.465-8.88,6.778a4.6,4.6,0,0,1-.592.43l-.034.02h0L84.418,307.589Z" transform="translate(-84.418 -275.784)" fill="none"/>
    </clipPath>
    <radialGradient id="radial-gradient" cx="0.984" cy="0.536" r="0.35" gradientTransform="translate(-2.267 1.173) rotate(180) scale(0.983 0.382)" gradientUnits="objectBoundingBox">
      <stop offset="0" stop-color="#daebf2"/>
      <stop offset="1" stop-color="#fff"/>
    </radialGradient>
    <clipPath id="clip-path-20">
      <rect id="Rectángulo_326257" data-name="Rectángulo 326257" width="21.072" height="14.237" fill="none"/>
    </clipPath>
    <clipPath id="clip-path-21">
      <path id="Trazado_623962" data-name="Trazado 623962" d="M116.6,287.713l16.355-9.755s.138-.076.2-.1a27.249,27.249,0,0,1,3.775-1.6l.007,0c.26-.089.132.8-.242,1.129l0,0s-2.423,2-3.985,3.041a1.951,1.951,0,0,1-.265.193l-.015.009L116,290.483Z" transform="translate(-116.001 -276.246)" fill="none"/>
    </clipPath>
    <radialGradient id="radial-gradient-2" cx="0.982" cy="0.538" r="0.882" gradientTransform="translate(-7.301 2.236) rotate(180) scale(0.984 0.382)" xlink:href="#radial-gradient"/>
    <clipPath id="clip-path-22">
      <rect id="Rectángulo_326258" data-name="Rectángulo 326258" width="35.619" height="21.277" fill="none"/>
    </clipPath>
    <clipPath id="clip-path-23">
      <rect id="Rectángulo_326259" data-name="Rectángulo 326259" width="16.304" height="8.517" fill="none"/>
    </clipPath>
    <clipPath id="clip-path-25">
      <rect id="Rectángulo_326261" data-name="Rectángulo 326261" width="11.614" height="9.721" fill="none"/>
    </clipPath>
  </defs>
  <g id="Grupo_888967" data-name="Grupo 888967" clip-path="url(#clip-path)">
    <g id="Grupo_888934" data-name="Grupo 888934">
      <g id="Grupo_888933" data-name="Grupo 888933" clip-path="url(#clip-path)">
        <path id="Trazado_623772" data-name="Trazado 623772" d="M137.679,83.876a.616.616,0,0,1-.615-.6l-.07-2.183a.618.618,0,0,1,.013-.145l14.332-68.62a4.1,4.1,0,0,1,7.949-.284l14.086,50.774a.616.616,0,0,1-1.186.329L158.105,12.385a2.872,2.872,0,0,0-5.561.2L138.227,81.132l.067,2.109a.616.616,0,0,1-.595.634h-.021" transform="translate(-24.605 -1.633)" fill="#084c94"/>
        <path id="Trazado_623773" data-name="Trazado 623773" d="M139.316,2.363,143.383,0l6.776,2.81-4.067,2.363Z" transform="translate(-25.022 0)" fill="#72b5e8"/>
        <path id="Trazado_623774" data-name="Trazado 623774" d="M147.575,5.788l4.067-2.364a20.751,20.751,0,0,0,6.349,6.035,9.027,9.027,0,0,0,5.839,1.4c2.565-.42,5.534.29,8.58,2.049l-4.067,2.363c-3.045-1.758-6.014-2.469-8.581-2.049a9.025,9.025,0,0,1-5.838-1.4,20.761,20.761,0,0,1-6.349-6.035" transform="translate(-26.505 -0.615)" fill="#3f92d1"/>
        <path id="Trazado_623775" data-name="Trazado 623775" d="M172.888,17.353l4.067-2.364,32.77,18.92-4.067,2.364Z" transform="translate(-31.051 -2.692)" fill="#72b5e8"/>
        <path id="Trazado_623776" data-name="Trazado 623776" d="M199.629,34.1l-.024,8.5L166.844,20.667a9.192,9.192,0,0,0-5.986-1.427,13.057,13.057,0,0,1-8.426-2.031,29.925,29.925,0,0,1-9.17-8.722L139.316,2.88l6.776,2.81a20.761,20.761,0,0,0,6.349,6.035,9.032,9.032,0,0,0,5.839,1.4c2.565-.42,5.534.29,8.58,2.049Z" transform="translate(-25.022 -0.517)" fill="#2672ab"/>
        <path id="Trazado_623777" data-name="Trazado 623777" d="M130.086,94.229c0,10.012,10.623,18.128,23.728,18.128s23.727-8.116,23.727-18.128Z" transform="translate(-23.364 -16.924)" fill="#72b5e8"/>
        <path id="Trazado_623778" data-name="Trazado 623778" d="M127.781,90.334h51.332v2.188c0,8.255-11.491,14.947-25.666,14.947s-25.666-6.692-25.666-14.947c0-.069.007-.137.009-.206h-.009Z" transform="translate(-22.95 -16.224)" fill="#a8cff0"/>
        <path id="Trazado_623779" data-name="Trazado 623779" d="M179.114,87.188c0,8.255-11.492,14.946-25.667,14.946s-25.665-6.691-25.665-14.946,11.49-14.946,25.665-14.946,25.667,6.691,25.667,14.946" transform="translate(-22.95 -12.975)" fill="#f0f8ff"/>
        <path id="Trazado_623780" data-name="Trazado 623780" d="M177.418,87.546c0,7.557-10.519,13.683-23.5,13.683s-23.5-6.126-23.5-13.683,10.52-13.683,23.5-13.683,23.5,6.126,23.5,13.683" transform="translate(-23.425 -13.266)" fill="#3f92d1"/>
        <path id="Trazado_623781" data-name="Trazado 623781" d="M174.016,89.715a.409.409,0,0,1-.387-.277,3.139,3.139,0,0,0-.92-1.063.41.41,0,0,1,.528-.628,3.9,3.9,0,0,1,1.167,1.425.41.41,0,0,1-.254.521.423.423,0,0,1-.134.022m-3.093-2.6a.41.41,0,0,1-.194-.048c-.454-.244-.94-.476-1.447-.691a.41.41,0,1,1,.321-.756c.529.225,1.039.468,1.514.724a.41.41,0,0,1-.194.771m-3.8-1.532a.41.41,0,0,1-.117-.017c-.508-.149-1.033-.286-1.562-.4a.41.41,0,1,1,.18-.8c.546.122,1.089.263,1.615.418a.41.41,0,0,1-.117.8m-4.01-.84a.4.4,0,0,1-.054,0q-.778-.1-1.609-.167a.41.41,0,0,1-.377-.441.423.423,0,0,1,.44-.377q.855.065,1.654.172a.41.41,0,0,1-.053.817m-4.091-.264h-.048a.41.41,0,1,1,0-.82.432.432,0,0,1,.435.41.391.391,0,0,1-.386.41" transform="translate(-28.479 -15.025)" fill="#084c94"/>
        <path id="Trazado_623782" data-name="Trazado 623782" d="M153.922,76.761c-12.135,0-22.12,5.358-23.364,12.233a8.136,8.136,0,0,1-.132-1.45c0-7.556,10.52-13.682,23.5-13.682s23.5,6.126,23.5,13.682a8.136,8.136,0,0,1-.132,1.45c-1.244-6.875-11.229-12.233-23.364-12.233" transform="translate(-23.425 -13.266)" fill="#72b5e8"/>
        <g id="Grupo_888902" data-name="Grupo 888902" transform="translate(104.831 74.421)" style="mix-blend-mode: color-dodge;isolation: isolate">
          <g id="Grupo_888901" data-name="Grupo 888901">
            <g id="Grupo_888900" data-name="Grupo 888900" clip-path="url(#clip-path-3)">
              <path id="Trazado_623783" data-name="Trazado 623783" d="M153.447,105.393c14.021,0,25.409-6.548,25.655-14.679,0,.089.012.177.012.267,0,8.255-11.491,14.947-25.666,14.947s-25.666-6.692-25.666-14.947c0-.089.009-.178.011-.267.246,8.13,11.633,14.679,25.655,14.679" transform="translate(-127.781 -90.713)" fill="#fff"/>
            </g>
          </g>
        </g>
        <path id="Trazado_623784" data-name="Trazado 623784" d="M137.813,99.572a.615.615,0,0,1-.054-1.228l.55-.05a1.354,1.354,0,0,0,1.187-1.012l.113-.447a.615.615,0,1,1,1.192.3l-.113.447a2.589,2.589,0,0,1-2.268,1.935l-.551.049-.056,0" transform="translate(-24.641 -17.309)" fill="#084c94"/>
        <path id="Trazado_623785" data-name="Trazado 623785" d="M135.454,95.755a2.414,2.414,0,0,0-.112.758v3.344l3.65,2.108.154,1.2.921-.579V99.241a5.207,5.207,0,0,0-2.363-4.076,1.737,1.737,0,0,0-1.565-.219h0l-.011.007a1.123,1.123,0,0,0-.249.151l-.78.473Zm1.25.625.61.305,1.245,1.91.164,1.279a1.006,1.006,0,0,1-1.018-.1,3.156,3.156,0,0,1-1.432-2.47.985.985,0,0,1,.432-.925" transform="translate(-24.264 -17.034)" fill="#a8cff0"/>
        <path id="Trazado_623786" data-name="Trazado 623786" d="M134.273,97.219v3.343L139,103.291V99.947a5.2,5.2,0,0,0-2.363-4.075c-1.305-.754-2.363-.151-2.363,1.347m.93.791c0-.907.642-1.273,1.432-.816a3.156,3.156,0,0,1,1.432,2.47c0,.908-.642,1.273-1.432.817A3.157,3.157,0,0,1,135.2,98.01" transform="translate(-24.116 -17.161)" fill="#72b5e8"/>
        <path id="Trazado_623787" data-name="Trazado 623787" d="M137.679,83.877a.616.616,0,0,1-.615-.6l-.07-2.183a.618.618,0,0,1,.013-.145l14.332-68.62A4.013,4.013,0,0,1,153.765,9.4a4.239,4.239,0,0,1,3.894.38.615.615,0,1,1-.684,1.023,2.987,2.987,0,0,0-2.749-.262,2.76,2.76,0,0,0-1.683,2.046L138.227,81.133l.067,2.109a.616.616,0,0,1-.595.634h-.021" transform="translate(-24.605 -1.634)" fill="#084c94"/>
        <path id="Trazado_623788" data-name="Trazado 623788" d="M178.379,72.172a2.413,2.413,0,0,0-.112.758v3.344l3.65,2.108.154,1.2.921-.579V75.658a5.207,5.207,0,0,0-2.363-4.076,1.737,1.737,0,0,0-1.565-.219h0l-.011.007a1.125,1.125,0,0,0-.249.151l-.78.473Zm1.25.625.61.305,1.245,1.91.164,1.279a1.006,1.006,0,0,1-1.018-.1,3.156,3.156,0,0,1-1.432-2.47.985.985,0,0,1,.432-.925" transform="translate(-31.974 -12.799)" fill="#a8cff0"/>
        <path id="Trazado_623789" data-name="Trazado 623789" d="M177.2,73.635v3.344l4.725,2.729V76.364a5.207,5.207,0,0,0-2.363-4.076c-1.3-.753-2.363-.15-2.363,1.347m.93.792c0-.908.642-1.273,1.432-.816a3.156,3.156,0,0,1,1.432,2.47c0,.907-.642,1.273-1.432.817a3.159,3.159,0,0,1-1.432-2.471" transform="translate(-31.825 -12.925)" fill="#72b5e8"/>
        <path id="Trazado_623790" data-name="Trazado 623790" d="M178.516,75.269a3,3,0,0,1-2.121-.874l-.846-.846a.615.615,0,0,1,.87-.87l.847.846a1.766,1.766,0,0,0,1.823.416A.615.615,0,0,1,179.5,75.1a2.964,2.964,0,0,1-.98.166" transform="translate(-31.497 -13.021)" fill="#084c94"/>
        <path id="Trazado_623791" data-name="Trazado 623791" d="M223.114,32.218,225,31.092l10.938,18.945-1.888,1.126Z" transform="translate(-40.072 -5.584)" fill="#084c94"/>
        <path id="Trazado_623792" data-name="Trazado 623792" d="M220.7,32.464,231.64,51.409l-11.009,6.274L209.688,38.735Z" transform="translate(-37.661 -5.831)" fill="#03336e"/>
        <path id="Trazado_623793" data-name="Trazado 623793" d="M213.8,40.382l6.736-3.835,8.477,14.683-6.732,3.836Z" transform="translate(-38.398 -6.564)" fill="#2672ab"/>
        <path id="Trazado_623794" data-name="Trazado 623794" d="M213.8,41.143l.61-.357,8.477,14.683-.605.358Z" transform="translate(-38.398 -7.325)" fill="#084c94"/>
        <path id="Trazado_623795" data-name="Trazado 623795" d="M262.879,156.244a.616.616,0,0,1-.615-.6l-.071-2.182a.632.632,0,0,1,.013-.146L276.539,84.7a4.1,4.1,0,0,1,7.949-.284l14.085,50.774a.616.616,0,0,1-1.186.329L283.3,84.753a2.871,2.871,0,0,0-5.561.2L263.426,153.5l.068,2.108a.617.617,0,0,1-.6.636Z" transform="translate(-47.091 -14.631)" fill="#084c94"/>
        <path id="Trazado_623796" data-name="Trazado 623796" d="M219.706,22.452h0a4.8,4.8,0,0,0-4.8,4.8v14.71c0,1.545,2.151,2.8,4.8,2.8s4.8-1.253,4.8-2.8c0-.013,0-.026,0-.039h0V27.256a4.8,4.8,0,0,0-4.8-4.8" transform="translate(-38.597 -4.032)" fill="#2672ab"/>
        <path id="Trazado_623797" data-name="Trazado 623797" d="M235.244,189.793H198.151v2.653c0,5.965,8.3,10.8,18.547,10.8s18.547-4.835,18.547-10.8c0-.05,0-.1-.007-.148h.007Z" transform="translate(-35.589 -34.088)" fill="#2672ab"/>
        <path id="Trazado_623798" data-name="Trazado 623798" d="M198.152,187.52c0,5.965,8.3,10.8,18.546,10.8s18.547-4.835,18.547-10.8-8.3-10.8-18.547-10.8-18.546,4.835-18.546,10.8" transform="translate(-35.589 -31.739)" fill="#3f92d1"/>
        <path id="Trazado_623799" data-name="Trazado 623799" d="M216.7,200.674c-10.132,0-18.36-4.732-18.538-10.607,0,.065-.009.128-.009.193,0,5.965,8.3,10.8,18.547,10.8s18.547-4.835,18.547-10.8c0-.065-.007-.128-.008-.193-.178,5.875-8.407,10.607-18.538,10.607" transform="translate(-35.589 -34.137)" fill="#72b5e8"/>
        <path id="Trazado_623800" data-name="Trazado 623800" d="M224.192,176.463H211.974s-6.109,9.53-6.109,9.563c0,3.93,5.47,7.115,12.219,7.115s12.219-3.186,12.219-7.115c0-.034-6.109-9.563-6.109-9.563" transform="translate(-36.974 -31.693)" fill="#2672ab"/>
        <path id="Trazado_623801" data-name="Trazado 623801" d="M213.311,175.714c0,1.965,2.735,3.558,6.11,3.558s6.109-1.593,6.109-3.558-2.735-3.558-6.109-3.558-6.11,1.593-6.11,3.558" transform="translate(-38.311 -30.92)" fill="#3f92d1"/>
        <path id="Trazado_623802" data-name="Trazado 623802" d="M219.421,180.048c-3.337,0-6.048-1.559-6.107-3.494,0,.021,0,.042,0,.063,0,1.966,2.735,3.558,6.11,3.558s6.109-1.592,6.109-3.558c0-.021,0-.042,0-.063-.059,1.935-2.77,3.494-6.107,3.494" transform="translate(-38.311 -31.71)" fill="#72b5e8"/>
        <path id="Trazado_623803" data-name="Trazado 623803" d="M224.508,55.283h-9.6v99.074c0,1.544,2.149,2.8,4.8,2.8s4.8-1.251,4.8-2.8c0-.013,0-.025,0-.039h0Z" transform="translate(-38.598 -9.929)" fill="#2672ab"/>
        <path id="Trazado_623804" data-name="Trazado 623804" d="M281.53,77.868a8.627,8.627,0,0,1-6.356-1.3,20.169,20.169,0,0,1-5.826-5.33,29.733,29.733,0,0,0-8.564-7.849l-35-20.206-4.068,2.364,35,20.206A29.72,29.72,0,0,1,265.28,73.6a20.181,20.181,0,0,0,5.827,5.33,8.631,8.631,0,0,0,6.356,1.3l6.776,5.014,4.067-2.364Z" transform="translate(-39.822 -7.756)" fill="#3f92d1"/>
        <path id="Trazado_623805" data-name="Trazado 623805" d="M289.667,87.824l6.776,5.014,4.067-2.364-6.776-5.014Z" transform="translate(-52.025 -15.349)" fill="#72b5e8"/>
        <path id="Trazado_623806" data-name="Trazado 623806" d="M269.347,71.236a29.734,29.734,0,0,0-8.564-7.849l-35-20.206-4.067,2.364,35,20.206a29.732,29.732,0,0,1,8.564,7.849Z" transform="translate(-39.822 -7.756)" fill="#72b5e8"/>
        <path id="Trazado_623807" data-name="Trazado 623807" d="M256.711,66.269a29.732,29.732,0,0,1,8.563,7.849,20.181,20.181,0,0,0,5.827,5.33,8.63,8.63,0,0,0,6.356,1.3l6.776,5.014-3.97,1.037c-2.708.719-5.948-.007-9.184-1.875a29.163,29.163,0,0,1-8.411-7.69,20.726,20.726,0,0,0-5.974-5.478l-35.006-17.2.024-8.5Z" transform="translate(-39.816 -8.273)" fill="#2672ab"/>
        <path id="Trazado_623808" data-name="Trazado 623808" d="M220.9,26.382a2.315,2.315,0,1,1-2.315-2.315,2.315,2.315,0,0,1,2.315,2.315" transform="translate(-38.843 -4.323)" fill="#3f92d1"/>
        <path id="Trazado_623809" data-name="Trazado 623809" d="M255.286,166.6c0,10.012,10.623,18.128,23.728,18.128s23.727-8.116,23.727-18.128Z" transform="translate(-45.85 -29.921)" fill="#72b5e8"/>
        <path id="Trazado_623810" data-name="Trazado 623810" d="M252.981,162.7h51.332v2.188c0,8.255-11.491,14.947-25.666,14.947s-25.666-6.692-25.666-14.947c0-.069.007-.137.009-.206h-.009Z" transform="translate(-45.436 -29.222)" fill="#a8cff0"/>
        <path id="Trazado_623811" data-name="Trazado 623811" d="M304.314,159.554c0,8.255-11.492,14.946-25.666,14.946s-25.666-6.691-25.666-14.946,11.49-14.946,25.666-14.946,25.666,6.691,25.666,14.946" transform="translate(-45.437 -25.972)" fill="#f0f8ff"/>
        <path id="Trazado_623812" data-name="Trazado 623812" d="M302.618,159.912c0,7.557-10.52,13.683-23.5,13.683s-23.5-6.126-23.5-13.683,10.52-13.683,23.5-13.683,23.5,6.126,23.5,13.683" transform="translate(-45.911 -26.263)" fill="#3f92d1"/>
        <path id="Trazado_623813" data-name="Trazado 623813" d="M299.216,162.082a.408.408,0,0,1-.387-.277,3.147,3.147,0,0,0-.921-1.064.41.41,0,0,1,.528-.627,3.925,3.925,0,0,1,1.167,1.425.409.409,0,0,1-.254.52.4.4,0,0,1-.134.023m-3.093-2.6a.411.411,0,0,1-.194-.049c-.455-.244-.942-.476-1.447-.691a.41.41,0,1,1,.321-.754c.528.223,1.038.467,1.514.722a.41.41,0,0,1-.194.772m-3.8-1.532a.409.409,0,0,1-.116-.017q-.741-.219-1.563-.405a.41.41,0,1,1,.181-.8q.848.192,1.615.418a.41.41,0,0,1-.117.8m-4.01-.84a.4.4,0,0,1-.054,0q-.778-.1-1.609-.168a.41.41,0,0,1,.062-.817q.854.065,1.654.171a.41.41,0,0,1-.053.817m-4.09-.264h-.049a.41.41,0,0,1,0-.82.432.432,0,0,1,.436.41.391.391,0,0,1-.386.41" transform="translate(-50.965 -28.022)" fill="#084c94"/>
        <path id="Trazado_623814" data-name="Trazado 623814" d="M279.122,149.128c-12.135,0-22.12,5.358-23.364,12.233a8.136,8.136,0,0,1-.132-1.45c0-7.556,10.52-13.682,23.5-13.682s23.5,6.126,23.5,13.682a8.139,8.139,0,0,1-.132,1.45c-1.244-6.875-11.229-12.233-23.364-12.233" transform="translate(-45.911 -26.263)" fill="#72b5e8"/>
        <g id="Grupo_888905" data-name="Grupo 888905" transform="translate(207.545 133.79)" style="mix-blend-mode: color-dodge;isolation: isolate">
          <g id="Grupo_888904" data-name="Grupo 888904">
            <g id="Grupo_888903" data-name="Grupo 888903" clip-path="url(#clip-path-4)">
              <path id="Trazado_623815" data-name="Trazado 623815" d="M278.647,177.758c14.021,0,25.409-6.548,25.655-14.679,0,.089.012.178.012.267,0,8.255-11.491,14.947-25.666,14.947s-25.666-6.692-25.666-14.947c0-.089.009-.178.012-.267.246,8.131,11.633,14.679,25.655,14.679" transform="translate(-252.981 -163.08)" fill="#fff"/>
            </g>
          </g>
        </g>
        <path id="Trazado_623816" data-name="Trazado 623816" d="M263.014,171.939a.615.615,0,0,1-.054-1.228l.549-.05a1.355,1.355,0,0,0,1.189-1.013l.113-.446a.615.615,0,1,1,1.192.3l-.113.446a2.587,2.587,0,0,1-2.27,1.935l-.55.05-.056,0" transform="translate(-47.128 -30.306)" fill="#084c94"/>
        <path id="Trazado_623817" data-name="Trazado 623817" d="M260.654,168.121a2.414,2.414,0,0,0-.112.758v3.344l3.65,2.108.154,1.2.921-.579v-3.344a5.209,5.209,0,0,0-2.363-4.076,1.737,1.737,0,0,0-1.565-.219h0l-.011.007a1.106,1.106,0,0,0-.249.151l-.78.473Zm1.25.625.61.305,1.245,1.91.164,1.279a1,1,0,0,1-1.018-.1,3.156,3.156,0,0,1-1.432-2.47.985.985,0,0,1,.432-.925" transform="translate(-46.75 -30.031)" fill="#a8cff0"/>
        <path id="Trazado_623818" data-name="Trazado 623818" d="M259.473,169.585v3.344l4.725,2.729v-3.344a5.207,5.207,0,0,0-2.363-4.076c-1.305-.753-2.363-.15-2.363,1.347m.93.792c0-.908.642-1.273,1.432-.816a3.156,3.156,0,0,1,1.432,2.47c0,.908-.642,1.273-1.432.817a3.157,3.157,0,0,1-1.432-2.471" transform="translate(-46.602 -30.158)" fill="#72b5e8"/>
        <path id="Trazado_623819" data-name="Trazado 623819" d="M262.879,156.244a.616.616,0,0,1-.615-.6l-.071-2.182a.633.633,0,0,1,.013-.146L276.539,84.7a4.014,4.014,0,0,1,2.426-2.931,4.237,4.237,0,0,1,3.894.38.615.615,0,1,1-.684,1.023,2.987,2.987,0,0,0-2.749-.262,2.758,2.758,0,0,0-1.683,2.046L263.426,153.5l.068,2.108a.617.617,0,0,1-.6.636Z" transform="translate(-47.091 -14.631)" fill="#084c94"/>
        <path id="Trazado_623820" data-name="Trazado 623820" d="M303.579,144.538a2.412,2.412,0,0,0-.112.758v3.344l3.65,2.108.154,1.2.921-.579v-3.344a5.207,5.207,0,0,0-2.363-4.076,1.738,1.738,0,0,0-1.566-.219h0l-.011.007a1.123,1.123,0,0,0-.249.151l-.78.473Zm1.25.625.61.305,1.245,1.91.164,1.279a1.006,1.006,0,0,1-1.018-.1,3.156,3.156,0,0,1-1.432-2.47.985.985,0,0,1,.432-.925" transform="translate(-54.46 -25.796)" fill="#a8cff0"/>
        <path id="Trazado_623821" data-name="Trazado 623821" d="M302.4,146v3.343l4.725,2.729v-3.344a5.2,5.2,0,0,0-2.363-4.075c-1.3-.754-2.363-.151-2.363,1.347m.93.791c0-.907.642-1.273,1.432-.816a3.156,3.156,0,0,1,1.432,2.47c0,.908-.642,1.273-1.432.817a3.157,3.157,0,0,1-1.432-2.471" transform="translate(-54.312 -25.922)" fill="#72b5e8"/>
        <path id="Trazado_623822" data-name="Trazado 623822" d="M303.716,147.635a3.006,3.006,0,0,1-2.122-.873l-.845-.846a.615.615,0,0,1,.87-.87l.846.846a1.763,1.763,0,0,0,1.824.416.615.615,0,1,1,.405,1.162,2.954,2.954,0,0,1-.978.166" transform="translate(-53.983 -26.018)" fill="#084c94"/>
        <path id="Trazado_623823" data-name="Trazado 623823" d="M218.239,35.093l1.888-1.126,10.938,18.945-1.888,1.126Z" transform="translate(-39.196 -6.101)" fill="#084c94"/>
        <path id="Trazado_623824" data-name="Trazado 623824" d="M215.827,35.339l10.938,18.945-11.009,6.274L204.813,41.61Z" transform="translate(-36.785 -6.347)" fill="#03336e"/>
        <path id="Trazado_623825" data-name="Trazado 623825" d="M208.92,43.257l6.736-3.835L224.134,54.1,217.4,57.941Z" transform="translate(-37.523 -7.08)" fill="#2672ab"/>
        <path id="Trazado_623826" data-name="Trazado 623826" d="M208.92,44.018l.61-.357,8.477,14.683-.605.358Z" transform="translate(-37.523 -7.842)" fill="#084c94"/>
        <path id="Trazado_623827" data-name="Trazado 623827" d="M118.438,201.21v12.514a2.707,2.707,0,0,0,4.236,2.233l36.235-27.6v-22.29a1.814,1.814,0,0,0-2.839-1.5L125.141,188.5a15.406,15.406,0,0,0-6.7,12.711" transform="translate(-21.272 -29.5)" fill="#72b5e8"/>
        <path id="Trazado_623828" data-name="Trazado 623828" d="M104.335,205.576V193.063a15.4,15.4,0,0,1,6.7-12.711l30.93-23.928a1.786,1.786,0,0,1,1.768-.153L79.322,119.053a1.788,1.788,0,0,0-1.776.15l-30.93,23.929a15.4,15.4,0,0,0-6.7,12.71v12.513A2.688,2.688,0,0,0,41.68,170.9l64.161,37.143.03-.027a2.677,2.677,0,0,1-1.537-2.436" transform="translate(-7.169 -21.352)" fill="#a8cff0"/>
        <path id="Trazado_623829" data-name="Trazado 623829" d="M118.148,213.63V201.117a15.4,15.4,0,0,1,6.7-12.711l30.93-23.928a1.778,1.778,0,0,1,1.143-.313,1.811,1.811,0,0,0-2.469-.4l-30.93,23.929a15.4,15.4,0,0,0-6.7,12.711v12.514a2.7,2.7,0,0,0,2.14,2.647,2.659,2.659,0,0,1-.814-1.933" transform="translate(-20.982 -29.355)" fill="#d1ebff"/>
        <path id="Trazado_623830" data-name="Trazado 623830" d="M129.477,223.052l1.453-.968-.331,1.581Z" transform="translate(-23.255 -39.887)" fill="#03336e"/>
        <path id="Trazado_623831" data-name="Trazado 623831" d="M131.319,210.147V198.918a15.007,15.007,0,0,1,5.936-11.321l25.614-23.3a1.582,1.582,0,0,1,1.566-.136l-1-.632a1.583,1.583,0,0,0-1.574.133l-25.614,23.3a15,15,0,0,0-5.936,11.321v14.655l-1.007-.454-.841.611,2.851,1.6,1.361-2.39a2.369,2.369,0,0,1-1.361-2.157" transform="translate(-23.073 -29.344)" fill="#2672ab"/>
        <path id="Trazado_623832" data-name="Trazado 623832" d="M131.943,199.058v15.775l29.23-16a11.117,11.117,0,0,0,4.833-9.17v-23.9a1.606,1.606,0,0,0-2.514-1.326l-25.614,23.3a15.006,15.006,0,0,0-5.936,11.321" transform="translate(-23.697 -29.483)" fill="#03336e"/>
        <g id="Grupo_888908" data-name="Grupo 888908" transform="translate(34.494 123.224)" opacity="0.5">
          <g id="Grupo_888907" data-name="Grupo 888907">
            <g id="Grupo_888906" data-name="Grupo 888906" clip-path="url(#clip-path-5)">
              <path id="Trazado_623833" data-name="Trazado 623833" d="M110.432,184.532a17.143,17.143,0,0,0-7.464,14.154v11.078L42.811,174.931l-.136-.05a.947.947,0,0,1-.63-.9V161.466A13.651,13.651,0,0,1,47.986,150.2Z" transform="translate(-42.045 -150.2)" fill="#d1ebff"/>
            </g>
          </g>
        </g>
        <path id="Trazado_623834" data-name="Trazado 623834" d="M102.969,198.659v13.573L42.812,177.4l-.136-.051a.947.947,0,0,1-.63-.9V163.934Z" transform="translate(-7.552 -29.443)" fill="#a8cff0"/>
        <path id="Trazado_623835" data-name="Trazado 623835" d="M44.519,169.4l-.136-.051a.946.946,0,0,1-.63-.9V155.94a13.647,13.647,0,0,1,5.941-11.267l30.929-23.929.852-.482-.787-.453-1.773,1-30.93,23.928a13.648,13.648,0,0,0-5.941,11.267v12.514a.946.946,0,0,0,.63.9l.136.051,60.156,34.833v-1.055Z" transform="translate(-7.551 -21.518)" fill="#3f92d1"/>
        <path id="Trazado_623836" data-name="Trazado 623836" d="M132.4,163.781l8.919-6.908L85.52,124.349l-9.163,7.074a1.965,1.965,0,0,0,.119,3.321l50.162,29.245a5.394,5.394,0,0,0,5.757-.208" transform="translate(-13.56 -22.334)" fill="#001a46"/>
        <path id="Trazado_623837" data-name="Trazado 623837" d="M49.429,173.426V181.1L98.57,209.632v-7.766Z" transform="translate(-8.878 -31.148)" fill="#001a46"/>
        <g id="Grupo_888911" data-name="Grupo 888911" transform="translate(40.552 142.493)" style="mix-blend-mode: multiply;isolation: isolate">
          <g id="Grupo_888910" data-name="Grupo 888910">
            <g id="Grupo_888909" data-name="Grupo 888909" clip-path="url(#clip-path-6)">
              <path id="Trazado_623838" data-name="Trazado 623838" d="M50.653,180.634v-6.242l-1.223-.7v7.457L98.57,209.68v-1.218Z" transform="translate(-49.429 -173.688)" fill="#9d9eb3"/>
            </g>
          </g>
        </g>
        <path id="Trazado_623839" data-name="Trazado 623839" d="M121.964,169.881a2.578,2.578,0,0,1-2.519.119l-4.1-2.351a.866.866,0,0,1-.043-1.589,2.578,2.578,0,0,1,2.519-.119l4.1,2.351a.866.866,0,0,1,.043,1.589" transform="translate(-20.619 -29.754)" fill="#2672ab"/>
        <path id="Trazado_623840" data-name="Trazado 623840" d="M131.789,175.518a2.578,2.578,0,0,1-2.519.119l-4.1-2.351a.866.866,0,0,1-.043-1.589,2.578,2.578,0,0,1,2.519-.119l4.1,2.351a.866.866,0,0,1,.043,1.589" transform="translate(-22.384 -30.767)" fill="#2672ab"/>
        <path id="Trazado_623841" data-name="Trazado 623841" d="M121.921,167.669l-4.1-2.351a2.578,2.578,0,0,0-2.519.119.865.865,0,0,0,.043,1.588l4.1,2.352a2.582,2.582,0,0,0,2.519-.119.866.866,0,0,0-.044-1.589" transform="translate(-20.619 -29.643)" fill="#eb4680"/>
        <path id="Trazado_623842" data-name="Trazado 623842" d="M131.746,173.306l-4.1-2.351a2.578,2.578,0,0,0-2.519.119.865.865,0,0,0,.043,1.588l4.1,2.352a2.582,2.582,0,0,0,2.519-.119.866.866,0,0,0-.043-1.589" transform="translate(-22.384 -30.655)" fill="#0fbab8"/>
        <path id="Trazado_623843" data-name="Trazado 623843" d="M131.79,174.774a2.578,2.578,0,0,1-2.519.119l-4.1-2.351a1,1,0,0,1-.519-.631.876.876,0,0,0,.519.971l4.1,2.352a2.583,2.583,0,0,0,2.519-.119.927.927,0,0,0,.475-.958,1.107,1.107,0,0,1-.475.617" transform="translate(-22.384 -30.876)" fill="#3ecfcd"/>
        <path id="Trazado_623844" data-name="Trazado 623844" d="M121.965,169.137a2.578,2.578,0,0,1-2.519.119l-4.1-2.351a1,1,0,0,1-.518-.631.877.877,0,0,0,.518.972l4.1,2.351a2.58,2.58,0,0,0,2.519-.119.927.927,0,0,0,.475-.958,1.107,1.107,0,0,1-.475.617" transform="translate(-20.62 -29.863)" fill="#f76195"/>
        <path id="Trazado_623845" data-name="Trazado 623845" d="M29.679,191.366v3.166l-1.334-.814v-3.166Z" transform="translate(-5.091 -34.224)" fill="#a8cff0"/>
        <path id="Trazado_623846" data-name="Trazado 623846" d="M29.96,189.369v3.166l17.067-9.949V179.43Z" transform="translate(-5.381 -32.226)" fill="#72b5e8"/>
        <path id="Trazado_623847" data-name="Trazado 623847" d="M46.736,179.249,29.67,189.188l-1.324-.814,17.085-9.949Z" transform="translate(-5.091 -32.046)" fill="#d1ebff"/>
        <path id="Trazado_623848" data-name="Trazado 623848" d="M71.671,223.631v1.581L24.016,198.227v-1.581Z" transform="translate(-4.313 -35.318)" fill="#a8cff0"/>
        <path id="Trazado_623849" data-name="Trazado 623849" d="M82.089,226.727v1.581l22.051-12.856v-1.567Z" transform="translate(-14.743 -38.415)" fill="#72b5e8"/>
        <path id="Trazado_623850" data-name="Trazado 623850" d="M93.71,207.975,71.659,220.817,24.015,193.832l22.075-12.855Z" transform="translate(-4.313 -32.504)" fill="#d1ebff"/>
        <path id="Trazado_623851" data-name="Trazado 623851" d="M88.484,225.38v3.166l-1.334-.814v-3.166Z" transform="translate(-15.652 -40.333)" fill="#a8cff0"/>
        <path id="Trazado_623852" data-name="Trazado 623852" d="M88.764,223.383v3.166l17.067-9.949v-3.155Z" transform="translate(-15.942 -38.335)" fill="#72b5e8"/>
        <path id="Trazado_623853" data-name="Trazado 623853" d="M105.541,213.264,88.474,223.2l-1.324-.814,17.085-9.949Z" transform="translate(-15.652 -38.155)" fill="#d1ebff"/>
        <path id="Trazado_623854" data-name="Trazado 623854" d="M139.922,128.537v25.121L84.7,122.389V97.267Z" transform="translate(-15.213 -17.47)" fill="#a8cff0"/>
        <path id="Trazado_623855" data-name="Trazado 623855" d="M151.994,135.211v25.121l1.5-.8V134.426Z" transform="translate(-27.299 -24.143)" fill="#72b5e8"/>
        <path id="Trazado_623856" data-name="Trazado 623856" d="M141.4,127.577l-1.5.784L84.7,97.092l1.523-.8Z" transform="translate(-15.213 -17.294)" fill="#d1ebff"/>
        <path id="Trazado_623857" data-name="Trazado 623857" d="M136.557,133.461v22.01l-47.72-27.021v-22.01Z" transform="translate(-15.955 -19.117)" fill="#fff"/>
        <path id="Trazado_623858" data-name="Trazado 623858" d="M45.082,232.61,0,206.582l43.357-25.84L88.438,206.77Z" transform="translate(0 -32.462)" fill="#92b4d1"/>
        <path id="Trazado_623859" data-name="Trazado 623859" d="M45.2,231.475.12,205.447l43.248-24.8,45.082,26.028Z" transform="translate(-0.021 -32.445)" fill="#fff"/>
        <path id="Trazado_623860" data-name="Trazado 623860" d="M73.641,197.733l-.811.469,1.634.943.811-.469Zm-8.5-1.953,10.854,6.256.812-.468L65.95,195.312Zm3.158,2.894-.812.469,4.61,2.651.811-.468Zm-5.007.053,8.257,4.757.811-.468L64.1,198.259Zm21.283,5.3-8.6-4.95-.812.469,8.6,4.95Zm-4.4,1.49-6.566-3.79-.812.468,6.566,3.791ZM56.785,190.938l7.653,4.438.811-.468L57.6,190.47Zm5.8,7.385.811-.469-3.6-2.1-.812.469Zm.583-5.688,8.957,5.162.812-.469-8.957-5.161ZM67.6,198.27l-7.507-4.353-.812.469,7.507,4.353Zm-8.207-4.757-8.156-4.73-.811.469,8.156,4.73ZM56.9,190.065l-3.925-2.287-.812.468,3.926,2.288ZM84.46,204.9l2.908,1.679.812-.468-2.909-1.679ZM48.8,190.324l9.489,5.5.811-.469-9.489-5.5Zm27.889,12.117,8.936,5.147.812-.469L77.5,201.973Zm3.367,3.953,3.829,2.2.812-.468-3.829-2.2Zm-7.284-2.2,9.373,5.4.812-.469-9.373-5.4Z" transform="translate(-8.765 -33.726)" fill="#72b5e8"/>
        <path id="Trazado_623861" data-name="Trazado 623861" d="M61.831,203.682l-.812.468,1.634.943.812-.468Zm-8.5-1.953,10.855,6.257.811-.469L54.139,201.26Zm3.158,2.9-.812.468,4.61,2.652.812-.469Zm-5.007.053,8.257,4.758.812-.469-8.257-4.757Zm21.283,5.3-8.6-4.95-.811.468,8.594,4.95Zm-4.4,1.49-6.566-3.791-.812.468,6.566,3.791ZM44.974,196.887l7.653,4.438.812-.469-7.653-4.438Zm-3.265,4.142,11.125,6.443.812-.469-11.125-6.442Zm11.826,6.847,8.256,4.757.812-.468-8.256-4.757Zm-2.757-3.6.812-.468-3.6-2.1-.811.468Zm.583-5.687,8.957,5.161.812-.468-8.957-5.161Zm4.424,5.634-7.507-4.353-.812.468,7.507,4.353Zm-8.208-4.757-8.156-4.73-.812.468,8.156,4.73Zm-2.491-3.447-3.926-2.288-.811.469,3.925,2.287Zm27.563,14.839,2.908,1.679.812-.469-2.908-1.679Zm-31.64-10.228.812-.468-5.88-3.416-.812.468Zm-4.017-4.353,9.489,5.5.812-.468L37.8,195.8Zm25.5,16.766L68.6,216.55l.811-.469-6.1-3.512Zm2.389-4.648,8.936,5.146.812-.468-8.936-5.147Zm3.367,3.953,3.829,2.2.812-.469-3.829-2.2Zm-7.284-2.2,9.374,5.4.811-.468-9.373-5.4Zm-9.734-2.515-.812.468,4.61,2.652.811-.468Zm-5.007.053,8.257,4.757.812-.468-8.257-4.757ZM63.1,214.477l-6.566-3.791-.812.469,6.566,3.79Zm-17.582-7.2.811-.469-3.6-2.1-.811.468Zm5.006-.053-7.507-4.353-.812.468,7.507,4.354Zm-8.207-4.757-8.156-4.73-.811.469,8.156,4.73ZM31.737,199.28l9.489,5.5.812-.469-9.489-5.5Zm31.256,16.07,3.829,2.2.812-.468-3.829-2.2Zm-7.284-2.2,9.373,5.4.812-.469-9.373-5.4Z" transform="translate(-5.7 -34.794)" fill="#72b5e8"/>
        <path id="Trazado_623862" data-name="Trazado 623862" d="M25.947,206.635l-.811.468,2.918,1.685.811-.468ZM21.47,207l6.566,3.79.812-.468-6.566-3.791Zm14.662,5.518-6.566-3.791-.812.469,6.566,3.79Zm-7.868,1.5-6.906-3.987-.812.468,6.907,3.987Zm7.757-.629,1.8,1.039.812-.469-1.8-1.039Zm-7.284-2.2,7.344,4.24.811-.468-7.343-4.24Z" transform="translate(-3.69 -37.093)" fill="#72b5e8"/>
        <path id="Trazado_623863" data-name="Trazado 623863" d="M48.55,133.569a.41.41,0,0,1-.25-.736l.9-.687a.41.41,0,1,1,.5.651l-.9.688a.407.407,0,0,1-.249.084m2.851-2.184a.411.411,0,0,1-.25-.736l1.3-1a.41.41,0,0,1,.5.651l-1.3,1a.412.412,0,0,1-.249.084m3.256-2.495a.41.41,0,0,1-.249-.736l1.3-1a.41.41,0,1,1,.5.651l-1.3,1a.412.412,0,0,1-.249.085m3.256-2.495a.411.411,0,0,1-.25-.736l1.3-1a.41.41,0,0,1,.5.651l-1.3,1a.412.412,0,0,1-.249.084m3.256-2.495a.409.409,0,0,1-.249-.735l1.3-1a.41.41,0,1,1,.5.651l-1.3,1a.407.407,0,0,1-.249.084m3.256-2.495a.41.41,0,0,1-.25-.735l1.3-1a.41.41,0,0,1,.5.651l-1.3,1a.407.407,0,0,1-.249.085m3.256-2.494a.41.41,0,0,1-.249-.736l1.3-1a.41.41,0,0,1,.5.651l-1.3,1a.408.408,0,0,1-.249.085m3.256-2.495a.411.411,0,0,1-.25-.736l.081-.062v-1.135a.41.41,0,1,1,.82,0v1.539l-.4.308a.412.412,0,0,1-.249.085m.241-3.983a.41.41,0,0,1-.41-.41v-1.641a.41.41,0,1,1,.82,0v1.641a.41.41,0,0,1-.41.41" transform="translate(-8.646 -19.752)" fill="#0fbab8"/>
        <path id="Trazado_623864" data-name="Trazado 623864" d="M144.362,314.7h-.027c-.559-.036-1.12-.1-1.667-.182a.409.409,0,0,1-.343-.468.414.414,0,0,1,.468-.343c.523.081,1.06.139,1.6.174a.41.41,0,0,1-.026.82m2.459-.007a.41.41,0,0,1-.029-.82c.539-.039,1.072-.1,1.587-.193a.41.41,0,1,1,.141.807c-.542.094-1.1.163-1.669.2h-.031m-6.489-.708a.416.416,0,0,1-.117-.017c-.539-.16-1.071-.348-1.586-.557a.41.41,0,0,1,.309-.76c.49.2,1,.378,1.51.53a.41.41,0,0,1-.117.8m10.5-.113a.411.411,0,0,1-.139-.8,11.974,11.974,0,0,0,1.455-.631.41.41,0,1,1,.377.729,12.9,12.9,0,0,1-1.555.674.429.429,0,0,1-.139.024m-14.24-1.537a.4.4,0,0,1-.205-.055l-1.421-.821a.41.41,0,0,1,.41-.71l1.421.821a.41.41,0,0,1-.205.765m17.886-.328a.41.41,0,0,1-.2-.767l1.425-.813a.41.41,0,0,1,.407.713l-1.425.813a.415.415,0,0,1-.2.054m-21.437-1.725a.4.4,0,0,1-.205-.055l-1.421-.822a.41.41,0,0,1,.41-.71l1.421.822a.41.41,0,0,1-.205.765m25-.308a.41.41,0,0,1-.2-.766l1.426-.814a.411.411,0,0,1,.407.714l-1.426.813a.414.414,0,0,1-.2.053m3.563-2.033a.411.411,0,0,1-.2-.767l1.425-.813a.41.41,0,1,1,.407.713l-1.425.813a.415.415,0,0,1-.2.054m3.563-2.033a.41.41,0,0,1-.2-.766l1.425-.814a.41.41,0,1,1,.407.713l-1.425.814a.415.415,0,0,1-.2.053m3.563-2.033a.41.41,0,0,1-.2-.767l1.425-.813a.41.41,0,1,1,.407.713l-1.425.813a.416.416,0,0,1-.2.054m3.562-2.033a.411.411,0,0,1-.2-.767l1.426-.813a.411.411,0,0,1,.407.714l-1.426.813a.415.415,0,0,1-.2.053m3.563-2.033a.411.411,0,0,1-.2-.767l1.425-.813a.411.411,0,0,1,.408.713l-1.426.813a.416.416,0,0,1-.2.054m3.563-2.033a.41.41,0,0,1-.2-.766l1.425-.814a.41.41,0,1,1,.407.713l-1.425.814a.415.415,0,0,1-.2.053" transform="translate(-23.565 -53.189)" fill="#ffd70f"/>
        <path id="Trazado_623865" data-name="Trazado 623865" d="M74.367,105.093a3.771,3.771,0,0,0,1.711,2.949,1.511,1.511,0,0,0,.738.228c.533,0,.865-.436.865-1.14a3.771,3.771,0,0,0-1.711-2.949,1.511,1.511,0,0,0-.738-.228c-.533,0-.865.437-.865,1.14" transform="translate(-13.357 -18.67)" fill="#0fbab8"/>
        <path id="Trazado_623866" data-name="Trazado 623866" d="M126.691,310.018c0,.747,1.04,1.353,2.323,1.353s2.323-.605,2.323-1.353-1.04-1.353-2.323-1.353-2.323.605-2.323,1.353" transform="translate(-22.754 -55.437)" fill="#ffd70f"/>
        <path id="Trazado_623867" data-name="Trazado 623867" d="M26.531,241.848c0,.747,1.04,1.353,2.323,1.353s2.323-.605,2.323-1.353-1.04-1.353-2.323-1.353-2.323.605-2.323,1.353" transform="translate(-4.765 -43.194)" fill="#eb4680"/>
        <path id="Trazado_623868" data-name="Trazado 623868" d="M199.472,209.823c0,.747,1.04,1.353,2.323,1.353s2.323-.605,2.323-1.353-1.04-1.353-2.323-1.353-2.323.605-2.323,1.353" transform="translate(-35.826 -37.442)" fill="#0fbab8"/>
        <path id="Trazado_623869" data-name="Trazado 623869" d="M190.8,294.225l2.925,1.949,1.949-3.314Z" transform="translate(-34.269 -52.599)" fill="#ffd70f"/>
        <path id="Trazado_623870" data-name="Trazado 623870" d="M242.517,206.4l2.925,1.949,1.949-3.314Z" transform="translate(-43.557 -36.825)" fill="#0fbab8"/>
        <path id="Trazado_623871" data-name="Trazado 623871" d="M49.087,139.1l-2.925-1.95-1.949,3.314Z" transform="translate(-7.941 -24.632)" fill="#0fbab8"/>
        <path id="Trazado_623872" data-name="Trazado 623872" d="M72.039,268.391l2.925-1.949,1.949,3.314Z" transform="translate(-12.938 -47.854)" fill="#eb4680"/>
        <path id="Trazado_623873" data-name="Trazado 623873" d="M65.878,263.612a.406.406,0,0,1-.205-.055l-1.419-.821a.41.41,0,1,1,.411-.71l1.419.821a.41.41,0,0,1-.206.765m-3.55-2.053a.4.4,0,0,1-.205-.055l-1.421-.821a.41.41,0,0,1,.411-.71l1.42.821a.41.41,0,0,1-.205.765m-3.552-2.053a.41.41,0,0,1-.205-.055l-1.419-.821a.41.41,0,1,1,.411-.71l1.419.821a.41.41,0,0,1-.206.765m-3.55-2.053a.4.4,0,0,1-.205-.056l-1.422-.821a.41.41,0,0,1,.412-.71l1.42.821a.41.41,0,0,1-.205.765M51.675,255.4a.4.4,0,0,1-.205-.056l-1.422-.821a.41.41,0,0,1,.411-.71l1.422.821a.41.41,0,0,1-.206.765m-3.552-2.053a.409.409,0,0,1-.205-.056l-1.419-.821a.41.41,0,1,1,.41-.71l1.42.821a.41.41,0,0,1,.151.56.414.414,0,0,1-.357.205m-3.551-2.053a.409.409,0,0,1-.205-.056l-1.421-.821a.41.41,0,1,1,.412-.71l1.419.821a.41.41,0,0,1-.205.765m-3.551-2.053a.406.406,0,0,1-.205-.056l-1.42-.82a.41.41,0,1,1,.411-.71l1.421.821a.41.41,0,0,1-.207.765m-3.551-2.053a.409.409,0,0,1-.205-.056l-1.421-.82a.41.41,0,0,1,.411-.71l1.421.821a.41.41,0,0,1-.206.765m-3.551-2.053a.407.407,0,0,1-.205-.055l-1.42-.821a.411.411,0,0,1,.412-.71l1.419.821a.41.41,0,0,1-.206.765m-3.55-2.053a.4.4,0,0,1-.205-.055l-.281-.163a.41.41,0,1,1,.41-.71l.282.162a.411.411,0,0,1-.206.765" transform="translate(-5.33 -43.481)" fill="#eb4680"/>
        <path id="Trazado_623874" data-name="Trazado 623874" d="M289.41,67.984c0-.747-1.04-1.353-2.323-1.353s-2.323.605-2.323,1.353,1.04,1.353,2.323,1.353,2.323-.605,2.323-1.353" transform="translate(-51.145 -11.967)" fill="#ffd70f"/>
        <path id="Trazado_623875" data-name="Trazado 623875" d="M249.578,44.755,246.653,46.7,244.7,43.39Z" transform="translate(-43.95 -7.793)" fill="#ffd70f"/>
        <path id="Trazado_623876" data-name="Trazado 623876" d="M278.665,63.536a.408.408,0,0,1-.2-.055l-1.423-.817a.41.41,0,0,1,.409-.711l1.423.817a.411.411,0,0,1-.2.766m-3.556-2.044a.407.407,0,0,1-.2-.054l-1.423-.818a.41.41,0,0,1,.409-.711l1.423.818a.41.41,0,0,1-.2.765m-3.557-2.044a.408.408,0,0,1-.2-.054l-1.423-.817a.41.41,0,0,1,.409-.711l1.423.817a.41.41,0,0,1-.2.765m-3.556-2.043a.409.409,0,0,1-.2-.055l-1.423-.817a.411.411,0,0,1,.409-.712l1.423.818a.411.411,0,0,1-.2.766m-3.556-2.044a.408.408,0,0,1-.2-.054l-1.423-.818a.41.41,0,0,1,.409-.711l1.423.818a.41.41,0,0,1-.2.765m-3.556-2.044a.407.407,0,0,1-.2-.054l-1.423-.818a.41.41,0,0,1,.409-.711l1.423.818a.41.41,0,0,1-.2.765m-3.557-2.044a.407.407,0,0,1-.2-.054L255.7,50.4a.41.41,0,0,1,.409-.711l1.422.817a.41.41,0,0,1-.2.766m-3.556-2.044a.409.409,0,0,1-.2-.055l-1.423-.817a.41.41,0,1,1,.409-.711l1.423.817a.41.41,0,0,1-.2.766m-3.556-2.044a.408.408,0,0,1-.2-.054l-1.423-.818a.41.41,0,1,1,.409-.711l1.423.817a.41.41,0,0,1-.2.766" transform="translate(-44.61 -8.181)" fill="#ffd70f"/>
        <path id="Trazado_623877" data-name="Trazado 623877" d="M326.345,277.8c0-.747-1.04-1.353-2.323-1.353s-2.323.605-2.323,1.353,1.04,1.353,2.323,1.353,2.323-.605,2.323-1.353" transform="translate(-57.778 -49.651)" fill="#0fbab8"/>
        <path id="Trazado_623878" data-name="Trazado 623878" d="M298.98,261.84l-2.925,1.949-1.949-3.314Z" transform="translate(-52.823 -46.782)" fill="#0fbab8"/>
        <path id="Trazado_623879" data-name="Trazado 623879" d="M317.43,274.431a.415.415,0,0,1-.2-.054l-1.426-.813a.411.411,0,1,1,.408-.713l1.425.813a.411.411,0,0,1-.2.767m-3.563-2.034a.412.412,0,0,1-.2-.053l-1.425-.813a.411.411,0,0,1,.407-.714l1.425.814a.41.41,0,0,1-.2.766m-3.563-2.032a.415.415,0,0,1-.2-.054l-1.425-.813a.41.41,0,1,1,.407-.713l1.425.813a.41.41,0,0,1-.2.767m-3.563-2.033a.414.414,0,0,1-.2-.053l-1.426-.814a.41.41,0,0,1,.407-.713l1.426.814a.41.41,0,0,1-.2.766m-3.562-2.033a.413.413,0,0,1-.2-.054l-1.426-.813a.41.41,0,0,1,.407-.713l1.426.813a.411.411,0,0,1-.2.767m-3.563-2.033a.415.415,0,0,1-.2-.053l-1.425-.814a.41.41,0,0,1-.153-.559.415.415,0,0,1,.56-.153l1.425.814a.41.41,0,0,1-.2.766" transform="translate(-53.482 -47.17)" fill="#0fbab8"/>
        <path id="Trazado_623880" data-name="Trazado 623880" d="M217.3,212.886h0q-.828-.01-1.655-.049a.41.41,0,0,1-.391-.428.4.4,0,0,1,.429-.391q.811.038,1.625.048a.41.41,0,0,1,0,.82m2.46-.033a.41.41,0,0,1-.016-.82q.812-.031,1.624-.092a.411.411,0,0,1,.061.819q-.825.06-1.654.094Zm-6.555-.2-.041,0q-.826-.082-1.645-.194a.41.41,0,0,1-.351-.461.405.405,0,0,1,.461-.351q.806.11,1.616.19a.41.41,0,0,1-.04.819m10.641-.148a.41.41,0,0,1-.051-.817q.809-.1,1.606-.237a.41.41,0,1,1,.135.809q-.813.135-1.638.242a.377.377,0,0,1-.053,0m-14.7-.445a.444.444,0,0,1-.08-.007c-.545-.107-1.085-.222-1.62-.349a.409.409,0,0,1-.3-.493.4.4,0,0,1,.493-.3q.786.185,1.589.34a.41.41,0,0,1-.078.813m18.736-.27a.41.41,0,0,1-.091-.81q.8-.183,1.574-.394a.41.41,0,1,1,.215.792q-.793.217-1.607.4a.39.39,0,0,1-.091.011m-22.719-.714a.408.408,0,0,1-.12-.018q-.8-.242-1.577-.518a.41.41,0,1,1,.272-.774q.761.27,1.543.506a.41.41,0,0,1-.119.8m26.661-.408a.41.41,0,0,1-.134-.8q.772-.267,1.518-.567a.41.41,0,0,1,.306.76q-.764.308-1.556.582a.406.406,0,0,1-.134.023m3.781-1.583a.41.41,0,0,1-.184-.777q.731-.364,1.425-.765a.411.411,0,0,1,.41.711q-.715.412-1.468.788a.414.414,0,0,1-.184.043" transform="translate(-36.494 -37.267)" fill="#0fbab8"/>
        <path id="Trazado_623881" data-name="Trazado 623881" d="M286.748,246.578h-40.8v2.113c0,6.561,9.133,11.879,20.4,11.879s20.4-5.319,20.4-11.879c0-.055-.006-.109-.007-.164h.007Z" transform="translate(-44.173 -44.286)" fill="#a8cff0"/>
        <path id="Trazado_623882" data-name="Trazado 623882" d="M245.949,244.077c0,6.561,9.133,11.879,20.4,11.879s20.4-5.319,20.4-11.879-9.133-11.879-20.4-11.879-20.4,5.319-20.4,11.879" transform="translate(-44.173 -41.704)" fill="#d1ebff"/>
        <path id="Trazado_623883" data-name="Trazado 623883" d="M266.349,258.546c-11.143,0-20.195-5.2-20.39-11.667,0,.071-.009.141-.009.212,0,6.561,9.133,11.879,20.4,11.879s20.4-5.319,20.4-11.879c0-.071-.007-.141-.009-.212-.2,6.462-9.246,11.667-20.39,11.667" transform="translate(-44.174 -44.34)" fill="#fff"/>
        <path id="Trazado_623884" data-name="Trazado 623884" d="M285.866,239.7H247.443v5.173c0,6.179,8.6,11.188,19.211,11.188s19.212-5.009,19.212-11.188c0-.052-.006-.1-.007-.154h.007Z" transform="translate(-44.442 -43.052)" fill="#a8cff0"/>
        <path id="Trazado_623885" data-name="Trazado 623885" d="M247.443,237.348c0,6.178,8.6,11.188,19.212,11.188s19.211-5.009,19.211-11.188-8.6-11.188-19.211-11.188-19.212,5.009-19.212,11.188" transform="translate(-44.442 -40.619)" fill="#d1ebff"/>
        <path id="Trazado_623886" data-name="Trazado 623886" d="M258.886,237.313c-.642,3.387,3.552,7.027,9.369,8.129s11.052-.75,11.694-4.136-3.552-7.027-9.369-8.129-11.052.749-11.694,4.136" transform="translate(-46.485 -41.822)" fill="#a8cff0"/>
        <path id="Trazado_623887" data-name="Trazado 623887" d="M266.655,250.974c-10.5,0-19.02-4.9-19.2-10.988,0,.067-.008.133-.008.2,0,6.178,8.6,11.188,19.212,11.188s19.21-5.009,19.21-11.188c0-.067-.006-.133-.008-.2-.184,6.087-8.707,10.988-19.2,10.988" transform="translate(-44.442 -43.102)" fill="#fff"/>
        <g id="Grupo_888914" data-name="Grupo 888914" transform="translate(235.619 201.098)" opacity="0.2" style="mix-blend-mode: multiply;isolation: isolate">
          <g id="Grupo_888913" data-name="Grupo 888913">
            <g id="Grupo_888912" data-name="Grupo 888912" clip-path="url(#clip-path-7)">
              <path id="Trazado_623888" data-name="Trazado 623888" d="M287.2,247.431l3.972-2.309L323.18,263.6a7.931,7.931,0,0,1-7.95.012Z" transform="translate(-287.202 -245.122)" fill="#d1ebff"/>
            </g>
          </g>
        </g>
        <path id="Trazado_623889" data-name="Trazado 623889" d="M329.193,258.408a4.423,4.423,0,1,1-6.222.65,4.424,4.424,0,0,1,6.222-.65" transform="translate(-57.829 -46.234)" fill="#001a46"/>
        <path id="Trazado_623890" data-name="Trazado 623890" d="M300.471,233.9l-6.852,8.449,23.33,18.823v0c.011.01.021.02.033.029,1.359,1.1,3.995.1,5.886-2.23s2.324-5.118.966-6.219l-.035-.026h0Z" transform="translate(-52.735 -42.009)" fill="#084c94"/>
        <path id="Trazado_623891" data-name="Trazado 623891" d="M300.318,233.82c1.359,1.1.926,3.886-.966,6.219s-4.528,3.332-5.886,2.23-.926-3.886.966-6.219,4.528-3.332,5.886-2.23" transform="translate(-52.565 -41.914)" fill="#2672ab"/>
        <path id="Trazado_623892" data-name="Trazado 623892" d="M290.743,228.979,286.667,234l6.632,5.379h0l.013.011c.815.66,2.382.067,3.507-1.321s1.383-3.044.575-3.7l-.015-.011-.006-.006Z" transform="translate(-51.486 -41.125)" fill="#001a46"/>
        <path id="Trazado_623893" data-name="Trazado 623893" d="M281.332,239.96l-16.389-13.113-1.971,2.462-.052.066c-2.108,2.635-.149,7.707,4.377,11.328s9.9,4.42,12.012,1.785c.018-.022.033-.046.05-.068l0,0Z" transform="translate(-47.069 -40.743)" fill="#72b5e8"/>
        <path id="Trazado_623894" data-name="Trazado 623894" d="M265.352,226.547c-2.108,2.635-.149,7.708,4.377,11.329s9.9,4.42,12.012,1.784.149-7.708-4.376-11.329-9.9-4.419-12.013-1.784" transform="translate(-47.506 -40.41)" fill="#a8cff0"/>
        <path id="Trazado_623895" data-name="Trazado 623895" d="M269.717,238.212c-4.477-3.582-6.439-8.581-4.441-11.24-.024.028-.049.054-.072.082-2.108,2.636-.149,7.708,4.376,11.329s9.9,4.42,12.013,1.784c.023-.028.043-.059.065-.088-2.156,2.533-7.464,1.715-11.941-1.867" transform="translate(-47.479 -40.765)" fill="#fff"/>
        <path id="Trazado_623896" data-name="Trazado 623896" d="M282.2,236.143l-12.76-10.209-1.534,1.916-.041.052c-1.642,2.052-.116,6,3.407,8.82s7.711,3.441,9.353,1.389c.014-.017.025-.035.039-.053l0,0Z" transform="translate(-47.991 -40.579)" fill="#3f92d1"/>
        <path id="Trazado_623897" data-name="Trazado 623897" d="M269.76,225.7c-1.642,2.052-.116,6,3.407,8.82s7.711,3.441,9.353,1.389.116-6-3.407-8.819-7.711-3.442-9.353-1.39" transform="translate(-48.331 -40.319)" fill="#ffde17"/>
        <path id="Trazado_623898" data-name="Trazado 623898" d="M273.158,234.781c-3.485-2.789-5.013-6.681-3.458-8.751-.018.021-.038.042-.056.064-1.642,2.052-.116,6,3.407,8.82s7.711,3.442,9.353,1.39c.018-.022.034-.046.051-.069-1.679,1.972-5.812,1.335-9.3-1.454" transform="translate(-48.311 -40.596)" fill="#fff"/>
        <path id="Trazado_623899" data-name="Trazado 623899" d="M291.671,223.626,277.38,212.191l-1.718,2.147-6.744,8.43c-1.839,2.3-.13,6.721,3.816,9.878s8.636,3.854,10.475,1.556c.016-.02.029-.04.043-.06l0,0Z" transform="translate(-48.166 -38.11)" fill="#72b5e8"/>
        <path id="Trazado_623900" data-name="Trazado 623900" d="M279.2,211.929c-1.839,2.3-.13,6.721,3.817,9.878s8.635,3.854,10.475,1.556.13-6.721-3.816-9.878-8.636-3.854-10.475-1.556" transform="translate(-50.013 -37.82)" fill="#a8cff0"/>
        <path id="Trazado_623901" data-name="Trazado 623901" d="M283.011,222.1c-3.9-3.123-5.615-7.483-3.872-9.8-.02.024-.043.047-.063.071-1.839,2.3-.13,6.721,3.816,9.878s8.636,3.854,10.475,1.556c.02-.025.037-.052.056-.077-1.88,2.209-6.508,1.5-10.412-1.628" transform="translate(-49.99 -38.13)" fill="#fff"/>
        <path id="Trazado_623902" data-name="Trazado 623902" d="M294.946,220.213,282.187,210l-1.534,1.917-.041.052c-1.642,2.052-.116,6,3.407,8.819s7.711,3.442,9.352,1.39c.014-.017.025-.035.039-.053l0,0Z" transform="translate(-50.28 -37.717)" fill="#3f92d1"/>
        <path id="Trazado_623903" data-name="Trazado 623903" d="M282.506,209.77c-1.642,2.052-.117,6,3.407,8.82s7.711,3.441,9.353,1.39.116-6-3.407-8.82-7.711-3.442-9.352-1.39" transform="translate(-50.621 -37.458)" fill="#ffde17"/>
        <path id="Trazado_623904" data-name="Trazado 623904" d="M285.9,218.851c-3.485-2.789-5.013-6.681-3.458-8.751-.018.021-.038.042-.056.064-1.642,2.052-.116,6,3.407,8.82s7.711,3.442,9.353,1.39c.018-.023.034-.046.051-.069-1.678,1.972-5.812,1.335-9.3-1.454" transform="translate(-50.6 -37.735)" fill="#fff"/>
        <path id="Trazado_623905" data-name="Trazado 623905" d="M299.21,217.616,282.82,204.5l-1.971,2.462-.052.066c-2.108,2.635-.149,7.707,4.377,11.328s9.9,4.42,12.012,1.785c.018-.022.033-.046.05-.068l0,0Z" transform="translate(-50.28 -36.73)" fill="#72b5e8"/>
        <path id="Trazado_623906" data-name="Trazado 623906" d="M283.23,204.2c-2.108,2.635-.149,7.708,4.377,11.329s9.9,4.42,12.012,1.784.149-7.708-4.376-11.329-9.9-4.419-12.013-1.784" transform="translate(-50.717 -36.397)" fill="#a8cff0"/>
        <path id="Trazado_623907" data-name="Trazado 623907" d="M287.6,215.867c-4.477-3.582-6.44-8.581-4.442-11.24-.024.028-.049.053-.072.082-2.108,2.636-.149,7.708,4.376,11.329s9.9,4.42,12.013,1.784c.023-.028.043-.059.065-.088-2.156,2.533-7.464,1.715-11.94-1.867" transform="translate(-50.69 -36.752)" fill="#fff"/>
        <g id="Grupo_888917" data-name="Grupo 888917" transform="translate(73.745 187.49)" opacity="0.2">
          <g id="Grupo_888916" data-name="Grupo 888916">
            <g id="Grupo_888915" data-name="Grupo 888915" clip-path="url(#clip-path-8)">
              <path id="Trazado_623908" data-name="Trazado 623908" d="M132.455,295.227,91.667,271.44c-2.633-1.52-2.3-4.176.738-5.931l61.541-35.519c3.04-1.756,7.64-1.946,10.273-.426l40.789,23.787c2.633,1.52,2.3,4.176-.738,5.931L142.728,294.8c-3.04,1.756-7.64,1.946-10.273.426" transform="translate(-89.889 -228.537)" fill="#92b4d1"/>
            </g>
          </g>
        </g>
        <path id="Trazado_623909" data-name="Trazado 623909" d="M214.834,247.027a3.013,3.013,0,0,0-1.7-2.214l-5.013-3.069,1.065-.393c2.366-.872,2.656-2.686.476-4.063a10.836,10.836,0,0,0-8.409-.935l-1.208.445-5.013-3.069a10.663,10.663,0,0,0-4.09-1.335,10.518,10.518,0,0,0-4.8.387l-4.4,1.642,26.712,16.357,4.4-1.642c1.29-.476,2.009-1.243,1.98-2.112m-11.345-7.539c-1.021-.625-.967-1.456.118-1.856a4.967,4.967,0,0,1,3.813.406c1.021.625.967,1.456-.118,1.856a4.967,4.967,0,0,1-3.813-.406" transform="translate(-32.642 -41.72)" fill="#a8cff0"/>
        <path id="Trazado_623910" data-name="Trazado 623910" d="M132.8,294.233l-40.81-23.8c-2.619-1.512-2.291-4.153.733-5.9L154.117,229.1c3.024-1.746,7.6-1.935,10.217-.423l40.81,23.8c2.619,1.512,2.29,4.153-.733,5.9L143.018,293.81c-3.024,1.746-7.6,1.935-10.217.423" transform="translate(-16.204 -40.887)" fill="#084c94"/>
        <path id="Trazado_623911" data-name="Trazado 623911" d="M132.8,293.209l-40.81-23.8c-2.619-1.512-2.291-4.153.733-5.9l61.393-35.434c3.024-1.746,7.6-1.935,10.217-.423l40.81,23.8c2.619,1.512,2.29,4.153-.733,5.9l-61.393,35.433c-3.024,1.746-7.6,1.935-10.217.423" transform="translate(-16.204 -40.703)" fill="#2672ab"/>
        <path id="Trazado_623912" data-name="Trazado 623912" d="M204.412,262.845l-61.393,35.433c-3.024,1.746-7.6,1.935-10.216.423L91.992,274.9a3.121,3.121,0,0,1-1.752-2.35,2.941,2.941,0,0,0,1.752,2.807L132.8,299.159c2.619,1.512,7.192,1.322,10.216-.424L204.412,263.3c1.756-1.013,2.6-2.327,2.485-3.549a4.4,4.4,0,0,1-2.485,3.092" transform="translate(-16.205 -46.653)" fill="#3f92d1"/>
        <g id="Grupo_888920" data-name="Grupo 888920" transform="translate(78.701 188.595)" style="mix-blend-mode: multiply;isolation: isolate">
          <g id="Grupo_888919" data-name="Grupo 888919">
            <g id="Grupo_888918" data-name="Grupo 888918" clip-path="url(#clip-path-9)">
              <path id="Trazado_623913" data-name="Trazado 623913" d="M137.929,290.3l-42-28.405,65.844-32.012,42,28.405Z" transform="translate(-95.931 -229.883)" fill="#d1ebff"/>
            </g>
          </g>
        </g>
        <path id="Trazado_623914" data-name="Trazado 623914" d="M138.9,289.237l-42-28.405,65.844-32.012,42,28.405Z" transform="translate(-17.403 -41.097)" fill="#f0f8ff"/>
        <g id="Grupo_888923" data-name="Grupo 888923" transform="translate(76.671 187.364)" style="mix-blend-mode: multiply;isolation: isolate">
          <g id="Grupo_888922" data-name="Grupo 888922">
            <g id="Grupo_888921" data-name="Grupo 888921" clip-path="url(#clip-path-10)">
              <path id="Trazado_623915" data-name="Trazado 623915" d="M137.812,290.971l-44.356-25.61,64.05-36.979,44.356,25.609Z" transform="translate(-93.456 -228.382)" fill="#d1ebff"/>
            </g>
          </g>
        </g>
        <path id="Trazado_623916" data-name="Trazado 623916" d="M138.766,289.852,94.857,264.5l63.4-36.607,43.91,25.351Z" transform="translate(-17.037 -40.931)" fill="#fff"/>
        <g id="Grupo_888926" data-name="Grupo 888926" transform="translate(149.402 191.003)" style="mix-blend-mode: multiply;isolation: isolate">
          <g id="Grupo_888925" data-name="Grupo 888925">
            <g id="Grupo_888924" data-name="Grupo 888924" clip-path="url(#clip-path-11)">
              <path id="Trazado_623917" data-name="Trazado 623917" d="M214.658,246.607a3.163,3.163,0,0,0-1.782-2.314l-5.009-2.892.994-.574c2.208-1.274,2.364-3.371.182-4.677a8.869,8.869,0,0,0-8.119-.058l-1.127.651-5.009-2.891a8.685,8.685,0,0,0-4.008-1.03,8.869,8.869,0,0,0-4.57,1.014l-4.1,1.932,26.691,15.41,4.1-1.933a2.914,2.914,0,0,0,1.755-2.638m-11.376-7.217a1.121,1.121,0,0,1-.011-2.125,4.066,4.066,0,0,1,3.68.007,1.121,1.121,0,0,1,.011,2.125,4.068,4.068,0,0,1-3.68-.007" transform="translate(-182.11 -232.818)" fill="#d1ebff"/>
            </g>
          </g>
        </g>
        <path id="Trazado_623918" data-name="Trazado 623918" d="M214.3,245.533a3.163,3.163,0,0,0-1.782-2.314l-5.009-2.892.994-.574c2.208-1.274,2.364-3.371.182-4.677a8.869,8.869,0,0,0-8.119-.058l-1.127.651-5.008-2.891a8.685,8.685,0,0,0-4.008-1.03,8.869,8.869,0,0,0-4.57,1.014l-4.1,2.392,26.691,15.41,4.1-2.392a2.914,2.914,0,0,0,1.755-2.638m-11.376-7.217a1.121,1.121,0,0,1-.011-2.125,4.066,4.066,0,0,1,3.68.007,1.121,1.121,0,0,1,.011,2.125,4.069,4.069,0,0,1-3.68-.007" transform="translate(-32.643 -41.622)" fill="#a8cff0"/>
        <path id="Trazado_623919" data-name="Trazado 623919" d="M211.06,236.575a4.066,4.066,0,0,0-3.68-.007,1.18,1.18,0,0,0-.729,1.263,1.413,1.413,0,0,1,.729-.852,4.068,4.068,0,0,1,3.68.007,1.437,1.437,0,0,1,.741.863c.107-.451-.138-.926-.741-1.274" transform="translate(-37.111 -42.41)" fill="#d1ebff"/>
        <path id="Trazado_623920" data-name="Trazado 623920" d="M214.142,240.516l-.994.574.356.206.638-.369a2.838,2.838,0,0,0,1.725-2.652,3.071,3.071,0,0,1-1.725,2.241" transform="translate(-38.282 -42.795)" fill="#d1ebff"/>
        <path id="Trazado_623921" data-name="Trazado 623921" d="M212.544,248.462l-4.1,2.392-26.336-15.205-.354.207,26.691,15.41,4.1-2.392a2.916,2.916,0,0,0,1.756-2.638c0-.008,0-.017,0-.026a3.136,3.136,0,0,1-1.751,2.254" transform="translate(-32.643 -42.323)" fill="#72b5e8"/>
        <path id="Trazado_623922" data-name="Trazado 623922" d="M210.384,247.965l-23.4-13.509,1-.571,23.4,13.509Z" transform="translate(-33.583 -42.007)" fill="#d1ebff"/>
        <path id="Trazado_623923" data-name="Trazado 623923" d="M210.1,248.323l-23.4-13.509,1-.571,23.4,13.509Z" transform="translate(-33.532 -42.071)" fill="#72b5e8"/>
        <path id="Trazado_623924" data-name="Trazado 623924" d="M182.571,247.532l1.08-.624-2.174-1.255-1.08.624Zm9.065,1.313-12.192-7.039-1.08.624,12.192,7.04Zm-20.907-8.15,8.736,5.044,1.08-.623-8.736-5.044Zm29.411,13.06-7.572-4.372-1.08.624,7.572,4.372Zm-5.888-.726-9.668-5.582-1.08.624,9.668,5.582Zm5.739,1.888,2.265,1.308,1.08-.624-2.265-1.308Zm-29.113-15.383-3.87-2.235-1.08.624,3.87,2.234Zm7.635,1.734-9.189-5.306-1.08.623,9.189,5.306Z" transform="translate(-29.801 -42.38)" fill="#0fbab8"/>
        <path id="Trazado_623925" data-name="Trazado 623925" d="M179.007,251.585l-.812.469,1.634.943.811-.469Zm-8.5-1.953,10.854,6.256.812-.468-10.854-6.256Zm3.158,2.894-.812.469,4.61,2.651.811-.468Zm-5.007.053,8.257,4.757.812-.468-8.257-4.757Zm21.283,5.3-8.6-4.95-.812.469,8.6,4.95Zm-4.4,1.49-6.566-3.79-.812.468,6.566,3.791ZM162.15,244.79l7.654,4.438.811-.468-7.653-4.438Zm-3.264,4.143,11.125,6.442.812-.468L159.7,248.464Zm11.826,6.846,8.256,4.757.812-.469-8.257-4.757Zm-2.757-3.6.811-.469-3.6-2.1-.812.469Zm.583-5.687,8.957,5.161.812-.468-8.957-5.162Zm4.423,5.634-7.507-4.353-.812.469,7.507,4.353Zm-8.207-4.757-8.156-4.73-.811.469,8.156,4.73Zm-2.492-3.447-3.925-2.287-.812.468,3.926,2.288Zm27.564,14.839,2.908,1.678.812-.468-2.909-1.679Zm-31.64-10.228.812-.469-5.88-3.416-.812.469Zm-4.017-4.353,9.489,5.5.811-.469-9.489-5.5Zm25.5,16.766,6.1,3.512.812-.468-6.1-3.513Zm2.389-4.648,8.936,5.147.812-.468-8.936-5.147Zm3.367,3.953,3.829,2.2.812-.468-3.829-2.2Zm-7.284-2.2,9.373,5.4.812-.469-9.373-5.4Z" transform="translate(-27.355 -43.398)" fill="#72b5e8"/>
        <path id="Trazado_623926" data-name="Trazado 623926" d="M167.223,258.594l-.812.469,1.634.943.811-.469Zm-8.5-1.953,10.855,6.256.811-.468-10.854-6.256Zm3.158,2.894-.812.468,4.61,2.651.811-.468Zm-5.007.053,8.257,4.757.812-.468-8.257-4.758Zm21.283,5.3-8.6-4.95-.812.469,8.6,4.95Zm-4.4,1.49-6.566-3.791-.812.469,6.566,3.79ZM150.366,251.8l7.653,4.438.811-.468-7.653-4.438Zm5.8,7.385.811-.469-3.6-2.1-.811.468Zm.583-5.688,8.957,5.162.812-.469-8.957-5.161Zm4.423,5.635-7.507-4.353-.812.468,7.507,4.354Zm-8.207-4.758-8.156-4.73-.811.469,8.156,4.73Zm-2.491-3.447-3.926-2.287-.811.468,3.925,2.287Zm27.563,14.839,2.908,1.679.812-.468-2.908-1.679Zm-35.657-14.581,9.489,5.5.812-.469-9.489-5.5ZM170.273,263.3l8.936,5.147.812-.469-8.936-5.146Zm3.367,3.953,3.829,2.2.812-.469-3.829-2.2Zm-7.284-2.2,9.373,5.4.812-.469-9.373-5.4Z" transform="translate(-25.573 -44.656)" fill="#72b5e8"/>
        <path id="Trazado_623927" data-name="Trazado 623927" d="M155.412,264.543l-.812.468,1.634.943.812-.468Zm-8.5-1.953,10.854,6.256.811-.468-10.854-6.257Zm3.157,2.894-.812.468,4.61,2.652.811-.469Zm-5.007.053,8.257,4.757.812-.469-8.257-4.757Zm21.283,5.3-8.6-4.95-.812.468,8.6,4.95Zm-4.4,1.49-6.566-3.791-.812.469,6.566,3.79Zm-23.385-14.583,7.653,4.438.811-.469-7.653-4.437Zm-3.265,4.142,11.125,6.443.812-.468L136.1,261.422Zm11.826,6.847,8.256,4.757.812-.468-8.256-4.757Zm-2.757-3.6.812-.468-3.6-2.1-.811.468Zm.583-5.687,8.957,5.162.812-.469-8.957-5.161Zm4.423,5.634-7.507-4.353-.812.468,7.507,4.353Zm-8.207-4.758L133,255.592l-.812.469,8.156,4.73Zm-2.491-3.447-3.926-2.287-.811.468,3.925,2.287Zm27.563,14.839,2.908,1.679.812-.468-2.908-1.679Zm-31.64-10.227.812-.469-5.88-3.416-.812.468Zm-4.017-4.353,9.489,5.5.812-.468-9.489-5.5Zm25.5,16.765,6.105,3.513.811-.468-6.1-3.513Zm2.389-4.648L167.4,274.4l.812-.469-8.936-5.147Zm3.367,3.953,3.829,2.2.812-.468-3.829-2.2Zm-7.284-2.2,9.374,5.4.811-.468-9.373-5.4Zm-9.734-2.515-.812.469,4.61,2.651.811-.468Zm-5.007.053,8.257,4.757.812-.468-8.257-4.757Zm16.882,6.793-6.566-3.79-.812.468,6.566,3.791Zm-17.582-7.2.811-.469-3.6-2.1-.812.469Zm5.006-.053-7.507-4.353-.812.469,7.507,4.353ZM135.9,263.33l-8.156-4.73-.811.469,8.156,4.73Zm-10.585-3.189,9.489,5.5.812-.469-9.49-5.5Zm31.256,16.07,3.829,2.2.812-.468-3.829-2.2Zm-7.284-2.2,9.373,5.4.812-.469-9.373-5.4Z" transform="translate(-22.508 -45.725)" fill="#72b5e8"/>
        <path id="Trazado_623928" data-name="Trazado 623928" d="M119.528,267.5l-.812.469,2.918,1.684.812-.468Zm-4.478.362,6.566,3.79.812-.468-6.566-3.791Zm14.662,5.518-6.566-3.79-.812.468,6.566,3.791Zm-7.868,1.5-6.906-3.987-.812.468,6.906,3.988Z" transform="translate(-20.497 -48.024)" fill="#72b5e8"/>
        <path id="Trazado_623929" data-name="Trazado 623929" d="M155.593,283.364a.164.164,0,0,0-.191-.134l-1.3.228.137-.23A11.08,11.08,0,0,0,147,282.144c-2.486.438-4.374,1.636-4.927,3.126l.31.116c.513-1.381,2.3-2.5,4.675-2.916a10.783,10.783,0,0,1,6.955,1.006l-12.894,2.27a.166.166,0,0,0,.029.329.118.118,0,0,0,.029,0l14.286-2.515a.166.166,0,0,0,.134-.192m1.652,2.969-5.126.9a.165.165,0,0,0,.028.328l.03,0,3.724-.657c-.455,1.435-2.257,2.593-4.712,3.026a10.843,10.843,0,0,1-6.9-.975l6.372-1.092a.166.166,0,1,0-.056-.327l-7.643,1.311a.165.165,0,0,0,.028.328l.028,0,1.207-.207-.144.252a10.449,10.449,0,0,0,5.086,1.217,12.051,12.051,0,0,0,2.082-.18c2.6-.457,4.5-1.715,4.981-3.284l-.26-.079,1.336-.236a.165.165,0,0,0-.057-.326m1.2-1.826c-1.295-2.405-5.063-4.021-9.379-4.021a16.332,16.332,0,0,0-2.828.245c-3.179.56-5.617,2.009-6.523,3.877a3.485,3.485,0,0,0,.086,3.288c1.295,2.4,5.064,4.021,9.379,4.021a16.407,16.407,0,0,0,2.828-.244c3.179-.56,5.618-2.009,6.523-3.877a3.485,3.485,0,0,0-.086-3.288m-.211,3.144c-.86,1.773-3.209,3.154-6.283,3.7a16.066,16.066,0,0,1-2.77.239c-4.132,0-7.868-1.582-9.088-3.847a3.167,3.167,0,0,1-.08-2.987c.859-1.772,3.208-3.154,6.283-3.7a15.992,15.992,0,0,1,2.77-.24c4.132,0,7.868,1.582,9.088,3.847a3.167,3.167,0,0,1,.08,2.987m-9.163-6.621a14.891,14.891,0,0,0-2.582.223c-2.894.509-5.111,1.825-5.931,3.517a3.13,3.13,0,0,0,.078,2.953c1.175,2.184,4.607,3.652,8.54,3.652a14.967,14.967,0,0,0,2.582-.223c2.894-.509,5.111-1.825,5.931-3.518a3.13,3.13,0,0,0-.078-2.953c-1.175-2.184-4.607-3.651-8.539-3.651m8.469,6.531c-.8,1.646-2.97,2.926-5.812,3.427a14.791,14.791,0,0,1-2.553.221c-3.813,0-7.265-1.465-8.393-3.564a2.971,2.971,0,0,1-.075-2.8c.8-1.645,2.971-2.926,5.812-3.427a14.811,14.811,0,0,1,2.553-.221c3.813,0,7.265,1.466,8.394,3.565a2.969,2.969,0,0,1,.075,2.8" transform="translate(-25.027 -50.376)" fill="#fc0"/>
        <path id="Trazado_623930" data-name="Trazado 623930" d="M145.71,288.792a.2.2,0,0,1-.038-.4l9.99-1.887a.2.2,0,0,1,.235.16.2.2,0,0,1-.16.236l-9.99,1.887a.206.206,0,0,1-.038,0" transform="translate(-26.134 -51.457)" fill="#fc0"/>
        <path id="Trazado_623931" data-name="Trazado 623931" d="M146.8,287.3a.2.2,0,0,1-.038-.4l7.272-1.373a.2.2,0,0,1,.236.16.2.2,0,0,1-.161.236l-7.272,1.373a.207.207,0,0,1-.038,0" transform="translate(-26.329 -51.281)" fill="#fc0"/>
        <path id="Trazado_623932" data-name="Trazado 623932" d="M133.094,287.454a1.085,1.085,0,0,1-.153-.011.4.4,0,0,1-.336-.3c-.42-1.724.179-3.617,1.83-5.781a2.822,2.822,0,0,0-.782-.926c-.081-.063-.387-.285-.452-.333a3.25,3.25,0,0,1-.591,1.275.4.4,0,0,1-.322.159l-.081-.007a.4.4,0,0,1-.308-.3,5.97,5.97,0,0,1-.165-2.948,3.087,3.087,0,0,1,.646-1.2l-1.2.179a5.459,5.459,0,0,1-.341,4.474.4.4,0,0,1-.171.166,2.71,2.71,0,0,1-1.226.271,3.428,3.428,0,0,1-.632-.059,7.683,7.683,0,0,1-.861,3.258.4.4,0,0,1-.356.217,1.875,1.875,0,0,1-1.505-.961,2.862,2.862,0,0,1-.252-1.36c-.008-1.09,0-2.186.034-3.264a4.141,4.141,0,0,1-.707-1.573.732.732,0,0,1-.094-.168,4.72,4.72,0,0,1-.5-2.072,3.9,3.9,0,0,0-.421-1.772l-.1-.218.723-.345.1.219a4.714,4.714,0,0,1,.5,2.077c.007.178.015.352.039.537a.4.4,0,0,1,.222-.1l.742-.085a.417.417,0,0,1,.31.108.391.391,0,0,1,.123.316q-.058.96-.1,1.927a2.972,2.972,0,0,0,.373.06,2.262,2.262,0,0,1,.9.239,1.4,1.4,0,0,1,.615.935,7.2,7.2,0,0,1,.2,1.2,2.738,2.738,0,0,0,.65.08,2.041,2.041,0,0,0,.754-.131,4.744,4.744,0,0,0,.063-4.139.406.406,0,0,1,.017-.353.4.4,0,0,1,.293-.2l3.766-.56a.414.414,0,0,1,.443.33.4.4,0,0,1-.322.46,2.468,2.468,0,0,0-1.946,1.707.394.394,0,0,1,.241-.1h0a.389.389,0,0,1,.4.29,2.751,2.751,0,0,1,.082.385,3.068,3.068,0,0,0,.627.534c.1.07.191.139.28.208a3.637,3.637,0,0,1,.827.89q.132-.158.261-.307c.308-.356.625-.711.944-1.066.642-.715,1.306-1.455,1.877-2.217a3.133,3.133,0,0,1,.7-1.021.9.9,0,0,1,.359.124,26.813,26.813,0,0,1-2.339,3.648c-.315.352-.63.7-.934,1.054-.155.181-.317.372-.478.573a3.979,3.979,0,0,1,.187,1.755,9.828,9.828,0,0,1-1.226,3.319,1.44,1.44,0,0,1-1.229.9m1.645-5.154a6.124,6.124,0,0,0-1.425,4.27,1.164,1.164,0,0,0,.3-.383,9.263,9.263,0,0,0,1.143-3.043,3.333,3.333,0,0,0-.013-.844m-8.084-1.39q-.022,1.176-.013,2.343a2.173,2.173,0,0,0,.16,1,1.05,1.05,0,0,0,.572.479,6.812,6.812,0,0,0,.644-2.866,4.567,4.567,0,0,1-1.363-.953m.029-1.168a5.567,5.567,0,0,0,.391.452,4.5,4.5,0,0,0,.875.729,6.255,6.255,0,0,0-.128-.644c-.063-.253-.13-.372-.246-.441a1.623,1.623,0,0,0-.58-.132c-.1-.012-.205-.025-.309-.042Zm5.728-.555a4.245,4.245,0,0,0,.03.614,2.1,2.1,0,0,0,.02-.487.973.973,0,0,1-.05-.127m-6.434-1.836a1.9,1.9,0,0,0-.038.862c.013-.288.028-.575.044-.863Z" transform="translate(-22.28 -49.185)" fill="#084c94"/>
        <path id="Trazado_623933" data-name="Trazado 623933" d="M220.51,279.006H197.179v3.6c0,3.752,5.223,6.794,11.665,6.794s11.666-3.042,11.666-6.794c0-.031,0-.062,0-.094h0Z" transform="translate(-35.414 -50.111)" fill="#fc0"/>
        <path id="Trazado_623934" data-name="Trazado 623934" d="M197.178,277.576c0,3.752,5.223,6.794,11.666,6.794s11.665-3.042,11.665-6.794-5.223-6.794-11.665-6.794-11.666,3.042-11.666,6.794" transform="translate(-35.414 -48.633)" fill="#ffde17"/>
        <path id="Trazado_623935" data-name="Trazado 623935" d="M208.844,285.85c-6.373,0-11.549-2.976-11.66-6.671,0,.04-.006.08-.006.121,0,3.752,5.223,6.793,11.666,6.793s11.666-3.041,11.666-6.793c0-.041,0-.081-.006-.121-.112,3.7-5.287,6.671-11.66,6.671" transform="translate(-35.414 -50.142)" fill="#fff"/>
        <path id="Trazado_623936" data-name="Trazado 623936" d="M216.229,265.91H203.86v10.52c0,1.989,2.769,3.6,6.184,3.6s6.185-1.613,6.185-3.6c0-.017,0-.034,0-.05h0Z" transform="translate(-36.614 -47.758)" fill="#fc0"/>
        <path id="Trazado_623937" data-name="Trazado 623937" d="M218.388,260.291a8.949,8.949,0,1,1-8.949-8.949,8.949,8.949,0,0,1,8.949,8.949" transform="translate(-36.009 -45.142)" fill="#ffd70f"/>
        <path id="Trazado_623938" data-name="Trazado 623938" d="M211.942,251.5a8.932,8.932,0,0,1-5.536,16.773,8.943,8.943,0,1,0,5.536-16.773" transform="translate(-37.071 -45.17)" fill="#fc0"/>
        <path id="Trazado_623939" data-name="Trazado 623939" d="M210.763,257.831a3.63,3.63,0,1,1-3.63-3.63,3.63,3.63,0,0,1,3.63,3.63" transform="translate(-36.55 -45.655)" fill="#ffde17"/>
        <path id="Trazado_623940" data-name="Trazado 623940" d="M93.012,257.564l-1.6-1.759L67.773,243.138l.453-.5-2.21-1.6-.795,2.328-.226,1.4Z" transform="translate(-11.673 -43.292)" fill="#3f92d1"/>
        <path id="Trazado_623941" data-name="Trazado 623941" d="M93.012,258.084h0a1.913,1.913,0,0,1-2.593.777L65,245.284s1.582-1.353,1.6-1.344Z" transform="translate(-11.673 -43.813)" fill="#a8cff0"/>
        <path id="Trazado_623942" data-name="Trazado 623942" d="M92.672,258.425,66.253,244.28c-.011-.007-.753.624-1.222,1.022L65,245.284s1.581-1.353,1.6-1.344l26.418,14.145a1.892,1.892,0,0,1-.521.607,1.91,1.91,0,0,0,.181-.267" transform="translate(-11.673 -43.813)" fill="#d1ebff"/>
        <path id="Trazado_623943" data-name="Trazado 623943" d="M138.482,275.7c.724.391,2.988.953,3.378.228s-1.24-2.462-1.963-2.853a1.491,1.491,0,1,0-1.414,2.624" transform="translate(-24.731 -49.014)" fill="#03336e"/>
        <path id="Trazado_623944" data-name="Trazado 623944" d="M122.723,270.808c-3.837-2.017,1.292-11.9,5.484-9.476s8.814,8.718,8.814,8.718a.039.039,0,0,1,.016.009,2.09,2.09,0,0,1,.085,2.56,2,2,0,0,1-2.185,1.337c-.007,0-.011-.006-.016-.009s-8.362-1.121-12.2-3.139" transform="translate(-21.799 -46.868)" fill="#a8cff0"/>
        <g id="Grupo_888929" data-name="Grupo 888929" transform="translate(99.573 214.087)" opacity="0.5">
          <g id="Grupo_888928" data-name="Grupo 888928">
            <g id="Grupo_888927" data-name="Grupo 888927" clip-path="url(#clip-path-12)">
              <path id="Trazado_623945" data-name="Trazado 623945" d="M125.273,269.8c-2.673-1.405-.994-6.623,1.688-8.843-3.862-.19-7.7,8.029-4.237,9.85,3.837,2.017,12.2,3.139,12.2,3.139s.009.009.015.009a1.913,1.913,0,0,0,2.04-1.087c-1.846-.275-8.425-1.344-11.7-3.067" transform="translate(-121.372 -260.956)" fill="#72b5e8"/>
            </g>
          </g>
        </g>
        <path id="Trazado_623946" data-name="Trazado 623946" d="M111.43,264.755l5.251-9.744,9.815,5.244v0l.04.019c1.567.844,1.661,3.711.212,6.4s-3.9,4.187-5.462,3.343l-.038-.023v0Z" transform="translate(-20.013 -45.801)" fill="#eb4680"/>
        <g id="Grupo_888932" data-name="Grupo 888932" transform="translate(108.073 217.639)" opacity="0.5">
          <g id="Grupo_888931" data-name="Grupo 888931">
            <g id="Grupo_888930" data-name="Grupo 888930" clip-path="url(#clip-path-13)">
              <path id="Trazado_623947" data-name="Trazado 623947" d="M138.13,270.747l-.014-.012s-2.789-2.78-5.773-5.451a7.876,7.876,0,0,1-.61,2.457c2.9,2.016,5.717,3.846,5.717,3.846a.032.032,0,0,0,.009.007c.862.528,1.162.61,1.347.375s-.094-.669-.677-1.223" transform="translate(-131.733 -265.285)" fill="#d1ebff"/>
            </g>
          </g>
        </g>
        <path id="Trazado_623948" data-name="Trazado 623948" d="M123.834,270.927l-.039-.023v0l-9.815-5.243-2.55,1.007,9.815,5.243v0l.039.023c.945.509,2.21.162,3.383-.781a1.99,1.99,0,0,1-.834-.226" transform="translate(-20.013 -47.714)" fill="#d62d69"/>
      </g>
    </g>
    <g id="Grupo_888936" data-name="Grupo 888936" transform="translate(90.196 208.985)">
      <g id="Grupo_888935" data-name="Grupo 888935" clip-path="url(#clip-path-14)">
        <rect id="Rectángulo_326251" data-name="Rectángulo 326251" width="9.289" height="11.38" transform="translate(-1.155 0.05) rotate(-3.892)" fill="url(#linear-gradient)"/>
      </g>
    </g>
    <g id="Grupo_888966" data-name="Grupo 888966">
      <g id="Grupo_888965" data-name="Grupo 888965" clip-path="url(#clip-path)">
        <path id="Trazado_623950" data-name="Trazado 623950" d="M67.758,241.295l5.251-9.744,35.9,19.344v0l.04.019c1.567.844,1.661,3.71.212,6.4s-3.9,4.187-5.462,3.343l-.039-.023v0Z" transform="translate(-12.17 -41.587)" fill="#a8cff0"/>
        <g id="Grupo_888939" data-name="Grupo 888939" transform="translate(55.589 189.964)" opacity="0.5">
          <g id="Grupo_888938" data-name="Grupo 888938">
            <g id="Grupo_888937" data-name="Grupo 888937" clip-path="url(#clip-path-16)">
              <path id="Trazado_623951" data-name="Trazado 623951" d="M106.246,259.653l-.039-.023,0,0-35.9-19.343,4.255-7.9-1.555-.838-5.251,9.744,35.9,19.343v0l.039.023c.945.509,2.21.162,3.384-.781a1.993,1.993,0,0,1-.834-.226" transform="translate(-67.758 -231.551)" fill="#72b5e8"/>
            </g>
          </g>
        </g>
        <path id="Trazado_623952" data-name="Trazado 623952" d="M67.511,241.256c1.567.844,4.013-.652,5.462-3.343s1.354-5.557-.212-6.4-4.013.653-5.462,3.343-1.355,5.557.212,6.4" transform="translate(-11.902 -41.538)" fill="#d1ebff"/>
        <path id="Trazado_623953" data-name="Trazado 623953" d="M67.759,243.426v0l.02.011c-.007,0-.012-.009-.019-.012" transform="translate(-12.17 -43.72)" fill="#a8cff0"/>
        <path id="Trazado_623954" data-name="Trazado 623954" d="M67.759,243.426v0l.02.011c-.007,0-.012-.009-.019-.012" transform="translate(-12.17 -43.72)" fill="#a8cff0"/>
        <path id="Trazado_623955" data-name="Trazado 623955" d="M73.081,237.9c1.45-2.691,1.355-5.557-.212-6.4-.035-.019-.072-.03-.108-.047a1.925,1.925,0,0,1,.516.183c1.567.844,1.662,3.71.212,6.4-1.418,2.63-3.785,4.113-5.354,3.39,1.55.331,3.647-1.115,4.946-3.526" transform="translate(-12.237 -41.569)" fill="#f0f8ff"/>
        <path id="Trazado_623956" data-name="Trazado 623956" d="M60.772,236.481l4.455-8.268L70.8,231.3v0l.034.016c1.33.716,1.41,3.148.18,5.431s-3.305,3.553-4.634,2.837c-.011-.006-.021-.013-.033-.02v0Z" transform="translate(-10.915 -40.988)" fill="#eb4680"/>
        <path id="Trazado_623957" data-name="Trazado 623957" d="M60.562,236.448c1.329.716,3.4-.554,4.634-2.837s1.15-4.714-.18-5.431-3.4.554-4.634,2.837-1.15,4.715.18,5.431" transform="translate(-10.688 -40.946)" fill="#f76195"/>
        <path id="Trazado_623958" data-name="Trazado 623958" d="M66.217,228.222l-.015-.008v0l.016.007" transform="translate(-11.89 -40.988)" fill="#eb4680"/>
        <path id="Trazado_623959" data-name="Trazado 623959" d="M66.217,228.222l-.015-.008v0l.016.007" transform="translate(-11.89 -40.988)" fill="#eb4680"/>
        <g id="Grupo_888942" data-name="Grupo 888942" transform="translate(49.78 187.378)" opacity="0.5">
          <g id="Grupo_888941" data-name="Grupo 888941">
            <g id="Grupo_888940" data-name="Grupo 888940" clip-path="url(#clip-path-17)">
              <path id="Trazado_623960" data-name="Trazado 623960" d="M65.225,233.6c1.121-2.081,1.15-4.28.141-5.2.029.013.059.022.087.038,1.33.716,1.41,3.148.18,5.43S62.328,237.422,61,236.7a1.64,1.64,0,0,1-.321-.234c1.332.619,3.343-.64,4.547-2.875" transform="translate(-60.678 -228.4)" fill="#fff"/>
            </g>
          </g>
        </g>
        <g id="Grupo_888947" data-name="Grupo 888947" transform="translate(69.256 226.252)" opacity="0.2" style="mix-blend-mode: multiply;isolation: isolate">
          <g id="Grupo_888946" data-name="Grupo 888946">
            <g id="Grupo_888945" data-name="Grupo 888945" clip-path="url(#clip-path-18)">
              <g id="Grupo_888944" data-name="Grupo 888944" transform="translate(0 0)">
                <g id="Grupo_888943" data-name="Grupo 888943" clip-path="url(#clip-path-19)">
                  <rect id="Rectángulo_326254" data-name="Rectángulo 326254" width="56.618" height="55.673" transform="matrix(0.737, -0.676, 0.676, 0.737, -15.904, 14.478)" fill="url(#radial-gradient)"/>
                </g>
              </g>
            </g>
          </g>
        </g>
        <g id="Grupo_888952" data-name="Grupo 888952" transform="translate(95.167 226.631)" style="mix-blend-mode: multiply;isolation: isolate">
          <g id="Grupo_888951" data-name="Grupo 888951">
            <g id="Grupo_888950" data-name="Grupo 888950" clip-path="url(#clip-path-20)">
              <g id="Grupo_888949" data-name="Grupo 888949" transform="translate(0 0)">
                <g id="Grupo_888948" data-name="Grupo 888948" clip-path="url(#clip-path-21)">
                  <rect id="Rectángulo_326256" data-name="Rectángulo 326256" width="25.298" height="24.882" transform="matrix(0.737, -0.676, 0.676, 0.737, -7.133, 6.465)" fill="url(#radial-gradient-2)"/>
                </g>
              </g>
            </g>
          </g>
        </g>
        <g id="Grupo_888955" data-name="Grupo 888955" transform="translate(61.969 192.889)" opacity="0.5">
          <g id="Grupo_888954" data-name="Grupo 888954">
            <g id="Grupo_888953" data-name="Grupo 888953" clip-path="url(#clip-path-22)">
              <path id="Trazado_623963" data-name="Trazado 623963" d="M75.535,237.586l35.245,18.808a6.39,6.39,0,0,0,.354-2.558l-35.07-18.719a7.916,7.916,0,0,1-.529,2.469" transform="translate(-75.535 -235.116)" fill="#d1ebff"/>
            </g>
          </g>
        </g>
        <path id="Trazado_623964" data-name="Trazado 623964" d="M67.3,233.652l4.916,2.623a5.8,5.8,0,0,0,.439-2.269c0-.075-.018-.136-.025-.207l-4.768-2.545a6.928,6.928,0,0,1-.562,2.4" transform="translate(-12.087 -41.534)" fill="#f76195"/>
        <path id="Trazado_623965" data-name="Trazado 623965" d="M119.39,260.982l9,4.8a6.71,6.71,0,0,0,.409-2.363c0-.063-.016-.115-.02-.176l-8.918-4.76a7.632,7.632,0,0,1-.471,2.5" transform="translate(-21.443 -46.425)" fill="#f76195"/>
        <g id="Grupo_888958" data-name="Grupo 888958" transform="translate(187.871 235.247)" opacity="0.2">
          <g id="Grupo_888957" data-name="Grupo 888957">
            <g id="Grupo_888956" data-name="Grupo 888956" clip-path="url(#clip-path-23)">
              <path id="Trazado_623966" data-name="Trazado 623966" d="M229.816,294.794a1.194,1.194,0,0,1-.012-2.261l8.9-5.138a6.048,6.048,0,0,1,5.463.01c1.51.873,1.519,2.287.017,3.154l-7.95,4.589a.667.667,0,0,1-.605,0,.185.185,0,0,1,0-.349l7.95-4.589a1.3,1.3,0,0,0-.014-2.455,4.7,4.7,0,0,0-4.252-.007l-8.9,5.137a.825.825,0,0,0,.008,1.563,3,3,0,0,0,2.707,0l8.522-4.92a.373.373,0,0,0,0-.706,1.355,1.355,0,0,0-1.223,0l-7.1,4.1a.043.043,0,0,0,0,.08.153.153,0,0,0,.139,0l5.223-3.015a.668.668,0,0,1,.6,0c.167.1.169.254,0,.35l-5.223,3.016a1.494,1.494,0,0,1-1.349,0,.412.412,0,0,1,0-.779l7.1-4.1a2.694,2.694,0,0,1,2.433,0,.742.742,0,0,1,.007,1.405l-8.522,4.921a4.337,4.337,0,0,1-3.917-.007" transform="translate(-229 -286.748)" fill="#92b4d1"/>
            </g>
          </g>
        </g>
        <path id="Trazado_623967" data-name="Trazado 623967" d="M229.816,294.516a1.194,1.194,0,0,1-.012-2.261l8.9-5.138a6.049,6.049,0,0,1,5.463.01c1.51.873,1.519,2.287.017,3.154l-7.95,4.589a.668.668,0,0,1-.605,0,.185.185,0,0,1,0-.349l7.95-4.589a1.3,1.3,0,0,0-.014-2.455,4.7,4.7,0,0,0-4.252-.007l-8.9,5.137a.825.825,0,0,0,.008,1.562,2.994,2.994,0,0,0,2.707,0l8.522-4.92a.373.373,0,0,0,0-.706,1.355,1.355,0,0,0-1.223,0l-7.1,4.1a.043.043,0,0,0,0,.08.153.153,0,0,0,.139,0l5.223-3.015a.668.668,0,0,1,.6,0c.167.1.169.253,0,.35l-5.223,3.016a1.494,1.494,0,0,1-1.349,0,.412.412,0,0,1,0-.779l7.1-4.1a2.693,2.693,0,0,1,2.433,0,.742.742,0,0,1,.007,1.405l-8.522,4.921a4.337,4.337,0,0,1-3.917-.007" transform="translate(-41.129 -51.451)" fill="#2672ab"/>
        <path id="Trazado_623968" data-name="Trazado 623968" d="M242.584,288.688a1.353,1.353,0,0,0-1.223,0l-7.1,4.1a.042.042,0,0,0,0,.08.155.155,0,0,0,.139,0l5.223-3.016a.6.6,0,0,1,.2-.047l1.539-.888a1.353,1.353,0,0,1,1.223,0,.486.486,0,0,1,.217.241c.067-.164,0-.342-.217-.47" transform="translate(-42.069 -51.823)" fill="#084c94"/>
        <path id="Trazado_623969" data-name="Trazado 623969" d="M233.473,293.793a1.5,1.5,0,0,0,1.35,0l5.223-3.016c.135-.078.154-.194.068-.288a.275.275,0,0,1-.068.06l-5.223,3.015a1.493,1.493,0,0,1-1.35,0,.523.523,0,0,1-.243-.277.411.411,0,0,0,.243.506" transform="translate(-41.885 -52.173)" fill="#084c94"/>
        <path id="Trazado_623970" data-name="Trazado 623970" d="M243.751,287.3a4.71,4.71,0,0,0-4.253-.008l-8.9,5.138a.876.876,0,0,0-.537.891,1,1,0,0,1,.537-.662l8.9-5.138a4.708,4.708,0,0,1,4.253.008,1.558,1.558,0,0,1,.867,1.118,1.427,1.427,0,0,0-.867-1.347" transform="translate(-41.318 -51.509)" fill="#084c94"/>
        <path id="Trazado_623971" data-name="Trazado 623971" d="M245.606,290.516l-7.95,4.589a.667.667,0,0,1-.605,0,.271.271,0,0,1-.07-.061c-.086.094-.067.211.07.29a.667.667,0,0,0,.605,0l7.95-4.589a1.826,1.826,0,0,0,1.1-1.686,1.951,1.951,0,0,1-1.1,1.457" transform="translate(-42.553 -51.916)" fill="#084c94"/>
        <path id="Trazado_623972" data-name="Trazado 623972" d="M242.739,289.3a.9.9,0,0,1-.481.583l-8.522,4.922a4.337,4.337,0,0,1-3.917-.007,1.438,1.438,0,0,1-.8-1.021,1.309,1.309,0,0,0,.8,1.25,4.334,4.334,0,0,0,3.917.007l8.522-4.921a.784.784,0,0,0,.481-.812" transform="translate(-41.132 -51.959)" fill="#084c94"/>
        <g id="Grupo_888961" data-name="Grupo 888961" transform="translate(208.755 228.12)" opacity="0.2">
          <g id="Grupo_888960" data-name="Grupo 888960">
            <g id="Grupo_888959" data-name="Grupo 888959" clip-path="url(#clip-path-23)">
              <path id="Trazado_623973" data-name="Trazado 623973" d="M269.943,286.107a1.194,1.194,0,0,0,.012-2.261l-8.9-5.138a6.049,6.049,0,0,0-5.463.01c-1.51.873-1.519,2.287-.017,3.154l7.95,4.589a.67.67,0,0,0,.605,0,.185.185,0,0,0,0-.35l-7.95-4.589a1.3,1.3,0,0,1,.014-2.455,4.7,4.7,0,0,1,4.252-.007l8.9,5.137a.825.825,0,0,1-.008,1.562,2.994,2.994,0,0,1-2.707,0l-8.522-4.92a.373.373,0,0,1,0-.706,1.355,1.355,0,0,1,1.223,0l7.1,4.1a.042.042,0,0,1,0,.08.153.153,0,0,1-.139,0l-5.224-3.015a.668.668,0,0,0-.6,0c-.168.1-.169.254,0,.35l5.223,3.016a1.493,1.493,0,0,0,1.349,0,.412.412,0,0,0,0-.779l-7.1-4.1a2.694,2.694,0,0,0-2.433,0,.742.742,0,0,0-.007,1.405l8.522,4.921a4.337,4.337,0,0,0,3.917-.007" transform="translate(-254.456 -278.06)" fill="#92b4d1"/>
            </g>
          </g>
        </g>
        <path id="Trazado_623974" data-name="Trazado 623974" d="M269.943,285.766a1.194,1.194,0,0,0,.012-2.261l-8.9-5.138a6.049,6.049,0,0,0-5.463.01c-1.51.873-1.519,2.287-.017,3.154l7.95,4.589a.67.67,0,0,0,.605,0,.185.185,0,0,0,0-.349l-7.95-4.59a1.3,1.3,0,0,1,.014-2.455,4.706,4.706,0,0,1,4.252-.008l8.9,5.138a.825.825,0,0,1-.008,1.562,2.994,2.994,0,0,1-2.707,0l-8.522-4.92a.373.373,0,0,1,0-.706,1.355,1.355,0,0,1,1.223,0l7.1,4.1a.042.042,0,0,1,0,.08.153.153,0,0,1-.139,0l-5.224-3.015a.668.668,0,0,0-.6,0c-.168.1-.169.254,0,.349l5.223,3.016a1.494,1.494,0,0,0,1.349,0,.412.412,0,0,0,0-.779l-7.1-4.1a2.691,2.691,0,0,0-2.433,0,.742.742,0,0,0-.007,1.405l8.522,4.921a4.337,4.337,0,0,0,3.917-.007" transform="translate(-45.701 -49.879)" fill="#72b5e8"/>
        <path id="Trazado_623975" data-name="Trazado 623975" d="M269.538,283.715l-8.9-5.138a4.709,4.709,0,0,0-4.252.008,1.437,1.437,0,0,0-.87,1.334,1.55,1.55,0,0,1,.87-1.13,4.706,4.706,0,0,1,4.252-.008l8.9,5.138a.994.994,0,0,1,.538.675.881.881,0,0,0-.538-.879" transform="translate(-45.891 -49.943)" fill="#3f92d1"/>
        <path id="Trazado_623976" data-name="Trazado 623976" d="M258.863,280.173a1.353,1.353,0,0,1,1.223,0l1.614.932a.563.563,0,0,1,.125.029l5.223,3.016a.153.153,0,0,0,.139,0,.042.042,0,0,0,0-.08l-7.1-4.1a1.353,1.353,0,0,0-1.223,0,.373.373,0,0,0-.221.457.476.476,0,0,1,.221-.253" transform="translate(-46.45 -50.257)" fill="#3f92d1"/>
        <path id="Trazado_623977" data-name="Trazado 623977" d="M268.332,284.844a1.493,1.493,0,0,1-1.35,0l-5.223-3.015a.291.291,0,0,1-.083-.072c-.072.091-.046.2.083.276l5.223,3.015a1.493,1.493,0,0,0,1.35,0,.414.414,0,0,0,.247-.493.513.513,0,0,1-.247.29" transform="translate(-46.991 -50.605)" fill="#3f92d1"/>
        <path id="Trazado_623978" data-name="Trazado 623978" d="M264.22,286.31a.292.292,0,0,1-.085.074.667.667,0,0,1-.605,0l-7.95-4.589a1.942,1.942,0,0,1-1.1-1.47,1.833,1.833,0,0,0,1.1,1.674l7.95,4.589a.668.668,0,0,0,.605,0c.13-.075.157-.186.085-.277" transform="translate(-45.704 -50.347)" fill="#3f92d1"/>
        <path id="Trazado_623979" data-name="Trazado 623979" d="M270.5,286.073a4.337,4.337,0,0,1-3.917.007l-8.522-4.921a.9.9,0,0,1-.483-.6.789.789,0,0,0,.483.8l8.522,4.921a4.337,4.337,0,0,0,3.917-.007,1.317,1.317,0,0,0,.8-1.237,1.432,1.432,0,0,1-.8,1.034" transform="translate(-46.261 -50.39)" fill="#3f92d1"/>
        <g id="Grupo_888964" data-name="Grupo 888964" transform="translate(220.388 228.733)" opacity="0.2">
          <g id="Grupo_888963" data-name="Grupo 888963">
            <g id="Grupo_888962" data-name="Grupo 888962" clip-path="url(#clip-path-25)">
              <path id="Trazado_623980" data-name="Trazado 623980" d="M277.17,288.473a4.149,4.149,0,0,1-3.582-.962l-4.675-6.182c-.788-1.044.169-2.139,2.135-2.443s4.207.3,5,1.341l4.177,5.523c.088.116-.018.237-.236.271a.642.642,0,0,1-.554-.148l-4.177-5.523c-.614-.811-2.359-1.28-3.889-1.044s-2.276,1.09-1.662,1.9l4.675,6.182a2.869,2.869,0,0,0,2.475.664c.974-.15,1.448-.693,1.057-1.21l-4.478-5.921a1.3,1.3,0,0,0-1.119-.3c-.441.068-.655.313-.478.547l3.73,4.933a.146.146,0,0,0,.127.034c.05-.007.075-.035.054-.061L273,282.446c-.087-.116.019-.237.237-.271a.639.639,0,0,1,.553.148l2.744,3.629c.194.258-.042.528-.527.6a1.429,1.429,0,0,1-1.234-.331l-3.73-4.933c-.352-.465.075-.953.951-1.089a2.582,2.582,0,0,1,2.226.6l4.478,5.921c.565.748-.121,1.533-1.531,1.752" transform="translate(-268.636 -278.808)" fill="#92b4d1"/>
            </g>
          </g>
        </g>
        <path id="Trazado_623981" data-name="Trazado 623981" d="M277.17,288.132a4.149,4.149,0,0,1-3.582-.961l-4.675-6.182c-.788-1.043.169-2.139,2.135-2.443s4.207.3,5,1.341l4.177,5.523c.088.116-.018.237-.236.271a.642.642,0,0,1-.554-.148l-4.177-5.523c-.614-.812-2.359-1.28-3.889-1.044s-2.276,1.089-1.662,1.9l4.675,6.183a2.869,2.869,0,0,0,2.475.664c.974-.15,1.448-.693,1.057-1.21l-4.478-5.921a1.3,1.3,0,0,0-1.119-.3c-.441.068-.655.313-.478.547l3.73,4.933a.147.147,0,0,0,.127.034c.05-.007.075-.035.054-.062L273,282.105c-.087-.116.019-.237.237-.271a.639.639,0,0,1,.553.148l2.744,3.629c.194.258-.042.528-.527.6a1.429,1.429,0,0,1-1.234-.331l-3.73-4.933c-.352-.465.075-.953.951-1.089a2.582,2.582,0,0,1,2.226.6l4.478,5.921c.565.748-.121,1.533-1.531,1.752" transform="translate(-48.248 -50.014)" fill="#2672ab"/>
        <path id="Trazado_623982" data-name="Trazado 623982" d="M274,282.664c-.073.053-.1.124-.045.2l2.581,3.412a.153.153,0,0,0,.109.024c.05-.007.075-.035.054-.062Z" transform="translate(-49.198 -50.767)" fill="#084c94"/>
        <path id="Trazado_623983" data-name="Trazado 623983" d="M278.6,286.586l-4.478-5.921a1.3,1.3,0,0,0-1.119-.3c-.418.065-.621.29-.49.512a.673.673,0,0,1,.49-.258,1.3,1.3,0,0,1,1.119.3l4.478,5.921a.667.667,0,0,1,.113.234.557.557,0,0,0-.113-.488" transform="translate(-48.937 -50.351)" fill="#084c94"/>
        <path id="Trazado_623984" data-name="Trazado 623984" d="M280.364,285.39a.421.421,0,0,1-.192.075.638.638,0,0,1-.553-.148l-4.177-5.523c-.615-.811-2.359-1.28-3.889-1.044-1.244.193-1.954.793-1.852,1.447.1-.55.773-1.026,1.852-1.193,1.531-.236,3.275.232,3.889,1.044l4.177,5.523a.64.64,0,0,0,.553.148c.218-.034.324-.154.237-.271Z" transform="translate(-48.438 -50.054)" fill="#084c94"/>
        <path id="Trazado_623985" data-name="Trazado 623985" d="M271.547,281.4l3.73,4.933a1.43,1.43,0,0,0,1.234.331c.453-.07.674-.31.546-.551a.718.718,0,0,1-.546.3,1.43,1.43,0,0,1-1.234-.331l-3.73-4.933a.61.61,0,0,1-.1-.2.5.5,0,0,0,.1.45" transform="translate(-48.75 -50.459)" fill="#084c94"/>
        <path id="Trazado_623986" data-name="Trazado 623986" d="M277.173,288.237a4.154,4.154,0,0,1-3.582-.961l-4.675-6.183a1.249,1.249,0,0,1-.252-.628,1.155,1.155,0,0,0,.252.882l4.675,6.183a4.154,4.154,0,0,0,3.582.961c1.154-.179,1.81-.738,1.7-1.345-.094.5-.715.938-1.7,1.09" transform="translate(-48.251 -50.373)" fill="#084c94"/>
      </g>
    </g>
  </g>
</svg>
