<svg xmlns="http://www.w3.org/2000/svg" width="105" height="105" viewBox="0 0 105 105">
  <g id="Grupo_999309" data-name="Grupo 999309" transform="translate(-265 -5410)">
    <circle id="Elipse_5150" data-name="Elipse 5150" cx="52.5" cy="52.5" r="52.5" transform="translate(265 5410)" fill="#ad84ff"/>
    <g id="FILLED_OUTLINE" transform="translate(269 5414)">
      <path id="Trazado_667389" data-name="Trazado 667389" d="M39.244,131.933v-5.444a16.333,16.333,0,0,1,16.333-16.333h0a16.333,16.333,0,0,1,16.333,16.333v5.444H87.155v-4.356A31.578,31.578,0,0,0,55.578,96h0A31.578,31.578,0,0,0,24,127.578v4.356Z" transform="translate(-6.911 -69.111)" fill="#269dc2"/>
      <ellipse id="Elipse_5157" data-name="Elipse 5157" cx="9.555" cy="9.953" rx="9.555" ry="9.953" transform="translate(39.092 16.796)" fill="#8bb276"/>
      <path id="Trazado_667390" data-name="Trazado 667390" d="M181.352,239.073l-1.891-1.081A11.917,11.917,0,0,1,189.783,232h.192a11.789,11.789,0,0,1,8.516,3.6l-1.561,1.519a9.629,9.629,0,0,0-6.955-2.937h-.192A9.735,9.735,0,0,0,181.352,239.073Z" transform="translate(-141.213 -186.6)" fill="#62b8d3"/>
      <path id="Trazado_667391" data-name="Trazado 667391" d="M170.178,297.143H168a11.88,11.88,0,0,1,.521-3.49l2.082.639A9.711,9.711,0,0,0,170.178,297.143Z" transform="translate(-131.311 -239.862)" fill="#62b8d3"/>
      <rect id="Rectángulo_327789" data-name="Rectángulo 327789" width="4.778" height="11.148" transform="translate(27.945 66.96)" fill="#008cb7"/>
      <path id="Trazado_667392" data-name="Trazado 667392" d="M34.546,394.178l-1.54-1.54a2.178,2.178,0,0,0-1.54-.638h-2.62a2.178,2.178,0,0,0-2.161,1.908l-.544,4.356a2.178,2.178,0,0,0,2.161,2.448h1.889l-.6,1.2a2.178,2.178,0,0,0,1.948,3.152h.832l2.178-4.356h2.178v-6.533Z" transform="translate(-8.746 -324.823)" fill="#ffcbb1"/>
      <path id="Trazado_667393" data-name="Trazado 667393" d="M390.533,392l-2.178,4.356H384l3.267,3.267-1.089,5.444,4.355-3.267,4.356,3.267-1.089-5.444,3.267-3.267h-4.356Z" transform="translate(-317.911 -324.823)" fill="#f4aa8e"/>
      <path id="Trazado_667394" data-name="Trazado 667394" d="M230.215,48.73l-8.391,9.09-2.482-3.31L217.6,55.817l3.267,4.356a1.089,1.089,0,0,0,.816.434h.056a1.089,1.089,0,0,0,.8-.35l8.945-9.69A9.818,9.818,0,0,0,230.215,48.73Z" transform="translate(-174.159 -28.275)" fill="#ccdcc2"/>
      <path id="Trazado_667395" data-name="Trazado 667395" d="M87.943,158.4q-.8.743-1.54,1.54l10.3,10.3a16.425,16.425,0,0,1,1.467-1.613Z" transform="translate(-60.82 -123.021)" fill="#00779c"/>
      <path id="Trazado_667396" data-name="Trazado 667396" d="M207.709,153.635l23.256-31.023L227.48,120l-3.266,4.356-4.356-3.266-2.613,3.485,4.356,3.266-2.613,3.485-2.614-1.959-2.613,3.485,2.614,1.959-12.153,16.211a4.393,4.393,0,0,1-4.036,1.708,8.711,8.711,0,1,0,6.985,5.19A4.31,4.31,0,0,1,207.709,153.635ZM202.663,164a4.356,4.356,0,1,1-.872-6.1,4.356,4.356,0,0,1,.872,6.1Z" transform="translate(-150.721 -89.845)" fill="#9cbd8a"/>
      <path id="Trazado_667397" data-name="Trazado 667397" d="M189.783,234.177h.192a9.629,9.629,0,0,1,6.955,2.937l1.561-1.519a11.789,11.789,0,0,0-8.516-3.6h-.192a11.917,11.917,0,0,0-10.322,5.993l1.891,1.081A9.735,9.735,0,0,1,189.783,234.177Z" transform="translate(-141.212 -186.6)"/>
      <path id="Trazado_667398" data-name="Trazado 667398" d="M168,297.143h2.178a9.711,9.711,0,0,1,.425-2.851l-2.082-.639A11.88,11.88,0,0,0,168,297.143Z" transform="translate(-131.311 -239.862)"/>
      <path id="Trazado_667399" data-name="Trazado 667399" d="M34.168,384H29.813a1.089,1.089,0,0,0-1.089,1.089v1.089h-.638l-1.221-1.221a3.245,3.245,0,0,0-2.31-.957h-2.62a3.272,3.272,0,0,0-3.242,2.861l-.544,4.356a3.267,3.267,0,0,0,3.242,3.672h.154a3.267,3.267,0,0,0,3.08,4.356h.832a1.089,1.089,0,0,0,.974-.6l1.877-3.754h.416v1.089a1.089,1.089,0,0,0,1.089,1.089h4.356a1.089,1.089,0,0,0,1.089-1.089V385.089A1.089,1.089,0,0,0,34.168,384Zm-5.444,8.711H27.635a1.089,1.089,0,0,0-.974.6l-1.877,3.754h-.159a1.089,1.089,0,0,1-.974-1.576l.6-1.2a1.089,1.089,0,0,0-.974-1.576H21.391a1.089,1.089,0,0,1-1.081-1.224l.544-4.356a1.091,1.091,0,0,1,1.081-.954h2.62a1.081,1.081,0,0,1,.77.319l1.54,1.54a1.089,1.089,0,0,0,.77.319h1.089Zm4.356,2.178H30.9v-8.711H33.08Z" transform="translate(-1.835 -317.912)"/>
      <path id="Trazado_667400" data-name="Trazado 667400" d="M390.156,388.356h-3.683L384.6,384.6a1.089,1.089,0,0,0-1.948,0l-1.877,3.754h-3.683a1.089,1.089,0,0,0-.77,1.859l2.855,2.855-.975,4.873a1.089,1.089,0,0,0,1.721,1.085l3.7-2.777,3.7,2.777a1.089,1.089,0,0,0,1.721-1.085l-.975-4.873,2.855-2.855a1.089,1.089,0,0,0-.77-1.859Zm-4.037,3.586a1.089,1.089,0,0,0-.3.983l.53,2.65-2.076-1.557a1.089,1.089,0,0,0-1.307,0l-2.076,1.557.53-2.65a1.089,1.089,0,0,0-.3-.983l-1.408-1.408h1.727a1.089,1.089,0,0,0,.974-.6l1.2-2.408,1.2,2.408a1.089,1.089,0,0,0,.974.6h1.727Z" transform="translate(-311 -317.912)"/>
      <path id="Trazado_667401" data-name="Trazado 667401" d="M75.885,40.4l5.23-6.977A1.089,1.089,0,0,0,80.9,31.9l-3.485-2.613a1.089,1.089,0,0,0-1.524.218l-2.612,3.485L69.79,30.375a1.089,1.089,0,0,0-1.524.218l-.843,1.125a32.463,32.463,0,0,0-7.9-4.069c.017-.252.029-.5.029-.76a10.829,10.829,0,0,0-1.925-6.183,1.089,1.089,0,0,0-1.7-.12l-8.27,8.959-2.482-3.31L43.44,27.542,46.706,31.9a1.089,1.089,0,0,0,1.671.085l8.158-8.837a8.714,8.714,0,1,1-3.03-3.5l1.211-1.81a10.89,10.89,0,0,0-16.939,9.055c0,.256.012.509.03.761A32.679,32.679,0,0,0,16,58.466v4.356a1.089,1.089,0,0,0,1.089,1.089H32.333a1.089,1.089,0,0,0,1.089-1.089V57.377a15.246,15.246,0,0,1,27.92-8.472l-8.71,11.619A3.322,3.322,0,0,1,49.592,61.8a9.8,9.8,0,1,0-1.16,19.537,10.014,10.014,0,0,0,1.189-.071A9.715,9.715,0,0,0,56.3,77.417a9.829,9.829,0,0,0,1.153-9.774,3.222,3.222,0,0,1,.408-3.2h0l6.02-8.031c.02.321.031.643.031.964v5.444A1.089,1.089,0,0,0,65,63.911H80.244a1.089,1.089,0,0,0,1.089-1.089V58.466A32.417,32.417,0,0,0,75.885,40.4ZM31.244,57.377v4.356H18.178V58.466a30.246,30.246,0,0,1,5.935-18.078,31.091,31.091,0,0,1,2.236-2.7l8.76,8.76a17.338,17.338,0,0,0-3.865,10.928ZM48.666,39.955a17.362,17.362,0,0,0-12.085,4.886l-8.694-8.694a30.25,30.25,0,0,1,10.3-6.319,10.886,10.886,0,0,0,20.965,0,30.292,30.292,0,0,1,6.966,3.634l-.462.616a1.089,1.089,0,0,0,.218,1.524l3.485,2.613L68.05,39.957l-1.743-1.306a1.089,1.089,0,0,0-1.524.218l-2.612,3.485a1.089,1.089,0,0,0,.218,1.524l1.743,1.306-1.417,1.89A17.488,17.488,0,0,0,48.666,39.955Zm7.45,23.182h0a5.4,5.4,0,0,0-.665,5.37,7.622,7.622,0,1,1-6.11-4.54,5.507,5.507,0,0,0,5.032-2.136L66.527,45.62a1.089,1.089,0,0,0-.218-1.524l-1.743-1.306,1.306-1.743,1.743,1.306a1.089,1.089,0,0,0,1.524-.218l2.613-3.485a1.089,1.089,0,0,0-.218-1.524l-3.485-2.613,1.306-1.743,3.485,2.612a1.089,1.089,0,0,0,1.524-.218l2.613-3.485,1.743,1.306Zm23.038-1.4H66.089V57.377a17.55,17.55,0,0,0-.343-3.456l8.747-11.666a30.254,30.254,0,0,1,4.663,16.211Z"/>
      <path id="Trazado_667402" data-name="Trazado 667402" d="M223.181,385.142a5.444,5.444,0,1,0-3.277,9.8,5.527,5.527,0,0,0,.783-.056,5.444,5.444,0,0,0,2.495-9.746Zm-.652,6.316a3.267,3.267,0,1,1-3.076-5.193,3.317,3.317,0,0,1,.47-.034,3.267,3.267,0,0,1,2.607,5.227Z" transform="translate(-171.458 -317.959)"/>
    </g>
  </g>
</svg>
