<svg xmlns="http://www.w3.org/2000/svg" xmlns:xlink="http://www.w3.org/1999/xlink" width="295" height="276.118" viewBox="0 0 295 276.118">
  <defs>
    <clipPath id="clip-path">
      <rect id="Rectángulo_344945" data-name="Rectángulo 344945" width="295" height="276.118" transform="translate(41.43)" fill="none"/>
    </clipPath>
    <clipPath id="clip-path-2">
      <rect id="Rectángulo_344914" data-name="Rectángulo 344914" width="247.782" height="7.751" fill="none"/>
    </clipPath>
  </defs>
  <g id="Grupo_998876" data-name="Grupo 998876" transform="translate(-41.43)">
    <g id="Grupo_998879" data-name="Grupo 998879" clip-path="url(#clip-path)">
      <g id="Grupo_998878" data-name="Grupo 998878" transform="translate(42.695 268.368)" style="mix-blend-mode: multiply;isolation: isolate">
        <g id="Grupo_998877" data-name="Grupo 998877">
          <g id="Grupo_998876-2" data-name="Grupo 998876" clip-path="url(#clip-path-2)">
            <path id="Trazado_699648" data-name="Trazado 699648" d="M245.421,444.245H2.361c-1.3,0-2.361-1.735-2.361-3.875s1.056-3.875,2.361-3.875H245.421c1.3,0,2.361,1.735,2.361,3.875s-1.057,3.875-2.361,3.875" transform="translate(0 -436.494)" fill="#cfe2f8"/>
          </g>
        </g>
      </g>
      <path id="Trazado_699649" data-name="Trazado 699649" d="M139.254,207.276c8.221,0,10.9,6.047,11.783,10.012a7.872,7.872,0,0,1,5.421-1.865c8.5,0,6.882,11.335,6.882,11.335s2.024-2.429,6.882-1.619,6.478,8.907,6.478,8.907H110.156s2.327-11.639,9.311-12.8,9.893,2.328,9.893,2.328S127.033,207.276,139.254,207.276Z" transform="translate(-6.048 -80.751)" fill="#fff"/>
      <path id="Trazado_699650" data-name="Trazado 699650" d="M40.459,74.195s73,59.061,169.053-29.662c18.1-25.344,5.793-47.067-10.862-40.55s-12.31,22.447,2.9,28.964,36.93,5.793,56.48-7.24S310.887,10.5,310.887,10.5" transform="translate(-15.584 -1.084)" fill="none" stroke="#12263f" stroke-linecap="round" stroke-linejoin="round" stroke-width="1.5" stroke-dasharray="4.5 4.5"/>
      <path id="Trazado_699651" data-name="Trazado 699651" d="M525.415,10.17,495.549,8.435l-.856,8.391Z" transform="translate(-190.543 -3.249)" fill="#639bde"/>
      <path id="Trazado_699652" data-name="Trazado 699652" d="M525.415,11.257,497,11.512l-2.3,6.4Z" transform="translate(-190.543 -4.336)" fill="#4c87d0"/>
      <path id="Trazado_699653" data-name="Trazado 699653" d="M526.859,11.257l-28.417.256,3.84,8.7Z" transform="translate(-191.987 -4.336)" fill="#7aaeec"/>
      <path id="Trazado_699654" data-name="Trazado 699654" d="M524.054,6.921,494.189,5.186,491.16,0Z" transform="translate(-189.182 0)" fill="#7aaeec"/>
      <path id="Trazado_699655" data-name="Trazado 699655" d="M171.584,87.81H331.3a11.008,11.008,0,0,1,11.008,11.008V226.881A11.008,11.008,0,0,1,331.3,237.889H171.584a11.008,11.008,0,0,1-11.008-11.008V98.818A11.008,11.008,0,0,1,171.584,87.81" transform="translate(-61.85 -33.822)" fill="#12263f"/>
      <path id="Trazado_699656" data-name="Trazado 699656" d="M184.778,144.054h146.36a7.287,7.287,0,0,1,7.287,7.287v93.3a7.287,7.287,0,0,1-7.287,7.287H184.778a7.287,7.287,0,0,1-7.287-7.287v-93.3a7.287,7.287,0,0,1,7.287-7.287" transform="translate(-68.365 -55.486)" fill="#cfe2f8"/>
      <path id="Trazado_699657" data-name="Trazado 699657" d="M187.931,149.3h12.3a5.426,5.426,0,0,1,5.426,5.426v12.409a5.426,5.426,0,0,1-5.426,5.426h-12.3a5.426,5.426,0,0,1-5.426-5.426V154.724a5.426,5.426,0,0,1,5.426-5.426" transform="translate(-70.296 -57.506)" fill="#25ffff"/>
      <rect id="Rectángulo_344915" data-name="Rectángulo 344915" width="23.157" height="23.262" rx="8.826" transform="translate(112.209 91.793)" fill="none" stroke="#7aaeec" stroke-linecap="round" stroke-linejoin="round" stroke-width="2.425"/>
      <rect id="Rectángulo_344916" data-name="Rectángulo 344916" width="23.157" height="23.262" rx="8.826" transform="translate(112.209 117.962)" fill="none" stroke="#fff" stroke-linecap="round" stroke-linejoin="round" stroke-width="2.425"/>
      <rect id="Rectángulo_344917" data-name="Rectángulo 344917" width="23.157" height="23.262" rx="8.826" transform="translate(112.209 144.132)" fill="none" stroke="#fff" stroke-linecap="round" stroke-linejoin="round" stroke-width="2.425"/>
      <rect id="Rectángulo_344918" data-name="Rectángulo 344918" width="23.157" height="23.262" rx="8.826" transform="translate(112.209 170.302)" fill="none" stroke="#fff" stroke-linecap="round" stroke-linejoin="round" stroke-width="2.425"/>
      <rect id="Rectángulo_344919" data-name="Rectángulo 344919" width="23.157" height="23.262" rx="8.826" transform="translate(138.355 91.793)" fill="none" stroke="#fff" stroke-linecap="round" stroke-linejoin="round" stroke-width="2.425"/>
      <rect id="Rectángulo_344920" data-name="Rectángulo 344920" width="23.157" height="23.262" rx="8.826" transform="translate(164.502 91.793)" fill="none" stroke="#fff" stroke-linecap="round" stroke-linejoin="round" stroke-width="2.425"/>
      <path id="Trazado_699658" data-name="Trazado 699658" d="M315.512,149.3h12.3a5.427,5.427,0,0,1,5.427,5.426v12.409a5.427,5.427,0,0,1-5.427,5.426h-12.3a5.426,5.426,0,0,1-5.426-5.426V154.724a5.426,5.426,0,0,1,5.426-5.426" transform="translate(-119.437 -57.506)" fill="#25ffff"/>
      <rect id="Rectángulo_344921" data-name="Rectángulo 344921" width="23.157" height="23.262" rx="8.826" transform="translate(190.649 91.793)" fill="none" stroke="#7aaeec" stroke-linecap="round" stroke-linejoin="round" stroke-width="2.425"/>
      <rect id="Rectángulo_344922" data-name="Rectángulo 344922" width="23.157" height="23.262" rx="8.826" transform="translate(216.795 91.793)" fill="none" stroke="#ad84ff" stroke-linecap="round" stroke-linejoin="round" stroke-width="2.425"/>
      <rect id="Rectángulo_344923" data-name="Rectángulo 344923" width="23.157" height="23.262" rx="8.826" transform="translate(242.942 91.793)" fill="none" stroke="#fff" stroke-linecap="round" stroke-linejoin="round" stroke-width="2.425"/>
      <rect id="Rectángulo_344924" data-name="Rectángulo 344924" width="23.157" height="23.262" rx="8.826" transform="translate(138.355 117.962)" fill="none" stroke="#fff" stroke-linecap="round" stroke-linejoin="round" stroke-width="2.425"/>
      <path id="Trazado_699659" data-name="Trazado 699659" d="M272.985,191.863h12.3a5.427,5.427,0,0,1,5.427,5.426V209.7a5.427,5.427,0,0,1-5.427,5.426h-12.3a5.426,5.426,0,0,1-5.426-5.426V197.289a5.426,5.426,0,0,1,5.426-5.426" transform="translate(-103.057 -73.901)" fill="#7aaeec"/>
      <rect id="Rectángulo_344925" data-name="Rectángulo 344925" width="23.157" height="23.262" rx="8.826" transform="translate(164.502 117.962)" fill="#25ffff" stroke="#7aaeec" stroke-linecap="round" stroke-linejoin="round" stroke-width="2.425"/>
      <rect id="Rectángulo_344926" data-name="Rectángulo 344926" width="23.157" height="23.262" rx="8.826" transform="translate(190.649 117.962)" fill="none" stroke="#fff" stroke-linecap="round" stroke-linejoin="round" stroke-width="2.425"/>
      <rect id="Rectángulo_344927" data-name="Rectángulo 344927" width="23.157" height="23.262" rx="8.826" transform="translate(216.795 117.962)" fill="none" stroke="#fff" stroke-linecap="round" stroke-linejoin="round" stroke-width="2.425"/>
      <rect id="Rectángulo_344928" data-name="Rectángulo 344928" width="23.157" height="23.262" rx="8.826" transform="translate(242.942 117.962)" fill="none" stroke="#fff" stroke-linecap="round" stroke-linejoin="round" stroke-width="2.425"/>
      <rect id="Rectángulo_344929" data-name="Rectángulo 344929" width="23.157" height="23.262" rx="8.826" transform="translate(138.355 144.132)" fill="none" stroke="#fff" stroke-linecap="round" stroke-linejoin="round" stroke-width="2.425"/>
      <rect id="Rectángulo_344930" data-name="Rectángulo 344930" width="23.157" height="23.262" rx="8.826" transform="translate(164.502 144.132)" fill="none" stroke="#fff" stroke-linecap="round" stroke-linejoin="round" stroke-width="2.425"/>
      <rect id="Rectángulo_344931" data-name="Rectángulo 344931" width="23.157" height="23.262" rx="8.826" transform="translate(190.649 144.132)" fill="none" stroke="#fff" stroke-linecap="round" stroke-linejoin="round" stroke-width="2.425"/>
      <path id="Trazado_699660" data-name="Trazado 699660" d="M358.039,234.428h12.3a5.426,5.426,0,0,1,5.426,5.426v12.409a5.426,5.426,0,0,1-5.426,5.426h-12.3a5.426,5.426,0,0,1-5.426-5.426V239.854a5.426,5.426,0,0,1,5.426-5.426" transform="translate(-135.817 -90.296)" fill="#7aaeec"/>
      <rect id="Rectángulo_344932" data-name="Rectángulo 344932" width="23.157" height="23.262" rx="8.826" transform="translate(216.795 144.132)" fill="none" stroke="#7aaeec" stroke-linecap="round" stroke-linejoin="round" stroke-width="2.425"/>
      <rect id="Rectángulo_344933" data-name="Rectángulo 344933" width="23.157" height="23.262" rx="8.826" transform="translate(242.942 144.132)" fill="none" stroke="#fff" stroke-linecap="round" stroke-linejoin="round" stroke-width="2.425"/>
      <rect id="Rectángulo_344934" data-name="Rectángulo 344934" width="23.157" height="23.262" rx="8.826" transform="translate(138.355 170.302)" fill="none" stroke="#fff" stroke-linecap="round" stroke-linejoin="round" stroke-width="2.425"/>
      <rect id="Rectángulo_344935" data-name="Rectángulo 344935" width="23.157" height="23.262" rx="8.826" transform="translate(164.502 170.302)" fill="none" stroke="#fff" stroke-linecap="round" stroke-linejoin="round" stroke-width="2.425"/>
      <rect id="Rectángulo_344936" data-name="Rectángulo 344936" width="23.157" height="23.262" rx="8.826" transform="translate(190.649 170.302)" fill="none" stroke="#fff" stroke-linecap="round" stroke-linejoin="round" stroke-width="2.425"/>
      <rect id="Rectángulo_344937" data-name="Rectángulo 344937" width="23.157" height="23.262" rx="8.826" transform="translate(216.795 170.302)" fill="none" stroke="#fff" stroke-linecap="round" stroke-linejoin="round" stroke-width="2.425"/>
      <rect id="Rectángulo_344938" data-name="Rectángulo 344938" width="23.157" height="23.262" rx="8.826" transform="translate(242.942 170.302)" fill="none" stroke="#fff" stroke-linecap="round" stroke-linejoin="round" stroke-width="2.425"/>
      <path id="Trazado_699661" data-name="Trazado 699661" d="M182.822,95.283a3.664,3.664,0,1,1-3.655,3.674,3.664,3.664,0,0,1,3.655-3.674" transform="translate(-69.01 -36.701)" fill="#1c71d8"/>
      <path id="Trazado_699662" data-name="Trazado 699662" d="M183.392,67.154h0c1.457,0,2.643,1.8,2.649,4.024l.039,14.8c.006,2.226-1.17,4.034-2.627,4.038h0c-1.457,0-2.643-1.8-2.648-4.024l-.039-14.8c-.006-2.226,1.17-4.034,2.627-4.038" transform="translate(-69.626 -25.866)" fill="#1a5fb4"/>
      <path id="Trazado_699663" data-name="Trazado 699663" d="M213.643,94.961a3.664,3.664,0,1,1-3.664,3.664,3.663,3.663,0,0,1,3.664-3.664" transform="translate(-80.878 -36.577)" fill="#1c71d8"/>
      <path id="Trazado_699664" data-name="Trazado 699664" d="M214.285,66.832h0c1.457,0,2.638,1.8,2.638,4.031v14.8c0,2.226-1.181,4.031-2.638,4.031s-2.638-1.8-2.638-4.031v-14.8c0-2.226,1.181-4.031,2.638-4.031" transform="translate(-81.521 -25.742)" fill="#ad84ff"/>
      <path id="Trazado_699665" data-name="Trazado 699665" d="M429.334,95.285a3.664,3.664,0,1,1-3.674,3.655,3.665,3.665,0,0,1,3.674-3.655" transform="translate(-163.953 -36.701)" fill="#1c71d8"/>
      <path id="Trazado_699666" data-name="Trazado 699666" d="M430.025,67.157h0c1.457,0,2.633,1.812,2.628,4.038L432.614,86c-.006,2.226-1.191,4.028-2.649,4.024h0c-1.457,0-2.633-1.812-2.627-4.038l.039-14.8c.006-2.226,1.192-4.028,2.649-4.024" transform="translate(-164.6 -25.867)" fill="#ad84ff"/>
      <path id="Trazado_699667" data-name="Trazado 699667" d="M244.455,94.961a3.664,3.664,0,1,1-3.664,3.664,3.664,3.664,0,0,1,3.664-3.664" transform="translate(-92.746 -36.577)" fill="#1c71d8"/>
      <path id="Trazado_699668" data-name="Trazado 699668" d="M245.1,66.832h0c1.457,0,2.638,1.8,2.638,4.031v14.8c0,2.226-1.181,4.031-2.638,4.031s-2.638-1.8-2.638-4.031v-14.8c0-2.226,1.181-4.031,2.638-4.031" transform="translate(-93.389 -25.742)" fill="#ad84ff"/>
      <path id="Trazado_699669" data-name="Trazado 699669" d="M275.266,94.961a3.664,3.664,0,1,1-3.664,3.664,3.663,3.663,0,0,1,3.664-3.664" transform="translate(-104.614 -36.577)" fill="#1c71d8"/>
      <path id="Trazado_699670" data-name="Trazado 699670" d="M275.908,66.832h0c1.457,0,2.638,1.8,2.638,4.031v14.8c0,2.226-1.181,4.031-2.638,4.031s-2.638-1.8-2.638-4.031v-14.8c0-2.226,1.181-4.031,2.638-4.031" transform="translate(-105.257 -25.742)" fill="#ad84ff"/>
      <path id="Trazado_699671" data-name="Trazado 699671" d="M306.078,94.961a3.664,3.664,0,1,1-3.664,3.664,3.664,3.664,0,0,1,3.664-3.664" transform="translate(-116.482 -36.577)" fill="#1c71d8"/>
      <path id="Trazado_699672" data-name="Trazado 699672" d="M306.72,66.832h0c1.457,0,2.638,1.8,2.638,4.031v14.8c0,2.226-1.181,4.031-2.638,4.031s-2.638-1.8-2.638-4.031v-14.8c0-2.226,1.181-4.031,2.638-4.031" transform="translate(-117.125 -25.742)" fill="#ad84ff"/>
      <path id="Trazado_699673" data-name="Trazado 699673" d="M336.89,94.961a3.664,3.664,0,1,1-3.664,3.664,3.664,3.664,0,0,1,3.664-3.664" transform="translate(-128.35 -36.577)" fill="#1c71d8"/>
      <path id="Trazado_699674" data-name="Trazado 699674" d="M337.532,66.832h0c1.457,0,2.638,1.8,2.638,4.031v14.8c0,2.226-1.181,4.031-2.638,4.031s-2.638-1.8-2.638-4.031v-14.8c0-2.226,1.181-4.031,2.638-4.031" transform="translate(-128.992 -25.742)" fill="#ad84ff"/>
      <path id="Trazado_699675" data-name="Trazado 699675" d="M367.7,94.961a3.664,3.664,0,1,1-3.664,3.664,3.664,3.664,0,0,1,3.664-3.664" transform="translate(-140.218 -36.577)" fill="#1c71d8"/>
      <path id="Trazado_699676" data-name="Trazado 699676" d="M368.343,66.832h0c1.457,0,2.638,1.8,2.638,4.031v14.8c0,2.226-1.181,4.031-2.638,4.031s-2.638-1.8-2.638-4.031v-14.8c0-2.226,1.181-4.031,2.638-4.031" transform="translate(-140.86 -25.742)" fill="#ad84ff"/>
      <path id="Trazado_699677" data-name="Trazado 699677" d="M398.513,94.961a3.664,3.664,0,1,1-3.664,3.664,3.664,3.664,0,0,1,3.664-3.664" transform="translate(-152.086 -36.577)" fill="#1c71d8"/>
      <path id="Trazado_699678" data-name="Trazado 699678" d="M399.155,66.832h0c1.457,0,2.638,1.8,2.638,4.031v14.8c0,2.226-1.181,4.031-2.638,4.031s-2.638-1.8-2.638-4.031v-14.8c0-2.226,1.181-4.031,2.638-4.031" transform="translate(-152.728 -25.742)" fill="#ad84ff"/>
      <path id="Trazado_699679" data-name="Trazado 699679" d="M189.285,164.588l5.389,5.389,9.431-9.431" transform="translate(-72.908 -61.838)" fill="none" stroke="#fff" stroke-linecap="round" stroke-linejoin="round" stroke-width="2.425"/>
      <path id="Trazado_699680" data-name="Trazado 699680" d="M316.866,164.588l5.389,5.389,9.431-9.431" transform="translate(-122.048 -61.838)" fill="none" stroke="#fff" stroke-linecap="round" stroke-linejoin="round" stroke-width="2.425"/>
      <path id="Trazado_699681" data-name="Trazado 699681" d="M274.339,207.153l5.389,5.389,9.431-9.431" transform="translate(-105.668 -78.233)" fill="none" stroke="#fff" stroke-linecap="round" stroke-linejoin="round" stroke-width="2.425"/>
      <path id="Trazado_699682" data-name="Trazado 699682" d="M361.289,157.3a.7.7,0,0,0-.559,1.2l5.512,5.512-5.513,5.514a.7.7,0,0,0,0,1h0a.7.7,0,0,0,1,0h0L367.238,165l5.513,5.513a.7.7,0,0,0,1,0h0a.7.7,0,0,0,0-1l-5.512-5.513,5.512-5.513a.7.7,0,0,0,0-1h0a.7.7,0,0,0-1,0h0l-5.512,5.513-5.513-5.512A.7.7,0,0,0,361.289,157.3Z" transform="translate(-138.864 -60.585)" fill="#ad84ff"/>
      <line id="Línea_2416" data-name="Línea 2416" y1="12.022" x2="12.022" transform="translate(222.363 97.413)" fill="#7aaeec"/>
      <path id="Trazado_699683" data-name="Trazado 699683" d="M359.393,249.718l5.389,5.389,9.431-9.431" transform="translate(-138.429 -94.628)" fill="none" stroke="#fff" stroke-linecap="round" stroke-linejoin="round" stroke-width="2.425"/>
      <path id="Trazado_699684" data-name="Trazado 699684" d="M108.1,281.461a11.5,11.5,0,0,0-3.584-.768,61.309,61.309,0,0,0-7.04,1.152L93.5,318.967s11.776,2.688,17.665-.9C110.274,300.534,108.1,281.461,108.1,281.461Z" transform="translate(-36.016 -108.116)" fill="#7aafec"/>
      <path id="Trazado_699685" data-name="Trazado 699685" d="M111.792,256.1a30.614,30.614,0,0,1,.356,3.423c-.065.6.259.96.389,1.682a20.839,20.839,0,0,1-.032,4.084c-.13,2.222-.194,3-.842,3.483s-2.785-.18-2.785-.18l-.077,1.2-2.342,2.374-2.633-2.374s-.314-8.563-.574-9.824a5.791,5.791,0,0,1,.518-4.444c.971-1.5,1.415-1.886,3.423-1.826S111.275,253.694,111.792,256.1Z" transform="translate(-39.689 -97.714)" fill="#f4b58e"/>
      <path id="Trazado_699686" data-name="Trazado 699686" d="M159.2,242.166s1.036-1.684.777-2.331a3.9,3.9,0,0,1,0-2.461c.259-1.166,1.943-2.072,1.943-2.072s1.684-4.534,2.331-4.275-.777,3.5-.518,4.145,1.683,1.554,1.942,2.72-.518,2.85-1.036,2.979-1.295,2.331-1.295,2.331Z" transform="translate(-61.319 -88.981)" fill="#f4b58e"/>
      <path id="Trazado_699687" data-name="Trazado 699687" d="M130.262,431.086a3.452,3.452,0,0,0,1.648,2.015c1.283.641,5.129,2.381,5.587,3.114a2.448,2.448,0,0,1,.366,1.466,13.2,13.2,0,0,1-5.312.549c-3.114-.275-4.4-.549-5.129-.366s-2.748.275-2.748-.092-.275-4.4,1.008-6.228A30.83,30.83,0,0,1,130.262,431.086Z" transform="translate(-48.012 -166.043)" fill="#241f31"/>
      <path id="Trazado_699688" data-name="Trazado 699688" d="M109.517,335.748s1.832,28.575,2.2,30.407,2.2,28.576,2.2,28.576a5.241,5.241,0,0,1-5.861.366c-4.762-14.654-2.564-22.348-3.664-26.011S96.7,348.57,96.7,348.57s-5.5,20.516-6.228,23.08S86.8,395.463,86.8,395.463H82.041s-1.1-9.891-1.466-14.654,2.2-8.793,2.564-12.822,1.465-24.179,2.931-30.774C96.71,342.621,109.265,337.262,109.517,335.748Z" transform="translate(-31.022 -129.321)" fill="#12263f"/>
      <path id="Trazado_699689" data-name="Trazado 699689" d="M86.764,431.086a3.451,3.451,0,0,0,1.649,2.015c1.282.641,5.129,2.381,5.586,3.114a2.448,2.448,0,0,1,.366,1.466,13.2,13.2,0,0,1-5.312.549c-3.114-.275-4.4-.549-5.129-.366s-2.748.275-2.748-.092-.275-4.4,1.008-6.228A30.83,30.83,0,0,1,86.764,431.086Z" transform="translate(-31.258 -166.043)" fill="#241f31"/>
      <path id="Trazado_699690" data-name="Trazado 699690" d="M125.2,247.491c2-.06,4.172,1.874,4.172,1.874s-5.129,15.754-6.96,19.417-16.486,13.188-16.486,13.188-.186,16.274,3.991,25.464c-1.127,2.536-4.291,3.9-8.352,4.545-.783-4.3-3.75-18.712-4.338-23.86-.668-5.843.173-17.979.314-19.91,3.538-.146,6.188-.16,6.188-.16s10.624-1.832,12.09-4.03a162.868,162.868,0,0,0,8.059-16.119,2.479,2.479,0,0,1,1.324-.409M88.761,268.83c.964,4.21,1.227,13.637,1.227,17.478,0,3.674-2.544,21.353-3.4,26.645a15.594,15.594,0,0,1-7.584-2.976l3.107-27.641-4.495,4.271s2.362,1.335,6.982,3.818a16,16,0,0,1-.451,5.22s-16.491-5.293-15.758-8.224,7.228-11.857,8.693-13.688a9.71,9.71,0,0,1,6.494-4.22c1.638-.285,3.4-.5,5.181-.684" transform="translate(-26.334 -95.327)" fill="#b0c0d2"/>
      <path id="Trazado_699691" data-name="Trazado 699691" d="M108.284,284.648s2.56,22.657,2.56,25.089-2.56,6.912-2.56,6.912l-3.328-5.5,1.92-26.241Z" transform="translate(-40.426 -109.639)" fill="#26558c"/>
      <path id="Trazado_699692" data-name="Trazado 699692" d="M113.136,280.579a10.875,10.875,0,0,0-1.984-1.344l-2.24,3.072,1.473,2.112Z" transform="translate(-41.95 -107.554)" fill="#5587c2"/>
      <path id="Trazado_699693" data-name="Trazado 699693" d="M113.136,280.579a10.875,10.875,0,0,0-1.984-1.344l-2.24,3.072,1.473,1.472Z" transform="translate(-41.95 -107.554)" fill="#7aafec"/>
      <path id="Trazado_699694" data-name="Trazado 699694" d="M101.417,281.171a15.307,15.307,0,0,1,1.562-1.728l3.238,2.944-1.608,2.176Z" transform="translate(-39.063 -107.634)" fill="#5587c2"/>
      <path id="Trazado_699695" data-name="Trazado 699695" d="M101.417,281.171a15.307,15.307,0,0,1,1.562-1.728l3.238,2.944-1.672,1.472Z" transform="translate(-39.063 -107.634)" fill="#7aafec"/>
      <path id="Trazado_699696" data-name="Trazado 699696" d="M105.47,252.27a11.307,11.307,0,0,0,3.349-.362c1.358-.452,2.716-.181,2.987,1.177s0,2.263-1.629,2.354-3.53.09-3.53,1,.815,4.254.453,4.616-.634-1.357-1.539-1.539-1.448.815-1.176,2.444a4.375,4.375,0,0,0,1.9,2.625s-1.177,2.534-2.9,2.263c-1.267-8.146-1.267-10.952-1.086-12.672S104.474,252.27,105.47,252.27Z" transform="translate(-39.371 -96.95)" fill="#26558c"/>
      <path id="Trazado_699697" data-name="Trazado 699697" d="M101.57,300.027h8.351a1.436,1.436,0,0,1,1.436,1.436v14.6a1.436,1.436,0,0,1-1.436,1.436H101.57a1.436,1.436,0,0,1-1.436-1.436v-14.6a1.436,1.436,0,0,1,1.436-1.436" transform="translate(-38.569 -115.563)" fill="#163151"/>
      <path id="Trazado_699698" data-name="Trazado 699698" d="M94.327,317.178l4.024-2.006a6.571,6.571,0,0,1,3.271-.2c1.5.4,2.585,1.363,1.874,2.513a6.367,6.367,0,0,1-4.25,2.348c-1.351.04-5.016.154-5.016.154Z" transform="translate(-36.295 -121.267)" fill="#f4b58e"/>
      <path id="Trazado_699699" data-name="Trazado 699699" d="M226.776,295.8s3.739,14.314,6.19,14.572,8.64-5.416,8.64-5.416l-1.032-4.772-5.8,2.322s-.129-7.222-1.934-9.929S225.357,290,226.776,295.8Z" transform="translate(-87.261 -112.035)" fill="#4583cd"/>
      <path id="Trazado_699700" data-name="Trazado 699700" d="M166.267,411.561s-1.474,4.1-2.269,6-2.746,2.745-2.756,3.858,9.369,7.591,10.175,7.718,1.24-1.579-.88-4.1-4.187-5.12-3.922-6.276a55.546,55.546,0,0,1,2.746-5.883Z" transform="translate(-62.106 -158.523)" fill="#f4b58e"/>
      <path id="Trazado_699701" data-name="Trazado 699701" d="M167.166,425.09a5.357,5.357,0,0,1-3.923-1.765c-.887,1.1-1.994,1.786-2,2.624-.011,1.113,9.37,7.591,10.175,7.719s1.241-1.579-.879-4.1A35.184,35.184,0,0,1,167.166,425.09Z" transform="translate(-62.106 -163.054)" fill="#031e4d"/>
      <path id="Trazado_699702" data-name="Trazado 699702" d="M218.126,420s.378,4.1.445,6.076-1.4,3.864-.934,4.73,12.081-.084,12.894-.5.488-2.008-2.592-2.611-6.141-1.3-6.389-2.358a50.683,50.683,0,0,1,.053-6.288Z" transform="translate(-83.793 -161.408)" fill="#f4b58e"/>
      <path id="Trazado_699703" data-name="Trazado 699703" d="M216.935,330.62c.212,1.732-11.682,7.68-11.836,14.424-.082,3.589,2.5,11.732,2.55,12.351.144,1.784,5.569,32,5.569,32l3.612-.108s1.546-21.051,1.846-31.855C218.872,350.377,216.935,330.62,216.935,330.62Z" transform="translate(-78.998 -127.346)" fill="#b0c0d2"/>
      <path id="Trazado_699704" data-name="Trazado 699704" d="M188.976,319.291s-5.6,5.633-6.149,10.127-2.355,22.572-4.474,24.856-7.227,9.628-13.53,27.074a6.685,6.685,0,0,0,3.345,1.927s20.5-22.839,19.386-22.405c0,0,7.541-13.372,10.191-19.98s5.781-16.094,5.781-16.094Z" transform="translate(-63.486 -122.983)" fill="#b0c0d2"/>
      <path id="Trazado_699705" data-name="Trazado 699705" d="M234.722,260.451s1.1,3.325,1.551,5.6.75,4.106-.909,4.406a25.56,25.56,0,0,0-3.769,1.108l-1.939,5.152-5.741-1.091a10.1,10.1,0,0,0,2.727-4.117c-.2-2.091-1.322-8.381-.564-10.531s2.826-2.949,5.345-2.876A3.664,3.664,0,0,1,234.722,260.451Z" transform="translate(-86.246 -99.411)" fill="#f4b58e"/>
      <path id="Trazado_699706" data-name="Trazado 699706" d="M287.718,222.429l.031,7.591,7.434-1.533.03,7.591,7.435-1.533L248.8,300.9l-14.93-12.116Z" transform="translate(-90.081 -85.674)" fill="#636363"/>
      <path id="Trazado_699707" data-name="Trazado 699707" d="M246.452,342.471l-3.344,3.865-15.337-10.992,3.75-4.989Z" transform="translate(-87.731 -127.244)" fill="#7aaeec"/>
      <path id="Trazado_699708" data-name="Trazado 699708" d="M240.593,349.461l-3.9,3.733a9.135,9.135,0,0,1-13.344-12.435l1.9-2.29Z" transform="translate(-85.217 -130.369)" fill="#acceef"/>
      <path id="Trazado_699709" data-name="Trazado 699709" d="M338.209,208.291l-17.369,8.692-.979,8.835,8.445-2.777-.98,8.835,8.445-2.777,4.924-18.769-.446-.368C339.56,209.4,338.87,208.83,338.209,208.291Z" transform="translate(-123.202 -80.228)" fill="#cdab8f"/>
      <path id="Trazado_699710" data-name="Trazado 699710" d="M349.7,207.2c.662.539,1.351,1.1,2.039,1.67l.446.368.99-3.777Z" transform="translate(-134.697 -79.139)" fill="#316db5"/>
      <path id="Trazado_699711" data-name="Trazado 699711" d="M297.522,232.281l-8.445,2.777-49.136,60.551,7.465,6.058,49.136-60.551Z" transform="translate(-92.419 -89.469)" fill="#12263f"/>
      <path id="Trazado_699712" data-name="Trazado 699712" d="M275.494,294.172l2.462-.912a6.589,6.589,0,0,1,.638-2.462c.547-.912,2.1-2.188,2.918-2.188s.456.821-.456,1.642,0,.912.638.638a15.374,15.374,0,0,1,4.741-1c1.368.092,1.46,1.277,1.46,2.1s-4.742,3.647-6.11,4.194a2.912,2.912,0,0,1-2.28.182,21.689,21.689,0,0,0-3.465.821Z" transform="translate(-106.113 -111.165)" fill="#f4b58e"/>
      <path id="Trazado_699713" data-name="Trazado 699713" d="M235.226,294.139c-5.468-3.757-12.4-11.241-17.06-10.135s-5.063.312-7.727,6.376-8.1,12.584-8.889,15.961,12.933,8.9,16.207,8,3.717-12.344,6.094-14.536,5.739,1.283,8.5,2.149,17.221-6.449,17.221-6.449l-1.4-4.143s-8.77,2.363-12.949,2.781" transform="translate(-77.62 -109.348)" fill="#12263f"/>
      <path id="Trazado_699714" data-name="Trazado 699714" d="M222.842,430.972a6.347,6.347,0,0,1-4.45,1.127c-.362,1.411-1.108,2.646-.755,3.3.469.867,12.081-.084,12.894-.5s.488-2.008-2.592-2.611a29.107,29.107,0,0,1-5.1-1.318" transform="translate(-83.793 -165.999)" fill="#031e4d"/>
      <path id="Trazado_699715" data-name="Trazado 699715" d="M233.076,251.847a1.643,1.643,0,0,0-1.565,1.171,3.873,3.873,0,0,1-1.794,2.078s.473-1.417-.661-1.04c-.871.29-1.4,1.856-1.6,2.568a4.046,4.046,0,0,0-1.179,2.738c-.194,1.934.773,8,.645,8.833s.064.9.644,1.031,2.386-2.514,2.193-3.288-1.291-1.225-1.226-2.837.773-1.87,1.483-.839c.319.465.52.869.71,1.123.318,1.465,1.078,4.68,1.733,5.117.85.566,5.194-.188,5.194-.188l.094-2.55a18.648,18.648,0,0,1-4.154.093c-.621-.207-1.437-2.264-1.836-3.366a5.394,5.394,0,0,0-1.547-2.872c-.9-.71-.645-.967,0-1.483s3.673-.492,5.287-.387c1.976.129,1.523-2.7-.151-2.963a5.064,5.064,0,0,0-.75-.05,1.766,1.766,0,0,0,.034-2A1.945,1.945,0,0,0,233.076,251.847Z" transform="translate(-87.144 -97.005)" fill="#865e3c"/>
      <path id="Trazado_699716" data-name="Trazado 699716" d="M219.98,285.028a4.07,4.07,0,0,1,2.188-2.371c1.642-.638,2.462-1.185,2.553-1.733s2.1-.365,3.648.091,1.732.638,1.55,1.459a6.7,6.7,0,0,0,0,2.006Z" transform="translate(-84.731 -108.075)" fill="#12263f"/>
      <path id="Trazado_699717" data-name="Trazado 699717" d="M231.089,284.835s-3.556-.73-5.653,1.094c-.547-1.277,3.374-2.189,5.653-1.094" transform="translate(-86.812 -109.523)" fill="#4583cd"/>
      <path id="Trazado_699718" data-name="Trazado 699718" d="M226.193,295.374s5.836,5.653,8.663,7.295c-3.283-1.733-9.119-6.019-8.663-7.295" transform="translate(-87.114 -113.77)" fill="#4583cd"/>
      <path id="Trazado_699719" data-name="Trazado 699719" d="M254.565,301.455a6.869,6.869,0,0,0-1.55,4.194c-.912-2.1.456-4.1,1.55-4.194" transform="translate(-97.34 -116.113)" fill="#4583cd"/>
      <path id="Trazado_699720" data-name="Trazado 699720" d="M238.7,310.65a6.148,6.148,0,0,0-1.459,3.921,3.664,3.664,0,0,1,1.459-3.921" transform="translate(-91.32 -119.654)" fill="#316db5"/>
      <rect id="Rectángulo_344939" data-name="Rectángulo 344939" width="8.089" height="24.079" transform="translate(286.696 65.578)" fill="#2e0877"/>
      <rect id="Rectángulo_344940" data-name="Rectángulo 344940" width="8.089" height="18.1" transform="translate(298.952 71.556)" fill="#0f58b9"/>
      <rect id="Rectángulo_344941" data-name="Rectángulo 344941" width="8.089" height="30.223" transform="translate(310.474 59.434)" fill="#25ffff"/>
      <rect id="Rectángulo_344942" data-name="Rectángulo 344942" width="8.089" height="46.181" transform="translate(323.955 43.475)" fill="#ad84ff"/>
      <path id="Trazado_699721" data-name="Trazado 699721" d="M512.138,52.489l-4.6.8.677.842L494.3,65.448a1.063,1.063,0,0,0-.225.253L483.023,82.977,470.971,71.152l-1.5,1.527,12.991,12.746a1.069,1.069,0,0,0,1.512-.014,1.1,1.1,0,0,0,.138-.173L495.787,67l13.771-11.2.741.922Z" transform="translate(-180.829 -20.217)" fill="#12263f"/>
      <path id="Trazado_699722" data-name="Trazado 699722" d="M123.3,52.223a32.766,32.766,0,1,1-18.389,42.533A32.766,32.766,0,0,1,123.3,52.223" transform="translate(-39.52 -19.224)" fill="#25ffff"/>
      <path id="Trazado_699723" data-name="Trazado 699723" d="M132.666,66.862a23.359,23.359,0,1,1-13.11,30.323,23.36,23.36,0,0,1,13.11-30.323" transform="translate(-45.414 -25.118)" fill="#12263f"/>
      <path id="Trazado_699724" data-name="Trazado 699724" d="M141.4,80.525a14.58,14.58,0,1,1-8.183,18.926A14.58,14.58,0,0,1,141.4,80.525" transform="translate(-50.916 -30.62)" fill="#25ffff"/>
      <path id="Trazado_699725" data-name="Trazado 699725" d="M150.138,94.188a5.8,5.8,0,1,1-3.256,7.53,5.8,5.8,0,0,1,3.256-7.53" transform="translate(-56.417 -36.121)" fill="#12263f"/>
      <rect id="Rectángulo_344943" data-name="Rectángulo 344943" width="52.917" height="1.236" transform="translate(99.538 60.141) rotate(-39.835)" fill="#1a63ba"/>
      <path id="Trazado_699726" data-name="Trazado 699726" d="M222.911,32.5l-6.837,5.7c-3.418,2.85.1,6.68.1,6.68L223.1,39.1C225.476,37.119,222.911,32.5,222.911,32.5Zm6.889,8.261s-4.086-3.354-6.459-1.375l-6.932,5.78s3.136,4.147,6.554,1.3Z" transform="translate(-82.65 -12.517)" fill="#134989"/>
      <path id="Trazado_699727" data-name="Trazado 699727" d="M162.645,97.577l-7.389,2.842,4.124-6.758Z" transform="translate(-59.801 -36.076)" fill="#134989"/>
      <path id="Trazado_699728" data-name="Trazado 699728" d="M477.014,225.259c2.944,2.013,4.184,5.322,2.769,7.391s-4.948,2.114-7.893.1-4.183-5.323-2.769-7.391,4.948-2.114,7.892-.1" transform="translate(-180.469 -86.194)" fill="#134989"/>
      <path id="Trazado_699729" data-name="Trazado 699729" d="M477.5,210.9l7,4.508c2.108,1.358,2.956,4.326,1.356,6.255l-3.843,4.631a4.153,4.153,0,0,1-5.546.951l-6.418-4.132a4.152,4.152,0,0,1-1.429-5.442l2.624-5.415C472.342,210,475.4,209.547,477.5,210.9Z" transform="translate(-180.321 -80.941)" fill="#12263f"/>
      <path id="Trazado_699730" data-name="Trazado 699730" d="M477.5,210.9l7,4.508c2.108,1.358,2.956,4.326,1.356,6.255l-3.843,4.631a4.153,4.153,0,0,1-5.546.951l-6.418-4.132a4.152,4.152,0,0,1-1.429-5.442l2.624-5.415C472.342,210,475.4,209.547,477.5,210.9Z" transform="translate(-180.321 -80.941)" fill="none" stroke="#12263f" stroke-linecap="round" stroke-linejoin="round" stroke-width="1.5"/>
      <path id="Trazado_699731" data-name="Trazado 699731" d="M509.148,188.215a16.486,16.486,0,0,1-10.6,6.918c-2.08.39-8.553,6.7-10.659,6.274a16.59,16.59,0,0,1-10.627-7.267c-1.161-1.808,2.371-10.129,1.981-12.209a16.537,16.537,0,1,1,29.9,6.284" transform="translate(-183.739 -62.529)" fill="#d2e1f1"/>
      <path id="Trazado_699732" data-name="Trazado 699732" d="M497.8,190.24a5.829,5.829,0,0,0-1.9-.741,5.471,5.471,0,0,0-.627-.011,3.617,3.617,0,0,0-1.565-1.65,4.7,4.7,0,0,0-4.031-.527,5.456,5.456,0,0,0-2.871,3.145,5.928,5.928,0,0,0-.243,3.947,4.74,4.74,0,0,1-.048,3.2,47.671,47.671,0,0,1-3.485,5.944c-.772,1.176-1.445,2.165-1.948,2.9q.311.308.642.6c.507-.733,1.193-1.739,2.035-3.022a46.082,46.082,0,0,0,3.564-6.1,5.709,5.709,0,0,0,.093-3.709,4.9,4.9,0,0,1,.192-3.417,4.6,4.6,0,0,1,2.384-2.676,3.786,3.786,0,0,1,3.289.473,2.954,2.954,0,0,1,.982.873,2.579,2.579,0,0,0-1.774.848,3.223,3.223,0,0,0-.9,2.249,1.136,1.136,0,0,0,.615.887,1.935,1.935,0,0,0,1.262.064,2.8,2.8,0,0,0,2.065-2.373,2.885,2.885,0,0,0,0-.794c.073.01.131-.012.2,0a4.246,4.246,0,0,1,2.774,1.768,3.271,3.271,0,0,1,.362,1.3,4.846,4.846,0,0,0-1.738-.273,1.971,1.971,0,0,0-1.916,1.344,1.607,1.607,0,0,0,.211,1.233,3.108,3.108,0,0,0,1.212,1.059,1.869,1.869,0,0,0,1.781.065,2.524,2.524,0,0,0,1.093-1.332,4.639,4.639,0,0,0,.1-.589,2.263,2.263,0,0,1,.522,1.7,3.884,3.884,0,0,1-.759,2.5,3.2,3.2,0,0,1-2.335.853c-1.172.066-2.1-.119-3.029-.063a3.423,3.423,0,0,0-2.648,1.527c-1.244,1.659-4.4,6.157-5.809,8.164q.4.195.808.367c1.473-2.1,4.512-6.426,5.7-8.009a2.378,2.378,0,0,1,2-1.181c.757-.046,1.739.138,3.024.065A4.083,4.083,0,0,0,500,199.709a4.68,4.68,0,0,0,.984-3.049,3.143,3.143,0,0,0-1.216-2.813,4.177,4.177,0,0,0-.527-2.172,4.269,4.269,0,0,0-1.447-1.435m-3.241.1a2.283,2.283,0,0,1,.1.679,1.983,1.983,0,0,1-1.388,1.65,1.208,1.208,0,0,1-.7,0c-.091-.044-.108-.065-.124-.2a2.849,2.849,0,0,1,.719-1.606,2.036,2.036,0,0,1,1.392-.523m4.264,4a3.679,3.679,0,0,1-.13.852,1.722,1.722,0,0,1-.695.889.912.912,0,0,1-.957-.063,2.267,2.267,0,0,1-.882-.746.7.7,0,0,1-.111-.563,1.139,1.139,0,0,1,1.115-.688,3.753,3.753,0,0,1,1.66.319" transform="translate(-185.298 -72.051)" fill="#1a5fb4"/>
      <path id="Trazado_699733" data-name="Trazado 699733" d="M508.745,167.033c-3.642-1.7-8.526-2.475-12.15.144s-4.16,6.8-.649,9.7,9.691,0,11.812.715,5.2,1.624,6.2-1.606-1.366-6.908-5.215-8.955" transform="translate(-190.113 -63.737)" fill="#9bc2f0"/>
      <rect id="Rectángulo_344944" data-name="Rectángulo 344944" width="47.274" height="31.762" transform="translate(61.432 119.262) rotate(-19.582)" fill="#7aaeec"/>
      <path id="Trazado_699734" data-name="Trazado 699734" d="M23.79,176.357,52.484,186.5,68.33,160.514,51.9,184.855Z" transform="translate(37.642 -57.096)" fill="#4481cb"/>
      <path id="Trazado_699735" data-name="Trazado 699735" d="M45.333,226.541,61.179,200.56,89.873,210.7l-28.11-8.5Z" transform="translate(26.743 -77.354)" fill="#4481cb"/>
      <path id="Trazado_699736" data-name="Trazado 699736" d="M23.79,176.358l44.54-15.844L51.9,184.855Z" transform="translate(37.642 -57.096)" fill="#9bc2f0"/>
      <path id="Trazado_699737" data-name="Trazado 699737" d="M341.023,361.335a1.874,1.874,0,0,0-1.878,1.878v3.662a19.6,19.6,0,0,0-6.9,2.857l-2.588-2.588a1.876,1.876,0,0,0-2.659,0l-2.848,2.847a1.878,1.878,0,0,0,0,2.66l2.588,2.588a19.592,19.592,0,0,0-2.86,6.9h-3.659a1.874,1.874,0,0,0-1.878,1.878v4.028a1.873,1.873,0,0,0,1.878,1.878h3.659a19.6,19.6,0,0,0,2.86,6.9l-2.588,2.588a1.877,1.877,0,0,0,0,2.659l2.848,2.848a1.877,1.877,0,0,0,2.659,0l2.588-2.588a19.587,19.587,0,0,0,6.9,2.857v3.662a1.874,1.874,0,0,0,1.878,1.878h4.028a1.874,1.874,0,0,0,1.878-1.878v-3.662a19.587,19.587,0,0,0,6.9-2.857l2.588,2.588a1.877,1.877,0,0,0,2.659,0l2.848-2.848a1.877,1.877,0,0,0,0-2.659l-2.588-2.588a19.6,19.6,0,0,0,2.857-6.9h3.662a1.873,1.873,0,0,0,1.878-1.878V384.02a1.874,1.874,0,0,0-1.878-1.878h-3.621a19.6,19.6,0,0,0-2.869-6.931l2.56-2.56a1.877,1.877,0,0,0,0-2.659l-2.848-2.847a1.876,1.876,0,0,0-2.659,0l-2.56,2.559a19.61,19.61,0,0,0-6.931-2.871v-3.619a1.874,1.874,0,0,0-1.878-1.878Z" transform="translate(-122.616 -139.177)" fill="#12263f"/>
      <path id="Trazado_699738" data-name="Trazado 699738" d="M362.718,395.393a11.269,11.269,0,1,1-16.9-9.76" transform="translate(-131.028 -148.536)" fill="#12263f"/>
      <path id="Trazado_699739" data-name="Trazado 699739" d="M362.718,395.393a11.269,11.269,0,1,1-16.9-9.76" transform="translate(-131.028 -148.536)" fill="none" stroke="#7aaeec" stroke-linejoin="round" stroke-width="1.476"/>
      <path id="Trazado_699740" data-name="Trazado 699740" d="M364.164,392.022a15.14,15.14,0,1,1-7.57-13.111" transform="translate(-128.604 -145.165)" fill="none" stroke="#7aaeec" stroke-linejoin="round" stroke-width="1.476"/>
      <path id="Trazado_699741" data-name="Trazado 699741" d="M287.789,333.929a1.378,1.378,0,0,0-1.382,1.382V338a14.406,14.406,0,0,0-5.076,2.1l-1.9-1.9a1.38,1.38,0,0,0-1.956,0l-2.094,2.094a1.38,1.38,0,0,0,0,1.956l1.9,1.9a14.421,14.421,0,0,0-2.1,5.076h-2.691a1.378,1.378,0,0,0-1.382,1.382v2.963a1.378,1.378,0,0,0,1.382,1.382h2.691a14.421,14.421,0,0,0,2.1,5.076l-1.9,1.9a1.381,1.381,0,0,0,0,1.956l2.094,2.094a1.381,1.381,0,0,0,1.956,0l1.9-1.9a14.417,14.417,0,0,0,5.076,2.1v2.693a1.378,1.378,0,0,0,1.382,1.382h2.963a1.378,1.378,0,0,0,1.382-1.382v-2.693a14.426,14.426,0,0,0,5.076-2.1l1.9,1.9a1.382,1.382,0,0,0,1.956,0l2.094-2.094a1.382,1.382,0,0,0,0-1.956l-1.9-1.9a14.427,14.427,0,0,0,2.1-5.076h2.693a1.378,1.378,0,0,0,1.382-1.382v-2.963a1.378,1.378,0,0,0-1.382-1.382h-2.663a14.4,14.4,0,0,0-2.11-5.1l1.883-1.883a1.381,1.381,0,0,0,0-1.956l-2.094-2.094a1.381,1.381,0,0,0-1.956,0l-1.882,1.882a14.41,14.41,0,0,0-5.1-2.111v-2.662a1.378,1.378,0,0,0-1.382-1.382Z" transform="translate(-104.423 -128.621)" fill="#12263f"/>
      <path id="Trazado_699742" data-name="Trazado 699742" d="M287.169,358.976A8.288,8.288,0,1,0,299.6,351.8" transform="translate(-110.61 -135.504)" fill="#12263f"/>
      <path id="Trazado_699743" data-name="Trazado 699743" d="M287.169,358.976A8.288,8.288,0,1,0,299.6,351.8" transform="translate(-110.61 -135.504)" fill="none" stroke="#7aaeec" stroke-linejoin="round" stroke-width="1.476"/>
      <path id="Trazado_699744" data-name="Trazado 699744" d="M304.809,356.5a11.134,11.134,0,1,0-5.567,9.643" transform="translate(-108.827 -133.025)" fill="none" stroke="#7aaeec" stroke-linejoin="round" stroke-width="1.476"/>
      <path id="Trazado_699745" data-name="Trazado 699745" d="M366.754,315.085a.993.993,0,0,0-1,1v1.942a10.383,10.383,0,0,0-3.659,1.515l-1.372-1.372a1,1,0,0,0-1.41,0l-1.509,1.509a1,1,0,0,0,0,1.41l1.372,1.372a10.391,10.391,0,0,0-1.516,3.659h-1.94a.993.993,0,0,0-1,1v2.136a.993.993,0,0,0,1,1h1.94a10.391,10.391,0,0,0,1.516,3.659l-1.372,1.372a1,1,0,0,0,0,1.41l1.509,1.509a1,1,0,0,0,1.41,0l1.372-1.372a10.382,10.382,0,0,0,3.659,1.515v1.942a.993.993,0,0,0,1,1h2.136a.993.993,0,0,0,1-1v-1.942a10.377,10.377,0,0,0,3.659-1.515l1.372,1.372a1,1,0,0,0,1.41,0l1.509-1.509a1,1,0,0,0,0-1.41l-1.372-1.372a10.388,10.388,0,0,0,1.514-3.659h1.942a.993.993,0,0,0,1-1v-2.136a.993.993,0,0,0-1-1H378a10.39,10.39,0,0,0-1.521-3.675l1.357-1.357a1,1,0,0,0,0-1.41l-1.509-1.509a1,1,0,0,0-1.41,0l-1.357,1.357A10.388,10.388,0,0,0,369.886,318v-1.919a.993.993,0,0,0-1-1Z" transform="translate(-136.631 -121.363)" fill="#12263f"/>
      <path id="Trazado_699746" data-name="Trazado 699746" d="M378.26,333.143a5.975,5.975,0,1,1-8.963-5.175" transform="translate(-141.093 -126.325)" fill="#12263f"/>
      <path id="Trazado_699747" data-name="Trazado 699747" d="M378.26,333.143a5.975,5.975,0,1,1-8.963-5.175" transform="translate(-141.093 -126.325)" fill="none" stroke="#7aaeec" stroke-linejoin="round" stroke-width="1.476"/>
      <path id="Trazado_699748" data-name="Trazado 699748" d="M362.971,331.357a8.027,8.027,0,1,1,4.014,6.952" transform="translate(-139.807 -124.538)" fill="none" stroke="#7aaeec" stroke-linejoin="round" stroke-width="1.476"/>
      <path id="Trazado_699749" data-name="Trazado 699749" d="M394.774,251.595a11.544,11.544,0,0,0-2.112-2.743,8.162,8.162,0,0,1-2.191-3.134c-.558-1.19-1.258-1.308-.749-1.624s1.166.279,1.581,1.035,1,.267.5-.858-1.064-2.976-.408-4.3,1.991-.788,2.5.218,1.761,3.939,2.418,5.378a22.171,22.171,0,0,1,.99,4.911Z" transform="translate(-150.043 -92.126)" fill="#f4b58e"/>
      <path id="Trazado_699750" data-name="Trazado 699750" d="M422.836,270.549l-12.814-1.774a65.832,65.832,0,0,0-5.485-6.258c-1.543-1.244-4.571-7.227-4.571-7.227a5.021,5.021,0,0,1-3.491,1.415s1.851,6.992,4.448,10.963,1.73,3.794,3.16,5.155,12.66,6.156,12.66,6.156Z" transform="translate(-152.712 -98.331)" fill="#629fe9"/>
      <path id="Trazado_699751" data-name="Trazado 699751" d="M427.536,373.666c2.181,6.634,4.882,8.322,9.19,7.8,8.352-1.018,18.262-1.886,20.275-2.026a6.314,6.314,0,0,1,5.426,1.944c1.908,2.248,2.37,3.046,2.709,4.148s.932,1.1,1.27-.254.593-3.3.17-4.149-3.133-3.386-3.048-3.894,2.2-.762,2.878-.593c.255-.762.084-.931.084-.931-3.978-1.179-6.233.432-8.831.479-10.006.3-16.917-4.306-22.169-2.2-2.682,1.889.837-4.065-3.747-3.642C432.835,371.792,425.637,369.422,427.536,373.666Z" transform="translate(-164.552 -142.639)" fill="#f1a271"/>
      <path id="Trazado_699752" data-name="Trazado 699752" d="M482.951,378.608c.283,2.035,2.515,4.18,3.4,5.876a3.3,3.3,0,0,1-.183,3.1,6.4,6.4,0,0,1,.437,1.048c.339,1.1.931,1.1,1.27-.253s.593-3.3.17-4.149-3.133-3.386-3.048-3.894,2.2-.763,2.879-.593c.254-.762.084-.931.084-.931A9.956,9.956,0,0,0,482.951,378.608Z" transform="translate(-186.02 -145.743)" fill="#1a395f"/>
      <path id="Trazado_699753" data-name="Trazado 699753" d="M437.628,373.8c.637,6.564,5.117,26.425,5.329,29.477a6.314,6.314,0,0,1-1.944,5.426c-2.248,1.908-3.047,2.37-4.148,2.709s-1.1.931.254,1.27,3.3.593,4.149.17,3.386-3.133,3.894-3.048.762,2.2.593,2.879c.762.254.931.084.931.084,1.178-3.978-.433-6.232-.479-8.831-1.026-17.057,2.283-13.2.413-21.511-1.5-2.919-.21-5,.01-9.6C445.046,373.7,442.094,372.508,437.628,373.8Z" transform="translate(-167.963 -143.601)" fill="#f4b58e"/>
      <path id="Trazado_699754" data-name="Trazado 699754" d="M446.888,429.64c-2.035.283-4.18,2.515-5.876,3.4a3.3,3.3,0,0,1-3.1-.183,6.4,6.4,0,0,1-1.048.437c-1.1.339-1.1.931.253,1.27s3.3.593,4.149.17,3.385-3.133,3.893-3.048.763,2.2.593,2.879c.762.254.931.084.931.084A9.957,9.957,0,0,0,446.888,429.64Z" transform="translate(-167.962 -165.486)" fill="#1a395f"/>
      <path id="Trazado_699755" data-name="Trazado 699755" d="M431.628,254.771s-1.1,2.972-1.786,5.012-1.171,3.694.323,4.164a23.81,23.81,0,0,1,3.342,1.461l.48,4.135,5.331.038-1.244-3.646s2.2-7.565,1.751-9.634-2.615-3.092-4.943-3.319A2.773,2.773,0,0,0,431.628,254.771Z" transform="translate(-165.311 -97.432)" fill="#f4b58e"/>
      <path id="Trazado_699756" data-name="Trazado 699756" d="M425.966,317.512a100.94,100.94,0,0,0-2.2,10.329c-.678,4.741.652,24.383.652,24.383s11.869,4.764,20.166.7c1.354-14.9,1.195-18.31.009-24.236a61.719,61.719,0,0,0-4.4-12.53Z" transform="translate(-163.149 -121.776)" fill="#1d4069"/>
      <path id="Trazado_699757" data-name="Trazado 699757" d="M434.26,279.386c3.516-.14,10.452,1.882,8.785,7.629-1.713,5.907-4.789,7.168-1.694,15.793,1.087,3.03-12.469,4.25-15.093,2.5s2.333-7.414-1.768-13.033c-1.929-2.643,1.249-5.528,4.138-8.8,2.1-2.385,3.167-3.991,5.633-4.09" transform="translate(-163.275 -107.61)" fill="#7aaeec"/>
      <path id="Trazado_699758" data-name="Trazado 699758" d="M435.736,251a1.584,1.584,0,0,1,1.693.085,1.354,1.354,0,0,1,.424,1.693Z" transform="translate(-167.834 -96.599)" fill="#f5c211"/>
      <path id="Trazado_699759" data-name="Trazado 699759" d="M439.63,263.8s2.374-2.99,4.057-4.8c2.1-2.258,2.456-8.865-4.551-10.119-1.918-.344-6.462-.63-6.349,1.955.07,1.594.286,1.594,1.9,2.45,1.424.757,2.983,1.265,2.941,2.865a25.534,25.534,0,0,1-.31,3.179s.881-1.977,1.769-.515-1.1,3.1.545,4.981" transform="translate(-166.698 -95.778)" fill="#3d3846"/>
      <path id="Trazado_699760" data-name="Trazado 699760" d="M435.9,279.279s-7.5,6.563-8.251,9.751c-.75-2.25,3.563-10.126,3.563-10.126s-4.5,4.125-6.188,6.938-3.375,3.563-2.063,6.751,2.438,3.75,1.875,5.813a90.167,90.167,0,0,0-1.125,9.189l3.188-3.375,3.563,5.062s7.5-.187,11.814-3.937c-2.625-7.876-1.313-13.689-1.313-13.689s-3.75-3.188-2.813-7.688c.563-1.5,3-3.188,3-3.188S437.4,279.092,435.9,279.279Z" transform="translate(-162.733 -107.427)" fill="#26558c"/>
      <path id="Trazado_699761" data-name="Trazado 699761" d="M449.747,315.418s-1.755,1.8-3.1,1.42a3.917,3.917,0,0,0-3.752.719c-1.388.97-3.126,2.266-1.474,3.508s2.836,1.283,4.9.336,2.927-1.132,3.627-1.785,2.778-2.232,2.778-2.232Z" transform="translate(-169.766 -121.491)" fill="#f4b58e"/>
      <path id="Trazado_699762" data-name="Trazado 699762" d="M445.34,281.963c-3.267,1.413-3.3,4.2-2.355,6.437s12.06,7.108,12.06,7.108L449.2,303.1a3.931,3.931,0,0,0,2.007,2.754,30.661,30.661,0,0,0,11.9-10.809C463.921,293.636,451.162,280.128,445.34,281.963Z" transform="translate(-170.42 -108.539)" fill="#7aaeec"/>
      <path id="Trazado_699763" data-name="Trazado 699763" d="M441.4,262.051a11.84,11.84,0,0,1-.862,3.447c-.6.995-1.061,2.851-3.249,3.182a5.719,5.719,0,0,0,6.962,2.785c2.188-.928,2.718-12.066,2.519-13.127S441.4,262.051,441.4,262.051Z" transform="translate(-168.432 -99.446)" fill="#3d3846"/>
      <path id="Trazado_699764" data-name="Trazado 699764" d="M429.663,297.2s-.75,3.75-.375,5.438a47.461,47.461,0,0,1,.375,6.376s.938-4.313.75-5.438-.75-6.376-.75-6.376" transform="translate(-165.31 -114.475)" fill="#1d4069"/>
    </g>
  </g>
</svg>
