<svg xmlns="http://www.w3.org/2000/svg" width="285.746" height="182.201" viewBox="0 0 285.746 182.201">
  <g id="Grupo_894591" data-name="Grupo 894591" transform="translate(-372.325 -222.612)">
    <ellipse id="Elipse_5224" data-name="Elipse 5224" cx="139.93" cy="17.839" rx="139.93" ry="17.839" transform="translate(378.211 369.134)" fill="#b8d5dc" opacity="0.5"/>
    <g id="Grupo_894522" data-name="Grupo 894522" transform="translate(372.325 318.645)">
      <path id="Trazado_636745" data-name="Trazado 636745" d="M603.592,1241.786h-4.431l3.968-35.957h4.431Z" transform="translate(-567.199 -1178.992)" fill="#99c4cc"/>
      <g id="Grupo_894521" data-name="Grupo 894521" transform="translate(0 0)">
        <path id="Trazado_636746" data-name="Trazado 636746" d="M446.306,1053.869h-64.17l-9.811-38.031h64.17Z" transform="translate(-372.325 -1015.771)" fill="#99c4cc"/>
        <path id="Trazado_636747" data-name="Trazado 636747" d="M463.7,1053.869h-64.17l-9.811-38.031h64.17Z" transform="translate(-387.266 -1015.771)" fill="#b8d5dc"/>
        <g id="Grupo_894514" data-name="Grupo 894514" transform="translate(4.905 9.311)">
          <rect id="Rectángulo_327194" data-name="Rectángulo 327194" width="64.17" height="0.545" fill="#99c4cc"/>
        </g>
        <g id="Grupo_894515" data-name="Grupo 894515" transform="translate(7.356 18.811)">
          <rect id="Rectángulo_327195" data-name="Rectángulo 327195" width="64.17" height="0.545" fill="#99c4cc"/>
        </g>
        <g id="Grupo_894516" data-name="Grupo 894516" transform="translate(9.807 28.309)">
          <rect id="Rectángulo_327196" data-name="Rectángulo 327196" width="64.169" height="0.545" fill="#99c4cc"/>
        </g>
        <g id="Grupo_894517" data-name="Grupo 894517" transform="translate(13.673 0)">
          <rect id="Rectángulo_327197" data-name="Rectángulo 327197" width="0.544" height="39.276" transform="translate(0 0.136) rotate(-14.467)" fill="#99c4cc"/>
        </g>
        <g id="Grupo_894518" data-name="Grupo 894518" transform="translate(27.239 0)">
          <rect id="Rectángulo_327198" data-name="Rectángulo 327198" width="0.544" height="39.276" transform="translate(0 0.136) rotate(-14.465)" fill="#99c4cc"/>
        </g>
        <g id="Grupo_894519" data-name="Grupo 894519" transform="translate(40.805)">
          <rect id="Rectángulo_327199" data-name="Rectángulo 327199" width="0.544" height="39.276" transform="translate(0 0.136) rotate(-14.467)" fill="#99c4cc"/>
        </g>
        <g id="Grupo_894520" data-name="Grupo 894520" transform="translate(54.372 0)">
          <rect id="Rectángulo_327200" data-name="Rectángulo 327200" width="0.544" height="39.276" transform="translate(0 0.136) rotate(-14.465)" fill="#99c4cc"/>
        </g>
      </g>
      <path id="Trazado_636748" data-name="Trazado 636748" d="M607.9,1437.8h7.511a3.272,3.272,0,0,1,3.272,3.272H607.9Z" transform="translate(-574.703 -1378.275)" fill="#99c4cc"/>
    </g>
    <g id="Grupo_894530" data-name="Grupo 894530" transform="translate(451.664 341.903)">
      <path id="Trazado_636749" data-name="Trazado 636749" d="M1087.566,1293.193h-2.915l2.61-23.657h2.916Z" transform="translate(-1063.622 -1256.98)" fill="#99c4cc"/>
      <path id="Trazado_636750" data-name="Trazado 636750" d="M984.083,1205.767H941.864l-6.455-25.022h42.219Z" transform="translate(-935.409 -1180.7)" fill="#99c4cc"/>
      <path id="Trazado_636751" data-name="Trazado 636751" d="M995.526,1205.767H953.307l-6.455-25.022h42.219Z" transform="translate(-945.239 -1180.7)" fill="#b8d5dc"/>
      <g id="Grupo_894523" data-name="Grupo 894523" transform="translate(3.227 6.127)">
        <rect id="Rectángulo_327201" data-name="Rectángulo 327201" width="42.22" height="0.36" fill="#99c4cc"/>
      </g>
      <g id="Grupo_894524" data-name="Grupo 894524" transform="translate(4.84 12.375)">
        <rect id="Rectángulo_327202" data-name="Rectángulo 327202" width="42.22" height="0.36" fill="#99c4cc"/>
      </g>
      <g id="Grupo_894525" data-name="Grupo 894525" transform="translate(6.453 18.626)">
        <rect id="Rectángulo_327203" data-name="Rectángulo 327203" width="42.219" height="0.36" fill="#99c4cc"/>
      </g>
      <g id="Grupo_894526" data-name="Grupo 894526" transform="translate(8.996 0)">
        <rect id="Rectángulo_327204" data-name="Rectángulo 327204" width="0.358" height="25.842" transform="translate(0 0.09) rotate(-14.464)" fill="#99c4cc"/>
      </g>
      <g id="Grupo_894527" data-name="Grupo 894527" transform="translate(17.921 0)">
        <rect id="Rectángulo_327205" data-name="Rectángulo 327205" width="0.358" height="25.842" transform="matrix(0.968, -0.25, 0.25, 0.968, 0, 0.09)" fill="#99c4cc"/>
      </g>
      <g id="Grupo_894528" data-name="Grupo 894528" transform="translate(26.847 0)">
        <rect id="Rectángulo_327206" data-name="Rectángulo 327206" width="0.358" height="25.842" transform="translate(0 0.09) rotate(-14.465)" fill="#99c4cc"/>
      </g>
      <g id="Grupo_894529" data-name="Grupo 894529" transform="translate(35.772 0)">
        <rect id="Rectángulo_327207" data-name="Rectángulo 327207" width="0.358" height="25.842" transform="matrix(0.968, -0.25, 0.25, 0.968, 0, 0.09)" fill="#99c4cc"/>
      </g>
      <path id="Trazado_636752" data-name="Trazado 636752" d="M1090.4,1422.154h4.942a2.153,2.153,0,0,1,2.153,2.153H1090.4Z" transform="translate(-1068.559 -1388.094)" fill="#99c4cc"/>
    </g>
    <g id="Grupo_894531" data-name="Grupo 894531" transform="translate(574.069 233.997)" opacity="0.8">
      <path id="Trazado_636753" data-name="Trazado 636753" d="M1840.083,419.589a10.435,10.435,0,0,0-10.346-4.93c-7.416.706-6.533,6.356-10.064,5.826s-8.475,0-9.534,3.531-5.827,1.589-6,4.591,5.473,5.12,12.006,2.472,9.711,2.057,18.892,1.205,10.319-1.911,15.753-1.382,5.305-3.191,2.833-5.663S1841.142,423,1840.083,419.589Z" transform="translate(-1804.132 -414.597)" fill="#fff"/>
    </g>
    <g id="Grupo_894533" data-name="Grupo 894533" transform="translate(390.566 240.878)" opacity="0.6">
      <path id="Trazado_636755" data-name="Trazado 636755" d="M530.173,467.818A8.127,8.127,0,0,0,522,463.486c-5.855.62-5.158,5.585-7.946,5.119s-6.692,0-7.528,3.1-4.6,1.4-4.74,4.033,4.322,4.5,9.48,2.172,7.667,1.808,14.916,1.059,8.147-1.68,12.438-1.214,4.189-2.8,2.237-4.976S531.01,470.817,530.173,467.818Z" transform="translate(-501.787 -463.432)" fill="#fff"/>
    </g>
    <g id="Grupo_894535" data-name="Grupo 894535" transform="translate(603.729 286.533)">
      <path id="Trazado_636756" data-name="Trazado 636756" d="M2210.114,1038.03h-3.6l.3-26.488.46-40.572h1.63l.645,35.842Z" transform="translate(-2179.48 -945.112)" fill="#fff"/>
      <path id="Trazado_636757" data-name="Trazado 636757" d="M2211.385,1006.812a41.388,41.388,0,0,0-2.735,4.73l.46-40.572h1.63Z" transform="translate(-2181.313 -945.112)" fill="#b8d5dc"/>
      <g id="Grupo_894534" data-name="Grupo 894534" transform="translate(0)">
        <path id="Trazado_636758" data-name="Trazado 636758" d="M2209.641,814.057l-.734-2.223a7.373,7.373,0,0,1,1.27-6.95l14.009-17.31a.324.324,0,0,1,.541.352l-13.479,26.256A.873.873,0,0,1,2209.641,814.057Z" transform="translate(-2181.213 -787.45)" fill="#fff"/>
        <path id="Trazado_636759" data-name="Trazado 636759" d="M2216.1,965.886l2.338-.105a7.373,7.373,0,0,1,6.347,3.1l12.873,18.171a.324.324,0,0,1-.485.425L2215.549,967.4A.873.873,0,0,1,2216.1,965.886Z" transform="translate(-2186.999 -940.647)" fill="#fff"/>
        <path id="Trazado_636760" data-name="Trazado 636760" d="M2044.481,962.3l-1.19,2.016a7.373,7.373,0,0,1-6.068,3.619l-22.253.848a.324.324,0,0,1-.091-.639l28.638-7.135A.873.873,0,0,1,2044.481,962.3Z" transform="translate(-2014.632 -936.53)" fill="#fff"/>
        <circle id="Elipse_5225" data-name="Elipse 5225" cx="1.903" cy="1.903" r="1.903" transform="translate(26.322 26.781) rotate(-61.83)" fill="#366f90"/>
      </g>
      <path id="Trazado_636761" data-name="Trazado 636761" d="M2186.764,1431.431H2174a3.794,3.794,0,0,1,3.794-3.794h5.172a3.794,3.794,0,0,1,3.794,3.794Z" transform="translate(-2151.549 -1337.434)" fill="#fff"/>
    </g>
    <g id="Grupo_894537" data-name="Grupo 894537" transform="translate(576.016 263.698)">
      <path id="Trazado_636762" data-name="Trazado 636762" d="M2061.921,916.625h-5.913l.494-36.5.756-55.9h2.68l1.06,49.385Z" transform="translate(-2022.466 -796.211)" fill="#fff"/>
      <path id="Trazado_636763" data-name="Trazado 636763" d="M2064.01,873.612a55.6,55.6,0,0,0-4.5,6.517l.756-55.9h2.679Z" transform="translate(-2025.478 -796.211)" fill="#b8d5dc"/>
      <g id="Grupo_894536" data-name="Grupo 894536">
        <path id="Trazado_636764" data-name="Trazado 636764" d="M1963,812.3l1.438,3.21a11.079,11.079,0,0,1-.833,10.583l-18.285,28.021a.487.487,0,0,1-.862-.443l16.121-41.311A1.312,1.312,0,0,1,1963,812.3Z" transform="translate(-1926.601 -785.294)" fill="#fff"/>
        <path id="Trazado_636765" data-name="Trazado 636765" d="M1853.545,654.542l-3.479.515a11.079,11.079,0,0,1-9.963-3.666L1818.077,626.2a.487.487,0,0,1,.66-.71l35.406,26.7A1.312,1.312,0,0,1,1853.545,654.542Z" transform="translate(-1817.951 -625.391)" fill="#fff"/>
        <path id="Trazado_636766" data-name="Trazado 636766" d="M2061.36,740.763l1.47-3.2a11.08,11.08,0,0,1,8.516-6.339l33.131-4.678a.487.487,0,0,1,.233.941L2063,742.547A1.313,1.313,0,0,1,2061.36,740.763Z" transform="translate(-2026.957 -712.292)" fill="#fff"/>
        <path id="Trazado_636767" data-name="Trazado 636767" d="M2056.909,804.966a2.859,2.859,0,1,1-3.954-.849A2.86,2.86,0,0,1,2056.909,804.966Z" transform="translate(-2018.719 -778.541)" fill="#366f90"/>
      </g>
      <path id="Trazado_636768" data-name="Trazado 636768" d="M2023.547,1454.558h-20.969a6.235,6.235,0,0,1,6.235-6.235h8.5a6.235,6.235,0,0,1,6.235,6.235Z" transform="translate(-1976.564 -1332.37)" fill="#fff"/>
    </g>
    <g id="Grupo_894538" data-name="Grupo 894538" transform="translate(432.437 323.915)">
      <path id="Trazado_636769" data-name="Trazado 636769" d="M834.386,1053.829c.226,6.667.761,13.32,1.126,19.98a23.493,23.493,0,0,1-.441,7.958,11.078,11.078,0,0,1-3.508,5.413c-4.627,3.918-11.15,3.6-16.822,4.139-4.9.467-10.411,1.833-13.6,5.9-3.5,4.454-2.52,10.5.883,14.706,3.718,4.591,9.882,6.272,15.51,6.883a45.845,45.845,0,0,0,19.576-2.158,26.689,26.689,0,0,0,4.447-1.919,40.6,40.6,0,0,0,4.007-2.729,29.449,29.449,0,0,1,7.849-4.179c12-4.092,24.753-.512,35.853,4.56,1.474.673,2.934,1.375,4.387,2.092,1.274.629,2.4-1.281,1.118-1.913-11.162-5.511-23.34-10.151-36-8.3a33.383,33.383,0,0,0-8.378,2.365,42.311,42.311,0,0,0-7.7,4.73c-5.253,3.729-12.075,5.181-18.426,5.451-5.848.249-12.424-.351-17.467-3.591-4.1-2.635-7.294-8.247-4.928-13.056,2.164-4.4,7.564-6.047,12.091-6.546,5.941-.656,12.34-.284,17.567-3.678,4.126-2.679,6.146-7.058,6.325-11.891.119-3.216-.258-6.491-.459-9.7-.207-3.3-.426-6.605-.6-9.91q-.12-2.3-.2-4.6c-.048-1.422-2.264-1.428-2.216,0Z" transform="translate(-798.947 -1052.76)" fill="#acab58"/>
    </g>
    <g id="Grupo_894539" data-name="Grupo 894539" transform="translate(433.212 323.915)">
      <path id="Trazado_636770" data-name="Trazado 636770" d="M839.891,1053.829c.226,6.667.761,13.32,1.125,19.98a23.493,23.493,0,0,1-.441,7.958,11.077,11.077,0,0,1-3.507,5.413c-4.627,3.918-11.15,3.6-16.822,4.139-4.9.467-10.411,1.833-13.6,5.9-3.5,4.454-2.521,10.5.883,14.706,3.718,4.591,9.882,6.272,15.511,6.883a45.844,45.844,0,0,0,19.576-2.158,26.689,26.689,0,0,0,4.447-1.919,40.587,40.587,0,0,0,4.007-2.729,29.448,29.448,0,0,1,7.849-4.179c12-4.092,24.753-.512,35.853,4.56,1.474.673,2.934,1.375,4.387,2.092,1.274.629,2.4-1.281,1.118-1.913-11.162-5.511-23.339-10.151-36-8.3a33.382,33.382,0,0,0-8.378,2.365,42.308,42.308,0,0,0-7.7,4.73c-5.252,3.729-12.075,5.181-18.426,5.451-5.848.249-12.424-.351-17.467-3.591-4.1-2.635-7.294-8.247-4.928-13.056,2.164-4.4,7.564-6.047,12.09-6.546,5.941-.656,12.34-.284,17.567-3.678,4.126-2.679,6.146-7.058,6.325-11.891.119-3.216-.258-6.491-.459-9.7-.207-3.3-.426-6.605-.6-9.91q-.12-2.3-.2-4.6c-.048-1.422-2.264-1.428-2.216,0Z" transform="translate(-804.453 -1052.76)" fill="#c4c66d"/>
    </g>
    <rect id="Rectángulo_327208" data-name="Rectángulo 327208" width="11.168" height="14.671" rx="5.584" transform="translate(465.046 324.916)" fill="#acab58"/>
    <g id="Grupo_894540" data-name="Grupo 894540" transform="translate(422.888 227.314)">
      <path id="Trazado_636771" data-name="Trazado 636771" d="M848.315,373.007v54.5a5.862,5.862,0,0,1-4.141,5.585,5.766,5.766,0,0,1-1.7.254,5.857,5.857,0,0,1-5.839-5.839v-54.5a5.857,5.857,0,0,1,5.839-5.839,5.766,5.766,0,0,1,1.7.254,5.863,5.863,0,0,1,4.141,5.585Z" transform="translate(-821.778 -367.168)" fill="#b8d5dc"/>
      <path id="Trazado_636772" data-name="Trazado 636772" d="M869.03,374.556v54.5a4.327,4.327,0,1,1-8.281,0v-54.5a4.2,4.2,0,1,1,8.281,0Z" transform="translate(-842.493 -368.717)" fill="#fff"/>
      <path id="Trazado_636773" data-name="Trazado 636773" d="M1204.365,373.007v54.5a5.862,5.862,0,0,1-4.141,5.585,5.764,5.764,0,0,1-1.7.254,5.857,5.857,0,0,1-5.839-5.839v-54.5a5.857,5.857,0,0,1,5.839-5.839,5.764,5.764,0,0,1,1.7.254,5.864,5.864,0,0,1,4.141,5.585Z" transform="translate(-1127.659 -367.168)" fill="#b8d5dc"/>
      <path id="Trazado_636774" data-name="Trazado 636774" d="M1225.08,374.556v54.5a4.327,4.327,0,1,1-8.281,0v-54.5a4.2,4.2,0,1,1,8.281,0Z" transform="translate(-1148.375 -368.717)" fill="#fff"/>
      <path id="Rectángulo_327209" data-name="Rectángulo 327209" d="M35.177,0H46.85A35.177,35.177,0,0,1,82.027,35.177v0A35.177,35.177,0,0,1,46.85,70.354H35.177A35.177,35.177,0,0,1,0,35.177v0A35.177,35.177,0,0,1,35.177,0Z" transform="translate(0 34.96)" fill="#acab58"/>
      <rect id="Rectángulo_327210" data-name="Rectángulo 327210" width="76.581" height="70.354" rx="35.177" transform="translate(10.985 34.96)" fill="#c4c66d"/>
    </g>
    <g id="Grupo_894541" data-name="Grupo 894541" transform="translate(457.689 279.32)">
      <path id="Trazado_636775" data-name="Trazado 636775" d="M994.247,775.479l10.527-15.543H993.015l14.845-23.674h9.749l-12.3,18.652h12.3Z" transform="translate(-990.923 -736.263)" fill="#acab58"/>
      <path id="Trazado_636776" data-name="Trazado 636776" d="M981.492,775.479l8.435-15.543H978.169l14.845-23.674h9.749l-12.3,18.652h12.3Z" transform="translate(-978.169 -736.263)" fill="#fff"/>
    </g>
    <g id="Grupo_894552" data-name="Grupo 894552" transform="translate(557.148 327.107)">
      <path id="Trazado_636777" data-name="Trazado 636777" d="M1967.3,1280.417c-.095.558-.039,1.727-.123,2.288-.036.243-.1,1.076.126,1.168.2.08.558-.524.693-.837.841,1.922,2.613,4.127,1.1.21l.005,0c.154.328,1.207,2.766,1.649,2.412.323-.26-.6-2.243-.849-2.784l.013-.008c.3.531,1.108,2.18,1.43,1.949.424-.3-.688-2.4-.688-2.4s.882,1.759,1.2,1.231c.178-.3-.376-1.324-.729-1.958h0c-.074-.133-.139-.249-.187-.337a1.063,1.063,0,0,0-.127-.186,9.593,9.593,0,0,0-1.225-1.589,1.226,1.226,0,0,0-1.453-.391A1.769,1.769,0,0,0,1967.3,1280.417Z" transform="translate(-1927.248 -1250.381)" fill="#ffb27d"/>
      <path id="Trazado_636778" data-name="Trazado 636778" d="M1689.3,1084.958c-.061-.563-.432-1.668-.5-2.231-.031-.244-.192-1.062-.438-1.085-.214-.02-.393.664-.438,1-1.33-1.6-3.631-3.21-1.118.116l0,0c-.237-.27-1.911-2.308-2.239-1.841-.24.342,1.186,1.98,1.571,2.428l-.011.011c-.429-.425-1.657-1.774-1.9-1.46-.324.414,1.313,2.105,1.313,2.105s-1.325-1.435-1.484-.837c-.09.337.72,1.162,1.232,1.669h0c.107.106.2.2.271.27a1.035,1.035,0,0,0,.172.142,9.383,9.383,0,0,0,1.608,1.173,1.218,1.218,0,0,0,1.5-.043A1.8,1.8,0,0,0,1689.3,1084.958Z" transform="translate(-1684.04 -1080.053)" fill="#ffb27d"/>
      <path id="Trazado_636779" data-name="Trazado 636779" d="M1831.459,1523.878s.046,1.285-.829,1.7-3.456.885-2.433,1.655c.587.442,3.2-.012,3.938-.053s1.458.232,1.979-.279c.574-.562-.195-3.158-.195-3.158a3.032,3.032,0,0,1-1.2.376A2.432,2.432,0,0,1,1831.459,1523.878Z" transform="translate(-1807.682 -1460.57)" fill="#331832"/>
      <path id="Trazado_636780" data-name="Trazado 636780" d="M1944.355,1478.593s1.905,5.06,1.519,5.967-2.007,3.028-.744,2.9c.724-.073,2.379-2.2,2.905-2.739s1.239-.827,1.3-1.565c.064-.812-2.463-3.4-2.463-3.4s-.245-3.69-.664-3.281C1945.6,1477.061,1944.355,1478.593,1944.355,1478.593Z" transform="translate(-1907.676 -1419.935)" fill="#331832"/>
      <path id="Trazado_636781" data-name="Trazado 636781" d="M1856.682,1077.452s.148-2.215,2.167-2.031,1.3,1.55,1.591,1.988-.823,1.358-1.8,1.322S1856.682,1077.452,1856.682,1077.452Z" transform="translate(-1832.357 -1075.41)" fill="#ef8062"/>
      <path id="Trazado_636782" data-name="Trazado 636782" d="M1804.014,1288.825c.362-4.072,8.728.641,8.728.641s2.928,28.065,1.212,31.955c-.338.768-1.721.724-2.367.636-4.568-.618-5.386-14.63-6.441-20.8C1804.617,1298.155,1803.8,1291.288,1804.014,1288.825Z" transform="translate(-1787.079 -1257.331)" fill="#ef8062"/>
      <path id="Trazado_636783" data-name="Trazado 636783" d="M1818.954,1279.575c-.263,1-4.125,1.959-8.7.793s-8.128-2.376-7.865-3.372,4.25-1.4,8.82-.235S1819.218,1278.579,1818.954,1279.575Z" transform="translate(-1785.706 -1247.78)" fill="#331832"/>
      <path id="Trazado_636784" data-name="Trazado 636784" d="M1804.612,1158.069a14.473,14.473,0,0,1-2.134-1.28,8.473,8.473,0,0,1,7.6-3.735c.7.054,3.874.687,4.553.823,8.725,1.751,4.447,19.622,4.407,20.009a29.755,29.755,0,0,0-16.56-2.579A48.076,48.076,0,0,1,1804.612,1158.069Z" transform="translate(-1785.79 -1142.091)" fill="#71a99e"/>
      <path id="Trazado_636785" data-name="Trazado 636785" d="M1818.779,1287.926s-7.665-2.585-14.059-2.34a.573.573,0,0,0-.557.515s-.178,2.291-.139,3.054c.087,1.689,15.248,1.415,15.248,1.415Z" transform="translate(-1787.113 -1255.958)" fill="#ef8062"/>
      <path id="Trazado_636786" data-name="Trazado 636786" d="M1858.854,1118.678a3.383,3.383,0,0,1-2.809,1.089c-1.72-.039-.879-1.733-.879-1.733a.623.623,0,0,0,.7-.608l.053-.5.026-.248.086-.791.077-.71.315-2.913.725,2.99.123.508.425,1.753a1.617,1.617,0,0,0,1.146,1.161Z" transform="translate(-1830.877 -1107.071)" fill="#ffb27d"/>
      <path id="Trazado_636787" data-name="Trazado 636787" d="M1863.3,1137.093a2.03,2.03,0,0,1-1.326.917l.086-.791C1862.558,1137.134,1863.3,1137.093,1863.3,1137.093Z" transform="translate(-1836.901 -1128.402)" fill="#331832"/>
      <path id="Trazado_636788" data-name="Trazado 636788" d="M1876.63,1118.67a3.162,3.162,0,0,0-.462,1.4,1.324,1.324,0,0,1-2.249.774c-.027-.068,1.066-2.261,1.066-2.261l.626-.06Z" transform="translate(-1847.164 -1112.446)" fill="#ef8062"/>
      <ellipse id="Elipse_5226" data-name="Elipse 5226" cx="3.391" cy="2.837" rx="3.391" ry="2.837" transform="translate(21.787 7.418) rotate(-63.811)" fill="#ffb27d"/>
      <path id="Trazado_636789" data-name="Trazado 636789" d="M1852.989,1088.866c.028.127-1.111,1.526,1.756,3.275s2.686-2.633.479-3.724c-3.187-1.576-4.631.312-4.669,1.209S1852.989,1088.866,1852.989,1088.866Z" transform="translate(-1827.092 -1086.063)" fill="#ef8062"/>
      <path id="Trazado_636790" data-name="Trazado 636790" d="M1877.316,1113.9s.658,1.824-.37,2.921c0,0,1.073-.435,1.22-.711a11.666,11.666,0,0,0,.429-1.386Z" transform="translate(-1849.765 -1108.477)" fill="#ef8062"/>
      <path id="Trazado_636791" data-name="Trazado 636791" d="M1875.843,1118.186a.714.714,0,0,1-.944-.351.742.742,0,0,1,.57-.849.714.714,0,0,1,.944.35A.742.742,0,0,1,1875.843,1118.186Z" transform="translate(-1847.987 -1111.085)" fill="#ffb27d"/>
      <g id="Grupo_894542" data-name="Grupo 894542" transform="translate(25.542 5.434)">
        <path id="Trazado_636792" data-name="Trazado 636792" d="M1865.338,1114.086a.062.062,0,0,1-.024-.051.062.062,0,0,1,.067-.059.712.712,0,0,1,.686.507.061.061,0,0,1-.039.079.073.073,0,0,1-.082-.039,1.127,1.127,0,0,0-.57-.422A.067.067,0,0,1,1865.338,1114.086Z" transform="translate(-1865.315 -1113.975)" fill="#080435"/>
      </g>
      <path id="Trazado_636793" data-name="Trazado 636793" d="M1864.29,1118.613a.246.246,0,0,1-.292.171.241.241,0,0,1-.082-.326.246.246,0,0,1,.292-.171A.241.241,0,0,1,1864.29,1118.613Z" transform="translate(-1838.548 -1112.235)" fill="#080435"/>
      <g id="Grupo_894543" data-name="Grupo 894543" transform="translate(23.282 4.723)">
        <path id="Trazado_636794" data-name="Trazado 636794" d="M1849.325,1109.1a.064.064,0,0,1-.042-.039.061.061,0,0,1,.038-.08.718.718,0,0,1,.828.218.061.061,0,0,1,0,.088.072.072,0,0,1-.091-.006,1.142,1.142,0,0,0-.688-.182A.064.064,0,0,1,1849.325,1109.1Z" transform="translate(-1849.279 -1108.933)" fill="#080435"/>
      </g>
      <path id="Trazado_636795" data-name="Trazado 636795" d="M1850.612,1113.517c0,.149-.09.269-.2.268s-.2-.124-.2-.274.089-.269.2-.268S1850.612,1113.368,1850.612,1113.517Z" transform="translate(-1826.795 -1107.913)" fill="#080435"/>
      <path id="Trazado_636796" data-name="Trazado 636796" d="M1862.186,1109.824a1.764,1.764,0,0,1-1.328,1.614c-.632.054-1.062-.579-.961-1.416a1.764,1.764,0,0,1,1.328-1.614C1861.857,1108.354,1862.287,1108.987,1862.186,1109.824Z" transform="translate(-1835.105 -1103.756)" fill="#fff" opacity="0.3"/>
      <ellipse id="Elipse_5227" data-name="Elipse 5227" cx="1.543" cy="0.951" rx="1.543" ry="0.951" transform="translate(21.756 6.411) rotate(-65.118)" fill="#fff" opacity="0.3"/>
      <g id="Grupo_894544" data-name="Grupo 894544" transform="translate(24.623 4.418)">
        <path id="Trazado_636797" data-name="Trazado 636797" d="M1861.247,1108.753a2.172,2.172,0,0,0,.079-.324c.007-.038.013-.077.017-.115.007-.065.013-.128.014-.192a1.454,1.454,0,0,0-.372-1.081.9.9,0,0,0-.732-.272,1.075,1.075,0,0,0-.171.029,1.983,1.983,0,0,0-1.174,1.236,2.172,2.172,0,0,0-.1.458,2.07,2.07,0,0,0,0,.439,1.35,1.35,0,0,0,.361.834.918.918,0,0,0,.366.229.915.915,0,0,0,.367.043,1.114,1.114,0,0,0,.393-.108,1.837,1.837,0,0,0,.8-.81c.021-.037.04-.076.059-.115A2.287,2.287,0,0,0,1861.247,1108.753Zm-2.212.646a1.461,1.461,0,0,1-.127-.476,1.856,1.856,0,0,1,0-.418,2.19,2.19,0,0,1,.091-.417,1.829,1.829,0,0,1,.07-.186,1.648,1.648,0,0,1,1.064-1.01.823.823,0,0,1,.128-.02.8.8,0,0,1,.646.24,1.143,1.143,0,0,1,.282.511,1.508,1.508,0,0,1,.047.257.145.145,0,0,1,0,.015.018.018,0,0,1,0,.008,1.064,1.064,0,0,1,.008.14,1.808,1.808,0,0,1-.012.258,2.029,2.029,0,0,1-.052.28c-.015.062-.034.122-.054.181s-.046.123-.072.183h0a1.789,1.789,0,0,1-.769.867,1.029,1.029,0,0,1-.405.122.819.819,0,0,1-.411-.072.8.8,0,0,1-.235-.168,1.019,1.019,0,0,1-.2-.29Z" transform="translate(-1858.79 -1106.766)" fill="#331832"/>
      </g>
      <g id="Grupo_894545" data-name="Grupo 894545" transform="translate(22.117 3.747)">
        <path id="Trazado_636798" data-name="Trazado 636798" d="M1843.076,1103.948c.016-.042.031-.082.046-.125l-.041,0a2.409,2.409,0,0,1-.28.625s0,0,0,0c.015-.021.028-.04.042-.061l.006-.01c.016-.024.032-.05.047-.075s.046-.076.067-.116.041-.079.06-.121S1843.06,1103.989,1843.076,1103.948Zm0,0c.016-.042.031-.082.046-.125l-.041,0a2.409,2.409,0,0,1-.28.625s0,0,0,0c.015-.021.028-.04.042-.061l.006-.01c.016-.024.032-.05.047-.075s.046-.076.067-.116.041-.079.06-.121S1843.06,1103.989,1843.076,1103.948Zm0,0c.016-.042.031-.082.046-.125l-.041,0a2.409,2.409,0,0,1-.28.625s0,0,0,0c.015-.021.028-.04.042-.061l.006-.01c.016-.024.032-.05.047-.075s.046-.076.067-.116.041-.079.06-.121S1843.06,1103.989,1843.076,1103.948Zm0,0c.016-.042.031-.082.046-.125l-.041,0a2.409,2.409,0,0,1-.28.625s0,0,0,0c.015-.021.028-.04.042-.061l.006-.01c.016-.024.032-.05.047-.075s.046-.076.067-.116.041-.079.06-.121S1843.06,1103.989,1843.076,1103.948Zm0,0c.016-.042.031-.082.046-.125l-.041,0a2.409,2.409,0,0,1-.28.625s0,0,0,0c.015-.021.028-.04.042-.061l.006-.01c.016-.024.032-.05.047-.075s.046-.076.067-.116.041-.079.06-.121S1843.06,1103.989,1843.076,1103.948Zm0,0c.016-.042.031-.082.046-.125l-.041,0a2.409,2.409,0,0,1-.28.625s0,0,0,0c.015-.021.028-.04.042-.061l.006-.01c.016-.024.032-.05.047-.075s.046-.076.067-.116.041-.079.06-.121S1843.06,1103.989,1843.076,1103.948Zm0,0c.016-.042.031-.082.046-.125l-.041,0a2.409,2.409,0,0,1-.28.625s0,0,0,0c.015-.021.028-.04.042-.061l.006-.01c.016-.024.032-.05.047-.075s.046-.076.067-.116.041-.079.06-.121S1843.06,1103.989,1843.076,1103.948Zm0,0c.016-.042.031-.082.046-.125l-.041,0a2.409,2.409,0,0,1-.28.625s0,0,0,0c.015-.021.028-.04.042-.061l.006-.01c.016-.024.032-.05.047-.075s.046-.076.067-.116.041-.079.06-.121S1843.06,1103.989,1843.076,1103.948Zm.117-.128c.018-.062.033-.127.046-.191.007-.035.012-.069.017-.1a1.55,1.55,0,0,0-.3-1.3.777.777,0,0,0-.208-.152.686.686,0,0,0-.193-.062.72.72,0,0,0-.149-.008h0l-.038,0c-.6.054-1.2.809-1.331,1.686a1.552,1.552,0,0,0,.3,1.3.729.729,0,0,0,.227.162.7.7,0,0,0,.315.061h0l.041,0a1.1,1.1,0,0,0,.633-.307h0a2.138,2.138,0,0,0,.49-.687A2.383,2.383,0,0,0,1843.193,1103.821Zm-.409.658a1.7,1.7,0,0,1-.41.442.927.927,0,0,1-.392.177h0l-.015,0a.337.337,0,0,1-.05.007.427.427,0,0,1-.059,0,.6.6,0,0,1-.441-.189,1.439,1.439,0,0,1-.277-1.188s0,0,0,0,0,0,0,0v-.013c.122-.833.677-1.55,1.237-1.6a.623.623,0,0,1,.106,0,.575.575,0,0,1,.2.05.636.636,0,0,1,.194.138.135.135,0,0,1,.013.015,1.066,1.066,0,0,1,.243.494,1.94,1.94,0,0,1,.017.7c-.006.04-.013.079-.02.118-.014.067-.03.135-.049.2a2.409,2.409,0,0,1-.28.625C1842.8,1104.461,1842.79,1104.47,1842.784,1104.478Zm.292-.53c.016-.042.031-.082.046-.125l-.041,0a2.409,2.409,0,0,1-.28.625s0,0,0,0c.015-.021.028-.04.042-.061l.006-.01c.016-.024.032-.05.047-.075s.046-.076.067-.116.041-.079.06-.121S1843.06,1103.989,1843.076,1103.948Zm0,0c.016-.042.031-.082.046-.125l-.041,0a2.409,2.409,0,0,1-.28.625s0,0,0,0c.015-.021.028-.04.042-.061l.006-.01c.016-.024.032-.05.047-.075s.046-.076.067-.116.041-.079.06-.121S1843.06,1103.989,1843.076,1103.948Zm0,0c.016-.042.031-.082.046-.125l-.041,0a2.409,2.409,0,0,1-.28.625s0,0,0,0c.015-.021.028-.04.042-.061l.006-.01c.016-.024.032-.05.047-.075s.046-.076.067-.116.041-.079.06-.121S1843.06,1103.989,1843.076,1103.948Zm0,0c.016-.042.031-.082.046-.125l-.041,0a2.409,2.409,0,0,1-.28.625s0,0,0,0c.015-.021.028-.04.042-.061l.006-.01c.016-.024.032-.05.047-.075s.046-.076.067-.116.041-.079.06-.121S1843.06,1103.989,1843.076,1103.948Zm0,0c.016-.042.031-.082.046-.125l-.041,0a2.409,2.409,0,0,1-.28.625s0,0,0,0c.015-.021.028-.04.042-.061l.006-.01c.016-.024.032-.05.047-.075s.046-.076.067-.116.041-.079.06-.121S1843.06,1103.989,1843.076,1103.948Zm0,0c.016-.042.031-.082.046-.125l-.041,0a2.409,2.409,0,0,1-.28.625s0,0,0,0c.015-.021.028-.04.042-.061l.006-.01c.016-.024.032-.05.047-.075s.046-.076.067-.116.041-.079.06-.121S1843.06,1103.989,1843.076,1103.948Zm0,0c.016-.042.031-.082.046-.125l-.041,0a2.409,2.409,0,0,1-.28.625s0,0,0,0c.015-.021.028-.04.042-.061l.006-.01c.016-.024.032-.05.047-.075s.046-.076.067-.116.041-.079.06-.121S1843.06,1103.989,1843.076,1103.948Z" transform="translate(-1841.01 -1102.006)" fill="#331832"/>
      </g>
      <g id="Grupo_894546" data-name="Grupo 894546" transform="translate(24.057 5.369)">
        <path id="Trazado_636799" data-name="Trazado 636799" d="M1854.833,1113.708a.1.1,0,0,1-.056-.066.1.1,0,0,1,.073-.116,1.125,1.125,0,0,1,.868.24.1.1,0,0,1,.02.136.1.1,0,0,1-.14.017.923.923,0,0,0-.7-.2A.1.1,0,0,1,1854.833,1113.708Z" transform="translate(-1854.774 -1113.513)" fill="#331832"/>
      </g>
      <path id="Trazado_636800" data-name="Trazado 636800" d="M1886.929,1091.326s1.169-1.89,2.9-.836.891,1.884.5,2.458a1.917,1.917,0,0,1-2.239.37C1887.223,1092.853,1886.929,1091.326,1886.929,1091.326Z" transform="translate(-1858.342 -1088.091)" fill="#ef8062"/>
      <g id="Grupo_894547" data-name="Grupo 894547" transform="translate(26.681 8.873)">
        <path id="Trazado_636801" data-name="Trazado 636801" d="M1874.6,1139.416a.061.061,0,0,1-.051-.028,2.714,2.714,0,0,0-1.113-.886.061.061,0,0,1-.032-.079.058.058,0,0,1,.08-.033,2.78,2.78,0,0,1,1.167.932.061.061,0,0,1-.017.084A.065.065,0,0,1,1874.6,1139.416Z" transform="translate(-1873.399 -1138.384)" fill="#ef8062"/>
      </g>
      <g id="Grupo_894548" data-name="Grupo 894548" transform="translate(23.666 7.28)">
        <path id="Trazado_636802" data-name="Trazado 636802" d="M1852.92,1127.532c-.293,0-.749-.059-.916-.408a.035.035,0,0,1,.016-.045.036.036,0,0,1,.044.015c.229.479,1.1.362,1.109.357a.039.039,0,0,1,.037.028.034.034,0,0,1-.027.038A2.144,2.144,0,0,1,1852.92,1127.532Z" transform="translate(-1852 -1127.077)" fill="#020202"/>
      </g>
      <path id="Trazado_636803" data-name="Trazado 636803" d="M1848.956,1152.716s-.753,1.656.879,1.734c0,0-.877.812-1.47.464s-.011-.631-.262-.859-.528-.4-.267-.649.016-.715.016-.715A2.4,2.4,0,0,1,1848.956,1152.716Z" transform="translate(-1824.667 -1141.753)" fill="#daebe8"/>
      <path id="Trazado_636804" data-name="Trazado 636804" d="M1848.564,1181.051a.257.257,0,1,0-.262.243A.253.253,0,0,0,1848.564,1181.051Z" transform="translate(-1824.941 -1165.947)" fill="#daebe8"/>
      <path id="Trazado_636805" data-name="Trazado 636805" d="M1839.627,1237.467a.257.257,0,1,0-.262.242A.253.253,0,0,0,1839.627,1237.467Z" transform="translate(-1817.263 -1214.414)" fill="#daebe8"/>
      <path id="Trazado_636806" data-name="Trazado 636806" d="M1840.211,1211.826a.257.257,0,1,0-.262.242A.253.253,0,0,0,1840.211,1211.826Z" transform="translate(-1817.765 -1192.386)" fill="#daebe8"/>
      <path id="Trazado_636807" data-name="Trazado 636807" d="M1720.5,1119.615a45.706,45.706,0,0,0-1.158,10.13l6.451-16.809a34.342,34.342,0,0,1-8.66-1.042c-2.945-.733-8.2-5.184-8.748-5.5-.594-.344-2.71,2.2-2.71,2.2C1705.2,1109.421,1712.623,1117.73,1720.5,1119.615Z" transform="translate(-1702.609 -1101.997)" fill="#71a99e"/>
      <path id="Trazado_636808" data-name="Trazado 636808" d="M1881.889,1159.532s5.623.128,13.432,16.431a.985.985,0,0,1-.412,1.292l-1.815.967a1.7,1.7,0,0,1-2.23-.591c-1.646-2.544-5.413-7.982-8.5-9.59C1878.3,1165.918,1881.889,1159.532,1881.889,1159.532Z" transform="translate(-1852.754 -1147.679)" fill="#71a99e"/>
      <path id="Trazado_636809" data-name="Trazado 636809" d="M1865.124,1157.787l1.157.246a.584.584,0,0,1-.381.762c-.574.172-.687.17-.88.592s-.9.424-1.148.271-.7.392-1.1.383-.627-.707-.459-1.164A7.534,7.534,0,0,0,1865.124,1157.787Z" transform="translate(-1837.147 -1146.18)" fill="#daebe8"/>
      <g id="Grupo_894549" data-name="Grupo 894549" transform="translate(31.184 21.187)">
        <path id="Trazado_636810" data-name="Trazado 636810" d="M1908.464,1229.3a.04.04,0,0,1-.036-.023,10.435,10.435,0,0,0-3.052-3.428.04.04,0,0,1,.046-.066,10.57,10.57,0,0,1,3.078,3.461.04.04,0,0,1-.02.053A.053.053,0,0,1,1908.464,1229.3Z" transform="translate(-1905.359 -1225.778)" fill="#331832"/>
      </g>
      <g id="Grupo_894550" data-name="Grupo 894550" transform="translate(17.854 16.298)">
        <path id="Trazado_636811" data-name="Trazado 636811" d="M1810.791,1192.438a.025.025,0,0,1-.011,0,.039.039,0,0,1-.027-.05l.4-1.281a.045.045,0,0,1,.05-.027.039.039,0,0,1,.026.05l-.4,1.281A.04.04,0,0,1,1810.791,1192.438Z" transform="translate(-1810.751 -1191.078)" fill="#331832"/>
      </g>
      <path id="Trazado_636812" data-name="Trazado 636812" d="M1837.7,1301.075s4.95,21.967,13.649,29.823a2.712,2.712,0,0,0,3.06.4l1.592-.812a2.273,2.273,0,0,0,.979-3.024c-2.253-4.572-7.6-16.148-9.265-26.216Z" transform="translate(-1816.048 -1269.278)" fill="#ef8062"/>
      <g id="Grupo_894551" data-name="Grupo 894551" transform="translate(20.68 34.743)">
        <path id="Trazado_636813" data-name="Trazado 636813" d="M1837.112,1335.74a92.592,92.592,0,0,1-2.967-9.184,6.627,6.627,0,0,0-3.334-4.47l.046-.1a6.754,6.754,0,0,1,3.4,4.55,92.541,92.541,0,0,0,2.964,9.167Z" transform="translate(-1830.81 -1321.983)" fill="#331832"/>
      </g>
    </g>
    <g id="Grupo_894561" data-name="Grupo 894561" transform="translate(443.428 232.965)">
      <g id="Grupo_894553" data-name="Grupo 894553" transform="translate(12.873 1.565)">
        <path id="Trazado_636814" data-name="Trazado 636814" d="M992.85,420.249a4.07,4.07,0,0,0-4.267-1.808c-3.038.461-5.14,3.8-7.5,1.8s-4.852-1.915-6.3-.093.393,4.06-3.4,3.425-3.907,2.714-1.172,5.964,10.686,4.839,14.2,3.239,7.5-3.816,8.859-5.377S995.166,421.624,992.85,420.249Z" transform="translate(-968.321 -418.379)" fill="#331832"/>
      </g>
      <g id="Grupo_894554" data-name="Grupo 894554" transform="translate(21.067 0.956)">
        <path id="Trazado_636815" data-name="Trazado 636815" d="M1042.374,416.908c-.005-.026-.571-2.611-2.919-2.687a7.972,7.972,0,0,0-4.247,1.489c-1.174.694-2.188,1.293-3.023.787-2.082-1.261-3.6-1.751-5.637-.729l-.074-.147c2.316-1.159,4.063-.313,5.8.736.75.455,1.679-.094,2.854-.788a8.04,8.04,0,0,1,4.337-1.512c2.479.081,3.069,2.791,3.074,2.818Z" transform="translate(-1026.474 -414.054)" fill="#331832"/>
      </g>
      <g id="Grupo_894555" data-name="Grupo 894555" transform="translate(23.138 3.857)">
        <path id="Trazado_636816" data-name="Trazado 636816" d="M1044.372,437.142a5.25,5.25,0,0,1-3.193-1.436.029.029,0,0,1,0-.04.032.032,0,0,1,.038,0c1.953,1.63,3.788,1.874,4.914.656a3.992,3.992,0,0,1,4.3-1.264,2.146,2.146,0,0,0,2.334-.4.027.027,0,0,1,.039,0,.026.026,0,0,1,0,.038,2.159,2.159,0,0,1-1.488.6,2.391,2.391,0,0,1-.906-.185,3.94,3.94,0,0,0-4.244,1.251A2.362,2.362,0,0,1,1044.372,437.142Z" transform="translate(-1041.169 -434.646)" fill="#331832"/>
      </g>
      <g id="Grupo_894556" data-name="Grupo 894556" transform="translate(17.532 3.781)">
        <path id="Trazado_636817" data-name="Trazado 636817" d="M1004.46,440.477a21.707,21.707,0,0,1-3.072-5.84l2.936-.529c1.611,4.161,6.275,7.318,10.314,6.888l3.281,4.679C1015.593,446.546,1008.271,445.233,1004.46,440.477Z" transform="translate(-1001.388 -434.108)" fill="#ffb27d"/>
      </g>
      <path id="Trazado_636818" data-name="Trazado 636818" d="M997.5,411.985c.114-.474.125-1.479.23-1.956.045-.207.149-.917-.051-1.009-.174-.08-.523.419-.66.68-.647-1.7-2.106-3.686-.971-.242h0c-.12-.29-.928-2.441-1.339-2.162-.3.2.416,1.957.608,2.435l-.012.006c-.235-.472-.87-1.932-1.169-1.752-.393.237.485,2.1.485,2.1s-.691-1.559-1-1.123c-.173.246.264,1.156.545,1.72h0c.059.118.111.221.149.3a.914.914,0,0,0,.1.167,8.331,8.331,0,0,0,1.005,1.431,1.114,1.114,0,0,0,1.271.416A1.514,1.514,0,0,0,997.5,411.985Z" transform="translate(-977.15 -407.272)" fill="#ffb27d"/>
      <path id="Trazado_636819" data-name="Trazado 636819" d="M1003.784,740.27a11.81,11.81,0,0,1-.3,3.273c-.364.719-1.815,2.333-.751,2.348.611.009,2.091-1.606,2.557-2.006s1.127-.566,1.156-1.181c.014-.292-.481-.7-.671-1.215a8.764,8.764,0,0,1-.424-1.872s-.77-.863-1.139-.562A1.458,1.458,0,0,0,1003.784,740.27Z" transform="translate(-984.685 -692.251)" fill="#331832"/>
      <path id="Trazado_636820" data-name="Trazado 636820" d="M1071.227,580.781c-.279.936-3.85.7-7.976-.533s-7.244-2.986-6.965-3.922,3.85-.7,7.975.533S1071.506,579.846,1071.227,580.781Z" transform="translate(-1031.004 -552.016)" fill="#331832"/>
      <path id="Trazado_636821" data-name="Trazado 636821" d="M882.524,654.355a11.449,11.449,0,0,1-3.135.744c-.774-.12-2.692-.991-2.4.023.166.582,2.093,1.48,2.6,1.8s.849.892,1.43.727c.276-.078.518-.677.941-1.017a8.734,8.734,0,0,1,1.624-.989s.585-1,.2-1.257A1.392,1.392,0,0,0,882.524,654.355Z" transform="translate(-876.957 -619.417)" fill="#331832"/>
      <path id="Trazado_636822" data-name="Trazado 636822" d="M1068.841,487.091a4.97,4.97,0,0,0-4.845-3.248c-1.856-.05-3.606-.125-4.716,3.055a62.675,62.675,0,0,0-2.887,10.455,19.665,19.665,0,0,1,14.941,4.455c.867-2.944.814-9.544.224-14.059C1071.372,486.339,1069.161,488.1,1068.841,487.091Z" transform="translate(-1031.109 -473.042)" fill="#ef8062"/>
      <path id="Trazado_636823" data-name="Trazado 636823" d="M1085.995,483.086l-.9,3.645s-11.386,1.419-12.314-.26a9.213,9.213,0,0,1-.646-5.734,47.9,47.9,0,0,0,4.969.1,7.669,7.669,0,0,1,3.705.282A24.1,24.1,0,0,1,1085.995,483.086Z" transform="translate(-1044.468 -470.386)" fill="#ef8062"/>
      <path id="Trazado_636824" data-name="Trazado 636824" d="M1149.264,496.464c.287.419-.115,1.891-.985,2.912-.908,1.066-1.813,1.858-2.4,1.481-.828-.53.282-2.548,1.171-3.458C1148.211,496.212,1149.059,496.165,1149.264,496.464Z" transform="translate(-1107.737 -483.764)" fill="#331832"/>
      <path id="Trazado_636825" data-name="Trazado 636825" d="M1107.374,453.829c-.515-.253-.032-1.331-.032-1.331.447-.041.74-.1.815-.436l.092-.417.045-.207.146-.66.131-.593.537-2.431.311,2.594.053.441s.063,1.608,1.041,1.849C1110.549,452.621,1108.495,454.378,1107.374,453.829Z" transform="translate(-1074.704 -442.051)" fill="#ffb27d"/>
      <path id="Trazado_636826" data-name="Trazado 636826" d="M1116.532,469.177a1.684,1.684,0,0,1-1.178.649l.146-.66C1115.919,469.142,1116.532,469.177,1116.532,469.177Z" transform="translate(-1081.763 -460.438)" fill="#f09962"/>
      <path id="Trazado_636827" data-name="Trazado 636827" d="M1129.121,450.686a2.757,2.757,0,0,0-.222,1.231c-.018,1.27-1.513,1.356-1.759.919-.031-.054.621-2.03.621-2.03l.507-.126Z" transform="translate(-1091.889 -444.565)" fill="#331832"/>
      <ellipse id="Elipse_5228" data-name="Elipse 5228" cx="2.879" cy="2.352" rx="2.879" ry="2.352" transform="translate(31.106 8.139) rotate(-73.397)" fill="#ffb27d"/>
      <g id="Grupo_894557" data-name="Grupo 894557" transform="translate(33.931 5.91)">
        <path id="Trazado_636828" data-name="Trazado 636828" d="M1117.8,449.319a.053.053,0,0,1,.023-.1.582.582,0,0,1,.62.345.053.053,0,0,1-.023.071.059.059,0,0,1-.072-.024.923.923,0,0,0-.515-.287A.052.052,0,0,1,1117.8,449.319Z" transform="translate(-1117.772 -449.215)" fill="#080435"/>
      </g>
      <path id="Trazado_636829" data-name="Trazado 636829" d="M1118.595,453.3c-.032.122-.131.2-.221.179a.206.206,0,0,1-.1-.265c.032-.122.131-.2.221-.179A.206.206,0,0,1,1118.595,453.3Z" transform="translate(-1084.26 -446.58)" fill="#080435"/>
      <g id="Grupo_894558" data-name="Grupo 894558" transform="translate(32.003 5.552)">
        <path id="Trazado_636830" data-name="Trazado 636830" d="M1104.133,446.853a.053.053,0,0,1-.016-.1.582.582,0,0,1,.7.085.053.053,0,0,1,.006.075.059.059,0,0,1-.075.006.922.922,0,0,0-.585-.071A.054.054,0,0,1,1104.133,446.853Z" transform="translate(-1104.088 -446.672)" fill="#080435"/>
      </g>
      <path id="Trazado_636831" data-name="Trazado 636831" d="M1107.08,450.268c.017.126-.043.237-.135.249s-.18-.08-.2-.206.043-.237.135-.249S1107.063,450.143,1107.08,450.268Z" transform="translate(-1074.367 -444.032)" fill="#080435"/>
      <path id="Trazado_636832" data-name="Trazado 636832" d="M1107.81,459.544a.838.838,0,0,0,.513.665.718.718,0,0,0,.821-.369A3.034,3.034,0,0,1,1107.81,459.544Z" transform="translate(-1075.283 -452.179)" fill="#fff"/>
      <path id="Trazado_636833" data-name="Trazado 636833" d="M1009.435,588.814s-8.9,5.4-10.615,9.324-1.858,11.744-.136,12.77,3.439,1.09,4.389-2.34,1.041-8.067,4.2-9.361,12.261-5.8,11.14-7.778S1010.8,587.942,1009.435,588.814Z" transform="translate(-980.481 -563.017)" fill="#73b3ce"/>
      <path id="Trazado_636834" data-name="Trazado 636834" d="M933.259,581.572s-9.9,1.536-12.609,3.117-8.038,5.237-7.935,7.025a2.8,2.8,0,0,0,3.456,2.419c1.572-.307,7.882-4.309,10.128-4.847a93.811,93.811,0,0,1,12.764-1.923l1.309-4.519A19.451,19.451,0,0,0,933.259,581.572Z" transform="translate(-907.675 -557.011)" fill="#73b3ce"/>
      <g id="Grupo_894559" data-name="Grupo 894559" transform="translate(20.591 28.001)">
        <path id="Trazado_636835" data-name="Trazado 636835" d="M1023.173,610.153l-.079-.076c1.026-1.089,4.916-4.046,4.956-4.076l.066.086C1028.077,606.117,1024.193,609.068,1023.173,610.153Z" transform="translate(-1023.094 -606.001)" fill="#331832"/>
      </g>
      <path id="Trazado_636836" data-name="Trazado 636836" d="M1101.571,427.273a1.319,1.319,0,0,1-1.528.91,2.579,2.579,0,0,0-2.114,1.055l.642-3.3,3.024-.24,1.685.747.228,2.874-.259,1.3-.275-1.1S1102.387,427.506,1101.571,427.273Z" transform="translate(-1066.794 -423.097)" fill="#331832"/>
      <path id="Trazado_636837" data-name="Trazado 636837" d="M1129.619,452.225a.581.581,0,0,1-.814-.182.639.639,0,0,1,.372-.783.581.581,0,0,1,.814.182A.638.638,0,0,1,1129.619,452.225Z" transform="translate(-1093.285 -444.988)" fill="#ffb27d"/>
      <g id="Grupo_894560" data-name="Grupo 894560" transform="translate(38.416 12.953)">
        <path id="Trazado_636838" data-name="Trazado 636838" d="M1156.86,510.488a21.706,21.706,0,0,1-1.674,6.383l-2.524-1.591c1.535-3.942.1-9.762-2.839-12.407a.851.851,0,0,1-.131-.977c.582-1.574,2.387-3.371,3.145-2.434C1154.836,501.936,1157.125,506.419,1156.86,510.488Z" transform="translate(-1149.601 -499.204)" fill="#ffb27d"/>
      </g>
      <path id="Trazado_636839" data-name="Trazado 636839" d="M1163.324,607.293c-.4.273-1.091,1.007-1.489,1.288-.173.122-.729.576-.644.779.074.177.669.044.946-.056-.667,1.688-.933,4.142.553.834l0,0c-.107.294-.962,2.427-.47,2.5.36.052,1.014-1.725,1.195-2.208l.013,0c-.145.507-.662,2.014-.32,2.082.45.09,1.057-1.875,1.057-1.875s-.542,1.616-.021,1.5c.294-.064.585-1.032.759-1.637h0c.036-.127.068-.238.093-.322a.938.938,0,0,0,.037-.192,8.341,8.341,0,0,0,.224-1.735,1.114,1.114,0,0,0-.657-1.165A1.514,1.514,0,0,0,1163.324,607.293Z" transform="translate(-1121.135 -578.873)" fill="#ffb27d"/>
    </g>
    <g id="Grupo_894570" data-name="Grupo 894570" transform="translate(493.618 283.263)">
      <g id="Grupo_894565" data-name="Grupo 894565" transform="translate(0)">
        <g id="Grupo_894564" data-name="Grupo 894564">
          <path id="Trazado_636840" data-name="Trazado 636840" d="M1276.523,764.274c-22.921-.861-42.455,19.954-43.328,39.68-.549,12.4,6.4,21.413,17.336,26.615a25.467,25.467,0,0,1,14.2,22.47l20,.751c.593-13.4,14.263-22.086,16.011-23.143,8.352-4.893,13.976-13.837,15.7-29.1C1318.657,781.921,1299.444,765.134,1276.523,764.274Z" transform="translate(-1233.165 -764.248)" fill="#fff" opacity="0.6"/>
          <path id="Trazado_636841" data-name="Trazado 636841" d="M1452.259,1341.342s2.814,4.266-.259,8.188c-.858,1.1-3.145,1.68-6.031,1.9-7.442.576-18.865-1.25-20.011-2.879-1.591-2.263-.632-4.795,1.2-5.339,0,0-2.461-2.092-1.679-4.55s2.13-2.9,2.13-2.9-1.883-1.172-1.916-4.476a4.174,4.174,0,0,1,2.511-3.781c2.932-1.594,8.934-2.281,20.488-.23,0,0,5.214.974,3.69,6.789C1452.384,1334.068,1455.918,1338.176,1452.259,1341.342Z" transform="translate(-1398.101 -1246.854)" fill="#c4c66d"/>
          <path id="Trazado_636842" data-name="Trazado 636842" d="M1350.753,837.286s-9.508,2.272-15.261,9.674-13.334,1.855-11.643-5.995,11.673-14.4,17.447-13.005S1355.969,832.256,1350.753,837.286Z" transform="translate(-1310.864 -818.822)" fill="#fff" opacity="0.9"/>
          <g id="Grupo_894562" data-name="Grupo 894562" transform="translate(37.38 92.546)">
            <path id="Trazado_636843" data-name="Trazado 636843" d="M1515.268,1423.365a.365.365,0,0,1-.171-.025,24.623,24.623,0,0,0-4.892-1.223,26.8,26.8,0,0,0-11.286.618.364.364,0,0,1-.2-.7,27.539,27.539,0,0,1,11.619-.634,24.779,24.779,0,0,1,5.03,1.263.364.364,0,0,1-.1.7Z" transform="translate(-1498.455 -1421.059)" fill="#acab58"/>
          </g>
          <g id="Grupo_894563" data-name="Grupo 894563" transform="translate(36.255 85.288)">
            <path id="Trazado_636844" data-name="Trazado 636844" d="M1508.534,1371.837a.362.362,0,0,1-.136-.013,46.984,46.984,0,0,0-6.124-1.208c-3.177-.415-7.72-.658-11.324.54a.364.364,0,0,1-.23-.691c3.738-1.243,8.4-1,11.66-.57a47.659,47.659,0,0,1,6.219,1.229.364.364,0,0,1-.065.713Z" transform="translate(-1490.471 -1369.548)" fill="#acab58"/>
          </g>
          <path id="Trazado_636845" data-name="Trazado 636845" d="M1445.969,1360.585c-7.442.576-18.865-1.25-20.011-2.879-1.591-2.263-.632-4.795,1.2-5.339,0,0-2.461-2.092-1.679-4.55s2.13-2.9,2.13-2.9-1.883-1.172-1.916-4.476a4.174,4.174,0,0,1,2.511-3.781h0s-2.5,6.4,3.408,8.367a.761.761,0,0,1,.2,1.279c-.739.789.148,5.121,2.018,6.008s-.443,4.284,1.92,6.008C1437.573,1359.649,1443.385,1360.339,1445.969,1360.585Z" transform="translate(-1398.101 -1256.009)" fill="#acab58"/>
        </g>
      </g>
      <g id="Grupo_894569" data-name="Grupo 894569" transform="translate(25.573 15.623)">
        <path id="Trazado_636846" data-name="Trazado 636846" d="M1416.474,916.221c-4.091-5.66-2.068-17.842,14.471-24.239,14.581-5.64,19.276-12.613,19.276-12.613s5.5,17.312-2.386,30.68C1438.209,926.364,1421.768,923.546,1416.474,916.221Z" transform="translate(-1414.661 -878.772)" fill="#c4c66d"/>
        <g id="Grupo_894566" data-name="Grupo 894566" transform="translate(2.2)">
          <path id="Trazado_636847" data-name="Trazado 636847" d="M1431,924.91a.6.6,0,0,1-.584-.481c-.028-.144-2.62-14.451,15.181-25.4a39.147,39.147,0,0,0,17.448-23.415.6.6,0,0,1,1.172.226,40.372,40.372,0,0,1-17.995,24.2c-17.1,10.526-14.661,24.023-14.635,24.159a.6.6,0,0,1-.469.7A.555.555,0,0,1,1431,924.91Z" transform="translate(-1430.272 -875.125)" fill="#acab58"/>
        </g>
        <g id="Grupo_894567" data-name="Grupo 894567" transform="translate(8.699 19.094)">
          <path id="Trazado_636848" data-name="Trazado 636848" d="M1477.81,1022.053a.6.6,0,0,1-.571-.425c-1.86-6.16-.055-10.455.023-10.633a.6.6,0,0,1,1.1.473,15.536,15.536,0,0,0,.023,9.817.6.6,0,0,1-.4.744A.62.62,0,0,1,1477.81,1022.053Z" transform="translate(-1476.401 -1010.637)" fill="#acab58"/>
        </g>
        <g id="Grupo_894568" data-name="Grupo 894568" transform="translate(18.573 21.338)">
          <path id="Trazado_636849" data-name="Trazado 636849" d="M1550.049,1029.459c-1.707,0-2.889-.078-3.021-.088a.6.6,0,0,1-.553-.636.585.585,0,0,1,.636-.554c.088,0,9.038.595,14.07-1.57a.6.6,0,0,1,.471,1.1C1558.208,1029.189,1553.222,1029.459,1550.049,1029.459Z" transform="translate(-1546.473 -1026.562)" fill="#acab58"/>
        </g>
      </g>
    </g>
    <g id="Grupo_894589" data-name="Grupo 894589" transform="translate(479.776 325.772)">
      <g id="Grupo_894586" data-name="Grupo 894586" transform="translate(0)">
        <g id="Grupo_894571" data-name="Grupo 894571" transform="translate(21.385 10.243)">
          <path id="Trazado_636850" data-name="Trazado 636850" d="M1293.5,1155.168a4.081,4.081,0,0,1-1.642-.583c-1.667-1.025-2.786-3.189-3.626-7.02a18.672,18.672,0,0,0-1.529-3.911l3.758-2.016a22.826,22.826,0,0,1,1.936,5.012c.292,1.331.447-7.067,1.166-7.861.441-.487,2.217.314,2.217.314a42.441,42.441,0,0,1,1.409,6.662,32.716,32.716,0,0,1,.312,4.958,8.147,8.147,0,0,1-.324,2.18,2.99,2.99,0,0,1-2.087,2.152A4.253,4.253,0,0,1,1293.5,1155.168Z" transform="translate(-1286.699 -1138.634)" fill="#ffb27d"/>
        </g>
        <g id="Grupo_894572" data-name="Grupo 894572" transform="translate(27.919 25.542)">
          <path id="Trazado_636851" data-name="Trazado 636851" d="M1333.891,1248.03c-.462,0-.824-.178-.825-.408a.264.264,0,0,1,.085-.187,1.111,1.111,0,0,1,.744-.225h.007c.462,0,.824.179.825.408s-.364.411-.829.411Zm0-.707a1.009,1.009,0,0,0-.665.192.155.155,0,0,0-.053.107c0,.141.293.3.714.3h.007c.423,0,.718-.157.718-.3s-.293-.3-.714-.3Z" transform="translate(-1333.066 -1247.21)" fill="#e9845c"/>
        </g>
        <g id="Grupo_894573" data-name="Grupo 894573" transform="translate(26.547 18.28)">
          <path id="Trazado_636852" data-name="Trazado 636852" d="M1323.435,1199.963a.057.057,0,0,1-.055-.05,8.77,8.77,0,0,1,.583-4.2.051.051,0,0,1,.074-.026.056.056,0,0,1,.026.073,8.651,8.651,0,0,0-.573,4.145.056.056,0,0,1-.049.061Z" transform="translate(-1323.332 -1195.675)" fill="#e9845c"/>
        </g>
        <g id="Grupo_894577" data-name="Grupo 894577" transform="translate(27.979 8.622)">
          <path id="Trazado_636853" data-name="Trazado 636853" d="M1336.38,1131.97s2.283.194,3.177-.7,1.362-2.7.691-2.27a8.326,8.326,0,0,0-1.376,1.227s1.425-1.763.868-1.918-1.781,1.391-1.781,1.391,1.529-2.233.956-2.209-1.723,1.729-1.723,1.729,1.339-2.135.674-2.091-1.1,1.771-1.652,1.617-2.719-.686-2.719.875Z" transform="translate(-1333.495 -1127.13)" fill="#ffb27d"/>
          <g id="Grupo_894574" data-name="Grupo 894574" transform="translate(4.607 3.053)">
            <path id="Trazado_636854" data-name="Trazado 636854" d="M1366.235,1149.477a.046.046,0,0,1,0-.092c.366-.023.685-.559.687-.564a.046.046,0,0,1,.065-.016.047.047,0,0,1,.016.063c-.014.025-.347.583-.762.61Z" transform="translate(-1366.188 -1148.797)" fill="#e9845c"/>
          </g>
          <g id="Grupo_894575" data-name="Grupo 894575" transform="translate(3.553 2.526)">
            <path id="Trazado_636855" data-name="Trazado 636855" d="M1358.756,1145.853a.046.046,0,0,1-.012-.091,1.573,1.573,0,0,0,.837-.679.047.047,0,1,1,.081.046,1.636,1.636,0,0,1-.893.722A.032.032,0,0,1,1358.756,1145.853Z" transform="translate(-1358.71 -1145.059)" fill="#e9845c"/>
          </g>
          <g id="Grupo_894576" data-name="Grupo 894576" transform="translate(2.839 2.045)">
            <path id="Trazado_636856" data-name="Trazado 636856" d="M1353.7,1142.395h-.008a.046.046,0,0,1-.045-.048.045.045,0,0,1,.046-.045h.008c.386,0,.76-.63.764-.636a.044.044,0,0,1,.063-.016.046.046,0,0,1,.017.063C1354.527,1141.74,1354.139,1142.395,1353.7,1142.395Z" transform="translate(-1353.645 -1141.642)" fill="#e9845c"/>
          </g>
        </g>
        <path id="Trazado_636857" data-name="Trazado 636857" d="M1253.608,1527.855s.066,1.273.938,1.609,3.379.593,2.467,1.437c-.523.484-3.055.249-3.768.268s-1.373.348-1.916-.115c-.6-.509-.085-3.136-.085-3.136a2.849,2.849,0,0,0,1.176.274A2.27,2.27,0,0,0,1253.608,1527.855Z" transform="translate(-1234.679 -1462.77)" fill="#331832"/>
        <path id="Trazado_636858" data-name="Trazado 636858" d="M1250.914,1253.553s.327,5.745-1.21,16.824c-1.11,8-2.457,16.065-3.121,19.932a3,3,0,0,1-2.738,2.513l-.736.049a2.52,2.52,0,0,1-2.652-2.659l1.159-26.075.228-8.578Z" transform="translate(-1225.585 -1227.118)" fill="#71a99e"/>
        <path id="Trazado_636859" data-name="Trazado 636859" d="M1195.66,1529.418s.066,1.273.938,1.609,3.378.593,2.467,1.437c-.523.484-3.055.249-3.768.268s-1.373.348-1.916-.115c-.6-.509-.085-3.136-.085-3.136a2.846,2.846,0,0,0,1.176.275A2.267,2.267,0,0,0,1195.66,1529.418Z" transform="translate(-1184.897 -1464.113)" fill="#331832"/>
        <path id="Trazado_636860" data-name="Trazado 636860" d="M1192.967,1255.115s.327,5.745-1.21,16.825c-1.11,8-2.457,16.065-3.121,19.932a3,3,0,0,1-2.738,2.513l-.736.049a2.52,2.52,0,0,1-2.652-2.659l1.16-26.076.228-8.578Z" transform="translate(-1175.802 -1228.46)" fill="#71a99e"/>
        <path id="Trazado_636861" data-name="Trazado 636861" d="M1186.841,1289.106c.036.693,4.239.856,9.422.554s9.31-1.131,9.274-1.824-4.222-.988-9.406-.686S1186.8,1288.413,1186.841,1289.106Z" transform="translate(-1179.525 -1255.879)" fill="#331832"/>
        <path id="Trazado_636862" data-name="Trazado 636862" d="M1185.248,1138.421s.819-3.661,7.587-3.88c9.76-.317,9.1,8.677,10.369,22.283a61.235,61.235,0,0,0-18.706,1.1S1183.278,1144.034,1185.248,1138.421Z" transform="translate(-1177.192 -1124.867)" fill="#73b3ce"/>
        <path id="Trazado_636863" data-name="Trazado 636863" d="M1174.265,1137.787l4.487,2.327s9.7.618,12.262.125a4.117,4.117,0,0,0,3.212-2.4,14.168,14.168,0,0,0-7.485-3.389c-.439-.06-.894-.1-1.365-.118a13.37,13.37,0,0,0-2.35.11C1177.148,1135.268,1174.265,1137.787,1174.265,1137.787Z" transform="translate(-1168.722 -1124.688)" fill="#73b3ce"/>
        <path id="Trazado_636864" data-name="Trazado 636864" d="M1231.62,1098.417l.467-1.663.136-.484.8-2.846.191,2.8.114,1.684.036.533c.025.362.247.432.525.739.112.125.83.879.049,1.25a3.674,3.674,0,0,1-3.555-.992C1230.385,1099.441,1231.469,1098.955,1231.62,1098.417Z" transform="translate(-1216.93 -1089.551)" fill="#ffb27d"/>
        <path id="Trazado_636865" data-name="Trazado 636865" d="M1208.412,1294.229s-5.666-1.5-17.247,1.082l-.045,1.677,17.083.143Z" transform="translate(-1183.202 -1261.69)" fill="#71a99e"/>
        <ellipse id="Elipse_5229" data-name="Elipse 5229" cx="1.176" cy="2.359" rx="1.176" ry="2.359" transform="matrix(0.566, -0.825, 0.825, 0.566, 4.793, 14.167)" fill="#331832"/>
        <g id="Grupo_894578" data-name="Grupo 894578" transform="translate(0.646 13.654)">
          <path id="Trazado_636866" data-name="Trazado 636866" d="M1143.723,1183.946c.286-4.492,1-11.185,3-16.316a15.379,15.379,0,0,1,1.027-2.288c.3-.525-.29-1.645-1.183-2.163a2.542,2.542,0,0,0-2.314-.111,13.567,13.567,0,0,0-1.218,2.583,53.957,53.957,0,0,0-3.527,18.237Z" transform="translate(-1139.505 -1162.845)" fill="#ffb27d"/>
        </g>
        <g id="Grupo_894584" data-name="Grupo 894584" transform="translate(11.079)">
          <path id="Trazado_636867" data-name="Trazado 636867" d="M1254.916,1082.2a3.712,3.712,0,0,1,.31,1.509c0,.875-1.28-1.013-1.28-1.013Z" transform="translate(-1248.255 -1079.911)" fill="#5c305d"/>
          <ellipse id="Elipse_5230" data-name="Elipse 5230" cx="2.509" cy="3.026" rx="2.509" ry="3.026" transform="translate(1.39 2.804) rotate(-19.09)" fill="#ffb27d"/>
          <path id="Trazado_636868" data-name="Trazado 636868" d="M1215.7,1070.766l1.165-.368a.884.884,0,0,0,.563-.521c.165-.432.418-.688,1.537-.874a2.382,2.382,0,0,0,2.173-2.031.857.857,0,0,0-1.455-.641c-.632.5-.51-.437-1.208-.39-1.3.086-1.341,1.113-2.386,1.295-1.37.238-3.6,1.774-1.948,3.934Z" transform="translate(-1213.552 -1065.938)" fill="#331832"/>
          <g id="Grupo_894579" data-name="Grupo 894579" transform="translate(4.305 4.604)">
            <path id="Trazado_636869" data-name="Trazado 636869" d="M1244.657,1098.7a.051.051,0,0,0-.041-.087.55.55,0,0,0-.507.445.051.051,0,0,0,.036.062.056.056,0,0,0,.062-.036.87.87,0,0,1,.421-.37A.05.05,0,0,0,1244.657,1098.7Z" transform="translate(-1244.107 -1098.615)" fill="#080435"/>
          </g>
          <path id="Trazado_636870" data-name="Trazado 636870" d="M1247.217,1102.375c.055.108.163.164.242.124a.2.2,0,0,0,.043-.268c-.055-.108-.163-.164-.242-.124A.2.2,0,0,0,1247.217,1102.375Z" transform="translate(-1242.447 -1097)" fill="#080435"/>
          <g id="Grupo_894580" data-name="Grupo 894580" transform="translate(6.155 4.027)">
            <path id="Trazado_636871" data-name="Trazado 636871" d="M1257.746,1094.657a.037.037,0,0,0,.022-.03.061.061,0,0,0-.033-.063.357.357,0,0,0-.5.162.061.061,0,0,0,.013.07.038.038,0,0,0,.057,0,.533.533,0,0,1,.412-.135A.034.034,0,0,0,1257.746,1094.657Z" transform="translate(-1257.232 -1094.519)" fill="#080435"/>
          </g>
          <path id="Trazado_636872" data-name="Trazado 636872" d="M1258.391,1098.372c.01.121.088.214.176.207s.151-.111.142-.232-.088-.214-.176-.207S1258.381,1098.251,1258.391,1098.372Z" transform="translate(-1252.072 -1093.603)" fill="#080435"/>
          <path id="Trazado_636873" data-name="Trazado 636873" d="M1217.7,1097.6s1.186,1.6,2.378,1.5c0,0-1.22-1.158.6-2.389A6.46,6.46,0,0,0,1217.7,1097.6Z" transform="translate(-1217.115 -1092.373)" fill="#5c305d"/>
          <path id="Trazado_636874" data-name="Trazado 636874" d="M1228.556,1101.8a.491.491,0,1,0-.337-.65A.519.519,0,0,0,1228.556,1101.8Z" transform="translate(-1226.128 -1095.932)" fill="#ffb27d"/>
          <path id="Trazado_636875" data-name="Trazado 636875" d="M1234.427,1097.365s.147,1.521.507,1.74a5.486,5.486,0,0,0,3.182-.7l.006,0a2.043,2.043,0,0,1-1.129,2.358,2.879,2.879,0,0,1-.969.2h0a1.985,1.985,0,0,1-1.761-.67,5.786,5.786,0,0,1-.115-1.351,1.311,1.311,0,0,0-.505-.951A1.937,1.937,0,0,1,1234.427,1097.365Z" transform="translate(-1230.812 -1092.937)" fill="#5c305d"/>
          <g id="Grupo_894581" data-name="Grupo 894581" transform="translate(5.482 0.048)">
            <path id="Trazado_636876" data-name="Trazado 636876" d="M1252.816,1066.547a.374.374,0,0,1-.359-.251l.066-.02a.3.3,0,0,0,.293.2.487.487,0,0,0,.114-.013l.015.066A.534.534,0,0,1,1252.816,1066.547Z" transform="translate(-1252.457 -1066.276)" fill="#331832"/>
          </g>
          <g id="Grupo_894582" data-name="Grupo 894582" transform="translate(5.709 0.528)">
            <path id="Trazado_636877" data-name="Trazado 636877" d="M1254.086,1071.748l-.016-.03c.015-.008,1.419-.757,1.322-1.542a.515.515,0,0,0-.2-.418c-.176-.1-.433.023-.658.126-.036.016-.069.033-.1.046l-.013-.03c.032-.015.066-.031.1-.046.236-.109.5-.23.69-.126a.548.548,0,0,1,.219.445C1255.526,1070.979,1254.145,1071.716,1254.086,1071.748Z" transform="translate(-1254.07 -1069.688)" fill="#fff"/>
          </g>
          <g id="Grupo_894583" data-name="Grupo 894583" transform="translate(2.002 0.581)">
            <path id="Trazado_636878" data-name="Trazado 636878" d="M1227.763,1071.176v-.033a2.481,2.481,0,0,0,2.04-1.078l.03.016A2.509,2.509,0,0,1,1227.763,1071.176Z" transform="translate(-1227.762 -1070.065)" fill="#fff"/>
          </g>
        </g>
        <g id="Grupo_894585" data-name="Grupo 894585" transform="translate(2.891 22.652)">
          <path id="Trazado_636879" data-name="Trazado 636879" d="M1156.024,1228.479a.391.391,0,0,1-.062-.005.516.516,0,0,1-.344-.213,1.042,1.042,0,0,1-.163-.757h0a1.116,1.116,0,0,1,.259-.59.546.546,0,0,1,.492-.208c.346.046.573.483.507.972C1156.648,1228.135,1156.347,1228.479,1156.024,1228.479Zm.117-1.61a.422.422,0,0,0-.3.157.939.939,0,0,0-.216.5h0a.876.876,0,0,0,.131.633.364.364,0,0,0,.233.149.281.281,0,0,0,.039,0c.237,0,.471-.288.522-.656.054-.4-.11-.749-.364-.783A.317.317,0,0,0,1156.141,1226.869Z" transform="translate(-1155.443 -1226.699)" fill="#ec865c"/>
        </g>
        <path id="Trazado_636880" data-name="Trazado 636880" d="M1135.64,1301.538s3.618.108,3.741.37c.284.6.575,1.92.848,2.529.118.264.454,1.179.207,1.331-.215.132-.829-.469-1.086-.791-.358,1.872-1.385,4.456-1.258.465h-.007c-.084.4-.5,2.894-1.084,2.816-.441-.059-.119-2.408.012-3.064l-.018-.006c-.192.655-.514,2.62-1.016,2.5-.427-.1-.032-2.825-.032-2.825s-.54,2.221-.9,1.8c-.333-.39.115-2.485.248-3.12C1135.43,1302.883,1135.64,1301.538,1135.64,1301.538Z" transform="translate(-1134.923 -1268.342)" fill="#ffb27d"/>
      </g>
      <g id="Grupo_894587" data-name="Grupo 894587" transform="translate(22.524 12.849)">
        <path id="Trazado_636881" data-name="Trazado 636881" d="M1296.069,1159.46a8.869,8.869,0,0,0-1.293-2.261l.088-.069a9.02,9.02,0,0,1,1.311,2.3Z" transform="translate(-1294.776 -1157.13)" fill="#331832"/>
      </g>
      <g id="Grupo_894588" data-name="Grupo 894588" transform="translate(15.595 36.079)">
        <path id="Trazado_636882" data-name="Trazado 636882" d="M1245.713,1331.65l-.111-.013c.007-.048.635-4.756,1.11-6.447.479-1.707,2.683-3.18,2.705-3.195l.061.093c-.021.015-2.191,1.464-2.659,3.132C1246.347,1326.9,1245.719,1331.6,1245.713,1331.65Z" transform="translate(-1245.602 -1321.995)" fill="#331832"/>
      </g>
    </g>
    <path id="Trazado_636883" data-name="Trazado 636883" d="M1249.84,1109.956a3.54,3.54,0,0,0,1.625-.3.728.728,0,0,1-.548.739A.873.873,0,0,1,1249.84,1109.956Z" transform="translate(-753.872 -777.728)" fill="#fff"/>
    <g id="Grupo_894590" data-name="Grupo 894590" transform="translate(522.607 222.612)">
      <circle id="Elipse_5232" data-name="Elipse 5232" cx="19.311" cy="19.311" r="19.311" transform="translate(0 0)" fill="#ffe690" opacity="0.4"/>
      <circle id="Elipse_5233" data-name="Elipse 5233" cx="13.607" cy="13.607" r="13.607" transform="translate(5.703 5.703)" fill="#ffe690"/>
    </g>
  </g>
</svg>
