<svg xmlns="http://www.w3.org/2000/svg" xmlns:xlink="http://www.w3.org/1999/xlink" width="145" height="145" viewBox="0 0 145 145">
  <defs>
    <filter id="Elipse_5260" x="0" y="0" width="145" height="145" filterUnits="userSpaceOnUse">
      <feOffset dy="3" input="SourceAlpha"/>
      <feGaussianBlur stdDeviation="3" result="blur"/>
      <feFlood flood-opacity="0.161"/>
      <feComposite operator="in" in2="blur"/>
      <feComposite in="SourceGraphic"/>
    </filter>
  </defs>
  <g id="Grupo_999388" data-name="Grupo 999388" transform="translate(-370 -9540.003)">
    <g transform="matrix(1, 0, 0, 1, 370, 9540)" filter="url(#Elipse_5260)">
      <circle id="Elipse_5260-2" data-name="Elipse 5260" cx="63.5" cy="63.5" r="63.5" transform="translate(9 6)" fill="#ad84ff"/>
    </g>
    <g id="XMLID_472_" transform="translate(391.022 9554.804)">
      <g id="XMLID_4344_" transform="translate(28.1 22.2)">
        <path id="XMLID_4345_" d="M60.922,22.2h-28.5A4.357,4.357,0,0,0,28.1,26.519V78.343a4.357,4.357,0,0,0,4.319,4.319h41.3a4.357,4.357,0,0,0,4.319-4.319V39.318Z" transform="translate(-28.1 -22.2)" fill="#fff"/>
        <path id="XMLID_1499_" d="M69.9,35a4.357,4.357,0,0,0,4.319,4.319h12.8L69.9,22.2Z" transform="translate(-37.078 -22.2)" fill="#afafaf"/>
        <g id="XMLID_4346_" transform="translate(6.046 24.891)">
          <path id="XMLID_1498_" d="M35.8,53.9H73.726v2.748H35.8Z" transform="translate(-35.8 -53.9)" fill="#d5d6db"/>
          <path id="XMLID_1497_" d="M35.8,66.8H73.726v2.748H35.8Z" transform="translate(-35.8 -56.671)" fill="#d5d6db"/>
          <path id="XMLID_1496_" d="M35.8,79.6H73.726v2.748H35.8Z" transform="translate(-35.8 -59.42)" fill="#d5d6db"/>
        </g>
        <g id="XMLID_4347_" transform="translate(7.165 16.431)">
          <path id="XMLID_1495_" d="M0,0H5.732V7.931H0Z" transform="translate(27.039 31.163) rotate(-45)" fill="#64798a"/>
          <path id="XMLID_4348_" d="M67.829,48.366a17.934,17.934,0,1,0,0,25.363A17.962,17.962,0,0,0,67.829,48.366ZM64.374,70.274a13.1,13.1,0,1,1,0-18.531A13.128,13.128,0,0,1,64.374,70.274Z" transform="translate(-37.225 -43.125)" fill="#27a2db"/>
          <path id="XMLID_1494_" d="M92.283,89.388l-9.737-8.166A1.214,1.214,0,0,0,80.9,81.3l-5.5,5.5a1.214,1.214,0,0,0-.079,1.649l8.166,9.737a6.241,6.241,0,1,0,8.794-8.794Z" transform="translate(-45.346 -51.246)" fill="#ffa031"/>
        </g>
        <ellipse id="XMLID_1493_" cx="2.984" cy="5.732" rx="2.984" ry="5.732" transform="translate(21.387 22.587) rotate(45)" fill="#cceafb"/>
      </g>
    </g>
  </g>
</svg>
