<svg id="Grupo_999173" data-name="Grupo 999173" xmlns="http://www.w3.org/2000/svg" xmlns:xlink="http://www.w3.org/1999/xlink" width="298.482" height="306.078" viewBox="0 0 298.482 306.078">
  <defs>
    <clipPath id="clip-path">
      <rect id="Rectángulo_345100" data-name="Rectángulo 345100" width="298.482" height="306.078" fill="none"/>
    </clipPath>
    <clipPath id="clip-path-4">
      <rect id="Rectángulo_345054" data-name="Rectángulo 345054" width="10.997" height="138.051" fill="none"/>
    </clipPath>
    <clipPath id="clip-path-5">
      <rect id="Rectángulo_345055" data-name="Rectángulo 345055" width="20.697" height="9.869" fill="none"/>
    </clipPath>
    <clipPath id="clip-path-6">
      <rect id="Rectángulo_345056" data-name="Rectángulo 345056" width="20.353" height="6.636" fill="none"/>
    </clipPath>
    <clipPath id="clip-path-7">
      <rect id="Rectángulo_345057" data-name="Rectángulo 345057" width="8.599" height="43.246" fill="none"/>
    </clipPath>
    <clipPath id="clip-path-8">
      <rect id="Rectángulo_345058" data-name="Rectángulo 345058" width="6.75" height="42.544" fill="none"/>
    </clipPath>
    <clipPath id="clip-path-9">
      <rect id="Rectángulo_345059" data-name="Rectángulo 345059" width="39.105" height="23.239" fill="none"/>
    </clipPath>
    <clipPath id="clip-path-10">
      <rect id="Rectángulo_345060" data-name="Rectángulo 345060" width="38.481" height="21.673" fill="none"/>
    </clipPath>
    <clipPath id="clip-path-12">
      <rect id="Rectángulo_345062" data-name="Rectángulo 345062" width="38.151" height="21.671" fill="none"/>
    </clipPath>
    <clipPath id="clip-path-13">
      <rect id="Rectángulo_345063" data-name="Rectángulo 345063" width="6.415" height="7.857" fill="none"/>
    </clipPath>
    <clipPath id="clip-path-14">
      <rect id="Rectángulo_345064" data-name="Rectángulo 345064" width="14.136" height="177.464" fill="none"/>
    </clipPath>
    <clipPath id="clip-path-15">
      <rect id="Rectángulo_345065" data-name="Rectángulo 345065" width="26.606" height="12.687" fill="none"/>
    </clipPath>
    <clipPath id="clip-path-16">
      <rect id="Rectángulo_345066" data-name="Rectángulo 345066" width="26.163" height="8.53" fill="none"/>
    </clipPath>
    <clipPath id="clip-path-17">
      <rect id="Rectángulo_345067" data-name="Rectángulo 345067" width="11.054" height="55.593" fill="none"/>
    </clipPath>
    <clipPath id="clip-path-18">
      <rect id="Rectángulo_345068" data-name="Rectángulo 345068" width="8.677" height="54.691" fill="none"/>
    </clipPath>
    <clipPath id="clip-path-19">
      <rect id="Rectángulo_345069" data-name="Rectángulo 345069" width="50.27" height="29.874" fill="none"/>
    </clipPath>
    <clipPath id="clip-path-20">
      <rect id="Rectángulo_345070" data-name="Rectángulo 345070" width="49.467" height="27.861" fill="none"/>
    </clipPath>
    <clipPath id="clip-path-21">
      <rect id="Rectángulo_345071" data-name="Rectángulo 345071" width="50.269" height="29.874" fill="none"/>
    </clipPath>
    <clipPath id="clip-path-22">
      <rect id="Rectángulo_345072" data-name="Rectángulo 345072" width="49.043" height="27.858" fill="none"/>
    </clipPath>
    <clipPath id="clip-path-23">
      <rect id="Rectángulo_345073" data-name="Rectángulo 345073" width="8.246" height="10.102" fill="none"/>
    </clipPath>
    <clipPath id="clip-path-25">
      <rect id="Rectángulo_345075" data-name="Rectángulo 345075" width="141.276" height="172.913" fill="none"/>
    </clipPath>
    <clipPath id="clip-path-26">
      <rect id="Rectángulo_345076" data-name="Rectángulo 345076" width="116.029" height="1.312" fill="none"/>
    </clipPath>
    <clipPath id="clip-path-27">
      <rect id="Rectángulo_345077" data-name="Rectángulo 345077" width="8.94" height="87.811" fill="none"/>
    </clipPath>
    <clipPath id="clip-path-28">
      <rect id="Rectángulo_345078" data-name="Rectángulo 345078" width="45.296" height="32.916" fill="none"/>
    </clipPath>
    <clipPath id="clip-path-29">
      <rect id="Rectángulo_345079" data-name="Rectángulo 345079" width="20.265" height="85.913" fill="none"/>
    </clipPath>
    <clipPath id="clip-path-30">
      <rect id="Rectángulo_345080" data-name="Rectángulo 345080" width="48.217" height="46.165" fill="none"/>
    </clipPath>
    <clipPath id="clip-path-31">
      <rect id="Rectángulo_345081" data-name="Rectángulo 345081" width="36.964" height="19.605" fill="#12263f"/>
    </clipPath>
    <clipPath id="clip-path-32">
      <rect id="Rectángulo_345082" data-name="Rectángulo 345082" width="16.836" height="30.47" fill="none"/>
    </clipPath>
    <clipPath id="clip-path-33">
      <rect id="Rectángulo_345083" data-name="Rectángulo 345083" width="64.545" height="41.026" fill="none"/>
    </clipPath>
    <clipPath id="clip-path-34">
      <rect id="Rectángulo_345084" data-name="Rectángulo 345084" width="17.553" height="16.142" fill="none"/>
    </clipPath>
    <clipPath id="clip-path-35">
      <rect id="Rectángulo_345085" data-name="Rectángulo 345085" width="15.288" height="16.141" fill="#ad84ff"/>
    </clipPath>
    <clipPath id="clip-path-36">
      <rect id="Rectángulo_345086" data-name="Rectángulo 345086" width="11.497" height="8.748" fill="none"/>
    </clipPath>
    <clipPath id="clip-path-37">
      <rect id="Rectángulo_345087" data-name="Rectángulo 345087" width="9.944" height="49.529" fill="none"/>
    </clipPath>
    <clipPath id="clip-path-38">
      <rect id="Rectángulo_345088" data-name="Rectángulo 345088" width="24.396" height="25.343" fill="none"/>
    </clipPath>
    <clipPath id="clip-path-39">
      <rect id="Rectángulo_345089" data-name="Rectángulo 345089" width="5.063" height="5.379" fill="none"/>
    </clipPath>
    <clipPath id="clip-path-40">
      <rect id="Rectángulo_345091" data-name="Rectángulo 345091" width="10.72" height="22.416" fill="none"/>
    </clipPath>
    <clipPath id="clip-path-41">
      <rect id="Rectángulo_345093" data-name="Rectángulo 345093" width="9.959" height="21.53" fill="none"/>
    </clipPath>
    <clipPath id="clip-path-42">
      <rect id="Rectángulo_345094" data-name="Rectángulo 345094" width="80.756" height="72.568" fill="none"/>
    </clipPath>
    <clipPath id="clip-path-43">
      <rect id="Rectángulo_345095" data-name="Rectángulo 345095" width="22.968" height="35.335" fill="none"/>
    </clipPath>
    <clipPath id="clip-path-44">
      <rect id="Rectángulo_345096" data-name="Rectángulo 345096" width="11.131" height="11.534" fill="none"/>
    </clipPath>
    <clipPath id="clip-path-45">
      <rect id="Rectángulo_345097" data-name="Rectángulo 345097" width="10.892" height="12.358" fill="none"/>
    </clipPath>
    <clipPath id="clip-path-46">
      <rect id="Rectángulo_345098" data-name="Rectángulo 345098" width="12.198" height="9.287" fill="none"/>
    </clipPath>
  </defs>
  <g id="Grupo_999172" data-name="Grupo 999172" clip-path="url(#clip-path)">
    <path id="Trazado_700258" data-name="Trazado 700258" d="M154.226,232.674V212.09l-37.383,20.584V212.09l-41.775,23v67.836H191.609V212.09Zm-56.1,41.892H89.351v-8.772h8.772Zm0-13.158H89.351v-8.772h8.772ZM110.7,274.566h-8.772v-8.772H110.7Zm0-13.158h-8.772v-8.772H110.7Zm20.742,13.158h-8.772v-8.772h8.772Zm0-13.158h-8.772v-8.772h8.772Zm12.574,13.158H135.24v-8.772h8.772Zm0-13.158H135.24v-8.772h8.772Zm20.742,13.158h-8.772v-8.772h8.772Zm0-13.158h-8.772v-8.772h8.772Zm12.574,13.158h-8.772v-8.772h8.772Zm0-13.158h-8.772v-8.772h8.772Z" transform="translate(-9.43 -26.644)" fill="#ebebeb"/>
    <path id="Trazado_700259" data-name="Trazado 700259" d="M58.947,294.638H33.216L36.724,146.1H55.438Z" transform="translate(-4.173 -18.354)" fill="#f5f5f5"/>
    <path id="Trazado_700260" data-name="Trazado 700260" d="M36.749,162.76l-.4,16.77,20.037-8.766L56,154.337Z" transform="translate(-4.567 -19.389)" fill="#e0e0e0"/>
    <path id="Trazado_700261" data-name="Trazado 700261" d="M34.871,242.081l-.4,16.769,23.289-10.187-.389-16.426Z" transform="translate(-4.331 -29.175)" fill="#e0e0e0"/>
    <path id="Trazado_700262" data-name="Trazado 700262" d="M58.062,271.184,33.932,281.74l-.4,16.769,24.914-10.9Z" transform="translate(-4.213 -34.068)" fill="#e0e0e0"/>
    <path id="Trazado_700263" data-name="Trazado 700263" d="M35.81,202.42l-.4,16.769,21.663-9.476-.388-16.426Z" transform="translate(-4.449 -24.282)" fill="#e0e0e0"/>
    <g id="Grupo_999035" data-name="Grupo 999035">
      <g id="Grupo_999034" data-name="Grupo 999034" clip-path="url(#clip-path)">
        <path id="Trazado_700264" data-name="Trazado 700264" d="M142.88,54.256A54.256,54.256,0,1,1,88.624,0,54.256,54.256,0,0,1,142.88,54.256" transform="translate(-4.317)" fill="#25ffff"/>
        <path id="Trazado_700266" data-name="Trazado 700266" d="M105.475,74.206h0a1.346,1.346,0,0,1-1.134-.428l-1.606-1.751a1.347,1.347,0,0,0-.918-.434l-2.112-.115a1.348,1.348,0,0,1-.449-.1L96.475,70.2a1.35,1.35,0,0,0-.929-.043l-2.435.772A1.325,1.325,0,0,1,92.7,71l-2.719-.011a1.345,1.345,0,0,0-.966.4L86.7,73.754a1.348,1.348,0,0,1-.728.384l-1.318.231a1.345,1.345,0,0,1-1.155-.346l-.737-.7-.832-2.1a.4.4,0,0,0-.454-.241l-1.733.379a.4.4,0,0,1-.445-.553L79.861,69l-.03-2.069-.619-.21-3.349,3.21a.71.71,0,0,1-1.18-.425l-.644-4.436a1.116,1.116,0,0,1,.9-1.258l1.531-.276a1.114,1.114,0,0,0,.783-.568,1.115,1.115,0,0,1,1.446-.484l2.542,1.163a1.128,1.128,0,0,0,.361.1l.919.086a1.116,1.116,0,0,0,1.189-1.368l-.334-1.412a1.111,1.111,0,0,1,.108-.8l1.982-3.6a1.227,1.227,0,0,0,.06-.129l1.254-3.169a1.119,1.119,0,0,1,.2-.329l2.256-2.548,1.013-2.505,5.671-2.734-1.383-1.033-.181-.875A2.235,2.235,0,0,1,95.335,41l1.68-1.092a2.235,2.235,0,0,0,.6-3.168L95.743,33.8a2.236,2.236,0,0,0-1.265-.945l-1.642-.473a2.334,2.334,0,0,1-.4-.157l-2.937-1.5a2.235,2.235,0,0,0-2.945.859l-1.2,2.041c-.028.047-.054.1-.079.146l-1.111,2.259a2.235,2.235,0,0,1-2.939,1.045l-.253-.116a2.105,2.105,0,0,1-.279-.153l-2.064-1.33a2.236,2.236,0,0,1-.55-3.256l.769-.985a2.29,2.29,0,0,1,.267-.286l2.46-2.211,1.294-1.26a2.235,2.235,0,0,1,.475-.353l.807-.449a2.236,2.236,0,0,0,1.079-2.514l-.2-.785A2.235,2.235,0,0,0,82.964,21.7l-.676-.031a2.214,2.214,0,0,1-.6-.111l-1.208-.4a2.233,2.233,0,0,0-2.15.418L76.882,22.8a2.236,2.236,0,0,1-1.5.531l-4.5-.116a2.192,2.192,0,0,1-.452-.058l-4.552-1.067a2.247,2.247,0,0,0-.844-.034l-6.783,1.024A2.242,2.242,0,0,1,57.241,23l-2.983-.942a2.232,2.232,0,0,0-1.187-.044l-1.146.271a2.232,2.232,0,0,0-1.561,1.344L45.941,34.671a2.238,2.238,0,0,0-.155.679l-.468,6.824q-.005.073-.005.147L45.3,45.875a.511.511,0,0,0,.957.307l2.153-4.074a2.245,2.245,0,0,1,.359-.5L49,41.374a2.235,2.235,0,0,1,3.645.6l2.829,6.1,1.644,1.278L56.1,57.288a1.129,1.129,0,0,0,.071.556L58.87,64.57a1.118,1.118,0,0,0,.332.451l6.636,5.393,2.913,3.615,5.26.446,2.22.341,2.612.235,2.264,1.1,2.231.934.434-.1A1.345,1.345,0,0,1,85.4,78.238l.031.627a1.348,1.348,0,0,1-.053.446l-.8,2.7a1.346,1.346,0,0,0,.172,1.129l1.692,2.524a1.342,1.342,0,0,0,.139.175l2.921,3.093a1.341,1.341,0,0,0,.636.377l1.673.44a1.343,1.343,0,0,1,.988,1.1L93.15,93.1l.381,3.093a1.28,1.28,0,0,0,.024.141l.876,3.766c.011.046.024.093.04.137l.414,1.186a1.339,1.339,0,0,0,.54.687l.517.333a1.349,1.349,0,0,0,.85.21l1.748-.157a1.345,1.345,0,0,0,1.134-1.825,1.369,1.369,0,0,1-.085-.36l-.057-.617a1.343,1.343,0,0,1,.143-.739l.762-1.485a1.342,1.342,0,0,1,.534-.556l.879-.5a1.349,1.349,0,0,0,.44-.4l.945-1.352a1.225,1.225,0,0,1,.088-.113l1.235-1.416a1.357,1.357,0,0,0,.114-.15l1.271-1.955a1.329,1.329,0,0,0,.184-.432l.439-1.911a1.347,1.347,0,0,1,.435-.72l2.668-2.291a1.349,1.349,0,0,0,.419-.658l1.632-5.837a1.269,1.269,0,0,1,.1-.249l.033-.065a1.359,1.359,0,0,0,.113-.312l.431-1.887a1.345,1.345,0,0,0-.792-1.54l-.078-.033a12.3,12.3,0,0,0-6.049-.885M45.867,43.424l-.01-.023.015.023ZM61.64,67.251l.086-.017Z" transform="translate(-5.691 -2.644)" fill="#e8e8e8"/>
        <path id="Trazado_700267" data-name="Trazado 700267" d="M128.548,10.361l-1.737.453a1.4,1.4,0,0,1-1.187.449l-5.405-.593a1.394,1.394,0,0,0-.628.074l-3.931,1.422a1.4,1.4,0,0,0-.371.2l-1.534,1.166a1.4,1.4,0,0,0,.151,2.326l.912.523a1.386,1.386,0,0,1,.158.106l4.575,3.525a1.4,1.4,0,0,1,.545,1.111l-.01,4.143a1.4,1.4,0,0,0,.457,1.038l4.951,4.5a1.4,1.4,0,0,0,2.242-.521l.112-.285a1.4,1.4,0,0,1,.53-.653l5.136-3.393a.356.356,0,0,1,.057-.031l4.873-2.109a.369.369,0,0,0,.221-.373.37.37,0,0,1,.672-.245s2.562,2.592,2.04,3.447c-.034.055-3.085,1.5-3.085,1.5a.37.37,0,0,0,.1.694s3.959.112,4.959.877c1.285.982,2.76,5.85,2.76,5.85a.369.369,0,0,1-.094.433l-.224.193a.379.379,0,0,1-.067.045l-.17.091a.37.37,0,0,0-.133.532l1.752,2.619a.354.354,0,0,1,.045.1l1.074,3.431h0L146.31,45.28a.365.365,0,0,0-.084.315l.965,4.85a.37.37,0,0,1-.055.277s-3.478,1.412-2.788,5c.372,1.94,5.909,3.116,8.307,3.537.082-1.225.129-2.459.129-3.7a54.2,54.2,0,0,0-24.235-45.2" transform="translate(-14.221 -1.302)" fill="#e8e8e8"/>
      </g>
    </g>
    <g id="Grupo_999097" data-name="Grupo 999097">
      <g id="Grupo_999096" data-name="Grupo 999096" clip-path="url(#clip-path)">
        <path id="Trazado_700270" data-name="Trazado 700270" d="M130.13,187.877h-3.7l-3.65,135.44a2.542,2.542,0,0,0,2.541,2.611h5.913a2.542,2.542,0,0,0,2.541-2.611Z" transform="translate(-15.425 -23.602)" fill="#407bff"/>
        <g id="Grupo_999038" data-name="Grupo 999038" transform="translate(107.359 164.275)" opacity="0.5">
          <g id="Grupo_999037" data-name="Grupo 999037">
            <g id="Grupo_999036" data-name="Grupo 999036" clip-path="url(#clip-path-4)">
              <path id="Trazado_700271" data-name="Trazado 700271" d="M130.13,187.877h-3.7l-3.65,135.44a2.542,2.542,0,0,0,2.541,2.611h5.913a2.542,2.542,0,0,0,2.541-2.611Z" transform="translate(-122.784 -187.877)" fill="#fff"/>
            </g>
          </g>
        </g>
        <path id="Trazado_700272" data-name="Trazado 700272" d="M140.36,182.866l-5.181-.243-.509-1.524a2.755,2.755,0,0,0-2.379-1.875l-3.225-.275a2.756,2.756,0,0,0-2.73,1.577l-.775,1.654a3.315,3.315,0,1,0,.079,6.624l14.719-.691a2.627,2.627,0,0,0,0-5.248" transform="translate(-15.347 -22.479)" fill="#407bff"/>
        <g id="Grupo_999041" data-name="Grupo 999041" transform="translate(106.82 156.46)" opacity="0.2">
          <g id="Grupo_999040" data-name="Grupo 999040">
            <g id="Grupo_999039" data-name="Grupo 999039" clip-path="url(#clip-path-5)">
              <path id="Trazado_700273" data-name="Trazado 700273" d="M140.36,182.866l-5.181-.243-.509-1.524a2.755,2.755,0,0,0-2.379-1.875l-3.225-.275a2.756,2.756,0,0,0-2.73,1.577l-.775,1.654a3.315,3.315,0,1,0,.079,6.624l14.719-.691a2.627,2.627,0,0,0,0-5.248" transform="translate(-122.167 -178.939)" fill="#fff"/>
            </g>
          </g>
        </g>
        <g id="Grupo_999044" data-name="Grupo 999044" transform="translate(106.82 159.693)" opacity="0.2">
          <g id="Grupo_999043" data-name="Grupo 999043">
            <g id="Grupo_999042" data-name="Grupo 999042" clip-path="url(#clip-path-6)">
              <path id="Trazado_700274" data-name="Trazado 700274" d="M140.36,188.579a2.617,2.617,0,0,0,2.16-1.345l-13.8.189a3.294,3.294,0,0,0-3.078-4.782,3.317,3.317,0,1,0,0,6.628Z" transform="translate(-122.167 -182.637)"/>
            </g>
          </g>
        </g>
        <path id="Trazado_700275" data-name="Trazado 700275" d="M124.919,179.133h0a1.652,1.652,0,0,1-1.652-1.652V140.186a4.3,4.3,0,1,1,8.555.607l-5.268,36.921a1.652,1.652,0,0,1-1.635,1.418" transform="translate(-15.485 -17.071)" fill="#407bff"/>
        <g id="Grupo_999047" data-name="Grupo 999047" transform="translate(107.782 118.816)" opacity="0.3">
          <g id="Grupo_999046" data-name="Grupo 999046">
            <g id="Grupo_999045" data-name="Grupo 999045" clip-path="url(#clip-path-7)">
              <path id="Trazado_700276" data-name="Trazado 700276" d="M124.919,179.133h0a1.652,1.652,0,0,1-1.652-1.652V140.186a4.3,4.3,0,1,1,8.555.607l-5.268,36.921a1.652,1.652,0,0,1-1.635,1.418" transform="translate(-123.267 -135.887)" fill="#fff"/>
            </g>
          </g>
        </g>
        <g id="Grupo_999050" data-name="Grupo 999050" transform="translate(107.782 118.816)" opacity="0.6">
          <g id="Grupo_999049" data-name="Grupo 999049">
            <g id="Grupo_999048" data-name="Grupo 999048" clip-path="url(#clip-path-8)">
              <path id="Trazado_700277" data-name="Trazado 700277" d="M127.974,135.91c-.135-.012-.269-.023-.407-.023a4.3,4.3,0,0,0-4.3,4.3v37.295a1.643,1.643,0,0,0,.3.95,1.648,1.648,0,0,0,1.135-1.335l5.267-36.92a4.3,4.3,0,0,0-2-4.266" transform="translate(-123.267 -135.887)" fill="#fff"/>
            </g>
          </g>
        </g>
        <path id="Trazado_700278" data-name="Trazado 700278" d="M126.315,187.216h0a1.651,1.651,0,0,0,.541,2.272l31.765,19.542a4.3,4.3,0,1,0,3.965-7.605L128.38,186.566a1.652,1.652,0,0,0-2.065.65" transform="translate(-15.837 -23.42)" fill="#407bff"/>
        <g id="Grupo_999053" data-name="Grupo 999053" transform="translate(110.232 163.009)" opacity="0.3">
          <g id="Grupo_999052" data-name="Grupo 999052">
            <g id="Grupo_999051" data-name="Grupo 999051" clip-path="url(#clip-path-9)">
              <path id="Trazado_700279" data-name="Trazado 700279" d="M126.315,187.216h0a1.651,1.651,0,0,0,.541,2.272l31.765,19.542a4.3,4.3,0,1,0,3.965-7.605L128.38,186.566a1.652,1.652,0,0,0-2.065.65" transform="translate(-126.07 -186.429)" fill="#fff"/>
            </g>
          </g>
        </g>
        <g id="Grupo_999056" data-name="Grupo 999056" transform="translate(110.85 163.01)" opacity="0.6">
          <g id="Grupo_999055" data-name="Grupo 999055">
            <g id="Grupo_999054" data-name="Grupo 999054" clip-path="url(#clip-path-10)">
              <path id="Trazado_700280" data-name="Trazado 700280" d="M162.675,201.426l-34.206-14.859a.918.918,0,1,0-.937,1.357L159.3,207.466a3.586,3.586,0,1,0,3.379-6.04" transform="translate(-126.776 -186.43)" fill="#fff"/>
            </g>
          </g>
        </g>
        <path id="Trazado_700281" data-name="Trazado 700281" d="M118.009,187.216h0a1.651,1.651,0,0,1-.541,2.272L85.7,209.031a4.3,4.3,0,1,1-3.965-7.605l34.206-14.859a1.652,1.652,0,0,1,2.065.65" transform="translate(-9.943 -23.42)" fill="#407bff"/>
        <g id="Grupo_999059" data-name="Grupo 999059" transform="translate(69.206 163.009)" opacity="0.3">
          <g id="Grupo_999058" data-name="Grupo 999058">
            <g id="Grupo_999057" data-name="Grupo 999057" clip-path="url(#clip-path-9)">
              <path id="Trazado_700282" data-name="Trazado 700282" d="M118.009,187.216h0a1.651,1.651,0,0,1-.541,2.272L85.7,209.031a4.3,4.3,0,1,1-3.965-7.605l34.206-14.859a1.652,1.652,0,0,1,2.065.65" transform="translate(-79.149 -186.429)" fill="#fff"/>
            </g>
          </g>
        </g>
        <g id="Grupo_999062" data-name="Grupo 999062" transform="translate(69.206 163.011)" opacity="0.6">
          <g id="Grupo_999061" data-name="Grupo 999061">
            <g id="Grupo_999060" data-name="Grupo 999060" clip-path="url(#clip-path-12)">
              <path id="Trazado_700283" data-name="Trazado 700283" d="M115.944,186.567,81.737,201.426a4.3,4.3,0,0,0-2.356,5.338,4.3,4.3,0,0,0,5.37.7l31.764-19.541a.846.846,0,1,0-.572-1.357" transform="translate(-79.15 -186.431)" fill="#fff"/>
            </g>
          </g>
        </g>
        <g id="Grupo_999065" data-name="Grupo 999065" transform="translate(109.65 207.008)" opacity="0.5">
          <g id="Grupo_999064" data-name="Grupo 999064">
            <g id="Grupo_999063" data-name="Grupo 999063" clip-path="url(#clip-path-13)">
              <path id="Trazado_700284" data-name="Trazado 700284" d="M125.64,236.75l-.022.8c1.117.1,2.206.138,3.078.138.843,0,1.888-.039,2.964-.13l-.022-.8c-.879.074-1.857.12-2.942.12-1.131,0-2.147-.049-3.056-.129" transform="translate(-125.431 -236.75)"/>
              <path id="Trazado_700285" data-name="Trazado 700285" d="M131.819,244.894l-.131-4.872c-.868.082-1.872.136-3.019.136-1.2,0-2.235-.062-3.133-.15l-.132,4.883c1.089.088,2.2.126,3.265.126,1.031,0,2.1-.039,3.15-.122" transform="translate(-125.404 -237.159)"/>
            </g>
          </g>
        </g>
        <path id="Trazado_700286" data-name="Trazado 700286" d="M65.535,143.385h-4.75L56.094,317.493a3.268,3.268,0,0,0,3.267,3.357h7.6a3.269,3.269,0,0,0,3.267-3.357Z" transform="translate(-7.047 -18.013)" fill="#407bff"/>
        <g id="Grupo_999068" data-name="Grupo 999068" transform="translate(49.046 125.372)" opacity="0.5">
          <g id="Grupo_999067" data-name="Grupo 999067">
            <g id="Grupo_999066" data-name="Grupo 999066" clip-path="url(#clip-path-14)">
              <path id="Trazado_700287" data-name="Trazado 700287" d="M65.535,143.385h-4.75L56.094,317.493a3.268,3.268,0,0,0,3.267,3.357h7.6a3.269,3.269,0,0,0,3.267-3.357Z" transform="translate(-56.093 -143.385)" fill="#fff"/>
            </g>
          </g>
        </g>
        <path id="Trazado_700288" data-name="Trazado 700288" d="M78.686,136.943l-6.66-.312-.653-1.959a3.543,3.543,0,0,0-3.059-2.41l-4.145-.354a3.542,3.542,0,0,0-3.509,2.028l-1,2.126a4.261,4.261,0,1,0,.1,8.516l18.922-.887a3.377,3.377,0,0,0,0-6.747" transform="translate(-6.947 -16.569)" fill="#407bff"/>
        <g id="Grupo_999071" data-name="Grupo 999071" transform="translate(48.352 115.325)" opacity="0.2">
          <g id="Grupo_999070" data-name="Grupo 999070">
            <g id="Grupo_999069" data-name="Grupo 999069" clip-path="url(#clip-path-15)">
              <path id="Trazado_700289" data-name="Trazado 700289" d="M78.686,136.943l-6.66-.312-.653-1.959a3.543,3.543,0,0,0-3.059-2.41l-4.145-.354a3.542,3.542,0,0,0-3.509,2.028l-1,2.126a4.261,4.261,0,1,0,.1,8.516l18.922-.887a3.377,3.377,0,0,0,0-6.747" transform="translate(-55.299 -131.894)" fill="#fff"/>
            </g>
          </g>
        </g>
        <g id="Grupo_999074" data-name="Grupo 999074" transform="translate(48.352 119.482)" opacity="0.2">
          <g id="Grupo_999073" data-name="Grupo 999073">
            <g id="Grupo_999072" data-name="Grupo 999072" clip-path="url(#clip-path-16)">
              <path id="Trazado_700290" data-name="Trazado 700290" d="M78.686,144.287a3.363,3.363,0,0,0,2.776-1.729l-17.745.243a4.237,4.237,0,0,0-3.957-6.148,4.265,4.265,0,1,0,0,8.521Z" transform="translate(-55.299 -136.648)"/>
            </g>
          </g>
        </g>
        <path id="Trazado_700291" data-name="Trazado 700291" d="M58.837,132.144h0a2.124,2.124,0,0,1-2.124-2.124V82.077a5.527,5.527,0,1,1,11,.781L60.939,130.32a2.123,2.123,0,0,1-2.1,1.824" transform="translate(-7.125 -9.617)" fill="#407bff"/>
        <g id="Grupo_999077" data-name="Grupo 999077" transform="translate(49.589 66.934)" opacity="0.3">
          <g id="Grupo_999076" data-name="Grupo 999076">
            <g id="Grupo_999075" data-name="Grupo 999075" clip-path="url(#clip-path-17)">
              <path id="Trazado_700292" data-name="Trazado 700292" d="M58.837,132.144h0a2.124,2.124,0,0,1-2.124-2.124V82.077a5.527,5.527,0,1,1,11,.781L60.939,130.32a2.123,2.123,0,0,1-2.1,1.824" transform="translate(-56.713 -76.551)" fill="#fff"/>
            </g>
          </g>
        </g>
        <g id="Grupo_999080" data-name="Grupo 999080" transform="translate(49.589 66.934)" opacity="0.6">
          <g id="Grupo_999079" data-name="Grupo 999079">
            <g id="Grupo_999078" data-name="Grupo 999078" clip-path="url(#clip-path-18)">
              <path id="Trazado_700293" data-name="Trazado 700293" d="M62.764,76.58c-.172-.016-.346-.029-.524-.029a5.527,5.527,0,0,0-5.527,5.526V130.02a2.108,2.108,0,0,0,.392,1.222,2.119,2.119,0,0,0,1.458-1.717l6.772-47.462a5.523,5.523,0,0,0-2.571-5.483" transform="translate(-56.713 -76.551)" fill="#fff"/>
            </g>
          </g>
        </g>
        <path id="Trazado_700294" data-name="Trazado 700294" d="M60.631,142.535h0a2.123,2.123,0,0,0,.7,2.921l40.835,25.121a5.526,5.526,0,1,0,5.1-9.776L63.285,141.7a2.123,2.123,0,0,0-2.655.835" transform="translate(-7.577 -17.779)" fill="#407bff"/>
        <g id="Grupo_999083" data-name="Grupo 999083" transform="translate(52.739 123.744)" opacity="0.3">
          <g id="Grupo_999082" data-name="Grupo 999082">
            <g id="Grupo_999081" data-name="Grupo 999081" clip-path="url(#clip-path-19)">
              <path id="Trazado_700295" data-name="Trazado 700295" d="M60.631,142.535h0a2.123,2.123,0,0,0,.7,2.921l40.835,25.121a5.526,5.526,0,1,0,5.1-9.776L63.285,141.7a2.123,2.123,0,0,0-2.655.835" transform="translate(-60.316 -141.523)" fill="#fff"/>
            </g>
          </g>
        </g>
        <g id="Grupo_999086" data-name="Grupo 999086" transform="translate(53.533 123.745)" opacity="0.6">
          <g id="Grupo_999085" data-name="Grupo 999085">
            <g id="Grupo_999084" data-name="Grupo 999084" clip-path="url(#clip-path-20)">
              <path id="Trazado_700296" data-name="Trazado 700296" d="M107.374,160.8,63.4,141.7a2.121,2.121,0,0,0-2.175.3,2.107,2.107,0,0,0,.971,1.449l40.834,25.122a5.525,5.525,0,0,0,7.588-1.792,5.524,5.524,0,0,0-3.245-5.973" transform="translate(-61.224 -141.524)" fill="#fff"/>
            </g>
          </g>
        </g>
        <path id="Trazado_700297" data-name="Trazado 700297" d="M49.954,142.535h0a2.123,2.123,0,0,1-.7,2.921L8.424,170.577a5.526,5.526,0,1,1-5.1-9.776L47.3,141.7a2.123,2.123,0,0,1,2.655.835" transform="translate(0 -17.779)" fill="#407bff"/>
        <g id="Grupo_999089" data-name="Grupo 999089" transform="translate(0 123.744)" opacity="0.3">
          <g id="Grupo_999088" data-name="Grupo 999088">
            <g id="Grupo_999087" data-name="Grupo 999087" clip-path="url(#clip-path-21)">
              <path id="Trazado_700298" data-name="Trazado 700298" d="M49.954,142.535h0a2.123,2.123,0,0,1-.7,2.921L8.424,170.577a5.526,5.526,0,1,1-5.1-9.776L47.3,141.7a2.123,2.123,0,0,1,2.655.835" transform="translate(0 -141.523)" fill="#fff"/>
            </g>
          </g>
        </g>
        <g id="Grupo_999092" data-name="Grupo 999092" transform="translate(0 123.747)" opacity="0.6">
          <g id="Grupo_999091" data-name="Grupo 999091">
            <g id="Grupo_999090" data-name="Grupo 999090" clip-path="url(#clip-path-22)">
              <path id="Trazado_700299" data-name="Trazado 700299" d="M47.3,141.7,3.326,160.8A5.53,5.53,0,0,0,.3,167.663a5.526,5.526,0,0,0,6.9.9l40.834-25.122a2.121,2.121,0,0,0,1.009-1.715A2.123,2.123,0,0,0,47.3,141.7" transform="translate(0 -141.526)" fill="#fff"/>
            </g>
          </g>
        </g>
        <g id="Grupo_999095" data-name="Grupo 999095" transform="translate(51.991 180.305)" opacity="0.5">
          <g id="Grupo_999094" data-name="Grupo 999094">
            <g id="Grupo_999093" data-name="Grupo 999093" clip-path="url(#clip-path-23)">
              <path id="Trazado_700300" data-name="Trazado 700300" d="M59.763,206.21l-.028,1.029c1.436.125,2.836.178,3.957.178,1.083,0,2.426-.051,3.81-.168l-.027-1.027c-1.131.1-2.387.155-3.783.155-1.455,0-2.76-.064-3.929-.167" transform="translate(-59.495 -206.21)"/>
              <path id="Trazado_700301" data-name="Trazado 700301" d="M67.707,216.68l-.169-6.263c-1.116.1-2.406.175-3.881.175a40.2,40.2,0,0,1-4.027-.194l-.17,6.277c1.4.115,2.824.162,4.2.162,1.326,0,2.7-.051,4.05-.157" transform="translate(-59.461 -206.736)"/>
            </g>
          </g>
        </g>
      </g>
    </g>
    <path id="Trazado_700302" data-name="Trazado 700302" d="M152.168,91.3H276.078l17.367,172.913-6.626,7.262H162.91L149.727,95.2Z" transform="translate(-18.809 -11.469)" fill="#12263f"/>
    <g id="Grupo_999171" data-name="Grupo 999171">
      <g id="Grupo_999170" data-name="Grupo 999170" clip-path="url(#clip-path)">
        <g id="Grupo_999100" data-name="Grupo 999100" transform="translate(133.359 79.826)" opacity="0.7">
          <g id="Grupo_999099" data-name="Grupo 999099">
            <g id="Grupo_999098" data-name="Grupo 999098" clip-path="url(#clip-path-25)">
              <path id="Trazado_700303" data-name="Trazado 700303" d="M169.886,264.208H293.8L276.428,91.3H152.518Z" transform="translate(-152.519 -91.295)" fill="#fff"/>
            </g>
          </g>
        </g>
        <g id="Grupo_999103" data-name="Grupo 999103" transform="translate(151.582 256.212)" opacity="0.5">
          <g id="Grupo_999102" data-name="Grupo 999102">
            <g id="Grupo_999101" data-name="Grupo 999101" clip-path="url(#clip-path-26)">
              <path id="Trazado_700304" data-name="Trazado 700304" d="M173.993,294.335H288.755a.656.656,0,0,0,0-1.312H173.993a.656.656,0,0,0,0,1.312" transform="translate(-173.36 -293.023)" fill="#fff"/>
            </g>
          </g>
        </g>
        <g id="Grupo_999106" data-name="Grupo 999106" transform="translate(138.831 168.155)" opacity="0.5">
          <g id="Grupo_999105" data-name="Grupo 999105">
            <g id="Grupo_999104" data-name="Grupo 999104" clip-path="url(#clip-path-27)">
              <path id="Trazado_700305" data-name="Trazado 700305" d="M158.78,192.943q3.339,37.915,6.678,75.83L166.4,279.5c.073.834,1.386.842,1.312,0q-3.339-37.915-6.678-75.83l-.944-10.724c-.073-.834-1.386-.842-1.312,0" transform="translate(-158.777 -192.314)" fill="#fff"/>
            </g>
          </g>
        </g>
        <path id="Trazado_700306" data-name="Trazado 700306" d="M251.654,182.569h34.317a2.259,2.259,0,0,0,2.287-2.506l-.123-1.406a2.789,2.789,0,0,0-2.725-2.506H251.093a2.259,2.259,0,0,0-2.286,2.506l.122,1.406a2.79,2.79,0,0,0,2.725,2.506" transform="translate(-31.255 -22.129)" fill="#407bff"/>
        <path id="Trazado_700307" data-name="Trazado 700307" d="M247.644,197.722h38.982a2.26,2.26,0,0,0,2.287-2.506l-.123-1.406a2.79,2.79,0,0,0-2.725-2.506H247.083a2.259,2.259,0,0,0-2.286,2.506l.122,1.406a2.79,2.79,0,0,0,2.725,2.506" transform="translate(-30.751 -24.033)" fill="#407bff"/>
        <path id="Trazado_700308" data-name="Trazado 700308" d="M252.812,212.875h35.624a2.26,2.26,0,0,0,2.286-2.506l-.123-1.406a2.789,2.789,0,0,0-2.725-2.506H252.251a2.259,2.259,0,0,0-2.286,2.506l.122,1.406a2.79,2.79,0,0,0,2.725,2.506" transform="translate(-31.401 -25.936)" fill="#407bff"/>
        <g id="Grupo_999109" data-name="Grupo 999109" transform="translate(214.036 154.023)" opacity="0.4">
          <g id="Grupo_999108" data-name="Grupo 999108">
            <g id="Grupo_999107" data-name="Grupo 999107" clip-path="url(#clip-path-28)">
              <path id="Trazado_700309" data-name="Trazado 700309" d="M251.654,182.569h34.317a2.259,2.259,0,0,0,2.287-2.506l-.123-1.406a2.789,2.789,0,0,0-2.725-2.506H251.093a2.259,2.259,0,0,0-2.286,2.506l.122,1.406a2.79,2.79,0,0,0,2.725,2.506" transform="translate(-245.291 -176.152)" fill="#fff"/>
              <path id="Trazado_700310" data-name="Trazado 700310" d="M247.644,197.722h38.982a2.26,2.26,0,0,0,2.287-2.506l-.123-1.406a2.79,2.79,0,0,0-2.725-2.506H247.083a2.259,2.259,0,0,0-2.286,2.506l.122,1.406a2.79,2.79,0,0,0,2.725,2.506" transform="translate(-244.787 -178.055)" fill="#fff"/>
              <path id="Trazado_700311" data-name="Trazado 700311" d="M252.812,212.875h35.624a2.26,2.26,0,0,0,2.286-2.506l-.123-1.406a2.789,2.789,0,0,0-2.725-2.506H252.251a2.259,2.259,0,0,0-2.286,2.506l.122,1.406a2.79,2.79,0,0,0,2.725,2.506" transform="translate(-245.436 -179.959)" fill="#fff"/>
            </g>
          </g>
        </g>
        <path id="Trazado_700312" data-name="Trazado 700312" d="M221.381,121.958h8.155a2.259,2.259,0,0,0,2.286-2.506l-.122-1.406a2.79,2.79,0,0,0-2.725-2.506H220.82a2.259,2.259,0,0,0-2.286,2.506l.122,1.406a2.79,2.79,0,0,0,2.725,2.506" transform="translate(-27.452 -14.515)" fill="#263238"/>
        <path id="Trazado_700313" data-name="Trazado 700313" d="M226.684,182.569h8.155a2.259,2.259,0,0,0,2.286-2.506L237,178.657a2.79,2.79,0,0,0-2.725-2.506h-8.155a2.259,2.259,0,0,0-2.286,2.506l.122,1.406a2.79,2.79,0,0,0,2.725,2.506" transform="translate(-28.118 -22.129)" fill="#263238"/>
        <path id="Trazado_700314" data-name="Trazado 700314" d="M228.01,197.722h8.154a2.26,2.26,0,0,0,2.287-2.506l-.122-1.406A2.791,2.791,0,0,0,235.6,191.3h-8.154a2.26,2.26,0,0,0-2.287,2.506l.122,1.406a2.792,2.792,0,0,0,2.726,2.506" transform="translate(-28.285 -24.033)" fill="#263238"/>
        <path id="Trazado_700315" data-name="Trazado 700315" d="M229.335,212.875h8.155a2.259,2.259,0,0,0,2.286-2.506l-.122-1.406a2.79,2.79,0,0,0-2.725-2.506h-8.155a2.259,2.259,0,0,0-2.286,2.506l.122,1.406a2.79,2.79,0,0,0,2.725,2.506" transform="translate(-28.451 -25.936)" fill="#263238"/>
        <g id="Grupo_999112" data-name="Grupo 999112" transform="translate(191.072 101.025)" opacity="0.4">
          <g id="Grupo_999111" data-name="Grupo 999111">
            <g id="Grupo_999110" data-name="Grupo 999110" clip-path="url(#clip-path-29)">
              <path id="Trazado_700316" data-name="Trazado 700316" d="M221.381,121.958h8.155a2.259,2.259,0,0,0,2.286-2.506l-.122-1.406a2.79,2.79,0,0,0-2.725-2.506H220.82a2.259,2.259,0,0,0-2.286,2.506l.122,1.406a2.79,2.79,0,0,0,2.725,2.506" transform="translate(-218.524 -115.54)" fill="#fff"/>
              <path id="Trazado_700317" data-name="Trazado 700317" d="M226.684,182.569h8.155a2.259,2.259,0,0,0,2.286-2.506L237,178.657a2.79,2.79,0,0,0-2.725-2.506h-8.155a2.259,2.259,0,0,0-2.286,2.506l.122,1.406a2.79,2.79,0,0,0,2.725,2.506" transform="translate(-219.19 -123.154)" fill="#fff"/>
              <path id="Trazado_700318" data-name="Trazado 700318" d="M228.01,197.722h8.154a2.26,2.26,0,0,0,2.287-2.506l-.122-1.406A2.791,2.791,0,0,0,235.6,191.3h-8.154a2.26,2.26,0,0,0-2.287,2.506l.122,1.406a2.792,2.792,0,0,0,2.726,2.506" transform="translate(-219.357 -125.058)" fill="#fff"/>
              <path id="Trazado_700319" data-name="Trazado 700319" d="M229.335,212.875h8.155a2.259,2.259,0,0,0,2.286-2.506l-.122-1.406a2.79,2.79,0,0,0-2.725-2.506h-8.155a2.259,2.259,0,0,0-2.286,2.506l.122,1.406a2.79,2.79,0,0,0,2.725,2.506" transform="translate(-219.523 -126.961)" fill="#fff"/>
            </g>
          </g>
        </g>
        <path id="Trazado_700320" data-name="Trazado 700320" d="M181.54,232.213h38.5a2.259,2.259,0,0,0,2.286-2.506l-.122-1.406a2.79,2.79,0,0,0-2.725-2.506h-38.5a2.259,2.259,0,0,0-2.286,2.506l.122,1.406a2.79,2.79,0,0,0,2.725,2.506" transform="translate(-22.447 -28.366)" fill="#263238"/>
        <path id="Trazado_700321" data-name="Trazado 700321" d="M180.305,247.366H221.05a2.259,2.259,0,0,0,2.286-2.506l-.122-1.406a2.79,2.79,0,0,0-2.725-2.506H179.744a2.259,2.259,0,0,0-2.286,2.506l.122,1.406a2.79,2.79,0,0,0,2.725,2.506" transform="translate(-22.292 -30.269)" fill="#263238"/>
        <path id="Trazado_700322" data-name="Trazado 700322" d="M184.191,262.519h38.5a2.259,2.259,0,0,0,2.286-2.506l-.122-1.406a2.79,2.79,0,0,0-2.725-2.506h-38.5a2.259,2.259,0,0,0-2.286,2.506l.122,1.406a2.79,2.79,0,0,0,2.725,2.506" transform="translate(-22.78 -32.173)" fill="#263238"/>
        <path id="Trazado_700323" data-name="Trazado 700323" d="M181.729,277.672h41.817a2.259,2.259,0,0,0,2.286-2.506l-.122-1.406a2.79,2.79,0,0,0-2.725-2.506H181.168a2.259,2.259,0,0,0-2.286,2.506l.122,1.406a2.79,2.79,0,0,0,2.725,2.506" transform="translate(-22.471 -34.076)" fill="#263238"/>
        <g id="Grupo_999115" data-name="Grupo 999115" transform="translate(155.155 197.43)" opacity="0.4">
          <g id="Grupo_999114" data-name="Grupo 999114">
            <g id="Grupo_999113" data-name="Grupo 999113" clip-path="url(#clip-path-30)">
              <path id="Trazado_700324" data-name="Trazado 700324" d="M181.54,232.213h38.5a2.259,2.259,0,0,0,2.286-2.506l-.122-1.406a2.79,2.79,0,0,0-2.725-2.506h-38.5a2.259,2.259,0,0,0-2.286,2.506l.122,1.406a2.79,2.79,0,0,0,2.725,2.506" transform="translate(-177.602 -225.796)" fill="#fff"/>
              <path id="Trazado_700325" data-name="Trazado 700325" d="M180.305,247.366H221.05a2.259,2.259,0,0,0,2.286-2.506l-.122-1.406a2.79,2.79,0,0,0-2.725-2.506H179.744a2.259,2.259,0,0,0-2.286,2.506l.122,1.406a2.79,2.79,0,0,0,2.725,2.506" transform="translate(-177.447 -227.699)" fill="#fff"/>
              <path id="Trazado_700326" data-name="Trazado 700326" d="M184.191,262.519h38.5a2.259,2.259,0,0,0,2.286-2.506l-.122-1.406a2.79,2.79,0,0,0-2.725-2.506h-38.5a2.259,2.259,0,0,0-2.286,2.506l.122,1.406a2.79,2.79,0,0,0,2.725,2.506" transform="translate(-177.935 -229.603)" fill="#fff"/>
              <path id="Trazado_700327" data-name="Trazado 700327" d="M181.729,277.672h41.817a2.259,2.259,0,0,0,2.286-2.506l-.122-1.406a2.79,2.79,0,0,0-2.725-2.506H181.168a2.259,2.259,0,0,0-2.286,2.506l.122,1.406a2.79,2.79,0,0,0,2.725,2.506" transform="translate(-177.626 -231.507)" fill="#fff"/>
            </g>
          </g>
        </g>
        <path id="Trazado_700328" data-name="Trazado 700328" d="M213.859,90.606l1.236-.259L208.877,69.1a6.251,6.251,0,0,1,.766-5.481,5.668,5.668,0,0,1,4.737-2.261,9.093,9.093,0,0,1,8.648,7.876L225,90.48l1.284-.007-1.967-21.249a10.564,10.564,0,0,0-10.044-9.153,6.9,6.9,0,0,0-5.692,2.734,7.47,7.47,0,0,0-.936,6.552Z" transform="translate(-26.04 -7.546)"/>
        <path id="Trazado_700329" data-name="Trazado 700329" d="M204.138,96.156h35.534l-1.416-16.19a3.8,3.8,0,0,0-3.715-3.415h-28.7a3.079,3.079,0,0,0-3.117,3.415Z" transform="translate(-25.465 -9.617)" fill="#407bff"/>
        <g id="Grupo_999118" data-name="Grupo 999118" transform="translate(177.243 66.934)" opacity="0.2">
          <g id="Grupo_999117" data-name="Grupo 999117">
            <g id="Grupo_999116" data-name="Grupo 999116" clip-path="url(#clip-path-31)">
              <path id="Trazado_700330" data-name="Trazado 700330" d="M204.138,96.156h35.534l-1.416-16.19a3.8,3.8,0,0,0-3.715-3.415h-28.7a3.079,3.079,0,0,0-3.117,3.415Z" transform="translate(-202.708 -76.551)" fill="#12263f"/>
            </g>
          </g>
        </g>
        <path id="Trazado_700331" data-name="Trazado 700331" d="M218.321,90.541l1.268-.128L215.6,69.164a6.662,6.662,0,0,1,1.321-5.472,6.486,6.486,0,0,1,5.062-2.336,7.791,7.791,0,0,1,5.47,2.336,7.712,7.712,0,0,1,2.279,5.472l-.266,21.249,1.291.128.265-21.249a9.308,9.308,0,0,0-9.151-9.221,7.654,7.654,0,0,0-5.976,2.76,7.867,7.867,0,0,0-1.562,6.462Z" transform="translate(-26.908 -7.546)"/>
        <g id="Grupo_999121" data-name="Grupo 999121" transform="translate(187.283 52.525)" opacity="0.2">
          <g id="Grupo_999120" data-name="Grupo 999120">
            <g id="Grupo_999119" data-name="Grupo 999119" clip-path="url(#clip-path-32)">
              <path id="Trazado_700332" data-name="Trazado 700332" d="M218.321,90.541l1.268-.128L215.6,69.164a6.662,6.662,0,0,1,1.321-5.472,6.486,6.486,0,0,1,5.062-2.336,7.791,7.791,0,0,1,5.47,2.336,7.712,7.712,0,0,1,2.279,5.472l-.266,21.249,1.291.128.265-21.249a9.308,9.308,0,0,0-9.151-9.221,7.654,7.654,0,0,0-5.976,2.76,7.867,7.867,0,0,0-1.562,6.462Z" transform="translate(-214.191 -60.071)" fill="#fff"/>
            </g>
          </g>
        </g>
        <path id="Trazado_700333" data-name="Trazado 700333" d="M202.829,101.13h38.235a1.084,1.084,0,0,0,1.1-1.2l-.183-2.088a1.338,1.338,0,0,0-1.307-1.2H202.436a1.083,1.083,0,0,0-1.1,1.2l.183,2.088a1.338,1.338,0,0,0,1.307,1.2" transform="translate(-25.293 -12.14)" fill="#12263f"/>
        <g id="Grupo_999124" data-name="Grupo 999124" transform="translate(205.639 203.833)" opacity="0.8">
          <g id="Grupo_999123" data-name="Grupo 999123">
            <g id="Grupo_999122" data-name="Grupo 999122" clip-path="url(#clip-path-33)">
              <path id="Trazado_700334" data-name="Trazado 700334" d="M286.132,233.119H235.184l.878,10.038.077.874.8,9.163.076.874.8,9.164.077.874.878,10.037h60.956l-.878-10.037-.077-.874-.8-9.164-.078-.874-.8-9.163-.077-.874-.879-10.038Zm.853,20.076h-9.1l-.8-9.163h9.1Zm-10.01,0h-9.1l-.8-9.163h9.1Zm-10.008,0h-9.1l-.8-9.163h9.1Zm-10.009,0h-9.1l-.8-9.163h9.1Zm-9.029.874h9.1l.8,9.164h-9.1Zm10.01,0h9.1l.8,9.164h-9.1Zm10.008,0h9.1l.8,9.164h-9.106Zm10.008,0h9.106l.8,9.164h-9.1Zm7.349-20.076.8,9.163H277l-.8-9.163Zm-10.008,0,.8,9.163h-9.106l-.8-9.163Zm-10.009,0,.8,9.163h-9.1l-.8-9.163Zm-10.01,0,.8,9.163h-9.1l-.8-9.163Zm-19.142,0h9.133l.8,9.163h-9.135Zm.878,10.038h9.135l.8,9.163h-9.134Zm.878,10.038h9.135l.8,9.164h-9.135Zm1.681,19.2-.8-9.163H247.9l.8,9.163Zm10.038,0-.8-9.163h9.1l.8,9.163Zm10.009,0-.8-9.163h9.1l.8,9.163Zm10.009,0-.8-9.163h9.1l.8,9.163Zm10.008,0-.8-9.163h9.1l.8,9.163Zm19.143,0h-9.134l-.8-9.163h9.135Zm-.878-10.037h-9.134l-.8-9.164H297.1Zm-.879-10.039h-9.134l-.8-9.163h9.135ZM287.01,243.157l-.8-9.163h9.135l.8,9.163Z" transform="translate(-235.184 -233.119)" fill="#fff"/>
            </g>
          </g>
        </g>
        <path id="Trazado_700335" data-name="Trazado 700335" d="M253.084,277.781h-6.47l-.879-9.89h6.47Z" transform="translate(-30.87 -33.654)" fill="#407bff"/>
        <path id="Trazado_700336" data-name="Trazado 700336" d="M267.757,276.36h-6.47l-1.757-19.781H266Z" transform="translate(-32.604 -32.233)" fill="#263238"/>
        <path id="Trazado_700337" data-name="Trazado 700337" d="M282.644,277.341h-6.47l-1.15-12.949h6.469Z" transform="translate(-34.55 -33.214)" fill="#407bff"/>
        <path id="Trazado_700338" data-name="Trazado 700338" d="M297.259,275.274h-6.47l-2.428-27.338h6.469Z" transform="translate(-36.225 -31.147)" fill="#263238"/>
        <path id="Trazado_700339" data-name="Trazado 700339" d="M244.491,252.142h0a1.594,1.594,0,0,1,.484-2.274l14.6-8.225,13.257,4.317,13.294-8.845a1.758,1.758,0,0,1,2.363.53,1.616,1.616,0,0,1-.323,2.315l-14.566,9.689-13.393-4.361-13.386,7.541a1.781,1.781,0,0,1-2.335-.686" transform="translate(-30.679 -29.755)" fill="#407bff"/>
        <path id="Trazado_700340" data-name="Trazado 700340" d="M286.4,239.505s7.491-7.054-1.639-10.04c0,0-4.135,8,.426,10.04a9.946,9.946,0,0,0,.92-7.485s2.495,2.856.293,7.485" transform="translate(-35.557 -28.827)" fill="#407bff"/>
        <path id="Trazado_700341" data-name="Trazado 700341" d="M293.321,240.661s6.333-8.118,10.107.747c0,0-7.568,4.845-10,.466a9.844,9.844,0,0,1,7.344-1.584s-3.055-2.241-7.451.372" transform="translate(-36.848 -29.806)" fill="#407bff"/>
        <path id="Trazado_700342" data-name="Trazado 700342" d="M192.593,150.54A14.554,14.554,0,0,0,207.322,134.4a17.97,17.97,0,0,0-17.553-16.142,15.845,15.845,0,0,0-2.137.16,16.473,16.473,0,0,0-2.165-.16,14.555,14.555,0,0,0-14.73,16.142h9.989a9.4,9.4,0,0,1,7.409-10.231,11.692,11.692,0,0,1,9.2,10.231,9.428,9.428,0,0,1-9.54,10.455l.5,5.686Z" transform="translate(-21.441 -14.856)" fill="#407bff"/>
        <path id="Trazado_700343" data-name="Trazado 700343" d="M190.662,154.985l-.5-5.686a11.639,11.639,0,0,1-11.369-10.455h-9.989a17.97,17.97,0,0,0,17.554,16.141Z" transform="translate(-21.206 -17.442)" fill="#407bff"/>
        <path id="Trazado_700344" data-name="Trazado 700344" d="M192.593,150.54A14.554,14.554,0,0,0,207.322,134.4a17.97,17.97,0,0,0-17.553-16.142,15.845,15.845,0,0,0-2.137.16,16.473,16.473,0,0,0-2.165-.16,14.555,14.555,0,0,0-14.73,16.142h9.989a9.4,9.4,0,0,1,7.409-10.231,11.692,11.692,0,0,1,9.2,10.231,9.428,9.428,0,0,1-9.54,10.455l.5,5.686Z" transform="translate(-21.441 -14.856)" fill="#263238"/>
        <path id="Trazado_700345" data-name="Trazado 700345" d="M190.662,154.985l-.5-5.686a11.639,11.639,0,0,1-11.369-10.455h-9.989a17.97,17.97,0,0,0,17.554,16.141Z" transform="translate(-21.206 -17.442)" fill="#263238"/>
        <path id="Trazado_700346" data-name="Trazado 700346" d="M181.344,134.4a9.427,9.427,0,0,1,9.54-10.455A11.64,11.64,0,0,1,202.254,134.4a9.427,9.427,0,0,1-9.54,10.455l.5,5.686A14.554,14.554,0,0,0,207.94,134.4a17.97,17.97,0,0,0-17.553-16.141A14.554,14.554,0,0,0,175.658,134.4Z" transform="translate(-22.059 -14.856)" fill="#ad84ff"/>
        <path id="Trazado_700347" data-name="Trazado 700347" d="M173.727,138.843a17.97,17.97,0,0,0,17.553,16.141l-.5-5.686a11.64,11.64,0,0,1-11.369-10.455Z" transform="translate(-21.824 -17.442)" fill="#407bff"/>
        <g id="Grupo_999127" data-name="Grupo 999127" transform="translate(151.903 121.401)" opacity="0.5">
          <g id="Grupo_999126" data-name="Grupo 999126">
            <g id="Grupo_999125" data-name="Grupo 999125" clip-path="url(#clip-path-34)">
              <path id="Trazado_700348" data-name="Trazado 700348" d="M173.727,138.843a17.97,17.97,0,0,0,17.553,16.141l-.5-5.686a11.64,11.64,0,0,1-11.369-10.455Z" transform="translate(-173.727 -138.843)" fill="#fff"/>
            </g>
          </g>
        </g>
        <path id="Trazado_700349" data-name="Trazado 700349" d="M190.317,171.872c-.171-1.959-.233-2.661-.4-4.625h-4.3a14.711,14.711,0,0,0-11,4.727L178.984,176h4.3a9.362,9.362,0,0,1,5.08-2.857c.112,1.278.185,2.127.373,4.273a11.64,11.64,0,0,1,11.37,10.455H210.1a17.969,17.969,0,0,0-17.554-16.141Z" transform="translate(-21.936 -21.01)" fill="#407bff"/>
        <path id="Trazado_700350" data-name="Trazado 700350" d="M197.223,207.189a14.554,14.554,0,0,0,14.729-16.141h-9.988a9.4,9.4,0,0,1-7.124,10.156l-.136-1.56a11.638,11.638,0,0,1-11.369-10.455,9.609,9.609,0,0,1,2.415-7.393l-4.373-4.021h-4.3a14.836,14.836,0,0,0-3.729,11.414A17.97,17.97,0,0,0,190.9,205.33l1.841-.2.181,2.064Z" transform="translate(-21.769 -22.333)" fill="#407bff"/>
        <path id="Trazado_700351" data-name="Trazado 700351" d="M190.317,171.872c-.171-1.959-.233-2.661-.4-4.625h-4.3a14.711,14.711,0,0,0-11,4.727L178.984,176h4.3a9.362,9.362,0,0,1,5.08-2.857c.112,1.278.185,2.127.373,4.273a11.64,11.64,0,0,1,11.37,10.455H210.1a17.969,17.969,0,0,0-17.554-16.141Z" transform="translate(-21.936 -21.01)" fill="#263238"/>
        <path id="Trazado_700352" data-name="Trazado 700352" d="M197.223,207.189a14.554,14.554,0,0,0,14.729-16.141h-9.988a9.4,9.4,0,0,1-7.124,10.156l-.136-1.56a11.638,11.638,0,0,1-11.369-10.455,9.609,9.609,0,0,1,2.415-7.393l-4.373-4.021h-4.3a14.836,14.836,0,0,0-3.729,11.414A17.97,17.97,0,0,0,190.9,205.33l1.841-.2.181,2.064Z" transform="translate(-21.769 -22.333)" fill="#263238"/>
        <path id="Trazado_700353" data-name="Trazado 700353" d="M209.634,192.955a9.427,9.427,0,0,1-9.54,10.455l.5,5.686a14.554,14.554,0,0,0,14.729-16.141Z" transform="translate(-25.137 -24.24)" fill="#407bff"/>
        <g id="Grupo_999130" data-name="Grupo 999130" transform="translate(174.957 168.715)" opacity="0.3">
          <g id="Grupo_999129" data-name="Grupo 999129">
            <g id="Grupo_999128" data-name="Grupo 999128" clip-path="url(#clip-path-35)">
              <path id="Trazado_700354" data-name="Trazado 700354" d="M209.634,192.955a9.427,9.427,0,0,1-9.54,10.455l.5,5.686a14.554,14.554,0,0,0,14.729-16.141Z" transform="translate(-200.094 -192.955)" fill="#ad84ff"/>
            </g>
          </g>
        </g>
        <path id="Trazado_700355" data-name="Trazado 700355" d="M195.12,172.369a17.971,17.971,0,0,1,17.554,16.141h-5.687a11.64,11.64,0,0,0-11.37-10.455c-.247-2.831-.3-3.4-.5-5.686" transform="translate(-24.512 -21.654)" fill="#407bff"/>
        <path id="Trazado_700356" data-name="Trazado 700356" d="M186.368,181.8a9.61,9.61,0,0,0-2.416,7.393,11.64,11.64,0,0,0,11.37,10.455l.5,5.686a17.97,17.97,0,0,1-17.554-16.141A14.836,14.836,0,0,1,182,177.775Z" transform="translate(-22.387 -22.333)" fill="#407bff"/>
        <path id="Trazado_700357" data-name="Trazado 700357" d="M183.9,176l-4.373-4.021a14.715,14.715,0,0,1,11-4.727c.2,2.282.25,2.855.5,5.686A9.529,9.529,0,0,0,183.9,176" transform="translate(-22.554 -21.01)" fill="#407bff"/>
        <g id="Grupo_999133" data-name="Grupo 999133" transform="translate(156.977 146.237)" opacity="0.5">
          <g id="Grupo_999132" data-name="Grupo 999132">
            <g id="Grupo_999131" data-name="Grupo 999131" clip-path="url(#clip-path-36)">
              <path id="Trazado_700358" data-name="Trazado 700358" d="M183.9,176l-4.373-4.021a14.715,14.715,0,0,1,11-4.727c.2,2.282.25,2.855.5,5.686A9.529,9.529,0,0,0,183.9,176" transform="translate(-179.531 -167.247)" fill="#fff"/>
            </g>
          </g>
        </g>
        <path id="Trazado_700359" data-name="Trazado 700359" d="M287.575,333.916l-3.844,9.58-5.538-1.4,2.771-10.662Z" transform="translate(-34.948 -41.636)" fill="#ce7a63"/>
        <path id="Trazado_700360" data-name="Trazado 700360" d="M329.922,332.138l-1.618,10.2-5.711-.136.331-11.011Z" transform="translate(-40.526 -41.605)" fill="#ce7a63"/>
        <path id="Trazado_700361" data-name="Trazado 700361" d="M270.475,348.4c5.077.073,5.75,0,8.6-.05,2.444-.052,3.024.261,4.988.246,1.64-.011,1.6-1.582,1.122-3.4-.24-.91-.6-2.834-.93-4.3l-6.593-2.413c-1.076,1.982-4.316,6.565-7.183,6.908-2.737.327-2.032,2.982-.008,3.01" transform="translate(-33.753 -42.522)" fill="#407bff"/>
        <path id="Trazado_700362" data-name="Trazado 700362" d="M295.1,187.536s-3.623,53.308-5.88,73.64a364.3,364.3,0,0,1-11.129,58.706c1.014.929,5.328,1.38,7.773,1.165,0,0,17.632-30.18,15.97-56.621,17.04-46.567,11.906-75,11.906-75Z" transform="translate(-34.936 -23.559)" fill="#263238"/>
        <g id="Grupo_999136" data-name="Grupo 999136" transform="translate(269.683 175.773)" opacity="0.5">
          <g id="Grupo_999135" data-name="Grupo 999135">
            <g id="Grupo_999134" data-name="Grupo 999134" clip-path="url(#clip-path-37)">
              <path id="Trazado_700363" data-name="Trazado 700363" d="M309.148,250.556c2.119-15.085-.719-41.045-.719-41.045l1.428-8.484,3.115,2.559,5.4,5.287c-.714,9.617-3.08,23.357-9.226,41.682" transform="translate(-308.429 -201.027)"/>
            </g>
          </g>
        </g>
        <path id="Trazado_700364" data-name="Trazado 700364" d="M314.568,348.1c5.077-.107,5.746-.2,8.6-.354,2.44-.139,3.031.154,4.994.069,1.639-.069,1.545-1.638,1-3.434-.272-.9-.7-2.81-1.082-4.269l-7.449-.384c-1.006,2.02-3.307,4.918-6.16,5.363-2.723.424-1.925,3.051.1,3.009" transform="translate(-39.286 -42.679)" fill="#407bff"/>
        <path id="Trazado_700365" data-name="Trazado 700365" d="M305.337,190.485s7.94,49.663,11.474,69.813c3.713,21.162,3.21,47.446,2.684,61.345,1.2.666,5.5.1,7.83-.686,0,0,8.65-37.826,3.979-58.866,5.666-49.262-5.908-68.86-5.908-68.86Z" transform="translate(-38.358 -23.93)" fill="#263238"/>
        <path id="Trazado_700366" data-name="Trazado 700366" d="M299.634,147.659c-1.456,4.838-6.7,14.429-15.542,16.63,0,0,1.141,4.582-2.726,4.154,0,0,8.989,3.012,15.117-2.563,9.325-8.481,11.384-20.049,7.242-21.741-2.693-1.1-3.665,2.1-4.091,3.52" transform="translate(-35.347 -18.079)" fill="#407bff"/>
        <g id="Grupo_999139" data-name="Grupo 999139" transform="translate(246.019 125.834)" opacity="0.5">
          <g id="Grupo_999138" data-name="Grupo 999138">
            <g id="Grupo_999137" data-name="Grupo 999137" clip-path="url(#clip-path-38)">
              <path id="Trazado_700367" data-name="Trazado 700367" d="M299.634,147.659c-1.456,4.838-6.8,14.429-15.542,16.63,0,0,1.141,4.582-2.726,4.154,0,0,8.989,3.012,15.117-2.563,9.325-8.481,11.384-20.049,7.242-21.741-2.693-1.1-3.665,2.1-4.091,3.52" transform="translate(-281.366 -143.913)"/>
            </g>
          </g>
        </g>
        <path id="Trazado_700368" data-name="Trazado 700368" d="M297.111,153.47c-.642,2.625.253,7.46.312,13.967-.056,5.495.585,9.206-.758,19.378l28.791,1.087c-.176-7.825.543-16.519,6.428-33.279a7.027,7.027,0,0,0-5.158-9.089c-1.1-.26-2.271-.511-3.473-.73a92.181,92.181,0,0,0-12.686-1.709c-1.385-.062-2.829.049-4.2-.081-2.121-.2-7.989,5.267-9.258,10.457" transform="translate(-37.269 -17.965)" fill="#263238"/>
        <path id="Trazado_700369" data-name="Trazado 700369" d="M313.042,111.647s-5,.117-2.14,8.743l3.234-5.65Z" transform="translate(-38.946 -14.026)" fill="#263238"/>
        <path id="Trazado_700370" data-name="Trazado 700370" d="M324.3,130.186c-1.285,3.814-2.983,10.89-.5,13.886,0,0-3.783-1.077-12.117,2.759-2.178-3.623-.385-4.444-.385-4.444,4.618-.439,4.913-3.7,4.518-6.849Z" transform="translate(-39.019 -16.355)" fill="#ce7a63"/>
        <g id="Grupo_999142" data-name="Grupo 999142" transform="translate(276.796 116.016)" opacity="0.2">
          <g id="Grupo_999141" data-name="Grupo 999141">
            <g id="Grupo_999140" data-name="Grupo 999140" clip-path="url(#clip-path-39)">
              <path id="Trazado_700371" data-name="Trazado 700371" d="M321.586,132.684l-5.022,3.164a12.427,12.427,0,0,1,.112,2.215c1.744-.01,4.331-1.527,4.734-3.25a5.778,5.778,0,0,0,.176-2.129" transform="translate(-316.564 -132.684)"/>
            </g>
          </g>
        </g>
        <path id="Trazado_700372" data-name="Trazado 700372" d="M328.3,118.233c-.88,6.52-1.116,9.291-4.641,12.579-5.3,4.945-13.046,2.872-14.113-3.674-.96-5.892.642-15.566,7.186-18.041a8.428,8.428,0,0,1,11.568,9.136" transform="translate(-38.855 -13.627)" fill="#ce7a63"/>
        <path id="Trazado_700373" data-name="Trazado 700373" d="M319.221,122.641c-.047.52-.355.936-.686.928s-.562-.435-.515-.954.355-.936.686-.929.562.435.515.955" transform="translate(-39.951 -15.287)" fill="#263238"/>
        <path id="Trazado_700374" data-name="Trazado 700374" d="M311.841,122.251c-.047.519-.355.936-.686.928s-.562-.435-.515-.954.355-.936.686-.929.562.435.515.955" transform="translate(-39.023 -15.238)" fill="#263238"/>
        <path id="Trazado_700375" data-name="Trazado 700375" d="M311.42,121.277l-1.186-.386s.536.989,1.186.386" transform="translate(-38.973 -15.187)" fill="#263238"/>
        <path id="Trazado_700376" data-name="Trazado 700376" d="M313.847,123.744a15.306,15.306,0,0,1-2.112,3.278,2.077,2.077,0,0,0,1.777.387Z" transform="translate(-39.162 -15.545)" fill="#ba4d3c"/>
        <path id="Trazado_700377" data-name="Trazado 700377" d="M320.455,118.877a.277.277,0,0,1-.217-.08,2.233,2.233,0,0,0-2.013-.657.279.279,0,0,1-.347-.221.33.33,0,0,1,.242-.371,2.786,2.786,0,0,1,2.554.8.311.311,0,0,1-.013.432.319.319,0,0,1-.206.1" transform="translate(-39.933 -14.76)" fill="#263238"/>
        <path id="Trazado_700378" data-name="Trazado 700378" d="M309.295,118.132a.28.28,0,0,1-.215-.042.3.3,0,0,1-.061-.422,3.191,3.191,0,0,1,2.426-1.453.278.278,0,0,1,.281.3.331.331,0,0,1-.316.309A2.548,2.548,0,0,0,309.5,118a.328.328,0,0,1-.2.136" transform="translate(-38.813 -14.599)" fill="#263238"/>
        <path id="Trazado_700379" data-name="Trazado 700379" d="M318.8,121.667l-1.186-.386s.536.989,1.186.386" transform="translate(-39.9 -15.236)" fill="#263238"/>
        <path id="Trazado_700380" data-name="Trazado 700380" d="M312.878,130.042a29.6,29.6,0,0,1,5.7-.313,3.571,3.571,0,0,1-3.7,2.3,1.856,1.856,0,0,1-2.006-1.984" transform="translate(-39.305 -16.297)" fill="#263238"/>
        <path id="Trazado_700381" data-name="Trazado 700381" d="M316.042,131.2a4.015,4.015,0,0,0-2.377.608,2.134,2.134,0,0,0,1.316.4,3.963,3.963,0,0,0,2.372-.608,2.122,2.122,0,0,0-1.312-.4" transform="translate(-39.404 -16.483)" fill="#ff5652"/>
        <path id="Trazado_700382" data-name="Trazado 700382" d="M313.1,130.007c.1.275.2.552.616.644a22.036,22.036,0,0,0,3.728-.3,1.264,1.264,0,0,0,.986-.626,33.929,33.929,0,0,0-5.331.278" transform="translate(-39.333 -16.297)" fill="#fff"/>
        <path id="Trazado_700383" data-name="Trazado 700383" d="M326.984,122.311s-4.381-1.488-6.32-9.975c0,0-1.16,2.558,1.125,7.256,0,0-5.309-1.811-4.93-7.175,0,0-4.181,2.618-1.178,6.483,0,0-6.844-3.91-2.437-9.031,0,0-.208-9.944,9.461-3.915,0,0,23.661,7.485,3.606,21.448Z" transform="translate(-39.166 -13.067)" fill="#263238"/>
        <path id="Trazado_700384" data-name="Trazado 700384" d="M332.276,125.262a5.276,5.276,0,0,1-3.288,2.338c-1.752.36-2.413-1.383-1.747-3.094.6-1.54,2.233-3.583,3.9-3.17,1.646.407,2.079,2.428,1.13,3.925" transform="translate(-41.078 -15.236)" fill="#ce7a63"/>
        <path id="Trazado_700385" data-name="Trazado 700385" d="M316.428,107.625s-8.732.831-6.984,7.033c0,0,.985-3.518,6.254-3.192Z" transform="translate(-38.845 -13.52)" fill="#263238"/>
        <path id="Trazado_700386" data-name="Trazado 700386" d="M316.728,107.186a3.606,3.606,0,0,1-4.315-3.055s-3.087,6.052,2.733,4.728Z" transform="translate(-39.144 -13.081)" fill="#263238"/>
        <path id="Trazado_700387" data-name="Trazado 700387" d="M324.258,145.409s-1.816-1.226-1.854-4.671a.888.888,0,0,0-1.047-.881,12.11,12.11,0,0,1-5.647-.29.882.882,0,0,0-1.121.676,3.2,3.2,0,0,1-3.16,2.921l-3.47,1.111,1.607,4.777,4.462.507,8.828-1.06,2.114-2.5Z" transform="translate(-38.688 -17.528)" fill="#263238"/>
        <path id="Trazado_700388" data-name="Trazado 700388" d="M324.227,143.822a1.911,1.911,0,0,0-1.665.379c-2.036,1.655-7.382,7.208-9.24,20.991-2.314,17.17,5.613,36.488,5.613,36.488l14.7-3.612s-6.134-8.929-5.3-18.037,8.324-26.921,6.48-30.672c-1.507-3.064-8.192-4.949-10.594-5.537" transform="translate(-39.308 -18.061)" fill="#e8e8e8"/>
        <g id="Grupo_999148" data-name="Grupo 999148" transform="translate(274.409 127.016)" opacity="0.2">
          <g id="Grupo_999147" data-name="Grupo 999147">
            <g id="Grupo_999146" data-name="Grupo 999146" clip-path="url(#clip-path-40)">
              <path id="Trazado_700390" data-name="Trazado 700390" d="M324.555,145.265s-.7,6.351-1.909,8.021c-.46.636-2.84.881-2.673,1.648.2.922,3.376-.407,3.75.46,1.509,3.494-9.888,12.288-9.888,12.288s9.218-8.245,7.856-11.261c-.512-1.132-4.66.393-4.9-.826-.275-1.4,3.928-1.912,4.843-3,1.266-1.511,2.92-7.326,2.92-7.326" transform="translate(-313.835 -145.265)"/>
            </g>
          </g>
        </g>
        <path id="Trazado_700391" data-name="Trazado 700391" d="M310.565,142.731c.3.06.321.115.064.28-1.961,1.265-6.4,6.417-8.042,27.3-2.134,27.148-5.892,29.741-5.892,29.741l-3.757-1.234s1.483-4.889,2.321-16.19c.324-4.378-.15-12.323-.11-19.783.06-11.413,5.863-22.042,15.417-20.115" transform="translate(-36.8 -17.902)" fill="#e8e8e8"/>
        <g id="Grupo_999154" data-name="Grupo 999154" transform="translate(260.739 126.316)" opacity="0.2">
          <g id="Grupo_999153" data-name="Grupo 999153">
            <g id="Grupo_999152" data-name="Grupo 999152" clip-path="url(#clip-path-41)">
              <path id="Trazado_700393" data-name="Trazado 700393" d="M308.16,144.465s-5.936,4.9-5.9,7.229c.013.8,2.363,1.65,2.091,2.4-.363,1-3.611-.209-4.213.672-1.494,2.189,2.272,11.23,2.272,11.23s-5.5-9.63-3.932-12.179c.456-.742,3.163.347,3.45-.475.191-.547-1.619-1.1-1.6-1.678.087-2.657,7.829-7.2,7.829-7.2" transform="translate(-298.201 -144.464)"/>
            </g>
          </g>
        </g>
        <path id="Trazado_700394" data-name="Trazado 700394" d="M304.893,177.322,272.7,151.93a26.294,26.294,0,1,0-2.12,2.522l30.534,27.368a2.94,2.94,0,1,0,3.783-4.5M236.46,154.248A23.451,23.451,0,1,1,269.5,151.4a23.451,23.451,0,0,1-33.042,2.853" transform="translate(-28.298 -13.819)" fill="#263238"/>
        <g id="Grupo_999157" data-name="Grupo 999157" transform="translate(196.959 96.184)" opacity="0.5">
          <g id="Grupo_999156" data-name="Grupo 999156">
            <g id="Grupo_999155" data-name="Grupo 999155" clip-path="url(#clip-path-42)">
              <path id="Trazado_700395" data-name="Trazado 700395" d="M304.893,177.322,272.7,151.93a26.294,26.294,0,1,0-2.12,2.522l30.534,27.368a2.94,2.94,0,1,0,3.783-4.5M236.46,154.248A23.451,23.451,0,1,1,269.5,151.4a23.451,23.451,0,0,1-33.042,2.853" transform="translate(-225.257 -110.003)" fill="#fff"/>
            </g>
          </g>
        </g>
        <path id="Trazado_700396" data-name="Trazado 700396" d="M312.126,178.451a41.034,41.034,0,0,0,4.082,2.231,35.949,35.949,0,0,0,4.393,1.736,20.292,20.292,0,0,0,5.043.973,10.79,10.79,0,0,0,3.139-.291,7.017,7.017,0,0,0,3.6-2.182,2.78,2.78,0,0,0,.335-.485l.109-.2a26.278,26.278,0,0,0,2.075-5.01,29.254,29.254,0,0,0,1.07-5.238,32.467,32.467,0,0,0,.174-5.275c-.045-.877-.123-1.751-.233-2.63-.055-.439-.116-.88-.195-1.325l-.132-.675-.174-.767a3.929,3.929,0,0,0-7.7,1.533l.058.331.067.386.073.485.141,1.007c.083.68.143,1.371.177,2.064a35.318,35.318,0,0,1-.013,4.139,25.047,25.047,0,0,1-1.58,7.339,4.32,4.32,0,0,1-1.035.209,16.885,16.885,0,0,1-3.675-.154c-1.325-.168-2.689-.434-4.061-.735-1.37-.282-2.779-.66-4.111-1l-.085-.022a1.966,1.966,0,0,0-1.542,3.564" transform="translate(-39.096 -19.629)" fill="#ce7a63"/>
        <path id="Trazado_700397" data-name="Trazado 700397" d="M306.227,174.589l1.779-.443a2.3,2.3,0,0,1,1.979.465l2.678,2.14c1.07.855,2.273,3.268,1.687,4.25-1.554,2.6-6.883-.221-6.883-.221l-1.166-.208a2,2,0,0,1-1.7-2.076l.185-2.273a1.855,1.855,0,0,1,1.438-1.634" transform="translate(-38.265 -21.869)" fill="#ce7a63"/>
        <path id="Trazado_700398" data-name="Trazado 700398" d="M330.572,147.586a2.882,2.882,0,0,1,3.119.365c2.16,1.707,5.573,6.556,3.952,19.833-2.3,18.852-11.8,16.207-22.545,11.112l.662-4.951s7.352,2.078,11.189,1.287a25.536,25.536,0,0,0,1.6-9.918c-.272-4.832-2.871-15.113,2.018-17.73" transform="translate(-39.584 -18.502)" fill="#407bff"/>
        <g id="Grupo_999160" data-name="Grupo 999160" transform="translate(275.514 128.78)" opacity="0.5">
          <g id="Grupo_999159" data-name="Grupo 999159">
            <g id="Grupo_999158" data-name="Grupo 999158" clip-path="url(#clip-path-43)">
              <path id="Trazado_700399" data-name="Trazado 700399" d="M330.572,147.586a2.882,2.882,0,0,1,3.119.365c2.16,1.707,5.573,6.556,3.952,19.833-2.3,18.852-11.8,16.207-22.545,11.112l.662-4.951s7.352,2.078,11.189,1.287a25.536,25.536,0,0,0,1.6-9.918c-.272-4.832-2.871-15.113,2.018-17.73" transform="translate(-315.098 -147.282)"/>
            </g>
          </g>
        </g>
        <path id="Trazado_700400" data-name="Trazado 700400" d="M275.3,165.8l.5,1.868a2.49,2.49,0,0,0,1.375,1.6l3.153,1.423a1.874,1.874,0,0,0,.553.14,2.669,2.669,0,0,0,2.5-4.038,19.153,19.153,0,0,0-2.185-2.911l-.755-.978a1.926,1.926,0,0,0-2.613-.546l-1.848,1.295a1.96,1.96,0,0,0-.685,2.141" transform="translate(-34.575 -20.359)" fill="#ce7a63"/>
        <path id="Trazado_700401" data-name="Trazado 700401" d="M253.953,126.109l-4.211,7.235-6.479-3.887,5.4-9.394h10.8Z" transform="translate(-30.56 -15.083)" fill="#407bff"/>
        <path id="Trazado_700402" data-name="Trazado 700402" d="M265.629,143.3l-4.211-7.343L268,132.288l5.507,9.4c-1.728,3.024-3.779,6.479-5.4,9.4Z" transform="translate(-32.841 -16.619)" fill="#407bff"/>
        <path id="Trazado_700403" data-name="Trazado 700403" d="M244.214,144.992h8.315v7.559H241.622c-1.728-2.915-3.779-6.479-5.4-9.4Z" transform="translate(-29.676 -17.984)" fill="#407bff"/>
        <path id="Trazado_700404" data-name="Trazado 700404" d="M261,120.061l3.24,5.508,1.624-.92a.507.507,0,0,1,.69.694l-3.393,5.9a.71.71,0,0,1-.65.355l-6.24-.317a.507.507,0,0,1-.216-.952c.468-.254.925-.508,1.382-.762-.432-.864-1.187-2.16-1.944-3.456Z" transform="translate(-32.096 -15.083)" fill="#407bff"/>
        <path id="Trazado_700405" data-name="Trazado 700405" d="M267.509,152.358h-6.371l-.057,1.984a.507.507,0,0,1-.947.239l-3.423-5.949a.71.71,0,0,1,.021-.741l3.375-5.182a.507.507,0,0,1,.932.287c-.009.5-.009,1-.009,1.479.971.108,2.483.108,4,.108Z" transform="translate(-32.238 -17.899)" fill="#407bff"/>
        <path id="Trazado_700406" data-name="Trazado 700406" d="M236.223,142.085l3.131-5.508-1.619-1a.508.508,0,0,1,.268-.939h6.859a.709.709,0,0,1,.631.385l2.871,5.582a.508.508,0,0,1-.727.659c-.456-.294-.914-.6-1.37-.9-.54.864-1.3,2.16-2.052,3.564Z" transform="translate(-29.676 -16.913)" fill="#407bff"/>
        <g id="Grupo_999163" data-name="Grupo 999163" transform="translate(223.393 104.978)" opacity="0.3">
          <g id="Grupo_999162" data-name="Grupo 999162">
            <g id="Grupo_999161" data-name="Grupo 999161" clip-path="url(#clip-path-44)">
              <path id="Trazado_700407" data-name="Trazado 700407" d="M261,120.061l3.24,5.508,1.624-.92a.507.507,0,0,1,.69.694l-3.393,5.9a.71.71,0,0,1-.65.355l-6.24-.317a.507.507,0,0,1-.216-.952c.468-.254.925-.508,1.382-.762-.432-.864-1.187-2.16-1.944-3.456Z" transform="translate(-255.489 -120.061)"/>
            </g>
          </g>
        </g>
        <g id="Grupo_999166" data-name="Grupo 999166" transform="translate(224.379 124.579)" opacity="0.3">
          <g id="Grupo_999165" data-name="Grupo 999165">
            <g id="Grupo_999164" data-name="Grupo 999164" clip-path="url(#clip-path-45)">
              <path id="Trazado_700408" data-name="Trazado 700408" d="M267.509,152.358h-6.371l-.057,1.984a.507.507,0,0,1-.947.239l-3.423-5.949a.71.71,0,0,1,.021-.741l3.375-5.182a.507.507,0,0,1,.932.287c-.009.5-.009,1-.009,1.479.971.108,2.483.108,4,.108Z" transform="translate(-256.617 -142.478)"/>
            </g>
          </g>
        </g>
        <g id="Grupo_999169" data-name="Grupo 999169" transform="translate(206.547 117.721)" opacity="0.3">
          <g id="Grupo_999168" data-name="Grupo 999168">
            <g id="Grupo_999167" data-name="Grupo 999167" clip-path="url(#clip-path-46)">
              <path id="Trazado_700409" data-name="Trazado 700409" d="M236.223,142.085l3.131-5.508-1.619-1a.508.508,0,0,1,.268-.939h6.859a.709.709,0,0,1,.631.385l2.871,5.582a.508.508,0,0,1-.727.659c-.456-.294-.914-.6-1.37-.9-.54.864-1.3,2.16-2.052,3.564Z" transform="translate(-236.223 -134.634)"/>
            </g>
          </g>
        </g>
      </g>
    </g>
  </g>
</svg>
