<svg xmlns="http://www.w3.org/2000/svg" xmlns:xlink="http://www.w3.org/1999/xlink" width="451.826" height="238.021" viewBox="0 0 451.826 238.021">
  <defs>
    <clipPath id="clip-path">
      <rect id="Rectángulo_345178" data-name="Rectángulo 345178" width="249.213" height="177.639" fill="none"/>
    </clipPath>
    <clipPath id="clip-path-3">
      <rect id="Rectángulo_345168" data-name="Rectángulo 345168" width="14.313" height="36.804" fill="none"/>
    </clipPath>
    <clipPath id="clip-path-4">
      <rect id="Rectángulo_345170" data-name="Rectángulo 345170" width="46.86" height="46.859" fill="#25ffff"/>
    </clipPath>
    <clipPath id="clip-path-5">
      <rect id="Rectángulo_345171" data-name="Rectángulo 345171" width="32.305" height="23.403" fill="none"/>
    </clipPath>
  </defs>
  <g id="Grupo_999362" data-name="Grupo 999362" transform="translate(-288 -488.877)">
    <rect id="BG" width="451.826" height="238.021" transform="translate(288 488.877)" fill="#e8e8e8" opacity="0.949"/>
    <g id="Grupo_999272" data-name="Grupo 999272" transform="translate(381 519.068)">
      <g id="Grupo_999271" data-name="Grupo 999271" clip-path="url(#clip-path)">
        <path id="Trazado_700760" data-name="Trazado 700760" d="M42.418,119.4H29.753v11.113l1.934-1.933H42.418Z" transform="translate(-9.857 -39.556)" fill="#78c2ff"/>
        <g id="Grupo_999270" data-name="Grupo 999270">
          <g id="Grupo_999269" data-name="Grupo 999269" clip-path="url(#clip-path)">
            <path id="Trazado_700761" data-name="Trazado 700761" d="M16.53,124.469a5.022,5.022,0,0,1,2.332,5.638c-.766,4.123-1.1,4.678-.248,6.289s1.868,8.482,1.1,9.785-9.545-5.724-10.762-11.619.771-8.517,1.474-9.493,3.372-1.988,6.107-.6" transform="translate(-2.837 -41.01)" fill="#0e2d3d"/>
            <path id="Trazado_700762" data-name="Trazado 700762" d="M21.761,147.062a4.313,4.313,0,0,1,2.462,1.624c.616.906.666,2.921.755,3.3s1.265,4.673,1.265,4.673l-3.285,2.2Z" transform="translate(-7.209 -48.72)" fill="#285173"/>
            <path id="Trazado_700763" data-name="Trazado 700763" d="M37.847,254.578s2.144,2.886,1.849,3.343-2.548.522-3.92,0-1.4-3.9-2.026-5.358c-.26-.609.3-2.4,1.078-2.534a3.3,3.3,0,0,1,1.633.252s-.811,2.047,1.386,4.3" transform="translate(-11.16 -82.822)" fill="#1d3b54"/>
            <path id="Trazado_700764" data-name="Trazado 700764" d="M36.8,250.237a13.657,13.657,0,0,1,.616,2.4c.136.974,1.527,3.04,1.462,3.3a2.522,2.522,0,0,1-2.548-.175c-.719-.674-1.181-2.634-1.339-3.806a9.432,9.432,0,0,0-.334-1.631s1.458-.81,2.144-.092" transform="translate(-11.48 -82.802)" fill="#eea886"/>
            <path id="Trazado_700765" data-name="Trazado 700765" d="M9.907,254.626s2.066,2.838,1.772,3.3-2.548.522-3.92,0-1.4-3.9-2.026-5.358c-.259-.609.3-2.4,1.079-2.534a3.511,3.511,0,0,1,1.7.28s-.8,2.068,1.4,4.317" transform="translate(-1.878 -82.823)" fill="#1d3b54"/>
            <path id="Trazado_700766" data-name="Trazado 700766" d="M8.99,250.256a19.3,19.3,0,0,0,.425,2.287c.261.948,1.666,3.1,1.6,3.365a2.521,2.521,0,0,1-2.548-.175,7.05,7.05,0,0,1-1.339-3.8,6.277,6.277,0,0,1,.163-1.951,1.6,1.6,0,0,1,1.7.28" transform="translate(-2.357 -82.77)" fill="#eea886"/>
            <path id="Trazado_700767" data-name="Trazado 700767" d="M17.766,177.113s1.84,8.557,2.262,10.711,1.606,12.589,1.733,14.363,1.919,8.46,1.835,9.094,2.657,13.363,2.657,13.363a1.65,1.65,0,0,1-1.924.068c-.508-.353-6.017-11.918-6.017-15.086,0-4.379-3.238-10.1-3.656-11.076-3.883-9.1-3.118-11.886-3.625-12.478s-.551.366-.847,1.675-.929,12.631-1.309,14.068-.085,6.295-.3,8.745S7.44,224.094,7.44,224.094a1.007,1.007,0,0,1-1.726.029c-.217-.236-1.74-12.346-1.782-15.261s-.087-6.935-.169-8.2c-.783-12.079-2.706-13.8.323-22.353,5.673-16.007,13.679-1.2,13.679-1.2" transform="translate(-0.808 -56.609)" fill="#eea886"/>
            <path id="Trazado_700768" data-name="Trazado 700768" d="M5.128,176.628s-5.24,7.334-2.984,22.935c0,0,12.429,1.691,19.088-1.956,0,0-2.754-16.086-3.751-18.588s-12.353-2.391-12.353-2.391" transform="translate(-0.524 -58.514)" fill="#1d3b54"/>
            <path id="Trazado_700769" data-name="Trazado 700769" d="M33.7,253.452v3.022h.392v-2.336Z" transform="translate(-11.163 -83.966)" fill="#1d3b54"/>
            <path id="Trazado_700770" data-name="Trazado 700770" d="M5.68,253.452v3.022h.392v-2.336Z" transform="translate(-1.882 -83.966)" fill="#1d3b54"/>
            <path id="Trazado_700771" data-name="Trazado 700771" d="M12.653,145.412a20.13,20.13,0,0,0,2.6,1.046c.67.134,3.271,3.513,3.727,4.747s0,3.083-.938,5.255-.054,2.9-.483,5.068a50.527,50.527,0,0,0-.724,7.978c.081,1.207-10.845,1.434-13.339-.765,0,0,2.506-3.753,2.828-4.29s.053-3.459-.241-4.21S3.825,153.1,3.825,153.1s-1.606-4.9-.155-6.03c1.261-.98,4.7-1.328,5.312-1.543a10.528,10.528,0,0,1,3.671-.12" transform="translate(-1.015 -48.14)" fill="#eddad3"/>
            <path id="Trazado_700772" data-name="Trazado 700772" d="M18.3,149.426l1.173-1.374-1.018-3.616a23.862,23.862,0,0,0-.154,4.991" transform="translate(-6.043 -47.85)" fill="#d6c5be"/>
            <path id="Trazado_700773" data-name="Trazado 700773" d="M16.507,140.821s-.053.484-.115,1.154c-.027.3-.057.63-.085.973a22.034,22.034,0,0,0-.1,2.568s-2.006,2.011-4.288-2.346a5.985,5.985,0,0,0,.237-4.243c-.723-2.447,4.355,1.894,4.355,1.894" transform="translate(-3.947 -45.777)" fill="#eea886"/>
            <path id="Trazado_700774" data-name="Trazado 700774" d="M17.182,149.151v1.837l-2.309-1.725Z" transform="translate(-4.927 -49.412)" fill="#eea886"/>
            <path id="Trazado_700775" data-name="Trazado 700775" d="M15.734,149.715l-.959-1.186-3.229-3.219L10.5,146.317Z" transform="translate(-3.479 -48.14)" fill="#d6c5be"/>
            <path id="Trazado_700776" data-name="Trazado 700776" d="M8.141,145.771s2.71,4.113,2.839,5.922a164.217,164.217,0,0,1-1.917,19.7c-.91,4.352-7.486-.491-7.486-.491S6,163.751,4.3,158.024s-2.312-8.017-2.312-8.017.584-3.19,2.652-3.637c1.814-.394,3.5-.6,3.5-.6" transform="translate(-0.522 -48.292)" fill="#285173"/>
            <path id="Trazado_700777" data-name="Trazado 700777" d="M24.62,152.118s.489,1.729-1.415,5.552c0,0,.03,4.892.084,6.42s1.135,7.025,1.135,7.025l-2.6,1.385a.531.531,0,0,1-.8-.522c.534-4.4,2.268-21.082-1.479-25.567l1.5.443a12.166,12.166,0,0,1,3.57,5.263" transform="translate(-6.475 -48.505)" fill="#285173"/>
            <path id="Trazado_700778" data-name="Trazado 700778" d="M19.576,148.051l1.478.409-2.5-4.025Z" transform="translate(-6.148 -47.85)" fill="#fae6de"/>
            <path id="Trazado_700779" data-name="Trazado 700779" d="M14.85,148.529,13.5,150.3l-2.772-4.621.893-.366Z" transform="translate(-3.554 -48.14)" fill="#fae6de"/>
            <rect id="Rectángulo_345165" data-name="Rectángulo 345165" width="0.488" height="5.781" transform="translate(13.252 107.545) rotate(-38.329)" fill="#25ffff"/>
            <path id="Trazado_700780" data-name="Trazado 700780" d="M19.2,166.279a1.05,1.05,0,0,0,.568-.164c.389-.293.53-1.016,1.216-.962s1,2.205.833,2.613-1.125.611-2.534.33-.082-1.818-.082-1.818" transform="translate(-6.174 -54.712)" fill="#eea886"/>
            <path id="Trazado_700781" data-name="Trazado 700781" d="M21.669,164.782A21.472,21.472,0,0,1,23.8,164.2a4.8,4.8,0,0,1,2.31-.114c.13.193-.974.36-1.953.638-.9.256-.686.35-.686.35s-.06-.029.97-.126c1.107-.1,2.247-.1,2.36.12.054.108.016.18-.383.282.239-.011.273.051.282.147.047.5-1.567.9-2.208,1.053.494-.118.865-.154.688.18-.2.382-2.507.844-3.319,1.085-.886.264-.187-3.033-.187-3.033" transform="translate(-7.092 -54.327)" fill="#eea886"/>
            <path id="Trazado_700782" data-name="Trazado 700782" d="M4.5,146.756a2.9,2.9,0,0,0-3.009,2.53C1.154,151.33,1.019,153.6.7,154.7s-1.115,5.976-.442,6.38A7.639,7.639,0,0,0,4,161.853c1.848,0,9.014.322,9.014.322l.449-2.546s-2.722-.14-4.131-.354c-1.255-.191-3-.725-5.043-.95a34.208,34.208,0,0,1,.749-3.873c.314-.854,2.514-6.708-.54-7.7" transform="translate(0 -48.606)" fill="#285173"/>
            <path id="Trazado_700783" data-name="Trazado 700783" d="M26.137,166.318l.336.819-.719-.516Z" transform="translate(-8.532 -55.099)" fill="#eea886"/>
            <path id="Trazado_700784" data-name="Trazado 700784" d="M20.424,166.319l7.218-1.432,5.353-11.454-7.7.808Z" transform="translate(-6.766 -50.831)" fill="#636363"/>
            <path id="Trazado_700785" data-name="Trazado 700785" d="M32.232,165.882A5.864,5.864,0,0,0,32.98,165a13.139,13.139,0,0,0,1.4-2.6,3.924,3.924,0,0,0-2.129.114c-.31.279.306.389.306.389s-.936.1-.869.36.631.191.631.191-.754.144-.639.376.477.229.477.229-.668.084-.585.338,1.139.493,1,.7a4.923,4.923,0,0,0-.337.782" transform="translate(-10.457 -53.769)" fill="#eea886"/>
            <path id="Trazado_700786" data-name="Trazado 700786" d="M16.866,125.425s4.5,1.414,2.056,9.177-8.585-.9-7.942-5.63,5.886-3.547,5.886-3.547" transform="translate(-3.622 -41.508)" fill="#eea987"/>
            <path id="Trazado_700787" data-name="Trazado 700787" d="M19.206,129.645a10.146,10.146,0,0,1-5.976,2.468,9.483,9.483,0,0,0-1.548,2.347s-3.338-5.689.765-9.1,8.267,2.879,6.759,4.284" transform="translate(-3.446 -41.199)" fill="#0e2d3d"/>
            <path id="Trazado_700788" data-name="Trazado 700788" d="M13.925,135.414c-.029-.565-.376-1.851-1.216-1.491s.052,2.978.608,2.817c0,0,.677.011.609-1.326" transform="translate(-4.096 -44.347)" fill="#eea987"/>
            <path id="Trazado_700789" data-name="Trazado 700789" d="M17.076,142.755c-.027.3-.057.63-.085.974h0a5.174,5.174,0,0,1-3.011-3.193c1.853,2.394,3.1,2.219,3.1,2.219" transform="translate(-4.631 -46.558)" fill="#a77860"/>
            <path id="Trazado_700790" data-name="Trazado 700790" d="M130.7,162.986a10.558,10.558,0,0,0,2.665,7.946c3.248,3.451,10.57,2.22,10.57,2.22s-1.211-4.079-3.866-5.759-7.869-2.26-9.369-4.407" transform="translate(-43.286 -53.995)" fill="#869135"/>
            <path id="Trazado_700791" data-name="Trazado 700791" d="M135.722,150.239a13.293,13.293,0,0,0-.377,10.546c2.3,5.505,11.476,7.3,11.476,7.3s.378-5.345-2.007-8.5-8.276-6.148-9.092-9.343" transform="translate(-44.529 -49.772)" fill="#48753a"/>
            <path id="Trazado_700792" data-name="Trazado 700792" d="M313.951,53.357s4.551,6.9.711,10.57-4.291-.428-4.291-.428-2.054.136,2.03-4.536c1.925-2.2,1.551-5.606,1.551-5.606" transform="translate(-102.651 -17.677)" fill="#bbd070"/>
            <path id="Trazado_700793" data-name="Trazado 700793" d="M327.867,48.088s3.245,6.27-4.393,12.146-7.6,9.924-7.6,9.924-5.377-14.532,12-22.07" transform="translate(-104.384 -15.931)" fill="#97a43c"/>
            <path id="Trazado_700794" data-name="Trazado 700794" d="M314.327,71.319c-2.9-.081,1.349-7.453,6.077-8.949s8.5-.875,11.381-2.7c0,0-3.162,12.052-17.459,11.653" transform="translate(-103.818 -19.767)" fill="#48753a"/>
            <rect id="Rectángulo_345166" data-name="Rectángulo 345166" width="0.611" height="73.076" transform="translate(94.539 28.063)" fill="#12263f"/>
            <rect id="Rectángulo_345167" data-name="Rectángulo 345167" width="50.449" height="0.611" transform="translate(49.758 80.643)" fill="#12263f"/>
            <path id="Trazado_700795" data-name="Trazado 700795" d="M276.377,163.76H177.332a8.54,8.54,0,0,1-8.338-8.711V85.313a8.54,8.54,0,0,1,8.338-8.71h99.045a8.54,8.54,0,0,1,8.338,8.71v69.735a8.54,8.54,0,0,1-8.338,8.711M177.332,77.336a7.807,7.807,0,0,0-7.605,7.977v69.735a7.808,7.808,0,0,0,7.605,7.978h99.045a7.808,7.808,0,0,0,7.605-7.978V85.313a7.807,7.807,0,0,0-7.605-7.977Z" transform="translate(-55.986 -25.378)" fill="#12263f"/>
            <path id="Trazado_700796" data-name="Trazado 700796" d="M195.116,107.342l-.742,0,0-.733c1.079.006,2.2,0,3.293-.022l.015.732c-.849.017-1.715.025-2.57.025m-4.05-.061c-1.106-.033-2.219-.079-3.306-.139l.04-.732c1.081.059,2.187.106,3.288.138Zm9.932-.07-.033-.732c1.1-.05,2.209-.114,3.288-.191l.053.732c-1.087.077-2.2.142-3.308.191m-16.54-.293c-2.074-.17-3.291-.329-3.3-.331l.1-.727c.012,0,1.214.159,3.267.327Zm23.15-.181-.073-.73c1.1-.11,2.2-.237,3.269-.377l.1.727c-1.078.142-2.186.269-3.292.38m6.571-.863-.119-.723c1.093-.18,2.181-.378,3.236-.591l.144.719c-1.063.214-2.16.415-3.261.6m6.493-1.311-.173-.712c1.077-.261,2.145-.544,3.174-.84l.2.7c-1.04.3-2.117.585-3.2.848m6.371-1.842-.236-.693c1.049-.358,2.086-.74,3.08-1.139l.273.681c-1.006.4-2.055.79-3.117,1.152m6.167-2.476-.312-.663c1-.471,1.985-.972,2.921-1.489l.354.641c-.95.525-1.947,1.032-2.964,1.511m5.818-3.222-.4-.615c.924-.6,1.822-1.236,2.668-1.888l.447.581c-.861.663-1.775,1.31-2.716,1.922m5.261-4.06-.5-.54c.806-.739,1.578-1.517,2.3-2.312l.543.492c-.734.811-1.523,1.6-2.346,2.36m4.457-4.931-.588-.437c.645-.869,1.254-1.779,1.808-2.706l.629.376c-.568.947-1.189,1.878-1.849,2.766m3.414-5.7-.663-.313c.457-.97.876-1.981,1.245-3.007l.689.248c-.376,1.047-.8,2.08-1.272,3.071m2.253-6.246L253.7,75.9c.269-1.032.5-2.1.687-3.186l.723.125c-.191,1.1-.427,2.194-.7,3.246m1.141-6.535-.73-.07c.1-1.061.168-2.159.2-3.263l.734.019c-.03,1.121-.1,2.236-.2,3.314M255,62.941c-.038-1.067-.108-2.167-.208-3.271l.73-.067c.1,1.118.173,2.232.209,3.313Zm-.586-6.53c-.148-1.059-.327-2.149-.53-3.239l.72-.134c.205,1.1.386,2.2.536,3.271Zm-1.2-6.455c-.09-.4-.185-.8-.28-1.192-.162-.669-.34-1.335-.528-1.977l.7-.207c.192.654.372,1.331.537,2.011.1.4.192.8.282,1.2Zm-1.85-6.253c-.393-1.02-.831-2.023-1.3-2.979l.657-.324c.481.976.928,2,1.329,3.039ZM26.12,39.189l-.667-.3c.462-1.012.94-2.018,1.42-2.988l.657.326c-.477.963-.952,1.961-1.41,2.967M248.5,37.881c-.568-.92-1.189-1.82-1.842-2.674l.582-.445c.669.873,1.3,1.793,1.884,2.734ZM29.038,33.3l-.645-.348c.528-.98,1.075-1.951,1.625-2.885l.631.372c-.545.925-1.087,1.888-1.611,2.86m215.515-.575c-.732-.78-1.517-1.54-2.333-2.258l.483-.55c.835.734,1.637,1.51,2.385,2.307Zm-4.874-4.293c-.859-.627-1.773-1.236-2.713-1.81l.382-.627c.958.584,1.887,1.2,2.763,1.844ZM32.37,27.648l-.617-.4c.6-.936,1.227-1.859,1.854-2.745l.6.423c-.621.877-1.238,1.792-1.836,2.718m201.744-2.615c-.946-.483-1.941-.952-2.96-1.392l.29-.673c1.034.446,2.045.921,3,1.412Zm-6-2.6c-1-.364-2.044-.716-3.108-1.046l.217-.7c1.075.333,2.133.689,3.143,1.057ZM36.163,22.3l-.578-.451c.685-.876,1.393-1.737,2.106-2.56l.554.48c-.7.813-1.4,1.664-2.082,2.531m185.681-1.816c-1.028-.27-2.1-.531-3.194-.775l.16-.716c1.1.246,2.183.509,3.22.782Zm-6.414-1.44c-1.045-.2-2.137-.391-3.241-.57l.118-.724c1.111.181,2.209.373,3.26.573Zm-6.5-1.058c-1.053-.145-2.151-.286-3.267-.417l.085-.728c1.12.132,2.225.273,3.282.419ZM40.456,17.349l-.528-.509c.772-.8,1.569-1.579,2.371-2.32l.5.539c-.791.731-1.579,1.5-2.34,2.29m161.935-.138c-1.055-.106-2.159-.209-3.282-.307l.064-.73c1.126.1,2.234.2,3.291.308Zm-6.569-.572c-1.046-.078-2.152-.156-3.289-.231l.047-.732c1.139.076,2.249.153,3.3.232ZM189.24,16.2q-1.639-.1-3.286-.186l.04-.732q1.647.09,3.288.186Zm-6.578-.358-3.14-.158-.156-.008.036-.732.157.007,3.141.159Zm-6.6-.334q-1.655-.085-3.307-.174l.039-.732q1.652.089,3.306.174Zm-6.606-.36c-1.163-.069-2.242-.136-3.3-.205l.048-.732c1.055.07,2.133.137,3.293.206Zm-6.594-.437c-1.132-.085-2.241-.175-3.3-.265l.064-.73c1.052.09,2.157.18,3.287.265Zm-6.587-.572c-1.123-.112-2.229-.233-3.288-.356l.086-.728c1.056.124,2.158.243,3.275.355Zm-6.57-.772c-1.116-.152-2.217-.316-3.273-.485l.116-.724c1.051.169,2.145.33,3.257.483Zm-104.439-.46-.465-.567c.857-.7,1.742-1.382,2.632-2.022l.428.594c-.877.632-1.751,1.3-2.6,1.994m97.905-.59c-1.105-.207-2.2-.429-3.245-.659l.157-.716c1.041.229,2.124.449,3.223.655ZM136.7,10.893c-.479-.123-.961-.251-1.431-.381l-1.757-.484.195-.707,1.757.485c.465.128.943.255,1.418.378Zm-6.368-1.739q-1.588-.433-3.183-.863l.191-.708q1.6.429,3.185.863Zm-79.76-.066-.389-.621c.934-.586,1.9-1.148,2.867-1.672l.348.645c-.954.516-1.906,1.071-2.827,1.648m73.39-1.645c-1.1-.289-2.171-.566-3.191-.827l.181-.71c1.021.26,2.1.539,3.2.828ZM56.331,5.978l-.307-.666c1-.459,2.026-.893,3.057-1.292l.264.684c-1.018.393-2.032.821-3.015,1.274m61.248-.159c-1.091-.267-2.169-.525-3.205-.767l.167-.714c1.039.243,2.12.5,3.212.769ZM111.16,4.324c-1.091-.239-2.175-.469-3.222-.683l.146-.718c1.051.214,2.139.445,3.233.685Zm-48.727-.7-.222-.7c1.041-.33,2.114-.637,3.191-.91l.181.71c-1.063.27-2.122.572-3.15.9m42.273-.609c-1.095-.2-2.186-.4-3.243-.571l.12-.724c1.061.177,2.157.369,3.256.574ZM68.78,2l-.141-.719c1.068-.209,2.169-.4,3.273-.554l.1.726c-1.091.156-2.179.34-3.235.547m29.431-.066c-1.1-.158-2.2-.3-3.262-.429l.086-.728c1.07.127,2.173.272,3.28.431Zm-6.533-.773c-1.1-.1-2.208-.185-3.279-.249l.045-.732c1.078.065,2.188.15,3.3.251Zm-16.4-.094-.069-.73C76.286.237,77.4.157,78.513.1l.037.733c-1.1.055-2.2.134-3.273.235m9.84-.3C84.29.744,83.46.733,82.653.733q-.411,0-.822,0L81.825,0q.413,0,.829,0c.814,0,1.65.011,2.483.034Z" transform="translate(-8.432)" fill="#c2bebc"/>
            <path id="Trazado_700797" data-name="Trazado 700797" d="M336.478,43.122a21.251,21.251,0,0,0-2.273-5.481l2.313-3.48-3.209-3.21L330.1,27.74l-3.481,2.314a21.277,21.277,0,0,0-5.481-2.273l-.824-4.094h-9.08l-.825,4.094a21.272,21.272,0,0,0-5.48,2.273l-3.48-2.314-3.21,3.21-3.21,3.21,2.314,3.48a21.256,21.256,0,0,0-2.274,5.481l-4.094.824v9.08l4.094.824a21.242,21.242,0,0,0,2.274,5.48l-2.314,3.481,3.21,3.21,3.21,3.21,3.48-2.314a21.226,21.226,0,0,0,5.48,2.273l.825,4.094h9.08l.824-4.094a21.23,21.23,0,0,0,5.481-2.273l3.481,2.314,3.211-3.21,3.209-3.21L334.2,59.33a21.237,21.237,0,0,0,2.273-5.48l4.094-.824v-9.08ZM315.772,64.395a15.909,15.909,0,1,1,15.909-15.909,15.909,15.909,0,0,1-15.909,15.909" transform="translate(-96.396 -7.847)" fill="#12263f"/>
            <path id="Trazado_700798" data-name="Trazado 700798" d="M268.424,72.057v69.735a8.345,8.345,0,0,1-8.345,8.346H156.4a8.345,8.345,0,0,1-8.345-8.346V72.057a8.344,8.344,0,0,1,8.345-8.344H260.079a8.344,8.344,0,0,1,8.345,8.344" transform="translate(-49.048 -21.107)" fill="#dae8f5"/>
            <path id="Trazado_700799" data-name="Trazado 700799" d="M207.78,88.232a24.692,24.692,0,1,0-46.5,16.63c.187.522.39,1.037.608,1.539a24.693,24.693,0,0,0,45.892-18.17m-17.015,25.747a18.491,18.491,0,0,1-23.209-10.044q-.246-.565-.457-1.154a18.513,18.513,0,1,1,23.666,11.2" transform="translate(-52.95 -23.803)" fill="#f3f9ff"/>
            <path id="Trazado_700800" data-name="Trazado 700800" d="M167.416,91.035l-5.9-1.842a24.725,24.725,0,0,1,22.834-17.328l.184,6.178a18.543,18.543,0,0,0-17.118,12.992" transform="translate(-53.509 -23.808)" fill="#ad84ff"/>
            <path id="Trazado_700801" data-name="Trazado 700801" d="M167.555,112.525l-5.667,2.466c-.217-.5-.421-1.016-.608-1.539a24.583,24.583,0,0,1-.322-15.675l5.9,1.842a18.427,18.427,0,0,0,.241,11.751q.211.588.457,1.154" transform="translate(-52.95 -32.392)" fill="#0f58b9"/>
            <path id="Trazado_700802" data-name="Trazado 700802" d="M166.735,128.445a24.555,24.555,0,0,1-3.828-6.147l5.667-2.466a18.416,18.416,0,0,0,2.868,4.609Z" transform="translate(-53.969 -39.699)" fill="#e8e8e8"/>
            <path id="Trazado_700803" data-name="Trazado 700803" d="M167.379,174.007a12.513,12.513,0,1,0,10.7-22.622c-.254-.121-.512-.233-.769-.334a12.514,12.514,0,0,0-9.934,22.956m-3.129-15.324a9.372,9.372,0,0,1,11.916-4.718c.194.076.387.16.578.249a9.382,9.382,0,1,1-12.494,4.468" transform="translate(-53.077 -49.753)" fill="#6eb2eb"/>
            <path id="Trazado_700804" data-name="Trazado 700804" d="M190.627,161.662l2.774-1.454a12.526,12.526,0,0,1-1.973,14.392l-2.28-2.147a9.4,9.4,0,0,0,1.479-10.79" transform="translate(-62.662 -53.075)" fill="#1a598c"/>
            <path id="Trazado_700805" data-name="Trazado 700805" d="M184.07,154.4l1.147-2.915c.258.1.516.213.77.334a12.457,12.457,0,0,1,5.732,5.5l-2.774,1.454a9.34,9.34,0,0,0-4.3-4.125q-.286-.135-.577-.249" transform="translate(-60.98 -50.184)" fill="#2273b5"/>
            <path id="Trazado_700806" data-name="Trazado 700806" d="M180.315,150.239a12.49,12.49,0,0,1,3.574.831l-1.147,2.916a9.274,9.274,0,0,0-2.68-.624Z" transform="translate(-59.652 -49.772)" fill="#4da8f2"/>
            <path id="Trazado_700807" data-name="Trazado 700807" d="M301.183,72.057v69.735a8.345,8.345,0,0,1-8.345,8.346h-45.9V63.713h45.9a8.344,8.344,0,0,1,8.345,8.344" transform="translate(-81.806 -21.107)" fill="#ad84ff"/>
            <path id="Trazado_700808" data-name="Trazado 700808" d="M296.577,81.515h-38.13a1.089,1.089,0,0,1-1.088-1.089V78.213a1.089,1.089,0,0,1,1.088-1.089h38.13a1.089,1.089,0,0,1,1.089,1.089v2.214a1.089,1.089,0,0,1-1.089,1.089" transform="translate(-85.26 -25.55)" fill="#e3f2ff"/>
            <path id="Trazado_700809" data-name="Trazado 700809" d="M296.577,95.6h-38.13a1.089,1.089,0,0,1-1.088-1.089V92.3a1.088,1.088,0,0,1,1.088-1.088h38.13a1.088,1.088,0,0,1,1.089,1.088v2.215a1.089,1.089,0,0,1-1.089,1.089" transform="translate(-85.26 -30.217)" fill="#12263f"/>
            <path id="Trazado_700810" data-name="Trazado 700810" d="M294,157.023H261.019a3.66,3.66,0,0,1-3.661-3.661V111.025a3.661,3.661,0,0,1,3.661-3.661H294a3.661,3.661,0,0,1,3.661,3.661v42.337A3.661,3.661,0,0,1,294,157.023" transform="translate(-85.26 -35.568)" fill="#12263f"/>
            <g id="Grupo_999262" data-name="Grupo 999262" transform="translate(169.476 69.684)" opacity="0.58">
              <g id="Grupo_999261" data-name="Grupo 999261">
                <g id="Grupo_999260" data-name="Grupo 999260" clip-path="url(#clip-path-3)">
                  <path id="Trazado_700811" data-name="Trazado 700811" d="M263.25,141.01h-5.314a4.5,4.5,0,0,1-4.5-4.5V108.7a4.5,4.5,0,0,1,4.5-4.5h5.314a4.5,4.5,0,0,1,4.5,4.5V136.51a4.5,4.5,0,0,1-4.5,4.5" transform="translate(-253.436 -104.206)" fill="#e0f1ff"/>
                </g>
              </g>
            </g>
            <rect id="Rectángulo_345169" data-name="Rectángulo 345169" width="91.988" height="0.611" transform="translate(76.267 38.613)" fill="#12263f"/>
            <path id="Trazado_700812" data-name="Trazado 700812" d="M125.384,45.3a4.931,4.931,0,1,1,4.93-4.93,4.937,4.937,0,0,1-4.93,4.93m0-9.128a4.2,4.2,0,1,0,4.2,4.2,4.2,4.2,0,0,0-4.2-4.2" transform="translate(-39.905 -11.741)" fill="#12263f"/>
            <path id="Trazado_700813" data-name="Trazado 700813" d="M105.058,134.2s4.605.823,4.646,4.722-3.527,9.549-5.847,9.131-4.956-2.477-4.868-4.85a16.7,16.7,0,0,1,1.817-7.2,4.394,4.394,0,0,1,4.252-1.8" transform="translate(-32.793 -44.453)" fill="#eea886"/>
            <path id="Trazado_700814" data-name="Trazado 700814" d="M99.217,141.259s.009.8,1.593,1.426,4.494-.252,5.225-.106.947-.207.947-.207l.051.778.619.421s.434-2.072,1.735-2.252,2.385-6.129-3.226-7.254c0,0-4.153-1.128-5.225.98s-1.92,4.729-1.719,6.214" transform="translate(-32.86 -44.314)" fill="#e8734d"/>
            <g id="Grupo_999265" data-name="Grupo 999265" transform="translate(59.204 117.899)" opacity="0.82">
              <g id="Grupo_999264" data-name="Grupo 999264">
                <g id="Grupo_999263" data-name="Grupo 999263" clip-path="url(#clip-path-4)">
                  <path id="Trazado_700815" data-name="Trazado 700815" d="M130.009,223.167H93.921a5.386,5.386,0,0,1-5.386-5.386V181.694a5.386,5.386,0,0,1,5.386-5.386h36.087a5.386,5.386,0,0,1,5.386,5.386v36.088a5.386,5.386,0,0,1-5.386,5.386" transform="translate(-88.535 -176.308)" fill="#25ffff"/>
                </g>
              </g>
            </g>
            <path id="Trazado_700816" data-name="Trazado 700816" d="M129.965,68.407v26.2A4.7,4.7,0,0,1,125.27,99.3H87.8A4.694,4.694,0,0,1,83.1,94.609v-26.2A4.694,4.694,0,0,1,87.8,63.713H125.27a4.694,4.694,0,0,1,4.694,4.694" transform="translate(-27.531 -21.107)" fill="#e3f2ff"/>
            <path id="Trazado_700817" data-name="Trazado 700817" d="M143.14,191.649h-16a1.1,1.1,0,0,1-1.1-1.1v-2.839a1.1,1.1,0,0,1,1.1-1.1h16a1.1,1.1,0,0,1,1.1,1.1v2.839a1.1,1.1,0,0,1-1.1,1.1" transform="translate(-41.755 -61.821)" fill="#fff"/>
            <path id="Trazado_700818" data-name="Trazado 700818" d="M141.706,224.692H128.573a2.535,2.535,0,0,1-2.534-2.534V200.511a2.535,2.535,0,0,1,2.534-2.534h13.133a2.535,2.535,0,0,1,2.534,2.534v21.646a2.535,2.535,0,0,1-2.534,2.534" transform="translate(-41.755 -65.587)" fill="#fff"/>
            <path id="Trazado_700819" data-name="Trazado 700819" d="M101.462,199.781a8.374,8.374,0,0,0,11.059-7.825c0-.189,0-.376-.011-.561a8.374,8.374,0,1,0-11.047,8.386m-3.593-8.014A6.279,6.279,0,0,1,110.05,189.7v0a6.26,6.26,0,0,1,.366,1.8q.01.208.008.421a6.279,6.279,0,1,1-12.556-.162" transform="translate(-31.729 -60.783)" fill="#e3f2ff"/>
            <path id="Trazado_700820" data-name="Trazado 700820" d="M111.929,201.745l1.657,1.284a8.386,8.386,0,0,1-9.306,2.806l.672-1.985a6.288,6.288,0,0,0,6.977-2.1" transform="translate(-34.547 -66.836)" fill="#1a598c"/>
            <path id="Trazado_700821" data-name="Trazado 700821" d="M117.023,195.432l2.093-.114c.01.185.013.373.011.562a8.336,8.336,0,0,1-1.752,5.02l-1.657-1.284a6.252,6.252,0,0,0,1.314-3.763c0-.142,0-.282-.009-.421" transform="translate(-38.336 -64.706)" fill="#2273b5"/>
            <path id="Trazado_700822" data-name="Trazado 700822" d="M117.489,194.24a6.277,6.277,0,0,0-.366-1.8v0l1.969-.717a8.315,8.315,0,0,1,.49,2.407Z" transform="translate(-38.801 -63.514)" fill="#2273b5"/>
            <path id="Trazado_700823" data-name="Trazado 700823" d="M100.763,185.158a8.376,8.376,0,0,1,12.909,3.83l-1.969.72v0a6.279,6.279,0,0,0-9.711-2.847Z" transform="translate(-33.382 -60.783)" fill="#4da8f2"/>
            <path id="Trazado_700824" data-name="Trazado 700824" d="M16.029,79.614l10.094-15.77L21,66.168Z" transform="translate(-5.31 -21.151)" fill="#d6d6d6"/>
            <path id="Trazado_700825" data-name="Trazado 700825" d="M16.029,81.683l.616-9.5,3.667-2.09Z" transform="translate(-5.31 -23.219)" fill="#e8e8e8"/>
            <path id="Trazado_700826" data-name="Trazado 700826" d="M23.8,69.267l1.261,1.661L16.029,81.411Z" transform="translate(-5.31 -22.947)" fill="#c2c2c2"/>
            <path id="Trazado_700827" data-name="Trazado 700827" d="M120.64,179a1.393,1.393,0,0,0,.714-.326c.454-.463.5-1.44,1.409-1.505s1.755,2.7,1.61,3.271-1.359,1.026-3.267.934S120.64,179,120.64,179" transform="translate(-39.794 -58.692)" fill="#eea886"/>
            <path id="Trazado_700828" data-name="Trazado 700828" d="M123.6,176.345a28.711,28.711,0,0,1,2.68-1.184c1.271-.48,2.843-.823,3.014-.6.38.486-1.1.828-2.336,1.386a9.618,9.618,0,0,0-.94.432s-.084-.028,1.25-.356c1.434-.354,2.934-.576,3.125-.307.094.13.261.586-.342.567.313-.061.265-.109.3.016.16.646-1.884,1.485-2.7,1.819.625-.252,1.108-.373.94.1-.191.542-3.128,1.6-4.149,2.081-1.113.52-.842-3.951-.842-3.951" transform="translate(-40.938 -57.806)" fill="#eea886"/>
            <path id="Trazado_700829" data-name="Trazado 700829" d="M82.511,151.337a34.845,34.845,0,0,0-4.909,0c-2.031.208-4.837,1.87-6.536,2.35s-5.8,3.235-5.687,3.611a30.615,30.615,0,0,0,4.635,8.5c2.512,3.116,12.5-14.462,12.5-14.462" transform="translate(-21.659 -50.105)" fill="#d4d8e8"/>
            <path id="Trazado_700830" data-name="Trazado 700830" d="M78.923,154.084s-3.1,2.3-4.183,4.4a17.032,17.032,0,0,0-1.448,4.611Z" transform="translate(-24.281 -51.046)" fill="#a9adba"/>
            <path id="Trazado_700831" data-name="Trazado 700831" d="M82.4,256.252a7.547,7.547,0,0,0,1.4,1.191c.512.249,6.632,1.3,7.048,1.8s.415,2.465-1.164,2.465-6.84-.028-7.727,0-4.629.776-5.015,0-.35-4.394.334-5.261,5.124-.195,5.124-.195" transform="translate(-25.409 -84.811)" fill="#1c4154"/>
            <path id="Trazado_700832" data-name="Trazado 700832" d="M82.5,254.732l.189,1.1s-1.634.748-5.124.195v-1.137Z" transform="translate(-25.697 -84.39)" fill="#2a617d"/>
            <path id="Trazado_700833" data-name="Trazado 700833" d="M28.4,251.821a6.04,6.04,0,0,0-1.024,1.828c-.217.661-1.246,3.739-.8,4.486s3.932.859,5.677.582,5.538.3,5.927-.443.609-1.839-.527-2.262-3.738-1.532-4.209-2.7-5.041-1.5-5.041-1.5" transform="translate(-8.768 -83.425)" fill="#1c4154"/>
            <path id="Trazado_700834" data-name="Trazado 700834" d="M34.887,250.931l-.484,1.246s-5-.374-5.04-1.5l1.579-2.3Z" transform="translate(-9.728 -82.286)" fill="#2a617d"/>
            <path id="Trazado_700835" data-name="Trazado 700835" d="M97.171,148.209s-2.787,2.367-3.58,2.173,2.733,5.006,2.733,5.006,3.357-3.3,4.113-3.4-3.267-3.775-3.267-3.775" transform="translate(-30.967 -49.1)" fill="#eea886"/>
            <path id="Trazado_700836" data-name="Trazado 700836" d="M98.776,161.56c-.948.573-1.108.758-1,3.471s1.237,4.9,1.32,5.65,1.59,8.165,2.006,8.58,5.38-.552,6.385-.863c1.5-.467,7.865-2.621,7.865-2.621l-1.4-2.919s-8.032,1.792-8.29,1.164-.887-5.9-1.109-7.044.164-2.944-1.2-5.659c-1.224-2.431-4.578.241-4.578.241" transform="translate(-32.383 -53.105)" fill="#d4d8e8"/>
            <path id="Trazado_700837" data-name="Trazado 700837" d="M77.217,189.648s1.7,1.811,2.179,2.4a94.911,94.911,0,0,1,8.253,12.721c.554,1.292-2.743,10.433-4.1,13.625-.712,1.675-5.411,13.211-5.263,13.47s-4.972.429-7.26-.752c0,0,3.291-9.753,3.985-11.665,1.047-2.888,4.678-10.885,4.789-11.66s-5.87-7.171-7.863-8.389a75.8,75.8,0,0,1-7.423-6.093c-.553-.554-3.692-2.031-3.4-4.838a9.805,9.805,0,0,1,2.381-5.021Z" transform="translate(-20.242 -60.773)" fill="#12263f"/>
            <path id="Trazado_700838" data-name="Trazado 700838" d="M58.017,196.359l-.749,1.969c-.94,2.467-2.457,6.448-2.71,7.078-.369.924-2.215,4.912-3.1,5.687s-15.471,18.278-15.509,18.426-5.465-2.659-5.8-3.73c0,0,7.9-10.3,9.12-11.815s3.767-3.766,4.616-7.348,6.941-17.356,6.959-17.873c0,0,.98-4.246,2.4-5.538s6.591.221,7.4,2.916-2.634,10.229-2.634,10.229" transform="translate(-9.989 -60.541)" fill="#12263f"/>
            <path id="Trazado_700839" data-name="Trazado 700839" d="M93.273,151.192l1.177-.464a8.841,8.841,0,0,1,4.69,3.065l-.148.712s-4.533-.983-5.719-3.312" transform="translate(-30.9 -49.934)" fill="#d4d8e8"/>
            <path id="Trazado_700840" data-name="Trazado 700840" d="M99.577,175.6a4.734,4.734,0,0,1-.555.679c-.084.072-.186.158-.3.253h0l-.112-4.466.643,1.976c.084.257.329,1.557.329,1.557" transform="translate(-32.667 -57.003)" fill="#a9adba"/>
            <path id="Trazado_700841" data-name="Trazado 700841" d="M69.837,201.374l-.749,1.969a49.032,49.032,0,0,1-3.258-5.461c.148.106.622.551.732.649s3.275,2.843,3.275,2.843" transform="translate(-21.809 -65.556)" fill="#215b8a"/>
            <path id="Trazado_700842" data-name="Trazado 700842" d="M108.94,145.868c.1-.338-.148-1.632-.974-.9s-.823,2.387-.356,2.521,1.065-.768,1.33-1.626" transform="translate(-35.545 -47.954)" fill="#eea886"/>
            <path id="Trazado_700843" data-name="Trazado 700843" d="M103.149,135.373s-4-2.841-4.018,6.848Z" transform="translate(-32.841 -44.719)" fill="#e8734d"/>
            <path id="Trazado_700844" data-name="Trazado 700844" d="M88.341,168.745a4.735,4.735,0,0,1-.555.679c-.084.072-.186.158-.3.253h0a46.574,46.574,0,0,1-4.827,3.29c-1.293.7-3.743,6.615-3.743,6.615s-11.563-.78-14.221-6.761a52.944,52.944,0,0,1,3.6-6.7c1.717-2.492,5.483-11.466,7.477-12.74a11.49,11.49,0,0,1,7.644-1.994,8.246,8.246,0,0,1,6.111,3.231s2.991,3.213,3.286,4.912c.254,1.46-2.992,7.163-4.467,9.217" transform="translate(-21.431 -50.149)" fill="#d4d8e8"/>
            <path id="Trazado_700845" data-name="Trazado 700845" d="M129.925,68.407l-.082,2.606H82.983l.081-2.606a4.694,4.694,0,0,1,4.694-4.694H125.23a4.694,4.694,0,0,1,4.694,4.694" transform="translate(-27.491 -21.107)" fill="#12263f"/>
            <path id="Trazado_700846" data-name="Trazado 700846" d="M99.32,100.951H89.891a2.212,2.212,0,0,1-2.209-2.209v-18.8a2.212,2.212,0,0,1,2.209-2.209H99.32a2.212,2.212,0,0,1,2.209,2.209v18.8a2.212,2.212,0,0,1-2.209,2.209M89.891,78.47a1.478,1.478,0,0,0-1.477,1.477v18.8a1.478,1.478,0,0,0,1.477,1.476H99.32a1.478,1.478,0,0,0,1.477-1.476v-18.8A1.478,1.478,0,0,0,99.32,78.47Z" transform="translate(-29.048 -25.753)" fill="#78c2ff"/>
            <path id="Trazado_700847" data-name="Trazado 700847" d="M135.326,80.24H112.864a.734.734,0,0,1-.734-.734v-.487a.733.733,0,0,1,.734-.734h22.463a.734.734,0,0,1,.734.734v.487a.734.734,0,0,1-.734.734" transform="translate(-37.147 -25.935)" fill="#78c2ff"/>
            <path id="Trazado_700848" data-name="Trazado 700848" d="M135.326,86.178H112.864a.734.734,0,0,1-.734-.734v-.486a.734.734,0,0,1,.734-.734h22.463a.734.734,0,0,1,.734.734v.486a.734.734,0,0,1-.734.734" transform="translate(-37.147 -27.902)" fill="#78c2ff"/>
            <path id="Trazado_700849" data-name="Trazado 700849" d="M220.471,158.928H205.637a1.135,1.135,0,0,1-1.135-1.135V155.5a1.134,1.134,0,0,1,1.135-1.135h14.835a1.135,1.135,0,0,1,1.135,1.135v2.291a1.136,1.136,0,0,1-1.135,1.135" transform="translate(-67.749 -51.14)" fill="#6eb2eb"/>
            <path id="Trazado_700850" data-name="Trazado 700850" d="M220.471,170.047H205.637a1.135,1.135,0,0,1-1.135-1.135v-2.291a1.134,1.134,0,0,1,1.135-1.135h14.835a1.135,1.135,0,0,1,1.135,1.135v2.291a1.136,1.136,0,0,1-1.135,1.135" transform="translate(-67.749 -54.824)" fill="#4da8f2"/>
            <path id="Trazado_700851" data-name="Trazado 700851" d="M220.471,181.166H205.637a1.135,1.135,0,0,1-1.135-1.135V177.74a1.134,1.134,0,0,1,1.135-1.135h14.835a1.135,1.135,0,0,1,1.135,1.135v2.291a1.136,1.136,0,0,1-1.135,1.135" transform="translate(-67.749 -58.507)" fill="#2273b5"/>
            <path id="Trazado_700852" data-name="Trazado 700852" d="M92.3,68.627a2.036,2.036,0,1,1-2.036-2.036A2.036,2.036,0,0,1,92.3,68.627" transform="translate(-29.23 -22.061)" fill="#e3f2ff"/>
            <path id="Trazado_700853" data-name="Trazado 700853" d="M323.384,168.925s8.279,2.671,10.189,2.2c1.01-.249,2.59-1.682,4.058-3.227.242-.256.481-.516.716-.772,1.618-1.781,2.94-3.477,2.94-3.477s4.01-4.7.792-6.793a4.3,4.3,0,0,0-2.493,1.283,16.443,16.443,0,0,0-2.36,3.595c-.281.613-4.219,6.293-4.424,6.421s-1.925-.325-3.3-.44a30.187,30.187,0,0,1-5.617-1.334Z" transform="translate(-107.133 -51.965)" fill="#636363"/>
            <path id="Trazado_700854" data-name="Trazado 700854" d="M337.128,251.173a9.365,9.365,0,0,1-1.68,2.267c-.78.475-2.293,2-2.822,2.072s-2.427.408-2.061,1.48c.3.88,4.833.753,5.344.312s2.04-2.022,2.656-1.986.388,2.28.388,2.28h.669s.234-2.185.262-2.561c.084-1.111-.708-1.929-.744-2.564s-.072-1.107-.072-1.107Z" transform="translate(-109.497 -83.211)" fill="#16202e"/>
            <path id="Trazado_700855" data-name="Trazado 700855" d="M333.9,255.4a3.614,3.614,0,0,0,2.643-.145,14.143,14.143,0,0,1,4.137-1.671s-.426-1.3-.435-1.447-.056-.831-.056-.831l-1.929-.31a16.726,16.726,0,0,1-1.8,2.27A31.174,31.174,0,0,0,333.9,255.4" transform="translate(-110.616 -83.153)" fill="#eea886"/>
            <path id="Trazado_700856" data-name="Trazado 700856" d="M366.732,253.591a8.076,8.076,0,0,1-.39,1.659c-.2.356-.762,2.169-1.016,2.507s-.812,2.88,0,3.184,2.728.813,3.371-.2a4.185,4.185,0,0,0,.627-2.811c-.1-.779-.875-4.355-.864-4.709s-1.727.373-1.727.373" transform="translate(-120.887 -83.856)" fill="#eea886"/>
            <path id="Trazado_700857" data-name="Trazado 700857" d="M365.529,259s-.088,1.973,1.4,1.973,2.151-1.8,2.151-1.8a3.856,3.856,0,0,1,0,2.761c-.508,1.88-2.625,1.491-3.1,1.422s-2.722-.662-.455-4.361" transform="translate(-120.765 -85.805)" fill="#16202e"/>
            <path id="Trazado_700858" data-name="Trazado 700858" d="M358.6,186.161a24.07,24.07,0,0,1,2.607,4.08,21.039,21.039,0,0,1,1.662,7.943c-.151,2.757-1.058,7.933-.794,9.1s.528,3.588.813,4.42a19.232,19.232,0,0,1,1.53,5.742c.113,2.494-.806,13.43-.731,14.45s-3.3.4-3.3.4-.086-9.859-.463-11.559-.832-7.48-1.172-7.9a31.464,31.464,0,0,1-1.356-5.513c-.06-.692-4.1-12.673-4.327-14.713s-5.288-6.453-5.288-6.453a17.659,17.659,0,0,1,10.819,0" transform="translate(-115.216 -61.393)" fill="#1a598c"/>
            <path id="Trazado_700859" data-name="Trazado 700859" d="M343.372,229.582c.718-.113,2.641-11.163,2.414-13.128s-.453-6.152.19-7.855c.421-1.117,3.054-6.8,4.825-10.794.249-.563.483-1.092.69-1.571a17.87,17.87,0,0,0,.944-2.409c.038-.756,2.5-13.77-7.23-7.98a11.6,11.6,0,0,1-.211,1.406c-.114.378-2.721,10.011-2.984,13.713a73.358,73.358,0,0,1-1.058,7.633,16.374,16.374,0,0,0,.34,4.115c.227.68-1.474,16.032-1.587,16.41s2.951.57,3.668.457" transform="translate(-112.539 -61.078)" fill="#1a598c"/>
            <path id="Trazado_700860" data-name="Trazado 700860" d="M350.565,155.782a19.264,19.264,0,0,1-2.481,1c-.639.128-3.12,3.35-3.556,4.526s0,2.94.894,5.012.05,2.762.459,4.833a48.121,48.121,0,0,1,.689,7.607c-.077,1.151,10.343,1.371,12.722-.726,0,0-2.389-3.58-2.7-4.092s-.05-3.3.231-4.015,2.276-6.631,2.276-6.631,1.412-4.85.029-5.925c-1.2-.933-4.478-1.267-5.065-1.471a10.034,10.034,0,0,0-3.5-.116" transform="translate(-114.082 -51.577)" fill="#eddad3"/>
            <path id="Trazado_700861" data-name="Trazado 700861" d="M352.2,159.609l-1.118-1.31.972-3.449a22.712,22.712,0,0,1,.146,4.759" transform="translate(-116.311 -51.3)" fill="#d6c5be"/>
            <path id="Trazado_700862" data-name="Trazado 700862" d="M352.327,151.4a43.967,43.967,0,0,1,.29,4.478s1.913,1.918,4.09-2.236a5.711,5.711,0,0,1-.226-4.047c.69-2.333-4.153,1.806-4.153,1.806" transform="translate(-116.722 -49.324)" fill="#eea886"/>
            <path id="Trazado_700863" data-name="Trazado 700863" d="M352.759,159.348V161.1l2.2-1.644Z" transform="translate(-116.865 -52.79)" fill="#eea886"/>
            <path id="Trazado_700864" data-name="Trazado 700864" d="M352.758,159.886l.915-1.131,3.08-3.069,1,.96Z" transform="translate(-116.865 -51.577)" fill="#d6c5be"/>
            <path id="Trazado_700865" data-name="Trazado 700865" d="M357.139,180.6c.867,4.151,7.139-.467,7.139-.467s-4.066-6.834-2.448-12.3c.012-.043.025-.086.038-.129q.155-.518.31-.986l.055-.168c.354-1.073.642-1.961.876-2.692h0c.723-2.248.932-2.988.932-2.988s-.31-3.5-2.038-3.883-3.568-.748-3.568-.748-3,3.842-3.12,5.568a156.544,156.544,0,0,0,1.824,18.789" transform="translate(-117.708 -51.762)" fill="#636363"/>
            <path id="Trazado_700866" data-name="Trazado 700866" d="M344.225,162.447a11.083,11.083,0,0,0,1.44,5.5s-.034,4.185-.086,5.643-.4,6.969-.4,6.969l1.8,1.053a.507.507,0,0,0,.759-.5c-.508-4.195-2.158-20.106,1.417-24.383l-1.593.55s-3.334,3.5-3.334,5.162" transform="translate(-114.035 -51.924)" fill="#636363"/>
            <path id="Trazado_700867" data-name="Trazado 700867" d="M350.388,158.3l-1.41.389,2.382-3.838Z" transform="translate(-115.612 -51.3)" fill="#fae6de"/>
            <path id="Trazado_700868" data-name="Trazado 700868" d="M354.126,158.755l1.287,1.689,2.631-4.384-.839-.373Z" transform="translate(-117.318 -51.577)" fill="#fae6de"/>
            <path id="Trazado_700869" data-name="Trazado 700869" d="M351.751,136.34a4.579,4.579,0,0,0-5.006,3.964,11.165,11.165,0,0,0,.26,1.739c.2.77-.587,2.972-.415,3.091a4.927,4.927,0,0,0,.9.295s.672,2.479,1.53,2.5a7.114,7.114,0,0,0,5.808-3.461c1.673-2.964,2.367-7.6-3.075-8.126" transform="translate(-114.813 -45.162)" fill="#eea886"/>
            <path id="Trazado_700870" data-name="Trazado 700870" d="M346.829,140.029a12.154,12.154,0,0,0,4.282,2c2.162.405,3.331,4.165,3.331,4.165s3.625-5.448,1.114-8.937-9-1.426-8.727,2.767" transform="translate(-114.897 -44.887)" fill="#344052"/>
            <path id="Trazado_700871" data-name="Trazado 700871" d="M354.556,144.853a.671.671,0,0,1,1.194-.422c.663.608-.36,2.567-.917,2.344s-.31-1.487-.277-1.922" transform="translate(-117.433 -47.763)" fill="#eea886"/>
            <path id="Trazado_700872" data-name="Trazado 700872" d="M352.32,152.66c.049.263.1.57.14.895a9.411,9.411,0,0,0,2.765-2.351,10.705,10.705,0,0,1-2.9,1.456" transform="translate(-116.719 -50.092)" fill="#a77860"/>
            <g id="Grupo_999268" data-name="Grupo 999268" transform="translate(194.382 102.124)" opacity="0.86">
              <g id="Grupo_999267" data-name="Grupo 999267">
                <g id="Grupo_999266" data-name="Grupo 999266" clip-path="url(#clip-path-5)">
                  <path id="Trazado_700873" data-name="Trazado 700873" d="M293.334,175.988l26.885.132a2.666,2.666,0,0,0,2.679-2.652l.089-17.939a2.667,2.667,0,0,0-2.653-2.68l-26.885-.132a2.666,2.666,0,0,0-2.679,2.653l-.089,17.939a2.666,2.666,0,0,0,2.653,2.679" transform="translate(-290.681 -152.718)" fill="#e0f1ff"/>
                </g>
              </g>
            </g>
            <path id="Trazado_700874" data-name="Trazado 700874" d="M311.686,175.542l13.7.068a1.75,1.75,0,0,0,1.757-1.739l.075-15.24a1.748,1.748,0,0,0-1.739-1.756l-13.7-.068a1.747,1.747,0,0,0-1.756,1.739l-.076,15.239a1.749,1.749,0,0,0,1.739,1.757" transform="translate(-102.682 -51.948)" fill="#a1d4ff"/>
            <path id="Trazado_700875" data-name="Trazado 700875" d="M295.6,183.4l7.92.039a.492.492,0,0,0,.493-.489l.009-1.877a.491.491,0,0,0-.489-.494l-7.92-.039a.491.491,0,0,0-.493.489l-.009,1.876a.491.491,0,0,0,.489.493" transform="translate(-97.767 -59.81)" fill="#a1d4ff"/>
            <path id="Trazado_700876" data-name="Trazado 700876" d="M295.383,178.828l8.368.041a.267.267,0,0,0,.268-.265v-.312a.267.267,0,0,0-.266-.269l-8.367-.041a.267.267,0,0,0-.269.266v.312a.266.266,0,0,0,.266.268" transform="translate(-97.769 -58.963)" fill="#a1d4ff"/>
            <path id="Trazado_700877" data-name="Trazado 700877" d="M339.314,176.094a1,1,0,0,1-.56-.039c-.42-.2-.693-.841-1.321-.656s-.5,2.25-.258,2.595,1.167.346,2.421-.193-.282-1.707-.282-1.707" transform="translate(-111.636 -58.097)" fill="#eea886"/>
            <path id="Trazado_700878" data-name="Trazado 700878" d="M335.654,175.305a20.448,20.448,0,0,0-2.092-.123,4.556,4.556,0,0,0-2.171.35c-.082.2.976.142,1.942.207.888.061.708.191.708.191s.049-.04-.927.074c-1.05.122-2.109.348-2.17.576-.03.111.019.171.411.187-.226.036-.245.1-.233.193.053.473,1.633.524,2.26.543-.482-.012-.835.027-.6.3.265.316,2.5.291,3.3.355.877.07-.425-2.857-.425-2.857" transform="translate(-109.635 -58.036)" fill="#eea886"/>
            <path id="Trazado_700879" data-name="Trazado 700879" d="M357.465,143.088c-.663,1.508-.262,3.142.895,3.651s2.631-.3,3.294-1.81.261-3.143-.895-3.651-2.632.3-3.294,1.81" transform="translate(-118.318 -46.753)" fill="#344052"/>
            <path id="Trazado_700880" data-name="Trazado 700880" d="M357.359,157.557a4.272,4.272,0,0,0-2.564,1.64,18.871,18.871,0,0,0-1.882,3.86c-.166.653-3.384,6.653-3.562,6.815s-1.953.027-3.329.162a30.268,30.268,0,0,1-5.765-.3l-.035,2.591s8.626,1.14,10.42.333c2.195-.986,7.506-8.4,7.506-8.4s2.755-5.213-.787-6.694" transform="translate(-112.711 -52.197)" fill="#636363"/>
            <path id="Trazado_700881" data-name="Trazado 700881" d="M360.638,173.024,364,170.332c.354-1.074.642-1.962.876-2.693,0,0-3.408,4.464-4.238,5.385" transform="translate(-119.475 -55.537)" fill="#1a598c"/>
            <path id="Trazado_700882" data-name="Trazado 700882" d="M344.54,171.281c.242-.256.482-.515.716-.772a18.62,18.62,0,0,1-.971-3.447,15.011,15.011,0,0,0,.255,4.219" transform="translate(-114.041 -55.346)" fill="#1a598c"/>
            <path id="Trazado_700883" data-name="Trazado 700883" d="M302.758,158.812a3.933,3.933,0,1,0-7.407,2.649c.03.083.062.165.1.245a3.894,3.894,0,0,0,.61.979,3.933,3.933,0,0,0,6.7-3.872m-2.71,4.1a2.949,2.949,0,0,1-3.24-.866,2.894,2.894,0,0,1-.457-.734c-.026-.06-.05-.122-.073-.184a2.949,2.949,0,1,1,3.77,1.783" transform="translate(-97.77 -51.748)" fill="#73c0ff"/>
            <path id="Trazado_700884" data-name="Trazado 700884" d="M296.329,159.258l-.94-.294a3.937,3.937,0,0,1,3.636-2.76l.029.984a2.954,2.954,0,0,0-2.726,2.07" transform="translate(-97.859 -51.749)" fill="#73c0ff"/>
            <path id="Trazado_700885" data-name="Trazado 700885" d="M296.351,162.681l-.9.393c-.035-.08-.067-.162-.1-.245a3.921,3.921,0,0,1-.051-2.5l.94.294a2.936,2.936,0,0,0,.039,1.872c.022.062.046.123.072.184" transform="translate(-97.77 -53.116)" fill="#73c0ff"/>
            <path id="Trazado_700886" data-name="Trazado 700886" d="M296.221,165.217a3.9,3.9,0,0,1-.61-.979l.9-.393a2.926,2.926,0,0,0,.457.734Z" transform="translate(-97.932 -54.28)" fill="#73c0ff"/>
            <path id="Trazado_700887" data-name="Trazado 700887" d="M298.364,169.9a1.616,1.616,0,0,0-1.569-1.071,1.593,1.593,0,0,0-.5.094,1.615,1.615,0,0,0-.977,2.064c.012.034.025.068.039.1a1.616,1.616,0,0,0,3-1.189m-1.113,1.684a1.212,1.212,0,0,1-1.519-.657c-.01-.025-.02-.051-.029-.076a1.211,1.211,0,0,1,.732-1.548,1.211,1.211,0,1,1,.816,2.281" transform="translate(-97.805 -55.93)" fill="#73c0ff"/>
            <path id="Trazado_700888" data-name="Trazado 700888" d="M295.724,170.079l-.386-.12a1.618,1.618,0,0,1,1.493-1.133l.012.4a1.207,1.207,0,0,0-1.119.849" transform="translate(-97.842 -55.93)" fill="#73c0ff"/>
            <path id="Trazado_700889" data-name="Trazado 700889" d="M295.733,171.485l-.371.161c-.014-.033-.027-.066-.039-.1a1.6,1.6,0,0,1-.021-1.025l.387.12a1.2,1.2,0,0,0,.015.769c.009.025.019.051.029.076" transform="translate(-97.805 -56.492)" fill="#73c0ff"/>
            <path id="Trazado_700890" data-name="Trazado 700890" d="M295.679,172.527a1.647,1.647,0,0,1-.251-.4l.371-.161a1.206,1.206,0,0,0,.188.3Z" transform="translate(-97.872 -56.969)" fill="#73c0ff"/>
            <rect id="Rectángulo_345172" data-name="Rectángulo 345172" width="2.854" height="10.499" transform="translate(75.54 64.332)" fill="#78c2ff"/>
            <rect id="Rectángulo_345173" data-name="Rectángulo 345173" width="2.855" height="11.558" transform="translate(79.601 63.273)" fill="#78c2ff"/>
            <rect id="Rectángulo_345174" data-name="Rectángulo 345174" width="2.854" height="9.359" transform="translate(83.718 65.472)" fill="#78c2ff"/>
            <rect id="Rectángulo_345175" data-name="Rectángulo 345175" width="2.854" height="13.696" transform="translate(87.834 61.135)" fill="#78c2ff"/>
            <rect id="Rectángulo_345176" data-name="Rectángulo 345176" width="2.854" height="12.332" transform="translate(92.153 62.499)" fill="#78c2ff"/>
          </g>
        </g>
      </g>
    </g>
  </g>
</svg>
