<svg xmlns="http://www.w3.org/2000/svg" width="346.406" height="214" viewBox="0 0 346.406 214">
  <g id="Grupo_933384" data-name="Grupo 933384" transform="translate(-37.225 -66.554)">
    <g id="Grupo_933309" data-name="Grupo 933309" transform="translate(57.542 66.554)">
      <rect id="Rectángulo_329173" data-name="Rectángulo 329173" width="24.193" height="142.992" transform="translate(313.471 195.556) rotate(180)" fill="#e6faff"/>
      <rect id="Rectángulo_329174" data-name="Rectángulo 329174" width="24.193" height="172.32" transform="translate(145.596 195.556) rotate(180)" fill="#e6faff"/>
      <rect id="Rectángulo_329175" data-name="Rectángulo 329175" width="24.194" height="172.32" transform="translate(46.124 195.556) rotate(180)" fill="#e6faff"/>
      <rect id="Rectángulo_329176" data-name="Rectángulo 329176" width="24.193" height="151.956" transform="translate(24.193 195.556) rotate(180)" fill="#e6faff"/>
      <rect id="Rectángulo_329177" data-name="Rectángulo 329177" width="7.658" height="189.29" transform="translate(129.061 195.556) rotate(180)" fill="#e6faff"/>
      <rect id="Rectángulo_329178" data-name="Rectángulo 329178" width="24.193" height="156.22" transform="translate(295.021 195.556) rotate(180)" fill="#e6faff"/>
      <path id="Trazado_670543" data-name="Trazado 670543" d="M258.9,272.37h24.193V121.719L258.9,131.989Z" transform="translate(-98.768 -76.813)" fill="#e6faff"/>
      <rect id="Rectángulo_329179" data-name="Rectángulo 329179" width="24.194" height="128.894" transform="translate(279.531 195.556) rotate(180)" fill="#e6faff"/>
      <rect id="Rectángulo_329180" data-name="Rectángulo 329180" width="24.194" height="128.894" transform="translate(166.221 195.556) rotate(180)" fill="#e6faff"/>
      <rect id="Rectángulo_329181" data-name="Rectángulo 329181" width="24.194" height="176.41" transform="translate(258.818 195.556) rotate(180)" fill="#e6faff"/>
      <rect id="Rectángulo_329182" data-name="Rectángulo 329182" width="24.193" height="162.486" transform="translate(81.544 195.556) rotate(180)" fill="#e6faff"/>
      <rect id="Rectángulo_329183" data-name="Rectángulo 329183" width="24.193" height="131.939" transform="translate(65.879 195.556) rotate(180)" fill="#e6faff"/>
      <rect id="Rectángulo_329184" data-name="Rectángulo 329184" width="24.194" height="164.749" transform="translate(245.59 195.556) rotate(180)" fill="#e6faff"/>
      <rect id="Rectángulo_329185" data-name="Rectángulo 329185" width="24.194" height="146.995" transform="translate(123.143 195.556) rotate(180)" fill="#e6faff"/>
      <rect id="Rectángulo_329186" data-name="Rectángulo 329186" width="24.194" height="146.995" transform="translate(123.143 195.556) rotate(180)" fill="#e6faff"/>
      <path id="Trazado_670544" data-name="Trazado 670544" d="M160.006,266.325H184.2V108.1L160.006,89.219Z" transform="translate(-80.376 -70.769)" fill="#e6faff"/>
      <rect id="Rectángulo_329187" data-name="Rectángulo 329187" width="24.194" height="140.381" transform="translate(224.529 195.556) rotate(180)" fill="#e6faff"/>
      <rect id="Rectángulo_329188" data-name="Rectángulo 329188" width="20.19" height="177.106" transform="translate(187.108 18.45)" fill="#e6faff"/>
      <rect id="Rectángulo_329189" data-name="Rectángulo 329189" width="11.836" height="195.556" transform="translate(191.285)" fill="#e6faff"/>
      <rect id="Rectángulo_329190" data-name="Rectángulo 329190" width="28.197" height="162.486" transform="translate(183.105 33.07)" fill="#e6faff"/>
    </g>
    <ellipse id="Elipse_5242" data-name="Elipse 5242" cx="173.203" cy="14.874" rx="173.203" ry="14.874" transform="translate(37.225 250.805)" fill="#7dd371"/>
    <g id="Grupo_933310" data-name="Grupo 933310" transform="translate(61.007 250.169)">
      <path id="Trazado_670545" data-name="Trazado 670545" d="M88.013,306.788c-11.913,0-21.572,1.236-21.572,2.759S76.1,312.3,88.013,312.3s21.572-1.235,21.572-2.758S99.927,306.788,88.013,306.788Z" transform="translate(-66.441 -294.848)" fill="#69c458"/>
      <path id="Trazado_670546" data-name="Trazado 670546" d="M296.961,296.8c-7.6,0-14.956.077-21.927.222.491-.259.754-.526.754-.8,0-2.267-17.7-4.106-39.535-4.106s-39.534,1.839-39.534,4.106c0,1.84,11.651,3.4,27.707,3.919q-1.838.28-3.275.574c-11.236-.744-27.757-1.215-46.192-1.215-33.851,0-61.293,1.587-61.293,3.543s27.442,3.543,61.293,3.543c8.479,0,16.555-.1,23.9-.28-2.487.415-3.973.936-3.973,1.5,0,1.349,8.389,2.442,18.737,2.442s18.737-1.093,18.737-2.442c0-1.088-5.46-2.009-13-2.325,1.588-.1,3.088-.2,4.482-.3,12.757,2.027,40.7,3.434,73.121,3.434,44.461,0,80.5-2.645,80.5-5.907S341.422,296.8,296.961,296.8Z" transform="translate(-75.224 -292.12)" fill="#69c458"/>
      <ellipse id="Elipse_5243" data-name="Elipse 5243" cx="26.384" cy="2.934" rx="26.384" ry="2.934" transform="translate(229.092 16.473)" fill="#69c458"/>
    </g>
    <g id="Grupo_933338" data-name="Grupo 933338" transform="translate(83.875 67.705)">
      <g id="Grupo_933317" data-name="Grupo 933317" transform="translate(28.571 63.559)">
        <path id="Trazado_670547" data-name="Trazado 670547" d="M202.533,201.406s.489,3.479,1.252,3.53,6.97.559,6.767,0-2.57-.814-4.007-2.035a5.768,5.768,0,0,1-1.743-2.086Z" transform="translate(-143.19 -156.234)" fill="#ed8772"/>
        <path id="Trazado_670548" data-name="Trazado 670548" d="M171.955,242.965s3.409,6.594,2.493,7.306-11.114,4.782-11.2,3.714,2.25-2.493,3.98-4.223,2.187-6.207,2.187-6.207Z" transform="translate(-135.883 -164.073)" fill="#232538"/>
        <path id="Trazado_670549" data-name="Trazado 670549" d="M140.572,236.253s-3.561,2.633-4.935,2.537-6.105-1.425-6,0,7.173,6.72,8.191,6.109,4.477-6.767,4.477-6.767Z" transform="translate(-129.632 -162.824)" fill="#232538"/>
        <path id="Trazado_670550" data-name="Trazado 670550" d="M171.493,194.191s-17.247,10.683-17.959,12.718-12.516,20.721-11.905,21.808,2.849,2.918,3.867,2,9.972-14.927,11.5-16.927,1.425-2.813,3.053-3.526,5.583-3.256,5.583-3.256l11.207-10.888-.509-1.425Z" transform="translate(-131.859 -155.002)" fill="#534741"/>
        <path id="Trazado_670551" data-name="Trazado 670551" d="M188.925,195.185a9.409,9.409,0,0,1-2.979,8.246c-3.94,3.867-13.2,10.481-13.2,11.5s1.425,19.435.712,19.943-4.274,1.494-4.579.493-2.646-22.128-2.137-24.487S180.2,195.193,180.2,195.193Z" transform="translate(-136.52 -155.187)" fill="#736357"/>
        <path id="Trazado_670552" data-name="Trazado 670552" d="M181.7,158.987s.831.054.526-.862a1.871,1.871,0,0,1,.95-2.069c.576-.373,1.425-.712,1.56-.543s2.51,1.086,1.8,2.68-3.245,2.16-3.245,2.16Z" transform="translate(-139.315 -147.8)" fill="#ed8772"/>
        <path id="Trazado_670553" data-name="Trazado 670553" d="M183.884,156.1l1.051,2.951,3.8-1.475-1.108-3.889Z" transform="translate(-139.722 -147.468)" fill="#232538"/>
        <path id="Trazado_670554" data-name="Trazado 670554" d="M193,154.523l5.054,2.374a1.512,1.512,0,0,1-.662,1.822c-1.119.875-1.577,1.231-.865,1.231s1.762.153,1.619,1.018-.551,1.018.518,1.526,1.882.407,1.628,1.476-1.171,1.221-.357,2.137-.661,3.081-.661,3.081-5.953-1.453-6.817-4.709a32.488,32.488,0,0,1-1.323-7.326C190.979,154.659,193,154.523,193,154.523Z" transform="translate(-141.068 -147.624)" fill="#232538"/>
        <path id="Trazado_670555" data-name="Trazado 670555" d="M188.879,162.078a6.439,6.439,0,0,0,.538-2.118c-.1-.576-.135-.576-.78-.814s-2.476-.068-1.866-2.306a25.4,25.4,0,0,1,2.069-4.817l3.324,2.035s-.916,2.68,0,2.409,1.8-.543,2.137.169-.373,1.3-1.018,1.618a1.309,1.309,0,0,0-.678,1.638c.2.678.068.746-.136,1.526s.829,1.628.829,1.628-1.066,4.172-2.339,4.528-3.714-.865-3.815-2.544S188.879,162.078,188.879,162.078Z" transform="translate(-140.236 -147.159)" fill="#ed8772"/>
        <g id="Grupo_933311" data-name="Grupo 933311" transform="translate(33.77 13.917)">
          <path id="Trazado_670556" data-name="Trazado 670556" d="M199.365,194.167c-.35,0-2.743.611-3.1,0s-4.225-20.408-4.225-20.408-1.018,5.193-1.376,7.945,0,7.22-.912,7.522a57.929,57.929,0,0,1-8.726.008H181a15.247,15.247,0,0,1-2.646-.309c-1.425-.456-2.239-.765-1.937-1.473a83.927,83.927,0,0,0,1.84-8.189c.3-1.986-.464-5.039-.106-6.211s.513-1.628.513-1.628-6.374,4.689-7.334,4.306,1.53-5.356,3.46-7.6a35.375,35.375,0,0,1,6.341-4.982l4.86,1s-.106,3.565,1.066,3.411,3.354-2.442,3.354-2.442,4.477.5,4.786,1.425S199.723,194.167,199.365,194.167Z" transform="translate(-171.117 -163.145)" fill="#f4bd5b"/>
        </g>
        <g id="Grupo_933312" data-name="Grupo 933312" transform="translate(31.583 11.095)">
          <path id="Trazado_670557" data-name="Trazado 670557" d="M181.214,161.571s-1.985-2.29-2.442-1.832-8.09,9.412-9.209,10.786-1.475,3.2-.763,4.324,3.307-.152,4.324-1.068S181.214,161.571,181.214,161.571Z" transform="translate(-168.431 -159.679)" fill="#f4bd5b"/>
        </g>
        <g id="Grupo_933313" data-name="Grupo 933313" transform="translate(38.996 19.296)">
          <path id="Trazado_670558" data-name="Trazado 670558" d="M179.854,172.653l1.068-2.9-3.385,4.535Z" transform="translate(-177.537 -169.753)" fill="#ef8a5e"/>
        </g>
        <g id="Grupo_933314" data-name="Grupo 933314" transform="translate(43.678 21.26)">
          <path id="Trazado_670559" data-name="Trazado 670559" d="M194.783,172.165l-.48,3.272s-1.018,5.193-1.376,7.945,0,7.22-.912,7.522a57.928,57.928,0,0,1-8.726.008c.374-.041,4.542-.545,6.423-2.548,1.962-2.1,1.832-6.781-.952-6.716a10.952,10.952,0,0,1-5.47-1.685c.35.122,4.127,1.376,7.1.5C193.31,179.621,194.628,173,194.783,172.165Z" transform="translate(-183.289 -172.165)" fill="#ef8a5e"/>
        </g>
        <g id="Grupo_933315" data-name="Grupo 933315" transform="translate(47.065)">
          <path id="Trazado_670560" data-name="Trazado 670560" d="M188.99,150.912s-2-.932-1.442-1.594,1.933,0,1.933,0,2.493-4.579,6.869-2.9,3.154,9,1.018,8.9c0,0-5.867-2.646-6.928-3.2A3.828,3.828,0,0,1,188.99,150.912Z" transform="translate(-187.45 -146.048)" fill="#ffe045"/>
        </g>
        <g id="Grupo_933316" data-name="Grupo 933316" transform="translate(36.276 13.917)">
          <path id="Trazado_670561" data-name="Trazado 670561" d="M180.3,165.355l-6.105,9.07,9.032-10.966-1.524-.314Z" transform="translate(-174.196 -163.145)" fill="#ef8a5e"/>
        </g>
      </g>
      <g id="Grupo_933322" data-name="Grupo 933322" transform="translate(144.967 19.005)">
        <path id="Trazado_670562" data-name="Trazado 670562" d="M315.534,251.034h-6.191l1.615-86.542.1-5.641.342-18.109h2.061l.26,13.991.357,19.113Z" transform="translate(-279.451 -100.507)" fill="#c5deef"/>
        <path id="Trazado_670563" data-name="Trazado 670563" d="M315.532,251.033h-6.186l1.615-86.539.445-23.748h1.083c-.106,23.346-.4,92.573-.05,99.881C312.854,249.43,315.532,251.033,315.532,251.033Z" transform="translate(-279.451 -100.508)" fill="#93bbd1"/>
        <path id="Trazado_670564" data-name="Trazado 670564" d="M314.119,154.734l-2.664,4.117.342-18.109h2.061Z" transform="translate(-279.843 -100.507)" fill="#76a3b7"/>
        <g id="Grupo_933321" data-name="Grupo 933321">
          <g id="Grupo_933319" data-name="Grupo 933319">
            <path id="Trazado_670565" data-name="Trazado 670565" d="M313.049,126.639l-.847.013-.849.008a1.024,1.024,0,0,1-.857-.585l-.029-.048,0-.006-1.8-3.167-.628-1.107a2.017,2.017,0,0,1-.234-1.123l2.086-28.048a1.323,1.323,0,0,1,.763-1.223.8.8,0,0,1,.2-.037c.006,0,.014,0,.02,0,.513-.01.969.518,1.072,1.234l4.2,27.98a1.962,1.962,0,0,1-.153,1.125l-.775,1.592-.07.15-1.289,2.641a1.082,1.082,0,0,1-.449.5A.7.7,0,0,1,313.049,126.639Z" transform="translate(-279.164 -91.315)" fill="#c5deef"/>
            <path id="Trazado_670566" data-name="Trazado 670566" d="M345.566,156.929a1.238,1.238,0,0,1-.324.052,1.789,1.789,0,0,1-.831-.164L318.1,145.066a2.159,2.159,0,0,1-.9-.744l-.777-1.2-1.766-2.711-.173-.272a.957.957,0,0,1-.116-1.007l.418-.716.413-.715a.9.9,0,0,1,.783-.4l0,.006a.444.444,0,0,1,.151-.01l4.455.271.527.03a2.164,2.164,0,0,1,.385.069,2.21,2.21,0,0,1,.7.347l23.217,17.055c.6.443.851,1.08.6,1.512A.8.8,0,0,1,345.566,156.929Z" transform="translate(-280.368 -99.867)" fill="#c5deef"/>
            <path id="Trazado_670567" data-name="Trazado 670567" d="M272.726,156.178a.61.61,0,0,1-.06-.135,1.276,1.276,0,0,1,.623-1.364l22.79-16.469a2,2,0,0,1,1.082-.39l.006,0,2.727-.094,1.734-.059.5-.013a1.025,1.025,0,0,1,.948.422l.436.725.436.726a.967.967,0,0,1-.09,1.009l-.157.249-.006,0-1.416,2.226-1.039,1.632a1.915,1.915,0,0,1-.875.72l-12.317,5.246-13.709,5.837A1.272,1.272,0,0,1,272.726,156.178Z" transform="translate(-272.621 -99.932)" fill="#c5deef"/>
            <g id="Grupo_933318" data-name="Grupo 933318" transform="translate(15.43 0)">
              <path id="Trazado_670568" data-name="Trazado 670568" d="M313.407,126.538a.7.7,0,0,1-.357.1l-.847.013-.849.008a1.024,1.024,0,0,1-.857-.585l-.029-.048,0-.006-1.8-3.167-.628-1.107a2.017,2.017,0,0,1-.234-1.123l2.086-28.048a1.323,1.323,0,0,1,.763-1.223.8.8,0,0,1,.2-.037c-.447,6.266-1.057,21.289,1.472,27.657a10.691,10.691,0,0,0,2.89,4.274l-.07.15-1.289,2.641A1.082,1.082,0,0,1,313.407,126.538Z" transform="translate(-294.593 -91.315)" fill="#93bbd1"/>
              <path id="Trazado_670569" data-name="Trazado 670569" d="M303.893,145.361l-12.317,5.246c6.212-3.371,11.359-7.183,11.88-10.705a4.166,4.166,0,0,0,.045-.533,12.521,12.521,0,0,0-.082-1.646l1.734-.059.5-.013a1.025,1.025,0,0,1,.948.422l.436.725.435.726a.967.967,0,0,1-.09,1.009l-.157.249-.006,0-1.416,2.226-1.039,1.632A1.915,1.915,0,0,1,303.893,145.361Z" transform="translate(-291.576 -99.932)" fill="#93bbd1"/>
              <path id="Trazado_670570" data-name="Trazado 670570" d="M345.242,156.981a1.789,1.789,0,0,1-.831-.164L318.1,145.066a2.159,2.159,0,0,1-.9-.744l-.777-1.2-1.766-2.711-.173-.272a.957.957,0,0,1-.116-1.007l.418-.716.413-.715a.9.9,0,0,1,.783-.4l0,.006a.444.444,0,0,1,.151-.01l4.455.271.527.03a2.164,2.164,0,0,1,.385.069c-.606,2.583-.094,5.892,4.478,8.623C332.714,150.31,341.346,154.924,345.242,156.981Z" transform="translate(-295.797 -99.867)" fill="#93bbd1"/>
            </g>
          </g>
          <g id="Grupo_933320" data-name="Grupo 933320" transform="translate(24.545 31.54)">
            <path id="Trazado_670571" data-name="Trazado 670571" d="M313.248,133.845l-.847.013-.849.008a1.024,1.024,0,0,1-.857-.585l-.029-.048,0-.006-1.8-3.167a11.372,11.372,0,0,0,6.478.541l-1.289,2.641a1.082,1.082,0,0,1-.449.5A.7.7,0,0,1,313.248,133.845Z" transform="translate(-303.907 -130.06)" fill="#76a3b7"/>
            <path id="Trazado_670572" data-name="Trazado 670572" d="M307.889,143.009a10.447,10.447,0,0,0-2.351-3.106,18.348,18.348,0,0,0-2.764-2.085l2.727-.094,1.734-.059.5-.013a1.025,1.025,0,0,1,.948.422l.436.725.435.726a.967.967,0,0,1-.09,1.009l-.157.249-.006,0Z" transform="translate(-302.774 -131.472)" fill="#76a3b7"/>
            <path id="Trazado_670573" data-name="Trazado 670573" d="M316.423,143.122l-1.766-2.711-.173-.272a.957.957,0,0,1-.116-1.007l.418-.716.413-.715a.9.9,0,0,1,.783-.4l0,.006a.444.444,0,0,1,.151-.01l4.455.271A19.492,19.492,0,0,0,316.423,143.122Z" transform="translate(-304.913 -131.406)" fill="#76a3b7"/>
          </g>
        </g>
        <path id="Trazado_670574" data-name="Trazado 670574" d="M315.726,137.361a3.1,3.1,0,0,1-.217,1.147c-.031.078-.062.151-.1.229a2.809,2.809,0,0,1-.389.618c-.043.055-.087.1-.13.151v.006l-.031.03a2.2,2.2,0,0,1-.173.174,3.365,3.365,0,0,1-1.559.816,1.466,1.466,0,0,1-.167.03,3.14,3.14,0,0,1-.581.054,3.35,3.35,0,0,1-3.353-3.254.268.268,0,0,1,.007-.072v-.072a1.77,1.77,0,0,1,.012-.186,3.04,3.04,0,0,1,.117-.589c.012-.048.031-.09.043-.132a3.2,3.2,0,0,1,.768-1.207c.037-.042.08-.078.117-.114s.055-.048.081-.072c.05-.042.093-.078.142-.114s.074-.054.117-.084a1.94,1.94,0,0,1,.26-.163c.062-.036.124-.066.186-.1.007-.006.012-.011.019-.011a3.321,3.321,0,0,1,1.485-.343,2.919,2.919,0,0,1,.612.06H313a3.323,3.323,0,0,1,2.585,2.252A3.2,3.2,0,0,1,315.726,137.361Z" transform="translate(-279.392 -99.273)" fill="#c5deef"/>
        <path id="Trazado_670575" data-name="Trazado 670575" d="M315.51,138.587c-.031.078-.062.151-.1.229a3.269,3.269,0,0,1-.389.618c-.043.055-.087.1-.13.151v.006l-.031.03a2.2,2.2,0,0,1-.173.174,3.365,3.365,0,0,1-1.559.816,1.473,1.473,0,0,1-.167.03,3.14,3.14,0,0,1-.581.054,3.351,3.351,0,0,1-3.353-3.254v-.072a.274.274,0,0,1,.007-.072,1.77,1.77,0,0,1,.012-.186,3.04,3.04,0,0,1,.117-.589c.012-.048.031-.09.043-.132a3.2,3.2,0,0,1,.768-1.207c.037-.042.08-.078.117-.114s.055-.048.081-.072c.05-.042.093-.078.142-.114s.074-.054.117-.084a1.94,1.94,0,0,1,.26-.163c.062-.036.124-.066.186-.1.007-.006.012-.011.019-.011a3.082,3.082,0,0,0-.223,1.147,3.308,3.308,0,0,0,3.353,3.254A3.4,3.4,0,0,0,315.51,138.587Z" transform="translate(-279.392 -99.351)" fill="#93bbd1"/>
      </g>
      <g id="Grupo_933327" data-name="Grupo 933327" transform="translate(0 48.646)">
        <path id="Trazado_670576" data-name="Trazado 670576" d="M131.192,264.169H125.9l1.38-73.929.089-4.819.292-15.47h1.761l.222,11.952.305,16.327Z" transform="translate(-100.368 -135.58)" fill="#c5deef"/>
        <path id="Trazado_670577" data-name="Trazado 670577" d="M131.19,264.169h-5.284l1.379-73.927.38-20.287h.925c-.09,19.944-.338,79.081-.042,85.324C128.9,262.8,131.19,264.169,131.19,264.169Z" transform="translate(-100.368 -135.581)" fill="#93bbd1"/>
        <path id="Trazado_670578" data-name="Trazado 670578" d="M129.983,181.9l-2.276,3.517.292-15.47h1.761Z" transform="translate(-100.703 -135.58)" fill="#76a3b7"/>
        <g id="Grupo_933326" data-name="Grupo 933326">
          <g id="Grupo_933324" data-name="Grupo 933324">
            <path id="Trazado_670579" data-name="Trazado 670579" d="M129.069,157.9l-.724.012-.724.007a.876.876,0,0,1-.733-.5l-.025-.042,0,0-1.536-2.706-.536-.945a1.722,1.722,0,0,1-.2-.96l1.782-23.961a1.132,1.132,0,0,1,.652-1.045.655.655,0,0,1,.17-.032s.011,0,.016,0c.438-.008.828.442.917,1.054l3.586,23.9a1.672,1.672,0,0,1-.131.961L130.92,155l-.059.129-1.1,2.255a.917.917,0,0,1-.383.429A.591.591,0,0,1,129.069,157.9Z" transform="translate(-100.122 -127.727)" fill="#c5deef"/>
            <path id="Trazado_670580" data-name="Trazado 670580" d="M156.847,183.78a1.07,1.07,0,0,1-.277.044,1.532,1.532,0,0,1-.711-.14l-22.476-10.038a1.84,1.84,0,0,1-.769-.636l-.663-1.026-1.508-2.315-.148-.232a.818.818,0,0,1-.1-.86l.357-.612.353-.611a.764.764,0,0,1,.668-.339l0,0a.36.36,0,0,1,.129-.008l3.806.231.45.026a1.825,1.825,0,0,1,.329.059,1.874,1.874,0,0,1,.6.3l19.834,14.569c.513.379.727.923.514,1.292A.681.681,0,0,1,156.847,183.78Z" transform="translate(-101.151 -135.033)" fill="#c5deef"/>
            <path id="Trazado_670581" data-name="Trazado 670581" d="M94.623,183.137a.5.5,0,0,1-.051-.115,1.09,1.09,0,0,1,.532-1.166l19.468-14.069a1.715,1.715,0,0,1,.924-.333l.006,0,2.329-.081,1.481-.05.431-.012a.878.878,0,0,1,.81.361l.372.62.373.619a.828.828,0,0,1-.077.862l-.134.212,0,0-1.21,1.9-.887,1.394a1.631,1.631,0,0,1-.747.615l-10.522,4.482L96,183.365A1.086,1.086,0,0,1,94.623,183.137Z" transform="translate(-94.533 -135.089)" fill="#c5deef"/>
            <g id="Grupo_933323" data-name="Grupo 933323" transform="translate(13.18 0)">
              <path id="Trazado_670582" data-name="Trazado 670582" d="M129.375,157.817a.591.591,0,0,1-.305.086l-.724.012-.724.007a.876.876,0,0,1-.733-.5l-.025-.042,0,0-1.536-2.706-.536-.945a1.722,1.722,0,0,1-.2-.96l1.782-23.961a1.132,1.132,0,0,1,.652-1.045.656.656,0,0,1,.17-.032c-.382,5.352-.9,18.186,1.258,23.626a9.132,9.132,0,0,0,2.468,3.651l-.059.129-1.1,2.255A.917.917,0,0,1,129.375,157.817Z" transform="translate(-113.302 -127.728)" fill="#93bbd1"/>
              <path id="Trazado_670583" data-name="Trazado 670583" d="M121.247,173.9l-10.522,4.482c5.307-2.879,9.7-6.136,10.149-9.146a3.661,3.661,0,0,0,.038-.455,10.578,10.578,0,0,0-.071-1.406l1.481-.05.431-.012a.878.878,0,0,1,.81.361l.372.62.373.619a.828.828,0,0,1-.077.862l-.134.212,0,0-1.21,1.9-.887,1.394A1.631,1.631,0,0,1,121.247,173.9Z" transform="translate(-110.725 -135.089)" fill="#93bbd1"/>
              <path id="Trazado_670584" data-name="Trazado 670584" d="M156.57,183.824a1.532,1.532,0,0,1-.711-.14l-22.476-10.038a1.84,1.84,0,0,1-.769-.636l-.663-1.026-1.508-2.315-.148-.232a.818.818,0,0,1-.1-.86l.357-.612.353-.611a.764.764,0,0,1,.668-.339l0,0a.36.36,0,0,1,.129-.008l3.806.231.45.026a1.825,1.825,0,0,1,.329.059c-.519,2.206-.081,5.032,3.825,7.366C145.868,178.125,153.242,182.067,156.57,183.824Z" transform="translate(-114.331 -135.034)" fill="#93bbd1"/>
            </g>
          </g>
          <g id="Grupo_933325" data-name="Grupo 933325" transform="translate(20.968 26.943)">
            <path id="Trazado_670585" data-name="Trazado 670585" d="M129.239,164.059l-.724.012-.724.007a.876.876,0,0,1-.733-.5l-.025-.042,0,0-1.536-2.706a9.724,9.724,0,0,0,5.535.463l-1.1,2.255a.917.917,0,0,1-.383.429A.591.591,0,0,1,129.239,164.059Z" transform="translate(-121.26 -160.826)" fill="#76a3b7"/>
            <path id="Trazado_670586" data-name="Trazado 670586" d="M124.661,171.888a8.912,8.912,0,0,0-2.007-2.655,15.763,15.763,0,0,0-2.361-1.78l2.329-.081,1.481-.05.431-.012a.878.878,0,0,1,.81.361l.372.62.373.619a.828.828,0,0,1-.077.862l-.134.212,0,0Z" transform="translate(-120.292 -162.032)" fill="#76a3b7"/>
            <path id="Trazado_670587" data-name="Trazado 670587" d="M131.951,171.984l-1.508-2.315-.148-.232a.818.818,0,0,1-.1-.86l.357-.612.353-.611a.764.764,0,0,1,.668-.339l0,0a.36.36,0,0,1,.129-.008l3.806.231A16.651,16.651,0,0,0,131.951,171.984Z" transform="translate(-122.119 -161.976)" fill="#76a3b7"/>
          </g>
        </g>
        <path id="Trazado_670588" data-name="Trazado 670588" d="M131.356,167.064a2.646,2.646,0,0,1-.186.98c-.026.066-.053.128-.084.195a2.444,2.444,0,0,1-.333.528c-.037.046-.074.087-.111.129v0l-.026.025c-.048.051-.1.1-.148.149a2.883,2.883,0,0,1-1.332.7,1.243,1.243,0,0,1-.142.025,2.659,2.659,0,0,1-.5.046,2.863,2.863,0,0,1-2.865-2.78.268.268,0,0,1,0-.062v-.061c0-.051.006-.108.011-.16a2.566,2.566,0,0,1,.1-.5c.011-.042.026-.077.037-.113a2.737,2.737,0,0,1,.655-1.031c.032-.036.069-.066.1-.1s.047-.042.068-.062c.042-.036.079-.067.121-.1s.063-.046.1-.072a1.561,1.561,0,0,1,.221-.138c.053-.031.106-.056.159-.082.006,0,.011-.01.016-.01a2.827,2.827,0,0,1,1.268-.293,2.513,2.513,0,0,1,.523.051h.006a2.839,2.839,0,0,1,2.208,1.924A2.713,2.713,0,0,1,131.356,167.064Z" transform="translate(-100.317 -134.526)" fill="#c5deef"/>
        <path id="Trazado_670589" data-name="Trazado 670589" d="M131.171,168.111c-.026.066-.053.128-.084.195a2.836,2.836,0,0,1-.333.528c-.037.046-.074.087-.111.129v0l-.026.025c-.048.051-.1.1-.148.149a2.883,2.883,0,0,1-1.332.7,1.246,1.246,0,0,1-.142.025,2.66,2.66,0,0,1-.5.046,2.863,2.863,0,0,1-2.865-2.78v-.062a.258.258,0,0,1,0-.061c0-.051.006-.108.011-.16a2.566,2.566,0,0,1,.1-.5c.011-.042.026-.077.037-.113a2.737,2.737,0,0,1,.655-1.031c.032-.036.069-.066.1-.1s.047-.042.068-.062c.042-.036.079-.067.121-.1s.063-.046.1-.072a1.56,1.56,0,0,1,.221-.138c.053-.031.106-.056.159-.082.006,0,.011-.01.016-.01a2.623,2.623,0,0,0-.19.979A2.825,2.825,0,0,0,129.9,168.4,2.915,2.915,0,0,0,131.171,168.111Z" transform="translate(-100.317 -134.593)" fill="#93bbd1"/>
      </g>
      <g id="Grupo_933332" data-name="Grupo 933332" transform="translate(222.663 36.044)">
        <path id="Trazado_670590" data-name="Trazado 670590" d="M410.981,271.966H404.79l1.615-86.542.1-5.641.342-18.109h2.061l.26,13.991.357,19.113Z" transform="translate(-374.898 -121.439)" fill="#c5deef"/>
        <path id="Trazado_670591" data-name="Trazado 670591" d="M410.979,271.965h-6.186l1.614-86.539.445-23.748h1.083c-.105,23.346-.4,92.573-.049,99.881C408.3,270.362,410.979,271.965,410.979,271.965Z" transform="translate(-374.898 -121.44)" fill="#93bbd1"/>
        <path id="Trazado_670592" data-name="Trazado 670592" d="M409.565,175.666l-2.664,4.117.342-18.109H409.3Z" transform="translate(-375.29 -121.439)" fill="#76a3b7"/>
        <g id="Grupo_933331" data-name="Grupo 933331">
          <g id="Grupo_933329" data-name="Grupo 933329">
            <path id="Trazado_670593" data-name="Trazado 670593" d="M408.5,147.571l-.846.013-.849.008a1.024,1.024,0,0,1-.857-.585l-.029-.048,0-.006-1.8-3.167-.628-1.107a2.017,2.017,0,0,1-.234-1.123l2.086-28.048a1.322,1.322,0,0,1,.763-1.223.766.766,0,0,1,.2-.038c.006,0,.014,0,.02,0,.512-.01.969.518,1.072,1.234l4.2,27.98a1.962,1.962,0,0,1-.152,1.125l-.775,1.592-.07.15-1.289,2.641a1.082,1.082,0,0,1-.449.5A.691.691,0,0,1,408.5,147.571Z" transform="translate(-374.61 -112.246)" fill="#c5deef"/>
            <path id="Trazado_670594" data-name="Trazado 670594" d="M441.013,177.861a1.242,1.242,0,0,1-.324.052,1.794,1.794,0,0,1-.832-.164L413.547,166a2.154,2.154,0,0,1-.9-.744l-.777-1.2-1.766-2.711-.173-.271a.962.962,0,0,1-.116-1.008l.419-.716.413-.715a.894.894,0,0,1,.783-.4l0,.006a.443.443,0,0,1,.151-.01l4.455.271.527.03a2.164,2.164,0,0,1,.385.069,2.21,2.21,0,0,1,.7.347L440.869,176c.6.443.851,1.08.6,1.512A.8.8,0,0,1,441.013,177.861Z" transform="translate(-375.814 -120.799)" fill="#c5deef"/>
            <path id="Trazado_670595" data-name="Trazado 670595" d="M368.173,177.11a.606.606,0,0,1-.06-.135,1.274,1.274,0,0,1,.623-1.364l22.79-16.469a2,2,0,0,1,1.082-.39l.006,0,2.727-.094,1.733-.059.5-.013a1.026,1.026,0,0,1,.948.422l.435.725.436.726a.969.969,0,0,1-.09,1.009l-.158.249-.006,0-1.416,2.226-1.038,1.631a1.915,1.915,0,0,1-.875.721L383.5,171.54l-13.708,5.837A1.272,1.272,0,0,1,368.173,177.11Z" transform="translate(-368.068 -120.864)" fill="#c5deef"/>
            <g id="Grupo_933328" data-name="Grupo 933328" transform="translate(15.429 0)">
              <path id="Trazado_670596" data-name="Trazado 670596" d="M408.854,147.47a.691.691,0,0,1-.358.1l-.846.013-.849.008a1.024,1.024,0,0,1-.857-.585l-.029-.048,0-.006-1.8-3.167-.628-1.107a2.017,2.017,0,0,1-.234-1.123l2.086-28.048a1.322,1.322,0,0,1,.763-1.223.767.767,0,0,1,.2-.038c-.447,6.266-1.058,21.289,1.472,27.657a10.691,10.691,0,0,0,2.89,4.274l-.07.15-1.289,2.641A1.082,1.082,0,0,1,408.854,147.47Z" transform="translate(-390.039 -112.247)" fill="#93bbd1"/>
              <path id="Trazado_670597" data-name="Trazado 670597" d="M399.34,166.293l-12.318,5.246c6.212-3.371,11.359-7.183,11.881-10.705a4.172,4.172,0,0,0,.045-.533,12.521,12.521,0,0,0-.082-1.646l1.733-.059.5-.013a1.026,1.026,0,0,1,.948.422l.435.725.436.726a.969.969,0,0,1-.09,1.009l-.158.249-.006,0-1.416,2.226-1.038,1.631A1.915,1.915,0,0,1,399.34,166.293Z" transform="translate(-387.022 -120.864)" fill="#93bbd1"/>
              <path id="Trazado_670598" data-name="Trazado 670598" d="M440.689,177.913a1.794,1.794,0,0,1-.832-.164L413.547,166a2.154,2.154,0,0,1-.9-.744l-.777-1.2-1.766-2.711-.173-.271a.962.962,0,0,1-.116-1.008l.419-.716.413-.715a.894.894,0,0,1,.783-.4l0,.006a.443.443,0,0,1,.151-.01l4.455.271.527.03a2.164,2.164,0,0,1,.385.069c-.607,2.583-.094,5.892,4.477,8.623C428.16,171.242,436.793,175.856,440.689,177.913Z" transform="translate(-391.243 -120.799)" fill="#93bbd1"/>
            </g>
          </g>
          <g id="Grupo_933330" data-name="Grupo 933330" transform="translate(24.545 31.54)">
            <path id="Trazado_670599" data-name="Trazado 670599" d="M408.694,154.777l-.846.013L407,154.8a1.024,1.024,0,0,1-.857-.585l-.029-.048,0-.006-1.8-3.167a11.372,11.372,0,0,0,6.478.541l-1.289,2.641a1.082,1.082,0,0,1-.449.5A.691.691,0,0,1,408.694,154.777Z" transform="translate(-399.354 -150.992)" fill="#76a3b7"/>
            <path id="Trazado_670600" data-name="Trazado 670600" d="M403.335,163.941a10.43,10.43,0,0,0-2.35-3.106,18.392,18.392,0,0,0-2.764-2.085l2.727-.094,1.733-.059.5-.013a1.026,1.026,0,0,1,.948.422l.435.725.436.726a.969.969,0,0,1-.09,1.009l-.158.249-.006,0Z" transform="translate(-398.221 -152.404)" fill="#76a3b7"/>
            <path id="Trazado_670601" data-name="Trazado 670601" d="M411.87,164.054l-1.766-2.711-.173-.271a.962.962,0,0,1-.116-1.008l.419-.716.413-.715a.894.894,0,0,1,.783-.4l0,.006a.443.443,0,0,1,.151-.01l4.455.271A19.476,19.476,0,0,0,411.87,164.054Z" transform="translate(-400.359 -152.338)" fill="#76a3b7"/>
          </g>
        </g>
        <path id="Trazado_670602" data-name="Trazado 670602" d="M411.173,158.293a3.1,3.1,0,0,1-.217,1.147c-.031.078-.062.151-.1.229a2.828,2.828,0,0,1-.39.618c-.043.055-.086.1-.129.151v.006l-.031.03a2.195,2.195,0,0,1-.173.174,3.365,3.365,0,0,1-1.559.816,1.5,1.5,0,0,1-.167.03,3.144,3.144,0,0,1-.581.054,3.292,3.292,0,0,1-1.139-.2,3.256,3.256,0,0,1-2.214-3.057.305.305,0,0,1,.006-.072v-.072a1.789,1.789,0,0,1,.013-.186,2.987,2.987,0,0,1,.117-.589c.012-.048.031-.09.043-.132a3.2,3.2,0,0,1,.767-1.207c.037-.042.081-.078.118-.114s.055-.048.081-.072c.049-.042.093-.078.142-.114s.075-.054.118-.084a1.864,1.864,0,0,1,.26-.163c.062-.036.124-.066.186-.1.006-.007.012-.012.019-.012a3.321,3.321,0,0,1,1.485-.343,2.919,2.919,0,0,1,.612.06h.006a3.323,3.323,0,0,1,2.586,2.252A3.2,3.2,0,0,1,411.173,158.293Z" transform="translate(-374.839 -120.205)" fill="#c5deef"/>
        <path id="Trazado_670603" data-name="Trazado 670603" d="M410.957,159.519c-.031.078-.062.151-.1.229a3.267,3.267,0,0,1-.39.618c-.043.055-.086.1-.129.151v.006l-.031.03a2.2,2.2,0,0,1-.173.174,3.365,3.365,0,0,1-1.559.816,1.5,1.5,0,0,1-.167.03,3.144,3.144,0,0,1-.581.054,3.292,3.292,0,0,1-1.139-.2,3.256,3.256,0,0,1-2.214-3.057V158.3a.312.312,0,0,1,.006-.072,1.789,1.789,0,0,1,.013-.186,2.986,2.986,0,0,1,.117-.589c.012-.048.031-.09.043-.132a3.2,3.2,0,0,1,.767-1.207c.037-.042.081-.078.118-.114s.055-.048.081-.072c.049-.042.093-.078.142-.114s.075-.054.118-.084a1.864,1.864,0,0,1,.26-.163c.062-.036.124-.066.186-.1.006-.007.012-.012.019-.012a3.078,3.078,0,0,0-.223,1.147,3.308,3.308,0,0,0,3.353,3.254A3.4,3.4,0,0,0,410.957,159.519Z" transform="translate(-374.839 -120.283)" fill="#93bbd1"/>
      </g>
      <g id="Grupo_933337" data-name="Grupo 933337" transform="translate(57.079)">
        <path id="Trazado_670604" data-name="Trazado 670604" d="M213.307,249.057h-7.02l1.831-98.121.118-6.4.388-20.532h2.337l.3,15.863.4,21.67Z" transform="translate(-172.396 -78.39)" fill="#c5deef"/>
        <path id="Trazado_670605" data-name="Trazado 670605" d="M213.306,249.056h-7.014l1.83-98.117.506-26.926h1.228c-.12,26.47-.449,104.959-.056,113.245C210.269,247.239,213.306,249.056,213.306,249.056Z" transform="translate(-172.397 -78.391)" fill="#93bbd1"/>
        <path id="Trazado_670606" data-name="Trazado 670606" d="M211.7,139.872l-3.02,4.668.388-20.532h2.337Z" transform="translate(-172.841 -78.39)" fill="#76a3b7"/>
        <g id="Grupo_933336" data-name="Grupo 933336">
          <g id="Grupo_933334" data-name="Grupo 933334">
            <path id="Trazado_670607" data-name="Trazado 670607" d="M210.49,108.019l-.96.015-.962.009a1.162,1.162,0,0,1-.972-.663l-.033-.055,0-.007-2.038-3.591-.711-1.254a2.28,2.28,0,0,1-.265-1.274l2.365-31.8a1.5,1.5,0,0,1,.865-1.387.863.863,0,0,1,.226-.043c.007,0,.015,0,.022,0,.581-.011,1.1.587,1.215,1.4L214,101.09a2.228,2.228,0,0,1-.173,1.276l-.879,1.8-.079.171-1.462,2.993a1.223,1.223,0,0,1-.51.569A.789.789,0,0,1,210.49,108.019Z" transform="translate(-172.071 -67.968)" fill="#c5deef"/>
            <path id="Trazado_670608" data-name="Trazado 670608" d="M247.358,142.361a1.413,1.413,0,0,1-.367.059,2.038,2.038,0,0,1-.943-.186L216.217,128.91a2.44,2.44,0,0,1-1.021-.843l-.881-1.361-2-3.073-.2-.308a1.088,1.088,0,0,1-.131-1.142l.475-.812.468-.81a1.015,1.015,0,0,1,.887-.45l0,.007a.48.48,0,0,1,.172-.011l5.051.307.6.035a2.468,2.468,0,0,1,.437.078,2.5,2.5,0,0,1,.8.393l26.323,19.336c.681.5.965,1.225.683,1.714A.9.9,0,0,1,247.358,142.361Z" transform="translate(-173.436 -77.664)" fill="#c5deef"/>
            <path id="Trazado_670609" data-name="Trazado 670609" d="M164.772,141.51a.7.7,0,0,1-.068-.153,1.445,1.445,0,0,1,.707-1.547l25.839-18.673a2.266,2.266,0,0,1,1.226-.442l.007,0,3.092-.107,1.965-.067.572-.015a1.162,1.162,0,0,1,1.075.478l.494.823.494.823a1.1,1.1,0,0,1-.1,1.144l-.179.282-.007,0-1.606,2.523-1.177,1.849a2.167,2.167,0,0,1-.992.817l-13.965,5.948L166.6,141.812A1.441,1.441,0,0,1,164.772,141.51Z" transform="translate(-164.653 -77.738)" fill="#c5deef"/>
            <g id="Grupo_933333" data-name="Grupo 933333" transform="translate(17.493 0)">
              <path id="Trazado_670610" data-name="Trazado 670610" d="M210.9,107.9a.789.789,0,0,1-.405.115l-.96.015-.962.009a1.162,1.162,0,0,1-.972-.663l-.033-.055,0-.007-2.038-3.591-.711-1.254a2.28,2.28,0,0,1-.265-1.274l2.365-31.8a1.5,1.5,0,0,1,.865-1.387.863.863,0,0,1,.226-.043c-.507,7.1-1.2,24.138,1.669,31.358a12.125,12.125,0,0,0,3.276,4.845l-.079.171-1.462,2.993A1.223,1.223,0,0,1,210.9,107.9Z" transform="translate(-189.564 -67.968)" fill="#93bbd1"/>
              <path id="Trazado_670611" data-name="Trazado 670611" d="M200.108,129.246l-13.965,5.948c7.043-3.821,12.879-8.143,13.47-12.137a4.711,4.711,0,0,0,.051-.6,14.175,14.175,0,0,0-.093-1.866l1.965-.067.572-.015a1.162,1.162,0,0,1,1.075.478l.494.823.494.823a1.1,1.1,0,0,1-.1,1.144l-.179.282-.007,0-1.606,2.523-1.177,1.849A2.167,2.167,0,0,1,200.108,129.246Z" transform="translate(-186.143 -77.738)" fill="#93bbd1"/>
              <path id="Trazado_670612" data-name="Trazado 670612" d="M246.991,142.42a2.038,2.038,0,0,1-.943-.186L216.217,128.91a2.44,2.44,0,0,1-1.021-.843l-.881-1.361-2-3.073-.2-.308a1.088,1.088,0,0,1-.131-1.142l.475-.812.468-.81a1.015,1.015,0,0,1,.887-.45l0,.007a.48.48,0,0,1,.172-.011l5.051.307.6.035a2.468,2.468,0,0,1,.437.078c-.689,2.929-.108,6.68,5.076,9.777C232.785,134.857,242.573,140.088,246.991,142.42Z" transform="translate(-190.929 -77.664)" fill="#93bbd1"/>
            </g>
          </g>
          <g id="Grupo_933335" data-name="Grupo 933335" transform="translate(27.829 35.76)">
            <path id="Trazado_670613" data-name="Trazado 670613" d="M210.715,116.189l-.96.015-.962.009a1.162,1.162,0,0,1-.972-.663l-.033-.055,0-.007-2.038-3.591a12.9,12.9,0,0,0,7.345.615L211.63,115.5a1.223,1.223,0,0,1-.51.569A.789.789,0,0,1,210.715,116.189Z" transform="translate(-200.125 -111.897)" fill="#76a3b7"/>
            <path id="Trazado_670614" data-name="Trazado 670614" d="M204.639,126.579a11.81,11.81,0,0,0-2.664-3.522,20.827,20.827,0,0,0-3.135-2.364l3.092-.107,1.965-.067.572-.015a1.162,1.162,0,0,1,1.075.478l.494.823.494.823a1.1,1.1,0,0,1-.1,1.144l-.179.282-.007,0Z" transform="translate(-198.84 -113.497)" fill="#76a3b7"/>
            <path id="Trazado_670615" data-name="Trazado 670615" d="M214.315,126.706l-2-3.073-.2-.308a1.088,1.088,0,0,1-.131-1.142l.475-.812.468-.81a1.015,1.015,0,0,1,.887-.45l0,.007a.48.48,0,0,1,.172-.011l5.051.307A22.117,22.117,0,0,0,214.315,126.706Z" transform="translate(-201.265 -113.423)" fill="#76a3b7"/>
          </g>
        </g>
        <path id="Trazado_670616" data-name="Trazado 670616" d="M213.526,120.176a3.5,3.5,0,0,1-.246,1.3c-.035.089-.07.17-.112.259a3.231,3.231,0,0,1-.442.7c-.05.061-.1.116-.147.17v.007l-.035.034a2.5,2.5,0,0,1-.2.2,3.821,3.821,0,0,1-1.767.926,1.917,1.917,0,0,1-.189.034,3.568,3.568,0,0,1-.659.061,3.8,3.8,0,0,1-3.8-3.69.34.34,0,0,1,.007-.081v-.082a2.055,2.055,0,0,1,.015-.211,3.415,3.415,0,0,1,.133-.667c.014-.055.035-.1.05-.15a3.633,3.633,0,0,1,.869-1.368c.042-.047.091-.088.133-.129s.063-.054.091-.081c.056-.048.105-.089.161-.129s.084-.061.133-.1a2.185,2.185,0,0,1,.294-.184c.071-.041.141-.075.211-.109.007-.007.014-.013.021-.013a3.761,3.761,0,0,1,1.683-.388,3.311,3.311,0,0,1,.694.068h.007a3.768,3.768,0,0,1,2.932,2.553A3.627,3.627,0,0,1,213.526,120.176Z" transform="translate(-172.33 -76.991)" fill="#c5deef"/>
        <path id="Trazado_670617" data-name="Trazado 670617" d="M213.28,121.565c-.035.089-.07.17-.112.259a3.761,3.761,0,0,1-.442.7c-.05.061-.1.116-.147.17v.007l-.035.034a2.5,2.5,0,0,1-.2.2,3.821,3.821,0,0,1-1.767.926,1.915,1.915,0,0,1-.189.034,3.567,3.567,0,0,1-.659.061,3.8,3.8,0,0,1-3.8-3.69v-.081a.35.35,0,0,1,.007-.082,2.055,2.055,0,0,1,.015-.211,3.415,3.415,0,0,1,.133-.667c.014-.055.035-.1.05-.15A3.633,3.633,0,0,1,207,117.7c.042-.047.091-.088.133-.129s.063-.054.091-.081c.056-.048.105-.089.161-.129s.084-.061.133-.1a2.185,2.185,0,0,1,.294-.184c.071-.041.141-.075.211-.109.007-.007.014-.013.021-.013a3.5,3.5,0,0,0-.252,1.3,3.749,3.749,0,0,0,3.8,3.69A3.86,3.86,0,0,0,213.28,121.565Z" transform="translate(-172.33 -77.08)" fill="#93bbd1"/>
      </g>
    </g>
    <g id="Grupo_933339" data-name="Grupo 933339" transform="translate(45.179 227.705)">
      <path id="Trazado_670618" data-name="Trazado 670618" d="M121.727,298.98s-1.2-4.476,2.525-4.995,11.968,2.08,8.044-2.179-11.945-7.1-8.327-10.359,8.826,4.382,9.361,1.326-1.035-9.172,2.1-8.883,4.121,10.984,6.082,7.737-3.924-10.047,0-11.135,4.121,1.777,3.728,6.551,1.766,5.456,3.728,1.964,8.24-11.707,11.772-8.746-.785,5.71-4.12,9.684-4.121,10.318-.392,7.432,8.24-5.334,8.829-3.633-5.1,5.219-2.747,5.37,9.614-.116,6.867,2.691-3.728,4.335-.785,3.571,5.494,1.527,4.512,2.482l-.981.955Z" transform="translate(-60.86 -265.473)" fill="#567f21"/>
      <path id="Trazado_670619" data-name="Trazado 670619" d="M86.54,298.031s-1.337-5.11,2.806-5.7,13.3,2.374,8.939-2.488-13.273-8.108-9.252-11.826,9.807,5,10.4,1.514-1.149-10.472,2.34-10.141,4.578,12.539,6.758,8.833-4.36-11.471,0-12.713,4.579,2.029,4.143,7.48,1.963,6.229,4.143,2.243,9.157-13.366,13.081-9.985-.873,6.518-4.579,11.054-4.578,11.78-.436,8.485,9.156-6.09,9.811-4.147-5.669,5.959-3.053,6.131,10.683-.133,7.631,3.071-4.142,4.949-.872,4.077,6.1,1.744,5.014,2.834l-1.09,1.09Z" transform="translate(-54.312 -264.523)" fill="#80b54d"/>
      <path id="Trazado_670620" data-name="Trazado 670620" d="M47.156,299.73s-1.04-3.976,2.182-4.436,10.348,1.847,6.955-1.936-10.327-6.309-7.2-9.2,7.63,3.892,8.093,1.178-.895-8.147,1.819-7.89,3.562,9.756,5.259,6.873-3.393-8.925,0-9.89,3.562,1.578,3.223,5.819,1.527,4.846,3.224,1.744,7.124-10.4,10.178-7.768-.679,5.071-3.563,8.6-3.561,9.164-.339,6.6,7.124-4.738,7.633-3.227-4.41,4.637-2.374,4.771,8.311-.1,5.937,2.39-3.223,3.85-.678,3.171,4.749,1.357,3.9,2.205l-.848.848Z" transform="translate(-46.996 -266.223)" fill="#567f21"/>
      <path id="Trazado_670621" data-name="Trazado 670621" d="M69.259,300.487s-.908-3.47,1.906-3.872,9.032,1.612,6.071-1.69-9.014-5.507-6.284-8.032,6.66,3.4,7.065,1.028-.781-7.111,1.588-6.887,3.11,8.515,4.59,6-2.961-7.79,0-8.633,3.109,1.378,2.813,5.08,1.332,4.23,2.812,1.522,6.219-9.077,8.884-6.781-.593,4.427-3.11,7.508-3.11,8-.3,5.762,6.219-4.136,6.663-2.817-3.85,4.047-2.073,4.164,7.255-.09,5.182,2.086-2.813,3.361-.592,2.768,4.146,1.184,3.405,1.925l-.74.74Z" transform="translate(-51.111 -266.98)" fill="#abdd7f"/>
      <path id="Trazado_670622" data-name="Trazado 670622" d="M133.077,302.05s-.635-2.427,1.333-2.708,6.318,1.127,4.246-1.182-6.3-3.852-4.395-5.618,4.659,2.376,4.941.72-.546-4.974,1.111-4.817,2.174,5.956,3.21,4.2-2.072-5.449,0-6.039,2.174.964,1.967,3.553.932,2.959,1.967,1.066,4.35-6.349,6.214-4.743-.414,3.1-2.175,5.251-2.175,5.6-.207,4.03,4.349-2.892,4.66-1.97-2.693,2.831-1.451,2.913,5.075-.063,3.625,1.46-1.967,2.351-.414,1.937,2.9.828,2.383,1.346l-.519.518Z" transform="translate(-62.987 -268.542)" fill="#abdd7f"/>
    </g>
    <g id="Grupo_933341" data-name="Grupo 933341" transform="translate(147.023 172.284)">
      <rect id="Rectángulo_329191" data-name="Rectángulo 329191" width="53.278" height="78.732" rx="3" transform="translate(0 11.091)" fill="#304654"/>
      <g id="Grupo_933340" data-name="Grupo 933340" transform="translate(2.906 13.33)">
        <path id="Trazado_670623" data-name="Trazado 670623" d="M223.144,215.257v69.371a2.444,2.444,0,0,1-2.442,2.442H178.12a2.444,2.444,0,0,1-2.442-2.442V215.257a2.444,2.444,0,0,1,2.442-2.442H220.7A2.444,2.444,0,0,1,223.144,215.257Z" transform="translate(-175.678 -212.815)" fill="#50cb45"/>
      </g>
      <path id="Trazado_670624" data-name="Trazado 670624" d="M222.176,207.766v1.579H177.608v-1.579a1.572,1.572,0,0,1,1.571-1.571H220.6A1.572,1.572,0,0,1,222.176,207.766Z" transform="translate(-173.131 -198.254)" fill="#304654"/>
      <path id="Rectángulo_329192" data-name="Rectángulo 329192" d="M4,0H18.487a4,4,0,0,1,4,4V7.941a0,0,0,0,1,0,0H0a0,0,0,0,1,0,0V4A4,4,0,0,1,4,0Z" transform="translate(16.179)" fill="#5f879b"/>
      <path id="Trazado_670625" data-name="Trazado 670625" d="M230.337,215.257v69.371a2.444,2.444,0,0,1-2.442,2.442H214.358V212.815H227.9A2.444,2.444,0,0,1,230.337,215.257Z" transform="translate(-179.966 -199.485)" fill="#39b932"/>
      <path id="Trazado_670626" data-name="Trazado 670626" d="M183.265,212.815V287.07H178.12a2.444,2.444,0,0,1-2.442-2.442V215.257a2.444,2.444,0,0,1,2.442-2.442Z" transform="translate(-172.772 -199.485)" fill="#72f050"/>
      <path id="Trazado_670627" data-name="Trazado 670627" d="M196.449,238.015H207.3l-7.966,14.113h15.738l-21.029,24.837,5.291-17.04H186.441Z" transform="translate(-174.774 -204.172)" fill="#ffe85c"/>
    </g>
    <g id="Grupo_933346" data-name="Grupo 933346" transform="translate(87.743 185.371)">
      <path id="Trazado_670628" data-name="Trazado 670628" d="M131.383,280.052l-5.561,11a12.01,12.01,0,0,1-16.136,5.3l-1.632-.825a12.01,12.01,0,0,1-5.3-16.136l5.561-11Z" transform="translate(-99.689 -222.908)" fill="#304654"/>
      <g id="Grupo_933343" data-name="Grupo 933343" transform="translate(7.782)">
        <g id="Grupo_933342" data-name="Grupo 933342">
          <path id="Trazado_670629" data-name="Trazado 670629" d="M113.026,225.534c-3.648,7.217-4.313,16.136-4.162,22.8a70.232,70.232,0,0,0,.855,9.682l23.04,11.645a73.307,73.307,0,0,0,12.87-8.54c4.288-3.554,8.646-8.1,11.318-13.387a23.032,23.032,0,0,0,1-19.191,25.638,25.638,0,0,0-12.131-13.3l-.029-.015C134.99,209.784,119.758,212.214,113.026,225.534Z" transform="translate(-108.844 -212.517)" fill="#ffdf57"/>
        </g>
      </g>
      <path id="Trazado_670630" data-name="Trazado 670630" d="M120.427,228.694c-1.58-1.954-4.07.579-2.046,2.715S122.229,230.923,120.427,228.694Z" transform="translate(-102.695 -215.395)" fill="#fff"/>
      <path id="Trazado_670631" data-name="Trazado 670631" d="M127.569,236.009a8.493,8.493,0,0,0,.748,5.6,8.981,8.981,0,0,0,1.683,2.32,21.366,21.366,0,0,0,1.8,1.634L121.3,266.34l.976.493,10.391-20.559a9.454,9.454,0,0,0,1.454.961c.063.031.121.061.171.081s.1.057.167.089a9.325,9.325,0,0,0,1.635.6L125.7,268.566l.976.493,10.5-20.775a12.359,12.359,0,0,0,5.249.46l.159-.03a8.464,8.464,0,0,0,4.8-2.69,5.064,5.064,0,0,0,1.34-3.727,4.712,4.712,0,0,0-1.867-3.261c-1.508-1.219-2.929-1.682-4.208-1.325-1.337.372-2.234,1.522-3.941,5.037-.181.37-2.045,4.135-2.045,4.135a7.3,7.3,0,0,1-1.788-.654l0,0a.106.106,0,0,0-.028-.009.112.112,0,0,0-.024-.017l0,0a7.334,7.334,0,0,1-1.588-1.052s1.937-3.728,2.118-4.1c1.31-2.684,2.354-4.591,1.718-6.161-.5-1.231-1.687-2.111-3.563-2.6a4.712,4.712,0,0,0-3.732.431A5.062,5.062,0,0,0,127.569,236.009Zm13.452,4.675a3.507,3.507,0,0,1,1.945-1.78,3.687,3.687,0,0,1,3.115,1.091,3.525,3.525,0,0,1,1.412,2.413,3.787,3.787,0,0,1-1.042,2.809,7.205,7.205,0,0,1-4.235,2.309,7.554,7.554,0,0,1-1.827.085,15.533,15.533,0,0,1-2.638-.458Zm-10.605-6.908a3.522,3.522,0,0,1,2.78-.295,3.688,3.688,0,0,1,2.726,1.862,3.507,3.507,0,0,1-.28,2.622l-3.27,6.469c-.449-.379-.885-.755-1.285-1.156a8.205,8.205,0,0,1-1.662-2.217,7.206,7.206,0,0,1-.652-4.78A3.785,3.785,0,0,1,130.415,233.776Z" transform="translate(-103.379 -216.158)" fill="#fff"/>
      <g id="Grupo_933344" data-name="Grupo 933344" transform="translate(0 45.27)">
        <path id="Trazado_670632" data-name="Trazado 670632" d="M107.543,269.005a1.593,1.593,0,0,0,.706,2.14l22.25,11.246a1.593,1.593,0,0,0,1.438-2.843L109.686,268.3A1.6,1.6,0,0,0,107.543,269.005Z" transform="translate(-100.789 -268.13)" fill="#7099b2"/>
        <path id="Trazado_670633" data-name="Trazado 670633" d="M104.86,274.312l-.013.026a1.592,1.592,0,0,0-.09,1.216,1.576,1.576,0,0,0,.794.927L127.8,287.727a1.6,1.6,0,0,0,2.143-.7l.013-.026a1.6,1.6,0,0,0,.077-1.191,1.577,1.577,0,0,0-.794-.926L106.99,273.634A1.6,1.6,0,0,0,104.86,274.312Z" transform="translate(-100.287 -269.121)" fill="#7099b2"/>
        <path id="Trazado_670634" data-name="Trazado 670634" d="M102.152,279.671a.351.351,0,0,0-.024.057,1.57,1.57,0,0,0-.066,1.16,1.592,1.592,0,0,0,.794.926l22.25,11.246a1.592,1.592,0,0,0,2.112-.65.3.3,0,0,0,.031-.054,1.592,1.592,0,0,0-.706-2.139l-22.25-11.246A1.594,1.594,0,0,0,102.152,279.671Z" transform="translate(-99.786 -270.114)" fill="#7099b2"/>
        <path id="Trazado_670635" data-name="Trazado 670635" d="M99.455,285.007a1.595,1.595,0,0,0,.706,2.14l22.25,11.246a1.593,1.593,0,0,0,1.438-2.844L101.6,284.3A1.6,1.6,0,0,0,99.455,285.007Z" transform="translate(-99.284 -271.106)" fill="#7099b2"/>
      </g>
      <g id="Grupo_933345" data-name="Grupo 933345" transform="translate(0 46.145)">
        <path id="Trazado_670636" data-name="Trazado 670636" d="M107.543,269.2a1.593,1.593,0,0,0,.706,2.14l22.25,11.246a1.594,1.594,0,0,0,2.142-.7Z" transform="translate(-100.789 -269.205)" fill="#5f879b"/>
        <path id="Trazado_670637" data-name="Trazado 670637" d="M104.86,274.506l-.013.026a1.592,1.592,0,0,0-.09,1.216,1.576,1.576,0,0,0,.794.927L127.8,287.921a1.6,1.6,0,0,0,2.143-.7l.013-.026Z" transform="translate(-100.287 -270.191)" fill="#5f879b"/>
        <path id="Trazado_670638" data-name="Trazado 670638" d="M102.129,279.94a1.57,1.57,0,0,0-.066,1.16,1.592,1.592,0,0,0,.794.926l22.25,11.246a1.592,1.592,0,0,0,2.112-.65Z" transform="translate(-99.786 -271.201)" fill="#5f879b"/>
        <path id="Trazado_670639" data-name="Trazado 670639" d="M99.455,285.207a1.595,1.595,0,0,0,.706,2.14l22.25,11.246a1.594,1.594,0,0,0,2.142-.7Z" transform="translate(-99.284 -272.181)" fill="#5f879b"/>
      </g>
      <path id="Trazado_670640" data-name="Trazado 670640" d="M126.1,219.721c-6.06,4.688-2.4,9.234,3.087,5.719a23.709,23.709,0,0,1,13.039-3.338,3.115,3.115,0,0,0,3.061-3.661C144.929,215.649,134.4,213.3,126.1,219.721Z" transform="translate(-103.688 -213.093)" fill="#fff"/>
      <path id="Trazado_670641" data-name="Trazado 670641" d="M108.868,256.517a70.231,70.231,0,0,0,.855,9.682l23.04,11.645a73.309,73.309,0,0,0,12.87-8.54c-4.252,2.26-11.23,4.127-20.539.435C116.268,266.236,111.438,260.773,108.868,256.517Z" transform="translate(-101.067 -220.7)" fill="#ff8e31" opacity="0.31"/>
      <path id="Trazado_670642" data-name="Trazado 670642" d="M160.1,231.764c-.257-.654-.546-1.293-.858-1.919-3.343,6.9-17.667,33.766-38.823,35.714l14.49,7.324a73.307,73.307,0,0,0,12.87-8.54c4.288-3.554,8.646-8.1,11.318-13.387A23.032,23.032,0,0,0,160.1,231.764Z" transform="translate(-103.215 -215.74)" fill="#f2a744" opacity="0.31"/>
    </g>
    <g id="Grupo_933351" data-name="Grupo 933351" transform="translate(286.132 221.947)">
      <path id="Trazado_670643" data-name="Trazado 670643" d="M363.4,287.819v10.127h57.716V279.2H423.4v21.351H360.655v-12.73Z" transform="translate(-346.283 -261.494)" fill="#46647a"/>
      <path id="Trazado_670644" data-name="Trazado 670644" d="M343,289.664h70.163l12.41-32.214H355.96Z" transform="translate(-343 -257.449)" fill="#eaeaea"/>
      <path id="Trazado_670645" data-name="Trazado 670645" d="M427.943,292.3H429.3l.014-.027,12.058-31.125v-3.686L428.933,289.7Z" transform="translate(-358.797 -257.452)" fill="#64819b"/>
      <path id="Trazado_670646" data-name="Trazado 670646" d="M343,297.02v2.636h70.515v-.027l-.38-2.569v-.04Z" transform="translate(-343 -264.809)" fill="#7da9c9"/>
      <g id="Grupo_933347" data-name="Grupo 933347" transform="translate(14.372 1.269)">
        <path id="Trazado_670647" data-name="Trazado 670647" d="M392.862,271.682l-3.523,9.054h-9.865l3.556-9.054Z" transform="translate(-364.155 -261.365)" fill="#40b4e2"/>
        <path id="Trazado_670648" data-name="Trazado 670648" d="M408.183,268.206h-9.827l3.5-8.914,9.824-.076Z" transform="translate(-367.667 -259.047)" fill="#40b4e2"/>
        <path id="Trazado_670649" data-name="Trazado 670649" d="M397.693,259.323l-3.464,8.9H384.4l3.467-8.826Z" transform="translate(-365.071 -259.067)" fill="#40b4e2"/>
        <path id="Trazado_670650" data-name="Trazado 670650" d="M421.443,268.187H412.31l3.536-9,9.128-.07Z" transform="translate(-370.262 -259.028)" fill="#40b4e2"/>
        <path id="Trazado_670651" data-name="Trazado 670651" d="M393.428,280.736l3.556-9.054h9.832l-3.523,9.054Z" transform="translate(-366.75 -261.365)" fill="#40b4e2"/>
        <path id="Trazado_670652" data-name="Trazado 670652" d="M430.326,280.736h-9.842l3.556-9.054H433.8Z" transform="translate(-371.782 -261.365)" fill="#40b4e2"/>
        <path id="Trazado_670653" data-name="Trazado 670653" d="M380.262,268.246h-9.887l3.385-8.738,9.931-.077Z" transform="translate(-362.463 -259.087)" fill="#40b4e2"/>
        <path id="Trazado_670654" data-name="Trazado 670654" d="M388.5,293.28l3.556-9.054h9.869L398.4,293.28Z" transform="translate(-365.834 -263.698)" fill="#40b4e2"/>
        <path id="Trazado_670655" data-name="Trazado 670655" d="M420.076,271.682l-3.523,9.054h-9.172l3.556-9.054Z" transform="translate(-369.345 -261.365)" fill="#40b4e2"/>
        <path id="Trazado_670656" data-name="Trazado 670656" d="M374.547,293.28l3.556-9.054h9.869l-3.523,9.054Z" transform="translate(-363.239 -263.698)" fill="#40b4e2"/>
        <path id="Trazado_670657" data-name="Trazado 670657" d="M402.454,293.28l3.556-9.054h9.176l-3.523,9.054Z" transform="translate(-368.429 -263.698)" fill="#40b4e2"/>
        <path id="Trazado_670658" data-name="Trazado 670658" d="M425.412,268.167l3.568-9.084,9.686-.075-3.51,9.159Z" transform="translate(-372.698 -259.008)" fill="#40b4e2"/>
        <path id="Trazado_670659" data-name="Trazado 670659" d="M378.907,271.682l-3.523,9.054h-9.87l3.508-9.054Z" transform="translate(-361.559 -261.365)" fill="#40b4e2"/>
        <path id="Trazado_670660" data-name="Trazado 670660" d="M415.557,293.28l3.556-9.054h9.853l-3.47,9.054Z" transform="translate(-370.866 -263.698)" fill="#40b4e2"/>
        <path id="Trazado_670661" data-name="Trazado 670661" d="M364.163,284.227h9.868l-3.523,9.054h-9.853Z" transform="translate(-360.655 -263.698)" fill="#40b4e2"/>
      </g>
      <g id="Grupo_933350" data-name="Grupo 933350" transform="translate(2.877 1.269)">
        <g id="Grupo_933348" data-name="Grupo 933348">
          <path id="Trazado_670662" data-name="Trazado 670662" d="M379.473,280.732h9.86l3.529-9.045h-9.834l-2.28,5.8Z" transform="translate(-352.66 -261.366)" fill="#319cbc"/>
          <path id="Trazado_670663" data-name="Trazado 670663" d="M398.362,268.2h9.822l.025-.076.726-1.857,2.752-7.062-9.834.076-.191.48-.624,1.6-2.115,5.407-.51,1.314Z" transform="translate(-356.173 -259.045)" fill="#319cbc"/>
          <path id="Trazado_670664" data-name="Trazado 670664" d="M384.4,268.225h9.822L394.7,267l.51-1.3,2.089-5.369.395-1.011-1.439.013-7.452.051-.93.013-.242.619Z" transform="translate(-353.577 -259.066)" fill="#319cbc"/>
          <path id="Trazado_670665" data-name="Trazado 670665" d="M412.305,268.187h9.134l1.822-4.7,1.707-4.371-5.885.038-3.236.025-3.185,8.1Z" transform="translate(-358.766 -259.028)" fill="#319cbc"/>
          <path id="Trazado_670666" data-name="Trazado 670666" d="M393.432,280.732h9.86l1.287-3.31.535-1.339,1.707-4.4h-9.834Z" transform="translate(-355.256 -261.366)" fill="#319cbc"/>
          <path id="Trazado_670667" data-name="Trazado 670667" d="M420.49,280.732h9.834l2.522-6.544.955-2.5h-9.758l-1.962,5-.854,2.16Z" transform="translate(-360.289 -261.366)" fill="#319cbc"/>
          <path id="Trazado_670668" data-name="Trazado 670668" d="M370.381,268.245h9.885l3.427-8.818-9.936.076-2.739,7.1Z" transform="translate(-350.969 -259.086)" fill="#319cbc"/>
          <path id="Trazado_670669" data-name="Trazado 670669" d="M388.5,293.285h9.9l3.529-9.058h-9.872l-1.631,4.144Z" transform="translate(-354.34 -263.698)" fill="#319cbc"/>
          <path id="Trazado_670670" data-name="Trazado 670670" d="M407.376,280.732h9.172l1.146-2.931.828-2.122,1.554-3.992h-9.134l-2.153,5.458-.535,1.339Z" transform="translate(-357.85 -261.366)" fill="#319cbc"/>
          <path id="Trazado_670671" data-name="Trazado 670671" d="M374.544,293.285h9.911l.42-1.074,1.924-4.952,1.172-3.032H378.1l-.268.669Z" transform="translate(-351.743 -263.698)" fill="#319cbc"/>
          <path id="Trazado_670672" data-name="Trazado 670672" d="M402.462,293.285h9.2l2.306-5.925L414.5,286l.688-1.769h-9.172Z" transform="translate(-356.936 -263.698)" fill="#319cbc"/>
          <path id="Trazado_670673" data-name="Trazado 670673" d="M425.4,268.167h9.745l.395-1.048,3.121-8.11-9.681.076-.382.985-1.8,4.548Z" transform="translate(-361.202 -259.008)" fill="#319cbc"/>
          <path id="Trazado_670674" data-name="Trazado 670674" d="M365.514,280.732h9.873l1.707-4.384,1.809-4.662h-9.885l-.955,2.464Z" transform="translate(-350.064 -261.366)" fill="#319cbc"/>
          <path id="Trazado_670675" data-name="Trazado 670675" d="M415.56,293.285H425.5l2.013-5.268.943-2.463.51-1.326h-9.847l-1.108,2.817-.535,1.377Z" transform="translate(-359.372 -263.698)" fill="#319cbc"/>
          <path id="Trazado_670676" data-name="Trazado 670676" d="M360.648,293.285h9.86l.229-.594,3.287-8.464h-9.86l-.344.9-.65,1.668Z" transform="translate(-349.159 -263.698)" fill="#319cbc"/>
          <path id="Trazado_670677" data-name="Trazado 670677" d="M356.268,268.245h9.885l3.427-8.818-9.936.076-2.739,7.1Z" transform="translate(-348.345 -259.086)" fill="#319cbc"/>
          <path id="Trazado_670678" data-name="Trazado 670678" d="M351.4,280.732h9.873l1.707-4.384,1.809-4.662H354.9l-.955,2.464Z" transform="translate(-347.439 -261.366)" fill="#319cbc"/>
          <path id="Trazado_670679" data-name="Trazado 670679" d="M346.534,293.285h9.86l.229-.594,3.287-8.464h-9.86l-.344.9-.65,1.668Z" transform="translate(-346.534 -263.698)" fill="#319cbc"/>
        </g>
        <g id="Grupo_933349" data-name="Grupo 933349" transform="translate(14.011 0.088)" opacity="0.37">
          <path id="Trazado_670680" data-name="Trazado 670680" d="M436.075,271.687h-3.363l2.408,2.5Z" transform="translate(-376.572 -261.454)" fill="#fff"/>
          <path id="Trazado_670681" data-name="Trazado 670681" d="M430.552,268.409h4.917l.395-1.049-6.943-7.049-1.8,4.548Z" transform="translate(-375.533 -259.339)" fill="#fff"/>
          <path id="Trazado_670682" data-name="Trazado 670682" d="M428.793,284.227h-3.452c1.389,1.314,2.726,2.589,3.987,3.789l.943-2.463Z" transform="translate(-375.201 -263.787)" fill="#fff"/>
          <path id="Trazado_670683" data-name="Trazado 670683" d="M421.4,279.993c.675.632,1.337,1.263,1.987,1.882h3.376l-4.51-4.042Z" transform="translate(-374.468 -262.597)" fill="#fff"/>
          <path id="Trazado_670684" data-name="Trazado 670684" d="M412.305,270.052h1.376l-1.019-.91Z" transform="translate(-372.777 -260.981)" fill="#fff"/>
          <path id="Trazado_670685" data-name="Trazado 670685" d="M414.937,271.687h-2.866c2.165,2.034,4.357,4.093,6.5,6.115l.828-2.123Z" transform="translate(-372.733 -261.454)" fill="#fff"/>
          <path id="Trazado_670686" data-name="Trazado 670686" d="M401.648,261.5c2.268,2.135,4.7,4.422,7.172,6.759l.726-1.857-7.274-6.507Z" transform="translate(-370.795 -259.261)" fill="#fff"/>
          <path id="Trazado_670687" data-name="Trazado 670687" d="M424.809,263.488l1.707-4.371-5.885.038Z" transform="translate(-374.325 -259.117)" fill="#fff"/>
          <path id="Trazado_670688" data-name="Trazado 670688" d="M418.443,287.688l-.535,1.377,4.917,4.864h1.962Z" transform="translate(-373.819 -264.43)" fill="#fff"/>
          <path id="Trazado_670689" data-name="Trazado 670689" d="M414.608,284.227H412.7l3.172,3.133L416.4,286Z" transform="translate(-372.85 -263.787)" fill="#fff"/>
          <path id="Trazado_670690" data-name="Trazado 670690" d="M408.456,279.731l2.28,2.249h1.9l-3.643-3.588Z" transform="translate(-372.061 -262.701)" fill="#fff"/>
          <path id="Trazado_670691" data-name="Trazado 670691" d="M401.865,271.687h-1.86l5.8,5.735.535-1.339Z" transform="translate(-370.49 -261.454)" fill="#fff"/>
          <path id="Trazado_670692" data-name="Trazado 670692" d="M398.934,268.506l-.51,1.314.115.114h1.847Z" transform="translate(-370.196 -260.863)" fill="#fff"/>
          <path id="Trazado_670693" data-name="Trazado 670693" d="M388.362,260.028l7.07,6.986.51-1.3-6.408-6.316-.93.013Z" transform="translate(-368.324 -259.169)" fill="#fff"/>
          <path id="Trazado_670694" data-name="Trazado 670694" d="M400,260.329l.395-1.011-1.439.013Z" transform="translate(-370.295 -259.154)" fill="#fff"/>
          <path id="Trazado_670695" data-name="Trazado 670695" d="M379.473,282.057h4.318l-3.045-3.247Z" transform="translate(-366.671 -262.779)" fill="#fff"/>
          <path id="Trazado_670696" data-name="Trazado 670696" d="M388.5,294.231h6.535l-4.612-4.914Z" transform="translate(-368.35 -264.733)" fill="#fff"/>
          <path id="Trazado_670697" data-name="Trazado 670697" d="M378.581,284.9l7.045,7.315,1.924-4.952-2.841-3.032h-5.86Z" transform="translate(-366.505 -263.787)" fill="#fff"/>
          <path id="Trazado_670698" data-name="Trazado 670698" d="M368.644,274.151l6.331,6.582h.994l1.707-4.384-4.369-4.662H369.6Z" transform="translate(-364.657 -261.454)" fill="#fff"/>
          <path id="Trazado_670699" data-name="Trazado 670699" d="M370.381,269.884h2.166l-1.529-1.642Z" transform="translate(-364.98 -260.814)" fill="#fff"/>
          <path id="Trazado_670700" data-name="Trazado 670700" d="M363.746,287l6.013,6.493h1.325l.229-.594-6.917-7.567Z" transform="translate(-363.746 -263.991)" fill="#fff"/>
        </g>
      </g>
    </g>
    <g id="Grupo_933356" data-name="Grupo 933356" transform="translate(199.597 206.748)">
      <path id="Trazado_670701" data-name="Trazado 670701" d="M253.471,273.818v10.947h70.9V264.5l2.808-8.376v31.454H250.1v-13.76Z" transform="translate(-239.187 -242.004)" fill="#46647a"/>
      <path id="Trazado_670702" data-name="Trazado 670702" d="M236.7,273.6h80.061l14.161-34.821H251.482Z" transform="translate(-236.694 -238.778)" fill="#eaeaea"/>
      <path id="Trazado_670703" data-name="Trazado 670703" d="M333.62,276.448h1.548l.016-.029,13.759-33.643v-3.984l-14.192,34.85Z" transform="translate(-254.72 -238.781)" fill="#64819b"/>
      <path id="Trazado_670704" data-name="Trazado 670704" d="M236.694,281.55v2.85h80.463v-.029l-.433-2.777v-.044Z" transform="translate(-236.694 -246.733)" fill="#7da9c9"/>
      <g id="Grupo_933352" data-name="Grupo 933352" transform="translate(16.399 1.371)">
        <path id="Trazado_670705" data-name="Trazado 670705" d="M293.591,254.162l-4.02,9.786H278.314l4.058-9.786Z" transform="translate(-260.833 -243.011)" fill="#40b4e2"/>
        <path id="Trazado_670706" data-name="Trazado 670706" d="M311.073,250.4H299.859l4-9.635,11.21-.082Z" transform="translate(-264.84 -240.505)" fill="#40b4e2"/>
        <path id="Trazado_670707" data-name="Trazado 670707" d="M299.1,240.8l-3.952,9.622H283.937l3.956-9.541Z" transform="translate(-261.879 -240.526)" fill="#40b4e2"/>
        <path id="Trazado_670708" data-name="Trazado 670708" d="M326.2,250.384H315.781l4.035-9.73,10.416-.076Z" transform="translate(-267.802 -240.484)" fill="#40b4e2"/>
        <path id="Trazado_670709" data-name="Trazado 670709" d="M294.236,263.949l4.058-9.786h11.219l-4.02,9.786Z" transform="translate(-263.795 -243.011)" fill="#40b4e2"/>
        <path id="Trazado_670710" data-name="Trazado 670710" d="M336.34,263.949H325.109l4.058-9.786H340.3Z" transform="translate(-269.536 -243.011)" fill="#40b4e2"/>
        <path id="Trazado_670711" data-name="Trazado 670711" d="M279.212,250.448H267.931L271.794,241l11.332-.083Z" transform="translate(-258.902 -240.548)" fill="#40b4e2"/>
        <path id="Trazado_670712" data-name="Trazado 670712" d="M288.614,277.508l4.058-9.786h11.262l-4.02,9.786Z" transform="translate(-262.749 -245.533)" fill="#40b4e2"/>
        <path id="Trazado_670713" data-name="Trazado 670713" d="M324.644,254.162l-4.02,9.786H310.159l4.058-9.786Z" transform="translate(-266.756 -243.011)" fill="#40b4e2"/>
        <path id="Trazado_670714" data-name="Trazado 670714" d="M272.691,277.508l4.058-9.786h11.262l-4.02,9.786Z" transform="translate(-259.788 -245.533)" fill="#40b4e2"/>
        <path id="Trazado_670715" data-name="Trazado 670715" d="M304.536,277.508l4.058-9.786h10.471l-4.02,9.786Z" transform="translate(-265.71 -245.533)" fill="#40b4e2"/>
        <path id="Trazado_670716" data-name="Trazado 670716" d="M330.732,250.363l4.072-9.819,11.053-.081-4.005,9.9Z" transform="translate(-270.582 -240.463)" fill="#40b4e2"/>
        <path id="Trazado_670717" data-name="Trazado 670717" d="M277.667,254.162l-4.02,9.786H262.385l4-9.786Z" transform="translate(-257.871 -243.011)" fill="#40b4e2"/>
        <path id="Trazado_670718" data-name="Trazado 670718" d="M319.487,277.508l4.058-9.786h11.243l-3.959,9.786Z" transform="translate(-268.491 -245.533)" fill="#40b4e2"/>
        <path id="Trazado_670719" data-name="Trazado 670719" d="M260.842,267.722H272.1l-4.02,9.786H256.84Z" transform="translate(-256.84 -245.533)" fill="#40b4e2"/>
      </g>
      <g id="Grupo_933355" data-name="Grupo 933355" transform="translate(3.283 1.371)">
        <g id="Grupo_933353" data-name="Grupo 933353">
          <path id="Trazado_670720" data-name="Trazado 670720" d="M278.313,263.945h11.251l4.027-9.777H282.369l-2.6,6.268Z" transform="translate(-247.717 -243.012)" fill="#319cbc"/>
          <path id="Trazado_670721" data-name="Trazado 670721" d="M299.866,250.4h11.207l.029-.082.829-2.007,3.14-7.633-11.222.082-.218.519-.712,1.734-2.413,5.845-.582,1.42Z" transform="translate(-251.725 -240.503)" fill="#319cbc"/>
          <path id="Trazado_670722" data-name="Trazado 670722" d="M283.938,250.425h11.207l.538-1.325.581-1.406,2.384-5.8.451-1.092-1.643.014-8.5.055-1.061.014-.276.669Z" transform="translate(-248.763 -240.525)" fill="#319cbc"/>
          <path id="Trazado_670723" data-name="Trazado 670723" d="M315.777,250.385H326.2l2.079-5.08,1.948-4.725-6.716.041-3.692.027-3.634,8.753Z" transform="translate(-254.685 -240.485)" fill="#319cbc"/>
          <path id="Trazado_670724" data-name="Trazado 670724" d="M294.241,263.945h11.251l1.468-3.578.611-1.448,1.948-4.752H298.3Z" transform="translate(-250.679 -243.012)" fill="#319cbc"/>
          <path id="Trazado_670725" data-name="Trazado 670725" d="M325.116,263.945h11.222l2.878-7.073,1.09-2.7H329.172l-2.239,5.408-.974,2.335Z" transform="translate(-256.421 -243.012)" fill="#319cbc"/>
          <path id="Trazado_670726" data-name="Trazado 670726" d="M267.938,250.447h11.28l3.91-9.531L271.79,241l-3.125,7.674Z" transform="translate(-245.788 -240.547)" fill="#319cbc"/>
          <path id="Trazado_670727" data-name="Trazado 670727" d="M288.616,277.513h11.294l4.026-9.791H292.672l-1.86,4.479Z" transform="translate(-249.633 -245.533)" fill="#319cbc"/>
          <path id="Trazado_670728" data-name="Trazado 670728" d="M310.152,263.945h10.466l1.308-3.168.945-2.294,1.773-4.315H314.222l-2.457,5.9-.611,1.447Z" transform="translate(-253.638 -243.012)" fill="#319cbc"/>
          <path id="Trazado_670729" data-name="Trazado 670729" d="M272.688,277.513H284l.48-1.161L286.672,271l1.337-3.277H276.744l-.305.724Z" transform="translate(-246.671 -245.533)" fill="#319cbc"/>
          <path id="Trazado_670730" data-name="Trazado 670730" d="M304.545,277.513H315.04l2.631-6.4.61-1.475.785-1.912H308.6Z" transform="translate(-252.596 -245.533)" fill="#319cbc"/>
          <path id="Trazado_670731" data-name="Trazado 670731" d="M330.723,250.363h11.12l.451-1.133,3.561-8.767-11.047.082-.436,1.065-2.049,4.916Z" transform="translate(-257.464 -240.463)" fill="#319cbc"/>
          <path id="Trazado_670732" data-name="Trazado 670732" d="M262.385,263.945H273.65l1.948-4.738,2.064-5.039h-11.28l-1.09,2.663Z" transform="translate(-244.755 -243.012)" fill="#319cbc"/>
          <path id="Trazado_670733" data-name="Trazado 670733" d="M319.491,277.513h11.338l2.3-5.694,1.076-2.663.581-1.434H323.547l-1.265,3.045-.61,1.488Z" transform="translate(-255.375 -245.533)" fill="#319cbc"/>
          <path id="Trazado_670734" data-name="Trazado 670734" d="M256.831,277.513h11.251l.262-.642,3.75-9.149H260.843l-.392.969-.741,1.8Z" transform="translate(-243.722 -245.533)" fill="#319cbc"/>
          <path id="Trazado_670735" data-name="Trazado 670735" d="M251.834,250.447h11.28l3.91-9.531L255.686,241l-3.125,7.674Z" transform="translate(-242.792 -240.547)" fill="#319cbc"/>
          <path id="Trazado_670736" data-name="Trazado 670736" d="M246.28,263.945h11.265l1.948-4.738,2.064-5.039h-11.28l-1.09,2.663Z" transform="translate(-241.76 -243.012)" fill="#319cbc"/>
          <path id="Trazado_670737" data-name="Trazado 670737" d="M240.727,277.513h11.251l.262-.642,3.75-9.149H244.739l-.392.969-.741,1.8Z" transform="translate(-240.727 -245.533)" fill="#319cbc"/>
        </g>
        <g id="Grupo_933354" data-name="Grupo 933354" transform="translate(15.987 0.096)" opacity="0.37">
          <path id="Trazado_670738" data-name="Trazado 670738" d="M342.9,254.168h-3.838l2.747,2.7Z" transform="translate(-275.002 -243.107)" fill="#fff"/>
          <path id="Trazado_670739" data-name="Trazado 670739" d="M336.6,250.625h5.611l.451-1.133-7.922-7.62-2.049,4.916Z" transform="translate(-273.817 -240.821)" fill="#fff"/>
          <path id="Trazado_670740" data-name="Trazado 670740" d="M334.591,267.722h-3.939c1.584,1.42,3.11,2.8,4.55,4.1l1.075-2.663Z" transform="translate(-273.438 -245.628)" fill="#fff"/>
          <path id="Trazado_670741" data-name="Trazado 670741" d="M326.152,263.146c.77.683,1.526,1.366,2.267,2.035h3.853l-5.146-4.37Z" transform="translate(-272.601 -244.343)" fill="#fff"/>
          <path id="Trazado_670742" data-name="Trazado 670742" d="M315.777,252.4h1.57l-1.163-.983Z" transform="translate(-270.672 -242.596)" fill="#fff"/>
          <path id="Trazado_670743" data-name="Trazado 670743" d="M318.78,254.168h-3.271c2.471,2.2,4.971,4.424,7.413,6.609l.945-2.294Z" transform="translate(-270.622 -243.107)" fill="#fff"/>
          <path id="Trazado_670744" data-name="Trazado 670744" d="M303.616,243.153c2.588,2.308,5.364,4.78,8.184,7.306l.829-2.007-8.3-7.032Z" transform="translate(-268.41 -240.736)" fill="#fff"/>
          <path id="Trazado_670745" data-name="Trazado 670745" d="M330.045,245.3l1.948-4.725-6.716.041Z" transform="translate(-272.439 -240.58)" fill="#fff"/>
          <path id="Trazado_670746" data-name="Trazado 670746" d="M322.78,271.463l-.61,1.488,5.611,5.257h2.239Z" transform="translate(-271.861 -246.324)" fill="#fff"/>
          <path id="Trazado_670747" data-name="Trazado 670747" d="M318.4,267.722h-2.18l3.62,3.387.61-1.475Z" transform="translate(-270.755 -245.628)" fill="#fff"/>
          <path id="Trazado_670748" data-name="Trazado 670748" d="M311.384,262.862l2.6,2.431h2.166l-4.157-3.878Z" transform="translate(-269.855 -244.455)" fill="#fff"/>
          <path id="Trazado_670749" data-name="Trazado 670749" d="M303.864,254.168h-2.122l6.614,6.2.611-1.448Z" transform="translate(-268.062 -243.107)" fill="#fff"/>
          <path id="Trazado_670750" data-name="Trazado 670750" d="M300.519,250.729l-.582,1.42.131.123h2.108Z" transform="translate(-267.726 -242.468)" fill="#fff"/>
          <path id="Trazado_670751" data-name="Trazado 670751" d="M288.456,241.565l8.067,7.551.581-1.406-7.312-6.828-1.061.014Z" transform="translate(-265.591 -240.636)" fill="#fff"/>
          <path id="Trazado_670752" data-name="Trazado 670752" d="M301.737,241.89l.451-1.092-1.643.014Z" transform="translate(-267.839 -240.621)" fill="#fff"/>
          <path id="Trazado_670753" data-name="Trazado 670753" d="M278.313,265.377h4.928l-3.474-3.509Z" transform="translate(-263.704 -244.539)" fill="#fff"/>
          <path id="Trazado_670754" data-name="Trazado 670754" d="M288.616,278.536h7.457l-5.262-5.312Z" transform="translate(-265.621 -246.651)" fill="#fff"/>
          <path id="Trazado_670755" data-name="Trazado 670755" d="M277.3,268.446l8.038,7.906L287.528,271l-3.242-3.277H277.6Z" transform="translate(-263.515 -245.628)" fill="#fff"/>
          <path id="Trazado_670756" data-name="Trazado 670756" d="M265.956,256.831l7.224,7.114h1.134l1.948-4.738-4.986-5.039h-4.23Z" transform="translate(-261.406 -243.107)" fill="#fff"/>
          <path id="Trazado_670757" data-name="Trazado 670757" d="M267.938,252.219h2.471l-1.744-1.775Z" transform="translate(-261.775 -242.415)" fill="#fff"/>
          <path id="Trazado_670758" data-name="Trazado 670758" d="M260.367,270.716l6.861,7.019h1.512l.262-.642-7.893-8.18Z" transform="translate(-260.367 -245.85)" fill="#fff"/>
        </g>
      </g>
    </g>
    <g id="Grupo_933364" data-name="Grupo 933364" transform="translate(184.522 174.12)">
      <path id="Trazado_670759" data-name="Trazado 670759" d="M225.546,301.19a24.1,24.1,0,0,1-.712,5.851c-.712,2.187-.407,2.849.712,3.1s4.579.305,4.528-.611-1.679-3.46-1.78-4.579-.407-3.765-.407-3.765Z" transform="translate(-219.341 -217.757)" fill="#534741"/>
      <path id="Trazado_670760" data-name="Trazado 670760" d="M245.421,301.9s1.577,2.8,1.373,4.528-.457,3.2.56,3.561,9.615.509,9.056-.305-5.139-2.51-6-3.6a25.64,25.64,0,0,1-2.137-4.9Z" transform="translate(-223.242 -217.757)" fill="#534741"/>
      <path id="Trazado_670761" data-name="Trazado 670761" d="M225.393,245.3s-2.062,8.677-1.791,14.782.068,29.644,1.492,31.069a2.3,2.3,0,0,0,3.6,0c.543-.814.882-16.484.882-16.484s.746-21.233,1.153-20.147,3.8,16.416,4.613,19.2,3.867,16.213,5.088,17.569a2.993,2.993,0,0,0,3.527.719c.95-.312,1.085-.786.611-2.007s-4.748-23-5.088-25.709-1.492-16.643-2.646-18.5S225.393,245.3,225.393,245.3Z" transform="translate(-219.179 -207.272)" fill="#242754"/>
      <g id="Grupo_933357" data-name="Grupo 933357" transform="translate(6.815 4.892)">
        <path id="Trazado_670762" data-name="Trazado 670762" d="M226.546,206.338a5.236,5.236,0,0,0,.966,2.832,3.683,3.683,0,0,0,1.476,1.018s2.59-.517,2.618-2.8-3.788-3.154-4.4-2.442A2.659,2.659,0,0,0,226.546,206.338Z" transform="translate(-226.546 -204.706)" fill="#cc684e"/>
      </g>
      <g id="Grupo_933358" data-name="Grupo 933358" transform="translate(7.781 4.422)">
        <path id="Trazado_670763" data-name="Trazado 670763" d="M235.212,204.128s1.272,5.9.407,6.614-2.8.457-2.8.457.153,1.73.509,2.035a3.5,3.5,0,0,0,1.041.509s-.99,3.918-2.211,3.765-4.427-2.747-4.427-2.747,1.578-.1,1.578-.611-.1-4.07-.1-4.07.457.305.407-.661-1.578-1.323-1.018-2.137.559-.255,1.475-.509.051-1.323.051-1.323Z" transform="translate(-227.733 -204.128)" fill="#ffbf9f"/>
      </g>
      <g id="Grupo_933359" data-name="Grupo 933359" transform="translate(6.32)">
        <path id="Trazado_670764" data-name="Trazado 670764" d="M234.878,203.118s1.475-.509,1.068-1.018-1.577-.662-1.678-.814-2.29-3.613-5.546-2.29-2.9,6.055-2.594,6.207a21.985,21.985,0,0,0,3.663-.763Z" transform="translate(-225.938 -198.696)" fill="#ffe045"/>
      </g>
      <path id="Trazado_670765" data-name="Trazado 670765" d="M233.576,212.652l-1.78-.712s.97,2.5,1.425,1.985A1.784,1.784,0,0,0,233.576,212.652Z" transform="translate(-220.708 -201.159)" fill="#c96353"/>
      <path id="Trazado_670766" data-name="Trazado 670766" d="M251.764,223.434c-.269-.472-8.409,5.023-8.954,5.364s-5.014-9.361-5.495-10.786-4.721-2.068-4.721-2.068-.92,2.532-2.125,2.882-4.518-1.872-4.518-1.872-.366-.1-1.254.448c-.684.423-3.036,1.148-3.256,1.913-1.1,3.85-2.222,7.717-2.979,11.649-.814,4.347.065,4.681,3.053,5.9.749.309,1.652.692,2.572,1.075-.09.651-.171,1.2-.2,1.644-.041.651,4.778.912,8.45.928a22.162,22.162,0,0,0,4.038-.187c.611-.334,0-2.369-.073-4.4s.342-9.768.342-9.768,3.525,7.326,4.542,7.937,11.8-7.668,12.007-8.14S252.041,223.914,251.764,223.434Zm-29.1,9.027c0-.952,1.5-7.261,1.5-7.261a14.37,14.37,0,0,1,.212,2.589c.008.1.008.2.016.3v.09c.049,1.872.024,4.184,0,5.731C223.387,233.284,222.663,232.746,222.663,232.461Z" transform="translate(-218.174 -201.904)" fill="#4ecdea"/>
      <g id="Grupo_933360" data-name="Grupo 933360" transform="translate(5.709 21.974)">
        <path id="Trazado_670767" data-name="Trazado 670767" d="M225.808,236.706c.024-1.547.049-3.858,0-5.731.122,1.783,6.667,9.166,6.667,9.166Z" transform="translate(-225.303 -226.673)" fill="#1fa1c9"/>
        <path id="Trazado_670768" data-name="Trazado 670768" d="M233.637,245.537c-3.671-.016-8.49-.277-8.45-.928.033-.448.114-.993.2-1.644Z" transform="translate(-225.188 -228.903)" fill="#1fa1c9"/>
        <path id="Trazado_670769" data-name="Trazado 670769" d="M240.486,227.965l-1.628-2.275,1.419,6.724Z" transform="translate(-227.73 -225.69)" fill="#1fa1c9"/>
      </g>
      <g id="Grupo_933361" data-name="Grupo 933361" transform="translate(33.59 19.295)">
        <path id="Trazado_670770" data-name="Trazado 670770" d="M259.438,224.634l2.106-2.236v3.494l-.882.95Z" transform="translate(-259.438 -222.398)" fill="#ffbf9f"/>
      </g>
      <path id="Trazado_670771" data-name="Trazado 670771" d="M262.022,225.124s0-6.852.339-6.852,3.833-.068,3.9.645-.407,7.564-.814,7.666-3.087.135-3.29-.272A2.86,2.86,0,0,1,262.022,225.124Z" transform="translate(-226.327 -202.336)" fill="#1c2b49"/>
      <g id="Grupo_933362" data-name="Grupo 933362" transform="translate(38.432 18.04)">
        <path id="Trazado_670772" data-name="Trazado 670772" d="M267.195,220.857a1.809,1.809,0,0,0-1.56,1.254c-.509,1.255-.135,3.019.238,2.747a2.369,2.369,0,0,0,1.323-1.987C267.5,221.306,267.195,220.857,267.195,220.857Z" transform="translate(-265.387 -220.857)" fill="#ffbf9f"/>
      </g>
      <path id="Trazado_670773" data-name="Trazado 670773" d="M232.358,255.724l.329-4.409,3.9,22.167Z" transform="translate(-220.812 -208.482)" fill="#1a1d38"/>
      <g id="Grupo_933363" data-name="Grupo 933363" transform="translate(11.875 36.036)">
        <path id="Trazado_670774" data-name="Trazado 670774" d="M233.451,242.965s2.9.59,2.188.845-1.439.069-.593.441,2.686.574,2.173,1.262a1.728,1.728,0,0,1-2.173.536,9.279,9.279,0,0,1-2.284-1.223s.587-.506.587-.965A4.5,4.5,0,0,1,233.451,242.965Z" transform="translate(-232.762 -242.965)" fill="#ffbf9f"/>
      </g>
    </g>
    <g id="Grupo_933373" data-name="Grupo 933373" transform="translate(57.379 174.613)">
      <path id="Trazado_670775" data-name="Trazado 670775" d="M73.575,299.773a13.531,13.531,0,0,1-1.119,4.206c-.916,1.832-1.188,2.544-.339,3.324s6.783,2.273,7.733,1.56.339-1.018-.645-2-2.51-2.1-2.679-3.935a8.006,8.006,0,0,1,.305-3.154Z" transform="translate(-63.772 -217.987)" fill="#232538"/>
      <path id="Trazado_670776" data-name="Trazado 670776" d="M102.842,301.587a12.659,12.659,0,0,1,.339,4.851c-.407,2.1-1.018,2.851,1.051,2.8s7.6.05,7.8-.832-2.985-2.035-4.037-2.747-1.8-4.884-1.8-4.884Z" transform="translate(-69.569 -218.173)" fill="#232538"/>
      <path id="Trazado_670777" data-name="Trazado 670777" d="M80.68,244.9a14.463,14.463,0,0,0-1.919,5.508c-.087,2.442-2.6,20.351-3.343,25.709s-3.053,12.686-2.035,13.771,4.342,1.7,4.952.95,3.12-11.8,3.934-14.856,4.681-23.268,4.952-21.843S93.259,271.032,93.53,273s2.442,18.858,3.256,18.994,5.156.339,5.156-1.763-1.493-17.977-3.392-23.132-7.009-22.833-7.009-22.833Z" transform="translate(-64.056 -207.664)" fill="#333970"/>
      <path id="Trazado_670778" data-name="Trazado 670778" d="M79.45,265.276H62.8a.814.814,0,0,1-.814-.814h0a.814.814,0,0,1,.814-.814H79.45a.814.814,0,0,1,.814.814h0A.813.813,0,0,1,79.45,265.276Z" transform="translate(-61.983 -211.269)" fill="#ff4571"/>
      <path id="Trazado_670779" data-name="Trazado 670779" d="M79.45,276.526H62.8a.814.814,0,0,1-.814-.814h0a.814.814,0,0,1,.814-.814H79.45a.814.814,0,0,1,.814.814h0A.813.813,0,0,1,79.45,276.526Z" transform="translate(-61.983 -213.361)" fill="#ff4571"/>
      <rect id="Rectángulo_329193" data-name="Rectángulo 329193" width="16.654" height="7.53" transform="translate(0.814 54.008)" fill="#ed2e53"/>
      <path id="Trazado_670780" data-name="Trazado 670780" d="M64.858,262.432l2.254-4.066a2.441,2.441,0,0,1,2.136-1.258H74.73a2.444,2.444,0,0,1,2.125,1.237l2.317,4.087H77.543l-1.652-3.112a2.441,2.441,0,0,0-2.157-1.3H69.859a2.441,2.441,0,0,0-2.136,1.258l-1.745,3.15Z" transform="translate(-62.518 -210.052)" fill="#c4264b"/>
      <g id="Grupo_933365" data-name="Grupo 933365" transform="translate(7.708 44.409)">
        <path id="Trazado_670781" data-name="Trazado 670781" d="M71.85,253.857a27.759,27.759,0,0,1-.373,3.018c-.238,1.085,1.221,1.73,2.408,1.425s1.662-.916,1.153-1.56a11.159,11.159,0,0,1-1.085-2.442Z" transform="translate(-71.451 -253.857)" fill="#ffbf9f"/>
      </g>
      <g id="Grupo_933366" data-name="Grupo 933366" transform="translate(39.819 38.032)">
        <path id="Trazado_670782" data-name="Trazado 670782" d="M110.9,247.312s1.119,3.222,2.577,3.561,2.34-.339,1.73-.916-1.56-1.357-1.018-1.459,1.119-.407.339-.78a13.657,13.657,0,0,1-2.2-1.7Z" transform="translate(-110.9 -246.023)" fill="#ffbf9f"/>
      </g>
      <path id="Trazado_670783" data-name="Trazado 670783" d="M79.3,209.612s1.119,3.358,3.053,4.121a3.925,3.925,0,0,0,3.256,0l-.889-6.105Z" transform="translate(-65.203 -200.85)" fill="#232538"/>
      <g id="Grupo_933367" data-name="Grupo 933367" transform="translate(16.441 6.167)">
        <path id="Trazado_670784" data-name="Trazado 670784" d="M89.4,206.878s1.984,4.833,1.17,6.207a2.3,2.3,0,0,1-2.035,1.271l.407,1.374s-1.018,2.594-2.187,2.085a8.933,8.933,0,0,1-2.29-1.628s-.254-3.394-.916-3.808-1.832-2.2-1.17-1.992,1.73.764,1.577.255-.559-2.188-.559-2.188Z" transform="translate(-82.18 -206.878)" fill="#ffbf9f"/>
      </g>
      <g id="Grupo_933368" data-name="Grupo 933368" transform="translate(13.584)">
        <path id="Trazado_670785" data-name="Trazado 670785" d="M88.745,205.469s1.882-.509,1.78-.662-1.933-.457-2.187-.916-2.326-6.156-6.81-4.172-2.348,8.344-2.348,8.344l3.561-1.018Z" transform="translate(-78.671 -199.302)" fill="#ffe045"/>
      </g>
      <path id="Trazado_670786" data-name="Trazado 670786" d="M89.262,215.862l-3.154-.891s1.857,2.188,2.366,1.933A2.12,2.12,0,0,0,89.262,215.862Z" transform="translate(-66.47 -202.216)" fill="#c96353"/>
      <g id="Grupo_933369" data-name="Grupo 933369" transform="translate(6.675 15.021)">
        <path id="Trazado_670787" data-name="Trazado 670787" d="M105.076,240.7c.1.554-1.482,2.23-1.986,2.637-.407.326-4.949-4.721-7.147-7.285-.529-.619-.92-1.091-1.091-1.311-.847-1.083-3.11-5.413-3.248-5.682l-.008-.016s.147,6.26.407,7.994a2.066,2.066,0,0,1-.92,2.287l-.09.008-10.289.7s-1.677.049-1.579-1.221-.912-11.445-.912-11.445-3.11,6.357-3.565,7.424-.554,12.52-.659,13.024-1.522.358-2.442.26S70.024,238.2,70.22,236.07c.212-2.141,4.428-10.126,5.853-13.277s6.162-4.583,6.162-4.583,1.823.814,2.491,1.018,1.986-1.473,1.986-1.473a23.322,23.322,0,0,1,4.265.912c.871.464,5.7,10.485,6.463,11.754S104.97,240.141,105.076,240.7Z" transform="translate(-70.183 -217.755)" fill="#f4bd5b"/>
      </g>
      <g id="Grupo_933370" data-name="Grupo 933370" transform="translate(28.088 21.786)">
        <path id="Trazado_670788" data-name="Trazado 670788" d="M100.835,237.6c-.529-.619-.92-1.091-1.091-1.311-.847-1.083-3.11-5.413-3.248-5.682l-.008-.016v-4.526Z" transform="translate(-96.488 -226.065)" fill="#ef8a5e"/>
      </g>
      <g id="Grupo_933371" data-name="Grupo 933371" transform="translate(14.705 20.972)">
        <path id="Trazado_670789" data-name="Trazado 670789" d="M92.828,240.694l-10.289.7s-1.677.049-1.579-1.221-.912-11.445-.912-11.445l.912-3.663a43.333,43.333,0,0,0,.822,8.751C82.628,237.552,89.824,240.328,92.828,240.694Z" transform="translate(-80.048 -225.065)" fill="#ef8a5e"/>
      </g>
      <g id="Grupo_933372" data-name="Grupo 933372" transform="translate(0.814 54.008)">
        <rect id="Rectángulo_329194" data-name="Rectángulo 329194" width="16.654" height="1.153" fill="#c4264b"/>
        <rect id="Rectángulo_329195" data-name="Rectángulo 329195" width="16.654" height="1.645" transform="translate(0 5.885)" fill="#c4264b"/>
      </g>
    </g>
    <g id="Grupo_933378" data-name="Grupo 933378" transform="translate(292.99 181.898)">
      <path id="Trazado_670790" data-name="Trazado 670790" d="M371.144,306.648s1.153,7.733.407,7.666-9.565,1.289-9.361-.611,4.2-1.628,5.223-2.781,1.289-4.274,1.289-4.274Z" transform="translate(-353.426 -226.55)" fill="#232538"/>
      <path id="Trazado_670791" data-name="Trazado 670791" d="M397.318,306.338s.882,4.274-2.1,5.631-2.239,3.056-1.018,3.056,8.819-3.663,8.547-4.343-2.917-5.7-2.917-5.7Z" transform="translate(-359.181 -226.241)" fill="#232538"/>
      <path id="Trazado_670792" data-name="Trazado 670792" d="M377.871,249.625l-2.9,9.771s-5.088,18.824-5.6,24.675-1.119,11.244-.509,11.956,4.681,2.086,5.545,0,2.137-13.33,2.239-15.365a29.859,29.859,0,0,1,1.476-6.36c.509-1.679,4.579-14.666,4.782-13.769s2.035,16.568,2.7,19.366,5.444,16.509,6.309,17.234,4.834-.547,4.935-1.87-4.63-18.162-4.834-19.282-1.221-14.4-2.035-17.807-2.027-8.215-2.027-8.215Z" transform="translate(-354.62 -215.945)" fill="#242754"/>
      <path id="Trazado_670793" data-name="Trazado 670793" d="M396.517,261.375s-2.081,3.207-2.845,3.564.191,1.4,1.723.978,3.249-2.406,3.256-3.3S396.517,261.375,396.517,261.375Z" transform="translate(-359.232 -218.131)" fill="#ed8772"/>
      <g id="Grupo_933374" data-name="Grupo 933374" transform="translate(10.78 14.192)">
        <path id="Trazado_670794" data-name="Trazado 670794" d="M397.082,244.464a69.824,69.824,0,0,1-2.849,11.445c-.407.611-2.442-.562-3.061-1.172-.6-.611,1.84-9.109,1.986-10.175.146-1.034-3.671-8.905-3.907-9.386l-.008-.024a51.905,51.905,0,0,1-.814,5.592c-.358,1.075-.049,4.176-.513,4.632s-10.778-.2-10.778-.2a5,5,0,0,1-.969-1.115c-.464-.716.814-6.87.814-6.87s-3.411,4.632-4.322,5.853-6.569,3.354-6.569,3.354l-1.425-3.557a48.183,48.183,0,0,0,4.738-2.548c.912-.708,7.473-12.357,8.189-13.326s4.322-1.278,4.322-1.278.252,3.313,1.473,2.8,2.751-2.8,2.751-2.8a51.506,51.506,0,0,1,5.088,2.906C392.044,229.3,397.18,242.324,397.082,244.464Z" transform="translate(-364.668 -225.685)" fill="#f4bd5b"/>
      </g>
      <path id="Trazado_670795" data-name="Trazado 670795" d="M424.715,298.083h-.173c-5.469-.057-8.156-.664-14.727-6.882-4.817-4.558-6.716-9.137-8.391-13.177-.575-1.385-1.118-2.694-1.748-3.937-3.412-6.729-6.555-10.707-9.344-11.822-1.782-.715-4.432.539-6.992,1.752-2.151,1.019-4.375,2.072-6.357,2.105h-.09c-5.146,0-7.193-7.231-7.868-9.615-.917-3.237-5.224-5.865-5.267-5.892l.839-1.4c.2.12,4.9,2.983,5.994,6.843,1.605,5.671,3.668,8.431,6.3,8.431h.061c1.63-.026,3.692-1,5.688-1.949,2.874-1.361,5.848-2.771,8.292-1.792,3.211,1.285,6.546,5.406,10.192,12.6.658,1.3,1.212,2.634,1.8,4.05,1.692,4.08,3.441,8.3,8.006,12.617,6.206,5.872,8.413,6.384,13.626,6.437,3.339.052,6.486-1.108,7.936-2.912a3.7,3.7,0,0,0,.759-3.294c-.756-3.279-3.451-5.529-5.828-7.514-.6-.5-1.162-.971-1.662-1.431-2.592-2.382-3.064-3.835-3.167-4.045l.743-1.919a16.192,16.192,0,0,0,3.526,4.766c.483.444,1.029.9,1.6,1.38,2.446,2.043,5.491,4.586,6.371,8.4a5.325,5.325,0,0,1-1.078,4.679C432.013,296.742,428.557,298.083,424.715,298.083Z" transform="translate(-353.719 -215.87)" fill="#5f879b"/>
      <path id="Trazado_670796" data-name="Trazado 670796" d="M356.448,245.964h0a.779.779,0,0,1-1.1-.124l-3.758-4.714a.78.78,0,0,1,.124-1.1h0a.78.78,0,0,1,1.1.124l3.758,4.714A.781.781,0,0,1,356.448,245.964Z" transform="translate(-351.425 -214.129)" fill="#adc3c4"/>
      <path id="Trazado_670797" data-name="Trazado 670797" d="M360.887,242.426h0a.78.78,0,0,1-1.1-.124l-3.757-4.714a.78.78,0,0,1,.124-1.1h0a.78.78,0,0,1,1.1.124l3.758,4.714A.78.78,0,0,1,360.887,242.426Z" transform="translate(-352.251 -213.471)" fill="#adc3c4"/>
      <path id="Trazado_670798" data-name="Trazado 670798" d="M394.848,217.625s-1.221,5.291-4.138,4.545-4.172-6.478-1.7-7.564S394.848,217.625,394.848,217.625Z" transform="translate(-358.17 -209.399)" fill="#232538"/>
      <path id="Trazado_670799" data-name="Trazado 670799" d="M385.544,223.792l.085-.933a2.556,2.556,0,0,1-1.442-2.289,16.384,16.384,0,0,1,.984-5.088l5.019,1.254s-.373,2.544.2,2.239,1.323-.78,1.221-.033a1.712,1.712,0,0,1-.949,1.526c-.712.44-1.153,1.221-.882,1.56l.272.339-.288,1.425s-1.307,4.715-3.409,3.9S385.544,223.792,385.544,223.792Z" transform="translate(-357.515 -209.596)" fill="#ed8772"/>
      <path id="Trazado_670800" data-name="Trazado 670800" d="M385.962,224.377a7.362,7.362,0,0,0,1.781-.288,4.58,4.58,0,0,0,1.119-.441s-1.967,2.34-2.239,2.137A4.983,4.983,0,0,1,385.962,224.377Z" transform="translate(-357.848 -211.114)" fill="#bc6658"/>
      <g id="Grupo_933375" data-name="Grupo 933375" transform="translate(25.743)">
        <path id="Trazado_670801" data-name="Trazado 670801" d="M384.963,214.137s-2.1-.475-1.9-.814,2.171-.374,2.171-.374,1.07-5.7,6.182-4.545,2.568,8.073,2.568,8.073Z" transform="translate(-383.049 -208.251)" fill="#ffe045"/>
      </g>
      <g id="Grupo_933376" data-name="Grupo 933376" transform="translate(18.77 20.2)">
        <path id="Trazado_670802" data-name="Trazado 670802" d="M378.808,238.56l.407-5.495-4.732,11.345Z" transform="translate(-374.483 -233.065)" fill="#ef8a5e"/>
      </g>
      <g id="Grupo_933377" data-name="Grupo 933377" transform="translate(23.251 20.199)">
        <path id="Trazado_670803" data-name="Trazado 670803" d="M392.092,236.525a51.905,51.905,0,0,1-.814,5.592c-.358,1.075-.049,4.176-.513,4.632s-10.778-.2-10.778-.2c12.153.26,11.8-13.48,11.8-13.48Z" transform="translate(-379.988 -233.065)" fill="#ef8a5e"/>
      </g>
      <path id="Trazado_670804" data-name="Trazado 670804" d="M361.371,238.357l-8.513,7.428,3.294,3.588a4.069,4.069,0,0,0,5.59.386l2.323-1.919a4.07,4.07,0,0,0,.489-5.8Z" transform="translate(-351.691 -213.85)" fill="#304654"/>
      <path id="Trazado_670805" data-name="Trazado 670805" d="M358.507,252.562s-2.546.992-3.224-.263-.238-3.615.611-3.1,1.119,2.283,1.7,2.588A2.965,2.965,0,0,1,358.507,252.562Z" transform="translate(-352.081 -215.853)" fill="#ed8772"/>
    </g>
    <g id="Grupo_933383" data-name="Grupo 933383" transform="translate(224.981 230.874)">
      <path id="Trazado_670806" data-name="Trazado 670806" d="M286.841,294.673v8.756H340.5V287.22h2.125v18.459H284.291V294.673Z" transform="translate(-270.93 -271.913)" fill="#46647a"/>
      <path id="Trazado_670807" data-name="Trazado 670807" d="M267.88,296.267h65.23l11.538-27.851H279.926Z" transform="translate(-267.877 -268.416)" fill="#fff"/>
      <path id="Trazado_670808" data-name="Trazado 670808" d="M346.848,298.546h1.261l.013-.023,11.21-26.909v-3.186L347.769,296.3Z" transform="translate(-282.564 -268.418)" fill="#64819b"/>
      <path id="Trazado_670809" data-name="Trazado 670809" d="M267.877,302.627v2.279h65.558v-.023l-.353-2.221v-.035Z" transform="translate(-267.877 -274.778)" fill="#7da9c9"/>
      <g id="Grupo_933379" data-name="Grupo 933379" transform="translate(13.361 1.097)">
        <path id="Trazado_670810" data-name="Trazado 670810" d="M314.234,280.721l-3.275,7.828h-9.172l3.306-7.828Z" transform="translate(-287.545 -271.801)" fill="#40b4e2"/>
        <path id="Trazado_670811" data-name="Trazado 670811" d="M328.478,277.715h-9.136l3.255-7.707,9.133-.065Z" transform="translate(-290.81 -269.797)" fill="#40b4e2"/>
        <path id="Trazado_670812" data-name="Trazado 670812" d="M318.725,270.036l-3.22,7.7h-9.136l3.223-7.631Z" transform="translate(-288.397 -269.814)" fill="#40b4e2"/>
        <path id="Trazado_670813" data-name="Trazado 670813" d="M340.806,277.7h-8.492l3.287-7.783,8.486-.061Z" transform="translate(-293.222 -269.78)" fill="#40b4e2"/>
        <path id="Trazado_670814" data-name="Trazado 670814" d="M314.76,288.548l3.306-7.828h9.141l-3.275,7.828Z" transform="translate(-289.958 -271.801)" fill="#40b4e2"/>
        <path id="Trazado_670815" data-name="Trazado 670815" d="M349.065,288.548h-9.15l3.306-7.828h9.07Z" transform="translate(-294.636 -271.801)" fill="#40b4e2"/>
        <path id="Trazado_670816" data-name="Trazado 670816" d="M302.519,277.75h-9.192l3.147-7.555,9.233-.066Z" transform="translate(-285.972 -269.831)" fill="#40b4e2"/>
        <path id="Trazado_670817" data-name="Trazado 670817" d="M310.179,299.394l3.306-7.827h9.176l-3.275,7.827Z" transform="translate(-289.106 -273.818)" fill="#40b4e2"/>
        <path id="Trazado_670818" data-name="Trazado 670818" d="M339.535,280.721l-3.275,7.828h-8.527l3.306-7.828Z" transform="translate(-292.37 -271.801)" fill="#40b4e2"/>
        <path id="Trazado_670819" data-name="Trazado 670819" d="M297.206,299.394l3.306-7.827h9.176l-3.275,7.827Z" transform="translate(-286.693 -273.818)" fill="#40b4e2"/>
        <path id="Trazado_670820" data-name="Trazado 670820" d="M323.152,299.394l3.306-7.827h8.531l-3.275,7.827Z" transform="translate(-291.518 -273.818)" fill="#40b4e2"/>
        <path id="Trazado_670821" data-name="Trazado 670821" d="M344.5,277.682l3.317-7.854,9.006-.065-3.263,7.919Z" transform="translate(-295.488 -269.763)" fill="#40b4e2"/>
        <path id="Trazado_670822" data-name="Trazado 670822" d="M301.26,280.721l-3.275,7.828h-9.176l3.261-7.828Z" transform="translate(-285.131 -271.801)" fill="#40b4e2"/>
        <path id="Trazado_670823" data-name="Trazado 670823" d="M335.333,299.394l3.306-7.827H347.8l-3.226,7.827Z" transform="translate(-293.784 -273.818)" fill="#40b4e2"/>
        <path id="Trazado_670824" data-name="Trazado 670824" d="M287.552,291.567h9.174l-3.275,7.827h-9.16Z" transform="translate(-284.291 -273.818)" fill="#40b4e2"/>
      </g>
      <g id="Grupo_933382" data-name="Grupo 933382" transform="translate(2.675 1.097)">
        <g id="Grupo_933380" data-name="Grupo 933380">
          <path id="Trazado_670825" data-name="Trazado 670825" d="M301.786,288.546h9.167l3.281-7.82h-9.143l-2.12,5.013Z" transform="translate(-276.858 -271.802)" fill="#40b4e2"/>
          <path id="Trazado_670826" data-name="Trazado 670826" d="M319.347,277.714h9.131l.024-.066.675-1.606,2.558-6.105-9.143.065-.178.415-.58,1.387-1.966,4.675-.474,1.136Z" transform="translate(-280.124 -269.796)" fill="#40b4e2"/>
          <path id="Trazado_670827" data-name="Trazado 670827" d="M306.369,277.732H315.5l.438-1.06.474-1.125,1.942-4.642.367-.874-1.338.011-6.928.044-.865.011-.225.535Z" transform="translate(-277.711 -269.813)" fill="#40b4e2"/>
          <path id="Trazado_670828" data-name="Trazado 670828" d="M332.31,277.7H340.8l1.694-4.063,1.587-3.779-5.471.033-3.008.022-2.961,7Z" transform="translate(-282.535 -269.781)" fill="#40b4e2"/>
          <path id="Trazado_670829" data-name="Trazado 670829" d="M314.764,288.546h9.167l1.2-2.862.5-1.158,1.587-3.8h-9.143Z" transform="translate(-279.272 -271.802)" fill="#40b4e2"/>
          <path id="Trazado_670830" data-name="Trazado 670830" d="M339.92,288.546h9.143l2.345-5.658.888-2.163h-9.072l-1.824,4.325-.793,1.868Z" transform="translate(-283.95 -271.802)" fill="#40b4e2"/>
          <path id="Trazado_670831" data-name="Trazado 670831" d="M293.333,277.749h9.19l3.186-7.624-9.238.066-2.546,6.138Z" transform="translate(-275.286 -269.831)" fill="#40b4e2"/>
          <path id="Trazado_670832" data-name="Trazado 670832" d="M310.181,299.4h9.2l3.281-7.831h-9.179l-1.516,3.582Z" transform="translate(-278.419 -273.818)" fill="#40b4e2"/>
          <path id="Trazado_670833" data-name="Trazado 670833" d="M327.727,288.546h8.527l1.066-2.534.77-1.835,1.445-3.451h-8.492l-2,4.718-.5,1.158Z" transform="translate(-281.683 -271.802)" fill="#40b4e2"/>
          <path id="Trazado_670834" data-name="Trazado 670834" d="M297.2,299.4h9.214l.391-.928,1.788-4.282,1.09-2.621h-9.178l-.249.579Z" transform="translate(-276.006 -273.818)" fill="#40b4e2"/>
          <path id="Trazado_670835" data-name="Trazado 670835" d="M323.159,299.4h8.551l2.144-5.122.5-1.18.639-1.529h-8.527Z" transform="translate(-280.833 -273.818)" fill="#40b4e2"/>
          <path id="Trazado_670836" data-name="Trazado 670836" d="M344.488,277.682h9.06l.367-.907,2.9-7.012-9,.066-.355.852-1.67,3.932Z" transform="translate(-284.8 -269.763)" fill="#40b4e2"/>
          <path id="Trazado_670837" data-name="Trazado 670837" d="M288.809,288.546h9.178l1.587-3.79,1.682-4.03h-9.19l-.888,2.13Z" transform="translate(-274.445 -271.802)" fill="#40b4e2"/>
          <path id="Trazado_670838" data-name="Trazado 670838" d="M335.337,299.4h9.238l1.871-4.555.876-2.13.474-1.147h-9.155L337.61,294l-.5,1.191Z" transform="translate(-283.098 -273.818)" fill="#40b4e2"/>
          <path id="Trazado_670839" data-name="Trazado 670839" d="M284.284,299.4h9.167l.213-.513,3.056-7.318h-9.167l-.32.775-.6,1.442Z" transform="translate(-273.603 -273.818)" fill="#40b4e2"/>
          <path id="Trazado_670840" data-name="Trazado 670840" d="M280.212,277.749h9.19l3.186-7.624-9.238.066-2.546,6.138Z" transform="translate(-272.846 -269.831)" fill="#40b4e2"/>
          <path id="Trazado_670841" data-name="Trazado 670841" d="M275.688,288.546h9.179l1.587-3.79,1.682-4.03h-9.19l-.888,2.13Z" transform="translate(-272.004 -271.802)" fill="#40b4e2"/>
          <path id="Trazado_670842" data-name="Trazado 670842" d="M271.163,299.4h9.167l.213-.513,3.056-7.318h-9.167l-.32.775-.6,1.442Z" transform="translate(-271.163 -273.818)" fill="#40b4e2"/>
        </g>
        <g id="Grupo_933381" data-name="Grupo 933381" transform="translate(13.026 0.076)" opacity="0.37">
          <path id="Trazado_670843" data-name="Trazado 670843" d="M354.409,280.725h-3.127l2.238,2.163Z" transform="translate(-299.089 -271.878)" fill="#fff"/>
          <path id="Trazado_670844" data-name="Trazado 670844" d="M349.274,277.891h4.571l.367-.907-6.455-6.095-1.67,3.932Z" transform="translate(-298.123 -270.049)" fill="#fff"/>
          <path id="Trazado_670845" data-name="Trazado 670845" d="M347.64,291.567h-3.21c1.291,1.136,2.534,2.239,3.707,3.276l.876-2.129Z" transform="translate(-297.815 -273.895)" fill="#fff"/>
          <path id="Trazado_670846" data-name="Trazado 670846" d="M340.763,287.906c.628.546,1.244,1.092,1.848,1.627h3.139l-4.193-3.495Z" transform="translate(-297.133 -272.867)" fill="#fff"/>
          <path id="Trazado_670847" data-name="Trazado 670847" d="M332.31,279.311h1.279l-.947-.786Z" transform="translate(-295.561 -271.469)" fill="#fff"/>
          <path id="Trazado_670848" data-name="Trazado 670848" d="M334.757,280.725h-2.665c2.013,1.759,4.051,3.539,6.04,5.286l.77-1.835Z" transform="translate(-295.52 -271.878)" fill="#fff"/>
          <path id="Trazado_670849" data-name="Trazado 670849" d="M322.4,271.915c2.108,1.846,4.37,3.823,6.668,5.843l.675-1.605-6.763-5.625Z" transform="translate(-293.718 -269.982)" fill="#fff"/>
          <path id="Trazado_670850" data-name="Trazado 670850" d="M343.935,273.636l1.587-3.779-5.471.033Z" transform="translate(-297 -269.857)" fill="#fff"/>
          <path id="Trazado_670851" data-name="Trazado 670851" d="M338.016,294.559l-.5,1.19,4.572,4.2h1.824Z" transform="translate(-296.529 -274.451)" fill="#fff"/>
          <path id="Trazado_670852" data-name="Trazado 670852" d="M334.451,291.567h-1.776l2.949,2.709.5-1.18Z" transform="translate(-295.628 -273.895)" fill="#fff"/>
          <path id="Trazado_670853" data-name="Trazado 670853" d="M328.731,287.679l2.12,1.944h1.765l-3.387-3.1Z" transform="translate(-294.895 -272.956)" fill="#fff"/>
          <path id="Trazado_670854" data-name="Trazado 670854" d="M322.6,280.725h-1.729l5.389,4.959.5-1.158Z" transform="translate(-293.434 -271.878)" fill="#fff"/>
          <path id="Trazado_670855" data-name="Trazado 670855" d="M319.879,277.975l-.474,1.136.107.1h1.717Z" transform="translate(-293.161 -271.367)" fill="#fff"/>
          <path id="Trazado_670856" data-name="Trazado 670856" d="M310.05,270.645l6.573,6.04.474-1.125L311.14,270.1l-.865.011Z" transform="translate(-291.421 -269.902)" fill="#fff"/>
          <path id="Trazado_670857" data-name="Trazado 670857" d="M320.871,270.905l.367-.873-1.338.011Z" transform="translate(-293.253 -269.89)" fill="#fff"/>
          <path id="Trazado_670858" data-name="Trazado 670858" d="M301.786,289.691H305.8l-2.831-2.807Z" transform="translate(-289.884 -273.024)" fill="#fff"/>
          <path id="Trazado_670859" data-name="Trazado 670859" d="M310.181,300.216h6.076l-4.287-4.249Z" transform="translate(-291.445 -274.713)" fill="#fff"/>
          <path id="Trazado_670860" data-name="Trazado 670860" d="M300.957,292.146l6.549,6.324,1.788-4.282-2.641-2.621h-5.448Z" transform="translate(-289.73 -273.895)" fill="#fff"/>
          <path id="Trazado_670861" data-name="Trazado 670861" d="M291.719,282.855l5.886,5.69h.924l1.587-3.79-4.062-4.03h-3.446Z" transform="translate(-288.012 -271.878)" fill="#fff"/>
          <path id="Trazado_670862" data-name="Trazado 670862" d="M293.333,279.167h2.013l-1.421-1.42Z" transform="translate(-288.312 -271.324)" fill="#fff"/>
          <path id="Trazado_670863" data-name="Trazado 670863" d="M287.165,293.961l5.59,5.614h1.232l.213-.513-6.431-6.542Z" transform="translate(-287.165 -274.072)" fill="#fff"/>
        </g>
      </g>
    </g>
    <ellipse id="Elipse_5244" data-name="Elipse 5244" cx="7.272" cy="1.221" rx="7.272" ry="1.221" transform="translate(105.583 270.882)" fill="#8ddb7f"/>
    <ellipse id="Elipse_5245" data-name="Elipse 5245" cx="4.253" cy="0.611" rx="4.253" ry="0.611" transform="translate(130.275 272.103)" fill="#8ddb7f"/>
    <ellipse id="Elipse_5246" data-name="Elipse 5246" cx="4.253" cy="0.611" rx="4.253" ry="0.611" transform="translate(84.791 272.714)" fill="#8ddb7f"/>
    <ellipse id="Elipse_5247" data-name="Elipse 5247" cx="4.253" cy="0.611" rx="4.253" ry="0.611" transform="translate(184.667 275.665)" fill="#8ddb7f"/>
    <ellipse id="Elipse_5248" data-name="Elipse 5248" cx="4.253" cy="0.611" rx="4.253" ry="0.611" transform="translate(229.133 276.886)" fill="#8ddb7f"/>
    <ellipse id="Elipse_5249" data-name="Elipse 5249" cx="4.253" cy="0.611" rx="4.253" ry="0.611" transform="translate(214.277 273.528)" fill="#8ddb7f"/>
    <ellipse id="Elipse_5250" data-name="Elipse 5250" cx="6.34" cy="1.374" rx="6.34" ry="1.374" transform="translate(265.723 273.528)" fill="#8ddb7f"/>
  </g>
</svg>
