<svg id="XMLID_489_" xmlns="http://www.w3.org/2000/svg" xmlns:xlink="http://www.w3.org/1999/xlink" width="180.667" height="180.667" viewBox="0 0 180.667 180.667">
  <defs>
    <linearGradient id="linear-gradient" x1="0.781" y1="0.826" x2="0.311" y2="0.304" gradientUnits="objectBoundingBox">
      <stop offset="0.061" stop-color="#fff" stop-opacity="0"/>
      <stop offset="0.162" stop-color="#cdcdcd" stop-opacity="0.11"/>
      <stop offset="0.284" stop-color="#979797" stop-opacity="0.235"/>
      <stop offset="0.407" stop-color="#696969" stop-opacity="0.369"/>
      <stop offset="0.53" stop-color="#434343" stop-opacity="0.498"/>
      <stop offset="0.651" stop-color="#262626" stop-opacity="0.627"/>
      <stop offset="0.771" stop-color="#111" stop-opacity="0.757"/>
      <stop offset="0.888" stop-color="#040404" stop-opacity="0.882"/>
      <stop offset="1"/>
    </linearGradient>
  </defs>
  <path id="XMLID_6217_" d="M180.667,90.334a82.515,82.515,0,0,1-.565,10.3,90.536,90.536,0,0,1-89.769,80.03c-2.258,0-4.517-.141-6.775-.282a90.32,90.32,0,1,1,97.109-90.051Z" fill="#ad84ff"/>
  <path id="XMLID_5549_" d="M166.648,83.15a90.536,90.536,0,0,1-89.769,80.03c-2.258,0-4.517-.141-6.775-.282L32.7,125.635,126,42.5Z" transform="translate(13.455 17.487)" opacity="0.2" fill="url(#linear-gradient)"/>
  <g id="XMLID_6069_" transform="translate(44.038 27.241)">
    <g id="XMLID_6056_">
      <path id="XMLID_6059_" d="M126.615,130.241a6.777,6.777,0,0,1-6.775,6.775H37.975a6.777,6.777,0,0,1-6.775-6.775V26.075A6.777,6.777,0,0,1,37.975,19.3H93.728l32.887,32.887Z" transform="translate(-31.2 -19.3)" fill="#ebf0f3"/>
      <path id="XMLID_6058_" d="M108.387,52.187H82.275A6.777,6.777,0,0,1,75.5,45.412V19.3Z" transform="translate(-12.972 -19.3)" fill="#27a2db"/>
      <text id="ISO" transform="translate(10.63 27.426)" fill="#cfb7ff" font-size="20" font-family="SegoeUI-Bold, Segoe UI" font-weight="700"><tspan x="0" y="0">ISO</tspan></text>
    </g>
    <g id="Grupo_888981" data-name="Grupo 888981" transform="translate(12.985 44.32)">
      <path id="XMLID_6074_" d="M40.4,50.7h69.444v3.388H40.4Z" transform="translate(-40.4 -50.7)" fill="#d5d6db"/>
      <path id="XMLID_6073_" d="M40.4,60.1h69.444v3.388H40.4Z" transform="translate(-40.4 -46.832)" fill="#d5d6db"/>
      <path id="XMLID_6072_" d="M40.4,69.4h69.444v3.388H40.4Z" transform="translate(-40.4 -43.006)" fill="#d5d6db"/>
      <path id="XMLID_6071_" d="M40.4,78.8h69.444v3.388H40.4Z" transform="translate(-40.4 -39.138)" fill="#d5d6db"/>
    </g>
  </g>
</svg>
