<svg xmlns="http://www.w3.org/2000/svg" xmlns:xlink="http://www.w3.org/1999/xlink" width="262.687" height="269.145" viewBox="0 0 262.687 269.145">
  <defs>
    <clipPath id="clip-path">
      <rect id="Rectángulo_345016" data-name="Rectángulo 345016" width="262.687" height="269.145" fill="none"/>
    </clipPath>
    <clipPath id="clip-path-5">
      <rect id="Rectángulo_344991" data-name="Rectángulo 344991" width="33.164" height="47.202" fill="none"/>
    </clipPath>
    <clipPath id="clip-path-7">
      <rect id="Rectángulo_344993" data-name="Rectángulo 344993" width="7.6" height="7.571" fill="none"/>
    </clipPath>
    <clipPath id="clip-path-8">
      <rect id="Rectángulo_344994" data-name="Rectángulo 344994" width="1.527" height="1.475" fill="none"/>
    </clipPath>
    <clipPath id="clip-path-9">
      <rect id="Rectángulo_344995" data-name="Rectángulo 344995" width="39.576" height="41.86" fill="none"/>
    </clipPath>
    <clipPath id="clip-path-11">
      <rect id="Rectángulo_344997" data-name="Rectángulo 344997" width="16.743" height="10.68" fill="none"/>
    </clipPath>
    <clipPath id="clip-path-12">
      <rect id="Rectángulo_344998" data-name="Rectángulo 344998" width="24.982" height="21.932" fill="none"/>
    </clipPath>
    <clipPath id="clip-path-13">
      <rect id="Rectángulo_344999" data-name="Rectángulo 344999" width="24.392" height="42.054" fill="none"/>
    </clipPath>
    <clipPath id="clip-path-16">
      <rect id="Rectángulo_345007" data-name="Rectángulo 345007" width="15.139" height="69.616" fill="none"/>
    </clipPath>
    <clipPath id="clip-path-17">
      <rect id="Rectángulo_345008" data-name="Rectángulo 345008" width="1.643" height="1.637" fill="none"/>
    </clipPath>
    <clipPath id="clip-path-18">
      <rect id="Rectángulo_345009" data-name="Rectángulo 345009" width="11.072" height="15.262" fill="none"/>
    </clipPath>
    <clipPath id="clip-path-19">
      <rect id="Rectángulo_345010" data-name="Rectángulo 345010" width="13.451" height="10.494" fill="none"/>
    </clipPath>
    <clipPath id="clip-path-20">
      <rect id="Rectángulo_345011" data-name="Rectángulo 345011" width="12.872" height="8.416" fill="none"/>
    </clipPath>
    <clipPath id="clip-path-21">
      <rect id="Rectángulo_345012" data-name="Rectángulo 345012" width="27.287" height="43.187" fill="none"/>
    </clipPath>
    <clipPath id="clip-path-22">
      <rect id="Rectángulo_345013" data-name="Rectángulo 345013" width="16.529" height="6.714" fill="none"/>
    </clipPath>
    <clipPath id="clip-path-23">
      <rect id="Rectángulo_345014" data-name="Rectángulo 345014" width="75.771" height="75.808" fill="none"/>
    </clipPath>
  </defs>
  <g id="Grupo_998956" data-name="Grupo 998956" transform="translate(20 1)">
    <g id="Grupo_998955" data-name="Grupo 998955" transform="translate(-20 -1)" clip-path="url(#clip-path)">
      <g id="Grupo_998895" data-name="Grupo 998895">
        <g id="Grupo_998894" data-name="Grupo 998894" clip-path="url(#clip-path)">
          <path id="Trazado_699873" data-name="Trazado 699873" d="M128.474,212.652a13.026,13.026,0,0,1,3.469-.06l1.811-2.659,4.952,1.95-.487,3.179a13.049,13.049,0,0,1,2.5,2.409l3.159-.6,2.124,4.88-2.592,1.9a13.031,13.031,0,0,1,.06,3.469l2.659,1.811-1.95,4.952L141,233.4a13.029,13.029,0,0,1-2.408,2.5l.6,3.159-4.88,2.124-1.9-2.592a13.056,13.056,0,0,1-3.469.06l-1.811,2.659-4.952-1.95.488-3.18a13.05,13.05,0,0,1-2.5-2.409l-3.159.6-2.123-4.88,2.592-1.9a13.03,13.03,0,0,1-.06-3.469l-2.659-1.81,1.95-4.952,3.18.487a13.05,13.05,0,0,1,2.409-2.5l-.6-3.159,4.88-2.124Zm-.091,7.635a5.709,5.709,0,1,0,7.513,2.958,5.709,5.709,0,0,0-7.513-2.958" transform="translate(-46.398 -84.882)" fill="#f5f5f5"/>
          <path id="Trazado_699874" data-name="Trazado 699874" d="M14.545,303.548a13.815,13.815,0,0,1,3.677-.064l1.919-2.819,5.25,2.066-.516,3.37a13.814,13.814,0,0,1,2.647,2.554l3.349-.636,2.251,5.173-2.748,2.016a13.8,13.8,0,0,1,.064,3.678l2.819,1.919-2.066,5.25-3.371-.517a13.813,13.813,0,0,1-2.553,2.647l.636,3.349-5.173,2.251-2.016-2.748a13.821,13.821,0,0,1-3.678.064l-1.92,2.819-5.249-2.066.517-3.371a13.817,13.817,0,0,1-2.647-2.554l-3.349.636L.135,321.394l2.748-2.017a13.8,13.8,0,0,1-.064-3.678L0,313.78l2.066-5.249,3.371.516A13.845,13.845,0,0,1,7.99,306.4l-.636-3.349,5.173-2.25Zm-.1,8.093a6.052,6.052,0,1,0,7.964,3.135,6.052,6.052,0,0,0-7.964-3.135" transform="translate(0 -121.568)" fill="#ebebeb"/>
          <path id="Trazado_699875" data-name="Trazado 699875" d="M342.786,188.535a13.838,13.838,0,0,1,3.68-.064l1.921-2.821,5.254,2.068-.517,3.373a13.834,13.834,0,0,1,2.649,2.555l3.352-.636,2.252,5.178-2.75,2.018a13.843,13.843,0,0,1,.064,3.681l2.82,1.921-2.068,5.254-3.373-.518a13.815,13.815,0,0,1-2.555,2.649l.636,3.352-5.177,2.253-2.019-2.75a13.816,13.816,0,0,1-3.681.064l-1.92,2.821-5.254-2.068.517-3.373a13.838,13.838,0,0,1-2.649-2.556l-3.351.637-2.253-5.178,2.75-2.018a13.818,13.818,0,0,1-.064-3.681l-2.821-1.921,2.068-5.254,3.374.518a13.838,13.838,0,0,1,2.555-2.649l-.636-3.352,5.177-2.253Zm-.1,8.1a6.057,6.057,0,1,0,7.971,3.137,6.057,6.057,0,0,0-7.971-3.137" transform="translate(-132.712 -75.064)" fill="#f5f5f5"/>
          <path id="Trazado_699876" data-name="Trazado 699876" d="M171.99,16.787a21.82,21.82,0,0,1,5.317-2.311l1.1-5.263,8.892-.155,1.28,5.22a21.784,21.784,0,0,1,5.4,2.123l4.494-2.946,6.4,6.178-2.786,4.594a21.773,21.773,0,0,1,2.311,5.319l5.263,1.1.156,8.892-5.22,1.28a21.785,21.785,0,0,1-2.123,5.394l2.946,4.495-6.177,6.4-4.594-2.786a21.773,21.773,0,0,1-5.318,2.311l-1.1,5.263-8.892.156-1.279-5.222a21.815,21.815,0,0,1-5.4-2.122l-4.494,2.946-6.4-6.177,2.786-4.594a21.774,21.774,0,0,1-2.311-5.318l-5.263-1.095-.156-8.892,5.221-1.281a21.8,21.8,0,0,1,2.123-5.394L161.217,20.4l6.177-6.4Zm4.74,11.846a9.54,9.54,0,1,0,13.49-.237,9.54,9.54,0,0,0-13.49.237" transform="translate(-63.406 -3.662)" fill="#f5f5f5"/>
          <path id="Trazado_699877" data-name="Trazado 699877" d="M100.155,5.3a14.723,14.723,0,0,1,3.584-1.587l.716-3.564L110.467,0l.89,3.524a14.731,14.731,0,0,1,3.658,1.41l3.025-2.013,4.355,4.148-1.862,3.119a14.742,14.742,0,0,1,1.587,3.585l3.563.716.147,6.012-3.524.889a14.746,14.746,0,0,1-1.41,3.658l2.012,3.025-4.146,4.355-3.12-1.863a14.731,14.731,0,0,1-3.585,1.587l-.716,3.564-6.012.147-.889-3.524a14.748,14.748,0,0,1-3.658-1.411l-3.025,2.013L93.4,28.8l1.863-3.12a14.7,14.7,0,0,1-1.587-3.585l-3.563-.716-.147-6.012,3.525-.89a14.718,14.718,0,0,1,1.41-3.657L92.888,7.791l4.147-4.355Zm3.26,7.987a6.451,6.451,0,1,0,9.12-.223,6.451,6.451,0,0,0-9.12.223" transform="translate(-36.376 0)" fill="#ebebeb"/>
          <path id="Trazado_699878" data-name="Trazado 699878" d="M104.613,79.365a14.006,14.006,0,0,1,3.419-1.486l.7-3.383,5.716-.1.823,3.356a13.969,13.969,0,0,1,3.468,1.365l2.889-1.894,4.114,3.972-1.791,2.953a14.02,14.02,0,0,1,1.486,3.419l3.383.7.1,5.717-3.357.823a13.991,13.991,0,0,1-1.364,3.468l1.893,2.89-3.971,4.113-2.953-1.791a14.006,14.006,0,0,1-3.419,1.486l-.7,3.383-5.716.1-.823-3.356a14.02,14.02,0,0,1-3.469-1.365l-2.889,1.894-4.113-3.971,1.791-2.953a14.019,14.019,0,0,1-1.486-3.419l-3.383-.7-.1-5.717,3.357-.823a13.983,13.983,0,0,1,1.365-3.468l-1.894-2.89,3.971-4.113Zm3.047,7.615a6.133,6.133,0,1,0,8.672-.152,6.133,6.133,0,0,0-8.672.152" transform="translate(-38.355 -30.08)" fill="#f5f5f5"/>
          <path id="Trazado_699879" data-name="Trazado 699879" d="M56.14,44.71a6.873,6.873,0,0,1,1.673-.727l.344-1.656,2.8-.049.4,1.643a6.844,6.844,0,0,1,1.7.668l1.414-.927,2.013,1.944-.876,1.446a6.864,6.864,0,0,1,.727,1.674l1.656.344.049,2.8-1.643.4a6.854,6.854,0,0,1-.668,1.7l.927,1.414L64.712,57.4l-1.446-.877a6.852,6.852,0,0,1-1.674.727L61.248,58.9l-2.8.049-.4-1.643a6.868,6.868,0,0,1-1.7-.668l-1.414.927-2.013-1.944.876-1.446a6.85,6.85,0,0,1-.727-1.673l-1.656-.345-.049-2.8,1.643-.4a6.836,6.836,0,0,1,.668-1.7l-.927-1.415,1.944-2.013Zm1.492,3.728a3,3,0,1,0,4.245-.074,3,3,0,0,0-4.245.074" transform="translate(-20.769 -17.094)" fill="#f5f5f5"/>
          <path id="Trazado_699880" data-name="Trazado 699880" d="M378.649,256.393h-5.763a1.087,1.087,0,0,0-1.092,1.025l-.226,4.469a1.085,1.085,0,0,0,1.078,1.132l6,.075Z" transform="translate(-150.235 -103.667)" fill="#e0e0e0"/>
          <path id="Trazado_699881" data-name="Trazado 699881" d="M387.053,267.641l1.3,105.107h-11.1l4.8-105.107Z" transform="translate(-152.535 -108.215)" fill="#f5f5f5"/>
          <path id="Trazado_699882" data-name="Trazado 699882" d="M390.107,267.641l.158,8.884-5.459-4.376.3-4.508Z" transform="translate(-155.589 -108.215)" fill="#e0e0e0"/>
          <path id="Trazado_699883" data-name="Trazado 699883" d="M395.906,257.693v4.631a.817.817,0,0,1-.857.768H383.455v-6.7l11.637.533a.811.811,0,0,1,.814.768" transform="translate(-155.042 -103.667)" fill="#f5f5f5"/>
          <path id="Trazado_699884" data-name="Trazado 699884" d="M383.535,263.344c.849.738,18.676,26.139,20.136,28.639,1.641,2.812.139,4.529.139,4.529L374.555,260.5l1.707-1.923,3.5,4.247s2.92-.221,3.769.517" transform="translate(-151.443 -104.551)" fill="#f5f5f5"/>
          <path id="Trazado_699885" data-name="Trazado 699885" d="M407.207,294.844a10.6,10.6,0,0,1,.587,1.188l-1.259-1.517L383.3,265.688s2.92-.221,3.769.517,18.676,26.139,20.136,28.639" transform="translate(-154.98 -107.413)" fill="#ebebeb"/>
          <path id="Trazado_699886" data-name="Trazado 699886" d="M389.795,273.873a4.123,4.123,0,0,0-.437-.591l-1.25-1.559-4.1-5.158c-1.6-2.018-3.072-3.829-4.166-5.116-.547-.643-1-1.159-1.313-1.508a4.1,4.1,0,0,0-.512-.527,4.033,4.033,0,0,0,.437.591l1.25,1.558,4.105,5.159c1.6,2.017,3.071,3.828,4.165,5.115.547.643,1,1.159,1.313,1.508a4.12,4.12,0,0,0,.512.527" transform="translate(-152.841 -104.889)" fill="#e0e0e0"/>
          <path id="Trazado_699887" data-name="Trazado 699887" d="M341.075,266.462c-.926.518-29.984,7.683-32.772,8.112a4.351,4.351,0,0,1-4.435-1.563l42.172-13.88,1.449,2.314-4.986,1.688s-.5,2.812-1.428,3.33" transform="translate(-122.863 -104.774)" fill="#f5f5f5"/>
          <path id="Trazado_699888" data-name="Trazado 699888" d="M310.431,277.289a10.091,10.091,0,0,1-1.3.1l1.784-.61,33.716-10.937s-.5,2.812-1.428,3.33-29.984,7.683-32.772,8.112" transform="translate(-124.991 -107.49)" fill="#ebebeb"/>
          <path id="Trazado_699889" data-name="Trazado 699889" d="M366.261,262.888a3.234,3.234,0,0,0-.664.155l-1.8.524c-1.514.454-3.6,1.1-5.885,1.847s-4.348,1.449-5.825,1.988c-.739.269-1.333.5-1.738.663a3.054,3.054,0,0,0-.617.285,3.738,3.738,0,0,0,.661-.191l1.772-.586,5.853-1.915,5.852-1.918,1.766-.6a2.9,2.9,0,0,0,.624-.251" transform="translate(-141.407 -106.291)" fill="#e0e0e0"/>
          <path id="Trazado_699890" data-name="Trazado 699890" d="M375.571,222.564c.323-1.042,16.31-26.516,18.008-28.754,1.911-2.518,4.143-1.774,4.143-1.774l-20.967,39.74-2.51-.855,2.449-4.735s-1.447-2.58-1.123-3.622" transform="translate(-151.318 -77.604)" fill="#f5f5f5"/>
          <path id="Trazado_699891" data-name="Trazado 699891" d="M394.447,194.427a9.7,9.7,0,0,1,.853-.967l-.872,1.7L377.562,226.8s-1.447-2.58-1.123-3.622,16.309-26.515,18.008-28.754" transform="translate(-152.186 -78.221)" fill="#ebebeb"/>
          <path id="Trazado_699892" data-name="Trazado 699892" d="M375.347,244.288c.064.034,2.031-3.555,4.393-8.015s4.226-8.1,4.162-8.139-2.031,3.554-4.394,8.016-4.225,8.1-4.161,8.137" transform="translate(-151.763 -92.241)" fill="#e0e0e0"/>
          <path id="Trazado_699893" data-name="Trazado 699893" d="M373.986,259.8c0,.478-.442,1.419-.128,1.724.264.256,1.391.2,1.943.2a1.93,1.93,0,0,0,0-3.854,6.34,6.34,0,0,0-2.014.142c-.439.133.2,1.306.2,1.785" transform="translate(-151.071 -104.26)" fill="#f5f5f5"/>
          <path id="Trazado_699894" data-name="Trazado 699894" d="M371.989,259.814a1.819,1.819,0,1,0,1.816-1.927,1.874,1.874,0,0,0-1.816,1.927" transform="translate(-150.406 -104.271)" fill="#e0e0e0"/>
          <path id="Trazado_699895" data-name="Trazado 699895" d="M375.417,257.819a2.613,2.613,0,0,0-.668-.062l-.763-.024c-.146.006-.3-.026-.484-.008a1.851,1.851,0,0,0-.535.132l.014-.005a.046.046,0,0,0-.014,0l-.01,0a2.02,2.02,0,0,0-1.208,1.7,2.073,2.073,0,0,0,.628,1.68,1.787,1.787,0,0,0,1.457.5h-.016a6.215,6.215,0,0,0,1.207-.069,6.135,6.135,0,0,0-1.193-.1h-.015a1.6,1.6,0,0,1-1.256-.488,1.906,1.906,0,0,1-.537-1.508,1.836,1.836,0,0,1,1.038-1.52l-.01,0c-.008,0,.006,0,.006,0l.014,0a1.646,1.646,0,0,1,.458-.13c.148-.021.3,0,.453-.011l.766-.027a2.6,2.6,0,0,0,.669-.065" transform="translate(-150.305 -104.203)" fill="#e0e0e0"/>
          <path id="Trazado_699896" data-name="Trazado 699896" d="M375.3,261.762a1.258,1.258,0,0,0,.74-.248,2.118,2.118,0,0,0,1.007-1.455,1.985,1.985,0,0,0-.558-1.637,1.192,1.192,0,0,0-.645-.41c-.026.034.226.181.492.518a2.01,2.01,0,0,1,.437,1.5,2.135,2.135,0,0,1-.85,1.346c-.353.265-.639.349-.623.388" transform="translate(-151.743 -104.321)" fill="#e0e0e0"/>
          <path id="Trazado_699897" data-name="Trazado 699897" d="M376.628,261.821a1.385,1.385,0,0,0,.855-.089,2.241,2.241,0,0,0,1.406-1.363,1.952,1.952,0,0,0-.4-1.823,1.254,1.254,0,0,0-.675-.478c-.028.035.248.2.515.578a1.934,1.934,0,0,1,.294,1.655,2.208,2.208,0,0,1-1.219,1.271c-.45.2-.78.207-.776.25" transform="translate(-152.281 -104.343)" fill="#e0e0e0"/>
          <path id="Trazado_699898" data-name="Trazado 699898" d="M132.512,340.835h-3.858a.748.748,0,0,0-.731.727l-.151,3.171a.752.752,0,0,0,.722.8l4.019.053Z" transform="translate(-51.661 -137.809)" fill="#e0e0e0"/>
          <path id="Trazado_699899" data-name="Trazado 699899" d="M123.807,350.683c-.087.73-7.8,19.524-8.681,21.21a2.7,2.7,0,0,1-2.632,1.661l9.285-28.858,1.848.277-1.072,3.433s1.339,1.547,1.252,2.277" transform="translate(-45.485 -139.37)" fill="#f5f5f5"/>
          <path id="Trazado_699900" data-name="Trazado 699900" d="M116.6,374.411a6.394,6.394,0,0,1-.463.742l.38-1.231,7.511-23s1.339,1.547,1.252,2.277-7.8,19.524-8.681,21.21" transform="translate(-46.957 -141.889)" fill="#ebebeb"/>
          <path id="Trazado_699901" data-name="Trazado 699901" d="M128.122,346.707c-.079-.024-.992,2.583-2.041,5.823s-1.834,5.886-1.755,5.911.992-2.582,2.041-5.823,1.834-5.886,1.755-5.91" transform="translate(-50.266 -140.183)" fill="#e0e0e0"/>
          <path id="Trazado_699902" data-name="Trazado 699902" d="M138.14,348.815l.873,51.847h-7.433l3.21-51.847Z" transform="translate(-53.201 -141.036)" fill="#f5f5f5"/>
          <path id="Trazado_699903" data-name="Trazado 699903" d="M140.184,348.815l.106,6.3-3.655-3.1.2-3.2Z" transform="translate(-55.246 -141.036)" fill="#e0e0e0"/>
          <path id="Trazado_699904" data-name="Trazado 699904" d="M144.066,341.758v3.285a.56.56,0,0,1-.574.546H135.73v-4.753l7.792.378a.558.558,0,0,1,.544.544" transform="translate(-54.88 -137.809)" fill="#f5f5f5"/>
          <path id="Trazado_699905" data-name="Trazado 699905" d="M119.254,320.773c-.372-.652-5.519-20.435-5.828-22.313a2.515,2.515,0,0,1,1.119-2.821l9.969,28.971-1.66.787-1.211-3.429s-2.018-.543-2.389-1.195" transform="translate(-45.84 -119.535)" fill="#f5f5f5"/>
          <path id="Trazado_699906" data-name="Trazado 699906" d="M113.411,299.784a6.278,6.278,0,0,1-.076-.868l.438,1.227,7.855,23.15s-2.016-.543-2.388-1.2-5.519-20.434-5.829-22.313" transform="translate(-45.825 -120.86)" fill="#ebebeb"/>
          <path id="Trazado_699907" data-name="Trazado 699907" d="M122.354,325.4a12.158,12.158,0,0,0,.517,1.727c.373,1.137.839,2.56,1.354,4.133.533,1.614,1.04,3.071,1.439,4.114a10.049,10.049,0,0,0,.717,1.666,12.167,12.167,0,0,0-.517-1.727l-1.355-4.135c-.533-1.614-1.039-3.07-1.439-4.114a10.083,10.083,0,0,0-.717-1.666" transform="translate(-49.469 -131.569)" fill="#e0e0e0"/>
          <path id="Trazado_699908" data-name="Trazado 699908" d="M139.632,386.171h-5.1l-.185,2.991h5.338Z" transform="translate(-54.319 -156.14)" fill="#ebebeb"/>
          <path id="Trazado_699909" data-name="Trazado 699909" d="M139.623,392.99H134.2l-.048.773,5.484.022Z" transform="translate(-54.242 -158.897)" fill="#ebebeb"/>
          <path id="Trazado_699910" data-name="Trazado 699910" d="M137.34,344.934c.712.3,17.578,12.977,19.04,14.287a2.54,2.54,0,0,1,.972,2.9L130.775,345l.77-1.607,3.17,2.009s1.913-.761,2.625-.463" transform="translate(-52.876 -138.842)" fill="#f5f5f5"/>
          <path id="Trazado_699911" data-name="Trazado 699911" d="M159.055,360.223a6.859,6.859,0,0,1,.624.646l-1.138-.717L137.39,346.4s1.913-.761,2.625-.463,17.578,12.977,19.04,14.287" transform="translate(-55.551 -139.844)" fill="#ebebeb"/>
          <path id="Trazado_699912" data-name="Trazado 699912" d="M131.828,343.232a11.017,11.017,0,0,0,1.45,1.079c.921.639,2.208,1.5,3.645,2.437s2.755,1.755,3.724,2.327a9.777,9.777,0,0,0,1.61.861,13.887,13.887,0,0,0-1.5-1.029l-3.672-2.394c-1.436-.932-2.741-1.77-3.692-2.367a11.261,11.261,0,0,0-1.568-.915" transform="translate(-53.301 -138.777)" fill="#e0e0e0"/>
          <path id="Trazado_699913" data-name="Trazado 699913" d="M129.39,343.254c0,.339-.3,1.007-.085,1.223.177.182.931.144,1.3.144a1.376,1.376,0,0,0,0-2.734,4.016,4.016,0,0,0-1.349.1c-.294.094.133.927.133,1.266" transform="translate(-52.221 -138.23)" fill="#f5f5f5"/>
          <path id="Trazado_699914" data-name="Trazado 699914" d="M128.054,343.262a1.224,1.224,0,1,0,1.216-1.367,1.3,1.3,0,0,0-1.216,1.367" transform="translate(-51.776 -138.238)" fill="#e0e0e0"/>
          <path id="Trazado_699915" data-name="Trazado 699915" d="M130.311,341.818c0-.027-.163-.052-.447-.072l-.51-.028c-.1,0-.2-.022-.331-.01a1.212,1.212,0,0,0-.374.094l.015-.006s0,0-.011,0l-.011,0a1.471,1.471,0,0,0-.843,1.242,1.557,1.557,0,0,0,.438,1.229,1.191,1.191,0,0,0,1.017.357h-.016a2.461,2.461,0,0,0,.811-.085,2.457,2.457,0,0,0-.8-.1h-.017a1,1,0,0,1-.8-.343,1.366,1.366,0,0,1-.341-1.033,1.264,1.264,0,0,1,.66-1.039l-.011,0c-.01,0,0,0,0,0l.015-.005a1.2,1.2,0,0,1,.589-.1l.513-.03c.285-.022.448-.047.448-.074" transform="translate(-51.67 -138.161)" fill="#e0e0e0"/>
          <path id="Trazado_699916" data-name="Trazado 699916" d="M130.268,344.641c.007.033.228.029.52-.145a1.5,1.5,0,0,0,.706-1.056,1.456,1.456,0,0,0-.4-1.191c-.236-.24-.448-.3-.464-.267s.134.152.3.391a1.5,1.5,0,0,1,.268,1.032,1.541,1.541,0,0,1-.537.932c-.223.191-.407.264-.393.306" transform="translate(-52.671 -138.27)" fill="#e0e0e0"/>
          <path id="Trazado_699917" data-name="Trazado 699917" d="M131.159,344.683c0,.032.232.089.589-.028a1.549,1.549,0,0,0,.98-.988,1.452,1.452,0,0,0-.288-1.33c-.239-.278-.471-.347-.485-.318s.147.163.312.432a1.441,1.441,0,0,1,.175,1.138,1.53,1.53,0,0,1-.777.881c-.289.148-.506.167-.5.212" transform="translate(-53.031 -138.286)" fill="#e0e0e0"/>
          <path id="Trazado_699918" data-name="Trazado 699918" d="M199.359,375.758H187.942l3-26.458h5.424Z" transform="translate(-75.99 -141.232)" fill="#ebebeb"/>
          <path id="Trazado_699919" data-name="Trazado 699919" d="M190.908,366.155l-.229,2.025h8.157l-.229-2.025Z" transform="translate(-77.097 -148.047)" fill="#e0e0e0"/>
          <path id="Trazado_699920" data-name="Trazado 699920" d="M198.471,351l-.192-1.7h-5.424l-.192,1.7Z" transform="translate(-77.899 -141.232)" fill="#e0e0e0"/>
          <path id="Trazado_699921" data-name="Trazado 699921" d="M189.388,372.28l-1.446,12.769h11.417l-1.446-12.769Z" transform="translate(-75.99 -150.523)" fill="#e0e0e0"/>
          <path id="Trazado_699922" data-name="Trazado 699922" d="M220.752,375.758H209.334l3-26.458h5.424Z" transform="translate(-84.64 -141.232)" fill="#ebebeb"/>
          <path id="Trazado_699923" data-name="Trazado 699923" d="M210.781,372.28l-1.446,12.769h11.417l-1.446-12.769Z" transform="translate(-84.64 -150.523)" fill="#e0e0e0"/>
          <path id="Trazado_699924" data-name="Trazado 699924" d="M219.863,351l-.192-1.7h-5.424l-.192,1.7Z" transform="translate(-86.548 -141.232)" fill="#e0e0e0"/>
          <path id="Trazado_699925" data-name="Trazado 699925" d="M212.3,366.155l-.229,2.025h8.157L220,366.155Z" transform="translate(-85.746 -148.047)" fill="#e0e0e0"/>
          <rect id="Rectángulo_344978" data-name="Rectángulo 344978" width="50.305" height="36.033" transform="translate(115.927 223.303)" fill="#ebebeb"/>
          <rect id="Rectángulo_344979" data-name="Rectángulo 344979" width="44.806" height="27.698" transform="translate(104.726 231.638)" fill="#fafafa"/>
          <path id="Trazado_699926" data-name="Trazado 699926" d="M187.012,387.226l-11.2-4.014,11.2-8.334Z" transform="translate(-71.085 -151.574)" fill="#fafafa"/>
          <path id="Trazado_699927" data-name="Trazado 699927" d="M205.816,387.226l-11.2-4.014,11.2-8.334Z" transform="translate(-78.688 -151.574)" fill="#fafafa"/>
          <path id="Trazado_699928" data-name="Trazado 699928" d="M224.621,387.226l-11.2-4.014,11.2-8.334Z" transform="translate(-86.292 -151.574)" fill="#fafafa"/>
          <path id="Trazado_699929" data-name="Trazado 699929" d="M243.426,387.226l-11.2-4.014,11.2-8.334Z" transform="translate(-93.895 -151.574)" fill="#fafafa"/>
          <rect id="Rectángulo_344980" data-name="Rectángulo 344980" width="44.806" height="13.849" transform="translate(104.726 245.487)" fill="#ebebeb"/>
          <rect id="Rectángulo_344981" data-name="Rectángulo 344981" width="16.7" height="13.849" transform="translate(149.531 245.487)" fill="#e0e0e0"/>
          <rect id="Rectángulo_344982" data-name="Rectángulo 344982" width="19.151" height="12.005" transform="translate(107.977 247.332)" fill="#fff"/>
          <rect id="Rectángulo_344983" data-name="Rectángulo 344983" width="17.808" height="11.339" transform="translate(108.649 247.997)" fill="#ebebeb"/>
          <path id="Trazado_699930" data-name="Trazado 699930" d="M192.256,403.376a2.574,2.574,0,1,1-2.573-2.573,2.573,2.573,0,0,1,2.573,2.573" transform="translate(-75.654 -162.056)" fill="#f5f5f5"/>
          <path id="Trazado_699931" data-name="Trazado 699931" d="M192.106,403.692A2.107,2.107,0,1,1,190,401.585a2.107,2.107,0,0,1,2.107,2.107" transform="translate(-75.97 -162.372)" fill="#ebebeb"/>
          <path id="Trazado_699932" data-name="Trazado 699932" d="M192.1,404.007l-1.9-.312a.167.167,0,0,0-.1-.139l.941-1.7a2.035,2.035,0,0,0-2.026,0l.931,1.7a.169.169,0,0,0-.108.15l0,.006-1.894.286a2.1,2.1,0,0,0,1.228,1.626l.773-1.767a.167.167,0,0,0,.07.029.171.171,0,0,0,.088-.036l.754,1.782a2.1,2.1,0,0,0,1.24-1.62" transform="translate(-75.99 -162.373)" fill="#e0e0e0"/>
          <path id="Trazado_699933" data-name="Trazado 699933" d="M212.366,405.2a2.574,2.574,0,1,1,0-3.64,2.574,2.574,0,0,1,0,3.64" transform="translate(-84.089 -162.056)" fill="#f5f5f5"/>
          <path id="Trazado_699934" data-name="Trazado 699934" d="M212.352,405.183a2.107,2.107,0,1,1,0-2.98,2.107,2.107,0,0,1,0,2.98" transform="translate(-84.405 -162.373)" fill="#ebebeb"/>
          <path id="Trazado_699935" data-name="Trazado 699935" d="M212.112,405.445l-1.127-1.567a.168.168,0,0,0,.032-.166l1.866-.534a2.034,2.034,0,0,0-1.43-1.437l-.542,1.858a.169.169,0,0,0-.182.03l0,.006-1.542-1.137a2.1,2.1,0,0,0-.281,2.018l1.8-.7a.169.169,0,0,0,.029.07.171.171,0,0,0,.088.037l-.727,1.793a2.1,2.1,0,0,0,2.022-.269" transform="translate(-84.409 -162.435)" fill="#e0e0e0"/>
          <path id="Trazado_699936" data-name="Trazado 699936" d="M233.229,401.556a2.574,2.574,0,1,1-3.64,0,2.574,2.574,0,0,1,3.64,0" transform="translate(-92.525 -162.056)" fill="#f5f5f5"/>
          <path id="Trazado_699937" data-name="Trazado 699937" d="M233.216,402.2a2.107,2.107,0,1,1-2.981,0,2.107,2.107,0,0,1,2.981,0" transform="translate(-92.841 -162.372)" fill="#ebebeb"/>
          <path id="Trazado_699938" data-name="Trazado 699938" d="M233.478,402.508l-1.567,1.126a.169.169,0,0,0-.166-.032l-.534-1.866a2.034,2.034,0,0,0-1.437,1.43l1.858.541a.17.17,0,0,0,.03.182l.006,0-1.137,1.542a2.1,2.1,0,0,0,2.018.281l-.7-1.8a.169.169,0,0,0,.07-.029.171.171,0,0,0,.037-.088l1.793.727a2.1,2.1,0,0,0-.269-2.022" transform="translate(-92.904 -162.434)" fill="#e0e0e0"/>
          <rect id="Rectángulo_344984" data-name="Rectángulo 344984" width="17.808" height="1.201" transform="translate(108.756 247.997)" fill="#e0e0e0"/>
          <rect id="Rectángulo_344985" data-name="Rectángulo 344985" width="17.808" height="1.201" transform="translate(108.756 250.532)" fill="#e0e0e0"/>
          <rect id="Rectángulo_344986" data-name="Rectángulo 344986" width="17.808" height="1.201" transform="translate(108.756 253.066)" fill="#e0e0e0"/>
          <rect id="Rectángulo_344987" data-name="Rectángulo 344987" width="17.808" height="1.201" transform="translate(108.756 255.601)" fill="#e0e0e0"/>
          <rect id="Rectángulo_344988" data-name="Rectángulo 344988" width="17.808" height="1.201" transform="translate(108.756 258.135)" fill="#e0e0e0"/>
        </g>
      </g>
      <g id="Grupo_998897" data-name="Grupo 998897">
        <g id="Grupo_998896" data-name="Grupo 998896" clip-path="url(#clip-path)">
          <path id="Trazado_699939" data-name="Trazado 699939" d="M270.87,435.748c0,.086-56.11.155-125.31.155-69.224,0-125.322-.069-125.322-.155s56.1-.155,125.322-.155c69.2,0,125.31.069,125.31.155" transform="translate(-8.183 -176.123)" fill="#263238"/>
        </g>
      </g>
      <g id="Grupo_998926" data-name="Grupo 998926">
        <g id="Grupo_998925" data-name="Grupo 998925" clip-path="url(#clip-path)">
          <path id="Trazado_699940" data-name="Trazado 699940" d="M281.106,25.288s.823-7.86-5.988-11.616A17.337,17.337,0,0,0,262.129,12s.7,11.386,7.746,14.721c0,0,3.236,2.1,8.65.581l2.383,3.239,1.58-1.474C278.223,23.2,266.8,15.328,266.8,15.328a53.792,53.792,0,0,1,8.82,5.447,62.722,62.722,0,0,1,5.484,4.512" transform="translate(-105.986 -4.618)" fill="#455a64"/>
          <path id="Trazado_699941" data-name="Trazado 699941" d="M307.54,9.324a5.846,5.846,0,0,0-.407-6.156A8.186,8.186,0,0,0,301.825,0s-1.838,5.062.584,7.831a5.21,5.21,0,0,0,3.635,1.879l.545,2.465,1.048-.5c-.743-3.341-4.416-9.354-4.416-9.354a25.4,25.4,0,0,1,2.794,4.018,29.571,29.571,0,0,1,1.526,2.986" transform="translate(-121.766)" fill="#455a64"/>
          <path id="Trazado_699942" data-name="Trazado 699942" d="M376.747,52.013a40.764,40.764,0,1,1-40.764-40.764,40.764,40.764,0,0,1,40.764,40.764" transform="translate(-119.366 -4.548)" fill="#25ffff"/>
          <path id="Trazado_699943" data-name="Trazado 699943" d="M431.928,83.683c.048-.473.088-.941.115-1.412q.051-.744.074-1.486-.024.742-.074,1.486c-.027.471-.067.939-.115,1.412" transform="translate(-174.641 -32.664)" fill="#263238"/>
          <g id="Grupo_998900" data-name="Grupo 998900" transform="translate(208.775 33.52)" opacity="0.3">
            <g id="Grupo_998899" data-name="Grupo 998899">
              <g id="Grupo_998898" data-name="Grupo 998898" clip-path="url(#clip-path-5)">
                <path id="Trazado_699944" data-name="Trazado 699944" d="M371.9,93.483c-1.308,1.342-1.871,3.231-2.511,5s-1.5,3.619-3.118,4.55-4.133.359-4.559-1.471c-.231-.994.192-2.027.161-3.049-.041-1.331-.841-2.51-1.073-3.819a10.075,10.075,0,0,1,.216-3.384c1.026-6.128.825-12.774-2.363-18.045a4.022,4.022,0,0,0-1.526-1.627,2.292,2.292,0,0,0-2.5.359c-.414.376-.694.905-1.168,1.2-1.03.637-2.435-.243-2.809-1.4a6.308,6.308,0,0,1,.293-3.6l1.241-4.378a3.872,3.872,0,0,1,1.083-2.069c.876-.7,2.159-.484,3.159-.976,1.312-.645,1.792-2.274,2.759-3.385s3.321-1.2,3.375.282c3.406-4.719,7.141,4.031,10.383,4.07a8.787,8.787,0,0,1,2.806.054c1.569.549,2.044,2.526,2.284,4.2l1.2,8.327a3.814,3.814,0,0,0,1.269,2.815c.68.437,1.579.384,2.267.806,1.819,1.115.559,4.136-1.3,5.216s-4.245,1.52-5.388,3.357c-.862,1.384-.757,3.226-1.658,4.584a18.67,18.67,0,0,1-2.523,2.387" transform="translate(-350.487 -56.273)" fill="#ff725e"/>
              </g>
            </g>
          </g>
          <g id="Grupo_998903" data-name="Grupo 998903" transform="translate(208.775 33.52)" opacity="0.3">
            <g id="Grupo_998902" data-name="Grupo 998902">
              <g id="Grupo_998901" data-name="Grupo 998901" clip-path="url(#clip-path-5)">
                <path id="Trazado_699945" data-name="Trazado 699945" d="M371.9,93.483c-1.308,1.342-1.871,3.231-2.511,5s-1.5,3.619-3.118,4.55-4.133.359-4.559-1.471c-.231-.994.192-2.027.161-3.049-.041-1.331-.841-2.51-1.073-3.819a10.075,10.075,0,0,1,.216-3.384c1.026-6.128.825-12.774-2.363-18.045a4.022,4.022,0,0,0-1.526-1.627,2.292,2.292,0,0,0-2.5.359c-.414.376-.694.905-1.168,1.2-1.03.637-2.435-.243-2.809-1.4a6.308,6.308,0,0,1,.293-3.6l1.241-4.378a3.872,3.872,0,0,1,1.083-2.069c.876-.7,2.159-.484,3.159-.976,1.312-.645,1.792-2.274,2.759-3.385s3.321-1.2,3.375.282c3.406-4.719,7.141,4.031,10.383,4.07a8.787,8.787,0,0,1,2.806.054c1.569.549,2.044,2.526,2.284,4.2l1.2,8.327a3.814,3.814,0,0,0,1.269,2.815c.68.437,1.579.384,2.267.806,1.819,1.115.559,4.136-1.3,5.216s-4.245,1.52-5.388,3.357c-.862,1.384-.757,3.226-1.658,4.584a18.67,18.67,0,0,1-2.523,2.387" transform="translate(-350.487 -56.273)"/>
              </g>
            </g>
          </g>
          <g id="Grupo_998906" data-name="Grupo 998906" transform="translate(231.791 68.285)" opacity="0.3">
            <g id="Grupo_998905" data-name="Grupo 998905">
              <g id="Grupo_998904" data-name="Grupo 998904" clip-path="url(#clip-path-7)">
                <path id="Trazado_699946" data-name="Trazado 699946" d="M394.638,120.246c-.663-.036-1.36-.51-1.937-.17a2.207,2.207,0,0,0-.67.951,2.263,2.263,0,0,1-1.165,1.091,1.378,1.378,0,0,1-1.486-.322,1.062,1.062,0,0,1,.077-1.464,7.088,7.088,0,0,1,.649-.353c1.019-.655.735-2.3,1.58-3.15.5-.5,1.218-.969,1.755-1.471.413-.386.6-.72,1.222-.721,2.712-.007,2.8,5.762-.026,5.611" transform="translate(-389.126 -114.635)"/>
              </g>
            </g>
          </g>
          <g id="Grupo_998909" data-name="Grupo 998909" transform="translate(187.705 76.637)" opacity="0.3">
            <g id="Grupo_998908" data-name="Grupo 998908">
              <g id="Grupo_998907" data-name="Grupo 998907" clip-path="url(#clip-path-8)">
                <path id="Trazado_699947" data-name="Trazado 699947" d="M315.115,128.658q.436.447.888.879c.21.2.421.4.639.6-.217-.2-.429-.393-.639-.6q-.453-.432-.888-.879" transform="translate(-315.115 -128.657)" fill="#263238"/>
              </g>
            </g>
          </g>
          <path id="Trazado_699948" data-name="Trazado 699948" d="M430.6,90.355q.169-.882.294-1.758-.125.877-.294,1.758c-.024.189-.061.376-.1.564-.179.9-.387,1.788-.614,2.668.227-.88.435-1.764.614-2.668.037-.187.074-.374.1-.564" transform="translate(-173.816 -35.822)" fill="#263238"/>
          <path id="Trazado_699949" data-name="Trazado 699949" d="M431.424,67.753q.132.831.229,1.665-.1-.835-.229-1.665s.008-.005,0-.007Z" transform="translate(-174.437 -27.392)" fill="#263238"/>
          <g id="Grupo_998912" data-name="Grupo 998912" transform="translate(217.921 16.363)" opacity="0.3">
            <g id="Grupo_998911" data-name="Grupo 998911">
              <g id="Grupo_998910" data-name="Grupo 998910" clip-path="url(#clip-path-9)">
                <path id="Trazado_699950" data-name="Trazado 699950" d="M404.7,65.64q.169-.882.294-1.758t.21-1.755c.048-.473.088-.941.115-1.412q.051-.744.074-1.486a41.133,41.133,0,0,0-.1-4.418q-.065-.843-.163-1.677t-.229-1.665v-.007c-.126-.427-.266-.85-.427-1.271-1.513-4.027-4.186-7.479-5.952-11.394-.577-1.274-1.016-2.32-2.384-2.818-2.024-.742-3.322.262-4.4-2.051-.291-.621-.889-1.262-1.542-1.056.067.463.139.926.2,1.4a.643.643,0,0,1-.005.294c-.092.3-.552.293-.772.076a2.693,2.693,0,0,1-.413-.839,2.064,2.064,0,0,0-2.958-.846,1.2,1.2,0,0,0-.477-1.087,1.4,1.4,0,0,1-1.945.788c-.042-.417.662-.351.969-.64.284-.272.1-.764-.127-1.084a4.434,4.434,0,0,0-2.539-1.635,3.783,3.783,0,0,1-1.842-.6c-.285-.257-.449-.625-.741-.877a2.45,2.45,0,0,0-2.365-.085,4.6,4.6,0,0,0-2.77,1.859c-.56,1-.081,2.6,1.048,2.687a2.149,2.149,0,0,1,.861.07,1.061,1.061,0,0,1,.406,1.106,3.022,3.022,0,0,0-.055,1.243c.119.4.659.693.948.4a2.319,2.319,0,0,0,.731-2,2.852,2.852,0,0,1,.563-2.081c.54-.5,1.707-.079,1.481.628-.135.416-.671.631-.738,1.067s.412.779.846.845a4.663,4.663,0,0,1,1.3.189c.4.188.628.815.262,1.071-.646.5-1.808-.807-2.23-.105-.114.178-.082.413-.142.615-.176.622-1,.7-1.636.655a3.428,3.428,0,0,1-1.816-.5,1.225,1.225,0,0,1-.317-1.692.713.713,0,0,0-1.04.169,2.148,2.148,0,0,0-.3,1.161c-.629-.279-1.33.172-1.815.66a3.108,3.108,0,0,1-1.663,1.153c-.686.072-1.518-.374-1.972.153-.59.687.482,1.919-.113,2.6-.338.382-.944.249-1.452.289a2.169,2.169,0,0,0-1.5,3.109,2.505,2.505,0,0,0,3.523.683,11.744,11.744,0,0,0,1.836-2.131,2.177,2.177,0,0,1,2.459-.821,2.721,2.721,0,0,1,.791.76c.353.445.705.89,1.057,1.342a1.2,1.2,0,0,1,.37.991c-.083.285-.349.468-.5.72-.421.728.541,1.689,1.322,1.4a1.608,1.608,0,0,0,.73-2.128c-.475-1.059-1.872-1.818-1.606-2.959.885-.482,1.95.419,2.216,1.4s.071,2.039.262,3.036,1.073,2.029,2.036,1.75c-.07-.845-.135-1.683-.206-2.521.641-.315,1.036,1.05,1.742.975.431-.049.6-.633.5-1.068a5.756,5.756,0,0,1-.332-1.279,1.34,1.34,0,0,1,1.783-1.062,2.044,2.044,0,0,1,1.153,1.957,3.825,3.825,0,0,0,.02.963c.169.677.886,1.013,1.455,1.394s1.1,1.148.711,1.729c-.175.254-.512.462-.467.766.045.27.391.453.337.723-.042.18-.25.266-.429.3-.452.092-.92.06-1.365.179a1.2,1.2,0,0,0-.947.9c-.077.655.615,1.114.864,1.72a8.165,8.165,0,0,1,.157,1.868,6.467,6.467,0,0,0,.677,1.6c.762,1.666.639,3.592.81,5.423.073.826.319,1.779,1.075,2.083a2.415,2.415,0,0,0,1.316,0,7.764,7.764,0,0,0,3.476-1.27,2.751,2.751,0,0,0,.919-3.345.656.656,0,0,0-.337-.328,1.174,1.174,0,0,0-.638.1,1.706,1.706,0,0,1-1.69-.737,5.17,5.17,0,0,1-.733-1.814c-.184-.7-.367-1.406-.556-2.114a1.112,1.112,0,0,1,1.33.4,7.586,7.586,0,0,1,.695,1.344,5.965,5.965,0,0,0,3.619,2.7,3.835,3.835,0,0,1,1.08.462c1.017.745,1.007,2.492,2.12,3.088a7.475,7.475,0,0,1,.961.431,1.925,1.925,0,0,1,.59,1.444,21.1,21.1,0,0,0,.177,3,2.646,2.646,0,0,0,1.8,2.159,2.327,2.327,0,0,0,1.753-.41v-.007c.227-.88.435-1.764.614-2.668.037-.187.074-.374.1-.563" transform="translate(-365.841 -27.47)" fill="#ff725e"/>
              </g>
            </g>
          </g>
          <g id="Grupo_998915" data-name="Grupo 998915" transform="translate(217.921 16.363)" opacity="0.3">
            <g id="Grupo_998914" data-name="Grupo 998914">
              <g id="Grupo_998913" data-name="Grupo 998913" clip-path="url(#clip-path-9)">
                <path id="Trazado_699951" data-name="Trazado 699951" d="M404.7,65.64q.169-.882.294-1.758t.21-1.755c.048-.473.088-.941.115-1.412q.051-.744.074-1.486a41.133,41.133,0,0,0-.1-4.418q-.065-.843-.163-1.677t-.229-1.665v-.007c-.126-.427-.266-.85-.427-1.271-1.513-4.027-4.186-7.479-5.952-11.394-.577-1.274-1.016-2.32-2.384-2.818-2.024-.742-3.322.262-4.4-2.051-.291-.621-.889-1.262-1.542-1.056.067.463.139.926.2,1.4a.643.643,0,0,1-.005.294c-.092.3-.552.293-.772.076a2.693,2.693,0,0,1-.413-.839,2.064,2.064,0,0,0-2.958-.846,1.2,1.2,0,0,0-.477-1.087,1.4,1.4,0,0,1-1.945.788c-.042-.417.662-.351.969-.64.284-.272.1-.764-.127-1.084a4.434,4.434,0,0,0-2.539-1.635,3.783,3.783,0,0,1-1.842-.6c-.285-.257-.449-.625-.741-.877a2.45,2.45,0,0,0-2.365-.085,4.6,4.6,0,0,0-2.77,1.859c-.56,1-.081,2.6,1.048,2.687a2.149,2.149,0,0,1,.861.07,1.061,1.061,0,0,1,.406,1.106,3.022,3.022,0,0,0-.055,1.243c.119.4.659.693.948.4a2.319,2.319,0,0,0,.731-2,2.852,2.852,0,0,1,.563-2.081c.54-.5,1.707-.079,1.481.628-.135.416-.671.631-.738,1.067s.412.779.846.845a4.663,4.663,0,0,1,1.3.189c.4.188.628.815.262,1.071-.646.5-1.808-.807-2.23-.105-.114.178-.082.413-.142.615-.176.622-1,.7-1.636.655a3.428,3.428,0,0,1-1.816-.5,1.225,1.225,0,0,1-.317-1.692.713.713,0,0,0-1.04.169,2.148,2.148,0,0,0-.3,1.161c-.629-.279-1.33.172-1.815.66a3.108,3.108,0,0,1-1.663,1.153c-.686.072-1.518-.374-1.972.153-.59.687.482,1.919-.113,2.6-.338.382-.944.249-1.452.289a2.169,2.169,0,0,0-1.5,3.109,2.505,2.505,0,0,0,3.523.683,11.744,11.744,0,0,0,1.836-2.131,2.177,2.177,0,0,1,2.459-.821,2.721,2.721,0,0,1,.791.76c.353.445.705.89,1.057,1.342a1.2,1.2,0,0,1,.37.991c-.083.285-.349.468-.5.72-.421.728.541,1.689,1.322,1.4a1.608,1.608,0,0,0,.73-2.128c-.475-1.059-1.872-1.818-1.606-2.959.885-.482,1.95.419,2.216,1.4s.071,2.039.262,3.036,1.073,2.029,2.036,1.75c-.07-.845-.135-1.683-.206-2.521.641-.315,1.036,1.05,1.742.975.431-.049.6-.633.5-1.068a5.756,5.756,0,0,1-.332-1.279,1.34,1.34,0,0,1,1.783-1.062,2.044,2.044,0,0,1,1.153,1.957,3.825,3.825,0,0,0,.02.963c.169.677.886,1.013,1.455,1.394s1.1,1.148.711,1.729c-.175.254-.512.462-.467.766.045.27.391.453.337.723-.042.18-.25.266-.429.3-.452.092-.92.06-1.365.179a1.2,1.2,0,0,0-.947.9c-.077.655.615,1.114.864,1.72a8.165,8.165,0,0,1,.157,1.868,6.467,6.467,0,0,0,.677,1.6c.762,1.666.639,3.592.81,5.423.073.826.319,1.779,1.075,2.083a2.415,2.415,0,0,0,1.316,0,7.764,7.764,0,0,0,3.476-1.27,2.751,2.751,0,0,0,.919-3.345.656.656,0,0,0-.337-.328,1.174,1.174,0,0,0-.638.1,1.706,1.706,0,0,1-1.69-.737,5.17,5.17,0,0,1-.733-1.814c-.184-.7-.367-1.406-.556-2.114a1.112,1.112,0,0,1,1.33.4,7.586,7.586,0,0,1,.695,1.344,5.965,5.965,0,0,0,3.619,2.7,3.835,3.835,0,0,1,1.08.462c1.017.745,1.007,2.492,2.12,3.088a7.475,7.475,0,0,1,.961.431,1.925,1.925,0,0,1,.59,1.444,21.1,21.1,0,0,0,.177,3,2.646,2.646,0,0,0,1.8,2.159,2.327,2.327,0,0,0,1.753-.41v-.007c.227-.88.435-1.764.614-2.668.037-.187.074-.374.1-.563" transform="translate(-365.841 -27.47)"/>
              </g>
            </g>
          </g>
          <g id="Grupo_998918" data-name="Grupo 998918" transform="translate(207.957 6.834)" opacity="0.3">
            <g id="Grupo_998917" data-name="Grupo 998917">
              <g id="Grupo_998916" data-name="Grupo 998916" clip-path="url(#clip-path-11)">
                <path id="Trazado_699952" data-name="Trazado 699952" d="M354.228,19.84a9.356,9.356,0,0,0-2.241,1.738c-.751.584-1.947.87-2.553.141a1.75,1.75,0,0,1-.306-1.307,3.185,3.185,0,0,1,.8-1.782c.457-.5,1.073-.851,1.484-1.394A1.357,1.357,0,0,0,351.4,15.4c-.293-.217-.712-.238-.957-.51-.439-.489.111-1.331.756-1.443a4.566,4.566,0,0,1,1.906.366c2.29.609,4.3-.6,6.3-1.541,1.554-.731,4.676-1.34,6.044-.009a1.282,1.282,0,0,1-.1,1.971c-.3.154-.678.127-.969.307-.348.215-.479.656-.721.991-.628.87-1.963.967-2.563,1.857-.361.536-.394,1.285-.872,1.716a2.221,2.221,0,0,1-1.432.4l-3.17.134a4.582,4.582,0,0,0-1.392.2" transform="translate(-349.113 -11.473)"/>
              </g>
            </g>
          </g>
          <g id="Grupo_998921" data-name="Grupo 998921" transform="translate(178.631 13.114)" opacity="0.3">
            <g id="Grupo_998920" data-name="Grupo 998920">
              <g id="Grupo_998919" data-name="Grupo 998919" clip-path="url(#clip-path-12)">
                <path id="Trazado_699953" data-name="Trazado 699953" d="M302.895,37.01a1.863,1.863,0,0,1,2.6.6,2.916,2.916,0,0,1-.2,2.125c-.335.926-.669,1.852-1.01,2.777a1.547,1.547,0,0,0-.132.866c.159.661,1.157.738,1.638.27a2.743,2.743,0,0,0,.618-1.9,3.821,3.821,0,0,1,.41-1.976c.937-1.411,3.139-.734,4.641-1.475a7.375,7.375,0,0,0,2.161-2.241,2.852,2.852,0,0,1,2.65-1.319c.34.08.65.276.994.331A1.422,1.422,0,0,0,318.58,33a2.614,2.614,0,0,1-.351-.552.872.872,0,0,1,.517-.951,2.382,2.382,0,0,1,1.132-.138c.883.027,1.765.061,2.647.094.973.038,2.281-.219,2.338-1.207.051-.855-.983-1.448-.985-2.306a2.808,2.808,0,0,0,.013-.628c-.155-.58-.976-.521-1.533-.337a1.253,1.253,0,0,0-1.76-.985c-.59.326-.8,1.061-1.106,1.665a8.931,8.931,0,0,1-3.534,3.263,2.35,2.35,0,0,1-1.5.508c-.531-.078-.969-.761-.634-1.185.228-.29.721-.387.748-.757.026-.464-.753-.585-.819-1.047.556-1.217,2.1-1.462,3.336-1.928a7.121,7.121,0,0,0,3.626-3.064.957.957,0,0,0,.186-.741c-.1-.355-.515-.49-.876-.562-.846-.181-1.927-.274-2.4.471a10.06,10.06,0,0,0-.417,1.346c-.563,1.283-2.4,1.075-3.657,1.657a10.255,10.255,0,0,1-1.435.735,6.717,6.717,0,0,1-1.739-.056c.072.01.1.007,0,0-.446.425-1.057,1.017-1.482,1.465s-.8.866-1.2,1.332a41.316,41.316,0,0,0-5.207,7.053q-.751,1.355-1.4,2.778t-1.2,2.908a11.916,11.916,0,0,0,1.23-2.425,4.829,4.829,0,0,1,1.783-2.4" transform="translate(-299.882 -22.016)"/>
              </g>
            </g>
          </g>
          <g id="Grupo_998924" data-name="Grupo 998924" transform="translate(175.853 36.058)" opacity="0.3">
            <g id="Grupo_998923" data-name="Grupo 998923">
              <g id="Grupo_998922" data-name="Grupo 998922" clip-path="url(#clip-path-13)">
                <path id="Trazado_699954" data-name="Trazado 699954" d="M305.158,99.018h.006c.341.409.691.8,1.049,1.186q.422.461.858.908t.888.879c.209.2.421.4.638.6-.017-.077-.036-.148-.054-.225-.491-2.142.02-4.991,2.106-5.59a4.382,4.382,0,0,0,1.184-.363c1-.646.645-2.46,1.648-3.106.564-.358,1.3-.179,1.941-.334,1.156-.288,1.772-1.6,1.923-2.8a19.471,19.471,0,0,1,.364-3.6c.562-1.746,2.288-3.288,1.823-5.056-.525-1.974-3.146-2.191-4.792-3.355-2.3-1.627-2.445-4.968-3.647-7.546-1.077-2.3-4.085-5.2-6.826-5.111a3.3,3.3,0,0,0-3.344,2.47l-.234-.086c-.687-.217-1.5-.418-1.772-1.088-.313-.779.333-1.717,0-2.486-.17-.4-.558-.64-.85-.96s-.493-.835-.21-1.168c.233-.282.69-.259.969-.506a.681.681,0,0,0,.147-.809c-.549-1.014-1.7.6-2.186.942a3.734,3.734,0,0,1-.384.246l0,.007c-.022.076-.042.145-.057.223-.057.24-.105.488-.158.733s-.11.488-.159.733c-.039.2-.071.4-.108.6s-.077.4-.108.6c-.019.1-.037.188-.051.285a42.1,42.1,0,0,0-.012,13.439,40.147,40.147,0,0,0,1.388,5.826c.246.82.533,1.634.84,2.439.382.994.795,1.974,1.257,2.93.424.916.891,1.819,1.4,2.7a40.822,40.822,0,0,0,2.243,3.528q1.071,1.519,2.283,2.932" transform="translate(-295.219 -60.533)"/>
              </g>
            </g>
          </g>
          <path id="Trazado_699955" data-name="Trazado 699955" d="M372.768,155.6s5.408-4.979,11.991-1.982a16.123,16.123,0,0,1,8.46,8.762s-8.886,5.8-15.284,2.395c0,0-3.366-1.246-5.236-6.131l-4.973.061.487-2.234c6.743-.074,19.927,4.272,19.927,4.272a50.092,50.092,0,0,0-8.961-3.556,58.273,58.273,0,0,0-6.412-1.586" transform="translate(-148.683 -61.726)" fill="#455a64"/>
        </g>
      </g>
      <path id="Trazado_699956" data-name="Trazado 699956" d="M272.342,73.892l.824,157.564L156.3,231.238l-8.211-7.332,7.379-151.737,109.627-9.046Z" transform="translate(-59.875 -25.523)" fill="#e0e0e0"/>
      <path id="Trazado_699957" data-name="Trazado 699957" d="M265.092,63.123,264.974,223.8l-116.888.1,1.461-160.6Z" transform="translate(-59.875 -25.523)" fill="#fafafa"/>
      <g id="Grupo_998928" data-name="Grupo 998928">
        <g id="Grupo_998927" data-name="Grupo 998927" clip-path="url(#clip-path)">
          <path id="Trazado_699958" data-name="Trazado 699958" d="M264.986,63.123l-115.545.308.126-.125c-.4,44.905-.9,100.5-1.432,160.6l-.155-.157h.693l116.195-.089-.141.141c.153-95.023.257-159.431.259-160.678,0,1.246.009,65.655.023,160.678v.141h-.141l-116.195.118h-.851l0-.157c.558-60.1,1.073-115.695,1.49-160.6v-.124h.124l115.546-.056" transform="translate(-59.769 -25.522)" fill="#263238"/>
          <path id="Trazado_699959" data-name="Trazado 699959" d="M177.8,125.157l39.282-.272a2.316,2.316,0,1,0-.032-4.632l-39.282.272a2.316,2.316,0,1,0,.032,4.632" transform="translate(-70.948 -48.622)" fill="#e0e0e0"/>
          <path id="Trazado_699960" data-name="Trazado 699960" d="M177.688,140.2l39.282-.272a2.316,2.316,0,0,0-.032-4.632l-39.282.272a2.316,2.316,0,1,0,.032,4.632" transform="translate(-70.901 -54.704)" fill="#e0e0e0"/>
          <path id="Trazado_699961" data-name="Trazado 699961" d="M177.572,155.246l39.282-.272a2.316,2.316,0,0,0-.032-4.632l-39.282.272a2.316,2.316,0,1,0,.032,4.632" transform="translate(-70.855 -60.788)" fill="#e0e0e0"/>
          <path id="Trazado_699962" data-name="Trazado 699962" d="M177.457,170.29l39.282-.272a2.316,2.316,0,0,0-.032-4.632l-39.282.272a2.316,2.316,0,1,0,.032,4.632" transform="translate(-70.808 -66.87)" fill="#e0e0e0"/>
          <path id="Trazado_699963" data-name="Trazado 699963" d="M177.341,185.334l39.282-.272a2.316,2.316,0,0,0-.032-4.632l-39.282.272a2.316,2.316,0,0,0,.032,4.632" transform="translate(-70.761 -72.953)" fill="#e0e0e0"/>
          <path id="Trazado_699964" data-name="Trazado 699964" d="M177.226,200.379l39.281-.272a2.316,2.316,0,1,0-.032-4.632l-39.282.272a2.316,2.316,0,0,0,.032,4.632" transform="translate(-70.715 -79.036)" fill="#e0e0e0"/>
          <path id="Trazado_699965" data-name="Trazado 699965" d="M177.11,215.423l39.282-.272a2.316,2.316,0,0,0-.032-4.632l-39.282.272a2.316,2.316,0,1,0,.032,4.632" transform="translate(-70.668 -85.119)" fill="#e0e0e0"/>
          <path id="Trazado_699966" data-name="Trazado 699966" d="M259.066,199.448l39.282.242a2.316,2.316,0,0,0,.029-4.632l-39.282-.242a2.316,2.316,0,1,0-.029,4.632" transform="translate(-103.817 -78.77)" fill="#e0e0e0"/>
          <path id="Trazado_699967" data-name="Trazado 699967" d="M258.754,214.49l39.281.242a2.316,2.316,0,1,0,.029-4.632l-39.282-.242a2.316,2.316,0,1,0-.029,4.632" transform="translate(-103.691 -84.852)" fill="#e0e0e0"/>
          <path id="Trazado_699968" data-name="Trazado 699968" d="M258.324,230.354l39.282.242a2.316,2.316,0,1,0,.029-4.632l-39.282-.242a2.316,2.316,0,0,0-.029,4.632" transform="translate(-103.517 -91.266)" fill="#e0e0e0"/>
          <path id="Trazado_699969" data-name="Trazado 699969" d="M257.894,246.217l39.282.242a2.316,2.316,0,0,0,.029-4.632l-39.282-.242a2.316,2.316,0,1,0-.029,4.632" transform="translate(-103.343 -97.68)" fill="#e0e0e0"/>
          <path id="Trazado_699970" data-name="Trazado 699970" d="M257.464,262.081l39.282.242a2.316,2.316,0,0,0,.029-4.632l-39.282-.242a2.316,2.316,0,1,0-.029,4.632" transform="translate(-103.169 -104.094)" fill="#e0e0e0"/>
          <path id="Trazado_699971" data-name="Trazado 699971" d="M257.034,277.945l39.282.242a2.316,2.316,0,1,0,.029-4.632l-39.281-.242a2.316,2.316,0,1,0-.029,4.632" transform="translate(-102.995 -110.508)" fill="#e0e0e0"/>
          <path id="Trazado_699972" data-name="Trazado 699972" d="M256.6,293.809l39.282.242a2.316,2.316,0,1,0,.029-4.632l-39.282-.242a2.316,2.316,0,0,0-.029,4.632" transform="translate(-102.822 -116.923)" fill="#e0e0e0"/>
          <path id="Trazado_699973" data-name="Trazado 699973" d="M172.973,308.121l89.305.55a2.316,2.316,0,0,0,.029-4.632L173,303.489a1.551,1.551,0,0,0-1.561,1.542l-.01,1.53a1.551,1.551,0,0,0,1.542,1.561" transform="translate(-69.314 -122.709)" fill="#e0e0e0"/>
          <path id="Trazado_699974" data-name="Trazado 699974" d="M178.277,105.618l25.992-.18a2.316,2.316,0,1,0-.032-4.632l-25.992.18a2.316,2.316,0,0,0,.032,4.632" transform="translate(-71.14 -40.759)" fill="#e0e0e0"/>
          <path id="Trazado_699975" data-name="Trazado 699975" d="M228.449,58.48l1.64-1.587,19.77-.1.977,1.741Z" transform="translate(-92.369 -22.964)" fill="#263238"/>
          <rect id="Rectángulo_345001" data-name="Rectángulo 345001" width="9.123" height="22.388" transform="translate(136.065 44.648) rotate(-89.899)" fill="#263238"/>
          <path id="Trazado_699976" data-name="Trazado 699976" d="M251.027,74.775v-.329a.746.746,0,0,0-.744-.747l-22.451-.057a.745.745,0,0,0-.748.745v.329a.746.746,0,0,0,.744.748l22.45.056a.746.746,0,0,0,.748-.745" transform="translate(-91.817 -29.776)" fill="#263238"/>
          <path id="Trazado_699977" data-name="Trazado 699977" d="M248.223,59.237h-.011l-9.847-.025a.879.879,0,0,1-.71-.359.818.818,0,0,1-.106-.767l2.815-7.581a4.943,4.943,0,0,1-2.119-3.9,5.062,5.062,0,0,1,4.949-5.1,5.2,5.2,0,0,1,3.765,1.4,4.878,4.878,0,0,1-.6,7.641l2.674,7.582a.82.82,0,0,1-.116.762.881.881,0,0,1-.7.35M243.337,42.1l-.12,0a4.5,4.5,0,0,0-4.35,4.484,4.354,4.354,0,0,0,2.041,3.548l.2.13-2.978,8.021a.233.233,0,0,0,.03.219.247.247,0,0,0,.2.1l9.847.025a.241.241,0,0,0,.2-.1.232.232,0,0,0,.033-.217l-2.83-8.023.2-.127a4.325,4.325,0,0,0,2.085-3.676,4.28,4.28,0,0,0-1.38-3.158,4.567,4.567,0,0,0-3.19-1.231" transform="translate(-96.027 -16.78)" fill="#455a64"/>
          <path id="Trazado_699978" data-name="Trazado 699978" d="M250.733,73.667a1.111,1.111,0,0,0-.226-.01l-.643-.01-2.367-.025-7.81-.048-7.812-.009-2.368.016-.643.013a1.124,1.124,0,0,0-.225.017,1.04,1.04,0,0,0,.225.019l.643.02,2.367.041c2,.026,4.761.049,7.812.061s5.811.01,7.811,0c1-.007,1.809-.018,2.367-.032.28-.009.5-.013.645-.024a1.067,1.067,0,0,0,.223-.026" transform="translate(-92.446 -29.745)" fill="#455a64"/>
          <path id="Trazado_699979" data-name="Trazado 699979" d="M251.109,59.334a1.107,1.107,0,0,0-.225-.01l-.643-.01-2.367-.024-7.81-.048-7.812-.01-2.368.016-.643.013a1.123,1.123,0,0,0-.225.017,1.042,1.042,0,0,0,.225.019l.643.02,2.367.041c2,.026,4.761.049,7.812.061s5.812.01,7.811,0c1-.007,1.809-.018,2.367-.032.28-.008.5-.013.645-.024a1.07,1.07,0,0,0,.223-.026" transform="translate(-92.598 -23.95)" fill="#455a64"/>
          <line id="Línea_2417" data-name="Línea 2417" x2="8.193" y2="7.655" transform="translate(205.099 198.279)" fill="#fafafa"/>
          <path id="Trazado_699980" data-name="Trazado 699980" d="M352.507,340.521a101.279,101.279,0,0,1-8.193-7.655,101.542,101.542,0,0,1,8.193,7.655" transform="translate(-139.215 -134.587)" fill="#263238"/>
          <path id="Trazado_699981" data-name="Trazado 699981" d="M171.43,250.759s.183-.01.543-.015l1.6-.014,6.154-.028,22.778-.047,76.406-.05-.154.154c0-3.861,0-7.958,0-12.1.018-33.027.034-62.922.045-84.569.021-10.816.038-19.57.049-25.628.013-3.021.023-5.367.029-6.967.007-.792.012-1.4.015-1.812s.016-.618.016-.618.011.209.016.618.009,1.02.016,1.812c.007,1.6.017,3.946.029,6.967.012,6.058.029,14.811.049,25.628.011,21.647.027,51.542.045,84.569,0,4.146,0,8.242,0,12.1v.154h-.154l-76.406-.05-22.778-.048-6.154-.027-1.6-.014c-.36,0-.543-.015-.543-.015" transform="translate(-69.314 -48.141)" fill="#263238"/>
          <path id="Trazado_699982" data-name="Trazado 699982" d="M213.291,249.776a18.2,18.2,0,1,1-18.49-17.987,18.266,18.266,0,0,1,18.49,17.987m-26.9.434a8.7,8.7,0,1,0,8.561-8.881,8.731,8.731,0,0,0-8.561,8.881" transform="translate(-71.523 -93.718)" fill="#e0e0e0"/>
          <path id="Trazado_699983" data-name="Trazado 699983" d="M225.447,249.776a18.266,18.266,0,0,1-17.905,18.575l-.152-9.54a8.742,8.742,0,0,0-.279-17.482l-.153-9.54a18.259,18.259,0,0,1,18.49,17.987" transform="translate(-83.679 -93.718)" fill="#455a64"/>
          <path id="Trazado_699984" data-name="Trazado 699984" d="M196.229,281.452a20.8,20.8,0,0,1-21.292-20.714l11.11-.179c.09,5.639,4.381,9.189,9.993,9.1Z" transform="translate(-70.732 -105.351)" fill="#ad84ff"/>
          <path id="Trazado_699985" data-name="Trazado 699985" d="M182.292,261.181a61.36,61.36,0,0,1-4.947,7.18,61.229,61.229,0,0,1,4.947-7.18" transform="translate(-71.704 -105.603)" fill="#263238"/>
          <path id="Trazado_699986" data-name="Trazado 699986" d="M188.875,262.742c.07.049-1.483,2.426-3.469,5.309s-3.654,5.182-3.725,5.133,1.483-2.425,3.47-5.309,3.654-5.181,3.725-5.132" transform="translate(-73.458 -106.234)" fill="#263238"/>
          <path id="Trazado_699987" data-name="Trazado 699987" d="M193.291,271.035a53.042,53.042,0,0,1-3.123,4.806,52.988,52.988,0,0,1-3.379,4.631,106,106,0,0,1,6.5-9.437" transform="translate(-75.523 -109.587)" fill="#263238"/>
          <path id="Trazado_699988" data-name="Trazado 699988" d="M200.158,275.622a53.044,53.044,0,0,1-3.123,4.806,53.213,53.213,0,0,1-3.379,4.631,105.838,105.838,0,0,1,6.5-9.437" transform="translate(-78.3 -111.442)" fill="#263238"/>
          <path id="Trazado_699989" data-name="Trazado 699989" d="M206.815,281.444a72.08,72.08,0,0,1-5.359,7.778,71.919,71.919,0,0,1,5.359-7.778" transform="translate(-81.453 -113.796)" fill="#263238"/>
          <path id="Trazado_699990" data-name="Trazado 699990" d="M297.81,161.244H297.8l-34.371-.41a.595.595,0,0,1-.589-.6l.322-26.939a.585.585,0,0,1,.6-.589.6.6,0,0,1,.589.6l-.315,26.344,33.775.4a.6.6,0,0,1-.007,1.191" transform="translate(-106.275 -53.655)" fill="#263238"/>
          <rect id="Rectángulo_345002" data-name="Rectángulo 345002" width="8.477" height="4.614" transform="translate(161.827 104.698) rotate(-89.319)" fill="#455a64"/>
          <rect id="Rectángulo_345003" data-name="Rectángulo 345003" width="8.477" height="4.614" transform="translate(177.851 104.698) rotate(-89.319)" fill="#455a64"/>
          <rect id="Rectángulo_345004" data-name="Rectángulo 345004" width="15.408" height="4.614" transform="translate(169.866 104.842) rotate(-89.319)" fill="#ff725e"/>
          <rect id="Rectángulo_345005" data-name="Rectángulo 345005" width="15.408" height="4.614" transform="translate(185.835 104.842) rotate(-89.319)" fill="#ff725e"/>
          <path id="Trazado_699991" data-name="Trazado 699991" d="M270.529,144.571a.6.6,0,0,1-.4-1.035l10.6-9.7a.6.6,0,0,1,.769-.03l6.681,5.214,14.281-10.179a.6.6,0,0,1,.691.97L288.5,140.244a.6.6,0,0,1-.712-.016l-6.633-5.178-10.226,9.364a.6.6,0,0,1-.4.157" transform="translate(-109.142 -52.048)" fill="#455a64"/>
          <path id="Trazado_699992" data-name="Trazado 699992" d="M304.419,130.915s-3.089-1-2.449-5.477,3.213-6.2,3.213-6.2a11.291,11.291,0,0,1,2.925,6.9c.011,3.859-2.554,4.793-2.554,4.793l-.524-7.5Z" transform="translate(-122.06 -48.21)" fill="#455a64"/>
          <path id="Trazado_699993" data-name="Trazado 699993" d="M313.932,133.832s-1.282-3.173,2.764-5.687,7.185-1.606,7.185-1.606-.483,4.413-3.592,7.035-5.782,1.022-5.782,1.022l5.929-4.73Z" transform="translate(-126.854 -51.099)" fill="#455a64"/>
          <path id="Trazado_699994" data-name="Trazado 699994" d="M319.7,103.893h-8.084a2.82,2.82,0,0,1,0-5.639H319.7a2.82,2.82,0,0,1,0,5.639" transform="translate(-124.856 -39.727)" fill="#e0e0e0"/>
        </g>
      </g>
      <g id="Grupo_998954" data-name="Grupo 998954">
        <g id="Grupo_998953" data-name="Grupo 998953" clip-path="url(#clip-path)">
          <path id="Trazado_699995" data-name="Trazado 699995" d="M49.045,107.979a45.4,45.4,0,0,1-2.119-7.537A15.852,15.852,0,0,1,47.4,92.7c.131-.374,1.26-2.887,1.655-2.856.282.023-.4,2.359-.251,2.6a13.44,13.44,0,0,1,1.662,7.806,35.372,35.372,0,0,1-1.419,7.729" transform="translate(-18.868 -36.326)" fill="#263238"/>
          <path id="Trazado_699996" data-name="Trazado 699996" d="M59.633,82.824l.606.021a11.716,11.716,0,0,1,11.3,11.167c.261,5.674.478,11.947.337,14.982-.294,6.282-6.613,7.043-6.613,7.043s.391,6.639.391,6.639l-6.628.216-7.6-2.082L49.893,95.178c-.338-6.545,3.189-12.2,9.74-12.354" transform="translate(-20.164 -33.488)" fill="#ffc09d"/>
          <path id="Trazado_699997" data-name="Trazado 699997" d="M70.218,136.749a15.188,15.188,0,0,1-8.1-2.7,8.06,8.06,0,0,0,8.21,4.676Z" transform="translate(-25.116 -54.199)" fill="#ff9b6c"/>
          <path id="Trazado_699998" data-name="Trazado 699998" d="M81.729,109.866a.9.9,0,0,1-.9.876.858.858,0,0,1-.9-.841.9.9,0,0,1,.9-.876.86.86,0,0,1,.9.842" transform="translate(-32.32 -44.081)" fill="#263238"/>
          <path id="Trazado_699999" data-name="Trazado 699999" d="M81.442,105.506c-.115.113-.778-.413-1.744-.444s-1.69.428-1.791.306c-.049-.054.071-.262.387-.475a2.461,2.461,0,0,1,1.439-.39,2.366,2.366,0,0,1,1.383.5c.289.238.382.453.326.5" transform="translate(-31.496 -42.253)" fill="#263238"/>
          <path id="Trazado_700000" data-name="Trazado 700000" d="M67.155,110.259a.9.9,0,0,1-.9.876.859.859,0,0,1-.9-.841.9.9,0,0,1,.9-.876.86.86,0,0,1,.9.842" transform="translate(-26.427 -44.24)" fill="#263238"/>
          <path id="Trazado_700001" data-name="Trazado 700001" d="M65.536,105.336c-.116.113-.779-.413-1.744-.444S62.1,105.32,62,105.2c-.049-.054.07-.262.388-.476a2.462,2.462,0,0,1,1.439-.39,2.368,2.368,0,0,1,1.383.5c.288.238.382.453.326.5" transform="translate(-25.064 -42.184)" fill="#263238"/>
          <path id="Trazado_700002" data-name="Trazado 700002" d="M73.211,113.2a6.422,6.422,0,0,1,1.579-.229c.247-.017.482-.058.53-.225a1.256,1.256,0,0,0-.139-.737l-.665-1.9a32.261,32.261,0,0,1-1.469-4.968,32.307,32.307,0,0,1,1.866,4.838c.221.668.432,1.3.634,1.913a1.433,1.433,0,0,1,.095.973.62.62,0,0,1-.418.346,1.665,1.665,0,0,1-.421.044,6.3,6.3,0,0,1-1.59-.052" transform="translate(-29.53 -42.512)" fill="#263238"/>
          <path id="Trazado_700003" data-name="Trazado 700003" d="M65.643,100.217c-.14.242-1.068-.049-2.208-.113-1.139-.087-2.1.08-2.2-.178-.046-.123.154-.338.562-.524a3.842,3.842,0,0,1,3.361.222c.381.238.551.478.488.593" transform="translate(-24.755 -40.075)" fill="#263238"/>
          <path id="Trazado_700004" data-name="Trazado 700004" d="M81.451,100.718c-.2.216-.988-.027-1.933-.057-.945-.057-1.75.113-1.93-.12-.079-.113.052-.331.406-.531a3.049,3.049,0,0,1,1.579-.329,2.994,2.994,0,0,1,1.533.471c.33.232.435.46.345.565" transform="translate(-31.362 -40.303)" fill="#263238"/>
          <path id="Trazado_700005" data-name="Trazado 700005" d="M47.593,111.238c-.105-.05-4.275-1.425-4.285,2.876s4.721,3.57,4.729,3.447-.444-6.322-.444-6.322" transform="translate(-17.511 -44.876)" fill="#ffc09d"/>
          <path id="Trazado_700006" data-name="Trazado 700006" d="M47.057,116.724c-.018-.014-.075.052-.2.11a.746.746,0,0,1-.56.011,1.855,1.855,0,0,1-.854-1.666,2.483,2.483,0,0,1,.213-1.072.866.866,0,0,1,.565-.574.382.382,0,0,1,.442.207c.057.12.03.206.052.213s.093-.071.058-.25a.478.478,0,0,0-.169-.27.564.564,0,0,0-.414-.11,1.053,1.053,0,0,0-.785.665,2.543,2.543,0,0,0-.263,1.2,1.945,1.945,0,0,0,1.088,1.86.8.8,0,0,0,.686-.112c.134-.106.157-.2.142-.21" transform="translate(-18.252 -45.818)" fill="#ff9b6c"/>
          <path id="Trazado_700007" data-name="Trazado 700007" d="M67.541,86.394c.694-.388-1.41-2.63-3.125-3.395-2.593-1.157-6.546-1.854-8.925-1.163a10.364,10.364,0,0,0-6.665,4.9,16.915,16.915,0,0,0-1.844,8.65,5.135,5.135,0,0,0,.622,2.624c.607.947,1.764,1.539,1.721,2.851a1.8,1.8,0,0,0,.455,1.31c.792.832,1.75.04,2.187-.752a12.446,12.446,0,0,0,1.1-5.633,12.577,12.577,0,0,0-.3-4.089c-.215-.715-.557-1.391-.732-2.117a2.585,2.585,0,0,1,.291-2.15,2.779,2.779,0,0,1,.347-.356A4.485,4.485,0,0,1,57.12,86.2c2.428.841,6.572,2.094,7.647,1.266A6.618,6.618,0,0,0,66.68,85.5Z" transform="translate(-18.991 -32.978)" fill="#263238"/>
          <path id="Trazado_700008" data-name="Trazado 700008" d="M68.15,119.715c.148-.01.161.978,1.014,1.668s1.9.571,1.913.709c.014.062-.232.195-.677.212a2.464,2.464,0,0,1-1.6-.536,2.146,2.146,0,0,1-.787-1.4c-.042-.412.065-.658.133-.653" transform="translate(-27.498 -48.404)" fill="#263238"/>
          <path id="Trazado_700009" data-name="Trazado 700009" d="M91.667,221.978l3.181.306s1.748-10.534.6-17.856S87.9,165.082,87.9,165.082l-8.017-18.919-1.462-.637-2.3-2.433,10.259,62.352Z" transform="translate(-30.781 -57.856)" fill="#455a64"/>
          <g id="Grupo_998931" data-name="Grupo 998931" transform="translate(47.811 94.704)" opacity="0.3">
            <g id="Grupo_998930" data-name="Grupo 998930">
              <g id="Grupo_998929" data-name="Grupo 998929" clip-path="url(#clip-path-16)">
                <path id="Trazado_700010" data-name="Trazado 700010" d="M80.264,158.987s13.42,45.348,14.321,52.7A156.433,156.433,0,0,1,95.4,228.6l-2.061-.2-6.284-19.722s-4.375-31.4-4.015-31.285-2.777-18.41-2.777-18.41" transform="translate(-80.264 -158.987)"/>
              </g>
            </g>
          </g>
          <path id="Trazado_700011" data-name="Trazado 700011" d="M84.24,405l-.45,11.75s11.976,4.4,12.108,6.576l-23.165-.041-.061-18.335Z" transform="translate(-29.383 -163.732)" fill="#263238"/>
          <path id="Trazado_700012" data-name="Trazado 700012" d="M78.856,423.053a.93.93,0,0,0-.656,1.062.91.91,0,0,0,1.063.649.981.981,0,0,0,.689-1.128.948.948,0,0,0-1.182-.555" transform="translate(-31.611 -171.037)" fill="#e0e0e0"/>
          <path id="Trazado_700013" data-name="Trazado 700013" d="M72.774,434.475l.067-1.848,22.185.731s1.031.444.913,1.159Z" transform="translate(-29.425 -174.924)" fill="#455a64"/>
          <path id="Trazado_700014" data-name="Trazado 700014" d="M90.532,424.5c0,.111-.569.161-1.127.518s-.854.825-.958.78c-.1-.022.066-.687.748-1.108s1.362-.292,1.337-.191" transform="translate(-35.75 -171.594)" fill="#fff"/>
          <path id="Trazado_700015" data-name="Trazado 700015" d="M95,426.2c.026.108-.465.3-.849.767s-.5.969-.61.963c-.106.017-.183-.635.307-1.211S95,426.1,95,426.2" transform="translate(-37.789 -172.308)" fill="#fff"/>
          <path id="Trazado_700016" data-name="Trazado 700016" d="M98.259,429.742c-.1.023-.259-.533.033-1.143s.821-.851.868-.758c.064.092-.281.418-.512.923s-.277.968-.39.979" transform="translate(-39.675 -172.981)" fill="#fff"/>
          <path id="Trazado_700017" data-name="Trazado 700017" d="M90,419.779c-.048.1-.566-.053-1.206-.011s-1.138.239-1.2.144.422-.492,1.175-.531,1.284.311,1.228.4" transform="translate(-35.415 -169.566)" fill="#fff"/>
          <path id="Trazado_700018" data-name="Trazado 700018" d="M39.272,406.527l-.634,14,2.74,11.213a1.436,1.436,0,0,1-1.173,1.751,1.463,1.463,0,0,1-1.272-.4c-2.125-2.1-9.694-9.95-9.726-10.7-.051-1.188-.4-14.978-.4-14.978Z" transform="translate(-11.647 -164.37)" fill="#263238"/>
          <path id="Trazado_700019" data-name="Trazado 700019" d="M40.432,443.5,29.38,431.289l-.013.593a2.238,2.238,0,0,0,.49,1.412c.88,1.064,3.376,3.952,9.261,9.808a1.47,1.47,0,0,0,1.315.4" transform="translate(-11.874 -174.382)" fill="#455a64"/>
          <g id="Grupo_998934" data-name="Grupo 998934" transform="translate(19.228 252.304)" opacity="0.6">
            <g id="Grupo_998933" data-name="Grupo 998933">
              <g id="Grupo_998932" data-name="Grupo 998932" clip-path="url(#clip-path-17)">
                <path id="Trazado_700020" data-name="Trazado 700020" d="M33.577,423.708a.823.823,0,0,1-.928,1.36.905.905,0,0,1-.223-1.207.889.889,0,0,1,1.216-.1" transform="translate(-32.28 -423.563)" fill="#fff"/>
              </g>
            </g>
          </g>
          <path id="Trazado_700021" data-name="Trazado 700021" d="M42.7,440.339a4.424,4.424,0,0,1,1.271-1.063A4.487,4.487,0,0,1,45.618,439c.013-.035-.165-.147-.5-.2a2.3,2.3,0,0,0-1.279.194,2.266,2.266,0,0,0-.976.839c-.172.284-.2.491-.164.5" transform="translate(-17.26 -177.411)" fill="#fff"/>
          <path id="Trazado_700022" data-name="Trazado 700022" d="M44.337,443.934a11.976,11.976,0,0,1,1.273-.575A12,12,0,0,1,47,443.212a1.637,1.637,0,0,0-1.476-.15c-.843.223-1.263.833-1.19.872" transform="translate(-17.924 -179.108)" fill="#fff"/>
          <path id="Trazado_700023" data-name="Trazado 700023" d="M39.631,436.224a14.559,14.559,0,0,1,1.9-1.019,14.794,14.794,0,0,1,2.121-.44,3.278,3.278,0,0,0-2.228.151,3.22,3.22,0,0,0-1.8,1.307" transform="translate(-16.022 -175.74)" fill="#fff"/>
          <path id="Trazado_700024" data-name="Trazado 700024" d="M39.351,429.754c.036.085.829-.222,1.853-.236s1.828.245,1.861.158a2.853,2.853,0,0,0-1.868-.466,2.843,2.843,0,0,0-1.845.544" transform="translate(-15.91 -173.541)" fill="#fff"/>
          <path id="Trazado_700025" data-name="Trazado 700025" d="M39.486,422.806a7.241,7.241,0,0,1,1.922-.3,7.219,7.219,0,0,1,1.876.507c.024-.029-.127-.208-.452-.4a3.221,3.221,0,0,0-2.851-.158c-.344.157-.515.318-.494.349" transform="translate(-15.965 -170.707)" fill="#fff"/>
          <path id="Trazado_700026" data-name="Trazado 700026" d="M41.368,419.522a1.2,1.2,0,0,0,.031-.53,3.635,3.635,0,0,0-.4-1.4,1.645,1.645,0,0,0-.694-.795.593.593,0,0,0-.663.115.932.932,0,0,0-.239.627,2.041,2.041,0,0,0,1.764,1.916,2.4,2.4,0,0,0,2.374-1.181.805.805,0,0,0,.054-.678.577.577,0,0,0-.594-.313,2.052,2.052,0,0,0-.948.46,4.13,4.13,0,0,0-.995,1.067,1.234,1.234,0,0,0-.229.48,6.548,6.548,0,0,1,1.354-1.371,1.919,1.919,0,0,1,.836-.381.307.307,0,0,1,.325.168.555.555,0,0,1-.062.444,2.144,2.144,0,0,1-2.071,1,1.773,1.773,0,0,1-1.521-1.605.677.677,0,0,1,.148-.445.32.32,0,0,1,.365-.068,1.478,1.478,0,0,1,.6.662,5.354,5.354,0,0,1,.561,1.824" transform="translate(-15.933 -168.503)" fill="#fff"/>
          <path id="Trazado_700027" data-name="Trazado 700027" d="M69.657,243.833a52.786,52.786,0,0,1,2.513,16.152c-.107,3.051-4.864,87.459-4.864,87.459l-14.071.587.55-79.243-1.141.294s-6.229,34.047-6.621,39.534c-.351,4.932-5.294,40.86-5.294,40.86l-12.814-.347,2.032-46.306,2.833-45.456,1.231-13.248Z" transform="translate(-11.286 -98.589)" fill="#263238"/>
          <path id="Trazado_700028" data-name="Trazado 700028" d="M68.515,264.583a2.736,2.736,0,0,0,.6.3,6.867,6.867,0,0,0,1.769.528,3.719,3.719,0,0,0,1.3-.045,2.682,2.682,0,0,0,1.328-.7,3.157,3.157,0,0,0,.761-1.45c.142-.545.213-1.109.3-1.683.35-2.3.565-4.4.677-5.917.056-.76.089-1.375.1-1.8a2.817,2.817,0,0,0-.011-.663,2.851,2.851,0,0,0-.105.655c-.053.485-.119,1.084-.2,1.792-.165,1.512-.412,3.6-.761,5.892a5.441,5.441,0,0,1-.969,2.988,2.955,2.955,0,0,1-2.4.724,8.02,8.02,0,0,1-1.751-.428,3.2,3.2,0,0,0-.643-.195" transform="translate(-27.702 -102.358)" fill="#455a64"/>
          <path id="Trazado_700029" data-name="Trazado 700029" d="M73.753,253.989c0-.013-.094-.068-.293-.072a1.27,1.27,0,0,0-.776.282,1.378,1.378,0,0,0-.547,1.095,1.3,1.3,0,0,0,.952,1.153,1.33,1.33,0,0,0,1.461-.374,1.369,1.369,0,0,0,.217-1.2,1.238,1.238,0,0,0-.457-.68c-.163-.113-.275-.125-.279-.113a1.565,1.565,0,0,1,.531.84,1.2,1.2,0,0,1-.225.983,1.066,1.066,0,0,1-1.154.265,1.044,1.044,0,0,1-.771-.886,1.2,1.2,0,0,1,.409-.924,1.6,1.6,0,0,1,.932-.368" transform="translate(-29.167 -102.666)" fill="#455a64"/>
          <path id="Trazado_700030" data-name="Trazado 700030" d="M37.829,261.8a1.551,1.551,0,0,0,.482.054,9.088,9.088,0,0,0,1.321-.04,12.957,12.957,0,0,0,4.2-1.144,12.79,12.79,0,0,0,3.564-2.464,8.863,8.863,0,0,0,.87-.978c.186-.247.281-.388.264-.4-.041-.033-.471.5-1.281,1.229a14.514,14.514,0,0,1-3.545,2.348,14.662,14.662,0,0,1-4.093,1.2c-1.089.15-1.777.14-1.777.192" transform="translate(-15.295 -103.842)" fill="#455a64"/>
          <path id="Trazado_700031" data-name="Trazado 700031" d="M48.1,244.318a1.357,1.357,0,0,0,.284.135l.833.336c.724.292,1.786.674,3.112,1.108s2.923.9,4.713,1.348,3.781.852,5.884,1.187,4.126.538,5.966.673,3.5.172,4.9.16,2.524-.045,3.3-.1l.895-.065a1.363,1.363,0,0,0,.312-.041,1.381,1.381,0,0,0-.315-.014l-.9.014c-.779.024-1.906.033-3.3.015s-3.048-.083-4.882-.217-3.844-.367-5.943-.691S58.894,247.423,57.1,247s-3.386-.874-4.714-1.288-2.4-.764-3.133-1.025l-.85-.288a1.347,1.347,0,0,0-.3-.083" transform="translate(-19.45 -98.784)" fill="#263238"/>
          <path id="Trazado_700032" data-name="Trazado 700032" d="M164.756,87.993,158.54,98.961l-1.779-.4,3.429,4.906,7.321-.584-1.33-.628L169.9,96.22l1.713,3.033L174,103.468l6.977-4.253L174.3,88.206Z" transform="translate(-63.383 -35.578)" fill="#0f58b9" fill-rule="evenodd"/>
          <g id="Grupo_998937" data-name="Grupo 998937" transform="translate(106.52 52.628)" opacity="0.3">
            <g id="Grupo_998936" data-name="Grupo 998936">
              <g id="Grupo_998935" data-name="Grupo 998935" clip-path="url(#clip-path-18)">
                <path id="Trazado_700033" data-name="Trazado 700033" d="M183.223,88.351l-4.4,8.014,4.1,7.248,6.977-4.252Z" transform="translate(-178.824 -88.351)" fill-rule="evenodd"/>
              </g>
            </g>
          </g>
          <path id="Trazado_700034" data-name="Trazado 700034" d="M150.081,130.73l11.652.257.11,1.5,3.03-5.595-2.56-5.838-.254,1.678-6.695-.163,2.02-3.212,2.193-3.164-7.058-4.118-6.393,10.355Z" transform="translate(-59.083 -45.315)" fill="#0f58b9" fill-rule="evenodd"/>
          <g id="Grupo_998940" data-name="Grupo 998940" transform="translate(87.044 66.668)" opacity="0.3">
            <g id="Grupo_998939" data-name="Grupo 998939">
              <g id="Grupo_998938" data-name="Grupo 998938" clip-path="url(#clip-path-19)">
                <path id="Trazado_700035" data-name="Trazado 700035" d="M146.127,122.276l9.238.138,4.213-6.376-7.057-4.118Z" transform="translate(-146.127 -111.921)" fill-rule="evenodd"/>
              </g>
            </g>
          </g>
          <path id="Trazado_700036" data-name="Trazado 700036" d="M198.119,123.314l-5.9-11.033,1.909-1.133-6.758.082-4.285,5.869,2-.658,3.33,6.825-3.479-.174-4.836-.241-.137,8.17,12.872.247Z" transform="translate(-72.764 -44.94)" fill="#0f58b9" fill-rule="evenodd"/>
          <g id="Grupo_998943" data-name="Grupo 998943" transform="translate(107.199 77.819)" opacity="0.3">
            <g id="Grupo_998942" data-name="Grupo 998942">
              <g id="Grupo_998941" data-name="Grupo 998941" clip-path="url(#clip-path-20)">
                <path id="Trazado_700037" data-name="Trazado 700037" d="M192.835,139.057l-4.42-8-8.314-.415-.137,8.17Z" transform="translate(-179.963 -130.641)" fill-rule="evenodd"/>
              </g>
            </g>
          </g>
          <path id="Trazado_700038" data-name="Trazado 700038" d="M143.965,78.387a1.753,1.753,0,0,1-.3.239c-.2.152-.508.353-.882.644a33.1,33.1,0,0,0-3.065,2.58,31.409,31.409,0,0,0-9.87,23.667,33.18,33.18,0,0,0,.323,3.993c.057.471.132.831.163,1.079a1.738,1.738,0,0,1,.04.38,1.736,1.736,0,0,1-.1-.368c-.051-.245-.146-.6-.221-1.072a28.429,28.429,0,0,1-.424-4.006A30.7,30.7,0,0,1,139.57,81.69a28.448,28.448,0,0,1,3.145-2.518c.387-.277.708-.462.917-.6a1.752,1.752,0,0,1,.334-.187" transform="translate(-52.403 -31.694)" fill="#263238"/>
          <path id="Trazado_700039" data-name="Trazado 700039" d="M206.057,139.331a1.814,1.814,0,0,1,.293-.246c.195-.157.5-.365.866-.664a33.13,33.13,0,0,0,3-2.652,31.407,31.407,0,0,0,9.307-23.894,33.069,33.069,0,0,0-.418-3.984c-.067-.469-.151-.827-.188-1.075a1.759,1.759,0,0,1-.05-.379,1.678,1.678,0,0,1,.11.366c.058.244.16.6.247,1.067a28.478,28.478,0,0,1,.518,3.995,30.707,30.707,0,0,1-9.373,24.062,28.348,28.348,0,0,1-3.084,2.592c-.379.286-.7.478-.9.619a1.75,1.75,0,0,1-.329.195" transform="translate(-83.315 -43.036)" fill="#263238"/>
          <path id="Trazado_700040" data-name="Trazado 700040" d="M232.667,113.313a1.145,1.145,0,0,1,.079.3c.045.235.1.524.167.876a12.746,12.746,0,0,1,.2,1.4c.053.547.144,1.169.153,1.863q.02.522.041,1.088c.012.378-.013.772-.019,1.179,0,.817-.094,1.683-.175,2.6a31.5,31.5,0,0,1-3.522,11.337c-.452.8-.865,1.567-1.328,2.239-.226.34-.428.678-.652.983s-.443.593-.65.873c-.4.566-.829,1.028-1.182,1.449a13.08,13.08,0,0,1-.956,1.037l-.634.627a1.156,1.156,0,0,1-.236.2,1.219,1.219,0,0,1,.191-.247l.59-.665c.263-.282.578-.634.913-1.067s.752-.9,1.138-1.467q.3-.422.63-.878c.217-.307.413-.646.632-.985.45-.673.852-1.44,1.293-2.234a32.6,32.6,0,0,0,3.49-11.237c.088-.9.191-1.764.2-2.573.011-.405.042-.8.037-1.171s-.014-.735-.021-1.079c.005-.69-.07-1.309-.107-1.856s-.091-1.014-.147-1.4c-.044-.354-.08-.646-.11-.883a1.187,1.187,0,0,1-.017-.312" transform="translate(-90.551 -45.816)" fill="#263238"/>
          <path id="Trazado_700041" data-name="Trazado 700041" d="M121.97,171.338l-6.225,6.43-.253,5.6,7.626,1.4.434-3.357,4.164-5.536Z" transform="translate(-46.697 -69.277)" fill="#ffc09d"/>
          <path id="Trazado_700042" data-name="Trazado 700042" d="M82.431,148.309s6.5,2.255,8.1,5.512,8.159,17.934,8.159,17.934l2.485,2.224.63-1.523,9.434,1.523s-1.747,7.8-3.916,11.2c-3.617,5.67-10.449,4.788-12.555,2.684-1.9-1.9-3.374-6.2-3.374-6.2Z" transform="translate(-33.329 -59.966)" fill="#455a64"/>
          <path id="Trazado_700043" data-name="Trazado 700043" d="M124.555,188.824l.3-2.08-8.2-1.679-.551,2.435Z" transform="translate(-46.947 -74.827)" fill="#e0e0e0"/>
          <path id="Trazado_700044" data-name="Trazado 700044" d="M85.917,174.788a10.463,10.463,0,0,1-.1-1.14c-.061-.734-.162-1.794-.316-3.1-.312-2.614-.827-6.216-1.593-10.159a71.223,71.223,0,0,0-2.554-9.945,18.391,18.391,0,0,0-1.253-2.837c-.37-.633-.64-.939-.615-.96.008-.007.079.066.208.213a6.04,6.04,0,0,1,.51.685,16.021,16.021,0,0,1,1.356,2.823,62.734,62.734,0,0,1,2.653,9.962c.768,3.953,1.25,7.569,1.506,10.195.127,1.313.194,2.38.219,3.117.009.369.014.656.007.851a1.064,1.064,0,0,1-.023.3" transform="translate(-32.136 -59.293)" fill="#263238"/>
          <path id="Trazado_700045" data-name="Trazado 700045" d="M93.827,159.1c.085-.014,1.468,8.06,3.091,18.031S99.788,195.2,99.7,195.218s-1.468-8.058-3.091-18.033-2.869-18.067-2.785-18.081" transform="translate(-37.935 -64.33)" fill="#263238"/>
          <path id="Trazado_700046" data-name="Trazado 700046" d="M47.012,140.517l2.447-5.62,13.324,8.829,1.459-3.529,5.095,14.862,6.866,29.59c.216.813,1.635,12.969,1.176,15.138-.329,1.558-.528,2.536-1.961,3.233l-1.372.2-14.721.482L49.311,146.876Z" transform="translate(-19.008 -54.543)" fill="#f5f5f5"/>
          <g id="Grupo_998946" data-name="Grupo 998946" transform="translate(21.44 127.9)" opacity="0.3">
            <g id="Grupo_998945" data-name="Grupo 998945">
              <g id="Grupo_998944" data-name="Grupo 998944" clip-path="url(#clip-path-21)">
                <path id="Trazado_700047" data-name="Trazado 700047" d="M36.039,255.378s19,3.519,23.373,2.249a5.208,5.208,0,0,0,3.849-5.559s-.465-12.593-.9-17.313c-.5-5.412-1.892-20.039-1.892-20.039L35.993,252.251Z" transform="translate(-35.993 -214.716)"/>
              </g>
            </g>
          </g>
          <path id="Trazado_700048" data-name="Trazado 700048" d="M73.948,159.083l-.337,6.752,4.09,36.914c.264.946,5.917,6.709,5.917,6.709l2.955-8.263-9.5-36.481-2.015-5.9Z" transform="translate(-29.763 -64.213)" fill="#12263f"/>
          <path id="Trazado_700049" data-name="Trazado 700049" d="M28.46,144.534c-7.611,3.71-8.6,10.409-6.147,18.513.407,1.344.7,2.067,1.263,3.643,2.465,6.88,8.234,18.862,7.992,21.376-.44,4.563-4.444,20.522-5.776,28.309a15.623,15.623,0,0,0-.242,4.992s25.508,5.17,28.358,2.709.132-15.987.026-23.633c-.117-8.437-1.386-22.605-3.07-29.6-1.124-4.666-2.77-12.973-4.652-18.586a69.476,69.476,0,0,0-8.049-15.368l-2.194,3.744s-5.041,2.693-7.508,3.9" transform="translate(-8.539 -55.35)" fill="#455a64"/>
          <path id="Trazado_700050" data-name="Trazado 700050" d="M39.6,252.64a2.354,2.354,0,0,1,.325.015l.883.071,3.234.288c2.741.248,6.534.6,10.881,1.046l-.175.117,1.942-4.838.092-.228.141.288c-5.975-.569-11.311-1.1-14.838-1.483l.109-.066-1.875,3.49-.522.955c-.122.22-.189.338-.2.344a2.32,2.32,0,0,1,.14-.314l.459-.952,1.8-3.656.035-.072.074.006c3.534.292,8.875.772,14.85,1.339l.248.024-.107.264-.091.228c-.674,1.669-1.33,3.293-1.951,4.833l-.053.131-.122-.013c-4.432-.478-8.291-.94-11.007-1.269L40.7,252.8l-.835-.11a1.231,1.231,0,0,1-.27-.048" transform="translate(-16.01 -100.13)" fill="#263238"/>
          <g id="Grupo_998949" data-name="Grupo 998949" transform="translate(24.401 149.065)" opacity="0.3">
            <g id="Grupo_998948" data-name="Grupo 998948">
              <g id="Grupo_998947" data-name="Grupo 998947" clip-path="url(#clip-path-22)">
                <path id="Trazado_700051" data-name="Trazado 700051" d="M41.34,253.81l-.376,1.5,15.358,1.652,1.171-6.713-2.038,5.063Z" transform="translate(-40.964 -250.247)"/>
              </g>
            </g>
          </g>
          <path id="Trazado_700052" data-name="Trazado 700052" d="M71.388,153.265l.126.248,1.534,1.893,1.109-.269.18-2.476-1.7-2.941Z" transform="translate(-28.864 -60.536)" fill="#12263f"/>
          <path id="Trazado_700053" data-name="Trazado 700053" d="M116.975,87.088a37.886,37.886,0,1,1,9.494,33.324,37.692,37.692,0,0,1-9.494-33.324M188.8,101.416a35.336,35.336,0,1,0-10.494,18.9,35.345,35.345,0,0,0,10.494-18.9" transform="translate(-47.002 -22.883)" fill="#455a64"/>
          <path id="Trazado_700054" data-name="Trazado 700054" d="M116.975,87.088a37.886,37.886,0,1,1,9.494,33.324,37.692,37.692,0,0,1-9.494-33.324M188.8,101.416a35.336,35.336,0,1,0-10.494,18.9,35.345,35.345,0,0,0,10.494-18.9" transform="translate(-47.002 -22.883)" fill="#263238"/>
          <g id="Grupo_998952" data-name="Grupo 998952" transform="translate(69.245 33.713)" opacity="0.3">
            <g id="Grupo_998951" data-name="Grupo 998951">
              <g id="Grupo_998950" data-name="Grupo 998950" clip-path="url(#clip-path-23)">
                <path id="Trazado_700055" data-name="Trazado 700055" d="M116.975,87.088a37.886,37.886,0,1,1,9.494,33.324,37.692,37.692,0,0,1-9.494-33.324M188.8,101.416a35.336,35.336,0,1,0-10.494,18.9,35.345,35.345,0,0,0,10.494-18.9" transform="translate(-116.247 -56.597)"/>
              </g>
            </g>
          </g>
          <path id="Trazado_700056" data-name="Trazado 700056" d="M115.411,84.026a37.886,37.886,0,1,1,9.494,33.323,37.7,37.7,0,0,1-9.494-33.323m71.827,14.328a35.336,35.336,0,1,0-10.494,18.9,35.343,35.343,0,0,0,10.494-18.9" transform="translate(-46.37 -21.645)" fill="#263238"/>
          <path id="Trazado_700057" data-name="Trazado 700057" d="M60,207.386,58.8,206.219c-1.076-1.041-.473-3.421.656-4.576L101.8,157.875l5.662,5.478-42.281,43.7a3.791,3.791,0,0,1-5.175.331" transform="translate(-23.546 -63.833)" fill="#263238"/>
          <path id="Trazado_700058" data-name="Trazado 700058" d="M130.668,166.268a.994.994,0,0,1,.856-.228,1.667,1.667,0,0,1,.673.468,7.681,7.681,0,0,1,2.181,5.31,2.353,2.353,0,0,1-.97,2.189l-.851-.492c-.264-.34-1.051-.91-1.156-1.327-.44-1.758.191-1.685-.911-4.734a1.051,1.051,0,0,1,.178-1.185" transform="translate(-52.719 -67.124)" fill="#ffc09d"/>
          <path id="Trazado_700059" data-name="Trazado 700059" d="M129.312,169.619a4.192,4.192,0,0,0-.842-1.11,1.224,1.224,0,0,0-1.12-.335c-.587.185-.873,1.03-.806,1.816a6.861,6.861,0,0,0,.73,2.235q1.046,2.268,2.092,4.535l.406-.3a.574.574,0,0,0,.9-.2,2.407,2.407,0,0,0,.2-1.235,11.852,11.852,0,0,0-1.562-5.41" transform="translate(-51.161 -67.983)" fill="#ffc09d"/>
          <path id="Trazado_700060" data-name="Trazado 700060" d="M126.6,175.773a10.61,10.61,0,0,0-2.094-2.807,2.574,2.574,0,0,0-.972-.738.916.916,0,0,0-1.093.321,1.264,1.264,0,0,0,.148,1.112,51.922,51.922,0,0,0,3.6,6.323l1.251-1.26c.567-1.023-.359-1.888-.84-2.952" transform="translate(-49.471 -69.614)" fill="#ffc09d"/>
          <path id="Trazado_700061" data-name="Trazado 700061" d="M78.347,195.689l1.1-.233,5.74-4.893,3.142-2.639a1.923,1.923,0,0,1,.92-.424l3.111-.519a1.769,1.769,0,0,1-.931,2.133l-1.7.882-1.56,1.843.2.4s10.22,1.585,10.858,2.365a1.062,1.062,0,0,1-.284,1.63,1.655,1.655,0,0,1-.78.071,1.855,1.855,0,0,1-.992,2.2s1.135,1.489-.849,2.2a3.208,3.208,0,0,1-1.7,1.489,73.651,73.651,0,0,1-7.868,1.063l-7.327.011-1.471.24Z" transform="translate(-31.516 -75.602)" fill="#ffc09d"/>
          <path id="Trazado_700062" data-name="Trazado 700062" d="M108.452,202.453a8.156,8.156,0,0,1-2.826.152,11.287,11.287,0,0,1-2.8-.415,13.987,13.987,0,0,1,2.817.095,26.97,26.97,0,0,1,2.806.169" transform="translate(-41.577 -81.733)" fill="#ff9b6c"/>
          <path id="Trazado_700063" data-name="Trazado 700063" d="M106.974,206.262c0,.045-.266.082-.692.138s-1.015.137-1.68.178a14.367,14.367,0,0,1-1.7-.036,2.678,2.678,0,0,1-.7-.063c-.013-.046.259-.136.695-.164s1.033-.015,1.68-.057,1.249-.088,1.685-.084.706.045.706.089" transform="translate(-41.326 -83.361)" fill="#ff9b6c"/>
          <path id="Trazado_700064" data-name="Trazado 700064" d="M105.5,209.9a12.136,12.136,0,0,1-2.756.37,6.544,6.544,0,0,0-1.886.292c-.45.169-.656.411-.7.375-.031-.014.125-.334.6-.581a4.99,4.99,0,0,1,1.956-.406,12.086,12.086,0,0,1,2.78-.049" transform="translate(-40.496 -84.846)" fill="#ff9b6c"/>
          <path id="Trazado_700065" data-name="Trazado 700065" d="M73.32,200.924l1.657,9.719,4.508-1.324-1.358-10.2Z" transform="translate(-29.645 -80.511)" fill="#e0e0e0"/>
          <path id="Trazado_700066" data-name="Trazado 700066" d="M73.318,200.813a1.479,1.479,0,0,1,.306-.144l.937-.382,3.523-1.384.136-.054.02.148,1.338,9.762q.029.215.057.428l.017.132-.127.037-4.51,1.315-.158.046-.027-.161c-.478-2.871-.867-5.323-1.133-7.044-.123-.823-.223-1.493-.3-2a4.717,4.717,0,0,1-.08-.7,6.47,6.47,0,0,1,.166.742l.384,2.017c.321,1.718.761,4.124,1.25,6.935l-.184-.115,4.5-1.333-.11.169q-.029-.213-.057-.428c-.484-3.744-.925-7.162-1.262-9.773l.157.094-3.506,1.25-.979.335a2.277,2.277,0,0,1-.363.107" transform="translate(-29.643 -80.401)" fill="#263238"/>
          <path id="Trazado_700067" data-name="Trazado 700067" d="M29.208,149.109s-7.516,3-8.089,10.042c-.445,5.475,1.3,21.934,1.545,24.858.714,8.666,3.281,13.739,9.9,14.775,4.569.716,23.3-8.245,23.3-8.245l-1.7-10.71-17.292,5.032-1.673-20.6s-.161-1.612-.605-3.766" transform="translate(-8.51 -60.289)" fill="#455a64"/>
          <path id="Trazado_700068" data-name="Trazado 700068" d="M34.519,160.494s.041.143.1.425.147.7.244,1.258.21,1.24.306,2.056c.071.819.152,1.76.245,2.817.357,4.244.87,10.34,1.5,17.8l-.152-.1,17.285-5.055.156-.046.026.161,1.708,10.708.018.113-.1.048c-4.268,2.008-8.784,4.012-13.529,5.809a55.859,55.859,0,0,1-6.644,2.123,15.8,15.8,0,0,1-1.7.307,5.367,5.367,0,0,1-1.732-.023,12.019,12.019,0,0,1-3.224-1.028,9.51,9.51,0,0,1-2.654-2.007,11.09,11.09,0,0,1-1.814-2.709,21.874,21.874,0,0,1-1.742-6.027c-.316-2.023-.415-4.009-.617-5.925q-.26-2.882-.5-5.59c-.309-3.609-.557-6.974-.7-10.051-.073-1.539-.119-3.006-.107-4.4,0-.695.033-1.371.074-2.025a11.414,11.414,0,0,1,.358-1.878,11.114,11.114,0,0,1,.615-1.672,12.6,12.6,0,0,1,2.72-3.59,16.346,16.346,0,0,1,3.232-2.3c.4-.214.714-.363.926-.456s.328-.127.328-.127-.105.055-.315.156-.516.26-.91.482a16.992,16.992,0,0,0-3.179,2.334,12.59,12.59,0,0,0-1.842,2.166,12.286,12.286,0,0,0-.816,1.405,10.966,10.966,0,0,0-.593,1.649,11.292,11.292,0,0,0-.341,1.846c-.036.649-.068,1.319-.062,2.012,0,1.384.049,2.848.129,4.384.159,3.072.419,6.434.739,10.039q.251,2.7.519,5.586c.207,1.919.312,3.906.628,5.907a21.6,21.6,0,0,0,1.725,5.941,10.8,10.8,0,0,0,1.769,2.635,9.245,9.245,0,0,0,2.57,1.94,11.748,11.748,0,0,0,3.139,1,5.037,5.037,0,0,0,1.644.02,15.7,15.7,0,0,0,1.664-.3,55.672,55.672,0,0,0,6.6-2.113c4.73-1.791,9.247-3.792,13.507-5.792l-.084.16-1.693-10.71.182.115-17.3,5.008-.141.041-.011-.145c-.584-7.464-1.061-13.563-1.394-17.808-.08-1.057-.151-2-.213-2.818-.085-.813-.186-1.5-.273-2.056l-.211-1.263c-.051-.284-.069-.432-.069-.432" transform="translate(-8.445 -60.289)" fill="#263238"/>
          <path id="Trazado_700069" data-name="Trazado 700069" d="M60.443,170.114a1.115,1.115,0,0,1-.157-.257l-.4-.764c-.333-.668-.833-1.625-1.465-2.8-1.256-2.355-3.117-5.537-5.163-9.064s-3.788-6.79-4.915-9.216c-.563-1.213-1-2.2-1.269-2.9-.125-.32-.228-.586-.312-.8a1.076,1.076,0,0,1-.089-.288,1.124,1.124,0,0,1,.147.264l.366.779c.3.681.77,1.656,1.356,2.853,1.175,2.4,2.94,5.632,4.986,9.157s3.88,6.73,5.088,9.116c.608,1.191,1.079,2.165,1.38,2.85l.343.789a1.106,1.106,0,0,1,.1.284" transform="translate(-18.872 -58.232)" fill="#263238"/>
          <path id="Trazado_700070" data-name="Trazado 700070" d="M40.271,160.052a11.256,11.256,0,0,1-.233-1.182,8.266,8.266,0,0,0-3.009-4.747,11.128,11.128,0,0,1-.969-.715,3.03,3.03,0,0,1,1.1.537,7.285,7.285,0,0,1,3.1,4.885,3.043,3.043,0,0,1,.017,1.222" transform="translate(-14.58 -62.025)" fill="#263238"/>
          <path id="Trazado_700071" data-name="Trazado 700071" d="M42.947,213.184a6.936,6.936,0,0,1,3.1-4.846,26.472,26.472,0,0,0-1.814,2.254,26.625,26.625,0,0,0-1.284,2.592" transform="translate(-17.359 -84.235)" fill="#263238"/>
          <path id="Trazado_700072" data-name="Trazado 700072" d="M67.569,150.09a1.839,1.839,0,0,1-.1.545c-.09.346-.245.84-.462,1.444-.434,1.209-1.123,2.853-1.987,4.651l-.077.16-.143-.1c-.151-.1-.321-.2-.478-.317a38.778,38.778,0,0,1-4.071-3.613l-1.169-1.156a2.4,2.4,0,0,1-.409-.447,2.157,2.157,0,0,1,.49.357c.3.247.723.619,1.238,1.085a53.147,53.147,0,0,0,4.1,3.519c.153.114.315.208.46.307l-.22.065c.864-1.788,1.584-3.411,2.067-4.592s.722-1.925.765-1.913" transform="translate(-23.721 -60.686)" fill="#263238"/>
          <path id="Trazado_700073" data-name="Trazado 700073" d="M77.883,152.959a2.76,2.76,0,0,1-.288.658,15.707,15.707,0,0,1-.85,1.625l-.122.192-.126-.2c-.188-.29-.375-.612-.563-.948A17.588,17.588,0,0,1,74.381,151a27.277,27.277,0,0,1,1.825,3.14c.186.334.368.655.541.941l-.247,0c.4-.6.687-1.17.934-1.549s.422-.589.449-.569" transform="translate(-30.072 -61.053)" fill="#263238"/>
        </g>
      </g>
    </g>
  </g>
</svg>
