<svg xmlns="http://www.w3.org/2000/svg" width="105" height="105" viewBox="0 0 105 105">
  <g id="Grupo_999310" data-name="Grupo 999310" transform="translate(-265 -5569)">
    <circle id="Elipse_5151" data-name="Elipse 5151" cx="52.5" cy="52.5" r="52.5" transform="translate(265 5569)" fill="#ad84ff"/>
    <g id="calibracion_1_" data-name="calibracion (1)" transform="translate(276.842 5588.033)">
      <g id="Grupo_930523" data-name="Grupo 930523" transform="translate(9.131 7.842)">
        <g id="Grupo_930522" data-name="Grupo 930522">
          <path id="Trazado_667325" data-name="Trazado 667325" d="M169.408,423.111h6.62l-5.522-12.138H153.515l-5.522,12.138h6.62l2.962-6.15a1.269,1.269,0,0,1,1.143-.718H165.3a1.269,1.269,0,0,1,1.143.718Z" transform="translate(-130.818 -365.477)" fill="#9ec8fc"/>
          <path id="Trazado_667326" data-name="Trazado 667326" d="M78.044,101.153H15.658V61.769A1.345,1.345,0,0,1,17,60.424H76.7a1.345,1.345,0,0,1,1.345,1.345v39.385Z" transform="translate(-15.658 -60.424)" fill="#407194"/>
          <path id="Trazado_667327" data-name="Trazado 667327" d="M162.007,107.09A14.311,14.311,0,1,0,176.026,121.4,14.165,14.165,0,0,0,162.007,107.09Zm0,18.149a3.841,3.841,0,1,1,3.842-3.842A3.841,3.841,0,0,1,162.007,125.239Z" transform="translate(-130.814 -101.033)" fill="#5392f9"/>
          <path id="Trazado_667328" data-name="Trazado 667328" d="M162.007,173.937V184.4a14.165,14.165,0,0,1-14.018-14.309,14.461,14.461,0,0,1,1.815-7.045l8.876,5.124a3.842,3.842,0,0,0,3.328,5.763Z" transform="translate(-130.814 -149.731)" fill="#db387e"/>
          <path id="Trazado_667329" data-name="Trazado 667329" d="M165.27,258.237A14.305,14.305,0,0,1,153.4,251.86a14.054,14.054,0,0,0,13.316,9.827v-3.524A14.3,14.3,0,0,1,165.27,258.237Z" transform="translate(-135.522 -227.014)" fill="#c4237c"/>
          <path id="Trazado_667330" data-name="Trazado 667330" d="M270.018,170.095A14.165,14.165,0,0,1,256,184.4V173.937a3.842,3.842,0,0,0,3.328-5.763l8.876-5.124A14.46,14.46,0,0,1,270.018,170.095Z" transform="translate(-224.807 -149.731)" fill="#9cd169"/>
          <path id="Trazado_667331" data-name="Trazado 667331" d="M268.833,172.927a15.134,15.134,0,0,1,.122,1.921A14.59,14.59,0,0,1,256,189.474V193a14.165,14.165,0,0,0,14.018-14.309A14.5,14.5,0,0,0,268.833,172.927Z" transform="translate(-224.807 -158.326)" fill="#68b181"/>
          <path id="Trazado_667332" data-name="Trazado 667332" d="M238.206,104.108h-6.238v-8.92a1.352,1.352,0,0,1,1.352-1.352h3.534a1.352,1.352,0,0,1,1.352,1.352Z" transform="translate(-203.894 -89.5)" fill="#eec06b"/>
          <path id="Trazado_667333" data-name="Trazado 667333" d="M207.88,160.776a8.435,8.435,0,0,1-4.693,7.563,1.353,1.353,0,0,1-1.552-.235,3.12,3.12,0,0,0-4.379,0,1.353,1.353,0,0,1-1.552.235,8.435,8.435,0,0,1-4.693-7.563q0-.289.019-.574a1.335,1.335,0,0,1,.975-1.192,3.119,3.119,0,0,0,2.189-3.791,1.348,1.348,0,0,1,.562-1.454,8.44,8.44,0,0,1,9.378,0,1.348,1.348,0,0,1,.562,1.454,3.119,3.119,0,0,0,2.189,3.791,1.334,1.334,0,0,1,.975,1.192q.02.285.02.574Z" transform="translate(-168.253 -140.412)" fill="#ddebfd"/>
          <circle id="Elipse_5153" data-name="Elipse 5153" cx="2.421" cy="2.421" r="2.421" transform="translate(28.772 17.944)" fill="#407194"/>
          <path id="Trazado_667334" data-name="Trazado 667334" d="M78.044,374.245H15.658v4.37A1.345,1.345,0,0,0,17,379.96H76.7a1.345,1.345,0,0,0,1.345-1.345v-4.37Z" transform="translate(-15.658 -333.516)" fill="#ddebfd"/>
          <path id="Trazado_667335" data-name="Trazado 667335" d="M458.133,60.424H453.98a1.345,1.345,0,0,1,1.345,1.345v39.385h4.153V61.769a1.345,1.345,0,0,0-1.345-1.345Z" transform="translate(-397.092 -60.424)" fill="#365f7e"/>
          <path id="Trazado_667336" data-name="Trazado 667336" d="M455.326,374.245v4.37a1.345,1.345,0,0,1-1.345,1.345h4.153a1.345,1.345,0,0,0,1.345-1.345v-4.37Z" transform="translate(-397.093 -333.516)" fill="#bed9fd"/>
        </g>
      </g>
      <g id="Grupo_930524" data-name="Grupo 930524" transform="translate(8.158)">
        <path id="Trazado_667337" data-name="Trazado 667337" d="M229.85,194.577a3.394,3.394,0,1,0,3.394-3.394A3.4,3.4,0,0,0,229.85,194.577Zm4.841,0a1.447,1.447,0,1,1-1.447-1.447A1.449,1.449,0,0,1,234.691,194.577Z" transform="translate(-201.078 -166.37)"/>
        <path id="Trazado_667338" data-name="Trazado 667338" d="M70.172,6.869H49.38V5.014a5.014,5.014,0,0,0-10.029,0V6.869H10.476A2.321,2.321,0,0,0,8.158,9.187V15.2a.973.973,0,1,0,1.947,0V9.187a.372.372,0,0,1,.371-.371H39.351v2.39h-.794a2.326,2.326,0,0,0-2.323,2.3,15.319,15.319,0,0,0,4.091,29.984A15.319,15.319,0,0,0,44.415,13.5a2.326,2.326,0,0,0-2.323-2.3H41.3V8.815H70.172a.372.372,0,0,1,.371.371V47.6H10.1V19.739a.973.973,0,1,0-1.947,0v33.2a2.321,2.321,0,0,0,2.318,2.318H29.884L25.68,64.5H20.6a.973.973,0,1,0,0,1.947H60.044a.973.973,0,1,0,0-1.947H54.969l-4.2-9.244H60.91a.973.973,0,0,0,0-1.947H10.476a.372.372,0,0,1-.371-.371v-3.4H70.544v3.4a.372.372,0,0,1-.371.371h-4.72a.973.973,0,1,0,0,1.947h4.72a2.321,2.321,0,0,0,2.318-2.318V9.187a2.321,2.321,0,0,0-2.318-2.318ZM44.472,22a.377.377,0,0,1,.162.4,4.092,4.092,0,0,0,2.872,4.976c.325.09.279.475.279.828a7.424,7.424,0,0,1-4.152,6.69.379.379,0,0,1-.436-.055,4.094,4.094,0,0,0-5.746,0,.379.379,0,0,1-.436.055,7.424,7.424,0,0,1-4.152-6.69c0-.345-.048-.738.279-.828A4.094,4.094,0,0,0,36.015,22.4a.377.377,0,0,1,.162-.4,7.466,7.466,0,0,1,8.295,0Zm-8.24-6.458v4.189a9.409,9.409,0,0,0-1.139.652,2.32,2.32,0,0,0-.962,2.508,2.138,2.138,0,0,1,.066.652l-4.73-2.73A13.121,13.121,0,0,1,36.232,15.545ZM27.28,28.206a13.618,13.618,0,0,1,1.249-5.685l4.7,2.711a2.143,2.143,0,0,1-.6.27,2.305,2.305,0,0,0-1.688,2.066c-.014.211-.021.426-.021.639a9.359,9.359,0,0,0,5.234,8.435,2.326,2.326,0,0,0,2.668-.414,2.14,2.14,0,0,1,.533-.383V41.5A13.236,13.236,0,0,1,27.28,28.206ZM41.3,41.5V35.844a2.142,2.142,0,0,1,.533.383,2.3,2.3,0,0,0,1.619.66,2.36,2.36,0,0,0,1.048-.246,9.359,9.359,0,0,0,5.234-8.435c0-.213-.007-.429-.021-.639A2.306,2.306,0,0,0,48.023,25.5a2.144,2.144,0,0,1-.6-.27l4.7-2.711a13.618,13.618,0,0,1,1.249,5.685A13.236,13.236,0,0,1,41.3,41.5Zm9.883-20.689-4.73,2.73a2.139,2.139,0,0,1,.066-.652,2.321,2.321,0,0,0-.962-2.508,9.392,9.392,0,0,0-1.139-.652V15.545a13.12,13.12,0,0,1,6.764,5.271ZM42.47,13.53v5.515a9.44,9.44,0,0,0-4.291,0V13.53a.378.378,0,0,1,.378-.378h3.535A.378.378,0,0,1,42.47,13.53ZM41.3,5.014a3.067,3.067,0,0,1,6.135,0V6.869H41.3ZM34.476,64.5l2.29-4.754a.294.294,0,0,1,.267-.167h6.583a.293.293,0,0,1,.266.167L46.173,64.5Zm18.354,0h-4.5l-2.7-5.6a2.255,2.255,0,0,0-2.02-1.268H37.033a2.255,2.255,0,0,0-2.02,1.269l-2.7,5.6h-4.5l4.2-9.244h16.6Z" transform="translate(-8.158)"/>
      </g>
    </g>
  </g>
</svg>
