<svg xmlns="http://www.w3.org/2000/svg" width="105" height="105" viewBox="0 0 105 105">
  <g id="Grupo_999308" data-name="Grupo 999308" transform="translate(-265 -5216)">
    <circle id="Elipse_5149" data-name="Elipse 5149" cx="52.5" cy="52.5" r="52.5" transform="translate(265 5216)" fill="#ad84ff"/>
    <g id="pie-de-rey" transform="translate(284.697 5236)">
      <g id="Grupo_930583" data-name="Grupo 930583" transform="translate(1.243 24.153)">
        <path id="Trazado_667422" data-name="Trazado 667422" d="M41.517,198.174l-5.461-5.446Q22.191,206.552,8.334,220.379a1.8,1.8,0,0,0,0,2.551l8.363,8.345a1.813,1.813,0,0,0,2.558,0l14.073-14.037Z" transform="translate(-7.802 -192.728)" fill="#f5f8f9" fill-rule="evenodd"/>
      </g>
      <g id="Grupo_930584" data-name="Grupo 930584" transform="translate(34 14.153)">
        <path id="Trazado_667423" data-name="Trazado 667423" d="M269.177,118.438l3.395,5.9,7.53,5,5.525-5.514-4.983-6.221-5.941-4.672Z" transform="translate(-269.177 -112.928)" fill="#f5f8f9" fill-rule="evenodd"/>
      </g>
      <g id="Grupo_930585" data-name="Grupo 930585" transform="translate(7.377 45.911)">
        <path id="Trazado_667424" data-name="Trazado 667424" d="M73.379,366.334,59.31,380.367a1.807,1.807,0,0,1-2.558,0l2.761,2.757a1.814,1.814,0,0,0,2.558,0l14.073-14.037Z" transform="translate(-56.752 -366.334)" fill="#dedbee" fill-rule="evenodd"/>
      </g>
      <g id="Grupo_930586" data-name="Grupo 930586" transform="translate(42.16 21.517)">
        <path id="Trazado_667425" data-name="Trazado 667425" d="M334.291,177.979l.37,1.627,2.394,1.13,5.525-5.514-1.842-3.528-.923.775Z" transform="translate(-334.291 -171.694)" fill="#dedbee" fill-rule="evenodd"/>
      </g>
      <g id="Grupo_930587" data-name="Grupo 930587" transform="translate(20.742 7.104)">
        <path id="Trazado_667426" data-name="Trazado 667426" d="M187.573,80.139l-10.925-10.9L164.057,56.684l-.666,5.77L169.2,70.8l2.942,2.935,5.461,5.446L165.4,91.352a2.042,2.042,0,0,0,0,2.888l4.014,4,2.885,2.881a2.055,2.055,0,0,0,2.9,0l12.2-12.172,6.7,6.683.42-5.251-1.557-4.864Z" transform="translate(-163.391 -56.684)" fill="#025f80" fill-rule="evenodd"/>
      </g>
      <g id="Grupo_930588" data-name="Grupo 930588" transform="translate(27.816 33.06)">
        <path id="Trazado_667427" data-name="Trazado 667427" d="M239.453,263.8l-16.723,16.648a2.05,2.05,0,0,1-2.892,0l1.838,1.837a2.055,2.055,0,0,0,2.9,0l12.2-12.172,6.7,6.683.42-5.251-1.557-4.864Z" transform="translate(-219.837 -263.798)" fill="#024c67" fill-rule="evenodd"/>
      </g>
      <g id="Grupo_930589" data-name="Grupo 930589" transform="translate(26.933 0.94)">
        <path id="Trazado_667428" data-name="Trazado 667428" d="M225.38,20.713,236.3,31.606l4.673,4.661,8.331-.654L226.933,13.295,218.562,7.5l-5.774.654Z" transform="translate(-212.788 -7.5)" fill="#025f80" fill-rule="evenodd"/>
      </g>
      <g id="Grupo_930590" data-name="Grupo 930590" transform="translate(52.269 26.207)">
        <path id="Trazado_667429" data-name="Trazado 667429" d="M423.284,209.114l-8.331.657,2.853,2.842,8.331-.654Z" transform="translate(-414.953 -209.114)" fill="#024c67" fill-rule="evenodd"/>
      </g>
      <g id="Grupo_930591" data-name="Grupo 930591" transform="translate(27.138 31.001)">
        <path id="Trazado_667430" data-name="Trazado 667430" d="M217.726,263.275l12.652-12.619a.238.238,0,0,0,0-.33l-2.9-2.9a.239.239,0,0,0-.331,0l-12.652,12.619a.231.231,0,0,0,0,.33l2.9,2.9A.233.233,0,0,0,217.726,263.275Z" transform="translate(-214.423 -247.363)" fill="#99e6fc" fill-rule="evenodd"/>
      </g>
      <g id="Grupo_930592" data-name="Grupo 930592" transform="translate(35.04 44.667)">
        <path id="Trazado_667431" data-name="Trazado 667431" d="M281.882,356.412l-4.406,4.395,2.215,2.213a.732.732,0,0,0,1.033,0l3.377-3.368a.723.723,0,0,0,0-1.027Z" transform="translate(-277.476 -356.412)" fill="#dedbee" fill-rule="evenodd"/>
      </g>
      <g id="Grupo_930593" data-name="Grupo 930593" transform="translate(28.927 32.787)">
        <path id="Trazado_667432" data-name="Trazado 667432" d="M241.687,261.953l-12.641,12.612a.246.246,0,0,1-.342,0l1.175,1.172s0,0,.007,0a.239.239,0,0,0,.331,0l0,0,12.641-12.612s0,0,.007,0a.245.245,0,0,0,0-.33l-.007,0-1.175-1.172A.233.233,0,0,1,241.687,261.953Z" transform="translate(-228.704 -261.616)" fill="#62dbfb" fill-rule="evenodd"/>
      </g>
      <g id="Grupo_930594" data-name="Grupo 930594" transform="translate(49.409 35.201)">
        <path id="Trazado_667433" data-name="Trazado 667433" d="M393.576,286.15a2.827,2.827,0,0,0,3.84-1.087,2.81,2.81,0,0,0-1.09-3.826,2.815,2.815,0,0,0-2.853,4.853Z" transform="translate(-392.13 -280.88)" fill="#dedbee" fill-rule="evenodd"/>
      </g>
      <g id="Grupo_930595" data-name="Grupo 930595" transform="translate(49.925 35.348)">
        <path id="Trazado_667434" data-name="Trazado 667434" d="M397.18,287.177l-.089-.053Zm2.764-3.922a2.822,2.822,0,0,1-3.694,3.091,2.827,2.827,0,0,0,.83.771c.032.021.068.043.1.06a2.827,2.827,0,0,0,3.84-1.087,2.816,2.816,0,0,0-1.564-4.036A2.814,2.814,0,0,1,399.944,283.255Z" transform="translate(-396.25 -282.054)" fill="#d2cfe9" fill-rule="evenodd"/>
      </g>
      <g id="Grupo_930596" data-name="Grupo 930596" transform="translate(0.303 0)">
        <path id="Trazado_667435" data-name="Trazado 667435" d="M64.117,28.387,41.741,6.069a.935.935,0,0,0-.129-.107L33.242.167A.941.941,0,0,0,32.6.006L26.827.659a.94.94,0,0,0-.558,1.6L38.193,14.152,34,18.335,22.072,6.438a.94.94,0,0,0-1.6.558l-.666,5.77a.94.94,0,0,0,.162.645l5.813,8.345a.931.931,0,0,0,.108.128l2.275,2.269L1.112,51.137a2.736,2.736,0,0,0,0,3.883l8.365,8.347a2.759,2.759,0,0,0,3.883,0l4.666-4.654A.94.94,0,0,0,16.7,57.381l-4.666,4.654a.874.874,0,0,1-1.23,0L2.437,53.688a.856.856,0,0,1,0-1.218l1.742-1.738,1.735,1.731a.94.94,0,0,0,1.328-1.331L5.512,49.4l1.818-1.813.816.814a.94.94,0,1,0,1.328-1.331l-.813-.811,1.807-1.8,1.732,1.73a.94.94,0,0,0,1.328-1.33L11.8,43.135l1.817-1.813.818.814A.94.94,0,1,0,15.759,40.8l-.813-.809,1.817-1.812L18.5,39.911a.94.94,0,0,0,1.328-1.331l-1.73-1.725,1.807-1.8.818.816a.94.94,0,1,0,1.328-1.331l-.814-.812,1.818-1.813,1.733,1.729a.94.94,0,0,0,1.328-1.331l-1.73-1.725L26.2,28.771l.818.816a.94.94,0,1,0,1.328-1.331l-.814-.812L29.5,25.481,33.627,29.6,22.089,41.107a2.982,2.982,0,0,0,0,4.218l3.347,3.34L19.9,54.187a.94.94,0,0,0,1.328,1.331l5.536-5.525,2.224,2.219a3,3,0,0,0,4.222,0l1.825-1.821,1.542,1.54a1.679,1.679,0,0,0,1.19.49,1.7,1.7,0,0,0,1.2-.49l3.348-3.343a1.685,1.685,0,0,0,0-2.386l-1.538-1.534L44.753,40.7l6.04,6.021a.94.94,0,0,0,1.6-.591l.352-4.4a3.752,3.752,0,1,0-2.317-7.008l-4.174-4.163,4.194-4.186,4.009,4a.94.94,0,0,0,.664.274l.074,0,8.331-.654a.94.94,0,0,0,.59-1.6ZM40.849,47.394l-3.075,3.07-1.4-1.4,3.036-3.028.04-.04ZM50.936,36.655a1.887,1.887,0,0,1,2.211-.275,1.868,1.868,0,0,1,.726,2.546,1.878,1.878,0,1,1-2.938-2.271ZM49.053,36v0a3.783,3.783,0,0,0,.176,4.271,3.743,3.743,0,0,0,.872.83,3.678,3.678,0,0,0,.778.411l-.2,2.438-5.265-5.249a.94.94,0,0,0-1.327,0L31.886,50.88a1.115,1.115,0,0,1-1.568,0l-6.9-6.885a1.1,1.1,0,0,1,0-1.557l12.2-12.172a.94.94,0,0,0,0-1.331l-8.343-8.322-5.562-7.985.4-3.487Zm-4.129-6.774-4.556-4.544-5.037-5.025,1.431-1.428L38.5,19.966a.94.94,0,1,0,1.328-1.331l-1.732-1.727,1.431-1.428,9.594,9.566Zm10.556-.5L28.98,2.308l3.482-.394,8.011,5.546,20.87,20.816Z" transform="translate(-0.303 0)"/>
        <path id="Trazado_667436" data-name="Trazado 667436" d="M207.3,254.489l.013.013,2.892,2.885.013.012a1.191,1.191,0,0,0,1.657-.013l4.955-4.945a.94.94,0,1,0-1.328-1.331l-4.462,4.453-1.9-1.9,11.654-11.621,1.906,1.9-4.066,4.167a.94.94,0,1,0,1.345,1.313l4.546-4.658a1.188,1.188,0,0,0,.341-.841,1.163,1.163,0,0,0-.351-.826l-2.884-2.877a1.175,1.175,0,0,0-1.674,0L207.309,252.83A1.189,1.189,0,0,0,207.3,254.489Z" transform="translate(-181.065 -209.812)"/>
      </g>
    </g>
  </g>
</svg>
