<svg xmlns="http://www.w3.org/2000/svg" width="105" height="105" viewBox="0 0 105 105">
  <g id="Grupo_999322" data-name="Grupo 999322" transform="translate(-271 -5222)">
    <circle id="Elipse_6257" data-name="Elipse 6257" cx="52.5" cy="52.5" r="52.5" transform="translate(271 5222)" fill="#ad84ff"/>
    <path id="Trazado_700941" data-name="Trazado 700941" d="M4.507,0V-50.477H22.188q9.187,0,13.937,3.519t4.75,10.314a11.4,11.4,0,0,1-1.907,6.535,11.014,11.014,0,0,1-5.3,4.143,10.656,10.656,0,0,1,6.119,3.917,11.582,11.582,0,0,1,2.236,7.211q0,7.28-4.646,11.024T24.129,0Zm10.4-21.979V-8.355h8.91a8.6,8.6,0,0,0,5.738-1.751,6,6,0,0,0,2.063-4.836q0-6.934-7.176-7.038Zm0-7.35h7.7q7.87-.139,7.87-6.275,0-3.432-1.993-4.94t-6.292-1.508h-7.28Z" transform="translate(304 5295)" fill="#fff"/>
  </g>
</svg>
