<svg xmlns="http://www.w3.org/2000/svg" xmlns:xlink="http://www.w3.org/1999/xlink" width="145" height="145" viewBox="0 0 145 145">
  <defs>
    <filter id="Elipse_5262" x="0" y="0" width="145" height="145" filterUnits="userSpaceOnUse">
      <feOffset dy="3" input="SourceAlpha"/>
      <feGaussianBlur stdDeviation="3" result="blur"/>
      <feFlood flood-opacity="0.161"/>
      <feComposite operator="in" in2="blur"/>
      <feComposite in="SourceGraphic"/>
    </filter>
  </defs>
  <g id="Grupo_999390" data-name="Grupo 999390" transform="translate(-1087 -9541.003)">
    <g transform="matrix(1, 0, 0, 1, 1087, 9541)" filter="url(#Elipse_5262)">
      <circle id="Elipse_5262-2" data-name="Elipse 5262" cx="63.5" cy="63.5" r="63.5" transform="translate(9 6)" fill="#ad84ff"/>
    </g>
    <g id="curriculum" transform="translate(1139.645 9574.128)">
      <path id="Trazado_695119" data-name="Trazado 695119" d="M96.179,87.449v4.673a.877.877,0,0,0,.781.948h34.121a.877.877,0,0,0,.781-.948V33.394a.877.877,0,0,0-.781-.948H123.61l3.575,4.2v50.8Z" transform="translate(-92.152 -28.367)" fill="#ed9aa9"/>
      <path id="Trazado_695120" data-name="Trazado 695120" d="M99.065,60.746H64.928a.877.877,0,0,1-.781-.948V.951A.877.877,0,0,1,64.928,0H92.7l7.144,8.6V59.8a.877.877,0,0,1-.781.948Z" transform="translate(-64.147 -0.003)" fill="#fff"/>
      <path id="Trazado_695121" data-name="Trazado 695121" d="M66.739,0V60.743H65.031a.916.916,0,0,1-.88-.948V.948A.916.916,0,0,1,65.031,0Z" transform="translate(-64.15)" fill="#dee4f0"/>
      <path id="Trazado_695122" data-name="Trazado 695122" d="M152.262,76.476a12.025,12.025,0,0,1-4.043,9.008h0c-2.131,1.9-4.937,1.791-8.013,1.791s-5.905.1-8.039-1.815a12.056,12.056,0,1,1,20.095-8.986Z" transform="translate(-121.907 -56.322)" fill="#365e7d"/>
      <path id="Trazado_695123" data-name="Trazado 695123" d="M176.168,173.754v4.767a12.055,12.055,0,0,1-16.051-.023v-4.743a1.921,1.921,0,0,1,1.392-1.8l4.446-1.122h4.377l4.444,1.122A1.921,1.921,0,0,1,176.168,173.754Z" transform="translate(-149.983 -147.47)" fill="#9bd8f9"/>
      <path id="Trazado_695124" data-name="Trazado 695124" d="M169.447,181.5a12.179,12.179,0,0,1-1.291.069,12.006,12.006,0,0,1-8.039-3.072v-4.743a1.921,1.921,0,0,1,1.392-1.8l4.446-1.122h2.588l-4.446,1.122a1.921,1.921,0,0,0-1.392,1.8V178.5A12.007,12.007,0,0,0,169.447,181.5Z" transform="translate(-149.611 -147.47)" fill="#73c3f9"/>
      <path id="Trazado_695125" data-name="Trazado 695125" d="M320.864,8.087l7.153-.105L319.971,0v7.2a.88.88,0,0,0,.893.88Z" transform="translate(-292.317 -0.003)" fill="#dee4f0"/>
      <g id="Grupo_896104" data-name="Grupo 896104" transform="translate(5.32 38.574)">
        <g id="Grupo_896103" data-name="Grupo 896103" transform="translate(0)">
          <g id="Grupo_896095" data-name="Grupo 896095">
            <path id="Trazado_695126" data-name="Trazado 695126" d="M131.448,282.43H121.4a.97.97,0,1,1,0-1.941h10.047a.97.97,0,1,1,0,1.941Z" transform="translate(-120.43 -280.489)" fill="#365e7d"/>
          </g>
          <g id="Grupo_896096" data-name="Grupo 896096" transform="translate(14.067)">
            <path id="Trazado_695127" data-name="Trazado 695127" d="M243.345,282.43H233.3a.97.97,0,1,1,0-1.941h10.047a.97.97,0,0,1,0,1.941Z" transform="translate(-232.327 -280.489)" fill="#365e7d"/>
          </g>
          <g id="Grupo_896097" data-name="Grupo 896097" transform="translate(0 4.05)">
            <path id="Trazado_695128" data-name="Trazado 695128" d="M131.448,314.648H121.4a.97.97,0,1,1,0-1.941h10.047a.97.97,0,1,1,0,1.941Z" transform="translate(-120.43 -312.707)" fill="#365e7d"/>
          </g>
          <g id="Grupo_896098" data-name="Grupo 896098" transform="translate(14.067 4.05)">
            <path id="Trazado_695129" data-name="Trazado 695129" d="M243.345,314.648H233.3a.97.97,0,0,1,0-1.941h10.047a.97.97,0,0,1,0,1.941Z" transform="translate(-232.327 -312.707)" fill="#365e7d"/>
          </g>
          <g id="Grupo_896099" data-name="Grupo 896099" transform="translate(0 8.038)">
            <path id="Trazado_695130" data-name="Trazado 695130" d="M131.448,346.371H121.4a.97.97,0,0,1,0-1.941h10.047a.97.97,0,1,1,0,1.941Z" transform="translate(-120.43 -344.43)" fill="#365e7d"/>
          </g>
          <g id="Grupo_896100" data-name="Grupo 896100" transform="translate(14.067 8.038)">
            <path id="Trazado_695131" data-name="Trazado 695131" d="M243.345,346.371H233.3a.97.97,0,0,1,0-1.941h10.047a.97.97,0,0,1,0,1.941Z" transform="translate(-232.327 -344.43)" fill="#365e7d"/>
          </g>
          <g id="Grupo_896101" data-name="Grupo 896101" transform="translate(0 12.026)">
            <path id="Trazado_695132" data-name="Trazado 695132" d="M131.448,378.094H121.4a.97.97,0,1,1,0-1.941h10.047a.97.97,0,1,1,0,1.941Z" transform="translate(-120.43 -376.153)" fill="#365e7d"/>
          </g>
          <g id="Grupo_896102" data-name="Grupo 896102" transform="translate(14.067 12.026)">
            <path id="Trazado_695133" data-name="Trazado 695133" d="M243.345,378.094H233.3a.97.97,0,1,1,0-1.941h10.047a.97.97,0,1,1,0,1.941Z" transform="translate(-232.327 -376.153)" fill="#365e7d"/>
          </g>
        </g>
      </g>
      <path id="Trazado_695134" data-name="Trazado 695134" d="M192.09,105.377v1.376a4.019,4.019,0,0,0,8.038,0v-1.376a4.019,4.019,0,0,0-8.038,0Z" transform="translate(-178.01 -87.551)" fill="#ffcebf"/>
      <path id="Trazado_695135" data-name="Trazado 695135" d="M197.4,110.535a4.028,4.028,0,0,1-5.314-3.781v-1.375a3.97,3.97,0,0,1,1.177-2.823,4.051,4.051,0,0,1,4.136-.957,4.022,4.022,0,0,0-1.549.957,3.97,3.97,0,0,0-1.177,2.823v1.375A4,4,0,0,0,197.4,110.535Z" transform="translate(-177.865 -87.552)" fill="#ffb09e"/>
    </g>
  </g>
</svg>
