<svg xmlns="http://www.w3.org/2000/svg" width="446.656" height="275.932" viewBox="0 0 446.656 275.932">
  <g id="Grupo_933384" data-name="Grupo 933384" transform="translate(-37.225 -66.554)">
    <g id="Grupo_933309" data-name="Grupo 933309" transform="translate(63.421 66.554)">
      <rect id="Rectángulo_329173" data-name="Rectángulo 329173" width="31.195" height="184.374" transform="translate(404.189 252.15) rotate(180)" fill="#e6faff"/>
      <rect id="Rectángulo_329174" data-name="Rectángulo 329174" width="31.195" height="222.189" transform="translate(187.731 252.15) rotate(180)" fill="#e6faff"/>
      <rect id="Rectángulo_329175" data-name="Rectángulo 329175" width="31.195" height="222.189" transform="translate(59.473 252.15) rotate(180)" fill="#e6faff"/>
      <rect id="Rectángulo_329176" data-name="Rectángulo 329176" width="31.195" height="195.932" transform="translate(31.195 252.15) rotate(180)" fill="#e6faff"/>
      <rect id="Rectángulo_329177" data-name="Rectángulo 329177" width="9.875" height="244.071" transform="translate(166.411 252.15) rotate(180)" fill="#e6faff"/>
      <rect id="Rectángulo_329178" data-name="Rectángulo 329178" width="31.195" height="201.43" transform="translate(380.4 252.15) rotate(180)" fill="#e6faff"/>
      <path id="Trazado_670543" data-name="Trazado 670543" d="M258.9,315.968h31.2V121.719L258.9,134.96Z" transform="translate(-52.427 -63.818)" fill="#e6faff"/>
      <rect id="Rectángulo_329179" data-name="Rectángulo 329179" width="31.195" height="166.195" transform="translate(360.427 252.15) rotate(180)" fill="#e6faff"/>
      <rect id="Rectángulo_329180" data-name="Rectángulo 329180" width="31.195" height="166.195" transform="translate(214.326 252.15) rotate(180)" fill="#e6faff"/>
      <rect id="Rectángulo_329181" data-name="Rectángulo 329181" width="31.195" height="227.463" transform="translate(333.72 252.15) rotate(180)" fill="#e6faff"/>
      <rect id="Rectángulo_329182" data-name="Rectángulo 329182" width="31.195" height="209.509" transform="translate(105.143 252.15) rotate(180)" fill="#e6faff"/>
      <rect id="Rectángulo_329183" data-name="Rectángulo 329183" width="31.195" height="170.123" transform="translate(84.945 252.15) rotate(180)" fill="#e6faff"/>
      <rect id="Rectángulo_329184" data-name="Rectángulo 329184" width="31.195" height="212.427" transform="translate(316.664 252.15) rotate(180)" fill="#e6faff"/>
      <rect id="Rectángulo_329185" data-name="Rectángulo 329185" width="31.195" height="189.535" transform="translate(158.781 252.15) rotate(180)" fill="#e6faff"/>
      <rect id="Rectángulo_329186" data-name="Rectángulo 329186" width="31.195" height="189.535" transform="translate(158.781 252.15) rotate(180)" fill="#e6faff"/>
      <path id="Trazado_670544" data-name="Trazado 670544" d="M160.006,317.58h31.2V113.569l-31.2-24.35Z" transform="translate(-57.332 -65.43)" fill="#e6faff"/>
      <rect id="Rectángulo_329187" data-name="Rectángulo 329187" width="31.195" height="181.007" transform="translate(289.508 252.15) rotate(180)" fill="#e6faff"/>
      <rect id="Rectángulo_329188" data-name="Rectángulo 329188" width="26.033" height="228.361" transform="translate(241.257 23.789)" fill="#e6faff"/>
      <rect id="Rectángulo_329189" data-name="Rectángulo 329189" width="15.261" height="252.15" transform="translate(246.643)" fill="#e6faff"/>
      <rect id="Rectángulo_329190" data-name="Rectángulo 329190" width="36.357" height="209.509" transform="translate(236.095 42.641)" fill="#e6faff"/>
    </g>
    <ellipse id="Elipse_5242" data-name="Elipse 5242" cx="223.328" cy="19.179" rx="223.328" ry="19.179" transform="translate(37.225 304.127)" fill="#7dd371"/>
    <g id="Grupo_933310" data-name="Grupo 933310" transform="translate(67.89 303.308)">
      <path id="Trazado_670545" data-name="Trazado 670545" d="M94.255,306.788c-15.361,0-27.814,1.593-27.814,3.557S78.894,313.9,94.255,313.9s27.814-1.592,27.814-3.556S109.617,306.788,94.255,306.788Z" transform="translate(-66.441 -291.392)" fill="#69c458"/>
      <path id="Trazado_670546" data-name="Trazado 670546" d="M350.006,298.158c-9.8,0-19.284.1-28.273.287.633-.334.972-.678.972-1.031,0-2.923-22.822-5.294-50.976-5.294s-50.975,2.371-50.975,5.294c0,2.372,15.023,4.38,35.725,5.053q-2.369.361-4.223.74c-14.488-.959-35.79-1.567-59.559-1.567-43.648,0-79.032,2.046-79.032,4.569s35.384,4.569,79.032,4.569c10.933,0,21.346-.129,30.815-.361-3.207.535-5.123,1.207-5.123,1.938,0,1.739,10.817,3.149,24.16,3.149s24.16-1.41,24.16-3.149c0-1.4-7.04-2.59-16.764-3,2.048-.124,3.982-.255,5.779-.391,16.448,2.613,52.476,4.427,94.282,4.427,57.328,0,103.8-3.41,103.8-7.617S407.334,298.158,350.006,298.158Z" transform="translate(-64.099 -292.12)" fill="#69c458"/>
      <ellipse id="Elipse_5243" data-name="Elipse 5243" cx="34.019" cy="3.783" rx="34.019" ry="3.783" transform="translate(295.392 21.24)" fill="#69c458"/>
    </g>
    <g id="Grupo_933338" data-name="Grupo 933338" transform="translate(97.376 68.038)">
      <g id="Grupo_933317" data-name="Grupo 933317" transform="translate(36.839 81.953)">
        <path id="Trazado_670547" data-name="Trazado 670547" d="M202.533,201.577s.631,4.486,1.614,4.552,8.988.721,8.725,0-3.314-1.05-5.166-2.624a7.437,7.437,0,0,1-2.247-2.69Z" transform="translate(-126.016 -143.332)" fill="#ed8772"/>
        <path id="Trazado_670548" data-name="Trazado 670548" d="M174.477,242.965s4.4,8.5,3.215,9.42-14.33,6.166-14.447,4.789,2.9-3.215,5.132-5.445,2.82-8,2.82-8Z" transform="translate(-127.965 -141.241)" fill="#232538"/>
        <path id="Trazado_670549" data-name="Trazado 670549" d="M143.738,236.253s-4.592,3.4-6.363,3.272-7.872-1.838-7.741,0,9.249,8.664,10.561,7.877,5.773-8.725,5.773-8.725Z" transform="translate(-129.632 -141.574)" fill="#232538"/>
        <path id="Trazado_670550" data-name="Trazado 670550" d="M180.142,194.191s-22.238,13.775-23.156,16.4-16.138,26.718-15.35,28.119,3.674,3.763,4.986,2.582,12.858-19.247,14.826-21.825,1.837-3.627,3.936-4.546,7.2-4.2,7.2-4.2l14.45-14.038-.656-1.837Z" transform="translate(-129.038 -143.66)" fill="#534741"/>
        <path id="Trazado_670551" data-name="Trazado 670551" d="M195.365,195.185a12.132,12.132,0,0,1-3.842,10.632c-5.08,4.986-17.019,13.514-17.019,14.826s1.837,25.059.918,25.715-5.51,1.926-5.9.635-3.411-28.531-2.755-31.573,17.35-20.225,17.35-20.225Z" transform="translate(-127.795 -143.611)" fill="#736357"/>
        <path id="Trazado_670552" data-name="Trazado 670552" d="M181.7,160.005s1.072.069.678-1.112a2.412,2.412,0,0,1,1.225-2.668c.743-.481,1.837-.918,2.011-.7s3.237,1.4,2.319,3.455-4.185,2.786-4.185,2.786Z" transform="translate(-127.05 -145.581)" fill="#ed8772"/>
        <path id="Trazado_670553" data-name="Trazado 670553" d="M183.884,156.8l1.356,3.8,4.9-1.9-1.428-5.014Z" transform="translate(-126.941 -145.67)" fill="#232538"/>
        <path id="Trazado_670554" data-name="Trazado 670554" d="M193.539,154.523l6.517,3.062a1.949,1.949,0,0,1-.853,2.349c-1.443,1.128-2.033,1.587-1.115,1.587s2.272.2,2.088,1.312-.711,1.312.668,1.968,2.427.525,2.1,1.9-1.509,1.574-.46,2.755-.852,3.973-.852,3.973-7.676-1.874-8.79-6.072a41.889,41.889,0,0,1-1.706-9.446C190.937,154.7,193.539,154.523,193.539,154.523Z" transform="translate(-126.582 -145.628)" fill="#232538"/>
        <path id="Trazado_670555" data-name="Trazado 670555" d="M189.525,164.988a8.3,8.3,0,0,0,.694-2.731c-.131-.743-.174-.743-1.006-1.05s-3.193-.087-2.406-2.973a32.746,32.746,0,0,1,2.668-6.21l4.285,2.624s-1.181,3.455,0,3.106,2.319-.7,2.755.218-.481,1.68-1.312,2.087a1.688,1.688,0,0,0-.874,2.112c.262.874.087.962-.175,1.968s1.07,2.1,1.07,2.1-1.375,5.379-3.015,5.839-4.788-1.116-4.919-3.28S189.525,164.988,189.525,164.988Z" transform="translate(-126.804 -145.752)" fill="#ed8772"/>
        <g id="Grupo_933311" data-name="Grupo 933311" transform="translate(43.543 17.945)">
          <path id="Trazado_670556" data-name="Trazado 670556" d="M207.54,203.145c-.451,0-3.537.787-4,0s-5.447-26.313-5.447-26.313-1.312,6.7-1.774,10.244,0,9.31-1.176,9.7c-.84.283-7.106.262-11.252.01h-.031a19.66,19.66,0,0,1-3.411-.4c-1.837-.588-2.886-.987-2.5-1.9a108.218,108.218,0,0,0,2.372-10.559c.388-2.561-.6-6.5-.136-8.008s.661-2.1.661-2.1-8.218,6.046-9.457,5.552,1.973-6.906,4.461-9.8,8.176-6.424,8.176-6.424l6.266,1.291s-.136,4.6,1.375,4.4,4.324-3.149,4.324-3.149,5.773.651,6.172,1.837S208,203.145,207.54,203.145Z" transform="translate(-171.117 -163.145)" fill="#f4bd5b"/>
        </g>
        <g id="Grupo_933312" data-name="Grupo 933312" transform="translate(40.724 14.306)">
          <path id="Trazado_670557" data-name="Trazado 670557" d="M184.913,162.118s-2.559-2.953-3.149-2.362-10.431,12.135-11.874,13.907-1.9,4.132-.983,5.575,4.263-.2,5.575-1.377S184.913,162.118,184.913,162.118Z" transform="translate(-168.431 -159.679)" fill="#f4bd5b"/>
        </g>
        <g id="Grupo_933313" data-name="Grupo 933313" transform="translate(50.281 24.88)">
          <path id="Trazado_670558" data-name="Trazado 670558" d="M180.525,173.492l1.378-3.739-4.365,5.848Z" transform="translate(-177.537 -169.753)" fill="#ef8a5e"/>
        </g>
        <g id="Grupo_933314" data-name="Grupo 933314" transform="translate(56.318 27.412)">
          <path id="Trazado_670559" data-name="Trazado 670559" d="M198.109,172.165l-.619,4.219s-1.312,6.7-1.774,10.244,0,9.31-1.176,9.7c-.84.283-7.106.262-11.252.01.483-.052,5.857-.7,8.281-3.285,2.53-2.708,2.362-8.743-1.228-8.659a14.122,14.122,0,0,1-7.053-2.173c.451.157,5.321,1.774,9.153.651C196.21,181.779,197.91,173.236,198.109,172.165Z" transform="translate(-183.289 -172.165)" fill="#ef8a5e"/>
        </g>
        <g id="Grupo_933315" data-name="Grupo 933315" transform="translate(60.685)">
          <path id="Trazado_670560" data-name="Trazado 670560" d="M189.436,152.319s-2.58-1.2-1.859-2.055,2.493,0,2.493,0,3.215-5.9,8.857-3.739,4.067,11.611,1.312,11.479c0,0-7.566-3.411-8.933-4.132A4.935,4.935,0,0,1,189.436,152.319Z" transform="translate(-187.45 -146.048)" fill="#ffe045"/>
        </g>
        <g id="Grupo_933316" data-name="Grupo 933316" transform="translate(46.775 17.945)">
          <path id="Trazado_670561" data-name="Trazado 670561" d="M182.068,165.995l-7.872,11.7,11.645-14.14-1.965-.4Z" transform="translate(-174.196 -163.145)" fill="#ef8a5e"/>
        </g>
      </g>
      <g id="Grupo_933322" data-name="Grupo 933322" transform="translate(186.921 24.505)">
        <path id="Trazado_670562" data-name="Trazado 670562" d="M317.326,282.952h-7.983l2.082-111.587.134-7.274L312,140.742h2.658l.336,18.04.461,24.644Z" transform="translate(-270.8 -88.863)" fill="#c5deef"/>
        <path id="Trazado_670563" data-name="Trazado 670563" d="M317.322,282.95h-7.976l2.082-111.583L312,140.746h1.4c-.136,30.1-.511,119.364-.064,128.787C313.869,280.883,317.322,282.95,317.322,282.95Z" transform="translate(-270.8 -88.863)" fill="#93bbd1"/>
        <path id="Trazado_670564" data-name="Trazado 670564" d="M314.89,158.783l-3.435,5.309.441-23.349h2.658Z" transform="translate(-270.695 -88.863)" fill="#76a3b7"/>
        <g id="Grupo_933321" data-name="Grupo 933321">
          <g id="Grupo_933319" data-name="Grupo 933319">
            <path id="Trazado_670565" data-name="Trazado 670565" d="M314.569,136.862l-1.092.017-1.095.01a1.321,1.321,0,0,1-1.105-.755l-.038-.062,0-.007-2.318-4.084-.809-1.427a2.6,2.6,0,0,1-.3-1.448l2.69-36.165a1.706,1.706,0,0,1,.983-1.578,1.032,1.032,0,0,1,.257-.048c.007,0,.018,0,.025,0,.661-.013,1.249.668,1.382,1.591l5.413,36.077a2.529,2.529,0,0,1-.2,1.451l-1,2.053-.09.193-1.663,3.4a1.4,1.4,0,0,1-.579.647A.9.9,0,0,1,314.569,136.862Z" transform="translate(-270.876 -91.315)" fill="#c5deef"/>
            <path id="Trazado_670566" data-name="Trazado 670566" d="M354.623,162.61a1.6,1.6,0,0,1-.418.067,2.307,2.307,0,0,1-1.072-.212l-33.926-15.152a2.784,2.784,0,0,1-1.161-.959l-1-1.547-2.277-3.5-.223-.351a1.234,1.234,0,0,1-.149-1.3l.539-.924.532-.922a1.153,1.153,0,0,1,1.01-.511l0,.007a.572.572,0,0,1,.2-.013l5.744.35.679.039a2.79,2.79,0,0,1,.5.089,2.849,2.849,0,0,1,.906.447l29.936,21.99c.775.571,1.1,1.393.778,1.949A1.031,1.031,0,0,1,354.623,162.61Z" transform="translate(-270.555 -89.034)" fill="#c5deef"/>
            <path id="Trazado_670567" data-name="Trazado 670567" d="M272.756,161.54a.786.786,0,0,1-.078-.174,1.645,1.645,0,0,1,.8-1.759l29.386-21.235a2.584,2.584,0,0,1,1.395-.5l.007,0,3.516-.122,2.236-.077.651-.017a1.322,1.322,0,0,1,1.222.544l.563.935.562.936a1.247,1.247,0,0,1-.117,1.3l-.2.321-.007,0-1.826,2.87-1.339,2.1a2.469,2.469,0,0,1-1.128.929l-15.881,6.765-17.676,7.526A1.64,1.64,0,0,1,272.756,161.54Z" transform="translate(-272.621 -89.016)" fill="#c5deef"/>
            <g id="Grupo_933318" data-name="Grupo 933318" transform="translate(19.895 0.001)">
              <path id="Trazado_670568" data-name="Trazado 670568" d="M315.03,136.731a.9.9,0,0,1-.461.131l-1.092.017-1.095.01a1.321,1.321,0,0,1-1.105-.755l-.038-.062,0-.007-2.318-4.084-.809-1.427a2.6,2.6,0,0,1-.3-1.448l2.69-36.165a1.706,1.706,0,0,1,.983-1.578,1.032,1.032,0,0,1,.257-.048c-.576,8.079-1.363,27.45,1.9,35.661a13.785,13.785,0,0,0,3.726,5.51l-.09.193-1.663,3.4A1.4,1.4,0,0,1,315.03,136.731Z" transform="translate(-290.771 -91.315)" fill="#93bbd1"/>
              <path id="Trazado_670569" data-name="Trazado 670569" d="M307.457,147.593l-15.882,6.765c8.01-4.346,14.646-9.262,15.318-13.8a5.372,5.372,0,0,0,.058-.688,16.137,16.137,0,0,0-.106-2.122l2.236-.077.651-.017a1.322,1.322,0,0,1,1.222.544l.563.935.562.936a1.247,1.247,0,0,1-.117,1.3l-.2.321-.007,0-1.826,2.87-1.339,2.1A2.469,2.469,0,0,1,307.457,147.593Z" transform="translate(-291.576 -89.017)" fill="#93bbd1"/>
              <path id="Trazado_670570" data-name="Trazado 670570" d="M354.205,162.677a2.307,2.307,0,0,1-1.072-.212l-33.926-15.152a2.784,2.784,0,0,1-1.161-.959l-1-1.547-2.277-3.5-.223-.351a1.234,1.234,0,0,1-.149-1.3l.539-.924.532-.922a1.153,1.153,0,0,1,1.01-.511l0,.007a.572.572,0,0,1,.2-.013l5.744.35.679.039a2.79,2.79,0,0,1,.5.089c-.782,3.33-.122,7.6,5.774,11.118C338.051,154.076,349.182,160.025,354.205,162.677Z" transform="translate(-290.45 -89.034)" fill="#93bbd1"/>
            </g>
          </g>
          <g id="Grupo_933320" data-name="Grupo 933320" transform="translate(31.648 40.667)">
            <path id="Trazado_670571" data-name="Trazado 670571" d="M314.516,134.941l-1.092.017-1.095.01a1.321,1.321,0,0,1-1.105-.755l-.038-.062,0-.007-2.318-4.084a14.663,14.663,0,0,0,8.353.7l-1.663,3.4a1.4,1.4,0,0,1-.579.647A.9.9,0,0,1,314.516,134.941Z" transform="translate(-302.472 -130.06)" fill="#76a3b7"/>
            <path id="Trazado_670572" data-name="Trazado 670572" d="M309.37,144.56a13.47,13.47,0,0,0-3.031-4.005,23.657,23.657,0,0,0-3.564-2.688l3.516-.122,2.236-.077.651-.017a1.322,1.322,0,0,1,1.222.544l.563.935.562.936a1.247,1.247,0,0,1-.117,1.3l-.2.321-.007,0Z" transform="translate(-302.774 -129.684)" fill="#76a3b7"/>
            <path id="Trazado_670573" data-name="Trazado 670573" d="M317.045,144.807l-2.277-3.5-.223-.351a1.234,1.234,0,0,1-.149-1.3l.539-.924.532-.922a1.153,1.153,0,0,1,1.01-.511l0,.007a.572.572,0,0,1,.2-.013l5.744.35A25.133,25.133,0,0,0,317.045,144.807Z" transform="translate(-302.204 -129.701)" fill="#76a3b7"/>
          </g>
        </g>
        <path id="Trazado_670574" data-name="Trazado 670574" d="M317.665,138.3a3.993,3.993,0,0,1-.279,1.479c-.04.1-.08.194-.128.295a3.623,3.623,0,0,1-.5.8c-.056.07-.112.132-.168.194v.007l-.04.039a2.836,2.836,0,0,1-.224.225,4.339,4.339,0,0,1-2.01,1.053,1.891,1.891,0,0,1-.215.039,4.049,4.049,0,0,1-.749.069,4.32,4.32,0,0,1-4.323-4.2.345.345,0,0,1,.008-.092v-.093a2.283,2.283,0,0,1,.016-.239,3.921,3.921,0,0,1,.151-.759c.016-.062.04-.117.056-.17a4.129,4.129,0,0,1,.99-1.557c.047-.055.1-.1.151-.147.031-.032.071-.062.1-.093.064-.055.12-.1.184-.147.047-.039.1-.069.151-.108a2.5,2.5,0,0,1,.335-.21c.08-.046.16-.085.239-.124.008-.007.016-.015.024-.015a4.283,4.283,0,0,1,1.914-.442,3.763,3.763,0,0,1,.789.078h.008a4.285,4.285,0,0,1,3.334,2.9A4.12,4.12,0,0,1,317.665,138.3Z" transform="translate(-270.816 -89.192)" fill="#c5deef"/>
        <path id="Trazado_670575" data-name="Trazado 670575" d="M317.386,139.761c-.04.1-.08.194-.128.295a4.215,4.215,0,0,1-.5.8c-.056.07-.112.132-.168.194v.007l-.04.039a2.839,2.839,0,0,1-.224.225,4.339,4.339,0,0,1-2.01,1.053,1.9,1.9,0,0,1-.215.039,4.049,4.049,0,0,1-.749.069,4.32,4.32,0,0,1-4.323-4.2v-.092a.352.352,0,0,1,.008-.093,2.283,2.283,0,0,1,.016-.239,3.921,3.921,0,0,1,.151-.759c.016-.062.04-.117.056-.17a4.129,4.129,0,0,1,.99-1.557c.047-.055.1-.1.151-.147.031-.031.071-.062.1-.093.064-.055.12-.1.184-.147.047-.039.1-.069.151-.108a2.5,2.5,0,0,1,.335-.21c.08-.046.16-.085.239-.124.008-.007.016-.015.024-.015a3.974,3.974,0,0,0-.288,1.479,4.265,4.265,0,0,0,4.323,4.2A4.384,4.384,0,0,0,317.386,139.761Z" transform="translate(-270.816 -89.171)" fill="#93bbd1"/>
      </g>
      <g id="Grupo_933327" data-name="Grupo 933327" transform="translate(0 62.724)">
        <path id="Trazado_670576" data-name="Trazado 670576" d="M132.722,291.436H125.9l1.779-95.324.115-6.214.377-19.946h2.27l.287,15.411.393,21.052Z" transform="translate(-92.978 -125.633)" fill="#c5deef"/>
        <path id="Trazado_670577" data-name="Trazado 670577" d="M132.719,291.435h-6.813l1.778-95.321.49-26.158h1.192c-.115,25.715-.436,101.967-.054,110.017C129.77,289.668,132.719,291.435,132.719,291.435Z" transform="translate(-92.977 -125.633)" fill="#93bbd1"/>
        <path id="Trazado_670578" data-name="Trazado 670578" d="M130.641,185.363l-2.934,4.535.377-19.946h2.271Z" transform="translate(-92.888 -125.633)" fill="#76a3b7"/>
        <g id="Grupo_933326" data-name="Grupo 933326">
          <g id="Grupo_933324" data-name="Grupo 933324">
            <path id="Trazado_670579" data-name="Trazado 670579" d="M130.367,166.637l-.933.016-.934.008a1.13,1.13,0,0,1-.945-.644l-.033-.054,0-.006-1.981-3.489-.691-1.219a2.22,2.22,0,0,1-.258-1.237l2.3-30.895a1.46,1.46,0,0,1,.841-1.348.845.845,0,0,1,.219-.041c.006,0,.015,0,.021,0,.565-.011,1.067.57,1.182,1.359l4.623,30.819a2.156,2.156,0,0,1-.169,1.239l-.853,1.754-.077.166-1.421,2.907a1.183,1.183,0,0,1-.494.553A.762.762,0,0,1,130.367,166.637Z" transform="translate(-93.043 -127.727)" fill="#c5deef"/>
            <path id="Trazado_670580" data-name="Trazado 670580" d="M164.584,188.633a1.379,1.379,0,0,1-.357.057,1.975,1.975,0,0,1-.916-.181l-28.98-12.944a2.373,2.373,0,0,1-.992-.82l-.855-1.323-1.945-2.985-.191-.3a1.055,1.055,0,0,1-.127-1.109l.461-.789.456-.787a.985.985,0,0,1,.862-.437l0,.006a.465.465,0,0,1,.167-.011l4.907.3.58.034a2.354,2.354,0,0,1,.424.077,2.416,2.416,0,0,1,.774.381l25.573,18.786c.661.488.937,1.19.663,1.666A.878.878,0,0,1,164.584,188.633Z" transform="translate(-92.769 -125.779)" fill="#c5deef"/>
            <path id="Trazado_670581" data-name="Trazado 670581" d="M94.648,187.717a.645.645,0,0,1-.066-.148,1.406,1.406,0,0,1,.686-1.5l25.1-18.14a2.211,2.211,0,0,1,1.191-.429l.007,0,3-.1,1.909-.065.556-.016a1.132,1.132,0,0,1,1.044.465l.48.8.481.8a1.068,1.068,0,0,1-.1,1.112l-.173.274-.006,0-1.561,2.452-1.144,1.8a2.1,2.1,0,0,1-.964.793l-13.567,5.779-15.1,6.429A1.4,1.4,0,0,1,94.648,187.717Z" transform="translate(-94.533 -125.764)" fill="#c5deef"/>
            <g id="Grupo_933323" data-name="Grupo 933323" transform="translate(16.995 0.001)">
              <path id="Trazado_670582" data-name="Trazado 670582" d="M130.761,166.525a.762.762,0,0,1-.394.111l-.933.016-.934.008a1.13,1.13,0,0,1-.945-.644l-.033-.054,0-.006-1.981-3.489-.691-1.219a2.22,2.22,0,0,1-.258-1.237l2.3-30.895a1.46,1.46,0,0,1,.841-1.348.845.845,0,0,1,.219-.041c-.492,6.9-1.165,23.449,1.622,30.464a11.776,11.776,0,0,0,3.182,4.707l-.077.166-1.421,2.907A1.183,1.183,0,0,1,130.761,166.525Z" transform="translate(-110.038 -127.728)" fill="#93bbd1"/>
              <path id="Trazado_670583" data-name="Trazado 670583" d="M124.292,175.8l-13.567,5.779c6.842-3.712,12.511-7.912,13.086-11.792a4.719,4.719,0,0,0,.049-.587,13.639,13.639,0,0,0-.091-1.813l1.909-.065.556-.016a1.132,1.132,0,0,1,1.044.465l.48.8.481.8a1.068,1.068,0,0,1-.1,1.112l-.173.274-.006,0-1.561,2.452-1.144,1.8A2.1,2.1,0,0,1,124.292,175.8Z" transform="translate(-110.725 -125.765)" fill="#93bbd1"/>
              <path id="Trazado_670584" data-name="Trazado 670584" d="M164.227,188.689a1.975,1.975,0,0,1-.916-.181l-28.98-12.944a2.373,2.373,0,0,1-.992-.82l-.855-1.323-1.945-2.985-.191-.3a1.055,1.055,0,0,1-.127-1.109l.461-.789.456-.787a.985.985,0,0,1,.862-.437l0,.006a.465.465,0,0,1,.167-.011l4.907.3.58.034a2.354,2.354,0,0,1,.424.077c-.669,2.844-.1,6.489,4.932,9.5C150.427,181.341,159.935,186.424,164.227,188.689Z" transform="translate(-109.763 -125.78)" fill="#93bbd1"/>
            </g>
          </g>
          <g id="Grupo_933325" data-name="Grupo 933325" transform="translate(27.036 34.74)">
            <path id="Trazado_670585" data-name="Trazado 670585" d="M130.322,164.995l-.933.016-.934.008a1.13,1.13,0,0,1-.945-.644l-.033-.054,0-.006-1.981-3.489a12.538,12.538,0,0,0,7.136.6l-1.421,2.907a1.183,1.183,0,0,1-.494.553A.762.762,0,0,1,130.322,164.995Z" transform="translate(-120.034 -160.826)" fill="#76a3b7"/>
            <path id="Trazado_670586" data-name="Trazado 670586" d="M125.925,173.213a11.492,11.492,0,0,0-2.588-3.423,20.326,20.326,0,0,0-3.045-2.3l3-.1,1.909-.065.556-.016a1.132,1.132,0,0,1,1.044.465l.48.8.481.8a1.068,1.068,0,0,1-.1,1.112l-.173.274-.006,0Z" transform="translate(-120.292 -160.504)" fill="#76a3b7"/>
            <path id="Trazado_670587" data-name="Trazado 670587" d="M132.483,173.423l-1.945-2.985-.191-.3a1.055,1.055,0,0,1-.127-1.109l.461-.789.456-.787a.985.985,0,0,1,.862-.437l0,.006a.465.465,0,0,1,.167-.011l4.907.3A21.47,21.47,0,0,0,132.483,173.423Z" transform="translate(-119.805 -160.519)" fill="#76a3b7"/>
          </g>
        </g>
        <path id="Trazado_670588" data-name="Trazado 670588" d="M133.013,167.868a3.411,3.411,0,0,1-.239,1.264c-.034.085-.068.165-.108.251a3.152,3.152,0,0,1-.429.681c-.048.06-.1.112-.144.166v.006l-.034.033c-.062.066-.123.132-.191.192a3.718,3.718,0,0,1-1.717.9,1.607,1.607,0,0,1-.184.033,3.428,3.428,0,0,1-.64.06,3.691,3.691,0,0,1-3.694-3.584.346.346,0,0,1,.006-.08v-.079c0-.066.007-.14.014-.206a3.308,3.308,0,0,1,.13-.648c.014-.054.034-.1.047-.146a3.529,3.529,0,0,1,.845-1.33c.041-.046.089-.085.13-.125s.061-.054.088-.08c.055-.046.1-.086.156-.125s.082-.06.13-.093a2.014,2.014,0,0,1,.285-.178c.068-.04.136-.072.2-.106.007-.006.014-.013.021-.013a3.645,3.645,0,0,1,1.635-.378,3.24,3.24,0,0,1,.674.066h.007a3.66,3.66,0,0,1,2.848,2.481A3.5,3.5,0,0,1,133.013,167.868Z" transform="translate(-92.991 -125.914)" fill="#c5deef"/>
        <path id="Trazado_670589" data-name="Trazado 670589" d="M132.773,169.114c-.034.085-.068.165-.108.251a3.657,3.657,0,0,1-.429.681c-.048.06-.1.112-.144.166v.006l-.034.033c-.062.066-.123.132-.191.192a3.718,3.718,0,0,1-1.717.9,1.6,1.6,0,0,1-.184.033,3.43,3.43,0,0,1-.64.06,3.691,3.691,0,0,1-3.694-3.584v-.08a.332.332,0,0,1,.006-.079c0-.066.007-.14.014-.206a3.308,3.308,0,0,1,.13-.648c.014-.054.034-.1.047-.146a3.529,3.529,0,0,1,.845-1.33c.041-.046.089-.085.13-.125s.061-.054.088-.08c.055-.046.1-.086.156-.125s.082-.06.13-.093a2.01,2.01,0,0,1,.285-.178c.068-.04.136-.072.2-.106.007-.006.014-.013.021-.013a3.382,3.382,0,0,0-.246,1.263,3.643,3.643,0,0,0,3.692,3.585A3.759,3.759,0,0,0,132.773,169.114Z" transform="translate(-92.991 -125.896)" fill="#93bbd1"/>
      </g>
      <g id="Grupo_933332" data-name="Grupo 933332" transform="translate(287.102 46.475)">
        <path id="Trazado_670590" data-name="Trazado 670590" d="M412.773,303.884H404.79L406.872,192.3l.134-7.274.441-23.349h2.658l.336,18.041.461,24.644Z" transform="translate(-366.247 -109.795)" fill="#c5deef"/>
        <path id="Trazado_670591" data-name="Trazado 670591" d="M412.769,303.882h-7.976L406.874,192.3l.574-30.621h1.4c-.135,30.1-.51,119.364-.063,128.787C409.316,301.815,412.769,303.882,412.769,303.882Z" transform="translate(-366.247 -109.795)" fill="#93bbd1"/>
        <path id="Trazado_670592" data-name="Trazado 670592" d="M410.336,179.715l-3.435,5.309.441-23.349H410Z" transform="translate(-366.142 -109.795)" fill="#76a3b7"/>
        <g id="Grupo_933331" data-name="Grupo 933331">
          <g id="Grupo_933329" data-name="Grupo 933329">
            <path id="Trazado_670593" data-name="Trazado 670593" d="M410.015,157.794l-1.091.017-1.095.01a1.321,1.321,0,0,1-1.105-.755l-.038-.062,0-.007-2.318-4.084-.81-1.427a2.6,2.6,0,0,1-.3-1.448l2.69-36.165a1.7,1.7,0,0,1,.983-1.576.987.987,0,0,1,.257-.049c.007,0,.018,0,.025,0,.66-.013,1.249.668,1.382,1.591L414,149.915a2.53,2.53,0,0,1-.2,1.451l-1,2.053-.09.193-1.663,3.4a1.394,1.394,0,0,1-.579.647A.891.891,0,0,1,410.015,157.794Z" transform="translate(-366.323 -112.246)" fill="#c5deef"/>
            <path id="Trazado_670594" data-name="Trazado 670594" d="M450.07,183.542a1.6,1.6,0,0,1-.418.067,2.312,2.312,0,0,1-1.073-.212l-33.925-15.152a2.778,2.778,0,0,1-1.161-.959l-1-1.547-2.277-3.5-.224-.35a1.241,1.241,0,0,1-.149-1.3l.541-.924.532-.922a1.153,1.153,0,0,1,1.01-.511l0,.007a.571.571,0,0,1,.2-.013l5.745.35.679.039a2.79,2.79,0,0,1,.5.089,2.849,2.849,0,0,1,.906.447l29.936,21.99c.775.571,1.1,1.393.778,1.949A1.031,1.031,0,0,1,450.07,183.542Z" transform="translate(-366.002 -109.966)" fill="#c5deef"/>
            <path id="Trazado_670595" data-name="Trazado 670595" d="M368.2,182.472a.783.783,0,0,1-.078-.174,1.643,1.643,0,0,1,.8-1.759L398.314,159.3a2.585,2.585,0,0,1,1.395-.5l.007,0,3.516-.122,2.235-.077.651-.017a1.323,1.323,0,0,1,1.223.544l.561.935.563.936a1.249,1.249,0,0,1-.116,1.3l-.2.321-.007,0-1.826,2.87-1.338,2.1a2.47,2.47,0,0,1-1.128.93l-15.883,6.765-17.675,7.526A1.64,1.64,0,0,1,368.2,182.472Z" transform="translate(-368.068 -109.948)" fill="#c5deef"/>
            <g id="Grupo_933328" data-name="Grupo 933328" transform="translate(19.894 0.001)">
              <path id="Trazado_670596" data-name="Trazado 670596" d="M410.477,157.663a.891.891,0,0,1-.462.131l-1.091.017-1.095.01a1.321,1.321,0,0,1-1.105-.755l-.038-.062,0-.007-2.318-4.084-.81-1.427a2.6,2.6,0,0,1-.3-1.448l2.69-36.165a1.7,1.7,0,0,1,.983-1.577.989.989,0,0,1,.257-.049c-.576,8.08-1.364,27.45,1.9,35.661a13.785,13.785,0,0,0,3.726,5.51l-.09.193-1.663,3.4A1.394,1.394,0,0,1,410.477,157.663Z" transform="translate(-386.217 -112.247)" fill="#93bbd1"/>
              <path id="Trazado_670597" data-name="Trazado 670597" d="M402.9,168.525l-15.883,6.765c8.01-4.346,14.646-9.262,15.319-13.8a5.4,5.4,0,0,0,.058-.687,16.158,16.158,0,0,0-.106-2.122l2.235-.077.651-.017a1.323,1.323,0,0,1,1.223.544l.561.935.563.936a1.249,1.249,0,0,1-.116,1.3l-.2.321-.007,0-1.826,2.87-1.338,2.1A2.469,2.469,0,0,1,402.9,168.525Z" transform="translate(-387.022 -109.949)" fill="#93bbd1"/>
              <path id="Trazado_670598" data-name="Trazado 670598" d="M449.652,183.609a2.312,2.312,0,0,1-1.073-.212l-33.925-15.152a2.778,2.778,0,0,1-1.161-.959l-1-1.547-2.277-3.5-.224-.35a1.241,1.241,0,0,1-.149-1.3l.541-.924.532-.922a1.153,1.153,0,0,1,1.01-.511l0,.007a.571.571,0,0,1,.2-.013l5.745.35.679.039a2.79,2.79,0,0,1,.5.089c-.783,3.33-.122,7.6,5.773,11.118C433.5,175.008,444.629,180.957,449.652,183.609Z" transform="translate(-385.896 -109.966)" fill="#93bbd1"/>
            </g>
          </g>
          <g id="Grupo_933330" data-name="Grupo 933330" transform="translate(31.648 40.667)">
            <path id="Trazado_670599" data-name="Trazado 670599" d="M409.962,155.873l-1.091.017-1.095.01a1.321,1.321,0,0,1-1.105-.755l-.038-.062,0-.007-2.318-4.084a14.663,14.663,0,0,0,8.353.7l-1.663,3.4a1.4,1.4,0,0,1-.579.647A.891.891,0,0,1,409.962,155.873Z" transform="translate(-397.919 -150.992)" fill="#76a3b7"/>
            <path id="Trazado_670600" data-name="Trazado 670600" d="M404.816,165.492a13.448,13.448,0,0,0-3.03-4.005,23.713,23.713,0,0,0-3.564-2.688l3.516-.122,2.235-.077.651-.017a1.323,1.323,0,0,1,1.223.544l.561.935.563.936a1.249,1.249,0,0,1-.117,1.3l-.2.321-.007,0Z" transform="translate(-398.221 -150.616)" fill="#76a3b7"/>
            <path id="Trazado_670601" data-name="Trazado 670601" d="M412.492,165.739l-2.277-3.5-.224-.35a1.241,1.241,0,0,1-.149-1.3l.541-.924.532-.922a1.153,1.153,0,0,1,1.01-.511l0,.007a.571.571,0,0,1,.2-.013l5.745.35A25.112,25.112,0,0,0,412.492,165.739Z" transform="translate(-397.651 -150.633)" fill="#76a3b7"/>
          </g>
        </g>
        <path id="Trazado_670602" data-name="Trazado 670602" d="M413.112,159.235a3.991,3.991,0,0,1-.279,1.479c-.04.1-.08.194-.128.295a3.647,3.647,0,0,1-.5.8c-.056.07-.111.132-.167.194v.007l-.04.039a2.839,2.839,0,0,1-.224.225,4.34,4.34,0,0,1-2.01,1.053,1.934,1.934,0,0,1-.215.039,4.054,4.054,0,0,1-.749.069,4.246,4.246,0,0,1-1.468-.255,4.2,4.2,0,0,1-2.855-3.941.392.392,0,0,1,.007-.092v-.093a2.31,2.31,0,0,1,.017-.239,3.854,3.854,0,0,1,.151-.759c.016-.062.04-.116.056-.17a4.125,4.125,0,0,1,.989-1.557c.048-.055.1-.1.152-.147.031-.031.071-.062.1-.093.063-.054.12-.1.183-.147s.1-.069.152-.108a2.4,2.4,0,0,1,.335-.21c.08-.046.159-.085.239-.123.008-.008.016-.016.024-.016a4.283,4.283,0,0,1,1.915-.442,3.764,3.764,0,0,1,.789.078h.007a4.285,4.285,0,0,1,3.335,2.9A4.123,4.123,0,0,1,413.112,159.235Z" transform="translate(-366.262 -110.124)" fill="#c5deef"/>
        <path id="Trazado_670603" data-name="Trazado 670603" d="M412.833,160.693c-.04.1-.08.194-.128.295a4.214,4.214,0,0,1-.5.8c-.056.07-.111.132-.167.194v.007l-.04.039a2.844,2.844,0,0,1-.224.225,4.339,4.339,0,0,1-2.01,1.053,1.934,1.934,0,0,1-.215.039,4.053,4.053,0,0,1-.749.069,4.245,4.245,0,0,1-1.468-.255,4.2,4.2,0,0,1-2.855-3.941v-.092a.4.4,0,0,1,.007-.093,2.31,2.31,0,0,1,.017-.239,3.853,3.853,0,0,1,.151-.759c.016-.062.04-.117.056-.17a4.125,4.125,0,0,1,.989-1.557c.048-.055.1-.1.152-.147.031-.032.071-.062.1-.093.063-.054.12-.1.183-.147s.1-.069.152-.108a2.4,2.4,0,0,1,.335-.21c.08-.046.159-.085.239-.123.008-.008.016-.016.024-.016a3.969,3.969,0,0,0-.288,1.479,4.265,4.265,0,0,0,4.323,4.2A4.382,4.382,0,0,0,412.833,160.693Z" transform="translate(-366.262 -110.103)" fill="#93bbd1"/>
      </g>
      <g id="Grupo_933337" data-name="Grupo 933337" transform="translate(73.597)">
        <path id="Trazado_670604" data-name="Trazado 670604" d="M215.339,285.246h-9.051l2.361-126.517.152-8.247.5-26.473h3.014l.381,20.454.522,27.941Z" transform="translate(-162.588 -65.188)" fill="#c5deef"/>
        <path id="Trazado_670605" data-name="Trazado 670605" d="M215.335,285.244h-9.043l2.359-126.512.652-34.719h1.583c-.154,34.13-.579,135.334-.072,146.018C211.419,282.9,215.335,285.244,215.335,285.244Z" transform="translate(-162.588 -65.188)" fill="#93bbd1"/>
        <path id="Trazado_670606" data-name="Trazado 670606" d="M212.577,144.463l-3.895,6.019.5-26.473H212.2Z" transform="translate(-162.469 -65.188)" fill="#76a3b7"/>
        <g id="Grupo_933336" data-name="Grupo 933336">
          <g id="Grupo_933334" data-name="Grupo 933334">
            <path id="Trazado_670607" data-name="Trazado 670607" d="M212.213,119.609l-1.237.02-1.241.012a1.5,1.5,0,0,1-1.253-.855l-.043-.07,0-.008-2.628-4.631-.917-1.617a2.939,2.939,0,0,1-.342-1.643l3.049-41a1.933,1.933,0,0,1,1.116-1.789,1.114,1.114,0,0,1,.292-.056c.008,0,.02,0,.028,0,.749-.014,1.416.757,1.567,1.8l6.137,40.9a2.872,2.872,0,0,1-.224,1.645l-1.134,2.327-.1.22-1.885,3.859a1.577,1.577,0,0,1-.657.734A1.017,1.017,0,0,1,212.213,119.609Z" transform="translate(-162.675 -67.968)" fill="#c5deef"/>
            <path id="Trazado_670608" data-name="Trazado 670608" d="M257.626,148.8a1.823,1.823,0,0,1-.473.077,2.628,2.628,0,0,1-1.215-.24l-38.465-17.18a3.146,3.146,0,0,1-1.316-1.087l-1.136-1.755-2.581-3.962-.253-.4a1.4,1.4,0,0,1-.169-1.473l.612-1.047.6-1.044a1.309,1.309,0,0,1,1.144-.58l0,.009a.619.619,0,0,1,.221-.015l6.513.4.77.045a3.183,3.183,0,0,1,.564.1,3.22,3.22,0,0,1,1.026.507l33.941,24.932c.879.648,1.244,1.58.881,2.21A1.161,1.161,0,0,1,257.626,148.8Z" transform="translate(-162.311 -65.382)" fill="#c5deef"/>
            <path id="Trazado_670609" data-name="Trazado 670609" d="M164.806,147.589a.9.9,0,0,1-.088-.2,1.863,1.863,0,0,1,.911-1.994l33.317-24.077a2.922,2.922,0,0,1,1.581-.57l.008,0,3.987-.137,2.534-.086.738-.02a1.5,1.5,0,0,1,1.385.616l.637,1.061.637,1.061a1.413,1.413,0,0,1-.131,1.475l-.231.363-.008,0-2.071,3.254-1.518,2.385a2.794,2.794,0,0,1-1.279,1.054l-18.007,7.669-20.041,8.533A1.858,1.858,0,0,1,164.806,147.589Z" transform="translate(-164.653 -65.362)" fill="#c5deef"/>
            <g id="Grupo_933333" data-name="Grupo 933333" transform="translate(22.556 0.001)">
              <path id="Trazado_670610" data-name="Trazado 670610" d="M212.735,119.461a1.017,1.017,0,0,1-.523.148l-1.237.02-1.241.012a1.5,1.5,0,0,1-1.253-.855l-.043-.07,0-.008-2.628-4.631-.917-1.617a2.939,2.939,0,0,1-.342-1.643l3.049-41a1.933,1.933,0,0,1,1.116-1.788,1.113,1.113,0,0,1,.292-.056c-.654,9.161-1.547,31.124,2.152,40.433a15.634,15.634,0,0,0,4.224,6.247l-.1.22-1.885,3.859A1.577,1.577,0,0,1,212.735,119.461Z" transform="translate(-185.231 -67.968)" fill="#93bbd1"/>
              <path id="Trazado_670611" data-name="Trazado 670611" d="M204.15,131.776l-18.007,7.669c9.081-4.927,16.606-10.5,17.369-15.65a6.067,6.067,0,0,0,.065-.78,18.274,18.274,0,0,0-.12-2.406l2.534-.086.738-.02a1.5,1.5,0,0,1,1.385.616l.637,1.061.637,1.061a1.413,1.413,0,0,1-.131,1.475l-.231.363-.008,0-2.071,3.254-1.518,2.385A2.794,2.794,0,0,1,204.15,131.776Z" transform="translate(-186.143 -65.362)" fill="#93bbd1"/>
              <path id="Trazado_670612" data-name="Trazado 670612" d="M257.152,148.879a2.628,2.628,0,0,1-1.215-.24l-38.465-17.18a3.146,3.146,0,0,1-1.316-1.087l-1.136-1.755-2.581-3.962-.253-.4a1.4,1.4,0,0,1-.169-1.473l.612-1.047.6-1.044a1.309,1.309,0,0,1,1.144-.58l0,.009a.619.619,0,0,1,.221-.015l6.513.4.77.045a3.183,3.183,0,0,1,.564.1c-.888,3.776-.14,8.613,6.545,12.607C238.836,139.126,251.456,145.872,257.152,148.879Z" transform="translate(-184.867 -65.382)" fill="#93bbd1"/>
            </g>
          </g>
          <g id="Grupo_933335" data-name="Grupo 933335" transform="translate(35.883 46.108)">
            <path id="Trazado_670613" data-name="Trazado 670613" d="M212.153,117.43l-1.238.02-1.241.012a1.5,1.5,0,0,1-1.253-.855l-.043-.07,0-.008-2.628-4.631a16.629,16.629,0,0,0,9.471.792l-1.885,3.859a1.577,1.577,0,0,1-.657.734A1.017,1.017,0,0,1,212.153,117.43Z" transform="translate(-198.497 -111.897)" fill="#76a3b7"/>
            <path id="Trazado_670614" data-name="Trazado 670614" d="M206.317,128.337a15.227,15.227,0,0,0-3.435-4.542,26.856,26.856,0,0,0-4.042-3.048l3.987-.137,2.534-.086.738-.02a1.5,1.5,0,0,1,1.385.616l.637,1.061.637,1.061a1.413,1.413,0,0,1-.131,1.475l-.231.363-.008,0Z" transform="translate(-198.84 -111.47)" fill="#76a3b7"/>
            <path id="Trazado_670615" data-name="Trazado 670615" d="M215.021,128.616l-2.581-3.962-.253-.4a1.4,1.4,0,0,1-.169-1.473l.612-1.047.6-1.044a1.309,1.309,0,0,1,1.144-.58l0,.009a.619.619,0,0,1,.221-.015l6.513.4A28.518,28.518,0,0,0,215.021,128.616Z" transform="translate(-198.193 -111.49)" fill="#76a3b7"/>
          </g>
        </g>
        <path id="Trazado_670616" data-name="Trazado 670616" d="M215.724,121.244a4.515,4.515,0,0,1-.317,1.676c-.045.114-.09.219-.144.334a4.166,4.166,0,0,1-.57.9c-.064.079-.127.149-.19.219v.008l-.045.044a3.228,3.228,0,0,1-.254.254,4.927,4.927,0,0,1-2.279,1.194c-.081.018-.163.035-.243.044a4.6,4.6,0,0,1-.85.079,4.9,4.9,0,0,1-4.9-4.758.438.438,0,0,1,.008-.1v-.106a2.649,2.649,0,0,1,.019-.272,4.4,4.4,0,0,1,.171-.861c.018-.07.045-.131.064-.193a4.684,4.684,0,0,1,1.121-1.764c.055-.061.118-.113.172-.167.036-.035.081-.069.118-.1.072-.062.135-.114.208-.167.055-.044.108-.079.172-.123a2.819,2.819,0,0,1,.379-.237c.091-.052.182-.1.272-.141.009-.008.018-.017.027-.017a4.849,4.849,0,0,1,2.171-.5,4.269,4.269,0,0,1,.9.088h.008a4.858,4.858,0,0,1,3.781,3.292A4.676,4.676,0,0,1,215.724,121.244Z" transform="translate(-162.606 -65.561)" fill="#c5deef"/>
        <path id="Trazado_670617" data-name="Trazado 670617" d="M215.407,122.9c-.045.114-.09.219-.144.334a4.849,4.849,0,0,1-.57.9c-.064.079-.127.149-.19.219v.008l-.045.044a3.225,3.225,0,0,1-.254.254,4.927,4.927,0,0,1-2.279,1.194,2.471,2.471,0,0,1-.243.044,4.6,4.6,0,0,1-.85.079,4.9,4.9,0,0,1-4.9-4.758v-.1a.451.451,0,0,1,.008-.106,2.649,2.649,0,0,1,.019-.272,4.4,4.4,0,0,1,.171-.861c.018-.07.045-.131.064-.193a4.684,4.684,0,0,1,1.121-1.764c.055-.061.118-.113.172-.167.036-.035.081-.069.118-.1.072-.062.135-.114.208-.167.055-.044.108-.079.172-.123a2.821,2.821,0,0,1,.379-.237c.091-.052.182-.1.272-.141.009-.008.018-.017.027-.017a4.51,4.51,0,0,0-.325,1.676,4.834,4.834,0,0,0,4.9,4.758A4.977,4.977,0,0,0,215.407,122.9Z" transform="translate(-162.606 -65.537)" fill="#93bbd1"/>
      </g>
    </g>
    <g id="Grupo_933339" data-name="Grupo 933339" transform="translate(47.481 274.343)">
      <path id="Trazado_670618" data-name="Trazado 670618" d="M121.78,307.474s-1.551-5.772,3.256-6.44,15.431,2.682,10.372-2.81-15.4-9.158-10.736-13.357,11.38,5.65,12.07,1.71-1.334-11.826,2.713-11.453,5.313,14.162,7.843,9.976-5.059-12.955,0-14.357,5.313,2.291,4.807,8.447,2.277,7.035,4.807,2.533,10.625-15.1,15.178-11.277-1.012,7.362-5.312,12.486-5.313,13.3-.506,9.583,10.625-6.878,11.384-4.684-6.578,6.73-3.541,6.924,12.4-.149,8.854,3.47-4.807,5.589-1.012,4.6,7.084,1.969,5.818,3.2l-1.265,1.231Z" transform="translate(-43.299 -264.27)" fill="#567f21"/>
      <path id="Trazado_670619" data-name="Trazado 670619" d="M86.6,307.728s-1.723-6.589,3.618-7.352,17.148,3.061,11.526-3.209-17.114-10.454-11.93-15.249,12.646,6.45,13.412,1.952-1.482-13.5,3.017-13.076,5.9,16.168,8.714,11.389-5.622-14.791,0-16.392,5.9,2.617,5.341,9.645,2.531,8.032,5.341,2.892,11.807-17.234,16.867-12.874-1.125,8.4-5.9,14.254-5.9,15.189-.562,10.94,11.806-7.852,12.65-5.347-7.309,7.683-3.936,7.906,13.775-.171,9.839,3.96-5.34,6.382-1.124,5.256,7.871,2.249,6.465,3.655l-1.405,1.405Z" transform="translate(-45.045 -264.523)" fill="#80b54d"/>
      <path id="Trazado_670620" data-name="Trazado 670620" d="M47.2,307.274s-1.341-5.126,2.814-5.72,13.342,2.382,8.968-2.5-13.315-8.134-9.282-11.865,9.838,5.018,10.435,1.519-1.154-10.5,2.346-10.174,4.593,12.579,6.78,8.862-4.375-11.508,0-12.753,4.593,2.035,4.155,7.5,1.969,6.248,4.156,2.249,9.186-13.409,13.123-10.016-.875,6.539-4.594,11.09-4.592,11.816-.437,8.511,9.186-6.109,9.842-4.161-5.687,5.979-3.062,6.152,10.716-.133,7.655,3.082-4.155,4.965-.874,4.089,6.123,1.75,5.03,2.843l-1.094,1.094Z" transform="translate(-46.996 -264.07)" fill="#567f21"/>
      <path id="Trazado_670621" data-name="Trazado 670621" d="M69.3,307.073s-1.17-4.474,2.457-4.993,11.645,2.078,7.828-2.179-11.623-7.1-8.1-10.356,8.588,4.381,9.109,1.326-1.007-9.169,2.048-8.88,4.009,10.98,5.919,7.734-3.818-10.045,0-11.132,4.008,1.777,3.627,6.551,1.717,5.454,3.626,1.963,8.019-11.7,11.455-8.743-.764,5.709-4.009,9.68-4.009,10.314-.382,7.43,8.019-5.333,8.591-3.632-4.964,5.219-2.672,5.369,9.355-.115,6.682,2.69-3.627,4.334-.763,3.57,5.346,1.527,4.39,2.482l-.954.954Z" transform="translate(-45.899 -263.868)" fill="#abdd7f"/>
      <path id="Trazado_670622" data-name="Trazado 670622" d="M133.1,306.656s-.819-3.13,1.718-3.492,8.146,1.454,5.475-1.524-8.129-4.967-5.667-7.244,6.007,3.064,6.371.928-.7-6.413,1.433-6.211,2.8,7.68,4.14,5.411-2.671-7.026,0-7.787,2.8,1.243,2.537,4.581,1.2,3.815,2.537,1.374,5.609-8.187,8.013-6.116-.534,3.993-2.8,6.771-2.8,7.215-.267,5.2,5.608-3.729,6.009-2.54-3.472,3.651-1.87,3.755,6.543-.081,4.674,1.882-2.537,3.031-.534,2.5,3.74,1.068,3.072,1.736l-.669.668Z" transform="translate(-42.732 -263.452)" fill="#abdd7f"/>
    </g>
    <g id="Grupo_933341" data-name="Grupo 933341" transform="translate(178.798 202.882)">
      <rect id="Rectángulo_329191" data-name="Rectángulo 329191" width="68.696" height="101.517" rx="3" transform="translate(0 14.301)" fill="#304654"/>
      <g id="Grupo_933340" data-name="Grupo 933340" transform="translate(3.747 17.187)">
        <path id="Trazado_670623" data-name="Trazado 670623" d="M236.88,215.964v89.447a3.151,3.151,0,0,1-3.149,3.149h-54.9a3.151,3.151,0,0,1-3.149-3.149V215.964a3.151,3.151,0,0,1,3.149-3.149h54.9A3.151,3.151,0,0,1,236.88,215.964Z" transform="translate(-175.678 -212.815)" fill="#50cb45"/>
      </g>
      <path id="Trazado_670624" data-name="Trazado 670624" d="M235.074,208.221v2.036H177.608v-2.036a2.027,2.027,0,0,1,2.026-2.026h53.414A2.027,2.027,0,0,1,235.074,208.221Z" transform="translate(-171.835 -195.956)" fill="#304654"/>
      <path id="Rectángulo_329192" data-name="Rectángulo 329192" d="M4,0H25a4,4,0,0,1,4,4v6.239a0,0,0,0,1,0,0H0a0,0,0,0,1,0,0V4A4,4,0,0,1,4,0Z" transform="translate(20.861)" fill="#5f879b"/>
      <path id="Trazado_670625" data-name="Trazado 670625" d="M234.962,215.964v89.447a3.151,3.151,0,0,1-3.149,3.149H214.358V212.815h17.455A3.151,3.151,0,0,1,234.962,215.964Z" transform="translate(-170.013 -195.628)" fill="#39b932"/>
      <path id="Trazado_670626" data-name="Trazado 670626" d="M185.46,212.815v95.744h-6.633a3.151,3.151,0,0,1-3.149-3.149V215.964a3.151,3.151,0,0,1,3.149-3.149Z" transform="translate(-171.931 -195.628)" fill="#72f050"/>
      <path id="Trazado_670627" data-name="Trazado 670627" d="M199.345,238.015h13.987l-10.272,18.2h20.292l-27.115,32.024,6.822-21.971H186.441Z" transform="translate(-171.397 -194.378)" fill="#ffe85c"/>
    </g>
    <g id="Grupo_933346" data-name="Grupo 933346" transform="translate(102.363 219.757)">
      <path id="Trazado_670628" data-name="Trazado 670628" d="M140.043,283.427l-7.17,14.185a15.486,15.486,0,0,1-20.806,6.836l-2.1-1.064a15.486,15.486,0,0,1-6.836-20.806l7.17-14.186Z" transform="translate(-99.177 -209.746)" fill="#304654"/>
      <g id="Grupo_933343" data-name="Grupo 933343" transform="translate(10.034)">
        <g id="Grupo_933342" data-name="Grupo 933342">
          <path id="Trazado_670629" data-name="Trazado 670629" d="M114.236,229.3c-4.7,9.306-5.562,20.805-5.367,29.4a90.554,90.554,0,0,0,1.1,12.484L139.679,286.2a94.522,94.522,0,0,0,16.6-11.011c5.529-4.583,11.148-10.445,14.594-17.262a29.7,29.7,0,0,0,1.292-24.745,33.057,33.057,0,0,0-15.641-17.155l-.038-.019C142.557,208.992,122.916,212.127,114.236,229.3Z" transform="translate(-108.844 -212.517)" fill="#ffdf57"/>
        </g>
      </g>
      <path id="Trazado_670630" data-name="Trazado 670630" d="M121.239,228.9c-2.037-2.52-5.248.746-2.638,3.5S123.563,231.771,121.239,228.9Z" transform="translate(-98.375 -211.749)" fill="#fff"/>
      <path id="Trazado_670631" data-name="Trazado 670631" d="M129.383,237.142a10.95,10.95,0,0,0,.965,7.223,11.58,11.58,0,0,0,2.171,2.991,27.552,27.552,0,0,0,2.322,2.107L121.3,276.251l1.258.636,13.4-26.509a12.193,12.193,0,0,0,1.875,1.239c.081.04.156.079.22.1s.134.073.215.114a12.023,12.023,0,0,0,2.109.775l-13.4,26.51,1.258.636,13.54-26.788a15.935,15.935,0,0,0,6.768.593c.066-.014.138-.025.2-.039a10.913,10.913,0,0,0,6.183-3.468,6.529,6.529,0,0,0,1.728-4.805,6.075,6.075,0,0,0-2.407-4.2c-1.945-1.571-3.776-2.168-5.426-1.709-1.724.48-2.88,1.963-5.082,6.495-.233.478-2.637,5.332-2.637,5.332a9.414,9.414,0,0,1-2.3-.844l0-.005a.137.137,0,0,0-.036-.012.145.145,0,0,0-.03-.022l0,.005a9.457,9.457,0,0,1-2.048-1.356s2.5-4.807,2.731-5.284c1.689-3.461,3.035-5.92,2.215-7.944-.642-1.587-2.176-2.722-4.594-3.356a6.075,6.075,0,0,0-4.812.555A6.528,6.528,0,0,0,129.383,237.142Zm17.345,6.028a4.522,4.522,0,0,1,2.508-2.3c1.142-.3,2.494.18,4.017,1.406a4.545,4.545,0,0,1,1.82,3.111,4.884,4.884,0,0,1-1.343,3.622,9.29,9.29,0,0,1-5.461,2.978,9.741,9.741,0,0,1-2.355.11,20.029,20.029,0,0,1-3.4-.591Zm-13.674-8.907a4.541,4.541,0,0,1,3.584-.38c1.891.5,3.076,1.306,3.515,2.4a4.522,4.522,0,0,1-.361,3.381L135.576,248c-.578-.488-1.141-.974-1.657-1.49a10.58,10.58,0,0,1-2.143-2.859,9.291,9.291,0,0,1-.841-6.163A4.88,4.88,0,0,1,133.053,234.262Z" transform="translate(-98.193 -211.546)" fill="#fff"/>
      <g id="Grupo_933344" data-name="Grupo 933344" transform="translate(0 58.371)">
        <path id="Trazado_670632" data-name="Trazado 670632" d="M107.592,269.258a2.054,2.054,0,0,0,.91,2.759l28.69,14.5a2.054,2.054,0,0,0,1.854-3.666l-28.69-14.5A2.059,2.059,0,0,0,107.592,269.258Z" transform="translate(-98.883 -268.13)" fill="#7099b2"/>
        <path id="Trazado_670633" data-name="Trazado 670633" d="M104.913,274.558l-.017.034a2.053,2.053,0,0,0-.115,1.568,2.032,2.032,0,0,0,1.023,1.2l28.691,14.5a2.06,2.06,0,0,0,2.764-.908l.017-.034a2.065,2.065,0,0,0,.1-1.536,2.033,2.033,0,0,0-1.023-1.194l-28.691-14.5A2.058,2.058,0,0,0,104.913,274.558Z" transform="translate(-99.017 -267.865)" fill="#7099b2"/>
        <path id="Trazado_670634" data-name="Trazado 670634" d="M102.2,279.923a.454.454,0,0,0-.03.074,2.024,2.024,0,0,0-.085,1.5,2.052,2.052,0,0,0,1.023,1.194l28.69,14.5a2.052,2.052,0,0,0,2.724-.839.379.379,0,0,0,.04-.069,2.053,2.053,0,0,0-.91-2.758l-28.69-14.5A2.055,2.055,0,0,0,102.2,279.923Z" transform="translate(-99.151 -267.6)" fill="#7099b2"/>
        <path id="Trazado_670635" data-name="Trazado 670635" d="M99.5,285.26a2.056,2.056,0,0,0,.91,2.759l28.69,14.5a2.055,2.055,0,0,0,1.854-3.667l-28.69-14.5A2.06,2.06,0,0,0,99.5,285.26Z" transform="translate(-99.284 -267.336)" fill="#7099b2"/>
      </g>
      <g id="Grupo_933345" data-name="Grupo 933345" transform="translate(0 59.5)">
        <path id="Trazado_670636" data-name="Trazado 670636" d="M107.592,269.2a2.054,2.054,0,0,0,.91,2.759l28.69,14.5a2.055,2.055,0,0,0,2.761-.9Z" transform="translate(-98.883 -269.205)" fill="#5f879b"/>
        <path id="Trazado_670637" data-name="Trazado 670637" d="M104.913,274.506l-.017.034a2.053,2.053,0,0,0-.115,1.568,2.032,2.032,0,0,0,1.023,1.2L134.5,291.8a2.06,2.06,0,0,0,2.764-.908l.017-.034Z" transform="translate(-99.017 -268.942)" fill="#5f879b"/>
        <path id="Trazado_670638" data-name="Trazado 670638" d="M102.171,279.94a2.024,2.024,0,0,0-.085,1.5,2.053,2.053,0,0,0,1.023,1.194l28.69,14.5a2.052,2.052,0,0,0,2.724-.839Z" transform="translate(-99.151 -268.673)" fill="#5f879b"/>
        <path id="Trazado_670639" data-name="Trazado 670639" d="M99.5,285.207a2.056,2.056,0,0,0,.91,2.759l28.69,14.5a2.055,2.055,0,0,0,2.762-.9Z" transform="translate(-99.284 -268.411)" fill="#5f879b"/>
      </g>
      <path id="Trazado_670640" data-name="Trazado 670640" d="M127,220.909c-7.813,6.045-3.1,11.907,3.98,7.373,5.635-3.61,11.751-4.29,16.812-4.3a4.016,4.016,0,0,0,3.947-4.72C151.287,215.659,137.707,212.629,127,220.909Z" transform="translate(-98.11 -212.363)" fill="#fff"/>
      <path id="Trazado_670641" data-name="Trazado 670641" d="M108.868,256.517A90.557,90.557,0,0,0,109.97,269l29.708,15.014A94.526,94.526,0,0,0,156.273,273c-5.482,2.914-14.48,5.321-26.483.561C118.41,269.049,112.182,262.005,108.868,256.517Z" transform="translate(-98.809 -210.335)" fill="#ff8e31" opacity="0.31"/>
      <path id="Trazado_670642" data-name="Trazado 670642" d="M171.586,232.32c-.332-.843-.7-1.667-1.106-2.475-4.311,8.9-22.78,43.538-50.059,46.05l18.684,9.443a94.52,94.52,0,0,0,16.6-11.011c5.529-4.583,11.148-10.445,14.594-17.262A29.7,29.7,0,0,0,171.586,232.32Z" transform="translate(-98.236 -211.657)" fill="#f2a744" opacity="0.31"/>
    </g>
    <g id="Grupo_933351" data-name="Grupo 933351" transform="translate(358.166 266.918)">
      <path id="Trazado_670643" data-name="Trazado 670643" d="M364.192,290.314v13.058H438.61V279.2h2.947v27.53h-80.9V290.314Z" transform="translate(-342.124 -256.371)" fill="#46647a"/>
      <path id="Trazado_670644" data-name="Trazado 670644" d="M343,298.986h90.468l16-41.537H359.71Z" transform="translate(-343 -257.449)" fill="#eaeaea"/>
      <path id="Trazado_670645" data-name="Trazado 670645" d="M427.943,302.381h1.749l.017-.035,15.547-40.132v-4.752l-16.037,41.572Z" transform="translate(-338.787 -257.449)" fill="#64819b"/>
      <path id="Trazado_670646" data-name="Trazado 670646" d="M343,297.02v3.4h90.922v-.035l-.49-3.313v-.052Z" transform="translate(-343 -255.487)" fill="#7da9c9"/>
      <g id="Grupo_933347" data-name="Grupo 933347" transform="translate(18.531 1.636)">
        <path id="Trazado_670647" data-name="Trazado 670647" d="M396.737,271.682l-4.542,11.674h-12.72l4.585-11.674Z" transform="translate(-359.722 -258.379)" fill="#40b4e2"/>
        <path id="Trazado_670648" data-name="Trazado 670648" d="M411.027,270.807H398.356l4.515-11.494,12.667-.1Z" transform="translate(-358.785 -258.998)" fill="#40b4e2"/>
        <path id="Trazado_670649" data-name="Trazado 670649" d="M401.539,259.323,397.073,270.8H384.4l4.47-11.381Z" transform="translate(-359.477 -258.992)" fill="#40b4e2"/>
        <path id="Trazado_670650" data-name="Trazado 670650" d="M424.087,270.812H412.31l4.559-11.607,11.77-.091Z" transform="translate(-358.093 -259.003)" fill="#40b4e2"/>
        <path id="Trazado_670651" data-name="Trazado 670651" d="M393.428,283.356l4.586-11.674h12.677l-4.542,11.674Z" transform="translate(-359.03 -258.379)" fill="#40b4e2"/>
        <path id="Trazado_670652" data-name="Trazado 670652" d="M433.175,283.356H420.484l4.585-11.674h12.579Z" transform="translate(-357.688 -258.379)" fill="#40b4e2"/>
        <path id="Trazado_670653" data-name="Trazado 670653" d="M383.123,270.8H370.375l4.365-11.267,12.805-.1Z" transform="translate(-360.173 -258.987)" fill="#40b4e2"/>
        <path id="Trazado_670654" data-name="Trazado 670654" d="M388.5,295.9l4.585-11.674h12.726L401.27,295.9Z" transform="translate(-359.274 -257.757)" fill="#40b4e2"/>
        <path id="Trazado_670655" data-name="Trazado 670655" d="M423.75,271.682l-4.542,11.674H407.382l4.585-11.674Z" transform="translate(-358.337 -258.379)" fill="#40b4e2"/>
        <path id="Trazado_670656" data-name="Trazado 670656" d="M374.547,295.9l4.585-11.674h12.726L387.316,295.9Z" transform="translate(-359.966 -257.757)" fill="#40b4e2"/>
        <path id="Trazado_670657" data-name="Trazado 670657" d="M402.454,295.9l4.585-11.674h11.832L414.329,295.9Z" transform="translate(-358.582 -257.757)" fill="#40b4e2"/>
        <path id="Trazado_670658" data-name="Trazado 670658" d="M425.412,270.817l4.6-11.713,12.49-.1-4.526,11.81Z" transform="translate(-357.443 -259.008)" fill="#40b4e2"/>
        <path id="Trazado_670659" data-name="Trazado 670659" d="M382.783,271.682l-4.542,11.674H365.515l4.523-11.674Z" transform="translate(-360.414 -258.379)" fill="#40b4e2"/>
        <path id="Trazado_670660" data-name="Trazado 670660" d="M415.557,295.9l4.585-11.674h12.7L428.373,295.9Z" transform="translate(-357.932 -257.757)" fill="#40b4e2"/>
        <path id="Trazado_670661" data-name="Trazado 670661" d="M365.178,284.227H377.9L373.359,295.9h-12.7Z" transform="translate(-360.655 -257.757)" fill="#40b4e2"/>
      </g>
      <g id="Grupo_933350" data-name="Grupo 933350" transform="translate(3.71 1.636)">
        <g id="Grupo_933348" data-name="Grupo 933348">
          <path id="Trazado_670662" data-name="Trazado 670662" d="M379.473,283.35h12.713l4.55-11.663h-12.68l-2.94,7.477Z" transform="translate(-344.9 -258.379)" fill="#319cbc"/>
          <path id="Trazado_670663" data-name="Trazado 670663" d="M398.362,270.807h12.664l.033-.1.936-2.395,3.548-9.105-12.681.1-.246.619-.8,2.069-2.727,6.972-.657,1.694Z" transform="translate(-343.964 -258.998)" fill="#319cbc"/>
          <path id="Trazado_670664" data-name="Trazado 670664" d="M384.4,270.8h12.664l.608-1.58.657-1.678,2.694-6.923.509-1.3-1.856.016-9.609.065-1.2.016-.312.8Z" transform="translate(-344.656 -258.993)" fill="#319cbc"/>
          <path id="Trazado_670665" data-name="Trazado 670665" d="M412.305,270.812h11.777l2.349-6.06,2.2-5.636-7.589.049-4.172.033-4.106,10.441Z" transform="translate(-343.272 -259.003)" fill="#319cbc"/>
          <path id="Trazado_670666" data-name="Trazado 670666" d="M393.432,283.35h12.713l1.659-4.268.69-1.727,2.2-5.669h-12.68Z" transform="translate(-344.208 -258.379)" fill="#319cbc"/>
          <path id="Trazado_670667" data-name="Trazado 670667" d="M420.49,283.35h12.68l3.252-8.438,1.232-3.225H425.073l-2.53,6.451-1.1,2.785Z" transform="translate(-342.866 -258.379)" fill="#319cbc"/>
          <path id="Trazado_670668" data-name="Trazado 670668" d="M370.381,270.8h12.746l4.418-11.37-12.812.1-3.531,9.155Z" transform="translate(-345.352 -258.987)" fill="#319cbc"/>
          <path id="Trazado_670669" data-name="Trazado 670669" d="M388.5,295.906h12.763l4.55-11.679h-12.73l-2.1,5.343Z" transform="translate(-344.453 -257.757)" fill="#319cbc"/>
          <path id="Trazado_670670" data-name="Trazado 670670" d="M407.376,283.35H419.2l1.478-3.779,1.068-2.737,2-5.147H411.975l-2.776,7.037-.69,1.727Z" transform="translate(-343.517 -258.379)" fill="#319cbc"/>
          <path id="Trazado_670671" data-name="Trazado 670671" d="M374.544,295.906h12.779l.542-1.385,2.48-6.385,1.511-3.909h-12.73l-.345.863Z" transform="translate(-345.145 -257.757)" fill="#319cbc"/>
          <path id="Trazado_670672" data-name="Trazado 670672" d="M402.462,295.906h11.859l2.973-7.639.69-1.759.887-2.28H407.045Z" transform="translate(-343.76 -257.757)" fill="#319cbc"/>
          <path id="Trazado_670673" data-name="Trazado 670673" d="M425.4,270.817h12.565l.509-1.352,4.024-10.458-12.483.1-.493,1.27-2.316,5.864Z" transform="translate(-342.622 -259.008)" fill="#319cbc"/>
          <path id="Trazado_670674" data-name="Trazado 670674" d="M365.514,283.35h12.73l2.2-5.652,2.332-6.011H370.031l-1.232,3.176Z" transform="translate(-345.593 -258.379)" fill="#319cbc"/>
          <path id="Trazado_670675" data-name="Trazado 670675" d="M415.56,295.906h12.812l2.6-6.792,1.215-3.176.657-1.71h-12.7l-1.429,3.632-.69,1.776Z" transform="translate(-343.111 -257.757)" fill="#319cbc"/>
          <path id="Trazado_670676" data-name="Trazado 670676" d="M360.648,295.906h12.713l.3-.765,4.238-10.914H365.181l-.443,1.156-.838,2.15Z" transform="translate(-345.834 -257.757)" fill="#319cbc"/>
          <path id="Trazado_670677" data-name="Trazado 670677" d="M356.268,270.8h12.746l4.418-11.37-12.812.1-3.531,9.155Z" transform="translate(-346.052 -258.987)" fill="#319cbc"/>
          <path id="Trazado_670678" data-name="Trazado 670678" d="M351.4,283.35h12.73l2.2-5.652,2.332-6.011H355.918l-1.232,3.176Z" transform="translate(-346.293 -258.379)" fill="#319cbc"/>
          <path id="Trazado_670679" data-name="Trazado 670679" d="M346.534,295.906h12.713l.3-.765,4.238-10.914H351.068l-.443,1.156-.838,2.15Z" transform="translate(-346.534 -257.757)" fill="#319cbc"/>
        </g>
        <g id="Grupo_933349" data-name="Grupo 933349" transform="translate(18.065 0.114)" opacity="0.37">
          <path id="Trazado_670680" data-name="Trazado 670680" d="M437.048,271.687h-4.336l3.1,3.225Z" transform="translate(-360.326 -258.493)" fill="#fff"/>
          <path id="Trazado_670681" data-name="Trazado 670681" d="M431.544,270.753h6.34l.509-1.352-8.952-9.089-2.316,5.864Z" transform="translate(-360.603 -259.057)" fill="#fff"/>
          <path id="Trazado_670682" data-name="Trazado 670682" d="M429.792,284.227h-4.451c1.791,1.694,3.515,3.339,5.141,4.886l1.215-3.176Z" transform="translate(-360.691 -257.871)" fill="#fff"/>
          <path id="Trazado_670683" data-name="Trazado 670683" d="M421.4,280.619c.87.815,1.724,1.629,2.562,2.427h4.353l-5.815-5.212Z" transform="translate(-360.887 -258.188)" fill="#fff"/>
          <path id="Trazado_670684" data-name="Trazado 670684" d="M412.305,270.315h1.774l-1.314-1.173Z" transform="translate(-361.338 -258.619)" fill="#fff"/>
          <path id="Trazado_670685" data-name="Trazado 670685" d="M415.767,271.687h-3.7c2.792,2.623,5.617,5.277,8.377,7.885l1.067-2.737Z" transform="translate(-361.349 -258.493)" fill="#fff"/>
          <path id="Trazado_670686" data-name="Trazado 670686" d="M401.648,261.961c2.924,2.753,6.061,5.7,9.248,8.715l.936-2.394-9.379-8.389Z" transform="translate(-361.866 -259.078)" fill="#fff"/>
          <path id="Trazado_670687" data-name="Trazado 670687" d="M426.018,264.753l2.2-5.636-7.589.049Z" transform="translate(-360.925 -259.117)" fill="#fff"/>
          <path id="Trazado_670688" data-name="Trazado 670688" d="M418.6,287.688l-.69,1.775,6.34,6.271h2.53Z" transform="translate(-361.06 -257.699)" fill="#fff"/>
          <path id="Trazado_670689" data-name="Trazado 670689" d="M415.16,284.227H412.7l4.09,4.04.69-1.759Z" transform="translate(-361.318 -257.871)" fill="#fff"/>
          <path id="Trazado_670690" data-name="Trazado 670690" d="M408.456,280.118l2.94,2.9h2.447l-4.7-4.626Z" transform="translate(-361.529 -258.161)" fill="#fff"/>
          <path id="Trazado_670691" data-name="Trazado 670691" d="M402.4,271.687h-2.4l7.474,7.4.69-1.727Z" transform="translate(-361.948 -258.493)" fill="#fff"/>
          <path id="Trazado_670692" data-name="Trazado 670692" d="M399.082,268.506l-.657,1.694.148.147h2.382Z" transform="translate(-362.026 -258.651)" fill="#fff"/>
          <path id="Trazado_670693" data-name="Trazado 670693" d="M388.362,260.21l9.116,9.008.657-1.678-8.262-8.144-1.2.016Z" transform="translate(-362.525 -259.103)" fill="#fff"/>
          <path id="Trazado_670694" data-name="Trazado 670694" d="M400.3,260.622l.509-1.3-1.856.017Z" transform="translate(-362 -259.107)" fill="#fff"/>
          <path id="Trazado_670695" data-name="Trazado 670695" d="M379.473,283h5.568l-3.926-4.186Z" transform="translate(-362.966 -258.14)" fill="#fff"/>
          <path id="Trazado_670696" data-name="Trazado 670696" d="M388.5,295.653h8.426l-5.946-6.336Z" transform="translate(-362.518 -257.619)" fill="#fff"/>
          <path id="Trazado_670697" data-name="Trazado 670697" d="M378.581,285.09l9.083,9.431,2.48-6.385-3.663-3.909h-7.556Z" transform="translate(-363.01 -257.871)" fill="#fff"/>
          <path id="Trazado_670698" data-name="Trazado 670698" d="M368.644,274.864l8.163,8.486h1.281l2.2-5.652-5.634-6.011h-4.78Z" transform="translate(-363.503 -258.493)" fill="#fff"/>
          <path id="Trazado_670699" data-name="Trazado 670699" d="M370.381,270.359h2.792l-1.971-2.118Z" transform="translate(-363.417 -258.664)" fill="#fff"/>
          <path id="Trazado_670700" data-name="Trazado 670700" d="M363.746,287.479l7.753,8.373h1.708l.3-.765-8.919-9.757Z" transform="translate(-363.746 -257.816)" fill="#fff"/>
        </g>
      </g>
    </g>
    <g id="Grupo_933356" data-name="Grupo 933356" transform="translate(246.587 247.32)">
      <path id="Trazado_670701" data-name="Trazado 670701" d="M254.447,278.938v14.115H345.87v-26.13l3.621-10.8V296.68H250.1V278.938Z" transform="translate(-236.029 -237.918)" fill="#46647a"/>
      <path id="Trazado_670702" data-name="Trazado 670702" d="M236.7,283.676H339.928l18.259-44.9H255.761Z" transform="translate(-236.694 -238.778)" fill="#eaeaea"/>
      <path id="Trazado_670703" data-name="Trazado 670703" d="M333.62,287.345h2l.02-.037,17.741-43.379v-5.137l-18.3,44.935Z" transform="translate(-231.886 -238.777)" fill="#64819b"/>
      <path id="Trazado_670704" data-name="Trazado 670704" d="M236.694,281.55v3.674H340.443v-.037l-.559-3.581v-.056Z" transform="translate(-236.694 -236.657)" fill="#7da9c9"/>
      <g id="Grupo_933352" data-name="Grupo 933352" transform="translate(21.145 1.768)">
        <path id="Trazado_670705" data-name="Trazado 670705" d="M298.012,254.162l-5.183,12.618H278.314l5.232-12.618Z" transform="translate(-255.775 -239.783)" fill="#40b4e2"/>
        <path id="Trazado_670706" data-name="Trazado 670706" d="M314.318,253.217H299.859l5.152-12.424,14.454-.106Z" transform="translate(-254.706 -240.452)" fill="#40b4e2"/>
        <path id="Trazado_670707" data-name="Trazado 670707" d="M303.492,240.8l-5.1,12.407H283.937l5.1-12.3Z" transform="translate(-255.496 -240.446)" fill="#40b4e2"/>
        <path id="Trazado_670708" data-name="Trazado 670708" d="M329.22,253.222H315.781l5.2-12.546,13.43-.1Z" transform="translate(-253.916 -240.457)" fill="#40b4e2"/>
        <path id="Trazado_670709" data-name="Trazado 670709" d="M294.236,266.781l5.232-12.618h14.465l-5.183,12.618Z" transform="translate(-254.985 -239.783)" fill="#40b4e2"/>
        <path id="Trazado_670710" data-name="Trazado 670710" d="M339.59,266.781H325.109l5.232-12.618H344.7Z" transform="translate(-253.453 -239.783)" fill="#40b4e2"/>
        <path id="Trazado_670711" data-name="Trazado 670711" d="M282.477,253.205H267.931l4.981-12.178,14.612-.107Z" transform="translate(-256.289 -240.44)" fill="#40b4e2"/>
        <path id="Trazado_670712" data-name="Trazado 670712" d="M288.614,280.341l5.232-12.618h14.521l-5.183,12.618Z" transform="translate(-255.264 -239.111)" fill="#40b4e2"/>
        <path id="Trazado_670713" data-name="Trazado 670713" d="M328.836,254.162l-5.183,12.618H310.159l5.232-12.618Z" transform="translate(-254.195 -239.783)" fill="#40b4e2"/>
        <path id="Trazado_670714" data-name="Trazado 670714" d="M272.691,280.341l5.232-12.618h14.521l-5.183,12.618Z" transform="translate(-256.053 -239.111)" fill="#40b4e2"/>
        <path id="Trazado_670715" data-name="Trazado 670715" d="M304.536,280.341l5.232-12.618h13.5l-5.183,12.618Z" transform="translate(-254.474 -239.111)" fill="#40b4e2"/>
        <path id="Trazado_670716" data-name="Trazado 670716" d="M330.732,253.228l5.25-12.661,14.252-.1-5.164,12.765Z" transform="translate(-253.175 -240.463)" fill="#40b4e2"/>
        <path id="Trazado_670717" data-name="Trazado 670717" d="M282.089,254.162l-5.183,12.618H262.385l5.161-12.618Z" transform="translate(-256.565 -239.783)" fill="#40b4e2"/>
        <path id="Trazado_670718" data-name="Trazado 670718" d="M319.487,280.341l5.232-12.618h14.5l-5.1,12.618Z" transform="translate(-253.732 -239.111)" fill="#40b4e2"/>
        <path id="Trazado_670719" data-name="Trazado 670719" d="M262,267.722h14.518l-5.183,12.618h-14.5Z" transform="translate(-256.84 -239.111)" fill="#40b4e2"/>
      </g>
      <g id="Grupo_933355" data-name="Grupo 933355" transform="translate(4.233 1.768)">
        <g id="Grupo_933353" data-name="Grupo 933353">
          <path id="Trazado_670720" data-name="Trazado 670720" d="M278.313,266.775H292.82l5.192-12.607H283.542l-3.355,8.082Z" transform="translate(-238.863 -239.783)" fill="#319cbc"/>
          <path id="Trazado_670721" data-name="Trazado 670721" d="M299.866,253.217h14.451l.037-.106,1.068-2.588,4.049-9.842L305,240.787l-.281.669-.918,2.236-3.111,7.536-.75,1.831Z" transform="translate(-237.794 -240.452)" fill="#319cbc"/>
          <path id="Trazado_670722" data-name="Trazado 670722" d="M283.938,253.211h14.45l.693-1.708.75-1.813,3.074-7.483.581-1.409-2.118.018-10.964.071-1.368.018-.356.863Z" transform="translate(-238.584 -240.446)" fill="#319cbc"/>
          <path id="Trazado_670723" data-name="Trazado 670723" d="M315.777,253.222h13.438l2.68-6.55,2.511-6.092-8.659.053-4.761.035L316.3,251.954Z" transform="translate(-237.004 -240.457)" fill="#319cbc"/>
          <path id="Trazado_670724" data-name="Trazado 670724" d="M294.241,266.775h14.507l1.893-4.613.787-1.866,2.511-6.127H299.471Z" transform="translate(-238.073 -239.783)" fill="#319cbc"/>
          <path id="Trazado_670725" data-name="Trazado 670725" d="M325.116,266.775h14.469l3.711-9.12,1.406-3.486H330.345l-2.886,6.972-1.256,3.011Z" transform="translate(-236.541 -239.783)" fill="#319cbc"/>
          <path id="Trazado_670726" data-name="Trazado 670726" d="M267.938,253.206h14.544l5.042-12.29-14.619.106-4.03,9.9Z" transform="translate(-239.377 -240.44)" fill="#319cbc"/>
          <path id="Trazado_670727" data-name="Trazado 670727" d="M288.616,280.346H303.18l5.192-12.624H293.846l-2.4,5.775Z" transform="translate(-238.352 -239.111)" fill="#319cbc"/>
          <path id="Trazado_670728" data-name="Trazado 670728" d="M310.152,266.775h13.495l1.687-4.085,1.218-2.958,2.287-5.564H315.4l-3.167,7.606-.787,1.866Z" transform="translate(-237.283 -239.783)" fill="#319cbc"/>
          <path id="Trazado_670729" data-name="Trazado 670729" d="M272.688,280.346H287.27l.619-1.5,2.83-6.9,1.724-4.226H277.917l-.394.933Z" transform="translate(-239.142 -239.111)" fill="#319cbc"/>
          <path id="Trazado_670730" data-name="Trazado 670730" d="M304.545,280.346h13.532l3.392-8.258.787-1.9,1.012-2.465H309.774Z" transform="translate(-237.561 -239.111)" fill="#319cbc"/>
          <path id="Trazado_670731" data-name="Trazado 670731" d="M330.723,253.228h14.338l.581-1.461,4.592-11.3-14.244.106-.562,1.373-2.643,6.339Z" transform="translate(-236.263 -240.463)" fill="#319cbc"/>
          <path id="Trazado_670732" data-name="Trazado 670732" d="M262.385,266.775H276.91l2.511-6.11,2.662-6.5H267.539l-1.406,3.433Z" transform="translate(-239.653 -239.783)" fill="#319cbc"/>
          <path id="Trazado_670733" data-name="Trazado 670733" d="M319.491,280.346H334.11L337.072,273l1.387-3.433.75-1.849H324.72l-1.631,3.926-.787,1.919Z" transform="translate(-236.82 -239.111)" fill="#319cbc"/>
          <path id="Trazado_670734" data-name="Trazado 670734" d="M256.831,280.346h14.507l.337-.827,4.836-11.8H262l-.506,1.25-.956,2.324Z" transform="translate(-239.928 -239.111)" fill="#319cbc"/>
          <path id="Trazado_670735" data-name="Trazado 670735" d="M251.834,253.206h14.544l5.042-12.29-14.619.106-4.03,9.9Z" transform="translate(-240.176 -240.44)" fill="#319cbc"/>
          <path id="Trazado_670736" data-name="Trazado 670736" d="M246.28,266.775h14.526l2.511-6.11,2.662-6.5H251.435l-1.406,3.433Z" transform="translate(-240.451 -239.783)" fill="#319cbc"/>
          <path id="Trazado_670737" data-name="Trazado 670737" d="M240.727,280.346h14.507l.337-.827,4.836-11.8H245.9l-.506,1.25-.956,2.324Z" transform="translate(-240.727 -239.111)" fill="#319cbc"/>
        </g>
        <g id="Grupo_933354" data-name="Grupo 933354" transform="translate(20.614 0.123)" opacity="0.37">
          <path id="Trazado_670738" data-name="Trazado 670738" d="M344.01,254.168h-4.948l3.542,3.486Z" transform="translate(-256.464 -239.906)" fill="#fff"/>
          <path id="Trazado_670739" data-name="Trazado 670739" d="M337.729,253.158h7.235l.581-1.461-10.215-9.825-2.643,6.339Z" transform="translate(-256.78 -240.516)" fill="#fff"/>
          <path id="Trazado_670740" data-name="Trazado 670740" d="M335.731,267.722h-5.079c2.043,1.832,4.01,3.61,5.866,5.283l1.387-3.433Z" transform="translate(-256.881 -239.234)" fill="#fff"/>
          <path id="Trazado_670741" data-name="Trazado 670741" d="M326.152,263.821c.993.881,1.968,1.761,2.923,2.624h4.968l-6.636-5.634Z" transform="translate(-257.104 -239.577)" fill="#fff"/>
          <path id="Trazado_670742" data-name="Trazado 670742" d="M315.777,252.685H317.8l-1.5-1.268Z" transform="translate(-257.618 -240.043)" fill="#fff"/>
          <path id="Trazado_670743" data-name="Trazado 670743" d="M319.726,254.168h-4.217c3.187,2.835,6.41,5.7,9.559,8.522l1.219-2.958Z" transform="translate(-257.632 -239.906)" fill="#fff"/>
          <path id="Trazado_670744" data-name="Trazado 670744" d="M303.616,243.655c3.337,2.976,6.916,6.163,10.553,9.42l1.068-2.588-10.7-9.067Z" transform="translate(-258.222 -240.539)" fill="#fff"/>
          <path id="Trazado_670745" data-name="Trazado 670745" d="M331.424,246.672l2.512-6.092-8.659.053Z" transform="translate(-257.147 -240.58)" fill="#fff"/>
          <path id="Trazado_670746" data-name="Trazado 670746" d="M322.957,271.463l-.787,1.919,7.235,6.779h2.886Z" transform="translate(-257.301 -239.049)" fill="#fff"/>
          <path id="Trazado_670747" data-name="Trazado 670747" d="M319.035,267.722h-2.811l4.667,4.367.787-1.9Z" transform="translate(-257.596 -239.234)" fill="#fff"/>
          <path id="Trazado_670748" data-name="Trazado 670748" d="M311.384,263.281l3.355,3.134h2.793l-5.36-5Z" transform="translate(-257.836 -239.547)" fill="#fff"/>
          <path id="Trazado_670749" data-name="Trazado 670749" d="M304.478,254.168h-2.737l8.528,7.994.787-1.866Z" transform="translate(-258.315 -239.906)" fill="#fff"/>
          <path id="Trazado_670750" data-name="Trazado 670750" d="M300.688,250.729l-.75,1.831.169.158h2.718Z" transform="translate(-258.404 -240.077)" fill="#fff"/>
          <path id="Trazado_670751" data-name="Trazado 670751" d="M288.456,241.763l10.4,9.737.75-1.813-9.427-8.8-1.368.018Z" transform="translate(-258.973 -240.565)" fill="#fff"/>
          <path id="Trazado_670752" data-name="Trazado 670752" d="M302.082,242.207l.582-1.409-2.118.018Z" transform="translate(-258.374 -240.57)" fill="#fff"/>
          <path id="Trazado_670753" data-name="Trazado 670753" d="M278.313,266.393h6.354l-4.479-4.525Z" transform="translate(-259.477 -239.524)" fill="#fff"/>
          <path id="Trazado_670754" data-name="Trazado 670754" d="M288.616,280.074h9.615l-6.785-6.849Z" transform="translate(-258.966 -238.961)" fill="#fff"/>
          <path id="Trazado_670755" data-name="Trazado 670755" d="M277.3,268.655,287.66,278.85l2.83-6.9-4.18-4.226h-8.622Z" transform="translate(-259.527 -239.234)" fill="#fff"/>
          <path id="Trazado_670756" data-name="Trazado 670756" d="M265.956,257.6l9.315,9.173h1.462l2.511-6.11-6.429-6.5h-5.454Z" transform="translate(-260.089 -239.906)" fill="#fff"/>
          <path id="Trazado_670757" data-name="Trazado 670757" d="M267.938,252.733h3.186l-2.249-2.289Z" transform="translate(-259.991 -240.091)" fill="#fff"/>
          <path id="Trazado_670758" data-name="Trazado 670758" d="M260.367,271.237l8.847,9.05h1.949l.337-.827-10.177-10.547Z" transform="translate(-260.367 -239.175)" fill="#fff"/>
        </g>
      </g>
    </g>
    <g id="Grupo_933364" data-name="Grupo 933364" transform="translate(227.149 205.25)">
      <path id="Trazado_670759" data-name="Trazado 670759" d="M225.863,301.19a31.076,31.076,0,0,1-.918,7.545c-.918,2.82-.525,3.674.918,4s5.9.394,5.838-.787-2.164-4.461-2.3-5.9-.525-4.854-.525-4.854Z" transform="translate(-217.863 -193.612)" fill="#534741"/>
      <path id="Trazado_670760" data-name="Trazado 670760" d="M245.421,302.108s2.033,3.609,1.771,5.839-.59,4.132.722,4.592,12.4.656,11.677-.394-6.626-3.237-7.741-4.636-2.755-6.32-2.755-6.32Z" transform="translate(-216.823 -193.612)" fill="#534741"/>
      <path id="Trazado_670761" data-name="Trazado 670761" d="M225.919,245.435s-2.659,11.188-2.309,19.06.087,38.223,1.924,40.06,3.936,1.05,4.636,0,1.137-21.254,1.137-21.254.963-27.378,1.487-25.978,4.9,21.166,5.948,24.753,4.986,20.9,6.56,22.654a3.859,3.859,0,0,0,4.548.927c1.225-.4,1.4-1.014.787-2.588s-6.122-29.651-6.56-33.149-1.924-21.459-3.411-23.85S225.919,245.435,225.919,245.435Z" transform="translate(-217.906 -196.408)" fill="#242754"/>
      <g id="Grupo_933357" data-name="Grupo 933357" transform="translate(8.787 6.308)">
        <path id="Trazado_670762" data-name="Trazado 670762" d="M226.546,206.81s.131,2.537,1.246,3.652a4.749,4.749,0,0,0,1.9,1.312s3.34-.667,3.376-3.607-4.885-4.067-5.672-3.149A3.429,3.429,0,0,0,226.546,206.81Z" transform="translate(-226.546 -204.706)" fill="#cc684e"/>
      </g>
      <g id="Grupo_933358" data-name="Grupo 933358" transform="translate(10.033 5.702)">
        <path id="Trazado_670763" data-name="Trazado 670763" d="M237.377,204.128s1.64,7.61.525,8.528-3.609.59-3.609.59.2,2.23.656,2.624a4.512,4.512,0,0,0,1.342.656s-1.276,5.052-2.851,4.854-5.708-3.542-5.708-3.542,2.034-.131,2.034-.787-.131-5.248-.131-5.248.59.394.525-.852-2.034-1.706-1.312-2.755.721-.329,1.9-.656.066-1.706.066-1.706Z" transform="translate(-227.733 -204.128)" fill="#ffbf9f"/>
      </g>
      <g id="Grupo_933359" data-name="Grupo 933359" transform="translate(8.149)">
        <path id="Trazado_670764" data-name="Trazado 670764" d="M237.466,204.4s1.9-.656,1.377-1.312-2.033-.853-2.164-1.05-2.953-4.658-7.151-2.952-3.739,7.807-3.345,8,4.723-.983,4.723-.983Z" transform="translate(-225.938 -198.696)" fill="#ffe045"/>
      </g>
      <path id="Trazado_670765" data-name="Trazado 670765" d="M234.092,212.858l-2.3-.918s1.251,3.224,1.837,2.559A2.3,2.3,0,0,0,234.092,212.858Z" transform="translate(-217.499 -198.039)" fill="#c96353"/>
      <path id="Trazado_670766" data-name="Trazado 670766" d="M261.485,225.6c-.346-.609-10.842,6.476-11.546,6.917s-6.466-12.07-7.085-13.907-6.088-2.666-6.088-2.666-1.186,3.264-2.739,3.716-5.825-2.414-5.825-2.414-.472-.126-1.616.577c-.882.546-3.915,1.48-4.2,2.467-1.417,4.965-2.865,9.95-3.842,15.02-1.05,5.6.084,6.035,3.936,7.61.966.4,2.131.892,3.317,1.385-.115.84-.22,1.543-.262,2.12-.052.84,6.161,1.176,10.895,1.2a28.573,28.573,0,0,0,5.206-.241c.787-.43,0-3.054-.094-5.678s.441-12.6.441-12.6,4.545,9.446,5.857,10.234,15.219-9.887,15.482-10.5S261.841,226.221,261.485,225.6Zm-37.523,11.64c0-1.228,1.931-9.362,1.931-9.362a18.524,18.524,0,0,1,.273,3.338c.011.126.011.252.021.388v.115c.063,2.414.031,5.395,0,7.389C224.9,238.3,223.962,237.609,223.962,237.241Z" transform="translate(-218.174 -197.84)" fill="#4ecdea"/>
      <g id="Grupo_933360" data-name="Grupo 933360" transform="translate(7.361 28.334)">
        <path id="Trazado_670767" data-name="Trazado 670767" d="M225.808,238.364c.031-1.994.063-4.975,0-7.389.157,2.3,8.6,11.818,8.6,11.818Z" transform="translate(-225.157 -225.428)" fill="#1fa1c9"/>
        <path id="Trazado_670768" data-name="Trazado 670768" d="M236.083,246.282c-4.734-.021-10.947-.357-10.895-1.2.042-.577.147-1.281.262-2.12Z" transform="translate(-225.188 -224.833)" fill="#1fa1c9"/>
        <path id="Trazado_670769" data-name="Trazado 670769" d="M240.957,228.624l-2.1-2.934,1.83,8.67Z" transform="translate(-224.51 -225.69)" fill="#1fa1c9"/>
      </g>
      <g id="Grupo_933361" data-name="Grupo 933361" transform="translate(43.311 24.879)">
        <path id="Trazado_670770" data-name="Trazado 670770" d="M259.438,225.281l2.715-2.883v4.5l-1.137,1.225Z" transform="translate(-259.438 -222.398)" fill="#ffbf9f"/>
      </g>
      <path id="Trazado_670771" data-name="Trazado 670771" d="M262.026,227.108s0-8.834.437-8.834,4.943-.087,5.03.831-.525,9.753-1.05,9.884-3.98.174-4.242-.351A3.687,3.687,0,0,1,262.026,227.108Z" transform="translate(-216 -197.725)" fill="#1c2b49"/>
      <g id="Grupo_933362" data-name="Grupo 933362" transform="translate(49.554 23.261)">
        <path id="Trazado_670772" data-name="Trazado 670772" d="M267.718,220.857a2.332,2.332,0,0,0-2.012,1.617c-.656,1.618-.174,3.893.306,3.542a3.055,3.055,0,0,0,1.706-2.562C268.112,221.436,267.718,220.857,267.718,220.857Z" transform="translate(-265.387 -220.857)" fill="#ffbf9f"/>
      </g>
      <path id="Trazado_670773" data-name="Trazado 670773" d="M232.358,257l.424-5.685,5.034,28.582Z" transform="translate(-217.471 -196.086)" fill="#1a1d38"/>
      <g id="Grupo_933363" data-name="Grupo 933363" transform="translate(15.311 46.465)">
        <path id="Trazado_670774" data-name="Trazado 670774" d="M233.65,242.965s3.74.761,2.821,1.089-1.856.089-.764.569,3.464.74,2.8,1.627-1.466,1.084-2.8.691a11.965,11.965,0,0,1-2.945-1.578s.757-.653.757-1.244A5.807,5.807,0,0,1,233.65,242.965Z" transform="translate(-232.762 -242.965)" fill="#ffbf9f"/>
      </g>
    </g>
    <g id="Grupo_933373" data-name="Grupo 933373" transform="translate(63.211 205.886)">
      <path id="Trazado_670775" data-name="Trazado 670775" d="M74.145,299.773A17.446,17.446,0,0,1,72.7,305.2c-1.181,2.362-1.531,3.28-.438,4.286s8.746,2.93,9.971,2.012.438-1.312-.831-2.58-3.236-2.712-3.454-5.074a10.322,10.322,0,0,1,.394-4.067Z" transform="translate(-61.506 -194.318)" fill="#232538"/>
      <path id="Trazado_670776" data-name="Trazado 670776" d="M102.862,301.823a16.322,16.322,0,0,1,.438,6.255c-.525,2.711-1.312,3.676,1.355,3.608s9.8.065,10.059-1.073-3.849-2.624-5.2-3.542-2.318-6.3-2.318-6.3Z" transform="translate(-59.96 -194.269)" fill="#232538"/>
      <path id="Trazado_670777" data-name="Trazado 670777" d="M82.866,245.088s-2.363,3.953-2.475,7.1-3.348,26.24-4.311,33.15S72.145,301.7,73.457,303.1s5.6,2.186,6.386,1.225,4.023-15.219,5.073-19.155,6.035-30,6.385-28.165,7.785,21.779,8.134,24.316,3.149,24.316,4.2,24.49,6.648.438,6.648-2.273-1.925-23.179-4.374-29.826-9.037-29.441-9.037-29.441Z" transform="translate(-61.43 -197.071)" fill="#333970"/>
      <path id="Trazado_670778" data-name="Trazado 670778" d="M84.505,265.747H63.033a1.049,1.049,0,0,1-1.05-1.05h0a1.05,1.05,0,0,1,1.05-1.05H84.505a1.049,1.049,0,0,1,1.05,1.05h0A1.049,1.049,0,0,1,84.505,265.747Z" transform="translate(-61.983 -196.11)" fill="#ff4571"/>
      <path id="Trazado_670779" data-name="Trazado 670779" d="M84.505,277H63.033a1.049,1.049,0,0,1-1.05-1.05h0a1.05,1.05,0,0,1,1.05-1.05H84.505a1.049,1.049,0,0,1,1.05,1.05h0A1.049,1.049,0,0,1,84.505,277Z" transform="translate(-61.983 -195.552)" fill="#ff4571"/>
      <rect id="Rectángulo_329193" data-name="Rectángulo 329193" width="21.473" height="9.709" transform="translate(1.05 69.638)" fill="#ed2e53"/>
      <path id="Trazado_670780" data-name="Trazado 670780" d="M64.858,263.972l2.906-5.243a3.148,3.148,0,0,1,2.754-1.623h7.068a3.151,3.151,0,0,1,2.739,1.6l2.987,5.27h-2.1l-2.13-4.013a3.148,3.148,0,0,0-2.781-1.672h-5a3.148,3.148,0,0,0-2.754,1.623l-2.25,4.062Z" transform="translate(-61.84 -196.435)" fill="#c4264b"/>
      <g id="Grupo_933365" data-name="Grupo 933365" transform="translate(9.938 57.261)">
        <path id="Trazado_670781" data-name="Trazado 670781" d="M71.965,253.857a35.794,35.794,0,0,1-.481,3.892c-.306,1.4,1.574,2.23,3.1,1.837s2.143-1.181,1.487-2.012a14.388,14.388,0,0,1-1.4-3.149Z" transform="translate(-71.451 -253.857)" fill="#ffbf9f"/>
      </g>
      <g id="Grupo_933366" data-name="Grupo 933366" transform="translate(51.343 49.039)">
        <path id="Trazado_670782" data-name="Trazado 670782" d="M110.9,247.686s1.443,4.154,3.323,4.592,3.018-.438,2.23-1.181-2.011-1.75-1.312-1.881,1.443-.525.438-1.006a17.608,17.608,0,0,1-2.842-2.187Z" transform="translate(-110.9 -246.023)" fill="#ffbf9f"/>
      </g>
      <path id="Trazado_670783" data-name="Trazado 670783" d="M79.3,210.186s1.443,4.33,3.936,5.314a5.061,5.061,0,0,0,4.2,0l-1.146-7.872Z" transform="translate(-61.124 -198.889)" fill="#232538"/>
      <g id="Grupo_933367" data-name="Grupo 933367" transform="translate(21.199 7.952)">
        <path id="Trazado_670784" data-name="Trazado 670784" d="M91.486,206.878s2.558,6.231,1.508,8a2.97,2.97,0,0,1-2.624,1.639l.525,1.772s-1.312,3.345-2.82,2.689a11.518,11.518,0,0,1-2.953-2.1s-.327-4.376-1.181-4.91-2.362-2.831-1.508-2.568,2.23.985,2.033.329-.721-2.821-.721-2.821Z" transform="translate(-82.18 -206.878)" fill="#ffbf9f"/>
      </g>
      <g id="Grupo_933368" data-name="Grupo 933368" transform="translate(17.516)">
        <path id="Trazado_670785" data-name="Trazado 670785" d="M91.66,207.254s2.427-.656,2.3-.853-2.493-.59-2.82-1.181-3-7.937-8.781-5.379S79.327,210.6,79.327,210.6l4.592-1.312Z" transform="translate(-78.671 -199.302)" fill="#ffe045"/>
      </g>
      <path id="Trazado_670786" data-name="Trazado 670786" d="M90.175,216.119l-4.067-1.148s2.394,2.821,3.05,2.493A2.733,2.733,0,0,0,90.175,216.119Z" transform="translate(-60.786 -198.524)" fill="#c96353"/>
      <g id="Grupo_933369" data-name="Grupo 933369" transform="translate(8.606 19.369)">
        <path id="Trazado_670787" data-name="Trazado 670787" d="M115.174,247.343c.126.714-1.91,2.876-2.561,3.4-.525.42-6.382-6.088-9.215-9.394-.682-.8-1.186-1.406-1.406-1.69-1.092-1.4-4.009-6.98-4.188-7.326l-.01-.021s.189,8.071.525,10.307a2.664,2.664,0,0,1-1.186,2.949l-.115.011-13.267.9s-2.162.063-2.036-1.574-1.176-14.757-1.176-14.757-4.009,8.2-4.6,9.572-.714,16.143-.85,16.794-1.963.462-3.149.336-1.963-12.732-1.711-15.482c.273-2.76,5.71-13.057,7.547-17.119s7.945-5.909,7.945-5.909,2.351,1.05,3.212,1.312,2.561-1.9,2.561-1.9,4.387.588,5.5,1.176,7.347,13.519,8.334,15.156S115.038,246.619,115.174,247.343Z" transform="translate(-70.183 -217.755)" fill="#f4bd5b"/>
      </g>
      <g id="Grupo_933370" data-name="Grupo 933370" transform="translate(36.216 28.091)">
        <path id="Trazado_670788" data-name="Trazado 670788" d="M102.093,240.938c-.682-.8-1.186-1.406-1.406-1.69-1.092-1.4-4.009-6.98-4.188-7.326l-.011-.021v-5.836Z" transform="translate(-96.488 -226.065)" fill="#ef8a5e"/>
      </g>
      <g id="Grupo_933371" data-name="Grupo 933371" transform="translate(18.961 27.041)">
        <path id="Trazado_670789" data-name="Trazado 670789" d="M96.527,245.217l-13.267.9s-2.162.063-2.036-1.574-1.176-14.757-1.176-14.757l1.176-4.723a55.875,55.875,0,0,0,1.06,11.283C83.375,241.166,92.654,244.745,96.527,245.217Z" transform="translate(-80.048 -225.065)" fill="#ef8a5e"/>
      </g>
      <g id="Grupo_933372" data-name="Grupo 933372" transform="translate(1.05 69.638)">
        <rect id="Rectángulo_329194" data-name="Rectángulo 329194" width="21.473" height="1.487" fill="#c4264b"/>
        <rect id="Rectángulo_329195" data-name="Rectángulo 329195" width="21.473" height="2.121" transform="translate(0 7.588)" fill="#c4264b"/>
      </g>
    </g>
    <g id="Grupo_933378" data-name="Grupo 933378" transform="translate(367.009 215.279)">
      <path id="Trazado_670790" data-name="Trazado 670790" d="M373.737,306.648s1.487,9.971.525,9.884-12.333,1.661-12.07-.787,5.42-2.1,6.734-3.586,1.663-5.51,1.663-5.51Z" transform="translate(-350.891 -203.37)" fill="#232538"/>
      <path id="Trazado_670791" data-name="Trazado 670791" d="M398.53,306.731s1.137,5.51-2.712,7.26-2.886,3.94-1.312,3.94,11.371-4.723,11.021-5.6-3.761-7.349-3.761-7.349Z" transform="translate(-349.357 -203.453)" fill="#232538"/>
      <path id="Trazado_670792" data-name="Trazado 670792" d="M380.552,249.625l-3.744,12.6s-6.56,24.272-7.216,31.815-1.443,14.5-.656,15.417,6.035,2.689,7.15,0,2.755-17.187,2.886-19.811a38.5,38.5,0,0,1,1.9-8.2c.656-2.164,5.9-18.911,6.166-17.754s2.624,21.362,3.476,24.97,7.02,21.287,8.134,22.222,6.232-.705,6.364-2.411-5.97-23.419-6.233-24.862-1.574-18.565-2.624-22.96-2.613-10.593-2.613-10.593Z" transform="translate(-350.573 -206.199)" fill="#242754"/>
      <path id="Trazado_670793" data-name="Trazado 670793" d="M397.418,261.375s-2.684,4.135-3.668,4.6.247,1.8,2.222,1.262,4.189-3.1,4.2-4.249S397.418,261.375,397.418,261.375Z" transform="translate(-349.343 -205.616)" fill="#ed8772"/>
      <g id="Grupo_933374" data-name="Grupo 933374" transform="translate(13.9 18.299)">
        <path id="Trazado_670794" data-name="Trazado 670794" d="M406.463,249.9c-.136,2.75-3.149,13.97-3.674,14.757s-3.149-.724-3.947-1.511c-.777-.787,2.372-11.745,2.561-13.12.189-1.333-4.734-11.483-5.038-12.1l-.01-.031a66.917,66.917,0,0,1-1.05,7.211c-.462,1.385-.063,5.384-.661,5.972s-13.9-.262-13.9-.262a6.444,6.444,0,0,1-1.249-1.438c-.6-.924,1.05-8.859,1.05-8.859s-4.4,5.972-5.573,7.547-8.47,4.324-8.47,4.324l-1.837-4.587a62.131,62.131,0,0,0,6.109-3.285c1.176-.913,9.635-15.933,10.559-17.182s5.573-1.648,5.573-1.648.325,4.272,1.9,3.611,3.548-3.611,3.548-3.611a66.4,66.4,0,0,1,6.56,3.747C399.966,230.345,406.589,247.139,406.463,249.9Z" transform="translate(-364.668 -225.685)" fill="#f4bd5b"/>
      </g>
      <path id="Trazado_670795" data-name="Trazado 670795" d="M442.356,312.224h-.223c-7.051-.073-10.516-.857-18.989-8.873-6.21-5.877-8.659-11.781-10.819-16.991-.741-1.786-1.441-3.474-2.253-5.077-4.4-8.676-8.452-13.805-12.048-15.243-2.3-.922-5.714.695-9.016,2.259-2.773,1.314-5.642,2.672-8.2,2.714h-.116c-6.636,0-9.274-9.324-10.144-12.4-1.182-4.174-6.735-7.562-6.791-7.6l1.082-1.8c.258.155,6.32,3.846,7.728,8.824,2.07,7.313,4.729,10.871,8.127,10.871h.079c2.1-.034,4.761-1.293,7.335-2.513,3.706-1.755,7.54-3.573,10.692-2.311,4.141,1.657,8.44,6.97,13.142,16.245.848,1.673,1.563,3.4,2.321,5.222,2.181,5.261,4.437,10.7,10.323,16.269,8,7.572,10.848,8.231,17.569,8.3,4.305.067,8.363-1.428,10.233-3.754a4.771,4.771,0,0,0,.978-4.247c-.975-4.228-4.449-7.129-7.515-9.689-.767-.641-1.5-1.252-2.143-1.845-3.342-3.071-3.951-4.945-4.083-5.215l.958-2.475a20.878,20.878,0,0,0,4.546,6.145c.622.572,1.327,1.16,2.069,1.779,3.154,2.634,7.081,5.913,8.215,10.829a6.866,6.866,0,0,1-1.39,6.033C451.766,310.495,447.309,312.224,442.356,312.224Z" transform="translate(-350.813 -206.219)" fill="#5f879b"/>
      <path id="Trazado_670796" data-name="Trazado 670796" d="M357.9,247.731h0a1,1,0,0,1-1.413-.16l-4.845-6.078a1.006,1.006,0,0,1,.16-1.414h0a1.006,1.006,0,0,1,1.414.16l4.845,6.078A1.007,1.007,0,0,1,357.9,247.731Z" transform="translate(-351.425 -206.683)" fill="#adc3c4"/>
      <path id="Trazado_670797" data-name="Trazado 670797" d="M362.341,244.193h0a1.006,1.006,0,0,1-1.414-.16l-4.844-6.078a1.006,1.006,0,0,1,.16-1.414h0a1.006,1.006,0,0,1,1.413.16l4.845,6.078A1.006,1.006,0,0,1,362.341,244.193Z" transform="translate(-351.205 -206.858)" fill="#adc3c4"/>
      <path id="Trazado_670798" data-name="Trazado 670798" d="M396.919,218.552s-1.574,6.822-5.335,5.86-5.379-8.353-2.187-9.753S396.919,218.552,396.919,218.552Z" transform="translate(-349.626 -207.944)" fill="#232538"/>
      <path id="Trazado_670799" data-name="Trazado 670799" d="M385.942,226.2l.109-1.2a3.3,3.3,0,0,1-1.859-2.951c-.218-2.362,1.269-6.56,1.269-6.56l6.472,1.617s-.481,3.28.262,2.886,1.706-1.006,1.574-.043a2.207,2.207,0,0,1-1.224,1.968c-.918.568-1.487,1.574-1.138,2.011l.351.438-.372,1.837s-1.685,6.079-4.4,5.03S385.942,226.2,385.942,226.2Z" transform="translate(-349.801 -207.892)" fill="#ed8772"/>
      <path id="Trazado_670800" data-name="Trazado 670800" d="M385.962,224.588a9.492,9.492,0,0,0,2.3-.372,5.9,5.9,0,0,0,1.443-.569s-2.537,3.018-2.886,2.755A6.426,6.426,0,0,1,385.962,224.588Z" transform="translate(-349.712 -207.487)" fill="#bc6658"/>
      <g id="Grupo_933375" data-name="Grupo 933375" transform="translate(33.193)">
        <path id="Trazado_670801" data-name="Trazado 670801" d="M385.517,215.841s-2.712-.613-2.45-1.05,2.8-.482,2.8-.482,1.38-7.347,7.972-5.86,3.311,10.409,3.311,10.409Z" transform="translate(-383.049 -208.251)" fill="#ffe045"/>
      </g>
      <g id="Grupo_933376" data-name="Grupo 933376" transform="translate(24.202 26.045)">
        <path id="Trazado_670802" data-name="Trazado 670802" d="M380.059,240.15l.525-7.085-6.1,14.629Z" transform="translate(-374.483 -233.065)" fill="#ef8a5e"/>
      </g>
      <g id="Grupo_933377" data-name="Grupo 933377" transform="translate(29.98 26.045)">
        <path id="Trazado_670803" data-name="Trazado 670803" d="M395.6,237.526a66.935,66.935,0,0,1-1.05,7.211c-.462,1.385-.063,5.384-.661,5.972s-13.9-.262-13.9-.262c15.67.336,15.219-17.381,15.219-17.381Z" transform="translate(-379.988 -233.065)" fill="#ef8a5e"/>
      </g>
      <path id="Trazado_670804" data-name="Trazado 670804" d="M363.835,238.357l-10.977,9.578,4.247,4.627a5.247,5.247,0,0,0,7.208.5l3-2.474a5.247,5.247,0,0,0,.631-7.476Z" transform="translate(-351.354 -206.757)" fill="#304654"/>
      <path id="Trazado_670805" data-name="Trazado 670805" d="M359.536,253.555s-3.283,1.279-4.157-.339-.306-4.661.787-3.993,1.443,2.943,2.186,3.337A3.823,3.823,0,0,1,359.536,253.555Z" transform="translate(-351.25 -206.223)" fill="#ed8772"/>
    </g>
    <g id="Grupo_933383" data-name="Grupo 933383" transform="translate(279.317 278.428)">
      <path id="Trazado_670806" data-name="Trazado 670806" d="M287.579,296.83v11.29h69.187v-20.9h2.74v23.8H284.291V296.83Z" transform="translate(-267.063 -267.483)" fill="#46647a"/>
      <path id="Trazado_670807" data-name="Trazado 670807" d="M267.88,304.327h84.108l14.877-35.912H283.412Z" transform="translate(-267.877 -268.416)" fill="#fff"/>
      <path id="Trazado_670808" data-name="Trazado 670808" d="M346.848,307.262h1.626l.016-.03,14.454-34.7v-4.108l-14.91,35.942Z" transform="translate(-263.96 -268.415)" fill="#64819b"/>
      <path id="Trazado_670809" data-name="Trazado 670809" d="M267.877,302.627v2.939h84.53v-.03l-.455-2.864v-.045Z" transform="translate(-267.877 -266.719)" fill="#7da9c9"/>
      <g id="Grupo_933379" data-name="Grupo 933379" transform="translate(17.228 1.414)">
        <path id="Trazado_670810" data-name="Trazado 670810" d="M317.836,280.721l-4.223,10.093H301.787l4.263-10.093Z" transform="translate(-283.423 -269.22)" fill="#40b4e2"/>
        <path id="Trazado_670811" data-name="Trazado 670811" d="M331.122,279.965H319.341l4.2-9.937,11.776-.084Z" transform="translate(-282.552 -269.754)" fill="#40b4e2"/>
        <path id="Trazado_670812" data-name="Trazado 670812" d="M322.3,270.036l-4.152,9.924h-11.78l4.156-9.84Z" transform="translate(-283.196 -269.75)" fill="#40b4e2"/>
        <path id="Trazado_670813" data-name="Trazado 670813" d="M343.263,279.969H332.314l4.239-10.035,10.942-.078Z" transform="translate(-281.909 -269.759)" fill="#40b4e2"/>
        <path id="Trazado_670814" data-name="Trazado 670814" d="M314.76,290.814l4.263-10.093h11.786l-4.223,10.093Z" transform="translate(-282.78 -269.22)" fill="#40b4e2"/>
        <path id="Trazado_670815" data-name="Trazado 670815" d="M351.713,290.814h-11.8l4.263-10.093h11.695Z" transform="translate(-281.532 -269.22)" fill="#40b4e2"/>
        <path id="Trazado_670816" data-name="Trazado 670816" d="M305.179,279.955H293.328l4.058-9.741,11.9-.085Z" transform="translate(-283.843 -269.745)" fill="#40b4e2"/>
        <path id="Trazado_670817" data-name="Trazado 670817" d="M310.179,301.659l4.263-10.093h11.831l-4.223,10.093Z" transform="translate(-283.007 -268.682)" fill="#40b4e2"/>
        <path id="Trazado_670818" data-name="Trazado 670818" d="M342.951,280.721l-4.223,10.093H327.733L332,280.721Z" transform="translate(-282.136 -269.22)" fill="#40b4e2"/>
        <path id="Trazado_670819" data-name="Trazado 670819" d="M297.206,301.659l4.263-10.093H313.3l-4.223,10.093Z" transform="translate(-283.65 -268.682)" fill="#40b4e2"/>
        <path id="Trazado_670820" data-name="Trazado 670820" d="M323.152,301.659l4.263-10.093h11l-4.223,10.093Z" transform="translate(-282.363 -268.682)" fill="#40b4e2"/>
        <path id="Trazado_670821" data-name="Trazado 670821" d="M344.5,279.973l4.277-10.127,11.612-.083-4.208,10.21Z" transform="translate(-281.305 -269.763)" fill="#40b4e2"/>
        <path id="Trazado_670822" data-name="Trazado 670822" d="M304.863,280.721l-4.223,10.093H288.809l4.2-10.093Z" transform="translate(-284.067 -269.22)" fill="#40b4e2"/>
        <path id="Trazado_670823" data-name="Trazado 670823" d="M335.333,301.659l4.263-10.093h11.812l-4.159,10.093Z" transform="translate(-281.759 -268.682)" fill="#40b4e2"/>
        <path id="Trazado_670824" data-name="Trazado 670824" d="M288.5,291.567h11.829L296.1,301.659H284.291Z" transform="translate(-284.291 -268.682)" fill="#40b4e2"/>
      </g>
      <g id="Grupo_933382" data-name="Grupo 933382" transform="translate(3.449 1.414)">
        <g id="Grupo_933380" data-name="Grupo 933380">
          <path id="Trazado_670825" data-name="Trazado 670825" d="M301.786,290.809h11.82l4.23-10.083H306.047l-2.734,6.464Z" transform="translate(-269.644 -269.22)" fill="#40b4e2"/>
          <path id="Trazado_670826" data-name="Trazado 670826" d="M319.347,279.965h11.774l.031-.084.87-2.07,3.3-7.872-11.789.084-.229.535-.748,1.788-2.535,6.028-.611,1.465Z" transform="translate(-268.773 -269.755)" fill="#40b4e2"/>
          <path id="Trazado_670827" data-name="Trazado 670827" d="M306.369,279.96h11.774l.565-1.366.611-1.45,2.5-5.985.473-1.127-1.726.014-8.933.056-1.115.014-.29.69Z" transform="translate(-269.417 -269.75)" fill="#40b4e2"/>
          <path id="Trazado_670828" data-name="Trazado 670828" d="M332.31,279.969h10.949l2.184-5.239,2.046-4.873-7.055.042-3.879.028-3.818,9.027Z" transform="translate(-268.13 -269.759)" fill="#40b4e2"/>
          <path id="Trazado_670829" data-name="Trazado 670829" d="M314.764,290.809h11.82l1.542-3.69.641-1.493,2.046-4.9H319.025Z" transform="translate(-269 -269.22)" fill="#40b4e2"/>
          <path id="Trazado_670830" data-name="Trazado 670830" d="M339.92,290.809h11.789l3.024-7.295,1.145-2.788h-11.7l-2.352,5.577-1.023,2.408Z" transform="translate(-267.753 -269.22)" fill="#40b4e2"/>
          <path id="Trazado_670831" data-name="Trazado 670831" d="M293.333,279.956h11.85l4.108-9.83-11.911.084-3.283,7.915Z" transform="translate(-270.063 -269.745)" fill="#40b4e2"/>
          <path id="Trazado_670832" data-name="Trazado 670832" d="M310.181,301.664h11.865l4.23-10.1H314.442l-1.955,4.619Z" transform="translate(-269.228 -268.682)" fill="#40b4e2"/>
          <path id="Trazado_670833" data-name="Trazado 670833" d="M327.727,290.809h10.995l1.374-3.267.993-2.366,1.863-4.45H332l-2.581,6.084-.641,1.493Z" transform="translate(-268.357 -269.22)" fill="#40b4e2"/>
          <path id="Trazado_670834" data-name="Trazado 670834" d="M297.2,301.664h11.881l.5-1.2,2.306-5.521,1.4-3.38H301.464l-.321.746Z" transform="translate(-269.871 -268.682)" fill="#40b4e2"/>
          <path id="Trazado_670835" data-name="Trazado 670835" d="M323.159,301.664h11.025l2.764-6.6.641-1.521.825-1.972H327.42Z" transform="translate(-268.584 -268.682)" fill="#40b4e2"/>
          <path id="Trazado_670836" data-name="Trazado 670836" d="M344.488,279.973H356.17l.473-1.169,3.741-9.041-11.606.084-.458,1.1-2.153,5.07Z" transform="translate(-267.526 -269.763)" fill="#40b4e2"/>
          <path id="Trazado_670837" data-name="Trazado 670837" d="M288.809,290.809h11.835l2.046-4.887,2.169-5.2h-11.85l-1.145,2.746Z" transform="translate(-270.288 -269.22)" fill="#40b4e2"/>
          <path id="Trazado_670838" data-name="Trazado 670838" d="M335.337,301.664h11.911l2.413-5.873,1.13-2.746.611-1.479H339.6l-1.329,3.14-.641,1.535Z" transform="translate(-267.98 -268.682)" fill="#40b4e2"/>
          <path id="Trazado_670839" data-name="Trazado 670839" d="M284.284,301.664H296.1l.275-.662,3.94-9.436H288.5l-.412,1-.779,1.859Z" transform="translate(-270.512 -268.682)" fill="#40b4e2"/>
          <path id="Trazado_670840" data-name="Trazado 670840" d="M280.212,279.956h11.85l4.108-9.83-11.911.084-3.283,7.915Z" transform="translate(-270.714 -269.745)" fill="#40b4e2"/>
          <path id="Trazado_670841" data-name="Trazado 670841" d="M275.688,290.809h11.835l2.046-4.887,2.168-5.2h-11.85l-1.145,2.746Z" transform="translate(-270.938 -269.22)" fill="#40b4e2"/>
          <path id="Trazado_670842" data-name="Trazado 670842" d="M271.163,301.664h11.819l.275-.662,3.94-9.436H275.378l-.412,1-.779,1.859Z" transform="translate(-271.163 -268.682)" fill="#40b4e2"/>
        </g>
        <g id="Grupo_933381" data-name="Grupo 933381" transform="translate(16.795 0.099)" opacity="0.37">
          <path id="Trazado_670843" data-name="Trazado 670843" d="M355.314,280.725h-4.031l2.886,2.788Z" transform="translate(-283.984 -269.318)" fill="#fff"/>
          <path id="Trazado_670844" data-name="Trazado 670844" d="M350.2,279.918h5.894l.473-1.169-8.323-7.858-2.153,5.07Z" transform="translate(-284.242 -269.806)" fill="#fff"/>
          <path id="Trazado_670845" data-name="Trazado 670845" d="M348.569,291.567H344.43c1.665,1.464,3.267,2.886,4.78,4.225l1.129-2.746Z" transform="translate(-284.324 -268.78)" fill="#fff"/>
          <path id="Trazado_670846" data-name="Trazado 670846" d="M340.763,288.447c.809.7,1.6,1.409,2.383,2.1h4.047l-5.406-4.506Z" transform="translate(-284.506 -269.055)" fill="#fff"/>
          <path id="Trazado_670847" data-name="Trazado 670847" d="M332.31,279.539h1.649l-1.222-1.014Z" transform="translate(-284.925 -269.427)" fill="#fff"/>
          <path id="Trazado_670848" data-name="Trazado 670848" d="M335.528,280.725h-3.436c2.6,2.268,5.223,4.564,7.788,6.816l.993-2.366Z" transform="translate(-284.936 -269.318)" fill="#fff"/>
          <path id="Trazado_670849" data-name="Trazado 670849" d="M322.4,272.316c2.718,2.38,5.635,4.929,8.6,7.534l.87-2.07-8.72-7.253Z" transform="translate(-285.417 -269.824)" fill="#fff"/>
          <path id="Trazado_670850" data-name="Trazado 670850" d="M345.059,274.73l2.046-4.873-7.055.042Z" transform="translate(-284.542 -269.857)" fill="#fff"/>
          <path id="Trazado_670851" data-name="Trazado 670851" d="M338.16,294.559l-.641,1.535,5.895,5.422h2.352Z" transform="translate(-284.667 -268.632)" fill="#fff"/>
          <path id="Trazado_670852" data-name="Trazado 670852" d="M334.965,291.567h-2.291l3.8,3.492.641-1.521Z" transform="translate(-284.907 -268.781)" fill="#fff"/>
          <path id="Trazado_670853" data-name="Trazado 670853" d="M328.731,288.015l2.733,2.507h2.275l-4.367-4Z" transform="translate(-285.103 -269.031)" fill="#fff"/>
          <path id="Trazado_670854" data-name="Trazado 670854" d="M323.1,280.725h-2.23l6.948,6.394.641-1.493Z" transform="translate(-285.493 -269.318)" fill="#fff"/>
          <path id="Trazado_670855" data-name="Trazado 670855" d="M320.016,277.975l-.611,1.465.137.127h2.214Z" transform="translate(-285.565 -269.455)" fill="#fff"/>
          <path id="Trazado_670856" data-name="Trazado 670856" d="M310.05,270.8l8.475,7.788.611-1.451-7.681-7.042-1.115.014Z" transform="translate(-286.029 -269.845)" fill="#fff"/>
          <path id="Trazado_670857" data-name="Trazado 670857" d="M321.152,271.158l.473-1.126-1.726.014Z" transform="translate(-285.541 -269.849)" fill="#fff"/>
          <path id="Trazado_670858" data-name="Trazado 670858" d="M301.786,290.5h5.177l-3.65-3.619Z" transform="translate(-286.439 -269.013)" fill="#fff"/>
          <path id="Trazado_670859" data-name="Trazado 670859" d="M310.181,301.446h7.834l-5.528-5.478Z" transform="translate(-286.023 -268.562)" fill="#fff"/>
          <path id="Trazado_670860" data-name="Trazado 670860" d="M300.957,292.313l8.445,8.154,2.306-5.521-3.405-3.38h-7.024Z" transform="translate(-286.48 -268.781)" fill="#fff"/>
          <path id="Trazado_670861" data-name="Trazado 670861" d="M291.719,283.472l7.589,7.337H300.5l2.046-4.887-5.238-5.2h-4.444Z" transform="translate(-286.939 -269.318)" fill="#fff"/>
          <path id="Trazado_670862" data-name="Trazado 670862" d="M293.333,279.577h2.6l-1.832-1.831Z" transform="translate(-286.859 -269.466)" fill="#fff"/>
          <path id="Trazado_670863" data-name="Trazado 670863" d="M287.165,294.378l7.208,7.239h1.588l.275-.662-8.292-8.436Z" transform="translate(-287.165 -268.733)" fill="#fff"/>
        </g>
      </g>
    </g>
    <ellipse id="Elipse_5244" data-name="Elipse 5244" cx="9.376" cy="1.574" rx="9.376" ry="1.574" transform="translate(125.365 330.015)" fill="#8ddb7f"/>
    <ellipse id="Elipse_5245" data-name="Elipse 5245" cx="5.484" cy="0.787" rx="5.484" ry="0.787" transform="translate(157.203 331.589)" fill="#8ddb7f"/>
    <ellipse id="Elipse_5246" data-name="Elipse 5246" cx="5.484" cy="0.787" rx="5.484" ry="0.787" transform="translate(98.557 332.377)" fill="#8ddb7f"/>
    <ellipse id="Elipse_5247" data-name="Elipse 5247" cx="5.484" cy="0.787" rx="5.484" ry="0.787" transform="translate(227.337 336.181)" fill="#8ddb7f"/>
    <ellipse id="Elipse_5248" data-name="Elipse 5248" cx="5.484" cy="0.787" rx="5.484" ry="0.787" transform="translate(284.671 337.756)" fill="#8ddb7f"/>
    <ellipse id="Elipse_5249" data-name="Elipse 5249" cx="5.484" cy="0.787" rx="5.484" ry="0.787" transform="translate(265.516 333.426)" fill="#8ddb7f"/>
    <ellipse id="Elipse_5250" data-name="Elipse 5250" cx="8.174" cy="1.771" rx="8.174" ry="1.771" transform="translate(331.85 333.426)" fill="#8ddb7f"/>
  </g>
</svg>
